<?xml version="1.0" encoding="UTF-8" standalone="no"?>
<svg
   xmlns:dc="http://purl.org/dc/elements/1.1/"
   xmlns:cc="http://creativecommons.org/ns#"
   xmlns:rdf="http://www.w3.org/1999/02/22-rdf-syntax-ns#"
   xmlns:svg="http://www.w3.org/2000/svg"
   xmlns="http://www.w3.org/2000/svg"
   xmlns:sodipodi="http://sodipodi.sourceforge.net/DTD/sodipodi-0.dtd"
   xmlns:inkscape="http://www.inkscape.org/namespaces/inkscape"
   viewBox="0 0 341.33334 341.33334"
   height="341.33334"
   width="341.33334"
   xml:space="preserve"
   id="svg2"
   version="1.1"
   sodipodi:docname="Amstrad - CPC-content.svg"
   inkscape:version="0.92.2 (5c3e80d, 2017-08-06)"><sodipodi:namedview
     pagecolor="#ffffff"
     bordercolor="#666666"
     borderopacity="1"
     objecttolerance="10"
     gridtolerance="10"
     guidetolerance="10"
     inkscape:pageopacity="0"
     inkscape:pageshadow="2"
     inkscape:window-width="1024"
     inkscape:window-height="705"
     id="namedview52"
     showgrid="false"
     inkscape:pagecheckerboard="true"
     inkscape:zoom="2.7656249"
     inkscape:cx="48.058465"
     inkscape:cy="91.492386"
     inkscape:window-x="-8"
     inkscape:window-y="-8"
     inkscape:window-maximized="1"
     inkscape:current-layer="svg2" /><metadata
     id="metadata8"><rdf:RDF><cc:Work
         rdf:about=""><dc:format>image/svg+xml</dc:format><dc:type
           rdf:resource="http://purl.org/dc/dcmitype/StillImage" /><dc:title></dc:title></cc:Work></rdf:RDF></metadata><defs
     id="defs6"><clipPath
       id="clipPath18"
       clipPathUnits="userSpaceOnUse"><path
         id="path16"
         d="M 0,256 H 256 V 0 H 0 Z" /></clipPath><clipPath
       id="clipPath26"
       clipPathUnits="userSpaceOnUse"><path
         id="path24"
         d="M 4,208 H 252 V 48 H 4 Z" /></clipPath></defs><g
     id="g22"
     transform="matrix(1.3333333,0,0,-1.3333333,0,341.33333)" /><path
     id="path38"
     style="fill:#d9d9d9;fill-opacity:1;fill-rule:nonzero;stroke:none;stroke-width:1.33333325"
     d="m 231.99999,170.66667 c -10.30533,0 -18.66667,-8.35733 -18.66667,-18.66667 0,-10.31066 8.36134,-18.66666 18.66667,-18.66666 10.304,0 18.66667,8.356 18.66667,18.66666 0,10.30934 -8.36267,18.66667 -18.66667,18.66667 m -122.66666,0 c -10.304003,0 -18.66667,-8.35733 -18.66667,-18.66667 0,-10.30933 8.362667,-18.66666 18.66667,-18.66666 10.304,0 18.66666,8.35733 18.66666,18.66666 0,10.30934 -8.36266,18.66667 -18.66666,18.66667 M 313.87599,74.666672 H 27.457328 c -6.323999,0 -11.457333,5.06 -11.457333,11.294667 V 255.372 c 0,6.23467 5.133334,11.29467 11.457333,11.29467 h 34.369333 217.679999 34.36933 c 6.324,0 11.45733,-5.06 11.45733,-11.29467 V 85.961339 c 0,-6.234667 -5.13333,-11.294667 -11.45733,-11.294667"
     inkscape:connector-curvature="0" /><path
     id="path42"
     style="fill:#3096cf;fill-opacity:1;fill-rule:nonzero;stroke:none;stroke-width:1.33333325"
     d="m 231.99999,170.66667 c -10.304,0 -18.66667,-8.356 -18.66667,-18.66667 0,-10.31066 8.36267,-18.66666 18.66667,-18.66666 10.30533,0 18.66667,8.356 18.66667,18.66666 0,10.31067 -8.36134,18.66667 -18.66667,18.66667 m -122.66666,0 c -10.304003,0 -18.66667,-8.35733 -18.66667,-18.66667 0,-10.30933 8.362667,-18.66666 18.66667,-18.66666 10.304,0 18.66666,8.35733 18.66666,18.66666 0,10.30934 -8.36266,18.66667 -18.66666,18.66667 M 297.77732,90.666672 H 43.555995 l -11.556,11.733338 v 93.86666 c 0,6.47733 5.177333,11.73333 11.556,11.73333 H 297.77732 c 6.37867,0 11.556,-5.256 11.556,-11.73333 v -93.86666 z"
     inkscape:connector-curvature="0" /><path
     id="path46"
     style="fill:#d9d9d9;fill-opacity:1;fill-rule:nonzero;stroke:none;stroke-width:1.33333325"
     d="M 231.99999,176 H 109.33333 c -13.200003,0 -24.000003,-10.8 -24.000003,-24 0,-13.2 10.8,-24 24.000003,-24 h 122.66666 c 13.2,0 24,10.8 24,24 0,13.2 -10.8,24 -24,24"
     inkscape:connector-curvature="0" /><path
     id="path50"
     style="fill:#cccccc;fill-opacity:1;fill-rule:nonzero;stroke:none;stroke-width:1.33333325"
     d="m 266.36973,240 c 0,0 0,-5.33333 -5.64533,-5.33333 H 80.592401 c -5.629333,0 -5.629333,5.33333 -5.629333,5.33333 l -5.629333,26.66667 H 272.0004 Z"
     inkscape:connector-curvature="0" /><path
     id="path54"
     style="fill:#808080;fill-opacity:1;fill-rule:nonzero;stroke:none;stroke-width:1.33333325"
     d="m 95.999998,261.33333 c -2.949333,0 -5.333333,-2.384 -5.333333,-5.33333 0,-2.94934 2.384,-5.33334 5.333333,-5.33334 2.949333,0 5.333332,2.384 5.333332,5.33334 0,2.94933 -2.383999,5.33333 -5.333332,5.33333"
     inkscape:connector-curvature="0" /><path
     id="path58"
     style="fill:#808080;fill-opacity:1;fill-rule:nonzero;stroke:none;stroke-width:1.33333325"
     d="m 122.66666,256 c -2.94933,0 -5.33333,-2.384 -5.33333,-5.33333 0,-2.94934 2.384,-5.33334 5.33333,-5.33334 2.94933,0 5.33333,2.384 5.33333,5.33334 0,2.94933 -2.384,5.33333 -5.33333,5.33333"
     inkscape:connector-curvature="0" /><path
     id="path62"
     style="fill:#808080;fill-opacity:1;fill-rule:nonzero;stroke:none;stroke-width:1.33333325"
     d="m 170.66666,250.66667 c -2.94933,0 -5.33333,-2.384 -5.33333,-5.33333 0,-2.94934 2.384,-5.33334 5.33333,-5.33334 2.94933,0 5.33333,2.384 5.33333,5.33334 0,2.94933 -2.384,5.33333 -5.33333,5.33333"
     inkscape:connector-curvature="0" /><path
     id="path66"
     style="fill:#808080;fill-opacity:1;fill-rule:nonzero;stroke:none;stroke-width:1.33333325"
     d="m 218.66666,256 c -2.94933,0 -5.33333,-2.384 -5.33333,-5.33333 0,-2.94934 2.384,-5.33334 5.33333,-5.33334 2.94933,0 5.33333,2.384 5.33333,5.33334 0,2.94933 -2.384,5.33333 -5.33333,5.33333"
     inkscape:connector-curvature="0" /><path
     id="path70"
     style="fill:#808080;fill-opacity:1;fill-rule:nonzero;stroke:none;stroke-width:1.33333325"
     d="M 245.33333,261.33333 C 242.384,261.33333 240,258.94933 240,256 c 0,-2.94934 2.384,-5.33334 5.33333,-5.33334 2.94933,0 5.33333,2.384 5.33333,5.33334 0,2.94933 -2.384,5.33333 -5.33333,5.33333"
     inkscape:connector-curvature="0" /><path
     id="path74"
     style="fill:#cccccc;fill-opacity:1;fill-rule:nonzero;stroke:none;stroke-width:1.33333325"
     d="m 24.046266,261.33333 c -1.472,0.0253 -2.686667,-1.148 -2.712,-2.62 -0.02667,-1.472 1.148,-2.68667 2.62,-2.71333 1.470667,-0.0253 2.686667,1.148 2.712,2.62 0.02533,1.472 -1.148,2.68666 -2.62,2.71333"
     inkscape:connector-curvature="0" /><path
     id="path78"
     style="fill:#cccccc;fill-opacity:1;fill-rule:nonzero;stroke:none;stroke-width:1.33333325"
     d="m 23.999999,85.333336 c -1.472,0 -2.666667,-1.194667 -2.666667,-2.666667 0,-1.472 1.194667,-2.666666 2.666667,-2.666666 1.472,0 2.666667,1.194666 2.666667,2.666666 0,1.472 -1.194667,2.666667 -2.666667,2.666667"
     inkscape:connector-curvature="0" /><path
     id="path82"
     style="fill:#cccccc;fill-opacity:1;fill-rule:nonzero;stroke:none;stroke-width:1.33333325"
     d="m 317.33333,261.33333 c -1.472,0 -2.66667,-1.19467 -2.66667,-2.66667 0,-1.472 1.19467,-2.66666 2.66667,-2.66666 1.472,0 2.66667,1.19466 2.66667,2.66666 0,1.472 -1.19467,2.66667 -2.66667,2.66667"
     inkscape:connector-curvature="0" /><path
     id="path86"
     style="fill:#cccccc;fill-opacity:1;fill-rule:nonzero;stroke:none;stroke-width:1.33333325"
     d="m 317.33333,85.333336 c -1.472,0 -2.66667,-1.194667 -2.66667,-2.666667 0,-1.472 1.19467,-2.666666 2.66667,-2.666666 1.472,0 2.66667,1.194666 2.66667,2.666666 0,1.472 -1.19467,2.666667 -2.66667,2.666667"
     inkscape:connector-curvature="0" /><path
     id="path90"
     style="fill:#0d0d0d;fill-opacity:1;fill-rule:nonzero;stroke:none;stroke-width:1.33333325"
     d="m 109.33333,133.33334 c -10.304,0 -18.666666,8.356 -18.666666,18.66667 0,10.30933 8.362666,18.66666 18.666666,18.66666 10.304,0 18.66667,-8.35733 18.66667,-18.66666 0,-10.31067 -8.36267,-18.66667 -18.66667,-18.66667 m 0,5.33333 c 7.352,0 13.33333,5.98134 13.33333,13.33334 0,7.352 -5.98133,13.33333 -13.33333,13.33333 -7.352,0 -13.333333,-5.98133 -13.333333,-13.33333 0,-7.352 5.981333,-13.33334 13.333333,-13.33334"
     inkscape:connector-curvature="0" /><path
     id="path94"
     style="fill:#0d0d0d;fill-opacity:1;fill-rule:nonzero;stroke:none;stroke-width:1.33333325"
     d="m 231.99999,133.33334 c -10.30533,0 -18.66667,8.356 -18.66667,18.66667 0,10.30933 8.36134,18.66666 18.66667,18.66666 10.304,0 18.66667,-8.35733 18.66667,-18.66666 0,-10.31067 -8.36267,-18.66667 -18.66667,-18.66667 m 0,5.33333 c 7.352,0 13.33333,5.98134 13.33333,13.33334 0,7.352 -5.98133,13.33333 -13.33333,13.33333 -7.352,0 -13.33333,-5.98133 -13.33333,-13.33333 0,-7.352 5.98133,-13.33334 13.33333,-13.33334"
     inkscape:connector-curvature="0" /><path
     id="path98"
     style="fill:#808080;fill-opacity:1;fill-rule:nonzero;stroke:none;stroke-width:1.33333325"
     d="m 207.99999,165.33333 c 0,2.94933 -2.78133,5.33333 -6.22267,5.33333 h -62.22133 c -3.44133,0 -6.22266,-2.384 -6.22266,-5.33333 V 144 c 0,-2.94934 2.78133,-5.33334 6.22266,-5.33334 h 62.22133 c 3.44134,0 6.22267,2.384 6.22267,5.33334 z"
     inkscape:connector-curvature="0" /><path
     id="path102"
     style="fill:#0d0d0d;fill-opacity:1;fill-rule:nonzero;stroke:none;stroke-width:1.33333325"
     d="m 133.33333,144 v 21.33333 c 0,2.94934 3.31467,5.33334 7.416,5.33334 h 3.648 c 3.136,-4.872 4.936,-10.27867 4.936,-16 0,-5.72134 -1.8,-11.128 -4.936,-16 h -3.648 c -4.10133,0 -7.416,2.384 -7.416,5.33333"
     inkscape:connector-curvature="0" /></svg>