<?xml version="1.0" encoding="UTF-8" standalone="no"?>
<svg
   xmlns:dc="http://purl.org/dc/elements/1.1/"
   xmlns:cc="http://creativecommons.org/ns#"
   xmlns:rdf="http://www.w3.org/1999/02/22-rdf-syntax-ns#"
   xmlns:svg="http://www.w3.org/2000/svg"
   xmlns="http://www.w3.org/2000/svg"
   xmlns:sodipodi="http://sodipodi.sourceforge.net/DTD/sodipodi-0.dtd"
   xmlns:inkscape="http://www.inkscape.org/namespaces/inkscape"
   viewBox="0 0 341.33334 341.33334"
   height="341.33334"
   width="341.33334"
   xml:space="preserve"
   id="svg2"
   version="1.1"
   sodipodi:docname="Atari - Jaguar.svg"
   inkscape:version="0.92.2 (5c3e80d, 2017-08-06)"><sodipodi:namedview
     pagecolor="#ffffff"
     bordercolor="#666666"
     borderopacity="1"
     objecttolerance="10"
     gridtolerance="10"
     guidetolerance="10"
     inkscape:pageopacity="0"
     inkscape:pageshadow="2"
     inkscape:window-width="730"
     inkscape:window-height="480"
     id="namedview129"
     showgrid="false"
     inkscape:pagecheckerboard="true"
     inkscape:zoom="0.69140623"
     inkscape:cx="143.00043"
     inkscape:cy="232.55581"
     inkscape:window-x="0"
     inkscape:window-y="0"
     inkscape:window-maximized="0"
     inkscape:current-layer="svg2" /><metadata
     id="metadata8"><rdf:RDF><cc:Work
         rdf:about=""><dc:format>image/svg+xml</dc:format><dc:type
           rdf:resource="http://purl.org/dc/dcmitype/StillImage" /><dc:title></dc:title></cc:Work></rdf:RDF></metadata><defs
     id="defs6"><clipPath
       id="clipPath18"
       clipPathUnits="userSpaceOnUse"><path
         id="path16"
         d="M 0,256 H 256 V 0 H 0 Z" /></clipPath><clipPath
       id="clipPath26"
       clipPathUnits="userSpaceOnUse"><path
         id="path24"
         d="M 4,226 H 252 V 30 H 4 Z" /></clipPath></defs><g
     id="g36"
     transform="matrix(1.3333333,0,0,-1.3333333,304.00079,104.14667)"><path
       inkscape:connector-curvature="0"
       d="m 0,0 c -3.003,4.53 -6.831,9 -11.145,13.234 v 3.643 c 0,3.082 -1.069,4.62 -4.227,7.432 -5.31,4.731 -20.811,11.451 -26.921,12.99 -3.316,0.835 -4.648,0.441 -5.031,-0.836 -5.422,1.881 -13.55,3.647 -18.306,3.647 -6.582,0 -5.779,-4.286 -12.889,-4.286 h -42.963 c -7.11,0 -6.311,4.286 -12.889,4.286 -4.76,0 -12.885,-1.766 -18.302,-3.651 -0.391,1.277 -1.719,1.675 -5.035,0.835 -6.114,-1.538 -21.611,-8.263 -26.925,-12.99 -3.15,-2.811 -4.228,-4.354 -4.228,-7.431 V 13.23 c -4.313,-4.234 -8.141,-8.704 -11.144,-13.234 -13.358,-20.152 -15.996,-42.429 -15.996,-67.029 0,-22.65 4.146,-45.197 12.885,-64.594 3.115,-5.919 9.937,-8.263 21.486,-8.263 h 30.074 c 1.946,0 1.946,4.286 4.296,4.286 h 38.667 c 0,0 1.186,4.285 8.592,4.285 7.407,0 8.593,-4.285 8.593,-4.285 h 38.667 c 2.35,0 2.35,-4.286 4.296,-4.286 h 30.074 c 11.548,0 18.371,2.344 21.49,8.263 8.734,19.397 12.88,41.944 12.88,64.594 0,24.6 -2.638,46.877 -15.999,67.033"
       style="fill:#333333;fill-opacity:1;fill-rule:nonzero;stroke:none"
       id="path38" /></g><g
     id="g40"
     transform="matrix(1.3333333,0,0,-1.3333333,304.00079,103.84347)"
     style="fill:#4d4d4d"><path
       inkscape:connector-curvature="0"
       d="m 0,0 c -3.003,4.537 -6.831,9.015 -11.145,13.256 0,0.284 -1.238,1.552 -3.167,3.325 -25.986,16.62 -64.207,19.302 -64.207,19.302 h -42.963 c -26.85,0 -67.379,-22.631 -67.379,-22.631 -4.313,-4.242 -8.141,-8.719 -11.144,-13.256 -13.358,-20.185 -15.996,-42.498 -15.996,-67.138 0,-22.686 4.146,-45.271 12.885,-64.699 3.115,-5.928 9.937,-8.276 21.486,-8.276 h 30.074 c 1.946,0 1.946,4.292 4.296,4.292 h 38.667 c 0,0 1.186,4.293 8.592,4.293 7.407,0 8.593,-4.293 8.593,-4.293 h 38.667 c 2.35,0 2.35,-4.292 4.296,-4.292 h 30.074 c 11.548,0 18.371,2.348 21.49,8.276 8.734,19.428 12.88,42.013 12.88,64.699 C 15.999,-42.502 13.361,-20.189 0,0"
       style="fill:#4d4d4d;fill-opacity:1;fill-rule:nonzero;stroke:none"
       id="path42" /></g><g
     id="g44"
     transform="matrix(1.3333333,0,0,-1.3333333,215.99999,189.33333)"><path
       inkscape:connector-curvature="0"
       d="m 0,0 c 0,-3.314 -2.686,-6 -6,-6 -3.314,0 -6,2.686 -6,6 0,3.314 2.686,6 6,6 3.314,0 6,-2.686 6,-6"
       style="fill:#191919;fill-opacity:1;fill-rule:nonzero;stroke:none"
       id="path46" /></g><g
     id="g48"
     transform="matrix(1.3333333,0,0,-1.3333333,215.99999,192)"><path
       inkscape:connector-curvature="0"
       d="m 0,0 h -12 c -1.104,0 -2,0.896 -2,2 0,1.104 0.896,2 2,2 H 0 C 1.104,4 2,3.104 2,2 2,0.896 1.104,0 0,0"
       style="fill:#999999;fill-opacity:1;fill-rule:nonzero;stroke:none"
       id="path50" /></g><g
     id="g52"
     transform="matrix(1.3333333,0,0,-1.3333333,215.99999,210.66667)"><path
       inkscape:connector-curvature="0"
       d="m 0,0 c 0,-3.314 -2.686,-6 -6,-6 -3.314,0 -6,2.686 -6,6 0,3.314 2.686,6 6,6 3.314,0 6,-2.686 6,-6"
       style="fill:#191919;fill-opacity:1;fill-rule:nonzero;stroke:none"
       id="path54" /></g><g
     id="g56"
     transform="matrix(1.3333333,0,0,-1.3333333,215.99999,213.33333)"><path
       inkscape:connector-curvature="0"
       d="m 0,0 h -12 c -1.104,0 -2,0.896 -2,2 0,1.104 0.896,2 2,2 H 0 C 1.104,4 2,3.104 2,2 2,0.896 1.104,0 0,0"
       style="fill:#999999;fill-opacity:1;fill-rule:nonzero;stroke:none"
       id="path58" /></g><g
     id="g60"
     transform="matrix(1.3333333,0,0,-1.3333333,215.99999,232)"><path
       inkscape:connector-curvature="0"
       d="m 0,0 c 0,-3.314 -2.686,-6 -6,-6 -3.314,0 -6,2.686 -6,6 0,3.314 2.686,6 6,6 3.314,0 6,-2.686 6,-6"
       style="fill:#191919;fill-opacity:1;fill-rule:nonzero;stroke:none"
       id="path62" /></g><g
     id="g64"
     transform="matrix(1.3333333,0,0,-1.3333333,215.99999,234.66667)"><path
       inkscape:connector-curvature="0"
       d="m 0,0 h -12 c -1.104,0 -2,0.896 -2,2 0,1.104 0.896,2 2,2 H 0 C 1.104,4 2,3.104 2,2 2,0.896 1.104,0 0,0"
       style="fill:#999999;fill-opacity:1;fill-rule:nonzero;stroke:none"
       id="path66" /></g><g
     id="g68"
     transform="matrix(1.3333333,0,0,-1.3333333,215.99999,253.33333)"><path
       inkscape:connector-curvature="0"
       d="m 0,0 c 0,-3.314 -2.686,-6 -6,-6 -3.314,0 -6,2.686 -6,6 0,3.314 2.686,6 6,6 3.314,0 6,-2.686 6,-6"
       style="fill:#191919;fill-opacity:1;fill-rule:nonzero;stroke:none"
       id="path70" /></g><g
     id="g72"
     transform="matrix(1.3333333,0,0,-1.3333333,215.99999,256)"><path
       inkscape:connector-curvature="0"
       d="m 0,0 h -12 c -1.104,0 -2,0.896 -2,2 0,1.104 0.896,2 2,2 H 0 C 1.104,4 2,3.104 2,2 2,0.896 1.104,0 0,0"
       style="fill:#999999;fill-opacity:1;fill-rule:nonzero;stroke:none"
       id="path74" /></g><g
     id="g76"
     transform="matrix(1.3333333,0,0,-1.3333333,178.66666,189.33333)"><path
       inkscape:connector-curvature="0"
       d="m 0,0 c 0,-3.314 -2.686,-6 -6,-6 -3.314,0 -6,2.686 -6,6 0,3.314 2.686,6 6,6 3.314,0 6,-2.686 6,-6"
       style="fill:#191919;fill-opacity:1;fill-rule:nonzero;stroke:none"
       id="path78" /></g><g
     id="g80"
     transform="matrix(1.3333333,0,0,-1.3333333,178.66666,192)"><path
       inkscape:connector-curvature="0"
       d="m 0,0 h -12 c -1.104,0 -2,0.896 -2,2 0,1.104 0.896,2 2,2 H 0 C 1.104,4 2,3.104 2,2 2,0.896 1.104,0 0,0"
       style="fill:#999999;fill-opacity:1;fill-rule:nonzero;stroke:none"
       id="path82" /></g><g
     id="g84"
     transform="matrix(1.3333333,0,0,-1.3333333,178.66666,210.66667)"><path
       inkscape:connector-curvature="0"
       d="m 0,0 c 0,-3.314 -2.686,-6 -6,-6 -3.314,0 -6,2.686 -6,6 0,3.314 2.686,6 6,6 3.314,0 6,-2.686 6,-6"
       style="fill:#191919;fill-opacity:1;fill-rule:nonzero;stroke:none"
       id="path86" /></g><g
     id="g88"
     transform="matrix(1.3333333,0,0,-1.3333333,178.66666,213.33333)"><path
       inkscape:connector-curvature="0"
       d="m 0,0 h -12 c -1.104,0 -2,0.896 -2,2 0,1.104 0.896,2 2,2 H 0 C 1.104,4 2,3.104 2,2 2,0.896 1.104,0 0,0"
       style="fill:#999999;fill-opacity:1;fill-rule:nonzero;stroke:none"
       id="path90" /></g><g
     id="g92"
     transform="matrix(1.3333333,0,0,-1.3333333,178.66666,232)"><path
       inkscape:connector-curvature="0"
       d="m 0,0 c 0,-3.314 -2.686,-6 -6,-6 -3.314,0 -6,2.686 -6,6 0,3.314 2.686,6 6,6 3.314,0 6,-2.686 6,-6"
       style="fill:#191919;fill-opacity:1;fill-rule:nonzero;stroke:none"
       id="path94" /></g><g
     id="g96"
     transform="matrix(1.3333333,0,0,-1.3333333,178.66666,234.66667)"><path
       inkscape:connector-curvature="0"
       d="m 0,0 h -12 c -1.104,0 -2,0.896 -2,2 0,1.104 0.896,2 2,2 H 0 C 1.104,4 2,3.104 2,2 2,0.896 1.104,0 0,0"
       style="fill:#999999;fill-opacity:1;fill-rule:nonzero;stroke:none"
       id="path98" /></g><g
     id="g100"
     transform="matrix(1.3333333,0,0,-1.3333333,178.66666,253.33333)"><path
       inkscape:connector-curvature="0"
       d="m 0,0 c 0,-3.314 -2.686,-6 -6,-6 -3.314,0 -6,2.686 -6,6 0,3.314 2.686,6 6,6 3.314,0 6,-2.686 6,-6"
       style="fill:#191919;fill-opacity:1;fill-rule:nonzero;stroke:none"
       id="path102" /></g><g
     id="g104"
     transform="matrix(1.3333333,0,0,-1.3333333,178.66666,256)"><path
       inkscape:connector-curvature="0"
       d="m 0,0 h -12 c -1.104,0 -2,0.896 -2,2 0,1.104 0.896,2 2,2 H 0 C 1.104,4 2,3.104 2,2 2,0.896 1.104,0 0,0"
       style="fill:#999999;fill-opacity:1;fill-rule:nonzero;stroke:none"
       id="path106" /></g><g
     id="g108"
     transform="matrix(1.3333333,0,0,-1.3333333,141.33333,189.33333)"><path
       inkscape:connector-curvature="0"
       d="m 0,0 c 0,-3.314 -2.686,-6 -6,-6 -3.314,0 -6,2.686 -6,6 0,3.314 2.686,6 6,6 3.314,0 6,-2.686 6,-6"
       style="fill:#191919;fill-opacity:1;fill-rule:nonzero;stroke:none"
       id="path110" /></g><g
     id="g112"
     transform="matrix(1.3333333,0,0,-1.3333333,141.33333,192)"><path
       inkscape:connector-curvature="0"
       d="m 0,0 h -12 c -1.104,0 -2,0.896 -2,2 0,1.104 0.896,2 2,2 H 0 C 1.104,4 2,3.104 2,2 2,0.896 1.104,0 0,0"
       style="fill:#999999;fill-opacity:1;fill-rule:nonzero;stroke:none"
       id="path114" /></g><g
     id="g116"
     transform="matrix(1.3333333,0,0,-1.3333333,141.33333,210.66667)"><path
       inkscape:connector-curvature="0"
       d="m 0,0 c 0,-3.314 -2.686,-6 -6,-6 -3.314,0 -6,2.686 -6,6 0,3.314 2.686,6 6,6 3.314,0 6,-2.686 6,-6"
       style="fill:#191919;fill-opacity:1;fill-rule:nonzero;stroke:none"
       id="path118" /></g><g
     id="g120"
     transform="matrix(1.3333333,0,0,-1.3333333,141.33333,213.33333)"><path
       inkscape:connector-curvature="0"
       d="m 0,0 h -12 c -1.104,0 -2,0.896 -2,2 0,1.104 0.896,2 2,2 H 0 C 1.104,4 2,3.104 2,2 2,0.896 1.104,0 0,0"
       style="fill:#999999;fill-opacity:1;fill-rule:nonzero;stroke:none"
       id="path122" /></g><g
     id="g124"
     transform="matrix(1.3333333,0,0,-1.3333333,141.33333,232)"><path
       inkscape:connector-curvature="0"
       d="m 0,0 c 0,-3.314 -2.686,-6 -6,-6 -3.314,0 -6,2.686 -6,6 0,3.314 2.686,6 6,6 3.314,0 6,-2.686 6,-6"
       style="fill:#191919;fill-opacity:1;fill-rule:nonzero;stroke:none"
       id="path126" /></g><g
     id="g128"
     transform="matrix(1.3333333,0,0,-1.3333333,141.33333,234.66667)"><path
       inkscape:connector-curvature="0"
       d="m 0,0 h -12 c -1.104,0 -2,0.896 -2,2 0,1.104 0.896,2 2,2 H 0 C 1.104,4 2,3.104 2,2 2,0.896 1.104,0 0,0"
       style="fill:#999999;fill-opacity:1;fill-rule:nonzero;stroke:none"
       id="path130" /></g><g
     id="g132"
     transform="matrix(1.3333333,0,0,-1.3333333,141.33333,253.33333)"><path
       inkscape:connector-curvature="0"
       d="m 0,0 c 0,-3.314 -2.686,-6 -6,-6 -3.314,0 -6,2.686 -6,6 0,3.314 2.686,6 6,6 3.314,0 6,-2.686 6,-6"
       style="fill:#191919;fill-opacity:1;fill-rule:nonzero;stroke:none"
       id="path134" /></g><g
     id="g136"
     transform="matrix(1.3333333,0,0,-1.3333333,141.33333,256)"><path
       inkscape:connector-curvature="0"
       d="m 0,0 h -12 c -1.104,0 -2,0.896 -2,2 0,1.104 0.896,2 2,2 H 0 C 1.104,4 2,3.104 2,2 2,0.896 1.104,0 0,0"
       style="fill:#999999;fill-opacity:1;fill-rule:nonzero;stroke:none"
       id="path138" /></g><g
     id="g140"
     transform="matrix(1.3333333,0,0,-1.3333333,82.084798,142.724)"><path
       inkscape:connector-curvature="0"
       d="m 0,0 c -11.029,0 -20.001,8.972 -20.001,20 0,11.028 8.972,20 20.001,20 C 11.027,40 19.999,31.028 19.999,20 19.999,8.972 11.027,0 0,0"
       style="fill:#191919;fill-opacity:1;fill-rule:nonzero;stroke:none"
       id="path142" /></g><g
     id="g144"
     transform="matrix(1.3333333,0,0,-1.3333333,82.084798,92.057336)"
     style="fill:#333333"><path
       inkscape:connector-curvature="0"
       d="m 0,0 c -9.926,0 -18.001,-8.075 -18.001,-18 0,-9.925 8.075,-18 18.001,-18 9.924,0 17.999,8.075 17.999,18 C 17.999,-8.075 9.924,0 0,0"
       style="fill:#333333;fill-opacity:1;fill-rule:nonzero;stroke:none"
       id="path146" /></g><g
     id="g148"
     transform="matrix(1.3333333,0,0,-1.3333333,100.7508,118.724)"
     style="fill:#1a1a1a"><path
       inkscape:connector-curvature="0"
       d="m 0,0 c 0,-2.212 -1.788,-4 -4,-4 -2.212,0 -4,-1.788 -4,-4 0,-2.212 -1.788,-4 -4,-4 h -4 c -2.212,0 -4,1.788 -4,4 0,2.212 -1.792,4 -4,4 -2.212,0 -4,1.788 -4,4 v 4 c 0,2.212 1.788,4 4,4 2.212,0 4,1.788 4,4 0,2.212 1.788,4 4,4 h 4 c 2.212,0 4,-1.788 4,-4 0,-2.212 1.792,-4 4,-4 2.212,0 4,-1.788 4,-4 z"
       style="fill:#1a1a1a;fill-opacity:1;fill-rule:nonzero;stroke:none"
       id="path150" /></g><g
     id="g152"
     transform="matrix(1.3333333,0,0,-1.3333333,148.36373,133.65654)"><path
       inkscape:connector-curvature="0"
       d="M 0,0 -7.03,-7.03 C -8,-8 -9.576,-8 -10.546,-7.03 c -0.969,0.969 -0.969,2.545 0,3.515 l 7.031,7.03 c 0.969,0.97 2.545,0.97 3.515,0 C 0.97,2.546 0.97,0.97 0,0"
       style="fill:#999999;fill-opacity:1;fill-rule:nonzero;stroke:none"
       id="path154" /></g><g
     id="g156"
     transform="matrix(1.3333333,0,0,-1.3333333,175.0304,133.65654)"><path
       inkscape:connector-curvature="0"
       d="M 0,0 -7.03,-7.03 C -8,-8 -9.576,-8 -10.546,-7.03 c -0.969,0.969 -0.969,2.545 0,3.515 l 7.031,7.03 c 0.969,0.97 2.545,0.97 3.515,0 C 0.97,2.546 0.97,0.97 0,0"
       style="fill:#999999;fill-opacity:1;fill-rule:nonzero;stroke:none"
       id="path158" /></g><g
     id="g160"
     transform="matrix(1.3333333,0,0,-1.3333333,197.33333,125.33334)"><path
       inkscape:connector-curvature="0"
       d="M 0,0 C 0,3.312 2.688,6 6,6 9.312,6 12,3.312 12,0 12,-3.312 9.312,-6 6,-6 2.688,-6 0,-3.312 0,0"
       style="fill:#ff0000;fill-opacity:1;fill-rule:nonzero;stroke:none"
       id="path162" /></g><g
     id="g164"
     transform="matrix(1.3333333,0,0,-1.3333333,218.66666,106.66667)"><path
       inkscape:connector-curvature="0"
       d="M 0,0 C 0,3.312 2.688,6 6,6 9.312,6 12,3.312 12,0 12,-3.312 9.312,-6 6,-6 2.688,-6 0,-3.312 0,0"
       style="fill:#ff0000;fill-opacity:1;fill-rule:nonzero;stroke:none"
       id="path166" /></g><g
     id="g168"
     transform="matrix(1.3333333,0,0,-1.3333333,239.99999,88.000003)"><path
       inkscape:connector-curvature="0"
       d="M 0,0 C 0,3.312 2.688,6 6,6 9.312,6 12,3.312 12,0 12,-3.312 9.312,-6 6,-6 2.688,-6 0,-3.312 0,0"
       style="fill:#ff0000;fill-opacity:1;fill-rule:nonzero;stroke:none"
       id="path170" /></g><g
     id="g172"
     transform="matrix(1.3333333,0,0,-1.3333333,223.99999,160)"><path
       inkscape:connector-curvature="0"
       d="m 0,0 c -4.416,0 -8,3.584 -8,8 0,4.416 3.584,8 8,8 C 4.416,16 8,12.416 8,8 8,3.584 4.416,0 0,0"
       style="fill:#ff0000;fill-opacity:1;fill-rule:nonzero;stroke:none"
       id="path174" /></g><g
     id="g176"
     transform="matrix(1.3333333,0,0,-1.3333333,247.99999,138.66667)"><path
       inkscape:connector-curvature="0"
       d="m 0,0 c -4.416,0 -8,3.584 -8,8 0,4.416 3.584,8 8,8 C 4.416,16 8,12.416 8,8 8,3.584 4.416,0 0,0"
       style="fill:#ff0000;fill-opacity:1;fill-rule:nonzero;stroke:none"
       id="path178" /></g><g
     id="g180"
     transform="matrix(1.3333333,0,0,-1.3333333,271.99999,117.33334)"><path
       inkscape:connector-curvature="0"
       d="m 0,0 c -4.416,0 -8,3.584 -8,8 0,4.416 3.584,8 8,8 C 4.416,16 8,12.416 8,8 8,3.584 4.416,0 0,0"
       style="fill:#ff0000;fill-opacity:1;fill-rule:nonzero;stroke:none"
       id="path182" /></g><g
     id="g184"
     transform="matrix(1.3333333,0,0,-1.3333333,112.44106,282.66666)"><path
       inkscape:connector-curvature="0"
       d="m 0,0 v 73.476 c 0,3.482 2.914,6.315 6.496,6.315 h 74.346 c 3.583,0 6.496,-2.833 6.496,-6.315 V 0 h 4.331 V 73.476 C 91.669,79.279 86.812,84 80.842,84 H 6.496 C 0.527,84 -4.331,79.279 -4.331,73.476 V 0 Z"
       style="fill:#333333;fill-opacity:1;fill-rule:nonzero;stroke:none"
       id="path186" /></g><path
     inkscape:connector-curvature="0"
     d="m 239.99999,186.66667 h 10.66667 V 176 h -10.66667 z"
     style="fill:#333333;fill-opacity:1;fill-rule:nonzero;stroke:none;stroke-width:1.33333325"
     id="path188" /><path
     inkscape:connector-curvature="0"
     d="m 239.99999,202.66667 h 10.66667 V 192 h -10.66667 z"
     style="fill:#333333;fill-opacity:1;fill-rule:nonzero;stroke:none;stroke-width:1.33333325"
     id="path190" /><path
     inkscape:connector-curvature="0"
     d="m 239.99999,218.66667 h 16 V 208 h -16 z"
     style="fill:#333333;fill-opacity:1;fill-rule:nonzero;stroke:none;stroke-width:1.33333325"
     id="path192" /><path
     inkscape:connector-curvature="0"
     d="m 239.99999,234.66667 h 16 V 224 h -16 z"
     style="fill:#333333;fill-opacity:1;fill-rule:nonzero;stroke:none;stroke-width:1.33333325"
     id="path194" /><path
     inkscape:connector-curvature="0"
     d="m 239.99999,250.66667 h 16 V 240 h -16 z"
     style="fill:#333333;fill-opacity:1;fill-rule:nonzero;stroke:none;stroke-width:1.33333325"
     id="path196" /><path
     inkscape:connector-curvature="0"
     d="m 239.99999,266.53333 h 21.33334 v -11.2 h -21.33334 z"
     style="fill:#333333;fill-opacity:1;fill-rule:nonzero;stroke:none;stroke-width:1.33333325"
     id="path198" /><path
     inkscape:connector-curvature="0"
     d="m 239.99999,283.33333 h 21.33334 v -11.2 h -21.33334 z"
     style="fill:#333333;fill-opacity:1;fill-rule:nonzero;stroke:none;stroke-width:1.33333325"
     id="path200" /><path
     inkscape:connector-curvature="0"
     d="M 90.666664,186.66667 H 101.33333 V 176 H 90.666664 Z"
     style="fill:#333333;fill-opacity:1;fill-rule:nonzero;stroke:none;stroke-width:1.33333325"
     id="path202" /><path
     inkscape:connector-curvature="0"
     d="M 90.666664,202.66667 H 101.33333 V 192 H 90.666664 Z"
     style="fill:#333333;fill-opacity:1;fill-rule:nonzero;stroke:none;stroke-width:1.33333325"
     id="path204" /><path
     inkscape:connector-curvature="0"
     d="M 85.333331,218.66667 H 101.33333 V 208 H 85.333331 Z"
     style="fill:#333333;fill-opacity:1;fill-rule:nonzero;stroke:none;stroke-width:1.33333325"
     id="path206" /><path
     inkscape:connector-curvature="0"
     d="M 85.333331,234.66667 H 101.33333 V 224 H 85.333331 Z"
     style="fill:#333333;fill-opacity:1;fill-rule:nonzero;stroke:none;stroke-width:1.33333325"
     id="path208" /><path
     inkscape:connector-curvature="0"
     d="M 85.333331,250.66667 H 101.33333 V 240 H 85.333331 Z"
     style="fill:#333333;fill-opacity:1;fill-rule:nonzero;stroke:none;stroke-width:1.33333325"
     id="path210" /><path
     inkscape:connector-curvature="0"
     d="M 79.999998,266.66667 H 101.33333 V 256 H 79.999998 Z"
     style="fill:#333333;fill-opacity:1;fill-rule:nonzero;stroke:none;stroke-width:1.33333325"
     id="path212" /><path
     inkscape:connector-curvature="0"
     d="M 79.999998,282.66666 H 101.33333 V 272 H 79.999998 Z"
     style="fill:#333333;fill-opacity:1;fill-rule:nonzero;stroke:none;stroke-width:1.33333325"
     id="path214" /><g
     id="g216"
     transform="matrix(1.3333333,0,0,-1.3333333,201.98893,69.621737)"><path
       inkscape:connector-curvature="0"
       d="M 0,0 C -0.534,0.386 -1.26,0.242 -1.627,-0.322 L -7.423,-9.301 H -39.56 l -5.797,8.979 c -0.366,0.564 -1.093,0.708 -1.626,0.322 -0.533,-0.388 -0.669,-1.161 -0.304,-1.727 l 6.144,-9.518 c 0.218,-0.336 0.58,-0.539 0.966,-0.539 h 33.371 c 0.386,0 0.747,0.203 0.965,0.539 l 6.145,9.518 C 0.668,-1.161 0.532,-0.388 0,0"
       style="fill:#333333;fill-opacity:1;fill-rule:nonzero;stroke:none"
       id="path218" /></g><g
     id="g220"
     transform="matrix(1.3333333,0,0,-1.3333333,170.52146,58.66667)"><path
       inkscape:connector-curvature="0"
       d="M 0,0 C 0.023,-0.74 0.029,-1.481 -0.002,-2.221 -0.032,-2.936 -0.087,-3.647 -0.231,-4.346 -0.378,-5.056 -0.668,-5.688 -1.064,-6.26 -1.415,-6.767 -1.831,-7.193 -2.329,-7.513 -2.787,-7.808 -3.278,-7.985 -3.81,-8 c -0.023,0 -0.047,0 -0.077,0 -10e-4,0.023 -0.003,0.043 -0.003,0.063 0,0.346 0,0.691 -10e-4,1.036 0,0.049 0.009,0.068 0.057,0.071 0.167,0.013 0.322,0.079 0.473,0.154 0.59,0.294 1.095,0.723 1.54,1.242 0.284,0.331 0.538,0.688 0.711,1.109 0.148,0.363 0.244,0.743 0.318,1.132 0.101,0.53 0.166,1.066 0.189,1.607 0.023,0.528 0.031,1.057 0.045,1.586 z"
       style="fill:#333333;fill-opacity:1;fill-rule:nonzero;stroke:none"
       id="path222" /></g><g
     id="g224"
     transform="matrix(1.3333333,0,0,-1.3333333,170.81186,58.66667)"><path
       inkscape:connector-curvature="0"
       d="M 0,0 C -0.023,-0.74 -0.029,-1.481 0.002,-2.221 0.032,-2.936 0.087,-3.647 0.231,-4.346 0.378,-5.056 0.668,-5.688 1.064,-6.26 1.415,-6.767 1.831,-7.193 2.329,-7.513 2.787,-7.808 3.278,-7.985 3.81,-8 c 0.023,0 0.047,0 0.077,0 10e-4,0.023 0.003,0.043 0.003,0.063 0,0.346 0,0.691 10e-4,1.036 0,0.049 -0.009,0.068 -0.057,0.071 -0.167,0.013 -0.322,0.079 -0.473,0.154 -0.59,0.294 -1.095,0.723 -1.54,1.242 C 1.537,-5.103 1.283,-4.746 1.11,-4.325 0.962,-3.962 0.866,-3.582 0.792,-3.193 0.691,-2.663 0.626,-2.127 0.603,-1.586 0.58,-1.058 0.572,-0.529 0.558,0 Z"
       style="fill:#333333;fill-opacity:1;fill-rule:nonzero;stroke:none"
       id="path226" /></g><g
     id="g228"
     transform="matrix(1.3333333,0,0,-1.3333333,158.0192,77.333337)"><path
       inkscape:connector-curvature="0"
       d="M 0,0 H -1.997 C -2.136,0 -2.256,0.04 -2.36,0.12 -2.463,0.2 -2.514,0.294 -2.514,0.401 V 4 H -1.74 V 0.601 H 0 Z"
       style="fill:#333333;fill-opacity:1;fill-rule:nonzero;stroke:none"
       id="path230" /></g><path
     inkscape:connector-curvature="0"
     d="m 159.696,77.333337 h -1.032 v -5.333334 h 1.032 z"
     style="fill:#333333;fill-opacity:1;fill-rule:nonzero;stroke:none;stroke-width:1.33333325"
     id="path232" /><g
     id="g234"
     transform="matrix(1.3333333,0,0,-1.3333333,163.73253,75.868137)"><path
       inkscape:connector-curvature="0"
       d="m 0,0 c 0,0.131 -0.065,0.247 -0.196,0.349 -0.131,0.101 -0.281,0.152 -0.45,0.152 h -0.966 v -0.999 h 0.966 c 0.169,0 0.319,0.051 0.45,0.152 C -0.065,-0.244 0,-0.129 0,0 m -0.325,1.802 c 0,0.129 -0.065,0.244 -0.196,0.346 -0.133,0.104 -0.282,0.155 -0.445,0.155 H -1.612 V 1.102 c 0.858,0.103 1.287,0.337 1.287,0.7 M 0.774,0 c 0,-0.289 -0.144,-0.545 -0.43,-0.768 -0.285,-0.221 -0.615,-0.331 -0.99,-0.331 h -1.223 c -0.138,0 -0.259,0.04 -0.362,0.12 -0.103,0.08 -0.155,0.174 -0.155,0.282 v 3.2 c 0,0.105 0.052,0.198 0.155,0.278 0.103,0.08 0.224,0.12 0.362,0.12 h 0.903 c 0.362,0 0.689,-0.104 0.981,-0.313 C 0.305,2.38 0.449,2.135 0.449,1.852 0.449,1.494 0.258,1.211 -0.125,1.002 0.135,0.924 0.35,0.791 0.521,0.604 0.69,0.42 0.774,0.219 0.774,0"
       style="fill:#333333;fill-opacity:1;fill-rule:nonzero;stroke:none"
       id="path236" /></g><g
     id="g238"
     transform="matrix(1.3333333,0,0,-1.3333333,169.5316,77.333337)"><path
       inkscape:connector-curvature="0"
       d="m 0,0 h -0.902 l -1.065,1.295 c -0.151,0.184 -0.226,0.324 -0.226,0.419 0,0.182 0.073,0.318 0.218,0.408 0.011,0.005 0.18,0.079 0.51,0.219 0.375,0.163 0.563,0.349 0.563,0.56 0,0.127 -0.067,0.242 -0.2,0.346 -0.134,0.103 -0.282,0.155 -0.446,0.155 H -2.322 V 0 h -0.774 v 3.601 c 0,0.106 0.052,0.199 0.155,0.279 C -2.838,3.96 -2.717,4 -2.579,4 h 1.031 c 0.363,0 0.69,-0.105 0.982,-0.314 0.289,-0.207 0.434,-0.452 0.434,-0.735 0,-0.281 -0.122,-0.535 -0.366,-0.762 C -0.745,1.962 -1.043,1.808 -1.393,1.726 Z"
       style="fill:#333333;fill-opacity:1;fill-rule:nonzero;stroke:none"
       id="path240" /></g><g
     id="g242"
     transform="matrix(1.3333333,0,0,-1.3333333,173.52333,77.333337)"><path
       inkscape:connector-curvature="0"
       d="M 0,0 H -1.997 C -2.136,0 -2.256,0.04 -2.36,0.12 -2.463,0.2 -2.514,0.294 -2.514,0.401 v 3.2 c 0,0.106 0.051,0.199 0.154,0.279 C -2.256,3.96 -2.136,4 -1.997,4 H 0 V 3.402 H -1.74 V 2.3 h 1.094 V 1.7 H -1.74 V 0.601 H 0 Z"
       style="fill:#333333;fill-opacity:1;fill-rule:nonzero;stroke:none"
       id="path244" /></g><g
     id="g246"
     transform="matrix(1.3333333,0,0,-1.3333333,177.8172,72.79707)"><path
       inkscape:connector-curvature="0"
       d="M 0,0 H -1.031 V -3.402 H -1.805 V 0 h -1.03 V 0.598 H 0 Z"
       style="fill:#333333;fill-opacity:1;fill-rule:nonzero;stroke:none"
       id="path248" /></g><g
     id="g250"
     transform="matrix(1.3333333,0,0,-1.3333333,182.4584,77.333337)"><path
       inkscape:connector-curvature="0"
       d="m 0,0 h -0.902 l -1.065,1.295 c -0.151,0.184 -0.226,0.324 -0.226,0.419 0,0.182 0.073,0.318 0.218,0.408 0.011,0.005 0.18,0.079 0.51,0.219 0.375,0.163 0.563,0.349 0.563,0.56 0,0.127 -0.067,0.242 -0.2,0.346 -0.134,0.103 -0.282,0.155 -0.446,0.155 H -2.322 V 0 h -0.774 v 3.601 c 0,0.106 0.052,0.199 0.155,0.279 C -2.838,3.96 -2.717,4 -2.579,4 h 1.031 c 0.363,0 0.69,-0.105 0.982,-0.314 0.289,-0.207 0.434,-0.452 0.434,-0.735 0,-0.281 -0.122,-0.535 -0.366,-0.762 C -0.745,1.962 -1.043,1.808 -1.393,1.726 Z"
       style="fill:#333333;fill-opacity:1;fill-rule:nonzero;stroke:none"
       id="path252" /></g><g
     id="g254"
     transform="matrix(1.3333333,0,0,-1.3333333,185.63466,75.868137)"><path
       inkscape:connector-curvature="0"
       d="M 0,0 V 1.802 C 0,1.931 -0.065,2.046 -0.196,2.148 -0.33,2.252 -0.479,2.303 -0.646,2.303 -0.812,2.303 -0.961,2.252 -1.095,2.148 -1.226,2.046 -1.291,1.931 -1.291,1.802 V 0 c 0,-0.129 0.065,-0.244 0.196,-0.346 0.131,-0.101 0.281,-0.152 0.449,-0.152 0.169,0 0.319,0.051 0.45,0.152 C -0.065,-0.244 0,-0.129 0,0 m 0.774,0 c 0,-0.289 -0.144,-0.545 -0.43,-0.768 -0.285,-0.221 -0.615,-0.331 -0.99,-0.331 -0.37,0 -0.699,0.11 -0.989,0.331 -0.284,0.225 -0.426,0.481 -0.426,0.768 v 1.802 c 0,0.289 0.142,0.544 0.426,0.765 0.287,0.223 0.617,0.334 0.989,0.334 0.375,0 0.705,-0.111 0.99,-0.334 0.286,-0.221 0.43,-0.476 0.43,-0.765 z"
       style="fill:#333333;fill-opacity:1;fill-rule:nonzero;stroke:none"
       id="path256" /></g></svg>