<?xml version="1.0" encoding="UTF-8" standalone="no"?>
<svg
   xmlns:dc="http://purl.org/dc/elements/1.1/"
   xmlns:cc="http://creativecommons.org/ns#"
   xmlns:rdf="http://www.w3.org/1999/02/22-rdf-syntax-ns#"
   xmlns:svg="http://www.w3.org/2000/svg"
   xmlns="http://www.w3.org/2000/svg"
   xmlns:sodipodi="http://sodipodi.sourceforge.net/DTD/sodipodi-0.dtd"
   xmlns:inkscape="http://www.inkscape.org/namespaces/inkscape"
   viewBox="0 0 341.33334 341.33334"
   height="341.33334"
   width="341.33334"
   xml:space="preserve"
   id="svg2"
   version="1.1"
   sodipodi:docname="Atari - 7800.svg"
   inkscape:version="0.92.2 (5c3e80d, 2017-08-06)"><sodipodi:namedview
     pagecolor="#ffffff"
     bordercolor="#666666"
     borderopacity="1"
     objecttolerance="10"
     gridtolerance="10"
     guidetolerance="10"
     inkscape:pageopacity="0"
     inkscape:pageshadow="2"
     inkscape:window-width="1024"
     inkscape:window-height="705"
     id="namedview67"
     showgrid="false"
     inkscape:pagecheckerboard="true"
     inkscape:zoom="0.69140623"
     inkscape:cx="170.66667"
     inkscape:cy="170.66667"
     inkscape:window-x="-8"
     inkscape:window-y="-8"
     inkscape:window-maximized="1"
     inkscape:current-layer="svg2" /><metadata
     id="metadata8"><rdf:RDF><cc:Work
         rdf:about=""><dc:format>image/svg+xml</dc:format><dc:type
           rdf:resource="http://purl.org/dc/dcmitype/StillImage" /><dc:title></dc:title></cc:Work></rdf:RDF></metadata><defs
     id="defs6"><clipPath
       id="clipPath18"
       clipPathUnits="userSpaceOnUse"><path
         id="path16"
         d="M 0,256 H 256 V 0 H 0 Z" /></clipPath><clipPath
       id="clipPath26"
       clipPathUnits="userSpaceOnUse"><path
         id="path24"
         d="M 68,252 H 188 V 4.00012 H 68 Z" /></clipPath><clipPath
       id="clipPath84"
       clipPathUnits="userSpaceOnUse"><path
         id="path82"
         d="M 0,256 H 256 V 0 H 0 Z" /></clipPath></defs><path
     id="path38"
     style="fill:#262626;fill-opacity:1;fill-rule:nonzero;stroke:none;stroke-width:1.33333325"
     d="M 229.17973,24.876671 217.36106,15.999338 H 170.6664 123.97173 l -11.81866,8.877333 -5.48667,70.207998 14.35067,225.149331 10.376,5.09866 h 39.27333 39.27466 L 220.31573,320.234 234.6664,95.084669 Z"
     inkscape:connector-curvature="0" /><path
     inkscape:connector-curvature="0"
     d="m 210.66666,325.33333 h -80 V 170.66667 h 80 z"
     style="fill:#999999;fill-opacity:1;fill-rule:nonzero;stroke:none;stroke-width:1.33333325"
     id="path40" /><path
     id="path44"
     style="fill:#ff0000;fill-opacity:1;fill-rule:nonzero;stroke:none;stroke-width:1.33333325"
     d="m 106.07413,29.814271 6.124,-3.148 5.13467,5.246667 -2.96267,49.521332 -7.308,9.231999 -5.72933,-3.775999 z"
     inkscape:connector-curvature="0" /><path
     id="path48"
     style="fill:#ff0000;fill-opacity:1;fill-rule:nonzero;stroke:none;stroke-width:1.33333325"
     d="m 235.25919,29.814271 -6.124,-3.148 -5.13467,5.246667 2.96267,49.521332 7.308,9.231999 5.72933,-3.775999 z"
     inkscape:connector-curvature="0" /><path
     inkscape:connector-curvature="0"
     d="m 210.66666,21.333338 h -80 v -5.333333 h 80 z"
     style="fill:#191919;fill-opacity:1;fill-rule:nonzero;stroke:none;stroke-width:1.33333325"
     id="path50" /><path
     inkscape:connector-curvature="0"
     d="m 210.66666,32.000004 h -80 v -5.333333 h 80 z"
     style="fill:#191919;fill-opacity:1;fill-rule:nonzero;stroke:none;stroke-width:1.33333325"
     id="path52" /><path
     inkscape:connector-curvature="0"
     d="m 210.66666,42.666671 h -80 v -5.333333 h 80 z"
     style="fill:#191919;fill-opacity:1;fill-rule:nonzero;stroke:none;stroke-width:1.33333325"
     id="path54" /><path
     inkscape:connector-curvature="0"
     d="m 210.66666,53.333337 h -80 v -5.333333 h 80 z"
     style="fill:#191919;fill-opacity:1;fill-rule:nonzero;stroke:none;stroke-width:1.33333325"
     id="path56" /><path
     inkscape:connector-curvature="0"
     d="m 210.66666,64.000004 h -80 V 58.66667 h 80 z"
     style="fill:#191919;fill-opacity:1;fill-rule:nonzero;stroke:none;stroke-width:1.33333325"
     id="path58" /><path
     inkscape:connector-curvature="0"
     d="m 210.66666,74.66667 h -80 v -5.333333 h 80 z"
     style="fill:#191919;fill-opacity:1;fill-rule:nonzero;stroke:none;stroke-width:1.33333325"
     id="path60" /><path
     inkscape:connector-curvature="0"
     d="m 210.66666,85.333336 h -80 v -5.333333 h 80 z"
     style="fill:#191919;fill-opacity:1;fill-rule:nonzero;stroke:none;stroke-width:1.33333325"
     id="path62" /><path
     inkscape:connector-curvature="0"
     d="m 210.66666,170.66667 h -80 v -80 h 80 z"
     style="fill:#404040;fill-opacity:1;fill-rule:nonzero;stroke:none;stroke-width:1.33333325"
     id="path64" /><path
     id="path68"
     style="fill:#4c4c4c;fill-opacity:1;fill-rule:nonzero;stroke:none;stroke-width:1.33333325"
     d="m 170.66666,130.66667 40,-39.999999 h -80 z"
     inkscape:connector-curvature="0" /><path
     id="path72"
     style="fill:#262626;fill-opacity:1;fill-rule:nonzero;stroke:none;stroke-width:1.33333325"
     d="m 170.66666,130.66667 -40,40 h 80 z"
     inkscape:connector-curvature="0" /><path
     id="path76"
     style="fill:#333333;fill-opacity:1;fill-rule:nonzero;stroke:none;stroke-width:1.33333325"
     d="m 210.66653,90.66667 h -8.432 l -31.588,31.62667 -31.94533,-31.62667 h -8.03467 v 8.346666 l 31.616,31.653334 -31.616,31.65333 v 8.34667 h 8.03467 l 31.94533,-31.62667 31.588,31.62667 h 8.432 V 161.916 l -31.56267,-31.24933 31.56267,-31.249334 z"
     inkscape:connector-curvature="0" /><g
     clip-path="url(#clipPath84)"
     id="g80"
     transform="matrix(1.3333333,0,0,-1.3333333,0,341.33333)"><g
       transform="translate(148,158)"
       id="g86"><path
         id="path88"
         style="fill:#191919;fill-opacity:1;fill-rule:nonzero;stroke:none"
         d="m 0,0 c 0,-11.046 -8.954,-20 -20,-20 -11.046,0 -20,8.954 -20,20 0,11.046 8.954,20 20,20 C -8.954,20 0,11.046 0,0"
         inkscape:connector-curvature="0" /></g><g
       transform="translate(142,158)"
       id="g90"><path
         id="path92"
         style="fill:#262626;fill-opacity:1;fill-rule:nonzero;stroke:none"
         d="m 0,0 c 0,-7.732 -6.268,-14 -14,-14 -7.732,0 -14,6.268 -14,14 0,7.732 6.268,14 14,14 C -6.268,14 0,7.732 0,0"
         inkscape:connector-curvature="0" /></g><path
       id="path94"
       style="fill:#ff0000;fill-opacity:1;fill-rule:nonzero;stroke:none"
       d="m 140,28 h -4 v 72 h 4 z"
       inkscape:connector-curvature="0" /><g
       transform="translate(120.1874,35.4274)"
       id="g96"><path
         id="path98"
         style="fill:#3b3b3b;fill-opacity:1;fill-rule:nonzero;stroke:none"
         d="m 0,0 c 1.093,0.043 2.187,0.056 3.28,-0.004 1.055,-0.057 2.105,-0.162 3.137,-0.437 1.049,-0.28 1.981,-0.834 2.827,-1.59 0.748,-0.67 1.377,-1.464 1.85,-2.414 0.435,-0.875 0.697,-1.811 0.718,-2.827 0.001,-0.045 0,-0.091 0,-0.147 -0.034,-0.002 -0.064,-0.006 -0.093,-0.006 -0.51,-0.001 -1.02,10e-4 -1.529,-0.002 -0.072,-0.001 -0.1,0.016 -0.106,0.108 C 10.065,-7 9.969,-6.703 9.858,-6.415 9.423,-5.29 8.79,-4.326 8.023,-3.476 7.535,-2.934 7.009,-2.449 6.386,-2.119 5.851,-1.836 5.289,-1.652 4.715,-1.511 3.932,-1.32 3.141,-1.194 2.342,-1.15 1.562,-1.107 0.781,-1.093 0,-1.066 Z"
         inkscape:connector-curvature="0" /></g><g
       transform="translate(120.1874,35.843)"
       id="g100"><path
         id="path102"
         style="fill:#3b3b3b;fill-opacity:1;fill-rule:nonzero;stroke:none"
         d="m 0,0 c 1.093,-0.043 2.187,-0.056 3.28,0.004 1.055,0.057 2.105,0.162 3.137,0.437 1.049,0.28 1.981,0.834 2.827,1.59 0.748,0.67 1.377,1.464 1.85,2.414 0.435,0.875 0.697,1.811 0.718,2.827 0.001,0.045 0,0.091 0,0.147 C 11.778,7.421 11.748,7.425 11.719,7.425 11.209,7.426 10.699,7.424 10.19,7.427 10.118,7.428 10.09,7.411 10.084,7.319 10.065,7 9.969,6.703 9.858,6.415 9.423,5.29 8.79,4.326 8.023,3.476 7.535,2.934 7.009,2.448 6.386,2.119 5.851,1.836 5.289,1.652 4.715,1.511 3.932,1.32 3.141,1.194 2.342,1.15 1.562,1.107 0.781,1.093 0,1.066 Z"
         inkscape:connector-curvature="0" /></g><g
       transform="translate(130.1561,51.3221)"
       id="g104"><path
         id="path106"
         style="fill:#3b3b3b;fill-opacity:1;fill-rule:nonzero;stroke:none"
         d="M 0,0 V -4.525 C 0,-4.838 -0.102,-5.112 -0.305,-5.346 -0.508,-5.58 -0.747,-5.697 -1.019,-5.697 h -9.137 v 1.754 h 8.631 V 0 Z"
         inkscape:connector-curvature="0" /></g><path
       id="path108"
       style="fill:#3b3b3b;fill-opacity:1;fill-rule:nonzero;stroke:none"
       d="M 130.156,52.417 H 120 v 1.753 h 10.156 z"
       inkscape:connector-curvature="0" /><g
       transform="translate(127.366,61.0303)"
       id="g110"><path
         id="path112"
         style="fill:#3b3b3b;fill-opacity:1;fill-rule:nonzero;stroke:none"
         d="m 0,0 c -0.332,0 -0.627,-0.148 -0.885,-0.445 -0.258,-0.296 -0.387,-0.636 -0.387,-1.018 v -2.189 h 2.537 v 2.189 c 0,0.382 -0.129,0.722 -0.387,1.018 C 0.62,-0.148 0.327,0 0,0 m -4.576,-0.736 c -0.327,0 -0.62,-0.148 -0.878,-0.444 -0.263,-0.303 -0.394,-0.639 -0.394,-1.01 v -1.462 h 3.05 c -0.262,1.944 -0.855,2.916 -1.778,2.916 M 0,1.753 C 0.734,1.753 1.384,1.428 1.949,0.778 2.51,0.134 2.79,-0.613 2.79,-1.463 V -4.234 C 2.79,-4.548 2.688,-4.821 2.485,-5.055 2.282,-5.289 2.044,-5.406 1.771,-5.406 h -8.125 c -0.268,0 -0.504,0.117 -0.707,0.351 -0.203,0.234 -0.305,0.507 -0.305,0.821 v 2.044 c 0,0.821 0.265,1.563 0.796,2.224 0.526,0.656 1.148,0.984 1.868,0.984 0.907,0 1.627,-0.434 2.157,-1.3 0.199,0.587 0.536,1.075 1.012,1.462 0.467,0.382 0.977,0.573 1.533,0.573"
         inkscape:connector-curvature="0" /></g><g
       transform="translate(130.1561,70.884)"
       id="g114"><path
         id="path116"
         style="fill:#3b3b3b;fill-opacity:1;fill-rule:nonzero;stroke:none"
         d="M 0,0 V -2.044 L -3.289,-4.456 C -3.755,-4.799 -4.11,-4.97 -4.353,-4.97 c -0.461,0 -0.806,0.166 -1.034,0.497 -0.015,0.022 -0.201,0.407 -0.558,1.154 -0.412,0.85 -0.885,1.275 -1.421,1.275 -0.322,0 -0.615,-0.151 -0.878,-0.454 C -8.507,-2.8 -8.638,-3.136 -8.638,-3.507 V -5.26 H 0 v -1.754 h -9.144 c -0.268,0 -0.504,0.117 -0.707,0.351 -0.203,0.234 -0.305,0.507 -0.305,0.821 v 2.335 c 0,0.821 0.265,1.563 0.796,2.224 0.526,0.656 1.148,0.984 1.868,0.984 0.714,0 1.359,-0.277 1.934,-0.83 0.575,-0.559 0.967,-1.235 1.176,-2.027 z"
         inkscape:connector-curvature="0" /></g><g
       transform="translate(130.1561,77.6669)"
       id="g118"><path
         id="path120"
         style="fill:#3b3b3b;fill-opacity:1;fill-rule:nonzero;stroke:none"
         d="M 0,0 V -4.525 C 0,-4.838 -0.102,-5.112 -0.305,-5.346 -0.508,-5.58 -0.747,-5.697 -1.019,-5.697 h -8.125 c -0.268,0 -0.504,0.117 -0.707,0.351 -0.203,0.234 -0.305,0.508 -0.305,0.821 V 0 h 1.518 v -3.943 h 2.797 v 2.48 h 1.526 v -2.48 h 2.79 V 0 Z"
         inkscape:connector-curvature="0" /></g><g
       transform="translate(121.5179,84.963)"
       id="g122"><path
         id="path124"
         style="fill:#3b3b3b;fill-opacity:1;fill-rule:nonzero;stroke:none"
         d="M 0,0 V -2.335 H 8.638 V -4.089 H 0 V -6.424 H -1.518 V 0 Z"
         inkscape:connector-curvature="0" /></g><g
       transform="translate(130.1561,92.8493)"
       id="g126"><path
         id="path128"
         style="fill:#3b3b3b;fill-opacity:1;fill-rule:nonzero;stroke:none"
         d="M 0,0 V -2.044 L -3.289,-4.456 C -3.755,-4.798 -4.11,-4.97 -4.353,-4.97 c -0.461,0 -0.806,0.166 -1.034,0.497 -0.015,0.022 -0.201,0.407 -0.558,1.154 -0.412,0.85 -0.885,1.275 -1.421,1.275 -0.322,0 -0.615,-0.151 -0.878,-0.454 C -8.507,-2.8 -8.638,-3.136 -8.638,-3.507 V -5.26 H 0 v -1.754 h -9.144 c -0.268,0 -0.504,0.117 -0.707,0.351 -0.203,0.234 -0.305,0.507 -0.305,0.821 v 2.335 c 0,0.821 0.265,1.563 0.796,2.224 0.526,0.656 1.148,0.984 1.868,0.984 0.714,0 1.359,-0.277 1.934,-0.83 0.575,-0.559 0.967,-1.235 1.176,-2.027 z"
         inkscape:connector-curvature="0" /></g><g
       transform="translate(127.366,98.2465)"
       id="g130"><path
         id="path132"
         style="fill:#3b3b3b;fill-opacity:1;fill-rule:nonzero;stroke:none"
         d="m 0,0 h -4.576 c -0.327,0 -0.62,-0.148 -0.878,-0.445 -0.263,-0.302 -0.394,-0.641 -0.394,-1.018 0,-0.376 0.131,-0.715 0.394,-1.017 0.258,-0.297 0.551,-0.445 0.878,-0.445 H 0 c 0.327,0 0.62,0.148 0.878,0.445 0.258,0.296 0.387,0.635 0.387,1.017 0,0.382 -0.129,0.722 -0.387,1.018 C 0.62,-0.148 0.327,0 0,0 M 0,1.753 C 0.734,1.753 1.384,1.428 1.949,0.778 2.51,0.134 2.79,-0.613 2.79,-1.463 2.79,-2.301 2.51,-3.048 1.949,-3.704 1.379,-4.348 0.729,-4.67 0,-4.67 h -4.576 c -0.734,0 -1.381,0.322 -1.942,0.966 -0.565,0.65 -0.848,1.397 -0.848,2.241 0,0.85 0.283,1.597 0.848,2.241 0.561,0.65 1.208,0.975 1.942,0.975 z"
         inkscape:connector-curvature="0" /></g></g></svg>