<?xml version="1.0" encoding="UTF-8" standalone="no"?>
<svg
   xmlns:dc="http://purl.org/dc/elements/1.1/"
   xmlns:cc="http://creativecommons.org/ns#"
   xmlns:rdf="http://www.w3.org/1999/02/22-rdf-syntax-ns#"
   xmlns:svg="http://www.w3.org/2000/svg"
   xmlns="http://www.w3.org/2000/svg"
   xmlns:sodipodi="http://sodipodi.sourceforge.net/DTD/sodipodi-0.dtd"
   xmlns:inkscape="http://www.inkscape.org/namespaces/inkscape"
   viewBox="0 0 341.33334 341.33334"
   height="341.33334"
   width="341.33334"
   xml:space="preserve"
   id="svg2"
   version="1.1"
   sodipodi:docname="Bally - Astrocade-content.svg"
   inkscape:version="0.92.2 (5c3e80d, 2017-08-06)"><sodipodi:namedview
     pagecolor="#ffffff"
     bordercolor="#666666"
     borderopacity="1"
     objecttolerance="10"
     gridtolerance="10"
     guidetolerance="10"
     inkscape:pageopacity="0"
     inkscape:pageshadow="2"
     inkscape:window-width="730"
     inkscape:window-height="480"
     id="namedview23"
     showgrid="false"
     inkscape:pagecheckerboard="true"
     inkscape:zoom="0.69140623"
     inkscape:cx="170.66667"
     inkscape:cy="170.66667"
     inkscape:window-x="0"
     inkscape:window-y="0"
     inkscape:window-maximized="0"
     inkscape:current-layer="svg2" /><metadata
     id="metadata8"><rdf:RDF><cc:Work
         rdf:about=""><dc:format>image/svg+xml</dc:format><dc:type
           rdf:resource="http://purl.org/dc/dcmitype/StillImage" /><dc:title></dc:title></cc:Work></rdf:RDF></metadata><defs
     id="defs6"><clipPath
       id="clipPath18"
       clipPathUnits="userSpaceOnUse"><path
         id="path16"
         d="M 0,256 H 256 V 0 H 0 Z" /></clipPath><clipPath
       id="clipPath26"
       clipPathUnits="userSpaceOnUse"><path
         id="path24"
         d="M 4,204 H 252 V 48 H 4 Z" /></clipPath></defs><g
     id="g36"
     transform="matrix(1.3333333,0,0,-1.3333333,314.66666,266.66667)"><path
       inkscape:connector-curvature="0"
       d="m 0,0 h -216 c -4.4,0 -8,3.6 -8,8 v 124 c 0,4.4 3.6,8 8,8 H 0 c 4.4,0 8,-3.6 8,-8 V 8 C 8,3.6 4.4,0 0,0"
       style="fill:#262626;fill-opacity:1;fill-rule:nonzero;stroke:none"
       id="path38" /></g><path
     inkscape:connector-curvature="0"
     d="M 303.99999,240 H 37.333332 V 122.66667 H 303.99999 Z"
     style="fill:#191919;fill-opacity:1;fill-rule:nonzero;stroke:none;stroke-width:1.33333325"
     id="path40" /><g
     id="g42"
     transform="matrix(1.3333333,0,0,-1.3333333,293.33333,234.66667)"><path
       inkscape:connector-curvature="0"
       d="m 0,0 h -184 c -2.209,0 -4,1.791 -4,4 v 72 c 0,2.209 1.791,4 4,4 H 0 c 2.209,0 4,-1.791 4,-4 V 4 C 4,1.791 2.209,0 0,0"
       style="fill:#ffffff;fill-opacity:1;fill-rule:nonzero;stroke:none"
       id="path44" /></g></svg>