<?xml version="1.0" encoding="UTF-8" standalone="no"?>
<svg
   xmlns:dc="http://purl.org/dc/elements/1.1/"
   xmlns:cc="http://creativecommons.org/ns#"
   xmlns:rdf="http://www.w3.org/1999/02/22-rdf-syntax-ns#"
   xmlns:svg="http://www.w3.org/2000/svg"
   xmlns="http://www.w3.org/2000/svg"
   xmlns:sodipodi="http://sodipodi.sourceforge.net/DTD/sodipodi-0.dtd"
   xmlns:inkscape="http://www.inkscape.org/namespaces/inkscape"
   viewBox="0 0 341.33334 341.33334"
   height="341.33334"
   width="341.33334"
   xml:space="preserve"
   id="svg2"
   version="1.1"
   sodipodi:docname="Benesse - Pocket Challenge V2-content.svg"
   inkscape:version="0.92.2 (5c3e80d, 2017-08-06)"><sodipodi:namedview
     pagecolor="#ffffff"
     bordercolor="#666666"
     borderopacity="1"
     objecttolerance="10"
     gridtolerance="10"
     guidetolerance="10"
     inkscape:pageopacity="0"
     inkscape:pageshadow="2"
     inkscape:window-width="730"
     inkscape:window-height="480"
     id="namedview62"
     showgrid="false"
     inkscape:pagecheckerboard="true"
     inkscape:zoom="0.69140623"
     inkscape:cx="170.66667"
     inkscape:cy="170.66667"
     inkscape:window-x="0"
     inkscape:window-y="0"
     inkscape:window-maximized="0"
     inkscape:current-layer="svg2" /><metadata
     id="metadata8"><rdf:RDF><cc:Work
         rdf:about=""><dc:format>image/svg+xml</dc:format><dc:type
           rdf:resource="http://purl.org/dc/dcmitype/StillImage" /><dc:title></dc:title></cc:Work></rdf:RDF></metadata><defs
     id="defs6"><clipPath
       id="clipPath18"
       clipPathUnits="userSpaceOnUse"><path
         id="path16"
         d="M 0,256 H 256 V 0 H 0 Z" /></clipPath><clipPath
       id="clipPath26"
       clipPathUnits="userSpaceOnUse"><path
         id="path24"
         d="M 4,208 H 252 V 48 H 4 Z" /></clipPath><clipPath
       id="clipPath44"
       clipPathUnits="userSpaceOnUse"><path
         id="path42"
         d="M 0,256 H 256 V 0 H 0 Z" /></clipPath></defs><path
     inkscape:connector-curvature="0"
     d="M 325.33333,266.66667 H 16 v -37.33334 h 309.33333 z"
     style="fill:#d4a600;fill-opacity:1;fill-rule:nonzero;stroke:none;stroke-width:1.33333325"
     id="path36" /><g
     id="g46"
     transform="matrix(1.3333333,0,0,-1.3333333,325.33333,234.66667)"><path
       inkscape:connector-curvature="0"
       d="m 0,0 h -232 v 116 c 0,2.209 1.791,4 4,4 H -4 c 2.209,0 4,-1.791 4,-4 z"
       style="fill:#eac500;fill-opacity:1;fill-rule:nonzero;stroke:none"
       id="path48" /></g><g
     id="g50"
     transform="matrix(1.3333333,0,0,-1.3333333,281.33333,213.33333)"><path
       inkscape:connector-curvature="0"
       d="m 0,0 h -166 c -2.761,0 -5,2.238 -5,5 v 58 c 0,2.761 2.239,5 5,5 H 0 c 2.762,0 5,-2.239 5,-5 V 5 C 5,2.238 2.762,0 0,0"
       style="fill:#ffffff;fill-opacity:1;fill-rule:nonzero;stroke:none"
       id="path52" /></g><g
     id="g54"
     transform="matrix(1.3333333,0,0,-1.3333333,231.99999,112)"><path
       inkscape:connector-curvature="0"
       d="m 0,0 h -92 c -1.104,0 -2,0.896 -2,2 0,1.104 0.896,2 2,2 H 0 C 1.104,4 2,3.104 2,2 2,0.896 1.104,0 0,0"
       style="fill:#d4a600;fill-opacity:1;fill-rule:nonzero;stroke:none"
       id="path56" /></g><g
     id="g58"
     transform="matrix(1.3333333,0,0,-1.3333333,231.99999,101.33334)"><path
       inkscape:connector-curvature="0"
       d="m 0,0 h -92 c -1.104,0 -2,0.896 -2,2 0,1.104 0.896,2 2,2 H 0 C 1.104,4 2,3.104 2,2 2,0.896 1.104,0 0,0"
       style="fill:#d4a600;fill-opacity:1;fill-rule:nonzero;stroke:none"
       id="path60" /></g><g
     id="g62"
     transform="matrix(1.3333333,0,0,-1.3333333,231.99999,90.66667)"><path
       inkscape:connector-curvature="0"
       d="m 0,0 h -92 c -1.104,0 -2,0.896 -2,2 0,1.104 0.896,2 2,2 H 0 C 1.104,4 2,3.104 2,2 2,0.896 1.104,0 0,0"
       style="fill:#d4a600;fill-opacity:1;fill-rule:nonzero;stroke:none"
       id="path64" /></g><path
     inkscape:connector-curvature="0"
     d="M 287.99999,186.66667 H 53.333332 V 149.33333 H 287.99999 Z"
     style="fill:#f39b11;fill-opacity:1;fill-rule:nonzero;stroke:none;stroke-width:1.33333325"
     id="path66" /><path
     inkscape:connector-curvature="0"
     d="M 314.66666,261.33333 H 26.666666 V 240 H 314.66666 Z"
     style="fill:#1abf9f;fill-opacity:1;fill-rule:nonzero;stroke:none;stroke-width:1.33333325"
     id="path68" /><path
     inkscape:connector-curvature="0"
     d="m 37.333332,256 h -5.333333 v -16 h 5.333333 z"
     style="fill:#a3834a;fill-opacity:1;fill-rule:nonzero;stroke:none;stroke-width:1.33333325"
     id="path70" /><path
     inkscape:connector-curvature="0"
     d="m 47.999999,256 h -5.333333 v -16 h 5.333333 z"
     style="fill:#a3834a;fill-opacity:1;fill-rule:nonzero;stroke:none;stroke-width:1.33333325"
     id="path72" /><path
     inkscape:connector-curvature="0"
     d="m 58.666665,256 h -5.333333 v -16 h 5.333333 z"
     style="fill:#a3834a;fill-opacity:1;fill-rule:nonzero;stroke:none;stroke-width:1.33333325"
     id="path74" /><path
     inkscape:connector-curvature="0"
     d="m 69.333332,256 h -5.333334 v -16 h 5.333334 z"
     style="fill:#a3834a;fill-opacity:1;fill-rule:nonzero;stroke:none;stroke-width:1.33333325"
     id="path76" /><path
     inkscape:connector-curvature="0"
     d="m 79.999998,256 h -5.333333 v -16 h 5.333333 z"
     style="fill:#a3834a;fill-opacity:1;fill-rule:nonzero;stroke:none;stroke-width:1.33333325"
     id="path78" /><path
     inkscape:connector-curvature="0"
     d="m 90.666664,256 h -5.333333 v -16 h 5.333333 z"
     style="fill:#a3834a;fill-opacity:1;fill-rule:nonzero;stroke:none;stroke-width:1.33333325"
     id="path80" /><path
     inkscape:connector-curvature="0"
     d="m 101.33333,256 h -5.333332 v -16 h 5.333332 z"
     style="fill:#a3834a;fill-opacity:1;fill-rule:nonzero;stroke:none;stroke-width:1.33333325"
     id="path82" /><path
     inkscape:connector-curvature="0"
     d="m 112,256 h -5.33334 V 240 H 112 Z"
     style="fill:#a3834a;fill-opacity:1;fill-rule:nonzero;stroke:none;stroke-width:1.33333325"
     id="path84" /><path
     inkscape:connector-curvature="0"
     d="m 122.66666,256 h -5.33333 v -16 h 5.33333 z"
     style="fill:#a3834a;fill-opacity:1;fill-rule:nonzero;stroke:none;stroke-width:1.33333325"
     id="path86" /><path
     inkscape:connector-curvature="0"
     d="M 133.33333,256 H 128 v -16 h 5.33333 z"
     style="fill:#a3834a;fill-opacity:1;fill-rule:nonzero;stroke:none;stroke-width:1.33333325"
     id="path88" /><path
     inkscape:connector-curvature="0"
     d="m 144,256 h -5.33334 V 240 H 144 Z"
     style="fill:#a3834a;fill-opacity:1;fill-rule:nonzero;stroke:none;stroke-width:1.33333325"
     id="path90" /><path
     inkscape:connector-curvature="0"
     d="m 154.66666,261.33333 h -5.33333 V 240 h 5.33333 z"
     style="fill:#a3834a;fill-opacity:1;fill-rule:nonzero;stroke:none;stroke-width:1.33333325"
     id="path92" /><path
     inkscape:connector-curvature="0"
     d="M 165.33333,261.33333 H 160 V 240 h 5.33333 z"
     style="fill:#a3834a;fill-opacity:1;fill-rule:nonzero;stroke:none;stroke-width:1.33333325"
     id="path94" /><path
     inkscape:connector-curvature="0"
     d="m 176,256 h -5.33334 V 240 H 176 Z"
     style="fill:#a3834a;fill-opacity:1;fill-rule:nonzero;stroke:none;stroke-width:1.33333325"
     id="path96" /><path
     inkscape:connector-curvature="0"
     d="m 186.66666,256 h -5.33333 v -16 h 5.33333 z"
     style="fill:#a3834a;fill-opacity:1;fill-rule:nonzero;stroke:none;stroke-width:1.33333325"
     id="path98" /><path
     inkscape:connector-curvature="0"
     d="M 197.33333,256 H 192 v -16 h 5.33333 z"
     style="fill:#a3834a;fill-opacity:1;fill-rule:nonzero;stroke:none;stroke-width:1.33333325"
     id="path100" /><path
     inkscape:connector-curvature="0"
     d="m 207.99999,256 h -5.33333 v -16 h 5.33333 z"
     style="fill:#a3834a;fill-opacity:1;fill-rule:nonzero;stroke:none;stroke-width:1.33333325"
     id="path102" /><path
     inkscape:connector-curvature="0"
     d="m 218.66666,256 h -5.33333 v -16 h 5.33333 z"
     style="fill:#a3834a;fill-opacity:1;fill-rule:nonzero;stroke:none;stroke-width:1.33333325"
     id="path104" /><path
     inkscape:connector-curvature="0"
     d="m 229.33333,256 h -5.33334 v -16 h 5.33334 z"
     style="fill:#a3834a;fill-opacity:1;fill-rule:nonzero;stroke:none;stroke-width:1.33333325"
     id="path106" /><path
     inkscape:connector-curvature="0"
     d="m 239.99999,256 h -5.33333 v -16 h 5.33333 z"
     style="fill:#a3834a;fill-opacity:1;fill-rule:nonzero;stroke:none;stroke-width:1.33333325"
     id="path108" /><path
     inkscape:connector-curvature="0"
     d="m 250.66666,256 h -5.33333 v -16 h 5.33333 z"
     style="fill:#a3834a;fill-opacity:1;fill-rule:nonzero;stroke:none;stroke-width:1.33333325"
     id="path110" /><path
     inkscape:connector-curvature="0"
     d="m 261.33333,256 h -5.33334 v -16 h 5.33334 z"
     style="fill:#a3834a;fill-opacity:1;fill-rule:nonzero;stroke:none;stroke-width:1.33333325"
     id="path112" /><path
     inkscape:connector-curvature="0"
     d="m 271.99999,256 h -5.33333 v -16 h 5.33333 z"
     style="fill:#a3834a;fill-opacity:1;fill-rule:nonzero;stroke:none;stroke-width:1.33333325"
     id="path114" /><path
     inkscape:connector-curvature="0"
     d="m 282.66666,256 h -5.33333 v -16 h 5.33333 z"
     style="fill:#a3834a;fill-opacity:1;fill-rule:nonzero;stroke:none;stroke-width:1.33333325"
     id="path116" /><path
     inkscape:connector-curvature="0"
     d="m 293.33333,256 h -5.33334 v -16 h 5.33334 z"
     style="fill:#a3834a;fill-opacity:1;fill-rule:nonzero;stroke:none;stroke-width:1.33333325"
     id="path118" /><path
     inkscape:connector-curvature="0"
     d="m 303.99999,261.33333 h -5.33333 V 240 h 5.33333 z"
     style="fill:#a3834a;fill-opacity:1;fill-rule:nonzero;stroke:none;stroke-width:1.33333325"
     id="path120" /><path
     inkscape:connector-curvature="0"
     d="M 314.66666,240 H 26.666666 v -5.33333 H 314.66666 Z"
     style="fill:#cccccc;fill-opacity:1;fill-rule:nonzero;stroke:none;stroke-width:1.33333325"
     id="path122" /></svg>