<?xml version="1.0" encoding="UTF-8" standalone="no"?>
<svg
   xmlns:dc="http://purl.org/dc/elements/1.1/"
   xmlns:cc="http://creativecommons.org/ns#"
   xmlns:rdf="http://www.w3.org/1999/02/22-rdf-syntax-ns#"
   xmlns:svg="http://www.w3.org/2000/svg"
   xmlns="http://www.w3.org/2000/svg"
   xmlns:sodipodi="http://sodipodi.sourceforge.net/DTD/sodipodi-0.dtd"
   xmlns:inkscape="http://www.inkscape.org/namespaces/inkscape"
   viewBox="0 0 341.33334 341.33334"
   height="256"
   width="256"
   xml:space="preserve"
   id="svg2"
   version="1.1"
   sodipodi:docname="Capcom - CP System I-content.svg"
   inkscape:version="0.92.2 (5c3e80d, 2017-08-06)"><sodipodi:namedview
     pagecolor="#ffffff"
     bordercolor="#666666"
     borderopacity="1"
     objecttolerance="10"
     gridtolerance="10"
     guidetolerance="10"
     inkscape:pageopacity="0"
     inkscape:pageshadow="2"
     inkscape:window-width="730"
     inkscape:window-height="480"
     id="namedview88"
     showgrid="false"
     inkscape:pagecheckerboard="true"
     inkscape:zoom="0.69140623"
     inkscape:cx="170.66667"
     inkscape:cy="170.66667"
     inkscape:window-x="0"
     inkscape:window-y="0"
     inkscape:window-maximized="0"
     inkscape:current-layer="svg2" /><metadata
     id="metadata8"><rdf:RDF><cc:Work
         rdf:about=""><dc:format>image/svg+xml</dc:format><dc:type
           rdf:resource="http://purl.org/dc/dcmitype/StillImage" /><dc:title></dc:title></cc:Work></rdf:RDF></metadata><defs
     id="defs6"><clipPath
       id="clipPath18"
       clipPathUnits="userSpaceOnUse"><path
         id="path16"
         d="M 0,256 H 256 V 0 H 0 Z" /></clipPath><clipPath
       id="clipPath26"
       clipPathUnits="userSpaceOnUse"><path
         id="path24"
         d="M 44,252 H 212 V 4 H 44 Z" /></clipPath></defs><g
     id="g36"
     transform="matrix(1.3333333,0,0,-1.3333333,250.66666,320)"><path
       inkscape:connector-curvature="0"
       d="m 0,0 h -124 c -6.627,0 -12,5.373 -12,12 v 204 c 0,6.627 5.373,12 12,12 H 0 c 6.627,0 12,-5.373 12,-12 V 12 C 12,5.373 6.627,0 0,0"
       style="fill:#737373;fill-opacity:1;fill-rule:nonzero;stroke:none"
       id="path38" /></g><path
     inkscape:connector-curvature="0"
     d="M 250.66666,320 H 85.333331 V 16.000005 H 250.66666 Z"
     style="fill:#666666;fill-opacity:1;fill-rule:nonzero;stroke:none;stroke-width:1.33333325"
     id="path40" /><g
     id="g42"
     transform="matrix(1.3333333,0,0,-1.3333333,95.999998,53.333337)"><path
       inkscape:connector-curvature="0"
       d="m 0,0 c 0,-4.418 -3.582,-8 -8,-8 -4.418,0 -8,3.582 -8,8 0,4.418 3.582,8 8,8 4.418,0 8,-3.582 8,-8"
       style="fill:#d9d9d9;fill-opacity:1;fill-rule:nonzero;stroke:none"
       id="path44" /></g><g
     id="g46"
     transform="matrix(1.3333333,0,0,-1.3333333,181.33333,53.333337)"><path
       inkscape:connector-curvature="0"
       d="m 0,0 c 0,-4.418 -3.582,-8 -8,-8 -4.418,0 -8,3.582 -8,8 0,4.418 3.582,8 8,8 4.418,0 8,-3.582 8,-8"
       style="fill:#d9d9d9;fill-opacity:1;fill-rule:nonzero;stroke:none"
       id="path48" /></g><g
     id="g50"
     transform="matrix(1.3333333,0,0,-1.3333333,245.33333,32.000004)"><path
       inkscape:connector-curvature="0"
       d="m 0,0 c 0,-2.209 -1.791,-4 -4,-4 -2.209,0 -4,1.791 -4,4 0,2.209 1.791,4 4,4 2.209,0 4,-1.791 4,-4"
       style="fill:#333333;fill-opacity:1;fill-rule:nonzero;stroke:none"
       id="path52" /></g><g
     id="g54"
     transform="matrix(1.3333333,0,0,-1.3333333,101.33333,32.000004)"><path
       inkscape:connector-curvature="0"
       d="m 0,0 c 0,-2.209 -1.791,-4 -4,-4 -2.209,0 -4,1.791 -4,4 0,2.209 1.791,4 4,4 2.209,0 4,-1.791 4,-4"
       style="fill:#333333;fill-opacity:1;fill-rule:nonzero;stroke:none"
       id="path56" /></g><path
     inkscape:connector-curvature="0"
     d="M 250.66666,53.333337 H 192 v -2.666666 h 58.66666 z"
     style="fill:#333333;fill-opacity:1;fill-rule:nonzero;stroke:none;stroke-width:1.33333325"
     id="path58" /><path
     inkscape:connector-curvature="0"
     d="M 250.66666,58.66667 H 192 v -2.666666 h 58.66666 z"
     style="fill:#333333;fill-opacity:1;fill-rule:nonzero;stroke:none;stroke-width:1.33333325"
     id="path60" /><path
     inkscape:connector-curvature="0"
     d="M 250.66666,64.000004 H 192 v -2.666667 h 58.66666 z"
     style="fill:#333333;fill-opacity:1;fill-rule:nonzero;stroke:none;stroke-width:1.33333325"
     id="path62" /><path
     inkscape:connector-curvature="0"
     d="M 250.66666,69.333337 H 192 V 66.66667 h 58.66666 z"
     style="fill:#333333;fill-opacity:1;fill-rule:nonzero;stroke:none;stroke-width:1.33333325"
     id="path64" /><path
     inkscape:connector-curvature="0"
     d="M 250.66666,74.66667 H 192 v -2.666667 h 58.66666 z"
     style="fill:#333333;fill-opacity:1;fill-rule:nonzero;stroke:none;stroke-width:1.33333325"
     id="path66" /><path
     inkscape:connector-curvature="0"
     d="M 250.66666,80.000003 H 192 v -2.666666 h 58.66666 z"
     style="fill:#333333;fill-opacity:1;fill-rule:nonzero;stroke:none;stroke-width:1.33333325"
     id="path68" /><path
     inkscape:connector-curvature="0"
     d="M 250.66666,85.333336 H 192 V 82.66667 h 58.66666 z"
     style="fill:#333333;fill-opacity:1;fill-rule:nonzero;stroke:none;stroke-width:1.33333325"
     id="path70" /><path
     inkscape:connector-curvature="0"
     d="M 250.66666,90.66667 H 192 v -2.666667 h 58.66666 z"
     style="fill:#333333;fill-opacity:1;fill-rule:nonzero;stroke:none;stroke-width:1.33333325"
     id="path72" /><path
     inkscape:connector-curvature="0"
     d="M 250.66666,96.000003 H 192 v -2.666667 h 58.66666 z"
     style="fill:#333333;fill-opacity:1;fill-rule:nonzero;stroke:none;stroke-width:1.33333325"
     id="path74" /><path
     inkscape:connector-curvature="0"
     d="M 250.66666,101.33334 H 192 v -2.666671 h 58.66666 z"
     style="fill:#333333;fill-opacity:1;fill-rule:nonzero;stroke:none;stroke-width:1.33333325"
     id="path76" /><path
     inkscape:connector-curvature="0"
     d="M 250.66666,106.66667 H 192 V 104 h 58.66666 z"
     style="fill:#333333;fill-opacity:1;fill-rule:nonzero;stroke:none;stroke-width:1.33333325"
     id="path78" /><path
     inkscape:connector-curvature="0"
     d="M 250.66666,112 H 192 v -2.66666 h 58.66666 z"
     style="fill:#333333;fill-opacity:1;fill-rule:nonzero;stroke:none;stroke-width:1.33333325"
     id="path80" /><path
     inkscape:connector-curvature="0"
     d="M 250.66666,117.33334 H 192 v -2.66667 h 58.66666 z"
     style="fill:#333333;fill-opacity:1;fill-rule:nonzero;stroke:none;stroke-width:1.33333325"
     id="path82" /><path
     inkscape:connector-curvature="0"
     d="M 250.66666,122.66667 H 192 V 120 h 58.66666 z"
     style="fill:#333333;fill-opacity:1;fill-rule:nonzero;stroke:none;stroke-width:1.33333325"
     id="path84" /><path
     inkscape:connector-curvature="0"
     d="M 250.66666,128 H 192 v -2.66666 h 58.66666 z"
     style="fill:#333333;fill-opacity:1;fill-rule:nonzero;stroke:none;stroke-width:1.33333325"
     id="path86" /><path
     inkscape:connector-curvature="0"
     d="M 250.66666,133.33334 H 192 v -2.66667 h 58.66666 z"
     style="fill:#333333;fill-opacity:1;fill-rule:nonzero;stroke:none;stroke-width:1.33333325"
     id="path88" /><g
     id="g90"
     transform="matrix(1.3333333,0,0,-1.3333333,152,213.33333)"><path
       inkscape:connector-curvature="0"
       d="m 0,0 h -32 c -1.1,0 -2,0.9 -2,2 v 24 c 0,1.1 0.9,2 2,2 H 0 c 1.1,0 2,-0.9 2,-2 V 2 C 2,0.9 1.1,0 0,0"
       style="fill:#bfbfbf;fill-opacity:1;fill-rule:nonzero;stroke:none"
       id="path92" /></g><g
     id="g94"
     transform="matrix(1.3333333,0,0,-1.3333333,261.33333,325.33333)"><path
       inkscape:connector-curvature="0"
       d="m 0,0 h -64 c -4.4,0 -8,3.6 -8,8 v 104 c 0,4.4 3.6,8 8,8 H 0 c 4.4,0 8,-3.6 8,-8 V 8 C 8,3.6 4.4,0 0,0"
       style="fill:#4c4c4c;fill-opacity:1;fill-rule:nonzero;stroke:none"
       id="path96" /></g><g
     id="g98"
     transform="matrix(1.3333333,0,0,-1.3333333,255.99999,320)"><path
       inkscape:connector-curvature="0"
       d="m 0,0 h -56 c -4.4,0 -8,3.6 -8,8 v 96 c 0,4.4 3.6,8 8,8 H 0 c 4.4,0 8,-3.6 8,-8 V 8 C 8,3.6 4.4,0 0,0"
       style="fill:#666666;fill-opacity:1;fill-rule:nonzero;stroke:none"
       id="path100" /></g><g
     id="g102"
     transform="matrix(1.3333333,0,0,-1.3333333,245.33333,309.33333)"><path
       inkscape:connector-curvature="0"
       d="m 0,0 c 0,-2.209 -1.791,-4 -4,-4 -2.209,0 -4,1.791 -4,4 0,2.209 1.791,4 4,4 2.209,0 4,-1.791 4,-4"
       style="fill:#333333;fill-opacity:1;fill-rule:nonzero;stroke:none"
       id="path104" /></g><g
     id="g106"
     transform="matrix(1.3333333,0,0,-1.3333333,101.33333,309.33333)"><path
       inkscape:connector-curvature="0"
       d="m 0,0 c 0,-2.209 -1.791,-4 -4,-4 -2.209,0 -4,1.791 -4,4 0,2.209 1.791,4 4,4 2.209,0 4,-1.791 4,-4"
       style="fill:#333333;fill-opacity:1;fill-rule:nonzero;stroke:none"
       id="path108" /></g><g
     id="g110"
     transform="matrix(1.3333333,0,0,-1.3333333,253.33333,176)"><path
       inkscape:connector-curvature="0"
       d="m 0,0 h -56 c -1.104,0 -2,-0.896 -2,-2 v -88 c 0,-1.104 0.896,-2 2,-2 H 0 c 1.104,0 2,0.896 2,2 V -2 C 2,-0.896 1.104,0 0,0"
       style="fill:#ffffff;fill-opacity:1;fill-rule:nonzero;stroke:none"
       id="path112" /></g><path
     inkscape:connector-curvature="0"
     d="m 234.66666,53.333337 h -26.66667 v -2.666666 h 26.66667 z"
     style="fill:#141414;fill-opacity:1;fill-rule:nonzero;stroke:none;stroke-width:1.33333325"
     id="path114" /><path
     inkscape:connector-curvature="0"
     d="m 234.66666,58.66667 h -26.66667 v -2.666666 h 26.66667 z"
     style="fill:#141414;fill-opacity:1;fill-rule:nonzero;stroke:none;stroke-width:1.33333325"
     id="path116" /><path
     inkscape:connector-curvature="0"
     d="m 239.99999,64.000004 h -37.33333 v -2.666667 h 37.33333 z"
     style="fill:#141414;fill-opacity:1;fill-rule:nonzero;stroke:none;stroke-width:1.33333325"
     id="path118" /><path
     inkscape:connector-curvature="0"
     d="M 239.99999,69.333337 H 202.66666 V 66.66667 h 37.33333 z"
     style="fill:#141414;fill-opacity:1;fill-rule:nonzero;stroke:none;stroke-width:1.33333325"
     id="path120" /><path
     inkscape:connector-curvature="0"
     d="m 239.99999,74.66667 h -37.33333 v -2.666667 h 37.33333 z"
     style="fill:#141414;fill-opacity:1;fill-rule:nonzero;stroke:none;stroke-width:1.33333325"
     id="path122" /><path
     inkscape:connector-curvature="0"
     d="m 234.66666,80.000003 h -26.66667 v -2.666666 h 26.66667 z"
     style="fill:#141414;fill-opacity:1;fill-rule:nonzero;stroke:none;stroke-width:1.33333325"
     id="path124" /><path
     inkscape:connector-curvature="0"
     d="M 234.66666,85.333336 H 207.99999 V 82.66667 h 26.66667 z"
     style="fill:#141414;fill-opacity:1;fill-rule:nonzero;stroke:none;stroke-width:1.33333325"
     id="path126" /><g
     id="g128"
     transform="matrix(1.3333333,0,0,-1.3333333,242.66666,32.000004)"><path
       inkscape:connector-curvature="0"
       d="m 0,0 c 0,-1.104 -0.896,-2 -2,-2 -1.104,0 -2,0.896 -2,2 0,1.104 0.896,2 2,2 1.104,0 2,-0.896 2,-2"
       style="fill:#191919;fill-opacity:1;fill-rule:nonzero;stroke:none"
       id="path130" /></g><g
     id="g132"
     transform="matrix(1.3333333,0,0,-1.3333333,98.666664,32.000004)"><path
       inkscape:connector-curvature="0"
       d="m 0,0 c 0,-1.104 -0.896,-2 -2,-2 -1.104,0 -2,0.896 -2,2 0,1.104 0.896,2 2,2 1.104,0 2,-0.896 2,-2"
       style="fill:#191919;fill-opacity:1;fill-rule:nonzero;stroke:none"
       id="path134" /></g><g
     id="g136"
     transform="matrix(1.3333333,0,0,-1.3333333,242.66666,309.33333)"><path
       inkscape:connector-curvature="0"
       d="m 0,0 c 0,-1.104 -0.896,-2 -2,-2 -1.104,0 -2,0.896 -2,2 0,1.104 0.896,2 2,2 1.104,0 2,-0.896 2,-2"
       style="fill:#191919;fill-opacity:1;fill-rule:nonzero;stroke:none"
       id="path138" /></g><g
     id="g140"
     transform="matrix(1.3333333,0,0,-1.3333333,98.666664,309.33333)"><path
       inkscape:connector-curvature="0"
       d="m 0,0 c 0,-1.104 -0.896,-2 -2,-2 -1.104,0 -2,0.896 -2,2 0,1.104 0.896,2 2,2 1.104,0 2,-0.896 2,-2"
       style="fill:#191919;fill-opacity:1;fill-rule:nonzero;stroke:none"
       id="path142" /></g><g
     id="g144"
     transform="matrix(1.3333333,0,0,-1.3333333,79.999998,53.333337)"><path
       inkscape:connector-curvature="0"
       d="M 0,0 C 0,0.171 0.029,0.334 0.05,0.5 H -4 v -1 H 0.05 C 0.029,-0.334 0,-0.171 0,0"
       style="fill:#bfbfbf;fill-opacity:1;fill-rule:nonzero;stroke:none"
       id="path146" /></g><g
     id="g148"
     transform="matrix(1.3333333,0,0,-1.3333333,85.333331,48.000004)"><path
       inkscape:connector-curvature="0"
       d="M 0,0 C 0.171,0 0.334,-0.029 0.5,-0.05 V 4 h -1 V -0.05 C -0.334,-0.029 -0.171,0 0,0"
       style="fill:#bfbfbf;fill-opacity:1;fill-rule:nonzero;stroke:none"
       id="path150" /></g><g
     id="g152"
     transform="matrix(1.3333333,0,0,-1.3333333,85.333331,58.66667)"><path
       inkscape:connector-curvature="0"
       d="M 0,0 C -0.171,0 -0.334,0.029 -0.5,0.05 V -4 h 1 V 0.05 C 0.334,0.029 0.171,0 0,0"
       style="fill:#bfbfbf;fill-opacity:1;fill-rule:nonzero;stroke:none"
       id="path154" /></g><g
     id="g156"
     transform="matrix(1.3333333,0,0,-1.3333333,90.599598,52.666671)"><path
       inkscape:connector-curvature="0"
       d="M 0,0 C 0.021,-0.166 0.05,-0.329 0.05,-0.5 0.05,-0.671 0.021,-0.834 0,-1 h 4.05 v 1 z"
       style="fill:#bfbfbf;fill-opacity:1;fill-rule:nonzero;stroke:none"
       id="path158" /></g><g
     id="g160"
     transform="matrix(1.3333333,0,0,-1.3333333,165.33333,53.333337)"><path
       inkscape:connector-curvature="0"
       d="M 0,0 C 0,0.171 0.029,0.334 0.05,0.5 H -4 v -1 H 0.05 C 0.029,-0.334 0,-0.171 0,0"
       style="fill:#bfbfbf;fill-opacity:1;fill-rule:nonzero;stroke:none"
       id="path162" /></g><g
     id="g164"
     transform="matrix(1.3333333,0,0,-1.3333333,170.66666,48.000004)"><path
       inkscape:connector-curvature="0"
       d="M 0,0 C 0.171,0 0.334,-0.029 0.5,-0.05 V 4 h -1 V -0.05 C -0.334,-0.029 -0.171,0 0,0"
       style="fill:#bfbfbf;fill-opacity:1;fill-rule:nonzero;stroke:none"
       id="path166" /></g><g
     id="g168"
     transform="matrix(1.3333333,0,0,-1.3333333,170.66666,58.66667)"><path
       inkscape:connector-curvature="0"
       d="M 0,0 C -0.171,0 -0.334,0.029 -0.5,0.05 V -4 h 1 V 0.05 C 0.334,0.029 0.171,0 0,0"
       style="fill:#bfbfbf;fill-opacity:1;fill-rule:nonzero;stroke:none"
       id="path170" /></g><g
     id="g172"
     transform="matrix(1.3333333,0,0,-1.3333333,175.93226,52.666671)"><path
       inkscape:connector-curvature="0"
       d="M 0,0 C 0.021,-0.166 0.051,-0.329 0.051,-0.5 0.051,-0.671 0.021,-0.834 0,-1 h 4.051 v 1 z"
       style="fill:#bfbfbf;fill-opacity:1;fill-rule:nonzero;stroke:none"
       id="path174" /></g></svg>
