<?xml version="1.0" encoding="UTF-8" standalone="no"?>
<svg
   xmlns:dc="http://purl.org/dc/elements/1.1/"
   xmlns:cc="http://creativecommons.org/ns#"
   xmlns:rdf="http://www.w3.org/1999/02/22-rdf-syntax-ns#"
   xmlns:svg="http://www.w3.org/2000/svg"
   xmlns="http://www.w3.org/2000/svg"
   xmlns:sodipodi="http://sodipodi.sourceforge.net/DTD/sodipodi-0.dtd"
   xmlns:inkscape="http://www.inkscape.org/namespaces/inkscape"
   viewBox="0 0 341.33334 341.33334"
   height="256"
   width="256"
   xml:space="preserve"
   id="svg2"
   version="1.1"
   sodipodi:docname="Capcom - CP System III-content.svg"
   inkscape:version="0.92.2 (5c3e80d, 2017-08-06)"><sodipodi:namedview
     pagecolor="#ffffff"
     bordercolor="#666666"
     borderopacity="1"
     objecttolerance="10"
     gridtolerance="10"
     guidetolerance="10"
     inkscape:pageopacity="0"
     inkscape:pageshadow="2"
     inkscape:window-width="730"
     inkscape:window-height="480"
     id="namedview201"
     showgrid="false"
     inkscape:pagecheckerboard="true"
     inkscape:zoom="0.69140623"
     inkscape:cx="170.66667"
     inkscape:cy="170.66667"
     inkscape:window-x="0"
     inkscape:window-y="0"
     inkscape:window-maximized="0"
     inkscape:current-layer="svg2" /><metadata
     id="metadata8"><rdf:RDF><cc:Work
         rdf:about=""><dc:format>image/svg+xml</dc:format><dc:type
           rdf:resource="http://purl.org/dc/dcmitype/StillImage" /><dc:title></dc:title></cc:Work></rdf:RDF></metadata><defs
     id="defs6"><clipPath
       id="clipPath18"
       clipPathUnits="userSpaceOnUse"><path
         id="path16"
         d="M 0,256 H 256 V 0 H 0 Z" /></clipPath><clipPath
       id="clipPath26"
       clipPathUnits="userSpaceOnUse"><path
         id="path24"
         d="M 4,252 H 252 V 4 H 4 Z" /></clipPath></defs><g
     id="g22"
     transform="matrix(1.3333333,0,0,-1.3333333,0,341.33333)" /><path
     id="path38"
     style="fill:#16a085;fill-opacity:1;fill-rule:nonzero;stroke:none;stroke-width:1.33333325"
     d="m 306.66666,26.666671 c -1.472,0 -2.66667,-1.194667 -2.66667,-2.666667 0,-1.472 1.19467,-2.666666 2.66667,-2.666666 1.472,0 2.66667,1.194666 2.66667,2.666666 0,1.472 -1.19467,2.666667 -2.66667,2.666667 m 0,293.333329 c -1.472,0 -2.66667,-1.19467 -2.66667,-2.66667 0,-1.472 1.19467,-2.66667 2.66667,-2.66667 1.472,0 2.66667,1.19467 2.66667,2.66667 0,1.472 -1.19467,2.66667 -2.66667,2.66667 M 34.666667,26.666671 C 33.194667,26.666671 32,25.472004 32,24.000004 c 0,-1.472 1.194667,-2.666666 2.666667,-2.666666 1.472,0 2.666666,1.194666 2.666666,2.666666 0,1.472 -1.194666,2.666667 -2.666666,2.666667 m 0,293.333329 C 33.194667,320 32,318.80533 32,317.33333 c 0,-1.472 1.194667,-2.66667 2.666667,-2.66667 1.472,0 2.666666,1.19467 2.666666,2.66667 0,1.472 -1.194666,2.66667 -2.666666,2.66667 M 314.66666,170.66667 V 16.000005 H 26.666667 V 325.33333 H 314.66666 v -96 h -5.33333 V 208 h 5.33333 v -16 h -5.33333 v -21.33333 z"
     inkscape:connector-curvature="0" /><path
     inkscape:connector-curvature="0"
     d="m 149.33333,320 h -2.66667 v -5.33334 h 2.66667 z"
     style="fill:#666666;fill-opacity:1;fill-rule:nonzero;stroke:none;stroke-width:1.33333325"
     id="path40" /><path
     inkscape:connector-curvature="0"
     d="M 154.66666,320 H 152 v -5.33334 h 2.66666 z"
     style="fill:#e77f22;fill-opacity:1;fill-rule:nonzero;stroke:none;stroke-width:1.33333325"
     id="path42" /><path
     inkscape:connector-curvature="0"
     d="M 138.66666,320 H 136 v -5.33334 h 2.66666 z"
     style="fill:#666666;fill-opacity:1;fill-rule:nonzero;stroke:none;stroke-width:1.33333325"
     id="path44" /><path
     inkscape:connector-curvature="0"
     d="m 144,320 h -2.66667 v -5.33334 H 144 Z"
     style="fill:#666666;fill-opacity:1;fill-rule:nonzero;stroke:none;stroke-width:1.33333325"
     id="path46" /><path
     inkscape:connector-curvature="0"
     d="m 128,320 h -2.66667 v -5.33334 H 128 Z"
     style="fill:#4b5da7;fill-opacity:1;fill-rule:nonzero;stroke:none;stroke-width:1.33333325"
     id="path48" /><path
     inkscape:connector-curvature="0"
     d="m 133.33333,320 h -2.66667 v -5.33334 h 2.66667 z"
     style="fill:#4b5da7;fill-opacity:1;fill-rule:nonzero;stroke:none;stroke-width:1.33333325"
     id="path50" /><path
     inkscape:connector-curvature="0"
     d="m 117.33333,320 h -2.66667 v -5.33334 h 2.66667 z"
     style="fill:#e77f22;fill-opacity:1;fill-rule:nonzero;stroke:none;stroke-width:1.33333325"
     id="path52" /><path
     inkscape:connector-curvature="0"
     d="M 122.66666,320 H 120 v -5.33334 h 2.66666 z"
     style="fill:#e77f22;fill-opacity:1;fill-rule:nonzero;stroke:none;stroke-width:1.33333325"
     id="path54" /><path
     inkscape:connector-curvature="0"
     d="m 160,320 h -2.66667 v -5.33334 H 160 Z"
     style="fill:#e77f22;fill-opacity:1;fill-rule:nonzero;stroke:none;stroke-width:1.33333325"
     id="path56" /><path
     inkscape:connector-curvature="0"
     d="m 165.33333,320 h -2.66667 v -5.33334 h 2.66667 z"
     style="fill:#e77f22;fill-opacity:1;fill-rule:nonzero;stroke:none;stroke-width:1.33333325"
     id="path58" /><path
     inkscape:connector-curvature="0"
     d="M 170.66666,320 H 168 v -5.33334 h 2.66666 z"
     style="fill:#e77f22;fill-opacity:1;fill-rule:nonzero;stroke:none;stroke-width:1.33333325"
     id="path60" /><path
     inkscape:connector-curvature="0"
     d="M 309.33333,58.66667 H 176 V 48.000004 h 133.33333 z"
     style="fill:#ffcc99;fill-opacity:1;fill-rule:nonzero;stroke:none;stroke-width:1.33333325"
     id="path62" /><path
     inkscape:connector-curvature="0"
     d="M 309.33333,74.66667 H 176 V 64.000004 h 133.33333 z"
     style="fill:#ffcc99;fill-opacity:1;fill-rule:nonzero;stroke:none;stroke-width:1.33333325"
     id="path64" /><path
     inkscape:connector-curvature="0"
     d="M 303.99999,154.66667 H 197.33333 v -16 h 106.66666 z"
     style="fill:#ffcc99;fill-opacity:1;fill-rule:nonzero;stroke:none;stroke-width:1.33333325"
     id="path66" /><path
     inkscape:connector-curvature="0"
     d="M 170.66666,58.66667 H 37.333332 V 48.000004 H 170.66666 Z"
     style="fill:#ffcc99;fill-opacity:1;fill-rule:nonzero;stroke:none;stroke-width:1.33333325"
     id="path68" /><path
     inkscape:connector-curvature="0"
     d="M 170.66666,74.66667 H 37.333332 V 64.000004 H 170.66666 Z"
     style="fill:#ffcc99;fill-opacity:1;fill-rule:nonzero;stroke:none;stroke-width:1.33333325"
     id="path70" /><path
     inkscape:connector-curvature="0"
     d="M 170.66666,90.66667 H 37.333332 V 80.000003 H 170.66666 Z"
     style="fill:#ffcc99;fill-opacity:1;fill-rule:nonzero;stroke:none;stroke-width:1.33333325"
     id="path72" /><path
     inkscape:connector-curvature="0"
     d="M 170.66666,106.66667 H 37.333332 V 96.000003 H 170.66666 Z"
     style="fill:#ffcc99;fill-opacity:1;fill-rule:nonzero;stroke:none;stroke-width:1.33333325"
     id="path74" /><path
     inkscape:connector-curvature="0"
     d="m 298.66666,149.33333 h -96 V 144 h 96 z"
     style="fill:#cca37a;fill-opacity:1;fill-rule:nonzero;stroke:none;stroke-width:1.33333325"
     id="path76" /><path
     inkscape:connector-curvature="0"
     d="m 205.33333,144 h -2.66667 v -5.33333 h 2.66667 z"
     style="fill:#d9af63;fill-opacity:1;fill-rule:nonzero;stroke:none;stroke-width:1.33333325"
     id="path78" /><path
     inkscape:connector-curvature="0"
     d="m 210.66666,144 h -2.66667 v -5.33333 h 2.66667 z"
     style="fill:#d9af63;fill-opacity:1;fill-rule:nonzero;stroke:none;stroke-width:1.33333325"
     id="path80" /><path
     inkscape:connector-curvature="0"
     d="m 215.99999,144 h -2.66666 v -5.33333 h 2.66666 z"
     style="fill:#d9af63;fill-opacity:1;fill-rule:nonzero;stroke:none;stroke-width:1.33333325"
     id="path82" /><path
     inkscape:connector-curvature="0"
     d="m 221.33333,144 h -2.66667 v -5.33333 h 2.66667 z"
     style="fill:#d9af63;fill-opacity:1;fill-rule:nonzero;stroke:none;stroke-width:1.33333325"
     id="path84" /><path
     inkscape:connector-curvature="0"
     d="m 226.66666,144 h -2.66667 v -5.33333 h 2.66667 z"
     style="fill:#d9af63;fill-opacity:1;fill-rule:nonzero;stroke:none;stroke-width:1.33333325"
     id="path86" /><path
     inkscape:connector-curvature="0"
     d="m 231.99999,144 h -2.66666 v -5.33333 h 2.66666 z"
     style="fill:#d9af63;fill-opacity:1;fill-rule:nonzero;stroke:none;stroke-width:1.33333325"
     id="path88" /><path
     inkscape:connector-curvature="0"
     d="m 237.33333,144 h -2.66667 v -5.33333 h 2.66667 z"
     style="fill:#d9af63;fill-opacity:1;fill-rule:nonzero;stroke:none;stroke-width:1.33333325"
     id="path90" /><path
     inkscape:connector-curvature="0"
     d="m 242.66666,144 h -2.66667 v -5.33333 h 2.66667 z"
     style="fill:#d9af63;fill-opacity:1;fill-rule:nonzero;stroke:none;stroke-width:1.33333325"
     id="path92" /><path
     inkscape:connector-curvature="0"
     d="m 247.99999,144 h -2.66666 v -5.33333 h 2.66666 z"
     style="fill:#d9af63;fill-opacity:1;fill-rule:nonzero;stroke:none;stroke-width:1.33333325"
     id="path94" /><path
     inkscape:connector-curvature="0"
     d="m 253.33333,144 h -2.66667 v -5.33333 h 2.66667 z"
     style="fill:#d9af63;fill-opacity:1;fill-rule:nonzero;stroke:none;stroke-width:1.33333325"
     id="path96" /><path
     inkscape:connector-curvature="0"
     d="m 258.66666,144 h -2.66667 v -5.33333 h 2.66667 z"
     style="fill:#d9af63;fill-opacity:1;fill-rule:nonzero;stroke:none;stroke-width:1.33333325"
     id="path98" /><path
     inkscape:connector-curvature="0"
     d="m 263.99999,144 h -2.66666 v -5.33333 h 2.66666 z"
     style="fill:#d9af63;fill-opacity:1;fill-rule:nonzero;stroke:none;stroke-width:1.33333325"
     id="path100" /><path
     inkscape:connector-curvature="0"
     d="m 269.33333,144 h -2.66667 v -5.33333 h 2.66667 z"
     style="fill:#d9af63;fill-opacity:1;fill-rule:nonzero;stroke:none;stroke-width:1.33333325"
     id="path102" /><path
     inkscape:connector-curvature="0"
     d="m 274.66666,144 h -2.66667 v -5.33333 h 2.66667 z"
     style="fill:#d9af63;fill-opacity:1;fill-rule:nonzero;stroke:none;stroke-width:1.33333325"
     id="path104" /><path
     inkscape:connector-curvature="0"
     d="m 282.66666,144 h -2.66667 v -5.33333 h 2.66667 z"
     style="fill:#d9af63;fill-opacity:1;fill-rule:nonzero;stroke:none;stroke-width:1.33333325"
     id="path106" /><path
     inkscape:connector-curvature="0"
     d="m 287.99999,144 h -2.66666 v -5.33333 h 2.66666 z"
     style="fill:#d9af63;fill-opacity:1;fill-rule:nonzero;stroke:none;stroke-width:1.33333325"
     id="path108" /><path
     inkscape:connector-curvature="0"
     d="m 293.33333,144 h -2.66667 v -5.33333 h 2.66667 z"
     style="fill:#d9af63;fill-opacity:1;fill-rule:nonzero;stroke:none;stroke-width:1.33333325"
     id="path110" /><path
     inkscape:connector-curvature="0"
     d="m 298.66666,144 h -2.66667 v -5.33333 h 2.66667 z"
     style="fill:#d9af63;fill-opacity:1;fill-rule:nonzero;stroke:none;stroke-width:1.33333325"
     id="path112" /><path
     inkscape:connector-curvature="0"
     d="m 205.33333,149.33333 h -2.66667 V 144 h 2.66667 z"
     style="fill:#a3834a;fill-opacity:1;fill-rule:nonzero;stroke:none;stroke-width:1.33333325"
     id="path114" /><path
     inkscape:connector-curvature="0"
     d="m 210.66666,149.33333 h -2.66667 V 144 h 2.66667 z"
     style="fill:#a3834a;fill-opacity:1;fill-rule:nonzero;stroke:none;stroke-width:1.33333325"
     id="path116" /><path
     inkscape:connector-curvature="0"
     d="m 215.99999,149.33333 h -2.66666 V 144 h 2.66666 z"
     style="fill:#a3834a;fill-opacity:1;fill-rule:nonzero;stroke:none;stroke-width:1.33333325"
     id="path118" /><path
     inkscape:connector-curvature="0"
     d="m 221.33333,149.33333 h -2.66667 V 144 h 2.66667 z"
     style="fill:#a3834a;fill-opacity:1;fill-rule:nonzero;stroke:none;stroke-width:1.33333325"
     id="path120" /><path
     inkscape:connector-curvature="0"
     d="m 226.66666,149.33333 h -2.66667 V 144 h 2.66667 z"
     style="fill:#a3834a;fill-opacity:1;fill-rule:nonzero;stroke:none;stroke-width:1.33333325"
     id="path122" /><path
     inkscape:connector-curvature="0"
     d="m 231.99999,149.33333 h -2.66666 V 144 h 2.66666 z"
     style="fill:#a3834a;fill-opacity:1;fill-rule:nonzero;stroke:none;stroke-width:1.33333325"
     id="path124" /><path
     inkscape:connector-curvature="0"
     d="m 237.33333,149.33333 h -2.66667 V 144 h 2.66667 z"
     style="fill:#a3834a;fill-opacity:1;fill-rule:nonzero;stroke:none;stroke-width:1.33333325"
     id="path126" /><path
     inkscape:connector-curvature="0"
     d="m 242.66666,149.33333 h -2.66667 V 144 h 2.66667 z"
     style="fill:#a3834a;fill-opacity:1;fill-rule:nonzero;stroke:none;stroke-width:1.33333325"
     id="path128" /><path
     inkscape:connector-curvature="0"
     d="m 247.99999,149.33333 h -2.66666 V 144 h 2.66666 z"
     style="fill:#a3834a;fill-opacity:1;fill-rule:nonzero;stroke:none;stroke-width:1.33333325"
     id="path130" /><path
     inkscape:connector-curvature="0"
     d="m 253.33333,149.33333 h -2.66667 V 144 h 2.66667 z"
     style="fill:#a3834a;fill-opacity:1;fill-rule:nonzero;stroke:none;stroke-width:1.33333325"
     id="path132" /><path
     inkscape:connector-curvature="0"
     d="m 258.66666,149.33333 h -2.66667 V 144 h 2.66667 z"
     style="fill:#a3834a;fill-opacity:1;fill-rule:nonzero;stroke:none;stroke-width:1.33333325"
     id="path134" /><path
     inkscape:connector-curvature="0"
     d="m 263.99999,149.33333 h -2.66666 V 144 h 2.66666 z"
     style="fill:#a3834a;fill-opacity:1;fill-rule:nonzero;stroke:none;stroke-width:1.33333325"
     id="path136" /><path
     inkscape:connector-curvature="0"
     d="m 269.33333,149.33333 h -2.66667 V 144 h 2.66667 z"
     style="fill:#a3834a;fill-opacity:1;fill-rule:nonzero;stroke:none;stroke-width:1.33333325"
     id="path138" /><path
     inkscape:connector-curvature="0"
     d="m 274.66666,149.33333 h -2.66667 V 144 h 2.66667 z"
     style="fill:#a3834a;fill-opacity:1;fill-rule:nonzero;stroke:none;stroke-width:1.33333325"
     id="path140" /><path
     inkscape:connector-curvature="0"
     d="m 282.66666,149.33333 h -2.66667 V 144 h 2.66667 z"
     style="fill:#a3834a;fill-opacity:1;fill-rule:nonzero;stroke:none;stroke-width:1.33333325"
     id="path142" /><path
     inkscape:connector-curvature="0"
     d="m 287.99999,149.33333 h -2.66666 V 144 h 2.66666 z"
     style="fill:#a3834a;fill-opacity:1;fill-rule:nonzero;stroke:none;stroke-width:1.33333325"
     id="path144" /><path
     inkscape:connector-curvature="0"
     d="m 293.33333,149.33333 h -2.66667 V 144 h 2.66667 z"
     style="fill:#a3834a;fill-opacity:1;fill-rule:nonzero;stroke:none;stroke-width:1.33333325"
     id="path146" /><path
     inkscape:connector-curvature="0"
     d="m 298.66666,149.33333 h -2.66667 V 144 h 2.66667 z"
     style="fill:#a3834a;fill-opacity:1;fill-rule:nonzero;stroke:none;stroke-width:1.33333325"
     id="path148" /><path
     inkscape:connector-curvature="0"
     d="m 205.33333,154.66667 h -2.66667 v -5.33334 h 2.66667 z"
     style="fill:#d9af63;fill-opacity:1;fill-rule:nonzero;stroke:none;stroke-width:1.33333325"
     id="path150" /><path
     inkscape:connector-curvature="0"
     d="m 210.66666,154.66667 h -2.66667 v -5.33334 h 2.66667 z"
     style="fill:#d9af63;fill-opacity:1;fill-rule:nonzero;stroke:none;stroke-width:1.33333325"
     id="path152" /><path
     inkscape:connector-curvature="0"
     d="m 215.99999,154.66667 h -2.66666 v -5.33334 h 2.66666 z"
     style="fill:#d9af63;fill-opacity:1;fill-rule:nonzero;stroke:none;stroke-width:1.33333325"
     id="path154" /><path
     inkscape:connector-curvature="0"
     d="m 221.33333,154.66667 h -2.66667 v -5.33334 h 2.66667 z"
     style="fill:#d9af63;fill-opacity:1;fill-rule:nonzero;stroke:none;stroke-width:1.33333325"
     id="path156" /><path
     inkscape:connector-curvature="0"
     d="m 226.66666,154.66667 h -2.66667 v -5.33334 h 2.66667 z"
     style="fill:#d9af63;fill-opacity:1;fill-rule:nonzero;stroke:none;stroke-width:1.33333325"
     id="path158" /><path
     inkscape:connector-curvature="0"
     d="m 231.99999,154.66667 h -2.66666 v -5.33334 h 2.66666 z"
     style="fill:#d9af63;fill-opacity:1;fill-rule:nonzero;stroke:none;stroke-width:1.33333325"
     id="path160" /><path
     inkscape:connector-curvature="0"
     d="m 237.33333,154.66667 h -2.66667 v -5.33334 h 2.66667 z"
     style="fill:#d9af63;fill-opacity:1;fill-rule:nonzero;stroke:none;stroke-width:1.33333325"
     id="path162" /><path
     inkscape:connector-curvature="0"
     d="m 242.66666,154.66667 h -2.66667 v -5.33334 h 2.66667 z"
     style="fill:#d9af63;fill-opacity:1;fill-rule:nonzero;stroke:none;stroke-width:1.33333325"
     id="path164" /><path
     inkscape:connector-curvature="0"
     d="m 247.99999,154.66667 h -2.66666 v -5.33334 h 2.66666 z"
     style="fill:#d9af63;fill-opacity:1;fill-rule:nonzero;stroke:none;stroke-width:1.33333325"
     id="path166" /><path
     inkscape:connector-curvature="0"
     d="m 253.33333,154.66667 h -2.66667 v -5.33334 h 2.66667 z"
     style="fill:#d9af63;fill-opacity:1;fill-rule:nonzero;stroke:none;stroke-width:1.33333325"
     id="path168" /><path
     inkscape:connector-curvature="0"
     d="m 258.66666,154.66667 h -2.66667 v -5.33334 h 2.66667 z"
     style="fill:#d9af63;fill-opacity:1;fill-rule:nonzero;stroke:none;stroke-width:1.33333325"
     id="path170" /><path
     inkscape:connector-curvature="0"
     d="m 263.99999,154.66667 h -2.66666 v -5.33334 h 2.66666 z"
     style="fill:#d9af63;fill-opacity:1;fill-rule:nonzero;stroke:none;stroke-width:1.33333325"
     id="path172" /><path
     inkscape:connector-curvature="0"
     d="m 269.33333,154.66667 h -2.66667 v -5.33334 h 2.66667 z"
     style="fill:#d9af63;fill-opacity:1;fill-rule:nonzero;stroke:none;stroke-width:1.33333325"
     id="path174" /><path
     inkscape:connector-curvature="0"
     d="m 274.66666,154.66667 h -2.66667 v -5.33334 h 2.66667 z"
     style="fill:#d9af63;fill-opacity:1;fill-rule:nonzero;stroke:none;stroke-width:1.33333325"
     id="path176" /><path
     inkscape:connector-curvature="0"
     d="m 282.66666,154.66667 h -2.66667 v -5.33334 h 2.66667 z"
     style="fill:#d9af63;fill-opacity:1;fill-rule:nonzero;stroke:none;stroke-width:1.33333325"
     id="path178" /><path
     inkscape:connector-curvature="0"
     d="m 287.99999,154.66667 h -2.66666 v -5.33334 h 2.66666 z"
     style="fill:#d9af63;fill-opacity:1;fill-rule:nonzero;stroke:none;stroke-width:1.33333325"
     id="path180" /><path
     inkscape:connector-curvature="0"
     d="m 293.33333,154.66667 h -2.66667 v -5.33334 h 2.66667 z"
     style="fill:#d9af63;fill-opacity:1;fill-rule:nonzero;stroke:none;stroke-width:1.33333325"
     id="path182" /><path
     inkscape:connector-curvature="0"
     d="m 298.66666,154.66667 h -2.66667 v -5.33334 h 2.66667 z"
     style="fill:#d9af63;fill-opacity:1;fill-rule:nonzero;stroke:none;stroke-width:1.33333325"
     id="path184" /><path
     inkscape:connector-curvature="0"
     d="M 165.33333,56.000004 H 42.666666 V 50.666671 H 165.33333 Z"
     style="fill:#0e6654;fill-opacity:1;fill-rule:nonzero;stroke:none;stroke-width:1.33333325"
     id="path186" /><path
     inkscape:connector-curvature="0"
     d="M 165.33333,72.000003 H 42.666666 V 66.66667 H 165.33333 Z"
     style="fill:#0e6654;fill-opacity:1;fill-rule:nonzero;stroke:none;stroke-width:1.33333325"
     id="path188" /><path
     inkscape:connector-curvature="0"
     d="M 303.99999,56.000004 H 181.33333 v -5.333333 h 122.66666 z"
     style="fill:#0e6654;fill-opacity:1;fill-rule:nonzero;stroke:none;stroke-width:1.33333325"
     id="path190" /><path
     inkscape:connector-curvature="0"
     d="M 303.99999,72.000003 H 181.33333 V 66.66667 h 122.66666 z"
     style="fill:#0e6654;fill-opacity:1;fill-rule:nonzero;stroke:none;stroke-width:1.33333325"
     id="path192" /><path
     inkscape:connector-curvature="0"
     d="M 165.33333,88.000003 H 42.666666 V 82.66667 H 165.33333 Z"
     style="fill:#0e6654;fill-opacity:1;fill-rule:nonzero;stroke:none;stroke-width:1.33333325"
     id="path194" /><path
     inkscape:connector-curvature="0"
     d="M 165.33333,104 H 42.666666 V 98.666669 H 165.33333 Z"
     style="fill:#4c4c4c;fill-opacity:1;fill-rule:nonzero;stroke:none;stroke-width:1.33333325"
     id="path196" /><path
     inkscape:connector-curvature="0"
     d="M 223.99999,122.66667 H 186.66666 V 85.333336 h 37.33333 z"
     style="fill:#595959;fill-opacity:1;fill-rule:nonzero;stroke:none;stroke-width:1.33333325"
     id="path198" /><path
     inkscape:connector-curvature="0"
     d="M 277.33333,122.66667 H 239.99999 V 85.333336 h 37.33334 z"
     style="fill:#595959;fill-opacity:1;fill-rule:nonzero;stroke:none;stroke-width:1.33333325"
     id="path200" /><path
     inkscape:connector-curvature="0"
     d="m 303.99999,112 h -16 V 80.000003 h 16 z"
     style="fill:#595959;fill-opacity:1;fill-rule:nonzero;stroke:none;stroke-width:1.33333325"
     id="path202" /><path
     inkscape:connector-curvature="0"
     d="M 298.66666,42.666671 H 277.33333 V 21.333338 h 21.33333 z"
     style="fill:#595959;fill-opacity:1;fill-rule:nonzero;stroke:none;stroke-width:1.33333325"
     id="path204" /><path
     inkscape:connector-curvature="0"
     d="M 90.666664,186.66667 H 42.666666 v -48 h 47.999998 z"
     style="fill:#595959;fill-opacity:1;fill-rule:nonzero;stroke:none;stroke-width:1.33333325"
     id="path206" /><path
     inkscape:connector-curvature="0"
     d="m 133.33333,165.33333 h -32 v -31.99999 h 32 z"
     style="fill:#595959;fill-opacity:1;fill-rule:nonzero;stroke:none;stroke-width:1.33333325"
     id="path208" /><path
     inkscape:connector-curvature="0"
     d="m 165.33333,160 h -16 v -26.66666 h 16 z"
     style="fill:#595959;fill-opacity:1;fill-rule:nonzero;stroke:none;stroke-width:1.33333325"
     id="path210" /><path
     inkscape:connector-curvature="0"
     d="m 165.33333,186.66667 h -16 V 176 h 16 z"
     style="fill:#595959;fill-opacity:1;fill-rule:nonzero;stroke:none;stroke-width:1.33333325"
     id="path212" /><path
     inkscape:connector-curvature="0"
     d="m 149.33333,224 h -10.66667 v -26.66667 h 10.66667 z"
     style="fill:#595959;fill-opacity:1;fill-rule:nonzero;stroke:none;stroke-width:1.33333325"
     id="path214" /><path
     inkscape:connector-curvature="0"
     d="m 165.33333,224 h -10.66667 v -26.66667 h 10.66667 z"
     style="fill:#595959;fill-opacity:1;fill-rule:nonzero;stroke:none;stroke-width:1.33333325"
     id="path216" /><path
     inkscape:connector-curvature="0"
     d="m 218.66666,208 h -37.33333 v -37.33333 h 37.33333 z"
     style="fill:#595959;fill-opacity:1;fill-rule:nonzero;stroke:none;stroke-width:1.33333325"
     id="path218" /><path
     inkscape:connector-curvature="0"
     d="M 47.999999,250.66667 H 37.333332 v -32 h 10.666667 z"
     style="fill:#595959;fill-opacity:1;fill-rule:nonzero;stroke:none;stroke-width:1.33333325"
     id="path220" /><path
     inkscape:connector-curvature="0"
     d="M 63.999998,250.66667 H 53.333332 v -32 h 10.666666 z"
     style="fill:#595959;fill-opacity:1;fill-rule:nonzero;stroke:none;stroke-width:1.33333325"
     id="path222" /><path
     inkscape:connector-curvature="0"
     d="M 79.999998,250.66667 H 69.333332 v -32 h 10.666666 z"
     style="fill:#595959;fill-opacity:1;fill-rule:nonzero;stroke:none;stroke-width:1.33333325"
     id="path224" /><path
     inkscape:connector-curvature="0"
     d="M 95.999998,250.66667 H 85.333331 v -32 h 10.666667 z"
     style="fill:#595959;fill-opacity:1;fill-rule:nonzero;stroke:none;stroke-width:1.33333325"
     id="path226" /><path
     inkscape:connector-curvature="0"
     d="m 112,250.66667 h -10.66667 v -32 H 112 Z"
     style="fill:#595959;fill-opacity:1;fill-rule:nonzero;stroke:none;stroke-width:1.33333325"
     id="path228" /><path
     inkscape:connector-curvature="0"
     d="M 128,240 H 117.33333 V 229.33333 H 128 Z"
     style="fill:#595959;fill-opacity:1;fill-rule:nonzero;stroke:none;stroke-width:1.33333325"
     id="path230" /><path
     inkscape:connector-curvature="0"
     d="M 144,240 H 133.33333 V 229.33333 H 144 Z"
     style="fill:#595959;fill-opacity:1;fill-rule:nonzero;stroke:none;stroke-width:1.33333325"
     id="path232" /><path
     inkscape:connector-curvature="0"
     d="M 160,240 H 149.33333 V 229.33333 H 160 Z"
     style="fill:#595959;fill-opacity:1;fill-rule:nonzero;stroke:none;stroke-width:1.33333325"
     id="path234" /><path
     inkscape:connector-curvature="0"
     d="M 176,240 H 165.33333 V 229.33333 H 176 Z"
     style="fill:#595959;fill-opacity:1;fill-rule:nonzero;stroke:none;stroke-width:1.33333325"
     id="path236" /><path
     inkscape:connector-curvature="0"
     d="m 128,250.66667 h -10.66667 v -5.33334 H 128 Z"
     style="fill:#595959;fill-opacity:1;fill-rule:nonzero;stroke:none;stroke-width:1.33333325"
     id="path238" /><path
     inkscape:connector-curvature="0"
     d="m 144,250.66667 h -10.66667 v -5.33334 H 144 Z"
     style="fill:#595959;fill-opacity:1;fill-rule:nonzero;stroke:none;stroke-width:1.33333325"
     id="path240" /><path
     inkscape:connector-curvature="0"
     d="m 160,250.66667 h -10.66667 v -5.33334 H 160 Z"
     style="fill:#595959;fill-opacity:1;fill-rule:nonzero;stroke:none;stroke-width:1.33333325"
     id="path242" /><path
     inkscape:connector-curvature="0"
     d="m 176,250.66667 h -10.66667 v -5.33334 H 176 Z"
     style="fill:#595959;fill-opacity:1;fill-rule:nonzero;stroke:none;stroke-width:1.33333325"
     id="path244" /><path
     inkscape:connector-curvature="0"
     d="M 170.66666,122.66667 H 149.33333 V 112 h 21.33333 z"
     style="fill:#595959;fill-opacity:1;fill-rule:nonzero;stroke:none;stroke-width:1.33333325"
     id="path246" /><path
     inkscape:connector-curvature="0"
     d="M 144,122.66667 H 122.66666 V 112 H 144 Z"
     style="fill:#595959;fill-opacity:1;fill-rule:nonzero;stroke:none;stroke-width:1.33333325"
     id="path248" /><path
     inkscape:connector-curvature="0"
     d="M 117.33333,122.66667 H 95.999998 V 112 h 21.333332 z"
     style="fill:#595959;fill-opacity:1;fill-rule:nonzero;stroke:none;stroke-width:1.33333325"
     id="path250" /><path
     inkscape:connector-curvature="0"
     d="M 74.666665,122.66667 H 63.999998 V 112 h 10.666667 z"
     style="fill:#595959;fill-opacity:1;fill-rule:nonzero;stroke:none;stroke-width:1.33333325"
     id="path252" /><path
     inkscape:connector-curvature="0"
     d="M 42.666666,122.66667 H 31.999999 V 112 h 10.666667 z"
     style="fill:#595959;fill-opacity:1;fill-rule:nonzero;stroke:none;stroke-width:1.33333325"
     id="path254" /><path
     inkscape:connector-curvature="0"
     d="M 90.666664,122.66667 H 79.999998 V 112 h 10.666666 z"
     style="fill:#595959;fill-opacity:1;fill-rule:nonzero;stroke:none;stroke-width:1.33333325"
     id="path256" /><path
     inkscape:connector-curvature="0"
     d="M 58.666665,122.66667 H 47.999999 V 112 h 10.666666 z"
     style="fill:#595959;fill-opacity:1;fill-rule:nonzero;stroke:none;stroke-width:1.33333325"
     id="path258" /><path
     inkscape:connector-curvature="0"
     d="M 207.99999,282.66666 H 197.33333 V 256 h 10.66666 z"
     style="fill:#595959;fill-opacity:1;fill-rule:nonzero;stroke:none;stroke-width:1.33333325"
     id="path260" /><path
     inkscape:connector-curvature="0"
     d="M 229.33333,282.66666 H 218.66666 V 256 h 10.66667 z"
     style="fill:#595959;fill-opacity:1;fill-rule:nonzero;stroke:none;stroke-width:1.33333325"
     id="path262" /><path
     inkscape:connector-curvature="0"
     d="M 255.99999,314.66666 H 245.33333 V 288 h 10.66666 z"
     style="fill:#595959;fill-opacity:1;fill-rule:nonzero;stroke:none;stroke-width:1.33333325"
     id="path264" /><path
     inkscape:connector-curvature="0"
     d="M 277.33333,314.66666 H 266.66666 V 288 h 10.66667 z"
     style="fill:#595959;fill-opacity:1;fill-rule:nonzero;stroke:none;stroke-width:1.33333325"
     id="path266" /><path
     inkscape:connector-curvature="0"
     d="M 106.66666,272 H 90.666664 v -16 h 15.999996 z"
     style="fill:#b3b3b3;fill-opacity:1;fill-rule:nonzero;stroke:none;stroke-width:1.33333325"
     id="path268" /><path
     id="path272"
     style="fill:#595959;fill-opacity:1;fill-rule:nonzero;stroke:none;stroke-width:1.33333325"
     d="m 104,264 c 0,2.94533 -2.388,5.33333 -5.333333,5.33333 -2.945333,0 -5.333333,-2.388 -5.333333,-5.33333 0,-2.94533 2.388,-5.33333 5.333333,-5.33333 C 101.612,258.66667 104,261.05467 104,264"
     inkscape:connector-curvature="0" /><path
     inkscape:connector-curvature="0"
     d="m 303.99999,309.33333 h -16 v -16 h 16 z"
     style="fill:#b3b3b3;fill-opacity:1;fill-rule:nonzero;stroke:none;stroke-width:1.33333325"
     id="path274" /><path
     id="path278"
     style="fill:#354f9f;fill-opacity:1;fill-rule:nonzero;stroke:none;stroke-width:1.33333325"
     d="m 301.33333,301.33333 c 0,2.94533 -2.388,5.33333 -5.33333,5.33333 -2.94534,0 -5.33334,-2.388 -5.33334,-5.33333 0,-2.94533 2.388,-5.33333 5.33334,-5.33333 2.94533,0 5.33333,2.388 5.33333,5.33333"
     inkscape:connector-curvature="0" /><path
     inkscape:connector-curvature="0"
     d="M 122.66666,277.33333 H 112 V 256 h 10.66666 z"
     style="fill:#595959;fill-opacity:1;fill-rule:nonzero;stroke:none;stroke-width:1.33333325"
     id="path280" /><path
     inkscape:connector-curvature="0"
     d="m 170.66666,277.33333 h -16 v -16 h 16 z"
     style="fill:#595959;fill-opacity:1;fill-rule:nonzero;stroke:none;stroke-width:1.33333325"
     id="path282" /><path
     id="path286"
     style="fill:#cccccc;fill-opacity:1;fill-rule:nonzero;stroke:none;stroke-width:1.33333325"
     d="m 85.333331,282.66666 c 0,2.94533 -2.388,5.33333 -5.333333,5.33333 -2.945333,0 -5.333333,-2.388 -5.333333,-5.33333 0,-2.94533 2.388,-5.33333 5.333333,-5.33333 2.945333,0 5.333333,2.388 5.333333,5.33333"
     inkscape:connector-curvature="0" /><path
     id="path290"
     style="fill:#cccccc;fill-opacity:1;fill-rule:nonzero;stroke:none;stroke-width:1.33333325"
     d="m 85.333331,298.66666 c 0,2.94533 -2.388,5.33333 -5.333333,5.33333 -2.945333,0 -5.333333,-2.388 -5.333333,-5.33333 0,-2.94533 2.388,-5.33333 5.333333,-5.33333 2.945333,0 5.333333,2.388 5.333333,5.33333"
     inkscape:connector-curvature="0" /><path
     id="path294"
     style="fill:#cccccc;fill-opacity:1;fill-rule:nonzero;stroke:none;stroke-width:1.33333325"
     d="m 90.666664,317.33333 c 0,4.41733 -3.582667,8 -8,8 -4.417333,0 -8,-3.58267 -8,-8 0,-4.41733 3.582667,-8 8,-8 4.417333,0 8,3.58267 8,8"
     inkscape:connector-curvature="0" /><path
     id="path298"
     style="fill:#cccccc;fill-opacity:1;fill-rule:nonzero;stroke:none;stroke-width:1.33333325"
     d="m 101.33333,320 c 0,2.94533 -2.388,5.33333 -5.333333,5.33333 -2.945333,0 -5.333333,-2.388 -5.333333,-5.33333 0,-2.94533 2.388,-5.33333 5.333333,-5.33333 2.945333,0 5.333333,2.388 5.333333,5.33333"
     inkscape:connector-curvature="0" /><path
     id="path302"
     style="fill:#cccccc;fill-opacity:1;fill-rule:nonzero;stroke:none;stroke-width:1.33333325"
     d="m 112,320 c 0,2.94533 -2.388,5.33333 -5.33333,5.33333 -2.94534,0 -5.33334,-2.388 -5.33334,-5.33333 0,-2.94533 2.388,-5.33333 5.33334,-5.33333 2.94533,0 5.33333,2.388 5.33333,5.33333"
     inkscape:connector-curvature="0" /><path
     id="path306"
     style="fill:#cccccc;fill-opacity:1;fill-rule:nonzero;stroke:none;stroke-width:1.33333325"
     d="m 95.999998,290.66666 c 0,1.472 -1.194667,2.66667 -2.666667,2.66667 -1.472,0 -2.666666,-1.19467 -2.666666,-2.66667 0,-1.472 1.194666,-2.66667 2.666666,-2.66667 1.472,0 2.666667,1.19467 2.666667,2.66667"
     inkscape:connector-curvature="0" /><path
     id="path310"
     style="fill:#cccccc;fill-opacity:1;fill-rule:nonzero;stroke:none;stroke-width:1.33333325"
     d="m 95.999998,280 c 0,1.472 -1.194667,2.66667 -2.666667,2.66667 -1.472,0 -2.666666,-1.19467 -2.666666,-2.66667 0,-1.472 1.194666,-2.66667 2.666666,-2.66667 1.472,0 2.666667,1.19467 2.666667,2.66667"
     inkscape:connector-curvature="0" /><path
     id="path314"
     style="fill:#cccccc;fill-opacity:1;fill-rule:nonzero;stroke:none;stroke-width:1.33333325"
     d="m 106.66666,280 c 0,1.472 -1.19467,2.66667 -2.66667,2.66667 -1.472,0 -2.66666,-1.19467 -2.66666,-2.66667 0,-1.472 1.19466,-2.66667 2.66666,-2.66667 1.472,0 2.66667,1.19467 2.66667,2.66667"
     inkscape:connector-curvature="0" /><path
     id="path318"
     style="fill:#cccccc;fill-opacity:1;fill-rule:nonzero;stroke:none;stroke-width:1.33333325"
     d="m 106.66666,290.66666 c 0,1.472 -1.19467,2.66667 -2.66667,2.66667 -1.472,0 -2.66666,-1.19467 -2.66666,-2.66667 0,-1.472 1.19466,-2.66667 2.66666,-2.66667 1.472,0 2.66667,1.19467 2.66667,2.66667"
     inkscape:connector-curvature="0" /><path
     id="path322"
     style="fill:#cccccc;fill-opacity:1;fill-rule:nonzero;stroke:none;stroke-width:1.33333325"
     d="m 117.33333,290.66666 c 0,1.472 -1.19467,2.66667 -2.66667,2.66667 -1.472,0 -2.66666,-1.19467 -2.66666,-2.66667 0,-1.472 1.19466,-2.66667 2.66666,-2.66667 1.472,0 2.66667,1.19467 2.66667,2.66667"
     inkscape:connector-curvature="0" /><path
     id="path326"
     style="fill:#cccccc;fill-opacity:1;fill-rule:nonzero;stroke:none;stroke-width:1.33333325"
     d="m 128,290.66666 c 0,1.472 -1.19467,2.66667 -2.66667,2.66667 -1.472,0 -2.66666,-1.19467 -2.66666,-2.66667 0,-1.472 1.19466,-2.66667 2.66666,-2.66667 1.472,0 2.66667,1.19467 2.66667,2.66667"
     inkscape:connector-curvature="0" /><path
     id="path330"
     style="fill:#cccccc;fill-opacity:1;fill-rule:nonzero;stroke:none;stroke-width:1.33333325"
     d="m 247.99999,229.33333 v 0 c -1.472,0 -2.66667,-1.19467 -2.66667,-2.66667 v -5.33333 c 0,-1.472 1.19467,-2.66667 2.66667,-2.66667 1.472,0 2.66667,1.19467 2.66667,2.66667 v 5.33333 c 0,1.472 -1.19467,2.66667 -2.66667,2.66667"
     inkscape:connector-curvature="0" /><path
     id="path334"
     style="fill:#cccccc;fill-opacity:1;fill-rule:nonzero;stroke:none;stroke-width:1.33333325"
     d="m 247.99999,202.66667 v 0 c -1.472,0 -2.66667,-1.19467 -2.66667,-2.66667 v -5.33333 c 0,-1.472 1.19467,-2.66667 2.66667,-2.66667 1.472,0 2.66667,1.19467 2.66667,2.66667 V 200 c 0,1.472 -1.19467,2.66667 -2.66667,2.66667"
     inkscape:connector-curvature="0" /><path
     id="path338"
     style="fill:#cccccc;fill-opacity:1;fill-rule:nonzero;stroke:none;stroke-width:1.33333325"
     d="m 301.33333,202.66667 v 0 c -1.472,0 -2.66667,-1.19467 -2.66667,-2.66667 v -5.33333 c 0,-1.472 1.19467,-2.66667 2.66667,-2.66667 1.472,0 2.66667,1.19467 2.66667,2.66667 V 200 c 0,1.472 -1.19467,2.66667 -2.66667,2.66667"
     inkscape:connector-curvature="0" /><path
     id="path342"
     style="fill:#cccccc;fill-opacity:1;fill-rule:nonzero;stroke:none;stroke-width:1.33333325"
     d="m 247.99999,181.33333 v 0 c -1.472,0 -2.66667,-1.19467 -2.66667,-2.66667 v -5.33333 c 0,-1.472 1.19467,-2.66667 2.66667,-2.66667 1.472,0 2.66667,1.19467 2.66667,2.66667 v 5.33333 c 0,1.472 -1.19467,2.66667 -2.66667,2.66667"
     inkscape:connector-curvature="0" /><path
     inkscape:connector-curvature="0"
     d="M 69.333332,309.33333 H 31.999999 V 304 h 37.333333 z"
     style="fill:#595959;fill-opacity:1;fill-rule:nonzero;stroke:none;stroke-width:1.33333325"
     id="path344" /><path
     inkscape:connector-curvature="0"
     d="M 69.333332,298.66666 H 31.999999 v -5.33333 h 37.333333 z"
     style="fill:#595959;fill-opacity:1;fill-rule:nonzero;stroke:none;stroke-width:1.33333325"
     id="path346" /><path
     inkscape:connector-curvature="0"
     d="M 69.333332,288 H 31.999999 v -5.33334 h 37.333333 z"
     style="fill:#595959;fill-opacity:1;fill-rule:nonzero;stroke:none;stroke-width:1.33333325"
     id="path348" /><path
     inkscape:connector-curvature="0"
     d="M 69.333332,277.33333 H 31.999999 V 272 h 37.333333 z"
     style="fill:#595959;fill-opacity:1;fill-rule:nonzero;stroke:none;stroke-width:1.33333325"
     id="path350" /><path
     inkscape:connector-curvature="0"
     d="M 69.333332,266.66667 H 31.999999 v -5.33334 h 37.333333 z"
     style="fill:#595959;fill-opacity:1;fill-rule:nonzero;stroke:none;stroke-width:1.33333325"
     id="path352" /><path
     inkscape:connector-curvature="0"
     d="M 69.333332,309.33333 H 58.666665 v -48 h 10.666667 z"
     style="fill:#4c4c4c;fill-opacity:1;fill-rule:nonzero;stroke:none;stroke-width:1.33333325"
     id="path354" /><path
     inkscape:connector-curvature="0"
     d="m 186.66666,320 h -5.33333 v -32 h 5.33333 z"
     style="fill:#4c4c4c;fill-opacity:1;fill-rule:nonzero;stroke:none;stroke-width:1.33333325"
     id="path356" /><path
     inkscape:connector-curvature="0"
     d="M 197.33333,320 H 192 v -32 h 5.33333 z"
     style="fill:#4c4c4c;fill-opacity:1;fill-rule:nonzero;stroke:none;stroke-width:1.33333325"
     id="path358" /><path
     inkscape:connector-curvature="0"
     d="m 207.99999,320 h -5.33333 v -32 h 5.33333 z"
     style="fill:#4c4c4c;fill-opacity:1;fill-rule:nonzero;stroke:none;stroke-width:1.33333325"
     id="path360" /><path
     inkscape:connector-curvature="0"
     d="m 218.66666,320 h -5.33333 v -32 h 5.33333 z"
     style="fill:#4c4c4c;fill-opacity:1;fill-rule:nonzero;stroke:none;stroke-width:1.33333325"
     id="path362" /><path
     inkscape:connector-curvature="0"
     d="m 229.33333,320 h -5.33334 v -32 h 5.33334 z"
     style="fill:#4c4c4c;fill-opacity:1;fill-rule:nonzero;stroke:none;stroke-width:1.33333325"
     id="path364" /><path
     inkscape:connector-curvature="0"
     d="m 192,320 h -5.33334 V 288 H 192 Z"
     style="fill:#333333;fill-opacity:1;fill-rule:nonzero;stroke:none;stroke-width:1.33333325"
     id="path366" /><path
     inkscape:connector-curvature="0"
     d="m 202.66666,320 h -5.33333 v -32 h 5.33333 z"
     style="fill:#333333;fill-opacity:1;fill-rule:nonzero;stroke:none;stroke-width:1.33333325"
     id="path368" /><path
     inkscape:connector-curvature="0"
     d="m 213.33333,320 h -5.33334 v -32 h 5.33334 z"
     style="fill:#333333;fill-opacity:1;fill-rule:nonzero;stroke:none;stroke-width:1.33333325"
     id="path370" /><path
     inkscape:connector-curvature="0"
     d="m 223.99999,320 h -5.33333 v -32 h 5.33333 z"
     style="fill:#333333;fill-opacity:1;fill-rule:nonzero;stroke:none;stroke-width:1.33333325"
     id="path372" /><path
     inkscape:connector-curvature="0"
     d="m 234.66666,320 h -5.33333 v -32 h 5.33333 z"
     style="fill:#333333;fill-opacity:1;fill-rule:nonzero;stroke:none;stroke-width:1.33333325"
     id="path374" /><path
     inkscape:connector-curvature="0"
     d="m 239.99999,320 h -5.33333 v -32 h 5.33333 z"
     style="fill:#4c4c4c;fill-opacity:1;fill-rule:nonzero;stroke:none;stroke-width:1.33333325"
     id="path376" /><path
     id="path380"
     style="fill:#404040;fill-opacity:1;fill-rule:nonzero;stroke:none;stroke-width:1.33333325"
     d="m 319.99999,240 v -5.33333 h 5.33333 v -5.33334 h -5.33333 V 224 h 5.33333 v -5.33333 h -5.33333 v -5.33334 h 5.33333 V 208 h -5.33333 v -5.33333 h 5.33333 V 192 c 0,-8.836 -7.164,-16 -16,-16 H 31.999997 c -8.836,0 -15.999999,7.164 -15.999999,16 v 10.66667 h 5.333333 V 208 h -5.333333 v 5.33333 h 5.333333 v 5.33334 H 15.999998 V 224 h 5.333333 v 5.33333 h -5.333333 v 5.33334 h 5.333333 V 240 h -5.333333 v 85.33333 H 325.33332 V 240 Z"
     inkscape:connector-curvature="0" /><path
     inkscape:connector-curvature="0"
     d="M 293.33333,282.66666 H 47.999999 V 197.33333 H 293.33333 Z"
     style="fill:#ffffff;fill-opacity:1;fill-rule:nonzero;stroke:none;stroke-width:1.33333325"
     id="path382" /><path
     inkscape:connector-curvature="0"
     d="M 293.33333,304 H 47.999999 V 282.66666 H 293.33333 Z"
     style="fill:#354f9f;fill-opacity:1;fill-rule:nonzero;stroke:none;stroke-width:1.33333325"
     id="path384" /><path
     inkscape:connector-curvature="0"
     d="M 42.666666,208 H 21.333333 v -5.33333 h 21.333333 z"
     style="fill:#333333;fill-opacity:1;fill-rule:nonzero;stroke:none;stroke-width:1.33333325"
     id="path386" /><path
     inkscape:connector-curvature="0"
     d="M 42.666666,218.66667 H 21.333333 v -5.33334 h 21.333333 z"
     style="fill:#333333;fill-opacity:1;fill-rule:nonzero;stroke:none;stroke-width:1.33333325"
     id="path388" /><path
     inkscape:connector-curvature="0"
     d="M 42.666666,229.33333 H 21.333333 V 224 h 21.333333 z"
     style="fill:#333333;fill-opacity:1;fill-rule:nonzero;stroke:none;stroke-width:1.33333325"
     id="path390" /><path
     inkscape:connector-curvature="0"
     d="M 42.666666,240 H 21.333333 v -5.33333 h 21.333333 z"
     style="fill:#333333;fill-opacity:1;fill-rule:nonzero;stroke:none;stroke-width:1.33333325"
     id="path392" /><path
     inkscape:connector-curvature="0"
     d="m 319.99999,208 h -21.33333 v -5.33333 h 21.33333 z"
     style="fill:#333333;fill-opacity:1;fill-rule:nonzero;stroke:none;stroke-width:1.33333325"
     id="path394" /><path
     inkscape:connector-curvature="0"
     d="m 319.99999,218.66667 h -21.33333 v -5.33334 h 21.33333 z"
     style="fill:#333333;fill-opacity:1;fill-rule:nonzero;stroke:none;stroke-width:1.33333325"
     id="path396" /><path
     inkscape:connector-curvature="0"
     d="M 319.99999,229.33333 H 298.66666 V 224 h 21.33333 z"
     style="fill:#333333;fill-opacity:1;fill-rule:nonzero;stroke:none;stroke-width:1.33333325"
     id="path398" /><path
     inkscape:connector-curvature="0"
     d="m 319.99999,240 h -21.33333 v -5.33333 h 21.33333 z"
     style="fill:#333333;fill-opacity:1;fill-rule:nonzero;stroke:none;stroke-width:1.33333325"
     id="path400" /></svg>
