<?xml version="1.0" encoding="UTF-8" standalone="no"?>
<svg
   xmlns:dc="http://purl.org/dc/elements/1.1/"
   xmlns:cc="http://creativecommons.org/ns#"
   xmlns:rdf="http://www.w3.org/1999/02/22-rdf-syntax-ns#"
   xmlns:svg="http://www.w3.org/2000/svg"
   xmlns="http://www.w3.org/2000/svg"
   xmlns:sodipodi="http://sodipodi.sourceforge.net/DTD/sodipodi-0.dtd"
   xmlns:inkscape="http://www.inkscape.org/namespaces/inkscape"
   viewBox="0 0 341.33334 341.33334"
   height="256"
   width="256"
   xml:space="preserve"
   id="svg2"
   version="1.1"
   sodipodi:docname="Capcom - CP System II-content.svg"
   inkscape:version="0.92.2 (5c3e80d, 2017-08-06)"><sodipodi:namedview
     pagecolor="#ffffff"
     bordercolor="#666666"
     borderopacity="1"
     objecttolerance="10"
     gridtolerance="10"
     guidetolerance="10"
     inkscape:pageopacity="0"
     inkscape:pageshadow="2"
     inkscape:window-width="730"
     inkscape:window-height="480"
     id="namedview92"
     showgrid="false"
     inkscape:pagecheckerboard="true"
     inkscape:zoom="0.97779607"
     inkscape:cx="191.0937"
     inkscape:cy="167.38552"
     inkscape:window-x="0"
     inkscape:window-y="0"
     inkscape:window-maximized="0"
     inkscape:current-layer="svg2" /><metadata
     id="metadata8"><rdf:RDF><cc:Work
         rdf:about=""><dc:format>image/svg+xml</dc:format><dc:type
           rdf:resource="http://purl.org/dc/dcmitype/StillImage" /><dc:title></dc:title></cc:Work></rdf:RDF></metadata><defs
     id="defs6"><clipPath
       id="clipPath18"
       clipPathUnits="userSpaceOnUse"><path
         id="path16"
         d="M 0,256 H 256 V 0 H 0 Z" /></clipPath><clipPath
       id="clipPath26"
       clipPathUnits="userSpaceOnUse"><path
         id="path24"
         d="M 40,252 H 216 V 4 H 40 Z" /></clipPath></defs><g
     id="g36"
     transform="matrix(1.3333333,0,0,-1.3333333,271.87759,35.293604)"
     style="font-variant-east_asian:normal;opacity:1;vector-effect:none;fill:#2547af;fill-opacity:1;stroke:none;stroke-width:0.99999996;stroke-linecap:butt;stroke-linejoin:miter;stroke-miterlimit:4;stroke-dasharray:none;stroke-dashoffset:0;stroke-opacity:1"><path
       inkscape:connector-curvature="0"
       d="m 0,0 c -6.824,5.919 -28.829,14.47 -75.908,14.47 -47.079,0 -69.084,-8.551 -75.908,-14.47 -2.615,-2.268 -4.092,-5.569 -4.092,-9.031 V -205.53 c 0,-6.627 5.372,-12 12,-12 h 68 68 c 6.627,0 12,5.373 12,12 V -9.031 C 4.092,-5.569 2.615,-2.268 0,0"
       style="fill:#2547af;fill-opacity:1;fill-rule:nonzero;stroke:none;font-variant-east_asian:normal;vector-effect:none;stroke-width:0.99999996;stroke-linecap:butt;stroke-linejoin:miter;stroke-miterlimit:4;stroke-dasharray:none;stroke-dashoffset:0;stroke-opacity:1"
       id="path38" /></g><g
     id="g40"
     transform="matrix(1.3333333,0,0,-1.3333333,106.66666,32.000004)"><path
       inkscape:connector-curvature="0"
       d="m 0,0 c 0,-2.209 -1.791,-4 -4,-4 -2.209,0 -4,1.791 -4,4 0,2.209 1.791,4 4,4 2.209,0 4,-1.791 4,-4"
       style="fill:#0000b8;fill-opacity:1;fill-rule:nonzero;stroke:none"
       id="path42" /></g><g
     id="g44"
     transform="matrix(1.3333333,0,0,-1.3333333,104,32.000004)"><path
       inkscape:connector-curvature="0"
       d="m 0,0 c 0,-1.104 -0.896,-2 -2,-2 -1.104,0 -2,0.896 -2,2 0,1.104 0.896,2 2,2 1.104,0 2,-0.896 2,-2"
       style="fill:#00007b;fill-opacity:1;fill-rule:nonzero;stroke:none"
       id="path46" /></g><g
     id="g48"
     transform="matrix(1.3333333,0,0,-1.3333333,63.999998,261.33333)"><path
       inkscape:connector-curvature="0"
       d="m 0,0 v -36 c 0,-6.627 5.373,-12 12,-12 h 68 68 c 6.627,0 12,5.373 12,12 V 0 Z"
       style="fill:#00007b;fill-opacity:1;fill-rule:nonzero;stroke:none"
       id="path50" /></g><g
     id="g52"
     transform="matrix(1.3333333,0,0,-1.3333333,84.849598,27.130271)"
     style="font-variant-east_asian:normal;opacity:1;vector-effect:none;fill:#00007b;fill-opacity:1;stroke:none;stroke-width:0.99999996;stroke-linecap:butt;stroke-linejoin:miter;stroke-miterlimit:4;stroke-dasharray:none;stroke-dashoffset:0;stroke-opacity:1"><path
       inkscape:connector-curvature="0"
       d="m 0,0 c -5.615,-2.066 -9.362,-4.229 -11.545,-6.123 -2.615,-2.268 -4.092,-5.569 -4.092,-9.03 v -188.499 l 8,28 z"
       style="fill:#00007b;fill-opacity:1;fill-rule:nonzero;stroke:none;font-variant-east_asian:normal;vector-effect:none;stroke-width:0.99999996;stroke-linecap:butt;stroke-linejoin:miter;stroke-miterlimit:4;stroke-dasharray:none;stroke-dashoffset:0;stroke-opacity:1"
       id="path54" /></g><g
     id="g56"
     transform="matrix(1.3333333,0,0,-1.3333333,255.99999,27.130271)"
     style="font-variant-east_asian:normal;opacity:1;vector-effect:none;fill:#00007b;fill-opacity:1;stroke:none;stroke-width:0.99999996;stroke-linecap:butt;stroke-linejoin:miter;stroke-miterlimit:4;stroke-dasharray:none;stroke-dashoffset:0;stroke-opacity:1"><path
       inkscape:connector-curvature="0"
       d="m 0,0 c 5.615,-2.066 9.362,-4.229 11.546,-6.123 2.614,-2.268 4.091,-5.569 4.091,-9.03 v -188.499 l -8,28 z"
       style="fill:#00007b;fill-opacity:1;fill-rule:nonzero;stroke:none;font-variant-east_asian:normal;vector-effect:none;stroke-width:0.99999996;stroke-linecap:butt;stroke-linejoin:miter;stroke-miterlimit:4;stroke-dasharray:none;stroke-dashoffset:0;stroke-opacity:1"
       id="path58" /></g><g
     id="g60"
     transform="matrix(1.3333333,0,0,-1.3333333,99.712264,213.33333)"
     style="font-variant-east_asian:normal;opacity:1;vector-effect:none;fill:#00007b;fill-opacity:1;stroke:none;stroke-width:0.99999996;stroke-linecap:butt;stroke-linejoin:miter;stroke-miterlimit:4;stroke-dasharray:none;stroke-dashoffset:0;stroke-opacity:1"><path
       inkscape:connector-curvature="0"
       d="M 0,0 H -26.784 V -2 H -1.52 c 0.489,0.678 0.999,1.343 1.52,2"
       style="fill:#00007b;fill-opacity:1;fill-rule:nonzero;stroke:none;font-variant-east_asian:normal;vector-effect:none;stroke-width:0.99999996;stroke-linecap:butt;stroke-linejoin:miter;stroke-miterlimit:4;stroke-dasharray:none;stroke-dashoffset:0;stroke-opacity:1"
       id="path62" /></g><g
     id="g64"
     transform="matrix(1.3333333,0,0,-1.3333333,104.38613,208)"
     style="font-variant-east_asian:normal;opacity:1;vector-effect:none;fill:#00007b;fill-opacity:1;stroke:none;stroke-width:0.99999996;stroke-linecap:butt;stroke-linejoin:miter;stroke-miterlimit:4;stroke-dasharray:none;stroke-dashoffset:0;stroke-opacity:1"><path
       inkscape:connector-curvature="0"
       d="M 0,0 H -30.29 V -2 H -1.835 C -1.242,-1.32 -0.629,-0.654 0,0"
       style="fill:#00007b;fill-opacity:1;fill-rule:nonzero;stroke:none;font-variant-east_asian:normal;vector-effect:none;stroke-width:0.99999996;stroke-linecap:butt;stroke-linejoin:miter;stroke-miterlimit:4;stroke-dasharray:none;stroke-dashoffset:0;stroke-opacity:1"
       id="path66" /></g><g
     id="g68"
     transform="matrix(1.3333333,0,0,-1.3333333,117.05213,197.33333)"
     style="font-variant-east_asian:normal;opacity:1;vector-effect:none;fill:#00007b;fill-opacity:1;stroke:none;stroke-width:0.99999996;stroke-linecap:butt;stroke-linejoin:miter;stroke-miterlimit:4;stroke-dasharray:none;stroke-dashoffset:0;stroke-opacity:1"><path
       inkscape:connector-curvature="0"
       d="M 0,0 H -39.789 V -2 H -2.783 C -1.88,-1.31 -0.948,-0.646 0,0"
       style="fill:#00007b;fill-opacity:1;fill-rule:nonzero;stroke:none;font-variant-east_asian:normal;vector-effect:none;stroke-width:0.99999996;stroke-linecap:butt;stroke-linejoin:miter;stroke-miterlimit:4;stroke-dasharray:none;stroke-dashoffset:0;stroke-opacity:1"
       id="path70" /></g><g
     id="g72"
     transform="matrix(1.3333333,0,0,-1.3333333,110.05013,202.66667)"
     style="font-variant-east_asian:normal;opacity:1;vector-effect:none;fill:#00007b;fill-opacity:1;stroke:none;stroke-width:0.99999996;stroke-linecap:butt;stroke-linejoin:miter;stroke-miterlimit:4;stroke-dasharray:none;stroke-dashoffset:0;stroke-opacity:1"><path
       inkscape:connector-curvature="0"
       d="m 0,0 h -34.538 v -2 h 32.31 c 0.724,0.682 1.465,1.35 2.228,2"
       style="fill:#00007b;fill-opacity:1;fill-rule:nonzero;stroke:none;font-variant-east_asian:normal;vector-effect:none;stroke-width:0.99999996;stroke-linecap:butt;stroke-linejoin:miter;stroke-miterlimit:4;stroke-dasharray:none;stroke-dashoffset:0;stroke-opacity:1"
       id="path74" /></g><g
     id="g76"
     transform="matrix(1.3333333,0,0,-1.3333333,95.869198,218.66667)"
     style="font-variant-east_asian:normal;opacity:1;vector-effect:none;fill:#00007b;fill-opacity:1;stroke:none;stroke-width:0.99999996;stroke-linecap:butt;stroke-linejoin:miter;stroke-miterlimit:4;stroke-dasharray:none;stroke-dashoffset:0;stroke-opacity:1"><path
       inkscape:connector-curvature="0"
       d="M 0,0 H -23.902 V -2 H -1.233 C -0.836,-1.326 -0.429,-0.657 0,0"
       style="fill:#00007b;fill-opacity:1;fill-rule:nonzero;stroke:none;font-variant-east_asian:normal;vector-effect:none;stroke-width:0.99999996;stroke-linecap:butt;stroke-linejoin:miter;stroke-miterlimit:4;stroke-dasharray:none;stroke-dashoffset:0;stroke-opacity:1"
       id="path78" /></g><g
     id="g80"
     transform="matrix(1.3333333,0,0,-1.3333333,86.817731,240)"
     style="font-variant-east_asian:normal;opacity:1;vector-effect:none;fill:#00007b;fill-opacity:1;stroke:none;stroke-width:0.99999996;stroke-linecap:butt;stroke-linejoin:miter;stroke-miterlimit:4;stroke-dasharray:none;stroke-dashoffset:0;stroke-opacity:1"><path
       inkscape:connector-curvature="0"
       d="M 0,0 H -17.113 V -2 H -0.41 c 0.119,0.672 0.263,1.336 0.41,2"
       style="fill:#00007b;fill-opacity:1;fill-rule:nonzero;stroke:none;font-variant-east_asian:normal;vector-effect:none;stroke-width:0.99999996;stroke-linecap:butt;stroke-linejoin:miter;stroke-miterlimit:4;stroke-dasharray:none;stroke-dashoffset:0;stroke-opacity:1"
       id="path82" /></g><g
     id="g84"
     transform="matrix(1.3333333,0,0,-1.3333333,88.246131,234.66667)"
     style="font-variant-east_asian:normal;opacity:1;vector-effect:none;fill:#00007b;fill-opacity:1;stroke:none;stroke-width:0.99999996;stroke-linecap:butt;stroke-linejoin:miter;stroke-miterlimit:4;stroke-dasharray:none;stroke-dashoffset:0;stroke-opacity:1"><path
       inkscape:connector-curvature="0"
       d="M 0,0 H -18.185 V -2 H -0.579 C -0.398,-1.329 -0.21,-0.661 0,0"
       style="fill:#00007b;fill-opacity:1;fill-rule:nonzero;stroke:none;font-variant-east_asian:normal;vector-effect:none;stroke-width:0.99999996;stroke-linecap:butt;stroke-linejoin:miter;stroke-miterlimit:4;stroke-dasharray:none;stroke-dashoffset:0;stroke-opacity:1"
       id="path86" /></g><g
     id="g88"
     transform="matrix(1.3333333,0,0,-1.3333333,90.208398,229.33333)"
     style="font-variant-east_asian:normal;opacity:1;vector-effect:none;fill:#00007b;fill-opacity:1;stroke:none;stroke-width:0.99999996;stroke-linecap:butt;stroke-linejoin:miter;stroke-miterlimit:4;stroke-dasharray:none;stroke-dashoffset:0;stroke-opacity:1"><path
       inkscape:connector-curvature="0"
       d="m 0,0 h -19.656 v -2 h 18.858 c 0.247,0.674 0.52,1.338 0.798,2"
       style="fill:#00007b;fill-opacity:1;fill-rule:nonzero;stroke:none;font-variant-east_asian:normal;vector-effect:none;stroke-width:0.99999996;stroke-linecap:butt;stroke-linejoin:miter;stroke-miterlimit:4;stroke-dasharray:none;stroke-dashoffset:0;stroke-opacity:1"
       id="path90" /></g><g
     id="g92"
     transform="matrix(1.3333333,0,0,-1.3333333,92.739598,224)"
     style="font-variant-east_asian:normal;opacity:1;vector-effect:none;fill:#00007b;fill-opacity:1;stroke:none;stroke-width:0.99999996;stroke-linecap:butt;stroke-linejoin:miter;stroke-miterlimit:4;stroke-dasharray:none;stroke-dashoffset:0;stroke-opacity:1"><path
       inkscape:connector-curvature="0"
       d="M 0,0 H -21.555 V -2 H -1.001 C -0.683,-1.326 -0.349,-0.66 0,0"
       style="fill:#00007b;fill-opacity:1;fill-rule:nonzero;stroke:none;font-variant-east_asian:normal;vector-effect:none;stroke-width:0.99999996;stroke-linecap:butt;stroke-linejoin:miter;stroke-miterlimit:4;stroke-dasharray:none;stroke-dashoffset:0;stroke-opacity:1"
       id="path94" /></g><g
     id="g96"
     transform="matrix(1.3333333,0,0,-1.3333333,241.33986,213.33333)"
     style="font-variant-east_asian:normal;opacity:1;vector-effect:none;fill:#00007b;fill-opacity:1;stroke:none;stroke-width:0.99999996;stroke-linecap:butt;stroke-linejoin:miter;stroke-miterlimit:4;stroke-dasharray:none;stroke-dashoffset:0;stroke-opacity:1"><path
       inkscape:connector-curvature="0"
       d="M 0,0 H 26.784 V -2 H 1.52 C 1.031,-1.322 0.521,-0.657 0,0"
       style="fill:#00007b;fill-opacity:1;fill-rule:nonzero;stroke:none;font-variant-east_asian:normal;vector-effect:none;stroke-width:0.99999996;stroke-linecap:butt;stroke-linejoin:miter;stroke-miterlimit:4;stroke-dasharray:none;stroke-dashoffset:0;stroke-opacity:1"
       id="path98" /></g><g
     id="g100"
     transform="matrix(1.3333333,0,0,-1.3333333,236.66666,208)"
     style="font-variant-east_asian:normal;opacity:1;vector-effect:none;fill:#00007b;fill-opacity:1;stroke:none;stroke-width:0.99999996;stroke-linecap:butt;stroke-linejoin:miter;stroke-miterlimit:4;stroke-dasharray:none;stroke-dashoffset:0;stroke-opacity:1"><path
       inkscape:connector-curvature="0"
       d="M 0,0 H 30.289 V -2 H 1.835 C 1.242,-1.32 0.629,-0.654 0,0"
       style="fill:#00007b;fill-opacity:1;fill-rule:nonzero;stroke:none;font-variant-east_asian:normal;vector-effect:none;stroke-width:0.99999996;stroke-linecap:butt;stroke-linejoin:miter;stroke-miterlimit:4;stroke-dasharray:none;stroke-dashoffset:0;stroke-opacity:1"
       id="path102" /></g><g
     id="g104"
     transform="matrix(1.3333333,0,0,-1.3333333,223.99999,197.33333)"
     style="font-variant-east_asian:normal;opacity:1;vector-effect:none;fill:#00007b;fill-opacity:1;stroke:none;stroke-width:0.99999996;stroke-linecap:butt;stroke-linejoin:miter;stroke-miterlimit:4;stroke-dasharray:none;stroke-dashoffset:0;stroke-opacity:1"><path
       inkscape:connector-curvature="0"
       d="M 0,0 H 39.789 V -2 H 2.783 C 1.881,-1.31 0.948,-0.647 0,0"
       style="fill:#00007b;fill-opacity:1;fill-rule:nonzero;stroke:none;font-variant-east_asian:normal;vector-effect:none;stroke-width:0.99999996;stroke-linecap:butt;stroke-linejoin:miter;stroke-miterlimit:4;stroke-dasharray:none;stroke-dashoffset:0;stroke-opacity:1"
       id="path106" /></g><g
     id="g108"
     transform="matrix(1.3333333,0,0,-1.3333333,231.00266,202.66667)"
     style="font-variant-east_asian:normal;opacity:1;vector-effect:none;fill:#00007b;fill-opacity:1;stroke:none;stroke-width:0.99999996;stroke-linecap:butt;stroke-linejoin:miter;stroke-miterlimit:4;stroke-dasharray:none;stroke-dashoffset:0;stroke-opacity:1"><path
       inkscape:connector-curvature="0"
       d="M 0,0 H 34.537 V -2 H 2.228 C 1.504,-1.318 0.763,-0.65 0,0"
       style="fill:#00007b;fill-opacity:1;fill-rule:nonzero;stroke:none;font-variant-east_asian:normal;vector-effect:none;stroke-width:0.99999996;stroke-linecap:butt;stroke-linejoin:miter;stroke-miterlimit:4;stroke-dasharray:none;stroke-dashoffset:0;stroke-opacity:1"
       id="path110" /></g><g
     id="g112"
     transform="matrix(1.3333333,0,0,-1.3333333,245.18359,218.66667)"
     style="font-variant-east_asian:normal;opacity:1;vector-effect:none;fill:#00007b;fill-opacity:1;stroke:none;stroke-width:0.99999996;stroke-linecap:butt;stroke-linejoin:miter;stroke-miterlimit:4;stroke-dasharray:none;stroke-dashoffset:0;stroke-opacity:1"><path
       inkscape:connector-curvature="0"
       d="M 0,0 H 23.901 V -2 H 1.233 C 0.836,-1.326 0.429,-0.657 0,0"
       style="fill:#00007b;fill-opacity:1;fill-rule:nonzero;stroke:none;font-variant-east_asian:normal;vector-effect:none;stroke-width:0.99999996;stroke-linecap:butt;stroke-linejoin:miter;stroke-miterlimit:4;stroke-dasharray:none;stroke-dashoffset:0;stroke-opacity:1"
       id="path114" /></g><g
     id="g116"
     transform="matrix(1.3333333,0,0,-1.3333333,254.23439,240)"
     style="font-variant-east_asian:normal;opacity:1;vector-effect:none;fill:#00007b;fill-opacity:1;stroke:none;stroke-width:0.99999996;stroke-linecap:butt;stroke-linejoin:miter;stroke-miterlimit:4;stroke-dasharray:none;stroke-dashoffset:0;stroke-opacity:1"><path
       inkscape:connector-curvature="0"
       d="M 0,0 H 17.113 V -2 H 0.41 C 0.291,-1.328 0.147,-0.663 0,0"
       style="fill:#00007b;fill-opacity:1;fill-rule:nonzero;stroke:none;font-variant-east_asian:normal;vector-effect:none;stroke-width:0.99999996;stroke-linecap:butt;stroke-linejoin:miter;stroke-miterlimit:4;stroke-dasharray:none;stroke-dashoffset:0;stroke-opacity:1"
       id="path118" /></g><g
     id="g120"
     transform="matrix(1.3333333,0,0,-1.3333333,252.80599,234.66667)"
     style="font-variant-east_asian:normal;opacity:1;vector-effect:none;fill:#00007b;fill-opacity:1;stroke:none;stroke-width:0.99999996;stroke-linecap:butt;stroke-linejoin:miter;stroke-miterlimit:4;stroke-dasharray:none;stroke-dashoffset:0;stroke-opacity:1"><path
       inkscape:connector-curvature="0"
       d="M 0,0 H 18.185 V -2 H 0.579 C 0.398,-1.329 0.21,-0.661 0,0"
       style="fill:#00007b;fill-opacity:1;fill-rule:nonzero;stroke:none;font-variant-east_asian:normal;vector-effect:none;stroke-width:0.99999996;stroke-linecap:butt;stroke-linejoin:miter;stroke-miterlimit:4;stroke-dasharray:none;stroke-dashoffset:0;stroke-opacity:1"
       id="path122" /></g><g
     id="g124"
     transform="matrix(1.3333333,0,0,-1.3333333,250.84373,229.33333)"
     style="font-variant-east_asian:normal;opacity:1;vector-effect:none;fill:#00007b;fill-opacity:1;stroke:none;stroke-width:0.99999996;stroke-linecap:butt;stroke-linejoin:miter;stroke-miterlimit:4;stroke-dasharray:none;stroke-dashoffset:0;stroke-opacity:1"><path
       inkscape:connector-curvature="0"
       d="M 0,0 H 19.656 V -2 H 0.799 C 0.551,-1.326 0.278,-0.662 0,0"
       style="fill:#00007b;fill-opacity:1;fill-rule:nonzero;stroke:none;font-variant-east_asian:normal;vector-effect:none;stroke-width:0.99999996;stroke-linecap:butt;stroke-linejoin:miter;stroke-miterlimit:4;stroke-dasharray:none;stroke-dashoffset:0;stroke-opacity:1"
       id="path126" /></g><g
     id="g128"
     transform="matrix(1.3333333,0,0,-1.3333333,248.31253,224)"
     style="font-variant-east_asian:normal;opacity:1;vector-effect:none;fill:#00007b;fill-opacity:1;stroke:none;stroke-width:0.99999996;stroke-linecap:butt;stroke-linejoin:miter;stroke-miterlimit:4;stroke-dasharray:none;stroke-dashoffset:0;stroke-opacity:1"><path
       inkscape:connector-curvature="0"
       d="M 0,0 H 21.555 V -2 H 1.002 C 0.684,-1.326 0.35,-0.66 0,0"
       style="fill:#00007b;fill-opacity:1;fill-rule:nonzero;stroke:none;font-variant-east_asian:normal;vector-effect:none;stroke-width:0.99999996;stroke-linecap:butt;stroke-linejoin:miter;stroke-miterlimit:4;stroke-dasharray:none;stroke-dashoffset:0;stroke-opacity:1"
       id="path130" /></g><g
     id="g132"
     transform="matrix(1.3333333,0,0,-1.3333333,239.99999,165.33333)"><path
       inkscape:connector-curvature="0"
       d="m 0,0 h -32 c -2.209,0 -4,1.791 -4,4 v 16 c 0,2.209 1.791,4 4,4 H 0 c 2.209,0 4,-1.791 4,-4 V 4 C 4,1.791 2.209,0 0,0"
       style="fill:#ffffff;fill-opacity:1;fill-rule:nonzero;stroke:none"
       id="path134" /></g><g
     id="g136"
     transform="matrix(1.3333333,0,0,-1.3333333,170.66666,160)"><path
       inkscape:connector-curvature="0"
       d="m 0,0 h -56 c -2.209,0 -4,1.791 -4,4 v 72 c 0,2.209 1.791,4 4,4 H 0 c 2.209,0 4,-1.791 4,-4 V 4 C 4,1.791 2.209,0 0,0"
       style="fill:#ffffff;fill-opacity:1;fill-rule:nonzero;stroke:none"
       id="path138" /></g><path
     inkscape:connector-curvature="0"
     d="M 95.999998,41.333337 H 85.333331 v 1.333334 h 10.666667 z"
     style="fill:#333333;fill-opacity:1;fill-rule:nonzero;stroke:none;stroke-width:1.33333325"
     id="path140" /><path
     inkscape:connector-curvature="0"
     d="m 245.33333,42.666671 h 10.66666 v -1.333334 h -10.66666 z"
     style="fill:#333333;fill-opacity:1;fill-rule:nonzero;stroke:none;stroke-width:1.33333325"
     id="path142" /><g
     id="g144"
     transform="matrix(1.3333333,0,0,-1.3333333,76.686798,221.33333)"
     style="font-variant-east_asian:normal;opacity:1;vector-effect:none;fill:#00007b;fill-opacity:1;stroke:none;stroke-width:0.99999996;stroke-linecap:butt;stroke-linejoin:miter;stroke-miterlimit:4;stroke-dasharray:none;stroke-dashoffset:0;stroke-opacity:1"><path
       inkscape:connector-curvature="0"
       d="m 0,0 h 13.364 c 0.397,0.674 0.804,1.343 1.234,2 H 0.087 Z"
       style="fill:#00007b;fill-opacity:1;fill-rule:nonzero;stroke:none;font-variant-east_asian:normal;vector-effect:none;stroke-width:0.99999996;stroke-linecap:butt;stroke-linejoin:miter;stroke-miterlimit:4;stroke-dasharray:none;stroke-dashoffset:0;stroke-opacity:1"
       id="path146" /></g><g
     id="g148"
     transform="matrix(1.3333333,0,0,-1.3333333,77.730531,197.33333)"
     style="font-variant-east_asian:normal;opacity:1;vector-effect:none;fill:#00007b;fill-opacity:1;stroke:none;stroke-width:0.99999996;stroke-linecap:butt;stroke-linejoin:miter;stroke-miterlimit:4;stroke-dasharray:none;stroke-dashoffset:0;stroke-opacity:1"><path
       inkscape:connector-curvature="0"
       d="m 0,0 -0.087,-2 h 27.006 c 0.902,0.69 1.835,1.354 2.783,2 z"
       style="fill:#00007b;fill-opacity:1;fill-rule:nonzero;stroke:none;font-variant-east_asian:normal;vector-effect:none;stroke-width:0.99999996;stroke-linecap:butt;stroke-linejoin:miter;stroke-miterlimit:4;stroke-dasharray:none;stroke-dashoffset:0;stroke-opacity:1"
       id="path150" /></g><g
     id="g152"
     transform="matrix(1.3333333,0,0,-1.3333333,77.382798,205.33333)"
     style="font-variant-east_asian:normal;opacity:1;vector-effect:none;fill:#00007b;fill-opacity:1;stroke:none;stroke-width:0.99999996;stroke-linecap:butt;stroke-linejoin:miter;stroke-miterlimit:4;stroke-dasharray:none;stroke-dashoffset:0;stroke-opacity:1"><path
       inkscape:connector-curvature="0"
       d="m 0,0 h 22.483 c 0.724,0.682 1.465,1.35 2.228,2 H 0.087 Z"
       style="fill:#00007b;fill-opacity:1;fill-rule:nonzero;stroke:none;font-variant-east_asian:normal;vector-effect:none;stroke-width:0.99999996;stroke-linecap:butt;stroke-linejoin:miter;stroke-miterlimit:4;stroke-dasharray:none;stroke-dashoffset:0;stroke-opacity:1"
       id="path154" /></g><g
     id="g156"
     transform="matrix(1.3333333,0,0,-1.3333333,77.150398,210.66667)"
     style="font-variant-east_asian:normal;opacity:1;vector-effect:none;fill:#00007b;fill-opacity:1;stroke:none;stroke-width:0.99999996;stroke-linecap:butt;stroke-linejoin:miter;stroke-miterlimit:4;stroke-dasharray:none;stroke-dashoffset:0;stroke-opacity:1"><path
       inkscape:connector-curvature="0"
       d="m 0,0 h 18.802 c 0.594,0.68 1.206,1.346 1.835,2 H 0.087 Z"
       style="fill:#00007b;fill-opacity:1;fill-rule:nonzero;stroke:none;font-variant-east_asian:normal;vector-effect:none;stroke-width:0.99999996;stroke-linecap:butt;stroke-linejoin:miter;stroke-miterlimit:4;stroke-dasharray:none;stroke-dashoffset:0;stroke-opacity:1"
       id="path158" /></g><g
     id="g160"
     transform="matrix(1.3333333,0,0,-1.3333333,76.918665,216)"
     style="font-variant-east_asian:normal;opacity:1;vector-effect:none;fill:#00007b;fill-opacity:1;stroke:none;stroke-width:0.99999996;stroke-linecap:butt;stroke-linejoin:miter;stroke-miterlimit:4;stroke-dasharray:none;stroke-dashoffset:0;stroke-opacity:1"><path
       inkscape:connector-curvature="0"
       d="m 0,0 h 15.787 c 0.487,0.678 0.998,1.343 1.519,2 H 0.087 Z"
       style="fill:#00007b;fill-opacity:1;fill-rule:nonzero;stroke:none;font-variant-east_asian:normal;vector-effect:none;stroke-width:0.99999996;stroke-linecap:butt;stroke-linejoin:miter;stroke-miterlimit:4;stroke-dasharray:none;stroke-dashoffset:0;stroke-opacity:1"
       id="path162" /></g><g
     id="g164"
     transform="matrix(1.3333333,0,0,-1.3333333,264.64719,221.33333)"
     style="font-variant-east_asian:normal;opacity:1;vector-effect:none;fill:#00007b;fill-opacity:1;stroke:none;stroke-width:0.99999996;stroke-linecap:butt;stroke-linejoin:miter;stroke-miterlimit:4;stroke-dasharray:none;stroke-dashoffset:0;stroke-opacity:1"><path
       inkscape:connector-curvature="0"
       d="m 0,0 h -13.364 c -0.398,0.674 -0.805,1.343 -1.234,2 h 14.511 z"
       style="fill:#00007b;fill-opacity:1;fill-rule:nonzero;stroke:none;font-variant-east_asian:normal;vector-effect:none;stroke-width:0.99999996;stroke-linecap:butt;stroke-linejoin:miter;stroke-miterlimit:4;stroke-dasharray:none;stroke-dashoffset:0;stroke-opacity:1"
       id="path166" /></g><g
     id="g168"
     transform="matrix(1.3333333,0,0,-1.3333333,263.60279,197.33333)"
     style="font-variant-east_asian:normal;opacity:1;vector-effect:none;fill:#00007b;fill-opacity:1;stroke:none;stroke-width:0.99999996;stroke-linecap:butt;stroke-linejoin:miter;stroke-miterlimit:4;stroke-dasharray:none;stroke-dashoffset:0;stroke-opacity:1"><path
       inkscape:connector-curvature="0"
       d="m 0,0 0.087,-2 h -27.006 c -0.902,0.69 -1.835,1.353 -2.783,2 z"
       style="fill:#00007b;fill-opacity:1;fill-rule:nonzero;stroke:none;font-variant-east_asian:normal;vector-effect:none;stroke-width:0.99999996;stroke-linecap:butt;stroke-linejoin:miter;stroke-miterlimit:4;stroke-dasharray:none;stroke-dashoffset:0;stroke-opacity:1"
       id="path170" /></g><g
     id="g172"
     transform="matrix(1.3333333,0,0,-1.3333333,263.95053,205.33333)"
     style="font-variant-east_asian:normal;opacity:1;vector-effect:none;fill:#00007b;fill-opacity:1;stroke:none;stroke-width:0.99999996;stroke-linecap:butt;stroke-linejoin:miter;stroke-miterlimit:4;stroke-dasharray:none;stroke-dashoffset:0;stroke-opacity:1"><path
       inkscape:connector-curvature="0"
       d="m 0,0 h -22.483 c -0.724,0.682 -1.465,1.35 -2.228,2 h 24.624 z"
       style="fill:#00007b;fill-opacity:1;fill-rule:nonzero;stroke:none;font-variant-east_asian:normal;vector-effect:none;stroke-width:0.99999996;stroke-linecap:butt;stroke-linejoin:miter;stroke-miterlimit:4;stroke-dasharray:none;stroke-dashoffset:0;stroke-opacity:1"
       id="path174" /></g><g
     id="g176"
     transform="matrix(1.3333333,0,0,-1.3333333,264.18226,210.66667)"
     style="font-variant-east_asian:normal;opacity:1;vector-effect:none;fill:#00007b;fill-opacity:1;stroke:none;stroke-width:0.99999996;stroke-linecap:butt;stroke-linejoin:miter;stroke-miterlimit:4;stroke-dasharray:none;stroke-dashoffset:0;stroke-opacity:1"><path
       inkscape:connector-curvature="0"
       d="m 0,0 h -18.802 c -0.593,0.68 -1.206,1.346 -1.835,2 h 20.55 z"
       style="fill:#00007b;fill-opacity:1;fill-rule:nonzero;stroke:none;font-variant-east_asian:normal;vector-effect:none;stroke-width:0.99999996;stroke-linecap:butt;stroke-linejoin:miter;stroke-miterlimit:4;stroke-dasharray:none;stroke-dashoffset:0;stroke-opacity:1"
       id="path178" /></g><g
     id="g180"
     transform="matrix(1.3333333,0,0,-1.3333333,264.41399,216)"
     style="font-variant-east_asian:normal;opacity:1;vector-effect:none;fill:#00007b;fill-opacity:1;stroke:none;stroke-width:0.99999996;stroke-linecap:butt;stroke-linejoin:miter;stroke-miterlimit:4;stroke-dasharray:none;stroke-dashoffset:0;stroke-opacity:1"><path
       inkscape:connector-curvature="0"
       d="m 0,0 h -15.786 c -0.488,0.678 -0.998,1.343 -1.52,2 h 17.219 z"
       style="fill:#00007b;fill-opacity:1;fill-rule:nonzero;stroke:none;font-variant-east_asian:normal;vector-effect:none;stroke-width:0.99999996;stroke-linecap:butt;stroke-linejoin:miter;stroke-miterlimit:4;stroke-dasharray:none;stroke-dashoffset:0;stroke-opacity:1"
       id="path182" /></g></svg>
