<?xml version="1.0" encoding="UTF-8" standalone="no"?>
<svg
   xmlns:dc="http://purl.org/dc/elements/1.1/"
   xmlns:cc="http://creativecommons.org/ns#"
   xmlns:rdf="http://www.w3.org/1999/02/22-rdf-syntax-ns#"
   xmlns:svg="http://www.w3.org/2000/svg"
   xmlns="http://www.w3.org/2000/svg"
   xmlns:sodipodi="http://sodipodi.sourceforge.net/DTD/sodipodi-0.dtd"
   xmlns:inkscape="http://www.inkscape.org/namespaces/inkscape"
   viewBox="0 0 341.33334 341.33334"
   height="341.33334"
   width="341.33334"
   xml:space="preserve"
   id="svg2"
   version="1.1"
   sodipodi:docname="Casio - Loopy-content.svg"
   inkscape:version="0.92.2 (5c3e80d, 2017-08-06)"><sodipodi:namedview
     pagecolor="#ffffff"
     bordercolor="#666666"
     borderopacity="1"
     objecttolerance="10"
     gridtolerance="10"
     guidetolerance="10"
     inkscape:pageopacity="0"
     inkscape:pageshadow="2"
     inkscape:window-width="730"
     inkscape:window-height="480"
     id="namedview30"
     showgrid="false"
     inkscape:pagecheckerboard="true"
     inkscape:zoom="0.69140623"
     inkscape:cx="170.66667"
     inkscape:cy="170.66667"
     inkscape:window-x="0"
     inkscape:window-y="0"
     inkscape:window-maximized="0"
     inkscape:current-layer="svg2" /><metadata
     id="metadata8"><rdf:RDF><cc:Work
         rdf:about=""><dc:format>image/svg+xml</dc:format><dc:type
           rdf:resource="http://purl.org/dc/dcmitype/StillImage" /><dc:title></dc:title></cc:Work></rdf:RDF></metadata><defs
     id="defs6"><clipPath
       id="clipPath18"
       clipPathUnits="userSpaceOnUse"><path
         id="path16"
         d="M 0,256 H 256 V 0 H 0 Z" /></clipPath><clipPath
       id="clipPath26"
       clipPathUnits="userSpaceOnUse"><path
         id="path24"
         d="M 8,228 H 248 V 24 H 8 Z" /></clipPath></defs><g
     id="g36"
     transform="matrix(1.3333333,0,0,-1.3333333,319.99999,69.333337)"><path
       inkscape:connector-curvature="0"
       d="m 0,0 c 0,0 0,8 -24,12 -24,4 -84,4 -84,4 h -4 -4 c 0,0 -60,0 -84,-4 -24,-4 -24,-12 -24,-12 v -156 h 16 v -16 h 192 v 16 H 0 Z"
       style="fill:#999999;fill-opacity:1;fill-rule:nonzero;stroke:none"
       id="path38" /></g><g
     id="g40"
     transform="matrix(1.3333333,0,0,-1.3333333,117.33333,229.33333)"><path
       inkscape:connector-curvature="0"
       d="m 0,0 h -28 c -2.209,0 -4,1.791 -4,4 0,2.209 1.791,4 4,4 H 0 C 2.209,8 4,6.209 4,4 4,1.791 2.209,0 0,0"
       style="fill:#8c8c8c;fill-opacity:1;fill-rule:nonzero;stroke:none"
       id="path42" /></g><g
     id="g44"
     transform="matrix(1.3333333,0,0,-1.3333333,266.66666,229.33333)"><path
       inkscape:connector-curvature="0"
       d="m 0,0 h -28 c -2.209,0 -4,1.791 -4,4 0,2.209 1.791,4 4,4 H 0 C 2.209,8 4,6.209 4,4 4,1.791 2.209,0 0,0"
       style="fill:#8c8c8c;fill-opacity:1;fill-rule:nonzero;stroke:none"
       id="path46" /></g><g
     id="g48"
     transform="matrix(1.3333333,0,0,-1.3333333,146.1576,213.33333)"><path
       inkscape:connector-curvature="0"
       d="M 0,0 H 4.764 C 5.507,0 5.991,-0.782 5.658,-1.447 L 3.276,-6.211 c -0.368,-0.737 -1.42,-0.737 -1.789,0 l -2.382,4.764 C -1.227,-0.782 -0.744,0 0,0"
       style="fill:#a6a6a6;fill-opacity:1;fill-rule:nonzero;stroke:none"
       id="path50" /></g><g
     id="g52"
     transform="matrix(1.3333333,0,0,-1.3333333,198.668,213.33333)"><path
       inkscape:connector-curvature="0"
       d="M 0,0 H 4.765 C 5.508,0 5.991,-0.782 5.658,-1.447 L 3.276,-6.211 c -0.368,-0.737 -1.42,-0.737 -1.788,0 l -2.383,4.764 C -1.227,-0.782 -0.743,0 0,0"
       style="fill:#a6a6a6;fill-opacity:1;fill-rule:nonzero;stroke:none"
       id="path54" /></g><g
     id="g56"
     transform="matrix(1.3333333,0,0,-1.3333333,176,69.333337)"><path
       inkscape:connector-curvature="0"
       d="M 0,0 H -4 -8 C -47.422,0 -81.448,-2.698 -92.35,-3.663 -94.416,-3.845 -96,-5.574 -96,-7.647 v -64.771 c 0,-2.049 1.546,-3.768 3.584,-3.978 C -82.622,-77.406 -53.091,-80 -8,-80 c 1.349,0 2.675,0.009 4,0.018 1.325,-0.009 2.651,-0.018 4,-0.018 45.091,0 74.622,2.594 84.416,3.604 2.038,0.21 3.584,1.929 3.584,3.978 v 64.771 c 0,2.073 -1.584,3.802 -3.649,3.984 C 73.448,-2.698 39.422,0 0,0"
       style="fill:#ffffff;fill-opacity:1;fill-rule:nonzero;stroke:none"
       id="path58" /></g></svg>