<?xml version="1.0" encoding="UTF-8" standalone="no"?>
<svg
   xmlns:dc="http://purl.org/dc/elements/1.1/"
   xmlns:cc="http://creativecommons.org/ns#"
   xmlns:rdf="http://www.w3.org/1999/02/22-rdf-syntax-ns#"
   xmlns:svg="http://www.w3.org/2000/svg"
   xmlns="http://www.w3.org/2000/svg"
   xmlns:sodipodi="http://sodipodi.sourceforge.net/DTD/sodipodi-0.dtd"
   xmlns:inkscape="http://www.inkscape.org/namespaces/inkscape"
   viewBox="0 0 341.33334 341.33334"
   height="341.33334"
   width="341.33334"
   xml:space="preserve"
   id="svg2"
   version="1.1"
   sodipodi:docname="CHIP-8-content.svg"
   inkscape:version="0.92.2 (5c3e80d, 2017-08-06)"><sodipodi:namedview
     pagecolor="#ffffff"
     bordercolor="#666666"
     borderopacity="1"
     objecttolerance="10"
     gridtolerance="10"
     guidetolerance="10"
     inkscape:pageopacity="0"
     inkscape:pageshadow="2"
     inkscape:window-width="1024"
     inkscape:window-height="705"
     id="namedview50"
     showgrid="false"
     inkscape:pagecheckerboard="true"
     inkscape:zoom="0.34570311"
     inkscape:cx="423.8136"
     inkscape:cy="-73.628304"
     inkscape:window-x="-8"
     inkscape:window-y="-8"
     inkscape:window-maximized="1"
     inkscape:current-layer="svg2" /><metadata
     id="metadata8"><rdf:RDF><cc:Work
         rdf:about=""><dc:format>image/svg+xml</dc:format><dc:type
           rdf:resource="http://purl.org/dc/dcmitype/StillImage" /><dc:title /></cc:Work></rdf:RDF></metadata><defs
     id="defs6"><clipPath
       id="clipPath18"
       clipPathUnits="userSpaceOnUse"><path
         id="path16"
         d="M 0,256 H 256 V 0 H 0 Z" /></clipPath><clipPath
       id="clipPath26"
       clipPathUnits="userSpaceOnUse"><path
         id="path24"
         d="M 4,208 H 252 V 48 H 4 Z" /></clipPath></defs><path
     inkscape:connector-curvature="0"
     style="fill:#333333;fill-opacity:1;fill-rule:nonzero;stroke:none;stroke-width:1.33333325"
     d="m 27.45671,74.666672 c -6.323995,0 -11.457027,5.06025 -11.457027,11.29492 V 255.37174 c 0,6.23467 5.133032,11.29493 11.457027,11.29493 h 34.36915 217.67968 34.37109 c 6.324,0 11.45703,-5.06026 11.45703,-11.29493 V 85.961592 c 0,-6.23467 -5.13303,-11.29492 -11.45703,-11.29492 z m 81.87695,58.667958 c 10.304,0 18.66602,8.35536 18.66602,18.66602 0,10.31067 -8.36202,18.66602 -18.66602,18.66602 -10.30398,0 -18.66796,-8.35535 -18.66796,-18.66602 0,-10.31066 8.36398,-18.66602 18.66796,-18.66602 z m 122.66602,0 c 10.304,0 18.66602,8.35536 18.66602,18.66602 0,10.30934 -8.36202,18.66602 -18.66602,18.66602 -10.304,0 -18.66602,-8.35668 -18.66602,-18.66602 0,-10.31066 8.36202,-18.66602 18.66602,-18.66602 z m -92.44336,5.33204 h 62.2207 c 3.44134,0 6.22266,2.38464 6.22266,5.33398 v 21.33398 c 0,2.94933 -2.78132,5.33204 -6.22266,5.33204 h -62.2207 c -3.44133,0 -6.22266,-2.38271 -6.22266,-5.33204 v -21.33398 c 0,-2.94934 2.78133,-5.33398 6.22266,-5.33398 z m -18.93555,106.88671 h 4.0918 c 1.69974,0 3.06641,1.36862 3.06641,3.06836 v 4.0918 c 0,1.69974 -1.36667,3.06641 -3.06641,3.06641 h -4.0918 c -1.69974,0 -3.06836,-1.36667 -3.06836,-3.06641 v -4.0918 c 0,-1.69974 1.36862,-3.06836 3.06836,-3.06836 z m 96,0 h 4.0918 c 1.69974,0 3.06641,1.36862 3.06641,3.06836 v 4.0918 c 0,1.69974 -1.36667,3.06641 -3.06641,3.06641 h -4.0918 c -1.69974,0 -3.06836,-1.36667 -3.06836,-3.06641 v -4.0918 c 0,-1.69974 1.36862,-3.06836 3.06836,-3.06836 z m -120.62109,5.11329 c 2.94934,0 5.33398,2.38464 5.33398,5.33398 0,2.94933 -2.38464,5.33398 -5.33398,5.33398 -2.94933,0 -5.33398,-2.38465 -5.33398,-5.33398 0,-2.94934 2.38465,-5.33398 5.33398,-5.33398 z m 149.33398,0 c 2.94933,0 5.33204,2.38464 5.33204,5.33398 0,2.94933 -2.38271,5.33398 -5.33204,5.33398 -2.94933,0 -5.33398,-2.38465 -5.33398,-5.33398 0,-2.94934 2.38465,-5.33398 5.33398,-5.33398 z"
     id="path38-5" /><path
     inkscape:connector-curvature="0"
     style="fill:#4d4d4d;fill-opacity:1;fill-rule:nonzero;stroke:none;stroke-width:1.33333325"
     d="m 80.593928,234.66602 c -5.63067,0 -5.63086,5.33398 -5.63086,5.33398 l -5.62891,26.66602 H 272.00018 L 266.37127,240 c 0,0 1.9e-4,-5.33398 -5.64648,-5.33398 z m 40.027342,10.88671 h 4.0918 c 1.69974,0 3.06641,1.36862 3.06641,3.06836 v 4.0918 c 0,1.69974 -1.36667,3.06641 -3.06641,3.06641 h -4.0918 c -1.69974,0 -3.06836,-1.36667 -3.06836,-3.06641 v -4.0918 c 0,-1.69974 1.36862,-3.06836 3.06836,-3.06836 z m 96,0 h 4.0918 c 1.69974,0 3.06641,1.36862 3.06641,3.06836 v 4.0918 c 0,1.69974 -1.36667,3.06641 -3.06641,3.06641 h -4.0918 c -1.69974,0 -3.06836,-1.36667 -3.06836,-3.06641 v -4.0918 c 0,-1.69974 1.36862,-3.06836 3.06836,-3.06836 z m -120.621092,5.11329 c 2.94933,0 5.333982,2.38464 5.333982,5.33398 0,2.94933 -2.384652,5.33398 -5.333982,5.33398 -2.94934,0 -5.33399,-2.38465 -5.33399,-5.33398 0,-2.94934 2.38465,-5.33398 5.33399,-5.33398 z m 149.333982,0 c 2.94933,0 5.33204,2.38464 5.33204,5.33398 0,2.94933 -2.38271,5.33398 -5.33204,5.33398 -2.94933,0 -5.33398,-2.38465 -5.33398,-5.33398 0,-2.94934 2.38465,-5.33398 5.33398,-5.33398 z"
     id="path46-0" /><path
     style="fill:#d9d9d9;fill-opacity:1;fill-rule:nonzero;stroke:none;stroke-width:1.33333325"
     d="M 43.556641 90.666016 C 37.177974 90.666016 32 95.923053 32 102.40039 L 32 196.26758 C 32 202.74491 37.177974 208 43.556641 208 L 297.77734 208 C 304.15601 208 309.33398 202.74491 309.33398 196.26758 L 309.33398 102.40039 C 309.33398 95.923053 304.15601 90.666016 297.77734 90.666016 L 43.556641 90.666016 z M 109.33398 133.33398 C 119.63798 133.33398 128 141.69067 128 152 C 128 162.30934 119.63798 170.66602 109.33398 170.66602 C 99.029981 170.66602 90.666016 162.30934 90.666016 152 C 90.666016 141.69067 99.029981 133.33398 109.33398 133.33398 z M 139.55664 133.33398 L 201.77734 133.33398 C 205.21868 133.33398 208 135.71668 208 138.66602 L 208 160 C 208 162.94933 205.21868 165.33398 201.77734 165.33398 L 139.55664 165.33398 C 136.1153 165.33398 133.33398 162.94933 133.33398 160 L 133.33398 138.66602 C 133.33398 135.71668 136.1153 133.33398 139.55664 133.33398 z M 232 133.33398 C 242.30533 133.33398 250.66602 141.68934 250.66602 152 C 250.66602 162.31067 242.30533 170.66602 232 170.66602 C 221.696 170.66602 213.33398 162.31067 213.33398 152 C 213.33398 141.68934 221.696 133.33398 232 133.33398 z "
     id="path42" /><path
     style="opacity:1;vector-effect:none;fill:#333333;fill-opacity:1;stroke:#333333;stroke-width:1.65482724;stroke-linecap:round;stroke-linejoin:round;stroke-miterlimit:4;stroke-dasharray:none;stroke-dashoffset:0;stroke-opacity:1"
     d="M 102.72266 128.10352 C 93.659085 129.74879 84.942988 140.12228 84.939453 149.33398 C 84.946953 158.54255 93.662163 168.91778 102.72266 170.5625 L 238.36328 170.5625 C 247.39879 169.60741 256.38423 158.41982 256.39453 149.33398 C 256.39153 140.24258 247.40432 129.0592 238.36328 128.10352 L 102.72266 128.10352 z M 109.33398 131.39648 A 17.935902 17.935902 0 0 1 127.27148 149.33398 A 17.935902 17.935902 0 0 1 109.33398 167.26953 A 17.935902 17.935902 0 0 1 91.398438 149.33398 A 17.935902 17.935902 0 0 1 109.33398 131.39648 z M 232 132.60938 A 16.724897 16.724897 0 0 1 248.72461 149.33398 A 16.724897 16.724897 0 0 1 232 166.05859 A 16.724897 16.724897 0 0 1 215.27539 149.33398 A 16.724897 16.724897 0 0 1 232 132.60938 z M 139.55664 133.33398 L 201.77734 133.33398 C 205.21868 133.33398 208 135.71668 208 138.66602 L 208 160 C 208 162.94933 205.21868 165.33398 201.77734 165.33398 L 139.55664 165.33398 C 136.1153 165.33398 133.33398 162.94933 133.33398 160 L 133.33398 138.66602 C 133.33398 135.71668 136.1153 133.33398 139.55664 133.33398 z "
     id="rect1145" /><g
     id="g68"
     transform="matrix(1.3333333,0,0,-1.3333333,24.046266,261.33333)"><path
       inkscape:connector-curvature="0"
       d="M 0,0 C -1.104,-0.019 -2.015,0.861 -2.034,1.965 -2.054,3.069 -1.173,3.98 -0.069,4 1.034,4.019 1.946,3.139 1.965,2.035 1.984,0.931 1.104,0.02 0,0"
       style="fill:#191919;fill-opacity:1;fill-rule:nonzero;stroke:none"
       id="path70" /></g><g
     id="g72"
     transform="matrix(1.3333333,0,0,-1.3333333,23.999999,85.333336)"><path
       inkscape:connector-curvature="0"
       d="M 0,0 C -1.104,0 -2,0.896 -2,2 -2,3.104 -1.104,4 0,4 1.104,4 2,3.104 2,2 2,0.896 1.104,0 0,0"
       style="fill:#191919;fill-opacity:1;fill-rule:nonzero;stroke:none"
       id="path74" /></g><g
     id="g76"
     transform="matrix(1.3333333,0,0,-1.3333333,317.33333,261.33333)"><path
       inkscape:connector-curvature="0"
       d="M 0,0 C -1.104,0 -2,0.896 -2,2 -2,3.104 -1.104,4 0,4 1.104,4 2,3.104 2,2 2,0.896 1.104,0 0,0"
       style="fill:#191919;fill-opacity:1;fill-rule:nonzero;stroke:none"
       id="path78" /></g><g
     id="g80"
     transform="matrix(1.3333333,0,0,-1.3333333,317.33333,85.333336)"><path
       inkscape:connector-curvature="0"
       d="M 0,0 C -1.104,0 -2,0.896 -2,2 -2,3.104 -1.104,4 0,4 1.104,4 2,3.104 2,2 2,0.896 1.104,0 0,0"
       style="fill:#191919;fill-opacity:1;fill-rule:nonzero;stroke:none"
       id="path82" /></g><circle
     r="16.724897"
     cy="149.33334"
     cx="231.99998"
     id="circle1089"
     style="fill:none;fill-opacity:1;stroke:#550000;stroke-width:0.68300003;stroke-linecap:round;stroke-miterlimit:4;stroke-dasharray:none;stroke-opacity:1" /><path
     id="path102"
     style="fill:#0d0d0d;fill-opacity:1;fill-rule:nonzero;stroke:none;stroke-width:1.33333325"
     d="M 133.33333,138.66667 V 160 c 0,2.94934 3.31467,5.33334 7.41467,5.33334 h 3.64933 c 3.136,-4.872 4.936,-10.27867 4.936,-16 0,-5.72134 -1.8,-11.128 -4.936,-16 H 140.748 c -4.1,0 -7.41467,2.384 -7.41467,5.33333"
     inkscape:connector-curvature="0" /><rect
     style="fill:#f9f9f9;fill-opacity:1;stroke:#f9f9f9;stroke-width:1;stroke-miterlimit:4;stroke-dasharray:none;stroke-opacity:1"
     id="rect3609"
     width="4.8096719"
     height="2.9725404"
     x="95.599869"
     y="148.37979"
     ry="0" /><rect
     ry="0"
     y="148.37979"
     x="117.81067"
     height="2.9725404"
     width="4.8096719"
     id="rect3611"
     style="fill:#f9f9f9;fill-opacity:1;stroke:#f9f9f9;stroke-width:1;stroke-miterlimit:4;stroke-dasharray:none;stroke-opacity:1" /><rect
     ry="0"
     y="14.445203"
     x="170.37006"
     height="2.9725406"
     width="4.8096719"
     id="rect3613"
     style="fill:#f9f9f9;fill-opacity:1;stroke:#f9f9f9;stroke-width:1;stroke-miterlimit:4;stroke-dasharray:none;stroke-opacity:1"
     transform="rotate(48.548166)" /><rect
     style="fill:#f9f9f9;fill-opacity:1;stroke:#f9f9f9;stroke-width:1;stroke-miterlimit:4;stroke-dasharray:none;stroke-opacity:1"
     id="rect3615"
     width="4.8096719"
     height="2.9725406"
     x="193.93289"
     y="17.443251"
     ry="0"
     transform="rotate(48.548166)" /><rect
     transform="rotate(-53.045221)"
     style="fill:#f9f9f9;fill-opacity:1;stroke:#f9f9f9;stroke-width:1;stroke-miterlimit:4;stroke-dasharray:none;stroke-opacity:1"
     id="rect3617"
     width="4.8096719"
     height="2.9725406"
     x="-68.472069"
     y="177.40012"
     ry="0" /><rect
     transform="rotate(-53.045221)"
     ry="0"
     y="174.20367"
     x="-44.666008"
     height="2.9725406"
     width="4.8096719"
     id="rect3619"
     style="fill:#f9f9f9;fill-opacity:1;stroke:#f9f9f9;stroke-width:1;stroke-miterlimit:4;stroke-dasharray:none;stroke-opacity:1" /><path
     style="fill:none;fill-opacity:1;stroke:#333333;stroke-width:6.97064734;stroke-linecap:round;stroke-miterlimit:4;stroke-dasharray:none;stroke-opacity:1"
     d="m 127.26923,149.33334 a 17.935902,17.935902 0 0 1 -17.9359,17.9359 17.935902,17.935902 0 0 1 -17.935903,-17.9359 17.935902,17.935902 0 0 1 17.935903,-17.9359 17.935902,17.935902 0 0 1 17.9359,17.9359 z"
     id="path2833"
     inkscape:connector-curvature="0" /><rect
     ry="0"
     y="148.37979"
     x="218.26653"
     height="2.9725404"
     width="4.8096719"
     id="rect1365"
     style="fill:#f9f9f9;fill-opacity:1;stroke:#f9f9f9;stroke-width:1;stroke-miterlimit:4;stroke-dasharray:none;stroke-opacity:1" /><rect
     style="fill:#f9f9f9;fill-opacity:1;stroke:#f9f9f9;stroke-width:1;stroke-miterlimit:4;stroke-dasharray:none;stroke-opacity:1"
     id="rect1367"
     width="4.8096719"
     height="2.9725404"
     x="240.47733"
     y="148.37979"
     ry="0" /><rect
     transform="rotate(48.548166)"
     style="fill:#f9f9f9;fill-opacity:1;stroke:#f9f9f9;stroke-width:1;stroke-miterlimit:4;stroke-dasharray:none;stroke-opacity:1"
     id="rect1369"
     width="4.8096719"
     height="2.9725406"
     x="251.57417"
     y="-77.495003"
     ry="0" /><rect
     transform="rotate(48.548166)"
     ry="0"
     y="-74.496956"
     x="275.13702"
     height="2.9725406"
     width="4.8096719"
     id="rect1371"
     style="fill:#f9f9f9;fill-opacity:1;stroke:#f9f9f9;stroke-width:1;stroke-miterlimit:4;stroke-dasharray:none;stroke-opacity:1" /><rect
     ry="0"
     y="275.42429"
     x="5.2732205"
     height="2.9725406"
     width="4.8096719"
     id="rect1373"
     style="fill:#f9f9f9;fill-opacity:1;stroke:#f9f9f9;stroke-width:1;stroke-miterlimit:4;stroke-dasharray:none;stroke-opacity:1"
     transform="rotate(-53.045221)" /><rect
     style="fill:#f9f9f9;fill-opacity:1;stroke:#f9f9f9;stroke-width:1;stroke-miterlimit:4;stroke-dasharray:none;stroke-opacity:1"
     id="rect1375"
     width="4.8096719"
     height="2.9725406"
     x="29.079285"
     y="272.22784"
     ry="0"
     transform="rotate(-53.045221)" /><path
     inkscape:connector-curvature="0"
     id="path1377"
     d="m 249.93589,149.33334 a 17.935902,17.935902 0 0 1 -17.9359,17.9359 17.935902,17.935902 0 0 1 -17.9359,-17.9359 17.935902,17.935902 0 0 1 17.9359,-17.9359 17.935902,17.935902 0 0 1 17.9359,17.9359 z"
     style="fill:none;fill-opacity:1;stroke:#333333;stroke-width:6.97064734;stroke-linecap:round;stroke-miterlimit:4;stroke-dasharray:none;stroke-opacity:1" /><circle
     style="fill:none;fill-opacity:1;stroke:#f9f9f9;stroke-width:1.67400002;stroke-linecap:round;stroke-miterlimit:4;stroke-dasharray:none;stroke-opacity:1"
     id="circle1379"
     cx="231.99998"
     cy="149.33334"
     r="13.719664" /><circle
     r="13.719664"
     cy="149.33334"
     cx="109.33333"
     id="circle1135"
     style="fill:none;fill-opacity:1;stroke:#f9f9f9;stroke-width:1.67400002;stroke-linecap:round;stroke-miterlimit:4;stroke-dasharray:none;stroke-opacity:1" /><path
     inkscape:connector-curvature="0"
     d="m 208.00001,160.00001 c 0,2.94933 -2.78133,5.33333 -6.22267,5.33333 h -62.22133 c -3.44134,0 -6.22267,-2.384 -6.22267,-5.33333 v -21.33333 c 0,-2.94934 2.78133,-5.33334 6.22267,-5.33334 h 62.22133 c 3.44134,0 6.22267,2.384 6.22267,5.33334 z"
     style="fill:#ffffff;fill-opacity:0.3137255;fill-rule:nonzero;stroke:#6b6b6b;stroke-width:1.33333325;stroke-opacity:1"
     id="path833" /><text
     xml:space="preserve"
     style="font-style:normal;font-variant:normal;font-weight:bold;font-stretch:normal;font-size:13.19735432px;line-height:1.25;font-family:sans-serif;-inkscape-font-specification:'sans-serif Bold';letter-spacing:0px;word-spacing:0px;fill:#000000;fill-opacity:1;stroke:none;stroke-width:0.32993388"
     x="132.59572"
     y="113.79159"
     id="text848"><tspan
       sodipodi:role="line"
       id="tspan846"
       x="132.59572"
       y="113.79159"
       style="font-style:normal;font-variant:normal;font-weight:bold;font-stretch:normal;font-family:sans-serif;-inkscape-font-specification:'sans-serif Bold';stroke-width:0.32993388">LIBRETRO</tspan></text>
<rect
     style="opacity:1;vector-effect:none;fill:#000000;fill-opacity:1;stroke:#000000;stroke-width:1.40855861;stroke-linecap:butt;stroke-linejoin:miter;stroke-miterlimit:4;stroke-dasharray:none;stroke-dashoffset:0;stroke-opacity:1"
     id="rect858"
     width="28.926554"
     height="29.014528"
     x="40.734966"
     y="135.8862"
     ry="2.7088549" /><text
     xml:space="preserve"
     style="font-style:normal;font-weight:normal;font-size:24px;line-height:1.25;font-family:sans-serif;letter-spacing:0px;word-spacing:0px;fill:#ffffff;fill-opacity:1;stroke:none;"
     x="46.995117"
     y="158.05762"
     id="text852"><tspan
       sodipodi:role="line"
       id="tspan850"
       x="46.995117"
       y="158.05762">A</tspan></text>
<text
     id="text856"
     y="196.1983"
     x="238.18509"
     style="font-style:italic;font-variant:normal;font-weight:bold;font-stretch:normal;font-size:8px;line-height:1.25;font-family:sans-serif;-inkscape-font-specification:'sans-serif Bold Italic';letter-spacing:0px;word-spacing:0px;fill:#000000;fill-opacity:1;stroke:none;stroke-width:0.42706397"
     xml:space="preserve"><tspan
       style="font-style:italic;font-variant:normal;font-weight:bold;font-stretch:normal;font-size:8px;font-family:sans-serif;-inkscape-font-specification:'sans-serif Bold Italic';stroke-width:0.42706397"
       y="196.1983"
       x="238.18509"
       id="tspan854"
       sodipodi:role="line">DATASETTE</tspan></text>
</svg>