<?xml version="1.0" encoding="UTF-8" standalone="no"?>
<svg
   xmlns:dc="http://purl.org/dc/elements/1.1/"
   xmlns:cc="http://creativecommons.org/ns#"
   xmlns:rdf="http://www.w3.org/1999/02/22-rdf-syntax-ns#"
   xmlns:svg="http://www.w3.org/2000/svg"
   xmlns="http://www.w3.org/2000/svg"
   xmlns:sodipodi="http://sodipodi.sourceforge.net/DTD/sodipodi-0.dtd"
   xmlns:inkscape="http://www.inkscape.org/namespaces/inkscape"
   viewBox="0 0 341.33334 341.33334"
   height="341.33334"
   width="341.33334"
   xml:space="preserve"
   id="svg2"
   version="1.1"
   sodipodi:docname="Coleco - ColecoVision ADAM-content.svg"
   inkscape:version="0.92.2 (5c3e80d, 2017-08-06)"><sodipodi:namedview
     pagecolor="#ffffff"
     bordercolor="#666666"
     borderopacity="1"
     objecttolerance="10"
     gridtolerance="10"
     guidetolerance="10"
     inkscape:pageopacity="0"
     inkscape:pageshadow="2"
     inkscape:window-width="1024"
     inkscape:window-height="705"
     id="namedview50"
     showgrid="false"
     inkscape:pagecheckerboard="true"
     inkscape:zoom="1.3828124"
     inkscape:cx="159.38052"
     inkscape:cy="173.6519"
     inkscape:window-x="-8"
     inkscape:window-y="-8"
     inkscape:window-maximized="1"
     inkscape:current-layer="svg2" /><metadata
     id="metadata8"><rdf:RDF><cc:Work
         rdf:about=""><dc:format>image/svg+xml</dc:format><dc:type
           rdf:resource="http://purl.org/dc/dcmitype/StillImage" /><dc:title /></cc:Work></rdf:RDF></metadata><defs
     id="defs6"><clipPath
       id="clipPath18"
       clipPathUnits="userSpaceOnUse"><path
         id="path16"
         d="M 0,256 H 256 V 0 H 0 Z" /></clipPath><clipPath
       id="clipPath26"
       clipPathUnits="userSpaceOnUse"><path
         id="path24"
         d="M 4,208 H 252 V 48 H 4 Z" /></clipPath></defs><g
     id="g22"
     transform="matrix(1.3333333,0,0,-1.3333333,0,341.33333)" /><path
     style="fill:#cccccc;fill-opacity:1;fill-rule:nonzero;stroke:none;stroke-width:1.33333325"
     d="M 27.457031 74.666016 C 21.133032 74.666016 16 79.726265 16 85.960938 L 16 255.37109 C 16 261.60576 21.133032 266.66602 27.457031 266.66602 L 61.826172 266.66602 L 279.50586 266.66602 L 313.87695 266.66602 C 320.20095 266.66602 325.33398 261.60576 325.33398 255.37109 L 325.33398 85.960938 C 325.33398 79.726268 320.20095 74.666016 313.87695 74.666016 L 27.457031 74.666016 z M 109.33398 133.33398 C 119.63798 133.33398 128 141.69067 128 152 C 128 162.30934 119.63798 170.66602 109.33398 170.66602 C 99.029995 170.66602 90.666016 162.30934 90.666016 152 C 90.666016 141.69067 99.029995 133.33398 109.33398 133.33398 z M 139.55664 133.33398 L 201.77734 133.33398 C 205.21868 133.33398 208 135.71668 208 138.66602 L 208 160 C 208 162.94933 205.21868 165.33398 201.77734 165.33398 L 139.55664 165.33398 C 136.1153 165.33398 133.33398 162.94933 133.33398 160 L 133.33398 138.66602 C 133.33398 135.71668 136.1153 133.33398 139.55664 133.33398 z M 232 133.33398 C 242.304 133.33398 250.66602 141.68934 250.66602 152 C 250.66602 162.30934 242.304 170.66602 232 170.66602 C 221.69467 170.66602 213.33398 162.30934 213.33398 152 C 213.33398 141.68934 221.69467 133.33398 232 133.33398 z M 122.66602 245.33398 C 125.61535 245.33398 128 247.71863 128 250.66797 C 128 253.6173 125.61535 256 122.66602 256 C 119.71669 256 117.33398 253.6173 117.33398 250.66797 C 117.33398 247.71863 119.71669 245.33398 122.66602 245.33398 z M 218.66602 245.33398 C 221.61535 245.33398 224 247.71863 224 250.66797 C 224 253.6173 221.61535 256 218.66602 256 C 215.71669 256 213.33398 253.6173 213.33398 250.66797 C 213.33398 247.71863 215.71669 245.33398 218.66602 245.33398 z M 96 250.66602 C 98.949333 250.66602 101.33398 253.05066 101.33398 256 C 101.33398 258.94933 98.949333 261.33398 96 261.33398 C 93.050667 261.33398 90.666016 258.94933 90.666016 256 C 90.666016 253.05066 93.050667 250.66602 96 250.66602 z M 245.33398 250.66602 C 248.28331 250.66602 250.66602 253.05066 250.66602 256 C 250.66602 258.94933 248.28331 261.33398 245.33398 261.33398 C 242.38465 261.33398 240 258.94933 240 256 C 240 253.05066 242.38465 250.66602 245.33398 250.66602 z "
     id="path38-8" /><path
     inkscape:connector-curvature="0"
     style="fill:#ffffff;fill-opacity:1;fill-rule:nonzero;stroke:none;stroke-width:1.33333325"
     d="m 43.556325,90.66635 c -6.378667,0 -11.556641,5.25703 -11.556641,11.73437 v 93.86719 c 0,6.47733 5.177974,11.73242 11.556641,11.73242 H 297.77702 c 6.37867,0 11.55664,-5.25509 11.55664,-11.73242 v -93.86719 c 0,-6.47734 -5.17797,-11.73437 -11.55664,-11.73437 z m 65.777345,42.66796 c 10.304,0 18.66602,8.35669 18.66602,18.66602 0,10.30934 -8.36202,18.66602 -18.66602,18.66602 -10.304001,0 -18.66797,-8.35668 -18.66797,-18.66602 0,-10.30933 8.363969,-18.66602 18.66797,-18.66602 z m 122.66601,0 c 10.30533,0 18.66602,8.35536 18.66602,18.66602 0,10.31067 -8.36069,18.66602 -18.66602,18.66602 -10.304,0 -18.66602,-8.35535 -18.66602,-18.66602 0,-10.31066 8.36202,-18.66602 18.66602,-18.66602 z"
     id="path42-6"
     sodipodi:nodetypes="sssssssssssssscsssc" /><path
     style="fill:#999999;fill-opacity:1;fill-rule:nonzero;stroke:none;stroke-width:1.33333325"
     d="M 80.591797 234.66797 C 74.962464 234.66797 74.962891 240 74.962891 240 L 69.333984 266.66797 L 272 266.66797 L 266.36914 240 C 266.36914 240 266.36994 234.66797 260.72461 234.66797 L 80.591797 234.66797 z M 122.66602 245.33398 C 125.61535 245.33398 128 247.71863 128 250.66797 C 128 253.6173 125.61535 256 122.66602 256 C 119.71669 256 117.33398 253.6173 117.33398 250.66797 C 117.33398 247.71863 119.71669 245.33398 122.66602 245.33398 z M 218.66602 245.33398 C 219.03468 245.33398 219.39474 245.37046 219.74219 245.44141 C 220.08964 245.51235 220.42502 245.61716 220.74414 245.75195 C 222.18034 246.35865 223.29274 247.57618 223.75977 249.08008 C 223.86355 249.41428 223.93628 249.76214 223.97266 250.12109 C 223.99084 250.30057 224 250.48363 224 250.66797 C 224 250.85297 223.99097 251.03474 223.97266 251.21484 C 223.93635 251.57313 223.86325 251.92033 223.75977 252.25391 C 223.29286 253.75769 222.1802 254.97547 220.74414 255.58203 C 220.42502 255.71682 220.08964 255.82163 219.74219 255.89258 C 219.56845 255.92803 219.39237 255.95448 219.21289 255.97266 C 219.03342 255.99084 218.85035 256 218.66602 256 C 218.48234 256 218.29994 255.9907 218.12109 255.97266 C 218.12045 255.97259 218.11979 255.97272 218.11914 255.97266 C 217.93968 255.95448 217.76355 255.92803 217.58984 255.89258 C 217.2424 255.82163 216.90702 255.71682 216.58789 255.58203 C 215.94976 255.31257 215.3767 254.92162 214.89453 254.43945 C 214.53278 254.0777 214.22264 253.66439 213.97656 253.21094 C 213.89428 253.05929 213.8195 252.90426 213.75195 252.74414 C 213.68488 252.58534 213.62592 252.42211 213.57422 252.25586 C 213.53548 252.1313 213.50429 252.00331 213.47461 251.875 C 213.46432 251.83043 213.45057 251.78718 213.44141 251.74219 C 213.40606 251.56909 213.37951 251.39365 213.36133 251.21484 C 213.36126 251.2142 213.36139 251.21353 213.36133 251.21289 C 213.34315 251.03342 213.33398 250.8523 213.33398 250.66797 C 213.33398 250.2993 213.37049 249.93926 213.44141 249.5918 C 213.51235 249.24435 213.61716 248.90897 213.75195 248.58984 C 213.81932 248.43027 213.89457 248.27421 213.97656 248.12305 C 214.22264 247.6696 214.53278 247.25628 214.89453 246.89453 C 215.3767 246.41212 215.94976 246.0216 216.58789 245.75195 C 216.90702 245.61716 217.2424 245.51235 217.58984 245.44141 C 217.93726 245.37044 218.29735 245.33398 218.66602 245.33398 z M 96 250.66602 C 98.949333 250.66602 101.33398 253.05066 101.33398 256 C 101.33398 258.94933 98.949333 261.33398 96 261.33398 C 93.050667 261.33398 90.666016 258.94933 90.666016 256 C 90.666016 253.05066 93.050667 250.66602 96 250.66602 z M 245.33398 250.66602 C 248.28331 250.66602 250.66602 253.05066 250.66602 256 C 250.66602 258.94933 248.28331 261.33398 245.33398 261.33398 C 242.38465 261.33398 240 258.94933 240 256 C 240 253.05066 242.38465 250.66602 245.33398 250.66602 z "
     id="path46-5" /><path
     id="path70-9"
     style="vector-effect:none;fill:#808080;fill-opacity:1;fill-rule:nonzero;stroke:none;stroke-width:1.33333325;stroke-linecap:butt;stroke-linejoin:miter;stroke-miterlimit:4;stroke-dasharray:none;stroke-dashoffset:0;stroke-opacity:1"
     d="m 24.04595,261.33366 c -1.472,0.0253 -2.686667,-1.148 -2.712,-2.62 -0.02667,-1.472 1.148,-2.68667 2.62,-2.71333 1.470667,-0.0253 2.686667,1.148 2.712,2.62 0.02533,1.472 -1.148,2.68666 -2.62,2.71333"
     inkscape:connector-curvature="0" /><path
     id="path74-4"
     style="vector-effect:none;fill:#808080;fill-opacity:1;fill-rule:nonzero;stroke:none;stroke-width:1.33333325;stroke-linecap:butt;stroke-linejoin:miter;stroke-miterlimit:4;stroke-dasharray:none;stroke-dashoffset:0;stroke-opacity:1"
     d="m 23.999683,85.33367 c -1.472,0 -2.666667,-1.194667 -2.666667,-2.666667 0,-1.472 1.194667,-2.666666 2.666667,-2.666666 1.472,0 2.666667,1.194666 2.666667,2.666666 0,1.472 -1.194667,2.666667 -2.666667,2.666667"
     inkscape:connector-curvature="0" /><path
     id="path78-0"
     style="vector-effect:none;fill:#808080;fill-opacity:1;fill-rule:nonzero;stroke:none;stroke-width:1.33333325;stroke-linecap:butt;stroke-linejoin:miter;stroke-miterlimit:4;stroke-dasharray:none;stroke-dashoffset:0;stroke-opacity:1"
     d="m 317.33301,261.33366 c -1.472,0 -2.66667,-1.19467 -2.66667,-2.66667 0,-1.472 1.19467,-2.66666 2.66667,-2.66666 1.472,0 2.66667,1.19466 2.66667,2.66666 0,1.472 -1.19467,2.66667 -2.66667,2.66667"
     inkscape:connector-curvature="0" /><path
     id="path82-5"
     style="vector-effect:none;fill:#808080;fill-opacity:1;fill-rule:nonzero;stroke:none;stroke-width:1.33333325;stroke-linecap:butt;stroke-linejoin:miter;stroke-miterlimit:4;stroke-dasharray:none;stroke-dashoffset:0;stroke-opacity:1"
     d="m 317.33301,85.33367 c -1.472,0 -2.66667,-1.194667 -2.66667,-2.666667 0,-1.472 1.19467,-2.666666 2.66667,-2.666666 1.472,0 2.66667,1.194666 2.66667,2.666666 0,1.472 -1.19467,2.666667 -2.66667,2.666667"
     inkscape:connector-curvature="0" /><circle
     r="16.724897"
     cy="149.33366"
     cx="231.99968"
     id="circle1089"
     style="fill:none;fill-opacity:1;stroke:#550000;stroke-width:0.68300003;stroke-linecap:round;stroke-miterlimit:4;stroke-dasharray:none;stroke-opacity:1" /><rect
     style="fill:#f9f9f9;fill-opacity:1;stroke:#f9f9f9;stroke-width:1;stroke-miterlimit:4;stroke-dasharray:none;stroke-opacity:1"
     id="rect3609"
     width="4.8096719"
     height="2.9725404"
     x="95.599556"
     y="148.38011"
     ry="0" /><rect
     ry="0"
     y="148.38011"
     x="117.81035"
     height="2.9725404"
     width="4.8096719"
     id="rect3611"
     style="fill:#f9f9f9;fill-opacity:1;stroke:#f9f9f9;stroke-width:1;stroke-miterlimit:4;stroke-dasharray:none;stroke-opacity:1" /><rect
     ry="0"
     y="14.445654"
     x="170.37009"
     height="2.9725406"
     width="4.8096719"
     id="rect3613"
     style="fill:#f9f9f9;fill-opacity:1;stroke:#f9f9f9;stroke-width:1;stroke-miterlimit:4;stroke-dasharray:none;stroke-opacity:1"
     transform="rotate(48.548166)" /><rect
     style="fill:#f9f9f9;fill-opacity:1;stroke:#f9f9f9;stroke-width:1;stroke-miterlimit:4;stroke-dasharray:none;stroke-opacity:1"
     id="rect3615"
     width="4.8096719"
     height="2.9725406"
     x="193.93292"
     y="17.443701"
     ry="0"
     transform="rotate(48.548166)" /><rect
     transform="rotate(-53.045221)"
     style="fill:#f9f9f9;fill-opacity:1;stroke:#f9f9f9;stroke-width:1;stroke-miterlimit:4;stroke-dasharray:none;stroke-opacity:1"
     id="rect3617"
     width="4.8096719"
     height="2.9725406"
     x="-68.472504"
     y="177.40005"
     ry="0" /><rect
     transform="rotate(-53.045221)"
     ry="0"
     y="174.20361"
     x="-44.666443"
     height="2.9725406"
     width="4.8096719"
     id="rect3619"
     style="fill:#f9f9f9;fill-opacity:1;stroke:#f9f9f9;stroke-width:1;stroke-miterlimit:4;stroke-dasharray:none;stroke-opacity:1" /><path
     style="fill:none;fill-opacity:1;stroke:#333333;stroke-width:6.97064734;stroke-linecap:round;stroke-miterlimit:4;stroke-dasharray:none;stroke-opacity:1"
     d="m 127.26892,149.33367 a 17.935902,17.935902 0 0 1 -17.9359,17.9359 17.935902,17.935902 0 0 1 -17.935909,-17.9359 17.935902,17.935902 0 0 1 17.935909,-17.9359 17.935902,17.935902 0 0 1 17.9359,17.9359 z"
     id="path2833"
     inkscape:connector-curvature="0" /><rect
     ry="0"
     y="148.38011"
     x="218.26622"
     height="2.9725404"
     width="4.8096719"
     id="rect1365"
     style="fill:#f9f9f9;fill-opacity:1;stroke:#f9f9f9;stroke-width:1;stroke-miterlimit:4;stroke-dasharray:none;stroke-opacity:1" /><rect
     style="fill:#f9f9f9;fill-opacity:1;stroke:#f9f9f9;stroke-width:1;stroke-miterlimit:4;stroke-dasharray:none;stroke-opacity:1"
     id="rect1367"
     width="4.8096719"
     height="2.9725404"
     x="240.47702"
     y="148.38011"
     ry="0" /><rect
     transform="rotate(48.548166)"
     style="fill:#f9f9f9;fill-opacity:1;stroke:#f9f9f9;stroke-width:1;stroke-miterlimit:4;stroke-dasharray:none;stroke-opacity:1"
     id="rect1369"
     width="4.8096719"
     height="2.9725406"
     x="251.57422"
     y="-77.494545"
     ry="0" /><rect
     transform="rotate(48.548166)"
     ry="0"
     y="-74.496506"
     x="275.13705"
     height="2.9725406"
     width="4.8096719"
     id="rect1371"
     style="fill:#f9f9f9;fill-opacity:1;stroke:#f9f9f9;stroke-width:1;stroke-miterlimit:4;stroke-dasharray:none;stroke-opacity:1" /><rect
     ry="0"
     y="275.42422"
     x="5.2727675"
     height="2.9725406"
     width="4.8096719"
     id="rect1373"
     style="fill:#f9f9f9;fill-opacity:1;stroke:#f9f9f9;stroke-width:1;stroke-miterlimit:4;stroke-dasharray:none;stroke-opacity:1"
     transform="rotate(-53.045221)" /><rect
     style="fill:#f9f9f9;fill-opacity:1;stroke:#f9f9f9;stroke-width:1;stroke-miterlimit:4;stroke-dasharray:none;stroke-opacity:1"
     id="rect1375"
     width="4.8096719"
     height="2.9725406"
     x="29.078829"
     y="272.22778"
     ry="0"
     transform="rotate(-53.045221)" /><path
     inkscape:connector-curvature="0"
     id="path1377"
     d="m 249.93557,149.33367 a 17.935902,17.935902 0 0 1 -17.9359,17.9359 17.935902,17.935902 0 0 1 -17.9359,-17.9359 17.935902,17.935902 0 0 1 17.9359,-17.9359 17.935902,17.935902 0 0 1 17.9359,17.9359 z"
     style="fill:none;fill-opacity:1;stroke:#333333;stroke-width:6.97064734;stroke-linecap:round;stroke-miterlimit:4;stroke-dasharray:none;stroke-opacity:1" /><circle
     style="fill:none;fill-opacity:1;stroke:#f9f9f9;stroke-width:1.67400002;stroke-linecap:round;stroke-miterlimit:4;stroke-dasharray:none;stroke-opacity:1"
     id="circle1379"
     cx="231.99968"
     cy="149.33366"
     r="13.719664" /><circle
     r="13.719664"
     cy="149.33366"
     cx="109.33302"
     id="circle1135"
     style="fill:none;fill-opacity:1;stroke:#f9f9f9;stroke-width:1.67400002;stroke-linecap:round;stroke-miterlimit:4;stroke-dasharray:none;stroke-opacity:1" /><path
     style="color:#000000;font-style:normal;font-variant:normal;font-weight:normal;font-stretch:normal;font-size:medium;line-height:normal;font-family:sans-serif;font-variant-ligatures:normal;font-variant-position:normal;font-variant-caps:normal;font-variant-numeric:normal;font-variant-alternates:normal;font-feature-settings:normal;text-indent:0;text-align:start;text-decoration:none;text-decoration-line:none;text-decoration-style:solid;text-decoration-color:#000000;letter-spacing:normal;word-spacing:normal;text-transform:none;writing-mode:lr-tb;direction:ltr;text-orientation:mixed;dominant-baseline:auto;baseline-shift:baseline;text-anchor:start;white-space:normal;shape-padding:0;clip-rule:nonzero;display:inline;overflow:visible;visibility:visible;opacity:1;isolation:auto;mix-blend-mode:normal;color-interpolation:sRGB;color-interpolation-filters:linearRGB;solid-color:#000000;solid-opacity:1;vector-effect:none;fill:none;fill-opacity:1;fill-rule:nonzero;stroke:#000000;stroke-width:1.5;stroke-linecap:butt;stroke-linejoin:miter;stroke-miterlimit:4;stroke-dasharray:none;stroke-dashoffset:0;stroke-opacity:1;color-rendering:auto;image-rendering:auto;shape-rendering:auto;text-rendering:auto;enable-background:accumulate"
     d="m 50.691266,95.274338 c -8.090041,0 -14.840953,6.159122 -14.840953,13.814572 v 80.49005 c 0,7.65551 6.75161,13.81271 14.840953,13.81272 H 290.64272 c 8.08934,-1e-5 14.84096,-6.15721 14.84096,-13.81272 v -80.49005 c 0,-7.65545 -6.75092,-13.814572 -14.84096,-13.814572 z m 0,7.503842 H 290.64272 c 3.97544,0 6.97299,2.85143 6.97299,6.31073 v 80.49005 c 0,3.45937 -2.99721,6.31073 -6.97299,6.31073 H 50.691266 c -3.97578,0 -6.974937,-2.85198 -6.974937,-6.31073 v -80.49005 c 0,-3.45868 2.999498,-6.31073 6.974937,-6.31073 z"
     id="path843"
     inkscape:connector-curvature="0" /><rect
     style="opacity:1;vector-effect:none;fill:none;fill-opacity:1;stroke:#000000;stroke-width:1.5;stroke-linecap:butt;stroke-linejoin:miter;stroke-miterlimit:4;stroke-dasharray:none;stroke-dashoffset:0;stroke-opacity:1"
     id="rect851"
     width="245.42139"
     height="15.929635"
     x="47.955978"
     y="108.46456"
     ry="3.0719826" /><text
     xml:space="preserve"
     style="font-style:italic;font-variant:normal;font-weight:bold;font-stretch:normal;font-size:10.66666698px;line-height:1.25;font-family:sans-serif;-inkscape-font-specification:'sans-serif Bold Italic';letter-spacing:0px;word-spacing:0px;fill:#000000;fill-opacity:1;stroke:none"
     x="61.672527"
     y="120.0452"
     id="text855"><tspan
       sodipodi:role="line"
       x="61.672527"
       y="120.0452"
       id="tspan863"><tspan
   style="font-style:normal;font-variant:normal;font-weight:bold;font-stretch:normal;font-family:sans-serif;-inkscape-font-specification:'sans-serif Bold'"
   id="tspan859">LIBRETRO</tspan> <tspan
   style="font-style:italic;font-variant:normal;font-weight:bold;font-stretch:normal;font-size:8px;font-family:sans-serif;-inkscape-font-specification:'sans-serif Bold Italic';text-align:center;text-anchor:middle"
   id="tspan861">HIGH SPEED DIGITAL DATA PACK</tspan></tspan><tspan
       sodipodi:role="line"
       x="61.672527"
       y="133.37852"
       id="tspan857" /></text>
</svg>