<?xml version="1.0" encoding="UTF-8" standalone="no"?>
<svg
   xmlns:dc="http://purl.org/dc/elements/1.1/"
   xmlns:cc="http://creativecommons.org/ns#"
   xmlns:rdf="http://www.w3.org/1999/02/22-rdf-syntax-ns#"
   xmlns:svg="http://www.w3.org/2000/svg"
   xmlns="http://www.w3.org/2000/svg"
   xmlns:sodipodi="http://sodipodi.sourceforge.net/DTD/sodipodi-0.dtd"
   xmlns:inkscape="http://www.inkscape.org/namespaces/inkscape"
   viewBox="0 0 341.33334 341.33334"
   height="256"
   width="256"
   xml:space="preserve"
   id="svg2"
   version="1.1"
   sodipodi:docname="Commodore - VIC-20.svg"
   inkscape:version="0.92.2 (5c3e80d, 2017-08-06)"><sodipodi:namedview
     pagecolor="#ffffff"
     bordercolor="#666666"
     borderopacity="1"
     objecttolerance="10"
     gridtolerance="10"
     guidetolerance="10"
     inkscape:pageopacity="0"
     inkscape:pageshadow="2"
     inkscape:window-width="1024"
     inkscape:window-height="705"
     id="namedview161"
     showgrid="false"
     inkscape:pagecheckerboard="true"
     inkscape:zoom="1.3828125"
     inkscape:cx="203.57781"
     inkscape:cy="281.8531"
     inkscape:window-x="-8"
     inkscape:window-y="-8"
     inkscape:window-maximized="1"
     inkscape:current-layer="g40" /><metadata
     id="metadata8"><rdf:RDF><cc:Work
         rdf:about=""><dc:format>image/svg+xml</dc:format><dc:type
           rdf:resource="http://purl.org/dc/dcmitype/StillImage" /><dc:title /></cc:Work></rdf:RDF></metadata><defs
     id="defs6"><clipPath
       id="clipPath18"
       clipPathUnits="userSpaceOnUse"><path
         id="path16"
         d="M 0,256 H 256 V 0 H 0 Z" /></clipPath><clipPath
       id="clipPath26"
       clipPathUnits="userSpaceOnUse"><path
         id="path24"
         d="M 4,192 H 252 V 64 H 4 Z" /></clipPath></defs><g
     id="g36"
     transform="matrix(1.3333333,0,0,-1.3333333,314.66666,245.33333)"><path
       inkscape:connector-curvature="0"
       d="m 0,0 h -216 c -4.418,0 -8,3.582 -8,8 v 100 c 0,2.209 1.791,4 4,4 H 4 c 2.209,0 4,-1.791 4,-4 V 8 C 8,3.582 4.418,0 0,0"
       style="fill:#cccccc;fill-opacity:1;fill-rule:nonzero;stroke:none"
       id="path38" /></g><g
     id="g40"
     transform="matrix(1.3333333,0,0,-1.3333333,31.999999,144)"
     style="fill:#1a1a1a"><path
       inkscape:connector-curvature="0"
       d="M -1.5,0 V -20 H -4 v -28 h 28 v -8 h 100 v 8 h 45.5 v 24 h 4 V 0 Z"
       style="fill:#1a1a1a;fill-opacity:1;fill-rule:nonzero;stroke:none"
       id="path42"
       sodipodi:nodetypes="ccccccccccccc" /></g><path
     inkscape:connector-curvature="0"
     d="m 298.66666,208 h -21.33333 v -64 h 21.33333 z"
     style="fill:#a3834a;fill-opacity:1;fill-rule:nonzero;stroke:none;stroke-width:1.33333325"
     id="path44" /><path
     inkscape:connector-curvature="0"
     d="M 325.33333,104 H 16 v -2.66666 h 309.33333 z"
     style="fill:#bfbfbf;fill-opacity:1;fill-rule:nonzero;stroke:none;stroke-width:1.33333325"
     id="path46" /><path
     inkscape:connector-curvature="0"
     d="M 325.33333,109.33334 H 16 v -2.66667 h 309.33333 z"
     style="fill:#bfbfbf;fill-opacity:1;fill-rule:nonzero;stroke:none;stroke-width:1.33333325"
     id="path48" /><path
     inkscape:connector-curvature="0"
     d="M 325.33333,114.66667 H 16 V 112 h 309.33333 z"
     style="fill:#bfbfbf;fill-opacity:1;fill-rule:nonzero;stroke:none;stroke-width:1.33333325"
     id="path50" /><path
     inkscape:connector-curvature="0"
     d="M 325.33333,120 H 16 v -2.66666 h 309.33333 z"
     style="fill:#bfbfbf;fill-opacity:1;fill-rule:nonzero;stroke:none;stroke-width:1.33333325"
     id="path52" /><g
     id="g54"
     transform="matrix(1.3333333,0,0,-1.3333333,290.66666,113.33334)"><path
       inkscape:connector-curvature="0"
       d="m 0,0 h -12 c -1.104,0 -2,0.896 -2,2 0,1.104 0.896,2 2,2 H 0 C 1.104,4 2,3.104 2,2 2,0.896 1.104,0 0,0"
       style="fill:#808080;fill-opacity:1;fill-rule:nonzero;stroke:none"
       id="path56" /></g><g
     id="g58"
     transform="matrix(1.3333333,0,0,-1.3333333,291.99999,110.66667)"><path
       inkscape:connector-curvature="0"
       d="m 0,0 c 0,-0.552 -0.447,-1 -1,-1 -0.553,0 -1,0.448 -1,1 0,0.552 0.447,1 1,1 0.553,0 1,-0.448 1,-1"
       style="fill:#ff0000;fill-opacity:1;fill-rule:nonzero;stroke:none"
       id="path60" /></g><g
     id="g62"
     transform="matrix(1.3333333,0,0,-1.3333333,317.33333,138.66667)"><path
       inkscape:connector-curvature="0"
       d="m 0,0 h -220 c -1.104,0 -2,-0.896 -2,-2 v -60 c 0,-1.104 0.896,-2 2,-2 H 0 c 1.104,0 2,0.896 2,2 V -2 C 2,-0.896 1.104,0 0,0 M 0,-62 H -220 V -2 H 0 Z"
       style="fill:#bfbfbf;fill-opacity:1;fill-rule:nonzero;stroke:none"
       id="path64" /></g><g
     id="g66"
     transform="matrix(1.3333333,0,0,-1.3333333,34.666666,154.66667)"><path
       inkscape:connector-curvature="0"
       d="M 0,0 V 0 C -1.104,0 -2,0.896 -2,2 V 6 C -2,7.104 -1.104,8 0,8 1.104,8 2,7.104 2,6 V 2 C 2,0.896 1.104,0 0,0"
       style="fill:#4c4c4c;fill-opacity:1;fill-rule:nonzero;stroke:none"
       id="path68" /></g><g
     id="g70"
     transform="matrix(1.3333333,0,0,-1.3333333,66.666665,154.66667)"><path
       inkscape:connector-curvature="0"
       d="m 0,0 h -4 c -1.104,0 -2,0.896 -2,2 v 4 c 0,1.104 0.896,2 2,2 H 0 C 1.104,8 2,7.104 2,6 V 2 C 2,0.896 1.104,0 0,0"
       style="fill:#4c4c4c;fill-opacity:1;fill-rule:nonzero;stroke:none"
       id="path72" /></g><g
     id="g74"
     transform="matrix(1.3333333,0,0,-1.3333333,50.666665,154.66667)"><path
       inkscape:connector-curvature="0"
       d="m 0,0 h -4 c -1.104,0 -2,0.896 -2,2 v 4 c 0,1.104 0.896,2 2,2 H 0 C 1.104,8 2,7.104 2,6 V 2 C 2,0.896 1.104,0 0,0"
       style="fill:#4c4c4c;fill-opacity:1;fill-rule:nonzero;stroke:none"
       id="path76" /></g><g
     id="g78"
     transform="matrix(1.3333333,0,0,-1.3333333,82.666665,154.66667)"><path
       inkscape:connector-curvature="0"
       d="m 0,0 h -4 c -1.104,0 -2,0.896 -2,2 v 4 c 0,1.104 0.896,2 2,2 H 0 C 1.104,8 2,7.104 2,6 V 2 C 2,0.896 1.104,0 0,0"
       style="fill:#4c4c4c;fill-opacity:1;fill-rule:nonzero;stroke:none"
       id="path80" /></g><g
     id="g82"
     transform="matrix(1.3333333,0,0,-1.3333333,98.666664,154.66667)"><path
       inkscape:connector-curvature="0"
       d="m 0,0 h -4 c -1.104,0 -2,0.896 -2,2 v 4 c 0,1.104 0.896,2 2,2 H 0 C 1.104,8 2,7.104 2,6 V 2 C 2,0.896 1.104,0 0,0"
       style="fill:#4c4c4c;fill-opacity:1;fill-rule:nonzero;stroke:none"
       id="path84" /></g><g
     id="g86"
     transform="matrix(1.3333333,0,0,-1.3333333,114.66666,154.66667)"><path
       inkscape:connector-curvature="0"
       d="m 0,0 h -4 c -1.104,0 -2,0.896 -2,2 v 4 c 0,1.104 0.896,2 2,2 H 0 C 1.104,8 2,7.104 2,6 V 2 C 2,0.896 1.104,0 0,0"
       style="fill:#4c4c4c;fill-opacity:1;fill-rule:nonzero;stroke:none"
       id="path88" /></g><g
     id="g90"
     transform="matrix(1.3333333,0,0,-1.3333333,130.66666,154.66667)"><path
       inkscape:connector-curvature="0"
       d="m 0,0 h -4 c -1.104,0 -2,0.896 -2,2 v 4 c 0,1.104 0.896,2 2,2 H 0 C 1.104,8 2,7.104 2,6 V 2 C 2,0.896 1.104,0 0,0"
       style="fill:#4c4c4c;fill-opacity:1;fill-rule:nonzero;stroke:none"
       id="path92" /></g><g
     id="g94"
     transform="matrix(1.3333333,0,0,-1.3333333,146.66666,154.66667)"><path
       inkscape:connector-curvature="0"
       d="m 0,0 h -4 c -1.104,0 -2,0.896 -2,2 v 4 c 0,1.104 0.896,2 2,2 H 0 C 1.104,8 2,7.104 2,6 V 2 C 2,0.896 1.104,0 0,0"
       style="fill:#4c4c4c;fill-opacity:1;fill-rule:nonzero;stroke:none"
       id="path96" /></g><g
     id="g98"
     transform="matrix(1.3333333,0,0,-1.3333333,162.66666,154.66667)"><path
       inkscape:connector-curvature="0"
       d="m 0,0 h -4 c -1.104,0 -2,0.896 -2,2 v 4 c 0,1.104 0.896,2 2,2 H 0 C 1.104,8 2,7.104 2,6 V 2 C 2,0.896 1.104,0 0,0"
       style="fill:#4c4c4c;fill-opacity:1;fill-rule:nonzero;stroke:none"
       id="path100" /></g><g
     id="g102"
     transform="matrix(1.3333333,0,0,-1.3333333,178.66666,154.66667)"><path
       inkscape:connector-curvature="0"
       d="m 0,0 h -4 c -1.104,0 -2,0.896 -2,2 v 4 c 0,1.104 0.896,2 2,2 H 0 C 1.104,8 2,7.104 2,6 V 2 C 2,0.896 1.104,0 0,0"
       style="fill:#4c4c4c;fill-opacity:1;fill-rule:nonzero;stroke:none"
       id="path104" /></g><g
     id="g106"
     transform="matrix(1.3333333,0,0,-1.3333333,194.66666,154.66667)"><path
       inkscape:connector-curvature="0"
       d="m 0,0 h -4 c -1.104,0 -2,0.896 -2,2 v 4 c 0,1.104 0.896,2 2,2 H 0 C 1.104,8 2,7.104 2,6 V 2 C 2,0.896 1.104,0 0,0"
       style="fill:#4c4c4c;fill-opacity:1;fill-rule:nonzero;stroke:none"
       id="path108" /></g><g
     id="g110"
     transform="matrix(1.3333333,0,0,-1.3333333,210.66666,154.66667)"><path
       inkscape:connector-curvature="0"
       d="m 0,0 h -4 c -1.104,0 -2,0.896 -2,2 v 4 c 0,1.104 0.896,2 2,2 H 0 C 1.104,8 2,7.104 2,6 V 2 C 2,0.896 1.104,0 0,0"
       style="fill:#4c4c4c;fill-opacity:1;fill-rule:nonzero;stroke:none"
       id="path112" /></g><g
     id="g114"
     transform="matrix(1.3333333,0,0,-1.3333333,226.66666,154.66667)"><path
       inkscape:connector-curvature="0"
       d="m 0,0 h -4 c -1.104,0 -2,0.896 -2,2 v 4 c 0,1.104 0.896,2 2,2 H 0 C 1.104,8 2,7.104 2,6 V 2 C 2,0.896 1.104,0 0,0"
       style="fill:#4c4c4c;fill-opacity:1;fill-rule:nonzero;stroke:none"
       id="path116" /></g><g
     id="g118"
     transform="matrix(1.3333333,0,0,-1.3333333,242.66666,154.66667)"><path
       inkscape:connector-curvature="0"
       d="m 0,0 h -4 c -1.104,0 -2,0.896 -2,2 v 4 c 0,1.104 0.896,2 2,2 H 0 C 1.104,8 2,7.104 2,6 V 2 C 2,0.896 1.104,0 0,0"
       style="fill:#4c4c4c;fill-opacity:1;fill-rule:nonzero;stroke:none"
       id="path120" /></g><g
     id="g122"
     transform="matrix(1.3333333,0,0,-1.3333333,258.66666,154.66667)"><path
       inkscape:connector-curvature="0"
       d="m 0,0 h -4 c -1.104,0 -2,0.896 -2,2 v 4 c 0,1.104 0.896,2 2,2 H 0 C 1.104,8 2,7.104 2,6 V 2 C 2,0.896 1.104,0 0,0"
       style="fill:#4c4c4c;fill-opacity:1;fill-rule:nonzero;stroke:none"
       id="path124" /></g><g
     id="g126"
     transform="matrix(1.3333333,0,0,-1.3333333,34.666666,186.66667)"><path
       inkscape:connector-curvature="0"
       d="m 0,0 h -4 c -1.104,0 -2,0.896 -2,2 v 4 c 0,1.104 0.896,2 2,2 H 0 C 1.104,8 2,7.104 2,6 V 2 C 2,0.896 1.104,0 0,0"
       style="fill:#4c4c4c;fill-opacity:1;fill-rule:nonzero;stroke:none"
       id="path128" /></g><g
     id="g130"
     transform="matrix(1.3333333,0,0,-1.3333333,50.666665,186.66667)"><path
       inkscape:connector-curvature="0"
       d="m 0,0 h -4 c -1.104,0 -2,0.896 -2,2 v 4 c 0,1.104 0.896,2 2,2 H 0 C 1.104,8 2,7.104 2,6 V 2 C 2,0.896 1.104,0 0,0"
       style="fill:#4c4c4c;fill-opacity:1;fill-rule:nonzero;stroke:none"
       id="path132" /></g><g
     id="g134"
     transform="matrix(1.3333333,0,0,-1.3333333,66.666665,186.66667)"><path
       inkscape:connector-curvature="0"
       d="m 0,0 h -4 c -1.104,0 -2,0.896 -2,2 v 4 c 0,1.104 0.896,2 2,2 H 0 C 1.104,8 2,7.104 2,6 V 2 C 2,0.896 1.104,0 0,0"
       style="fill:#4c4c4c;fill-opacity:1;fill-rule:nonzero;stroke:none"
       id="path136" /></g><g
     id="g138"
     transform="matrix(1.3333333,0,0,-1.3333333,82.666665,186.66667)"><path
       inkscape:connector-curvature="0"
       d="m 0,0 h -4 c -1.104,0 -2,0.896 -2,2 v 4 c 0,1.104 0.896,2 2,2 H 0 C 1.104,8 2,7.104 2,6 V 2 C 2,0.896 1.104,0 0,0"
       style="fill:#4c4c4c;fill-opacity:1;fill-rule:nonzero;stroke:none"
       id="path140" /></g><g
     id="g142"
     transform="matrix(1.3333333,0,0,-1.3333333,98.666664,186.66667)"><path
       inkscape:connector-curvature="0"
       d="m 0,0 h -4 c -1.104,0 -2,0.896 -2,2 v 4 c 0,1.104 0.896,2 2,2 H 0 C 1.104,8 2,7.104 2,6 V 2 C 2,0.896 1.104,0 0,0"
       style="fill:#4c4c4c;fill-opacity:1;fill-rule:nonzero;stroke:none"
       id="path144" /></g><g
     id="g146"
     transform="matrix(1.3333333,0,0,-1.3333333,114.66666,186.66667)"><path
       inkscape:connector-curvature="0"
       d="m 0,0 h -4 c -1.104,0 -2,0.896 -2,2 v 4 c 0,1.104 0.896,2 2,2 H 0 C 1.104,8 2,7.104 2,6 V 2 C 2,0.896 1.104,0 0,0"
       style="fill:#4c4c4c;fill-opacity:1;fill-rule:nonzero;stroke:none"
       id="path148" /></g><g
     id="g150"
     transform="matrix(1.3333333,0,0,-1.3333333,130.66666,186.66667)"><path
       inkscape:connector-curvature="0"
       d="m 0,0 h -4 c -1.104,0 -2,0.896 -2,2 v 4 c 0,1.104 0.896,2 2,2 H 0 C 1.104,8 2,7.104 2,6 V 2 C 2,0.896 1.104,0 0,0"
       style="fill:#4c4c4c;fill-opacity:1;fill-rule:nonzero;stroke:none"
       id="path152" /></g><g
     id="g154"
     transform="matrix(1.3333333,0,0,-1.3333333,146.66666,186.66667)"><path
       inkscape:connector-curvature="0"
       d="m 0,0 h -4 c -1.104,0 -2,0.896 -2,2 v 4 c 0,1.104 0.896,2 2,2 H 0 C 1.104,8 2,7.104 2,6 V 2 C 2,0.896 1.104,0 0,0"
       style="fill:#4c4c4c;fill-opacity:1;fill-rule:nonzero;stroke:none"
       id="path156" /></g><g
     id="g158"
     transform="matrix(1.3333333,0,0,-1.3333333,162.66666,186.66667)"><path
       inkscape:connector-curvature="0"
       d="m 0,0 h -4 c -1.104,0 -2,0.896 -2,2 v 4 c 0,1.104 0.896,2 2,2 H 0 C 1.104,8 2,7.104 2,6 V 2 C 2,0.896 1.104,0 0,0"
       style="fill:#4c4c4c;fill-opacity:1;fill-rule:nonzero;stroke:none"
       id="path160" /></g><g
     id="g162"
     transform="matrix(1.3333333,0,0,-1.3333333,178.66666,186.66667)"><path
       inkscape:connector-curvature="0"
       d="m 0,0 h -4 c -1.104,0 -2,0.896 -2,2 v 4 c 0,1.104 0.896,2 2,2 H 0 C 1.104,8 2,7.104 2,6 V 2 C 2,0.896 1.104,0 0,0"
       style="fill:#4c4c4c;fill-opacity:1;fill-rule:nonzero;stroke:none"
       id="path164" /></g><g
     id="g166"
     transform="matrix(1.3333333,0,0,-1.3333333,194.66666,186.66667)"><path
       inkscape:connector-curvature="0"
       d="m 0,0 h -4 c -1.104,0 -2,0.896 -2,2 v 4 c 0,1.104 0.896,2 2,2 H 0 C 1.104,8 2,7.104 2,6 V 2 C 2,0.896 1.104,0 0,0"
       style="fill:#4c4c4c;fill-opacity:1;fill-rule:nonzero;stroke:none"
       id="path168" /></g><g
     id="g170"
     transform="matrix(1.3333333,0,0,-1.3333333,210.66666,186.66667)"><path
       inkscape:connector-curvature="0"
       d="m 0,0 h -4 c -1.104,0 -2,0.896 -2,2 v 4 c 0,1.104 0.896,2 2,2 H 0 C 1.104,8 2,7.104 2,6 V 2 C 2,0.896 1.104,0 0,0"
       style="fill:#4c4c4c;fill-opacity:1;fill-rule:nonzero;stroke:none"
       id="path172" /></g><g
     id="g174"
     transform="matrix(1.3333333,0,0,-1.3333333,226.66666,186.66667)"><path
       inkscape:connector-curvature="0"
       d="m 0,0 h -4 c -1.104,0 -2,0.896 -2,2 v 4 c 0,1.104 0.896,2 2,2 H 0 C 1.104,8 2,7.104 2,6 V 2 C 2,0.896 1.104,0 0,0"
       style="fill:#4c4c4c;fill-opacity:1;fill-rule:nonzero;stroke:none"
       id="path176" /></g><g
     id="g178"
     transform="matrix(1.3333333,0,0,-1.3333333,253.33333,186.66667)"><path
       inkscape:connector-curvature="0"
       d="m 0,0 h -12 c -1.104,0 -2,0.896 -2,2 v 4 c 0,1.104 0.896,2 2,2 H 0 C 1.104,8 2,7.104 2,6 V 2 C 2,0.896 1.104,0 0,0"
       style="fill:#4c4c4c;fill-opacity:1;fill-rule:nonzero;stroke:none"
       id="path180" /></g><g
     id="g182"
     transform="matrix(1.3333333,0,0,-1.3333333,45.333332,170.66667)"><path
       inkscape:connector-curvature="0"
       d="m 0,0 h -8 c -1.104,0 -2,0.896 -2,2 v 4 c 0,1.104 0.896,2 2,2 H 0 C 1.104,8 2,7.104 2,6 V 2 C 2,0.896 1.104,0 0,0"
       style="fill:#4c4c4c;fill-opacity:1;fill-rule:nonzero;stroke:none"
       id="path184" /></g><g
     id="g186"
     transform="matrix(1.3333333,0,0,-1.3333333,61.333332,170.66667)"><path
       inkscape:connector-curvature="0"
       d="m 0,0 h -4 c -1.104,0 -2,0.896 -2,2 v 4 c 0,1.104 0.896,2 2,2 H 0 C 1.104,8 2,7.104 2,6 V 2 C 2,0.896 1.104,0 0,0"
       style="fill:#4c4c4c;fill-opacity:1;fill-rule:nonzero;stroke:none"
       id="path188" /></g><g
     id="g190"
     transform="matrix(1.3333333,0,0,-1.3333333,77.333331,170.66667)"><path
       inkscape:connector-curvature="0"
       d="m 0,0 h -4 c -1.104,0 -2,0.896 -2,2 v 4 c 0,1.104 0.896,2 2,2 H 0 C 1.104,8 2,7.104 2,6 V 2 C 2,0.896 1.104,0 0,0"
       style="fill:#4c4c4c;fill-opacity:1;fill-rule:nonzero;stroke:none"
       id="path192" /></g><g
     id="g194"
     transform="matrix(1.3333333,0,0,-1.3333333,93.333331,170.66667)"><path
       inkscape:connector-curvature="0"
       d="m 0,0 h -4 c -1.104,0 -2,0.896 -2,2 v 4 c 0,1.104 0.896,2 2,2 H 0 C 1.104,8 2,7.104 2,6 V 2 C 2,0.896 1.104,0 0,0"
       style="fill:#4c4c4c;fill-opacity:1;fill-rule:nonzero;stroke:none"
       id="path196" /></g><g
     id="g198"
     transform="matrix(1.3333333,0,0,-1.3333333,109.33333,170.66667)"><path
       inkscape:connector-curvature="0"
       d="m 0,0 h -4 c -1.104,0 -2,0.896 -2,2 v 4 c 0,1.104 0.896,2 2,2 H 0 C 1.104,8 2,7.104 2,6 V 2 C 2,0.896 1.104,0 0,0"
       style="fill:#4c4c4c;fill-opacity:1;fill-rule:nonzero;stroke:none"
       id="path200" /></g><g
     id="g202"
     transform="matrix(1.3333333,0,0,-1.3333333,125.33333,170.66667)"><path
       inkscape:connector-curvature="0"
       d="m 0,0 h -4 c -1.104,0 -2,0.896 -2,2 v 4 c 0,1.104 0.896,2 2,2 H 0 C 1.104,8 2,7.104 2,6 V 2 C 2,0.896 1.104,0 0,0"
       style="fill:#4c4c4c;fill-opacity:1;fill-rule:nonzero;stroke:none"
       id="path204" /></g><g
     id="g206"
     transform="matrix(1.3333333,0,0,-1.3333333,141.33333,170.66667)"><path
       inkscape:connector-curvature="0"
       d="m 0,0 h -4 c -1.104,0 -2,0.896 -2,2 v 4 c 0,1.104 0.896,2 2,2 H 0 C 1.104,8 2,7.104 2,6 V 2 C 2,0.896 1.104,0 0,0"
       style="fill:#4c4c4c;fill-opacity:1;fill-rule:nonzero;stroke:none"
       id="path208" /></g><g
     id="g210"
     transform="matrix(1.3333333,0,0,-1.3333333,157.33333,170.66667)"><path
       inkscape:connector-curvature="0"
       d="m 0,0 h -4 c -1.104,0 -2,0.896 -2,2 v 4 c 0,1.104 0.896,2 2,2 H 0 C 1.104,8 2,7.104 2,6 V 2 C 2,0.896 1.104,0 0,0"
       style="fill:#4c4c4c;fill-opacity:1;fill-rule:nonzero;stroke:none"
       id="path212" /></g><g
     id="g214"
     transform="matrix(1.3333333,0,0,-1.3333333,173.33333,170.66667)"><path
       inkscape:connector-curvature="0"
       d="m 0,0 h -4 c -1.104,0 -2,0.896 -2,2 v 4 c 0,1.104 0.896,2 2,2 H 0 C 1.104,8 2,7.104 2,6 V 2 C 2,0.896 1.104,0 0,0"
       style="fill:#4c4c4c;fill-opacity:1;fill-rule:nonzero;stroke:none"
       id="path216" /></g><g
     id="g218"
     transform="matrix(1.3333333,0,0,-1.3333333,189.33333,170.66667)"><path
       inkscape:connector-curvature="0"
       d="m 0,0 h -4 c -1.104,0 -2,0.896 -2,2 v 4 c 0,1.104 0.896,2 2,2 H 0 C 1.104,8 2,7.104 2,6 V 2 C 2,0.896 1.104,0 0,0"
       style="fill:#4c4c4c;fill-opacity:1;fill-rule:nonzero;stroke:none"
       id="path220" /></g><g
     id="g222"
     transform="matrix(1.3333333,0,0,-1.3333333,205.33333,170.66667)"><path
       inkscape:connector-curvature="0"
       d="m 0,0 h -4 c -1.104,0 -2,0.896 -2,2 v 4 c 0,1.104 0.896,2 2,2 H 0 C 1.104,8 2,7.104 2,6 V 2 C 2,0.896 1.104,0 0,0"
       style="fill:#4c4c4c;fill-opacity:1;fill-rule:nonzero;stroke:none"
       id="path224" /></g><g
     id="g226"
     transform="matrix(1.3333333,0,0,-1.3333333,221.33333,170.66667)"><path
       inkscape:connector-curvature="0"
       d="m 0,0 h -4 c -1.104,0 -2,0.896 -2,2 v 4 c 0,1.104 0.896,2 2,2 H 0 C 1.104,8 2,7.104 2,6 V 2 C 2,0.896 1.104,0 0,0"
       style="fill:#4c4c4c;fill-opacity:1;fill-rule:nonzero;stroke:none"
       id="path228" /></g><g
     id="g230"
     transform="matrix(1.3333333,0,0,-1.3333333,237.33333,170.66667)"><path
       inkscape:connector-curvature="0"
       d="m 0,0 h -4 c -1.104,0 -2,0.896 -2,2 v 4 c 0,1.104 0.896,2 2,2 H 0 C 1.104,8 2,7.104 2,6 V 2 C 2,0.896 1.104,0 0,0"
       style="fill:#4c4c4c;fill-opacity:1;fill-rule:nonzero;stroke:none"
       id="path232" /></g><g
     id="g234"
     transform="matrix(1.3333333,0,0,-1.3333333,55.999999,202.66667)"><path
       inkscape:connector-curvature="0"
       d="m 0,0 h -8 c -1.104,0 -2,0.896 -2,2 v 4 c 0,1.104 0.896,2 2,2 H 0 C 1.104,8 2,7.104 2,6 V 2 C 2,0.896 1.104,0 0,0"
       style="fill:#4c4c4c;fill-opacity:1;fill-rule:nonzero;stroke:none"
       id="path236" /></g><g
     id="g238"
     transform="matrix(1.3333333,0,0,-1.3333333,34.666666,202.66667)"><path
       inkscape:connector-curvature="0"
       d="m 0,0 h -4 c -1.104,0 -2,0.896 -2,2 v 4 c 0,1.104 0.896,2 2,2 H 0 C 1.104,8 2,7.104 2,6 V 2 C 2,0.896 1.104,0 0,0"
       style="fill:#4c4c4c;fill-opacity:1;fill-rule:nonzero;stroke:none"
       id="path240" /></g><g
     id="g242"
     transform="matrix(1.3333333,0,0,-1.3333333,71.999998,202.66667)"><path
       inkscape:connector-curvature="0"
       d="m 0,0 h -4 c -1.104,0 -2,0.896 -2,2 v 4 c 0,1.104 0.896,2 2,2 H 0 C 1.104,8 2,7.104 2,6 V 2 C 2,0.896 1.104,0 0,0"
       style="fill:#4c4c4c;fill-opacity:1;fill-rule:nonzero;stroke:none"
       id="path244" /></g><g
     id="g246"
     transform="matrix(1.3333333,0,0,-1.3333333,87.999998,202.66667)"><path
       inkscape:connector-curvature="0"
       d="m 0,0 h -4 c -1.104,0 -2,0.896 -2,2 v 4 c 0,1.104 0.896,2 2,2 H 0 C 1.104,8 2,7.104 2,6 V 2 C 2,0.896 1.104,0 0,0"
       style="fill:#4c4c4c;fill-opacity:1;fill-rule:nonzero;stroke:none"
       id="path248" /></g><g
     id="g250"
     transform="matrix(1.3333333,0,0,-1.3333333,104,202.66667)"><path
       inkscape:connector-curvature="0"
       d="m 0,0 h -4 c -1.104,0 -2,0.896 -2,2 v 4 c 0,1.104 0.896,2 2,2 H 0 C 1.104,8 2,7.104 2,6 V 2 C 2,0.896 1.104,0 0,0"
       style="fill:#4c4c4c;fill-opacity:1;fill-rule:nonzero;stroke:none"
       id="path252" /></g><g
     id="g254"
     transform="matrix(1.3333333,0,0,-1.3333333,120,202.66667)"><path
       inkscape:connector-curvature="0"
       d="m 0,0 h -4 c -1.104,0 -2,0.896 -2,2 v 4 c 0,1.104 0.896,2 2,2 H 0 C 1.104,8 2,7.104 2,6 V 2 C 2,0.896 1.104,0 0,0"
       style="fill:#4c4c4c;fill-opacity:1;fill-rule:nonzero;stroke:none"
       id="path256" /></g><g
     id="g258"
     transform="matrix(1.3333333,0,0,-1.3333333,136,202.66667)"><path
       inkscape:connector-curvature="0"
       d="m 0,0 h -4 c -1.104,0 -2,0.896 -2,2 v 4 c 0,1.104 0.896,2 2,2 H 0 C 1.104,8 2,7.104 2,6 V 2 C 2,0.896 1.104,0 0,0"
       style="fill:#4c4c4c;fill-opacity:1;fill-rule:nonzero;stroke:none"
       id="path260" /></g><g
     id="g262"
     transform="matrix(1.3333333,0,0,-1.3333333,152,202.66667)"><path
       inkscape:connector-curvature="0"
       d="m 0,0 h -4 c -1.104,0 -2,0.896 -2,2 v 4 c 0,1.104 0.896,2 2,2 H 0 C 1.104,8 2,7.104 2,6 V 2 C 2,0.896 1.104,0 0,0"
       style="fill:#4c4c4c;fill-opacity:1;fill-rule:nonzero;stroke:none"
       id="path264" /></g><g
     id="g266"
     transform="matrix(1.3333333,0,0,-1.3333333,168,202.66667)"><path
       inkscape:connector-curvature="0"
       d="m 0,0 h -4 c -1.104,0 -2,0.896 -2,2 v 4 c 0,1.104 0.896,2 2,2 H 0 C 1.104,8 2,7.104 2,6 V 2 C 2,0.896 1.104,0 0,0"
       style="fill:#4c4c4c;fill-opacity:1;fill-rule:nonzero;stroke:none"
       id="path268" /></g><g
     id="g270"
     transform="matrix(1.3333333,0,0,-1.3333333,184,202.66667)"><path
       inkscape:connector-curvature="0"
       d="m 0,0 h -4 c -1.104,0 -2,0.896 -2,2 v 4 c 0,1.104 0.896,2 2,2 H 0 C 1.104,8 2,7.104 2,6 V 2 C 2,0.896 1.104,0 0,0"
       style="fill:#4c4c4c;fill-opacity:1;fill-rule:nonzero;stroke:none"
       id="path272" /></g><g
     id="g274"
     transform="matrix(1.3333333,0,0,-1.3333333,200,202.66667)"><path
       inkscape:connector-curvature="0"
       d="m 0,0 h -4 c -1.104,0 -2,0.896 -2,2 v 4 c 0,1.104 0.896,2 2,2 H 0 C 1.104,8 2,7.104 2,6 V 2 C 2,0.896 1.104,0 0,0"
       style="fill:#4c4c4c;fill-opacity:1;fill-rule:nonzero;stroke:none"
       id="path276" /></g><g
     id="g278"
     transform="matrix(1.3333333,0,0,-1.3333333,221.33333,202.66667)"><path
       inkscape:connector-curvature="0"
       d="m 0,0 h -8 c -1.104,0 -2,0.896 -2,2 v 4 c 0,1.104 0.896,2 2,2 H 0 C 1.104,8 2,7.104 2,6 V 2 C 2,0.896 1.104,0 0,0"
       style="fill:#4c4c4c;fill-opacity:1;fill-rule:nonzero;stroke:none"
       id="path280" /></g><g
     id="g282"
     transform="matrix(1.3333333,0,0,-1.3333333,237.33333,202.66667)"><path
       inkscape:connector-curvature="0"
       d="m 0,0 h -4 c -1.104,0 -2,0.896 -2,2 v 4 c 0,1.104 0.896,2 2,2 H 0 C 1.104,8 2,7.104 2,6 V 2 C 2,0.896 1.104,0 0,0"
       style="fill:#4c4c4c;fill-opacity:1;fill-rule:nonzero;stroke:none"
       id="path284" /></g><g
     id="g286"
     transform="matrix(1.3333333,0,0,-1.3333333,253.33333,202.66667)"><path
       inkscape:connector-curvature="0"
       d="m 0,0 h -4 c -1.104,0 -2,0.896 -2,2 v 4 c 0,1.104 0.896,2 2,2 H 0 C 1.104,8 2,7.104 2,6 V 2 C 2,0.896 1.104,0 0,0"
       style="fill:#4c4c4c;fill-opacity:1;fill-rule:nonzero;stroke:none"
       id="path288" /></g><g
     id="g290"
     transform="matrix(1.3333333,0,0,-1.3333333,258.66666,170.66667)"><path
       inkscape:connector-curvature="0"
       d="m 0,0 h -8 c -1.104,0 -2,0.896 -2,2 v 4 c 0,1.104 0.896,2 2,2 H 0 C 1.104,8 2,7.104 2,6 V 2 C 2,0.896 1.104,0 0,0"
       style="fill:#4c4c4c;fill-opacity:1;fill-rule:nonzero;stroke:none"
       id="path292" /></g><g
     id="g294"
     transform="matrix(1.3333333,0,0,-1.3333333,194.66666,218.66667)"><path
       inkscape:connector-curvature="0"
       d="m 0,0 h -96 c -1.104,0 -2,0.896 -2,2 v 4 c 0,1.104 0.896,2 2,2 H 0 C 1.104,8 2,7.104 2,6 V 2 C 2,0.896 1.104,0 0,0"
       style="fill:#4c4c4c;fill-opacity:1;fill-rule:nonzero;stroke:none"
       id="path296" /></g><g
     id="g298"
     transform="matrix(1.3333333,0,0,-1.3333333,295.99999,154.66667)"><path
       inkscape:connector-curvature="0"
       d="m 0,0 h -12 c -1.104,0 -2,0.896 -2,2 v 4 c 0,1.104 0.896,2 2,2 H 0 C 1.104,8 2,7.104 2,6 V 2 C 2,0.896 1.104,0 0,0"
       style="fill:#bf9a57;fill-opacity:1;fill-rule:nonzero;stroke:none"
       id="path300" /></g><g
     id="g302"
     transform="matrix(1.3333333,0,0,-1.3333333,295.99999,170.66667)"><path
       inkscape:connector-curvature="0"
       d="m 0,0 h -12 c -1.104,0 -2,0.896 -2,2 v 4 c 0,1.104 0.896,2 2,2 H 0 C 1.104,8 2,7.104 2,6 V 2 C 2,0.896 1.104,0 0,0"
       style="fill:#bf9a57;fill-opacity:1;fill-rule:nonzero;stroke:none"
       id="path304" /></g><g
     id="g306"
     transform="matrix(1.3333333,0,0,-1.3333333,295.99999,186.66667)"><path
       inkscape:connector-curvature="0"
       d="m 0,0 h -12 c -1.104,0 -2,0.896 -2,2 v 4 c 0,1.104 0.896,2 2,2 H 0 C 1.104,8 2,7.104 2,6 V 2 C 2,0.896 1.104,0 0,0"
       style="fill:#bf9a57;fill-opacity:1;fill-rule:nonzero;stroke:none"
       id="path308" /></g><g
     id="g310"
     transform="matrix(1.3333333,0,0,-1.3333333,295.99999,202.66667)"><path
       inkscape:connector-curvature="0"
       d="m 0,0 h -12 c -1.104,0 -2,0.896 -2,2 v 4 c 0,1.104 0.896,2 2,2 H 0 C 1.104,8 2,7.104 2,6 V 2 C 2,0.896 1.104,0 0,0"
       style="fill:#bf9a57;fill-opacity:1;fill-rule:nonzero;stroke:none"
       id="path312" /></g><g
     id="g314"
     transform="matrix(1.3333333,0,0,-1.3333333,117.33333,105.33334)"><path
       inkscape:connector-curvature="0"
       d="M 0,0 H -20 V -8 H 0 c 2.209,0 4,1.791 4,4 0,2.209 -1.791,4 -4,4"
       style="fill:#a6a6a6;fill-opacity:1;fill-rule:nonzero;stroke:none"
       id="path316" /></g><g
     id="g318"
     transform="matrix(1.3333333,0,0,-1.3333333,90.666664,105.33334)"><path
       inkscape:connector-curvature="0"
       d="m 0,0 h -40 c -2.209,0 -4,-1.791 -4,-4 0,-2.209 1.791,-4 4,-4 H 0 Z"
       style="fill:#808080;fill-opacity:1;fill-rule:nonzero;stroke:none"
       id="path320" /></g></svg>
