<?xml version="1.0" encoding="UTF-8" standalone="no"?>
<svg
   xmlns:dc="http://purl.org/dc/elements/1.1/"
   xmlns:cc="http://creativecommons.org/ns#"
   xmlns:rdf="http://www.w3.org/1999/02/22-rdf-syntax-ns#"
   xmlns:svg="http://www.w3.org/2000/svg"
   xmlns="http://www.w3.org/2000/svg"
   xmlns:sodipodi="http://sodipodi.sourceforge.net/DTD/sodipodi-0.dtd"
   xmlns:inkscape="http://www.inkscape.org/namespaces/inkscape"
   viewBox="0 0 341.33334 341.33334"
   height="341.33334"
   width="341.33334"
   xml:space="preserve"
   id="svg2"
   version="1.1"
   sodipodi:docname="Commodore - 64-content.svg"
   inkscape:version="0.92.2 (5c3e80d, 2017-08-06)"
   inkscape:export-filename="D:\Documents\Github\Retrosystem-retroarch-theme\png\Commodore - 64-content.png"
   inkscape:export-xdpi="72"
   inkscape:export-ydpi="72"><sodipodi:namedview
     pagecolor="#ffffff"
     bordercolor="#666666"
     borderopacity="1"
     objecttolerance="10"
     gridtolerance="10"
     guidetolerance="10"
     inkscape:pageopacity="0"
     inkscape:pageshadow="2"
     inkscape:window-width="1024"
     inkscape:window-height="705"
     id="namedview30"
     showgrid="false"
     inkscape:zoom="0.69140623"
     inkscape:cx="-119.00746"
     inkscape:cy="181.52416"
     inkscape:window-x="-8"
     inkscape:window-y="-8"
     inkscape:window-maximized="1"
     inkscape:current-layer="svg2"
     inkscape:pagecheckerboard="true" /><metadata
     id="metadata8"><rdf:RDF><cc:Work
         rdf:about=""><dc:format>image/svg+xml</dc:format><dc:type
           rdf:resource="http://purl.org/dc/dcmitype/StillImage" /><dc:title></dc:title></cc:Work></rdf:RDF></metadata><defs
     id="defs6"><clipPath
       id="clipPath18"
       clipPathUnits="userSpaceOnUse"><path
         id="path16"
         d="M 0,256 H 256 V 0 H 0 Z" /></clipPath><clipPath
       id="clipPath26"
       clipPathUnits="userSpaceOnUse"><path
         id="path24"
         d="M 4,252 H 252 V 4 H 4 Z" /></clipPath></defs><g
     id="g22"
     transform="matrix(1.3333333,0,0,-1.3333333,0,341.33333)" /><path
     id="path38"
     style="fill:#191919;fill-opacity:1;fill-rule:nonzero;stroke:none;stroke-width:1.33333325"
     d="m 170.66666,213.33333 c -23.564,0 -42.66667,-19.10267 -42.66667,-42.66667 0,-23.564 19.10267,-42.66666 42.66667,-42.66666 23.564,0 42.66667,19.10266 42.66667,42.66666 0,23.564 -19.10267,42.66667 -42.66667,42.66667 M 325.33332,85.333333 V 16.000002 H 15.999997 V 319.99999 c 0,2.94534 2.388,5.33334 5.333333,5.33334 h 112 c 0,-2.94534 2.388,-5.33334 5.33333,-5.33334 2.94533,0 5.33333,2.388 5.33333,5.33334 h 53.33334 c 0,-2.94534 2.388,-5.33334 5.33333,-5.33334 2.94533,0 5.33333,2.388 5.33333,5.33334 h 112 c 2.94533,0 5.33333,-2.388 5.33333,-5.33334 V 101.33333 H 314.66666 V 85.333333 Z"
     inkscape:connector-curvature="0" /><path
     id="path42"
     style="fill:#e6e6e6;fill-opacity:1;fill-rule:nonzero;stroke:none;stroke-width:1.3333333;font-variant-east_asian:normal;opacity:1;vector-effect:none;stroke-linecap:butt;stroke-linejoin:miter;stroke-miterlimit:4;stroke-dasharray:none;stroke-dashoffset:0;stroke-opacity:1"
     d="M 303.99999,101.33334 H 37.33333 c -2.945333,0 -5.333333,-2.388 -5.333333,-5.333333 V 37.333342 c 0,-2.945334 2.388,-5.333334 5.333333,-5.333334 h 266.66666 c 2.94533,0 5.33333,2.388 5.33333,5.333334 v 58.666665 c 0,2.945333 -2.388,5.333333 -5.33333,5.333333"
     inkscape:connector-curvature="0" /><path
     id="path46"
     style="fill:#333333;fill-opacity:1;fill-rule:nonzero;stroke:none;stroke-width:1.33333325"
     d="m 170.66666,314.66666 v 0 c -8.836,0 -16,-7.164 -16,-16 v -48 c 0,-8.836 7.164,-16 16,-16 8.836,0 16,7.164 16,16 v 48 c 0,8.836 -7.164,16 -16,16"
     inkscape:connector-curvature="0" /><path
     id="path50"
     style="fill:#333333;fill-opacity:1;fill-rule:nonzero;stroke:none;stroke-width:1.33333325"
     d="m 234.66666,184 c 0,4.41733 -3.58267,8 -8,8 -4.41733,0 -8,-3.58267 -8,-8 0,-4.41733 3.58267,-8 8,-8 4.41733,0 8,3.58267 8,8"
     inkscape:connector-curvature="0" /><path
     id="path54"
     style="fill:#262626;fill-opacity:1;fill-rule:nonzero;stroke:none;stroke-width:1.33333325"
     d="m 170.66666,202.66667 c -17.67333,0 -32,-14.32667 -32,-32 0,-17.67333 14.32667,-32 32,-32 17.67333,0 32,14.32667 32,32 0,17.67333 -14.32667,32 -32,32 m 0,-74.66666 c -23.564,0 -42.66667,19.10266 -42.66667,42.66666 0,23.564 19.10267,42.66667 42.66667,42.66667 23.564,0 42.66667,-19.10267 42.66667,-42.66667 0,-23.564 -19.10267,-42.66666 -42.66667,-42.66666"
     inkscape:connector-curvature="0" /><path
     id="path58"
     style="fill:#333333;fill-opacity:1;fill-rule:nonzero;stroke:none;stroke-width:1.33333325"
     d="m 170.66666,125.33334 c -25.03733,0 -45.33333,20.296 -45.33333,45.33333 0,25.036 20.296,45.33333 45.33333,45.33333 25.036,0 45.33333,-20.29733 45.33333,-45.33333 0,-25.03733 -20.29733,-45.33333 -45.33333,-45.33333 m 0,5.33333 c 22.056,0 40,17.944 40,40 0,22.056 -17.944,40 -40,40 -22.056,0 -40,-17.944 -40,-40 0,-22.056 17.944,-40 40,-40"
     inkscape:connector-curvature="0" /><g
     id="g890"
     transform="translate(27.118634,6.799115)"><path
       id="path70"
       style="fill:#263979;fill-opacity:1;fill-rule:nonzero;stroke:none;stroke-width:2.63759708"
       d="m 115.66809,70.233061 h -3.77175 V 49.316903 h 3.77175 z"
       inkscape:connector-curvature="0" /><path
       id="path72"
       style="fill:#263979;fill-opacity:1;fill-rule:nonzero;stroke:none;stroke-width:2.63759708"
       d="m 123.14567,70.233061 h -3.77175 V 55.583834 h 3.77175 z m 0,-17.988425 h -3.77175 v -2.927733 h 3.77175 z"
       inkscape:connector-curvature="0" /><g
       transform="matrix(2.6375971,0,0,-2.6375971,134.34782,58.173968)"
       id="g74"><path
         id="path76"
         style="fill:#263979;fill-opacity:1;fill-rule:nonzero;stroke:none"
         d="m 0,0 c -0.928,0 -1.393,-0.536 -1.393,-1.609 0,-0.841 0.079,-1.38 0.238,-1.618 0.158,-0.238 0.516,-0.358 1.074,-0.358 0.583,0 0.955,0.11 1.118,0.329 0.162,0.218 0.243,0.719 0.243,1.501 0,0.729 -0.08,1.203 -0.24,1.424 C 0.88,-0.11 0.533,0 0,0 m -2.842,-4.572 v 7.93 h 1.431 V 0.186 L -1.38,0.174 c 0.245,0.585 0.868,0.878 1.867,0.878 0.858,0 1.446,-0.195 1.764,-0.584 0.319,-0.39 0.478,-1.111 0.478,-2.164 0,-1.151 -0.161,-1.928 -0.484,-2.333 -0.323,-0.405 -0.942,-0.607 -1.858,-0.607 -0.928,0 -1.538,0.314 -1.83,0.941 h -0.031 l 0.063,-0.877 z"
         inkscape:connector-curvature="0" /></g><g
       transform="matrix(2.6375971,0,0,-2.6375971,144.79113,55.584369)"
       id="g78"><path
         id="path80"
         style="fill:#263979;fill-opacity:1;fill-rule:nonzero;stroke:none"
         d="M 0,0 H 1.43 L 1.343,-0.779 1.374,-0.784 c 0.341,0.581 0.878,0.871 1.611,0.871 1.049,0 1.574,-0.616 1.574,-1.847 V -2.15 H 3.21 c 0.017,0.151 0.025,0.25 0.025,0.297 0,0.592 -0.248,0.889 -0.743,0.889 -0.708,0 -1.062,-0.44 -1.062,-1.319 V -5.554 H 0 Z"
         inkscape:connector-curvature="0" /></g><g
       transform="matrix(2.6375971,0,0,-2.6375971,169.08763,61.3921)"
       id="g82"><path
         id="path84"
         style="fill:#263979;fill-opacity:1;fill-rule:nonzero;stroke:none"
         d="m 0,0 -0.006,0.221 c 0,0.441 -0.082,0.728 -0.247,0.86 -0.164,0.131 -0.521,0.197 -1.071,0.197 -0.533,0 -0.879,-0.079 -1.04,-0.238 C -2.524,0.881 -2.604,0.534 -2.604,0 Z m -0.012,-1.574 h 1.436 v -0.215 c 0,-1.085 -0.874,-1.627 -2.623,-1.627 -1.187,0 -1.963,0.188 -2.329,0.563 -0.367,0.376 -0.55,1.172 -0.55,2.388 0,1.081 0.191,1.807 0.574,2.179 0.384,0.372 1.131,0.558 2.242,0.558 1.066,0 1.78,-0.181 2.143,-0.544 0.362,-0.362 0.543,-1.073 0.543,-2.135 v -0.406 h -4.041 c -0.008,-0.124 -0.012,-0.206 -0.012,-0.244 0,-0.546 0.09,-0.911 0.271,-1.093 0.182,-0.182 0.543,-0.273 1.084,-0.273 0.525,0 0.866,0.054 1.024,0.16 0.158,0.107 0.238,0.336 0.238,0.689"
         inkscape:connector-curvature="0" /></g><g
       transform="matrix(2.6375971,0,0,-2.6375971,186.15259,55.584369)"
       id="g86"><path
         id="path88"
         style="fill:#263979;fill-opacity:1;fill-rule:nonzero;stroke:none"
         d="M 0,0 V -1.011 H -2.298 V -3.8 c 0,-0.515 0.21,-0.772 0.631,-0.772 0.462,0 0.693,0.312 0.693,0.935 v 0.221 h 1.218 v -0.279 c 0,-0.256 -0.009,-0.474 -0.025,-0.657 -0.08,-0.848 -0.758,-1.272 -2.036,-1.272 -1.274,0 -1.911,0.544 -1.911,1.633 v 2.98 H -4.503 V 0 h 0.775 v 1.243 h 1.43 V 0 Z"
         inkscape:connector-curvature="0" /></g><g
       transform="matrix(2.6375971,0,0,-2.6375971,188.96928,55.584369)"
       id="g90"><path
         id="path92"
         style="fill:#263979;fill-opacity:1;fill-rule:nonzero;stroke:none"
         d="M 0,0 H 1.43 L 1.343,-0.779 1.374,-0.784 c 0.341,0.581 0.878,0.871 1.611,0.871 1.049,0 1.574,-0.616 1.574,-1.847 V -2.15 H 3.21 c 0.017,0.151 0.025,0.25 0.025,0.297 0,0.592 -0.248,0.889 -0.743,0.889 -0.708,0 -1.062,-0.44 -1.062,-1.319 V -5.554 H 0 Z"
         inkscape:connector-curvature="0" /></g><g
       transform="matrix(2.6375971,0,0,-2.6375971,209.97142,58.18926)"
       id="g94"><path
         id="path96"
         style="fill:#263979;fill-opacity:1;fill-rule:nonzero;stroke:none"
         d="m 0,0 c -0.595,0 -0.974,-0.1 -1.137,-0.299 -0.162,-0.2 -0.243,-0.665 -0.243,-1.397 0,-0.837 0.077,-1.36 0.231,-1.569 0.154,-0.209 0.539,-0.314 1.155,-0.314 0.596,0 0.971,0.111 1.127,0.331 0.157,0.221 0.235,0.752 0.235,1.592 0,0.709 -0.082,1.162 -0.244,1.36 C 0.962,-0.099 0.587,0 0,0 m 0.012,1.052 c 1.154,0 1.909,-0.172 2.267,-0.515 0.359,-0.342 0.538,-1.066 0.538,-2.17 0,-1.231 -0.175,-2.039 -0.525,-2.422 -0.35,-0.384 -1.087,-0.575 -2.211,-0.575 -1.22,0 -2.01,0.178 -2.37,0.534 -0.36,0.356 -0.54,1.141 -0.54,2.353 0,1.166 0.177,1.923 0.531,2.272 0.354,0.348 1.124,0.523 2.31,0.523"
         inkscape:connector-curvature="0" /></g><g
       transform="matrix(2.6375971,0,0,-2.6375971,90.795555,54.592105)"
       id="g98"><path
         id="path100"
         style="fill:#263979;fill-opacity:1;fill-rule:nonzero;stroke:none"
         d="M 0,0 H 4 L 2.131,-2 H 0 Z"
         inkscape:connector-curvature="0" /></g><g
       transform="matrix(2.6375971,0,0,-2.6375971,90.795555,65.142486)"
       id="g102"><path
         id="path104"
         style="fill:#ff0000;fill-opacity:1;fill-rule:nonzero;stroke:none"
         d="M 0,0 H 4 L 2.131,2 H 0 Z"
         inkscape:connector-curvature="0" /></g><g
       transform="matrix(2.6375971,0,0,-2.6375971,77.050777,65.313937)"
       id="g106"><path
         id="path108"
         style="fill:#263979;fill-opacity:1;fill-rule:nonzero;stroke:none"
         d="M 0,0 V 6.065 H -2.789 V 0 -0.824 -1.935 h 8 V 0 Z"
         inkscape:connector-curvature="0" /></g></g></svg>