<?xml version="1.0" encoding="UTF-8" standalone="no"?>
<svg
   xmlns:dc="http://purl.org/dc/elements/1.1/"
   xmlns:cc="http://creativecommons.org/ns#"
   xmlns:rdf="http://www.w3.org/1999/02/22-rdf-syntax-ns#"
   xmlns:svg="http://www.w3.org/2000/svg"
   xmlns="http://www.w3.org/2000/svg"
   xmlns:sodipodi="http://sodipodi.sourceforge.net/DTD/sodipodi-0.dtd"
   xmlns:inkscape="http://www.inkscape.org/namespaces/inkscape"
   viewBox="0 0 341.33334 341.33334"
   height="341.33334"
   width="341.33334"
   xml:space="preserve"
   id="svg2"
   version="1.1"
   sodipodi:docname="Commodore - 64.svg"
   inkscape:version="0.92.2 (5c3e80d, 2017-08-06)"><sodipodi:namedview
     pagecolor="#ffffff"
     bordercolor="#666666"
     borderopacity="1"
     objecttolerance="10"
     gridtolerance="10"
     guidetolerance="10"
     inkscape:pageopacity="0"
     inkscape:pageshadow="2"
     inkscape:window-width="1024"
     inkscape:window-height="705"
     id="namedview159"
     showgrid="false"
     inkscape:zoom="0.69140625"
     inkscape:cx="274.35756"
     inkscape:cy="257.60139"
     inkscape:window-x="-8"
     inkscape:window-y="-8"
     inkscape:window-maximized="1"
     inkscape:current-layer="svg2"
     inkscape:pagecheckerboard="true" /><metadata
     id="metadata8"><rdf:RDF><cc:Work
         rdf:about=""><dc:format>image/svg+xml</dc:format><dc:type
           rdf:resource="http://purl.org/dc/dcmitype/StillImage" /><dc:title /></cc:Work></rdf:RDF></metadata><defs
     id="defs6"><clipPath
       id="clipPath18"
       clipPathUnits="userSpaceOnUse"><path
         id="path16"
         d="M 0,256 H 256 V 0 H 0 Z" /></clipPath><clipPath
       id="clipPath26"
       clipPathUnits="userSpaceOnUse"><path
         id="path24"
         d="M 4,192 H 252 V 64 H 4 Z" /></clipPath></defs><g
     id="g22"
     transform="matrix(1.3333333,0,0,-1.3333333,0,341.33333)" /><path
     id="path38"
     style="fill:#c8beb7;fill-opacity:1;fill-rule:nonzero;stroke:none;stroke-width:1.33333325"
     d="M 314.66666,245.33333 H 26.666667 c -5.890666,0 -10.666666,-4.776 -10.666666,-10.66667 V 101.33333 C 16.000001,98.388 18.388001,96 21.333334,96 H 319.99999 c 2.94534,0 5.33334,2.388 5.33334,5.33333 v 133.33333 c 0,5.89067 -4.776,10.66667 -10.66667,10.66667"
     inkscape:connector-curvature="0" /><path
     id="path42"
     style="fill:#1a1a1a;fill-opacity:1;fill-rule:nonzero;stroke:none;stroke-width:1.33333325"
     d="m 29.999999,144 v 26.66667 H 24.666666 V 208 h 39.333332 v 10.66666 H 197.33333 V 208 h 60.66666 v -32 h 5.33334 v -32 z"
     inkscape:connector-curvature="0"
     sodipodi:nodetypes="ccccccccccccc" /><path
     inkscape:connector-curvature="0"
     d="m 298.66666,208 h -21.33333 v -64 h 21.33333 z"
     style="fill:#484537;fill-opacity:1;fill-rule:nonzero;stroke:none;stroke-width:1.33333325"
     id="path44" /><path
     inkscape:connector-curvature="0"
     d="M 325.33333,104 H 16 v -2.66666 h 309.33333 z"
     style="fill:#ac9d93;fill-opacity:1;fill-rule:nonzero;stroke:none;stroke-width:1.33333325"
     id="path46" /><path
     inkscape:connector-curvature="0"
     d="M 325.33333,109.33334 H 16 v -2.66667 h 309.33333 z"
     style="fill:#ac9d93;fill-opacity:1;fill-rule:nonzero;stroke:none;stroke-width:1.33333325"
     id="path48" /><path
     inkscape:connector-curvature="0"
     d="M 325.33333,114.66667 H 16 V 112 h 309.33333 z"
     style="fill:#ac9d93;fill-opacity:1;fill-rule:nonzero;stroke:none;stroke-width:1.33333325"
     id="path50" /><path
     inkscape:connector-curvature="0"
     d="M 325.33333,119.33333 H 16 v -2.66666 h 309.33333 z"
     style="fill:#ac9d93;fill-opacity:1;fill-rule:nonzero;stroke:none;stroke-width:1.33333325"
     id="path52" /><path
     id="path68"
     style="fill:#ac9d93;fill-opacity:1;fill-rule:nonzero;stroke:none;stroke-width:1.33333325"
     d="M 317.33333,138.66667 H 24.000004 c -1.472,0 -2.666667,1.19467 -2.666667,2.66667 v 79.99999 c 0,1.472 1.194667,2.66667 2.666667,2.66667 H 317.33333 c 1.472,0 2.66667,-1.19467 2.66667,-2.66667 v -79.99999 c 0,-1.472 -1.19467,-2.66667 -2.66667,-2.66667 m 0,82.66666 H 24.000004 V 141.33334 H 317.33333 Z"
     inkscape:connector-curvature="0" /><path
     id="path72"
     style="fill:#4c4c4c;fill-opacity:1;fill-rule:nonzero;stroke:none;stroke-width:1.33333325"
     d="m 34.666666,154.66667 v 0 c -1.472,0 -2.666667,-1.19467 -2.666667,-2.66667 v -5.33333 c 0,-1.472 1.194667,-2.66667 2.666667,-2.66667 1.472,0 2.666667,1.19467 2.666667,2.66667 V 152 c 0,1.472 -1.194667,2.66667 -2.666667,2.66667"
     inkscape:connector-curvature="0" /><path
     id="path76"
     style="fill:#4c4c4c;fill-opacity:1;fill-rule:nonzero;stroke:none;stroke-width:1.33333325"
     d="m 66.666665,154.66667 h -5.333333 c -1.472,0 -2.666667,-1.19467 -2.666667,-2.66667 v -5.33333 c 0,-1.472 1.194667,-2.66667 2.666667,-2.66667 h 5.333333 c 1.472,0 2.666667,1.19467 2.666667,2.66667 V 152 c 0,1.472 -1.194667,2.66667 -2.666667,2.66667"
     inkscape:connector-curvature="0" /><path
     id="path80"
     style="fill:#4c4c4c;fill-opacity:1;fill-rule:nonzero;stroke:none;stroke-width:1.33333325"
     d="m 50.666665,154.66667 h -5.333333 c -1.472,0 -2.666667,-1.19467 -2.666667,-2.66667 v -5.33333 c 0,-1.472 1.194667,-2.66667 2.666667,-2.66667 h 5.333333 c 1.472,0 2.666667,1.19467 2.666667,2.66667 V 152 c 0,1.472 -1.194667,2.66667 -2.666667,2.66667"
     inkscape:connector-curvature="0" /><path
     id="path84"
     style="fill:#4c4c4c;fill-opacity:1;fill-rule:nonzero;stroke:none;stroke-width:1.33333325"
     d="m 82.666665,154.66667 h -5.333333 c -1.472,0 -2.666667,-1.19467 -2.666667,-2.66667 v -5.33333 c 0,-1.472 1.194667,-2.66667 2.666667,-2.66667 h 5.333333 c 1.472,0 2.666667,1.19467 2.666667,2.66667 V 152 c 0,1.472 -1.194667,2.66667 -2.666667,2.66667"
     inkscape:connector-curvature="0" /><path
     id="path88"
     style="fill:#4c4c4c;fill-opacity:1;fill-rule:nonzero;stroke:none;stroke-width:1.33333325"
     d="m 98.666664,154.66667 h -5.333333 c -1.472,0 -2.666667,-1.19467 -2.666667,-2.66667 v -5.33333 c 0,-1.472 1.194667,-2.66667 2.666667,-2.66667 h 5.333333 c 1.471996,0 2.666666,1.19467 2.666666,2.66667 V 152 c 0,1.472 -1.19467,2.66667 -2.666666,2.66667"
     inkscape:connector-curvature="0" /><path
     id="path92"
     style="fill:#4c4c4c;fill-opacity:1;fill-rule:nonzero;stroke:none;stroke-width:1.33333325"
     d="m 114.66666,154.66667 h -5.33333 c -1.472,0 -2.66667,-1.19467 -2.66667,-2.66667 v -5.33333 c 0,-1.472 1.19467,-2.66667 2.66667,-2.66667 h 5.33333 c 1.472,0 2.66667,1.19467 2.66667,2.66667 V 152 c 0,1.472 -1.19467,2.66667 -2.66667,2.66667"
     inkscape:connector-curvature="0" /><path
     id="path96"
     style="fill:#4c4c4c;fill-opacity:1;fill-rule:nonzero;stroke:none;stroke-width:1.33333325"
     d="m 130.66666,154.66667 h -5.33333 c -1.472,0 -2.66667,-1.19467 -2.66667,-2.66667 v -5.33333 c 0,-1.472 1.19467,-2.66667 2.66667,-2.66667 h 5.33333 c 1.472,0 2.66667,1.19467 2.66667,2.66667 V 152 c 0,1.472 -1.19467,2.66667 -2.66667,2.66667"
     inkscape:connector-curvature="0" /><path
     id="path100"
     style="fill:#4c4c4c;fill-opacity:1;fill-rule:nonzero;stroke:none;stroke-width:1.33333325"
     d="m 146.66666,154.66667 h -5.33333 c -1.472,0 -2.66667,-1.19467 -2.66667,-2.66667 v -5.33333 c 0,-1.472 1.19467,-2.66667 2.66667,-2.66667 h 5.33333 c 1.472,0 2.66667,1.19467 2.66667,2.66667 V 152 c 0,1.472 -1.19467,2.66667 -2.66667,2.66667"
     inkscape:connector-curvature="0" /><path
     id="path104"
     style="fill:#4c4c4c;fill-opacity:1;fill-rule:nonzero;stroke:none;stroke-width:1.33333325"
     d="m 162.66666,154.66667 h -5.33333 c -1.472,0 -2.66667,-1.19467 -2.66667,-2.66667 v -5.33333 c 0,-1.472 1.19467,-2.66667 2.66667,-2.66667 h 5.33333 c 1.472,0 2.66667,1.19467 2.66667,2.66667 V 152 c 0,1.472 -1.19467,2.66667 -2.66667,2.66667"
     inkscape:connector-curvature="0" /><path
     id="path108"
     style="fill:#4c4c4c;fill-opacity:1;fill-rule:nonzero;stroke:none;stroke-width:1.33333325"
     d="m 178.66666,154.66667 h -5.33333 c -1.472,0 -2.66667,-1.19467 -2.66667,-2.66667 v -5.33333 c 0,-1.472 1.19467,-2.66667 2.66667,-2.66667 h 5.33333 c 1.472,0 2.66667,1.19467 2.66667,2.66667 V 152 c 0,1.472 -1.19467,2.66667 -2.66667,2.66667"
     inkscape:connector-curvature="0" /><path
     id="path112"
     style="fill:#4c4c4c;fill-opacity:1;fill-rule:nonzero;stroke:none;stroke-width:1.33333325"
     d="m 194.66666,154.66667 h -5.33333 c -1.472,0 -2.66667,-1.19467 -2.66667,-2.66667 v -5.33333 c 0,-1.472 1.19467,-2.66667 2.66667,-2.66667 h 5.33333 c 1.472,0 2.66667,1.19467 2.66667,2.66667 V 152 c 0,1.472 -1.19467,2.66667 -2.66667,2.66667"
     inkscape:connector-curvature="0" /><path
     id="path116"
     style="fill:#4c4c4c;fill-opacity:1;fill-rule:nonzero;stroke:none;stroke-width:1.33333325"
     d="m 210.66666,154.66667 h -5.33333 c -1.472,0 -2.66667,-1.19467 -2.66667,-2.66667 v -5.33333 c 0,-1.472 1.19467,-2.66667 2.66667,-2.66667 h 5.33333 c 1.472,0 2.66667,1.19467 2.66667,2.66667 V 152 c 0,1.472 -1.19467,2.66667 -2.66667,2.66667"
     inkscape:connector-curvature="0" /><path
     id="path120"
     style="fill:#4c4c4c;fill-opacity:1;fill-rule:nonzero;stroke:none;stroke-width:1.33333325"
     d="m 226.66666,154.66667 h -5.33333 c -1.472,0 -2.66667,-1.19467 -2.66667,-2.66667 v -5.33333 c 0,-1.472 1.19467,-2.66667 2.66667,-2.66667 h 5.33333 c 1.472,0 2.66667,1.19467 2.66667,2.66667 V 152 c 0,1.472 -1.19467,2.66667 -2.66667,2.66667"
     inkscape:connector-curvature="0" /><path
     id="path124"
     style="fill:#4c4c4c;fill-opacity:1;fill-rule:nonzero;stroke:none;stroke-width:1.33333325"
     d="m 242.66666,154.66667 h -5.33333 c -1.472,0 -2.66667,-1.19467 -2.66667,-2.66667 v -5.33333 c 0,-1.472 1.19467,-2.66667 2.66667,-2.66667 h 5.33333 c 1.472,0 2.66667,1.19467 2.66667,2.66667 V 152 c 0,1.472 -1.19467,2.66667 -2.66667,2.66667"
     inkscape:connector-curvature="0" /><path
     id="path128"
     style="fill:#4c4c4c;fill-opacity:1;fill-rule:nonzero;stroke:none;stroke-width:1.33333325"
     d="m 258.66666,154.66667 h -5.33333 c -1.472,0 -2.66667,-1.19467 -2.66667,-2.66667 v -5.33333 c 0,-1.472 1.19467,-2.66667 2.66667,-2.66667 h 5.33333 c 1.472,0 2.66667,1.19467 2.66667,2.66667 V 152 c 0,1.472 -1.19467,2.66667 -2.66667,2.66667"
     inkscape:connector-curvature="0" /><path
     id="path132"
     style="fill:#4c4c4c;fill-opacity:1;fill-rule:nonzero;stroke:none;stroke-width:1.33333325"
     d="m 34.666666,186.66667 h -5.333333 c -1.472,0 -2.666667,-1.19467 -2.666667,-2.66667 v -5.33333 c 0,-1.472 1.194667,-2.66667 2.666667,-2.66667 h 5.333333 c 1.472,0 2.666667,1.19467 2.666667,2.66667 V 184 c 0,1.472 -1.194667,2.66667 -2.666667,2.66667"
     inkscape:connector-curvature="0" /><path
     id="path136"
     style="fill:#4c4c4c;fill-opacity:1;fill-rule:nonzero;stroke:none;stroke-width:1.33333325"
     d="m 50.666665,186.66667 h -5.333333 c -1.472,0 -2.666667,-1.19467 -2.666667,-2.66667 v -5.33333 c 0,-1.472 1.194667,-2.66667 2.666667,-2.66667 h 5.333333 c 1.472,0 2.666667,1.19467 2.666667,2.66667 V 184 c 0,1.472 -1.194667,2.66667 -2.666667,2.66667"
     inkscape:connector-curvature="0" /><path
     id="path140"
     style="fill:#4c4c4c;fill-opacity:1;fill-rule:nonzero;stroke:none;stroke-width:1.33333325"
     d="m 66.666665,186.66667 h -5.333333 c -1.472,0 -2.666667,-1.19467 -2.666667,-2.66667 v -5.33333 c 0,-1.472 1.194667,-2.66667 2.666667,-2.66667 h 5.333333 c 1.472,0 2.666667,1.19467 2.666667,2.66667 V 184 c 0,1.472 -1.194667,2.66667 -2.666667,2.66667"
     inkscape:connector-curvature="0" /><path
     id="path144"
     style="fill:#4c4c4c;fill-opacity:1;fill-rule:nonzero;stroke:none;stroke-width:1.33333325"
     d="m 82.666665,186.66667 h -5.333333 c -1.472,0 -2.666667,-1.19467 -2.666667,-2.66667 v -5.33333 c 0,-1.472 1.194667,-2.66667 2.666667,-2.66667 h 5.333333 c 1.472,0 2.666667,1.19467 2.666667,2.66667 V 184 c 0,1.472 -1.194667,2.66667 -2.666667,2.66667"
     inkscape:connector-curvature="0" /><path
     id="path148"
     style="fill:#4c4c4c;fill-opacity:1;fill-rule:nonzero;stroke:none;stroke-width:1.33333325"
     d="m 98.666664,186.66667 h -5.333333 c -1.472,0 -2.666667,-1.19467 -2.666667,-2.66667 v -5.33333 c 0,-1.472 1.194667,-2.66667 2.666667,-2.66667 h 5.333333 c 1.471996,0 2.666666,1.19467 2.666666,2.66667 V 184 c 0,1.472 -1.19467,2.66667 -2.666666,2.66667"
     inkscape:connector-curvature="0" /><path
     id="path152"
     style="fill:#4c4c4c;fill-opacity:1;fill-rule:nonzero;stroke:none;stroke-width:1.33333325"
     d="m 114.66666,186.66667 h -5.33333 c -1.472,0 -2.66667,-1.19467 -2.66667,-2.66667 v -5.33333 c 0,-1.472 1.19467,-2.66667 2.66667,-2.66667 h 5.33333 c 1.472,0 2.66667,1.19467 2.66667,2.66667 V 184 c 0,1.472 -1.19467,2.66667 -2.66667,2.66667"
     inkscape:connector-curvature="0" /><path
     id="path156"
     style="fill:#4c4c4c;fill-opacity:1;fill-rule:nonzero;stroke:none;stroke-width:1.33333325"
     d="m 130.66666,186.66667 h -5.33333 c -1.472,0 -2.66667,-1.19467 -2.66667,-2.66667 v -5.33333 c 0,-1.472 1.19467,-2.66667 2.66667,-2.66667 h 5.33333 c 1.472,0 2.66667,1.19467 2.66667,2.66667 V 184 c 0,1.472 -1.19467,2.66667 -2.66667,2.66667"
     inkscape:connector-curvature="0" /><path
     id="path160"
     style="fill:#4c4c4c;fill-opacity:1;fill-rule:nonzero;stroke:none;stroke-width:1.33333325"
     d="m 146.66666,186.66667 h -5.33333 c -1.472,0 -2.66667,-1.19467 -2.66667,-2.66667 v -5.33333 c 0,-1.472 1.19467,-2.66667 2.66667,-2.66667 h 5.33333 c 1.472,0 2.66667,1.19467 2.66667,2.66667 V 184 c 0,1.472 -1.19467,2.66667 -2.66667,2.66667"
     inkscape:connector-curvature="0" /><path
     id="path164"
     style="fill:#4c4c4c;fill-opacity:1;fill-rule:nonzero;stroke:none;stroke-width:1.33333325"
     d="m 162.66666,186.66667 h -5.33333 c -1.472,0 -2.66667,-1.19467 -2.66667,-2.66667 v -5.33333 c 0,-1.472 1.19467,-2.66667 2.66667,-2.66667 h 5.33333 c 1.472,0 2.66667,1.19467 2.66667,2.66667 V 184 c 0,1.472 -1.19467,2.66667 -2.66667,2.66667"
     inkscape:connector-curvature="0" /><path
     id="path168"
     style="fill:#4c4c4c;fill-opacity:1;fill-rule:nonzero;stroke:none;stroke-width:1.33333325"
     d="m 178.66666,186.66667 h -5.33333 c -1.472,0 -2.66667,-1.19467 -2.66667,-2.66667 v -5.33333 c 0,-1.472 1.19467,-2.66667 2.66667,-2.66667 h 5.33333 c 1.472,0 2.66667,1.19467 2.66667,2.66667 V 184 c 0,1.472 -1.19467,2.66667 -2.66667,2.66667"
     inkscape:connector-curvature="0" /><path
     id="path172"
     style="fill:#4c4c4c;fill-opacity:1;fill-rule:nonzero;stroke:none;stroke-width:1.33333325"
     d="m 194.66666,186.66667 h -5.33333 c -1.472,0 -2.66667,-1.19467 -2.66667,-2.66667 v -5.33333 c 0,-1.472 1.19467,-2.66667 2.66667,-2.66667 h 5.33333 c 1.472,0 2.66667,1.19467 2.66667,2.66667 V 184 c 0,1.472 -1.19467,2.66667 -2.66667,2.66667"
     inkscape:connector-curvature="0" /><path
     id="path176"
     style="fill:#4c4c4c;fill-opacity:1;fill-rule:nonzero;stroke:none;stroke-width:1.33333325"
     d="m 210.66666,186.66667 h -5.33333 c -1.472,0 -2.66667,-1.19467 -2.66667,-2.66667 v -5.33333 c 0,-1.472 1.19467,-2.66667 2.66667,-2.66667 h 5.33333 c 1.472,0 2.66667,1.19467 2.66667,2.66667 V 184 c 0,1.472 -1.19467,2.66667 -2.66667,2.66667"
     inkscape:connector-curvature="0" /><path
     id="path180"
     style="fill:#4c4c4c;fill-opacity:1;fill-rule:nonzero;stroke:none;stroke-width:1.33333325"
     d="m 226.66666,186.66667 h -5.33333 c -1.472,0 -2.66667,-1.19467 -2.66667,-2.66667 v -5.33333 c 0,-1.472 1.19467,-2.66667 2.66667,-2.66667 h 5.33333 c 1.472,0 2.66667,1.19467 2.66667,2.66667 V 184 c 0,1.472 -1.19467,2.66667 -2.66667,2.66667"
     inkscape:connector-curvature="0" /><path
     id="path184"
     style="fill:#4c4c4c;fill-opacity:1;fill-rule:nonzero;stroke:none;stroke-width:1.33333325"
     d="m 253.33333,186.66667 h -16 c -1.472,0 -2.66667,-1.19467 -2.66667,-2.66667 v -5.33333 c 0,-1.472 1.19467,-2.66667 2.66667,-2.66667 h 16 c 1.472,0 2.66667,1.19467 2.66667,2.66667 V 184 c 0,1.472 -1.19467,2.66667 -2.66667,2.66667"
     inkscape:connector-curvature="0" /><path
     id="path188"
     style="fill:#4c4c4c;fill-opacity:1;fill-rule:nonzero;stroke:none;stroke-width:1.33333325"
     d="M 45.333332,170.66667 H 34.666666 c -1.472,0 -2.666667,-1.19467 -2.666667,-2.66667 v -5.33333 c 0,-1.472 1.194667,-2.66667 2.666667,-2.66667 h 10.666666 c 1.472,0 2.666667,1.19467 2.666667,2.66667 V 168 c 0,1.472 -1.194667,2.66667 -2.666667,2.66667"
     inkscape:connector-curvature="0" /><path
     id="path192"
     style="fill:#4c4c4c;fill-opacity:1;fill-rule:nonzero;stroke:none;stroke-width:1.33333325"
     d="m 61.333332,170.66667 h -5.333333 c -1.472,0 -2.666667,-1.19467 -2.666667,-2.66667 v -5.33333 c 0,-1.472 1.194667,-2.66667 2.666667,-2.66667 h 5.333333 c 1.472,0 2.666667,1.19467 2.666667,2.66667 V 168 c 0,1.472 -1.194667,2.66667 -2.666667,2.66667"
     inkscape:connector-curvature="0" /><path
     id="path196"
     style="fill:#4c4c4c;fill-opacity:1;fill-rule:nonzero;stroke:none;stroke-width:1.33333325"
     d="m 77.333331,170.66667 h -5.333333 c -1.472,0 -2.666667,-1.19467 -2.666667,-2.66667 v -5.33333 c 0,-1.472 1.194667,-2.66667 2.666667,-2.66667 h 5.333333 c 1.472,0 2.666667,1.19467 2.666667,2.66667 V 168 c 0,1.472 -1.194667,2.66667 -2.666667,2.66667"
     inkscape:connector-curvature="0" /><path
     id="path200"
     style="fill:#4c4c4c;fill-opacity:1;fill-rule:nonzero;stroke:none;stroke-width:1.33333325"
     d="m 93.333331,170.66667 h -5.333333 c -1.472,0 -2.666667,-1.19467 -2.666667,-2.66667 v -5.33333 c 0,-1.472 1.194667,-2.66667 2.666667,-2.66667 h 5.333333 c 1.472,0 2.666667,1.19467 2.666667,2.66667 V 168 c 0,1.472 -1.194667,2.66667 -2.666667,2.66667"
     inkscape:connector-curvature="0" /><path
     id="path204"
     style="fill:#4c4c4c;fill-opacity:1;fill-rule:nonzero;stroke:none;stroke-width:1.33333325"
     d="M 109.33333,170.66667 H 104 c -1.472,0 -2.66667,-1.19467 -2.66667,-2.66667 v -5.33333 C 101.33333,161.19467 102.528,160 104,160 h 5.33333 c 1.472,0 2.66667,1.19467 2.66667,2.66667 V 168 c 0,1.472 -1.19467,2.66667 -2.66667,2.66667"
     inkscape:connector-curvature="0" /><path
     id="path208"
     style="fill:#4c4c4c;fill-opacity:1;fill-rule:nonzero;stroke:none;stroke-width:1.33333325"
     d="M 125.33333,170.66667 H 120 c -1.472,0 -2.66667,-1.19467 -2.66667,-2.66667 v -5.33333 C 117.33333,161.19467 118.528,160 120,160 h 5.33333 c 1.472,0 2.66667,1.19467 2.66667,2.66667 V 168 c 0,1.472 -1.19467,2.66667 -2.66667,2.66667"
     inkscape:connector-curvature="0" /><path
     id="path212"
     style="fill:#4c4c4c;fill-opacity:1;fill-rule:nonzero;stroke:none;stroke-width:1.33333325"
     d="M 141.33333,170.66667 H 136 c -1.472,0 -2.66667,-1.19467 -2.66667,-2.66667 v -5.33333 C 133.33333,161.19467 134.528,160 136,160 h 5.33333 c 1.472,0 2.66667,1.19467 2.66667,2.66667 V 168 c 0,1.472 -1.19467,2.66667 -2.66667,2.66667"
     inkscape:connector-curvature="0" /><path
     id="path216"
     style="fill:#4c4c4c;fill-opacity:1;fill-rule:nonzero;stroke:none;stroke-width:1.33333325"
     d="M 157.33333,170.66667 H 152 c -1.472,0 -2.66667,-1.19467 -2.66667,-2.66667 v -5.33333 C 149.33333,161.19467 150.528,160 152,160 h 5.33333 c 1.472,0 2.66667,1.19467 2.66667,2.66667 V 168 c 0,1.472 -1.19467,2.66667 -2.66667,2.66667"
     inkscape:connector-curvature="0" /><path
     id="path220"
     style="fill:#4c4c4c;fill-opacity:1;fill-rule:nonzero;stroke:none;stroke-width:1.33333325"
     d="M 173.33333,170.66667 H 168 c -1.472,0 -2.66667,-1.19467 -2.66667,-2.66667 v -5.33333 C 165.33333,161.19467 166.528,160 168,160 h 5.33333 c 1.472,0 2.66667,1.19467 2.66667,2.66667 V 168 c 0,1.472 -1.19467,2.66667 -2.66667,2.66667"
     inkscape:connector-curvature="0" /><path
     id="path224"
     style="fill:#4c4c4c;fill-opacity:1;fill-rule:nonzero;stroke:none;stroke-width:1.33333325"
     d="M 189.33333,170.66667 H 184 c -1.472,0 -2.66667,-1.19467 -2.66667,-2.66667 v -5.33333 C 181.33333,161.19467 182.528,160 184,160 h 5.33333 c 1.472,0 2.66667,1.19467 2.66667,2.66667 V 168 c 0,1.472 -1.19467,2.66667 -2.66667,2.66667"
     inkscape:connector-curvature="0" /><path
     id="path228"
     style="fill:#4c4c4c;fill-opacity:1;fill-rule:nonzero;stroke:none;stroke-width:1.33333325"
     d="M 205.33333,170.66667 H 200 c -1.472,0 -2.66667,-1.19467 -2.66667,-2.66667 v -5.33333 C 197.33333,161.19467 198.528,160 200,160 h 5.33333 c 1.472,0 2.66667,1.19467 2.66667,2.66667 V 168 c 0,1.472 -1.19467,2.66667 -2.66667,2.66667"
     inkscape:connector-curvature="0" /><path
     id="path232"
     style="fill:#4c4c4c;fill-opacity:1;fill-rule:nonzero;stroke:none;stroke-width:1.33333325"
     d="M 221.33333,170.66667 H 216 c -1.472,0 -2.66667,-1.19467 -2.66667,-2.66667 v -5.33333 C 213.33333,161.19467 214.528,160 216,160 h 5.33333 c 1.472,0 2.66667,1.19467 2.66667,2.66667 V 168 c 0,1.472 -1.19467,2.66667 -2.66667,2.66667"
     inkscape:connector-curvature="0" /><path
     id="path236"
     style="fill:#4c4c4c;fill-opacity:1;fill-rule:nonzero;stroke:none;stroke-width:1.33333325"
     d="M 237.33333,170.66667 H 232 c -1.472,0 -2.66667,-1.19467 -2.66667,-2.66667 v -5.33333 C 229.33333,161.19467 230.528,160 232,160 h 5.33333 c 1.472,0 2.66667,1.19467 2.66667,2.66667 V 168 c 0,1.472 -1.19467,2.66667 -2.66667,2.66667"
     inkscape:connector-curvature="0" /><path
     id="path240"
     style="fill:#4c4c4c;fill-opacity:1;fill-rule:nonzero;stroke:none;stroke-width:1.33333325"
     d="M 55.999999,202.66667 H 45.333333 c -1.472,0 -2.666667,-1.19467 -2.666667,-2.66667 v -5.33333 c 0,-1.472 1.194667,-2.66667 2.666667,-2.66667 h 10.666666 c 1.472,0 2.666667,1.19467 2.666667,2.66667 V 200 c 0,1.472 -1.194667,2.66667 -2.666667,2.66667"
     inkscape:connector-curvature="0" /><path
     id="path244"
     style="fill:#4c4c4c;fill-opacity:1;fill-rule:nonzero;stroke:none;stroke-width:1.33333325"
     d="m 34.666666,202.66667 h -5.333333 c -1.472,0 -2.666667,-1.19467 -2.666667,-2.66667 v -5.33333 c 0,-1.472 1.194667,-2.66667 2.666667,-2.66667 h 5.333333 c 1.472,0 2.666667,1.19467 2.666667,2.66667 V 200 c 0,1.472 -1.194667,2.66667 -2.666667,2.66667"
     inkscape:connector-curvature="0" /><path
     id="path248"
     style="fill:#4c4c4c;fill-opacity:1;fill-rule:nonzero;stroke:none;stroke-width:1.33333325"
     d="m 71.999998,202.66667 h -5.333333 c -1.472,0 -2.666667,-1.19467 -2.666667,-2.66667 v -5.33333 c 0,-1.472 1.194667,-2.66667 2.666667,-2.66667 h 5.333333 c 1.472,0 2.666667,1.19467 2.666667,2.66667 V 200 c 0,1.472 -1.194667,2.66667 -2.666667,2.66667"
     inkscape:connector-curvature="0" /><path
     id="path252"
     style="fill:#4c4c4c;fill-opacity:1;fill-rule:nonzero;stroke:none;stroke-width:1.33333325"
     d="m 87.999998,202.66667 h -5.333333 c -1.472,0 -2.666667,-1.19467 -2.666667,-2.66667 v -5.33333 c 0,-1.472 1.194667,-2.66667 2.666667,-2.66667 h 5.333333 c 1.472,0 2.666667,1.19467 2.666667,2.66667 V 200 c 0,1.472 -1.194667,2.66667 -2.666667,2.66667"
     inkscape:connector-curvature="0" /><path
     id="path256"
     style="fill:#4c4c4c;fill-opacity:1;fill-rule:nonzero;stroke:none;stroke-width:1.33333325"
     d="M 104,202.66667 H 98.666667 C 97.194667,202.66667 96,201.472 96,200 v -5.33333 C 96,193.19467 97.194667,192 98.666667,192 H 104 c 1.472,0 2.66667,1.19467 2.66667,2.66667 V 200 c 0,1.472 -1.19467,2.66667 -2.66667,2.66667"
     inkscape:connector-curvature="0" /><path
     id="path260"
     style="fill:#4c4c4c;fill-opacity:1;fill-rule:nonzero;stroke:none;stroke-width:1.33333325"
     d="m 120,202.66667 h -5.33333 C 113.19467,202.66667 112,201.472 112,200 v -5.33333 C 112,193.19467 113.19467,192 114.66667,192 H 120 c 1.472,0 2.66667,1.19467 2.66667,2.66667 V 200 c 0,1.472 -1.19467,2.66667 -2.66667,2.66667"
     inkscape:connector-curvature="0" /><path
     id="path264"
     style="fill:#4c4c4c;fill-opacity:1;fill-rule:nonzero;stroke:none;stroke-width:1.33333325"
     d="m 136,202.66667 h -5.33333 C 129.19467,202.66667 128,201.472 128,200 v -5.33333 C 128,193.19467 129.19467,192 130.66667,192 H 136 c 1.472,0 2.66667,1.19467 2.66667,2.66667 V 200 c 0,1.472 -1.19467,2.66667 -2.66667,2.66667"
     inkscape:connector-curvature="0" /><path
     id="path268"
     style="fill:#4c4c4c;fill-opacity:1;fill-rule:nonzero;stroke:none;stroke-width:1.33333325"
     d="m 152,202.66667 h -5.33333 C 145.19467,202.66667 144,201.472 144,200 v -5.33333 C 144,193.19467 145.19467,192 146.66667,192 H 152 c 1.472,0 2.66667,1.19467 2.66667,2.66667 V 200 c 0,1.472 -1.19467,2.66667 -2.66667,2.66667"
     inkscape:connector-curvature="0" /><path
     id="path272"
     style="fill:#4c4c4c;fill-opacity:1;fill-rule:nonzero;stroke:none;stroke-width:1.33333325"
     d="m 168,202.66667 h -5.33333 C 161.19467,202.66667 160,201.472 160,200 v -5.33333 C 160,193.19467 161.19467,192 162.66667,192 H 168 c 1.472,0 2.66667,1.19467 2.66667,2.66667 V 200 c 0,1.472 -1.19467,2.66667 -2.66667,2.66667"
     inkscape:connector-curvature="0" /><path
     id="path276"
     style="fill:#4c4c4c;fill-opacity:1;fill-rule:nonzero;stroke:none;stroke-width:1.33333325"
     d="m 184,202.66667 h -5.33333 C 177.19467,202.66667 176,201.472 176,200 v -5.33333 C 176,193.19467 177.19467,192 178.66667,192 H 184 c 1.472,0 2.66667,1.19467 2.66667,2.66667 V 200 c 0,1.472 -1.19467,2.66667 -2.66667,2.66667"
     inkscape:connector-curvature="0" /><path
     id="path280"
     style="fill:#4c4c4c;fill-opacity:1;fill-rule:nonzero;stroke:none;stroke-width:1.33333325"
     d="m 200,202.66667 h -5.33333 C 193.19467,202.66667 192,201.472 192,200 v -5.33333 C 192,193.19467 193.19467,192 194.66667,192 H 200 c 1.472,0 2.66667,1.19467 2.66667,2.66667 V 200 c 0,1.472 -1.19467,2.66667 -2.66667,2.66667"
     inkscape:connector-curvature="0" /><path
     id="path284"
     style="fill:#4d4d4d;fill-opacity:1;fill-rule:nonzero;stroke:none;stroke-width:1.33333325"
     d="M 221.33333,202.66667 H 210.66666 C 209.19466,202.66667 208,201.472 208,200 v -5.33333 C 208,193.19467 209.19466,192 210.66666,192 h 10.66667 c 1.472,0 2.66667,1.19467 2.66667,2.66667 V 200 c 0,1.472 -1.19467,2.66667 -2.66667,2.66667"
     inkscape:connector-curvature="0" /><path
     id="path288"
     style="fill:#4c4c4c;fill-opacity:1;fill-rule:nonzero;stroke:none;stroke-width:1.33333325"
     d="M 237.33333,202.66667 H 232 c -1.472,0 -2.66667,-1.19467 -2.66667,-2.66667 v -5.33333 C 229.33333,193.19467 230.528,192 232,192 h 5.33333 c 1.472,0 2.66667,1.19467 2.66667,2.66667 V 200 c 0,1.472 -1.19467,2.66667 -2.66667,2.66667"
     inkscape:connector-curvature="0" /><path
     id="path292"
     style="fill:#4c4c4c;fill-opacity:1;fill-rule:nonzero;stroke:none;stroke-width:1.33333325"
     d="M 253.33333,202.66667 H 248 c -1.472,0 -2.66667,-1.19467 -2.66667,-2.66667 v -5.33333 C 245.33333,193.19467 246.528,192 248,192 h 5.33333 c 1.472,0 2.66667,1.19467 2.66667,2.66667 V 200 c 0,1.472 -1.19467,2.66667 -2.66667,2.66667"
     inkscape:connector-curvature="0" /><path
     id="path296"
     style="fill:#4c4c4c;fill-opacity:1;fill-rule:nonzero;stroke:none;stroke-width:1.33333325"
     d="m 258.66666,170.66667 h -10.66667 c -1.472,0 -2.66666,-1.19467 -2.66666,-2.66667 v -5.33333 c 0,-1.472 1.19466,-2.66667 2.66666,-2.66667 h 10.66667 c 1.472,0 2.66667,1.19467 2.66667,2.66667 V 168 c 0,1.472 -1.19467,2.66667 -2.66667,2.66667"
     inkscape:connector-curvature="0" /><path
     id="path300"
     style="fill:#4c4c4c;fill-opacity:1;fill-rule:nonzero;stroke:none;stroke-width:1.33333325"
     d="M 194.66666,218.66667 H 66.666663 c -1.472,0 -2.666666,-1.19467 -2.666666,-2.66667 v -5.33333 c 0,-1.472 1.194666,-2.66667 2.666666,-2.66667 H 194.66666 c 1.472,0 2.66667,1.19467 2.66667,2.66667 V 216 c 0,1.472 -1.19467,2.66667 -2.66667,2.66667"
     inkscape:connector-curvature="0" /><path
     id="path304"
     style="fill:#6c5d53;fill-opacity:1;fill-rule:nonzero;stroke:none;stroke-width:1.33333325"
     d="m 295.99999,154.66667 h -16 c -1.472,0 -2.66667,-1.19467 -2.66667,-2.66667 v -5.33333 c 0,-1.472 1.19467,-2.66667 2.66667,-2.66667 h 16 c 1.472,0 2.66667,1.19467 2.66667,2.66667 V 152 c 0,1.472 -1.19467,2.66667 -2.66667,2.66667"
     inkscape:connector-curvature="0" /><path
     id="path308"
     style="fill:#6c5d53;fill-opacity:1;fill-rule:nonzero;stroke:none;stroke-width:1.33333325"
     d="m 295.99999,170.66667 h -16 c -1.472,0 -2.66667,-1.19467 -2.66667,-2.66667 v -5.33333 c 0,-1.472 1.19467,-2.66667 2.66667,-2.66667 h 16 c 1.472,0 2.66667,1.19467 2.66667,2.66667 V 168 c 0,1.472 -1.19467,2.66667 -2.66667,2.66667"
     inkscape:connector-curvature="0" /><path
     id="path312"
     style="fill:#6c5d53;fill-opacity:1;fill-rule:nonzero;stroke:none;stroke-width:1.33333325"
     d="m 295.99999,186.66667 h -16 c -1.472,0 -2.66667,-1.19467 -2.66667,-2.66667 v -5.33333 c 0,-1.472 1.19467,-2.66667 2.66667,-2.66667 h 16 c 1.472,0 2.66667,1.19467 2.66667,2.66667 V 184 c 0,1.472 -1.19467,2.66667 -2.66667,2.66667"
     inkscape:connector-curvature="0" /><path
     id="path316"
     style="fill:#6c5d53;fill-opacity:1;fill-rule:nonzero;stroke:none;stroke-width:1.33333325"
     d="m 295.99999,202.66667 h -16 c -1.472,0 -2.66667,-1.19467 -2.66667,-2.66667 v -5.33333 c 0,-1.472 1.19467,-2.66667 2.66667,-2.66667 h 16 c 1.472,0 2.66667,1.19467 2.66667,2.66667 V 200 c 0,1.472 -1.19467,2.66667 -2.66667,2.66667"
     inkscape:connector-curvature="0" /><path
     id="path60"
     style="fill:#808080;fill-opacity:1;fill-rule:nonzero;stroke:none;stroke-width:1.33333325"
     d="m 290.66666,113.33334 h -16 c -1.472,0 -2.66667,-1.19467 -2.66667,-2.66667 0,-1.472 1.19467,-2.66666 2.66667,-2.66666 h 16 c 1.472,0 2.66667,1.19466 2.66667,2.66666 0,1.472 -1.19467,2.66667 -2.66667,2.66667"
     inkscape:connector-curvature="0" /><path
     id="path64"
     style="fill:#ff0000;fill-opacity:1;fill-rule:nonzero;stroke:none;stroke-width:1.33333325"
     d="m 291.99999,110.66667 c 0,0.736 -0.596,1.33333 -1.33333,1.33333 -0.73734,0 -1.33334,-0.59733 -1.33334,-1.33333 0,-0.736 0.596,-1.33333 1.33334,-1.33333 0.73733,0 1.33333,0.59733 1.33333,1.33333"
     inkscape:connector-curvature="0" /><path
     id="path56"
     style="fill:#808080;fill-opacity:1;fill-rule:nonzero;stroke:none;stroke-width:1.33333325"
     d="M 117.33333,116 H 37.333332 c -2.945333,0 -5.333333,-2.388 -5.333333,-5.33333 0,-2.94534 2.388,-5.33334 5.333333,-5.33334 h 79.999998 c 2.94533,0 5.33333,2.388 5.33333,5.33334 0,2.94533 -2.388,5.33333 -5.33333,5.33333"
     inkscape:connector-curvature="0" /></svg>