<?xml version="1.0" encoding="UTF-8" standalone="no"?>
<!-- Generator: Adobe Illustrator 16.0.0, SVG Export Plug-In . SVG Version: 6.00 Build 0)  -->

<svg
   xmlns:dc="http://purl.org/dc/elements/1.1/"
   xmlns:cc="http://creativecommons.org/ns#"
   xmlns:rdf="http://www.w3.org/1999/02/22-rdf-syntax-ns#"
   xmlns:svg="http://www.w3.org/2000/svg"
   xmlns="http://www.w3.org/2000/svg"
   xmlns:sodipodi="http://sodipodi.sourceforge.net/DTD/sodipodi-0.dtd"
   xmlns:inkscape="http://www.inkscape.org/namespaces/inkscape"
   version="1.1"
   id="Calque_1"
   x="0px"
   y="0px"
   width="64px"
   height="64px"
   viewBox="0 0 64 64"
   enable-background="new 0 0 64 64"
   xml:space="preserve"
   inkscape:version="0.92.3 (2405546, 2018-03-11)"
   sodipodi:docname="core-shader-options.svg"
   inkscape:export-filename="/home/kivutar/Bureau/retroarch-assets/xmb/monochrome/png/core-shader-options.png"
   inkscape:export-xdpi="90"
   inkscape:export-ydpi="90"><metadata
     id="metadata8"><rdf:RDF><cc:Work
         rdf:about=""><dc:format>image/svg+xml</dc:format><dc:type
           rdf:resource="http://purl.org/dc/dcmitype/StillImage" /><dc:title /></cc:Work></rdf:RDF></metadata><defs
     id="defs6"><clipPath
       id="clipPath46"
       clipPathUnits="userSpaceOnUse"><path
         inkscape:connector-curvature="0"
         id="path44"
         d="M 0,256 H 256 V 0 H 0 Z" /></clipPath></defs><sodipodi:namedview
     pagecolor="#ffffff"
     bordercolor="#666666"
     borderopacity="1"
     objecttolerance="10"
     gridtolerance="10"
     guidetolerance="10"
     inkscape:pageopacity="0"
     inkscape:pageshadow="2"
     inkscape:window-width="1024"
     inkscape:window-height="705"
     id="namedview4"
     showgrid="false"
     inkscape:zoom="16"
     inkscape:cx="30.103675"
     inkscape:cy="34.465846"
     inkscape:window-x="-8"
     inkscape:window-y="-8"
     inkscape:window-maximized="1"
     inkscape:current-layer="g4142"
     showguides="false"
     inkscape:snap-object-midpoints="true"
     inkscape:pagecheckerboard="true"><inkscape:grid
       type="xygrid"
       id="grid2985"
       empspacing="4"
       visible="true"
       enabled="true"
       snapvisiblegridlinesonly="true" /></sodipodi:namedview><g
     id="g4142"
     transform="matrix(2,0,0,2,-32,-32)"><path
       style="fill:#f2f2f2;fill-opacity:1;stroke:#99999f;stroke-width:4;stroke-linecap:round;stroke-linejoin:round;stroke-miterlimit:4;stroke-dasharray:none;stroke-opacity:1"
       d="M 32 24 C 25.207498 24 20.113909 25.994838 15.019531 31.978516 C 20.113909 37.962194 25.207498 39.957031 32 39.957031 C 38.792502 39.957031 43.886093 37.962194 48.980469 31.978516 C 43.886093 25.994838 38.792502 24 32 24 z "
       id="path2987"
       transform="matrix(0.5,0,0,0.5,16,16)" /><ellipse
       style="opacity:0.98999999;vector-effect:none;fill:#000000;fill-opacity:0.99215686;stroke:none;stroke-width:0.5;stroke-linecap:butt;stroke-linejoin:miter;stroke-miterlimit:4;stroke-dasharray:none;stroke-dashoffset:0;stroke-opacity:1;paint-order:markers stroke fill"
       id="path847"
       cx="32.042484"
       cy="32.090096"
       rx="2.8284271"
       ry="2.3864853" /><path
       style="fill:#00b800;fill-opacity:1;stroke:none;stroke-width:1.50514245"
       d="M 32 24 C 27.581722 24 24 27.581722 24 32 C 24 36.418278 27.581722 40 32 40 C 36.418278 40 40 36.418278 40 32 C 40 27.581722 36.418278 24 32 24 z M 32 28 A 4 4 0 0 1 36 32 A 4 4 0 0 1 32 36 A 4 4 0 0 1 28 32 A 4 4 0 0 1 32 28 z "
       transform="matrix(0.5,0,0,0.5,16,16)"
       id="path3788" /><circle
       style="opacity:0.98999999;vector-effect:none;fill:#f2f2f2;fill-opacity:0.99215686;stroke:none;stroke-width:1.99999964;stroke-linecap:butt;stroke-linejoin:miter;stroke-miterlimit:4;stroke-dasharray:none;stroke-dashoffset:0;stroke-opacity:1"
       id="path820"
       cx="32"
       cy="32"
       r="0.75" /><path
       style="opacity:0.98999999;vector-effect:none;fill:#f2f2f2;fill-opacity:1;stroke:none;stroke-width:2;stroke-linecap:butt;stroke-linejoin:miter;stroke-miterlimit:4;stroke-dasharray:none;stroke-dashoffset:0;stroke-opacity:1"
       id="path819"
       sodipodi:type="arc"
       sodipodi:cx="31.5"
       sodipodi:cy="32.5"
       sodipodi:rx="3"
       sodipodi:ry="3.4641018"
       sodipodi:start="5.2359878"
       sodipodi:end="0"
       d="m 33,29.5 a 3,3.4641018 0 0 1 1.5,3 h -3 z" /></g></svg>