<?xml version="1.0" encoding="UTF-8" standalone="no"?>
<svg
   xmlns:dc="http://purl.org/dc/elements/1.1/"
   xmlns:cc="http://creativecommons.org/ns#"
   xmlns:rdf="http://www.w3.org/1999/02/22-rdf-syntax-ns#"
   xmlns:svg="http://www.w3.org/2000/svg"
   xmlns="http://www.w3.org/2000/svg"
   xmlns:sodipodi="http://sodipodi.sourceforge.net/DTD/sodipodi-0.dtd"
   xmlns:inkscape="http://www.inkscape.org/namespaces/inkscape"
   viewBox="0 0 341.33334 341.33334"
   height="341.33334"
   width="341.33334"
   xml:space="preserve"
   id="svg2"
   version="1.1"
   sodipodi:docname="DOS-content.svg"
   inkscape:version="0.92.2 (5c3e80d, 2017-08-06)"
   inkscape:export-filename="D:\Documents\Github\Retrosystem-retroarch-theme\png\DOS-content.png"
   inkscape:export-xdpi="72"
   inkscape:export-ydpi="72"><sodipodi:namedview
     pagecolor="#ffffff"
     bordercolor="#666666"
     borderopacity="1"
     objecttolerance="10"
     gridtolerance="10"
     guidetolerance="10"
     inkscape:pageopacity="0"
     inkscape:pageshadow="2"
     inkscape:window-width="1024"
     inkscape:window-height="705"
     id="namedview55"
     showgrid="false"
     inkscape:pagecheckerboard="true"
     inkscape:zoom="0.97779607"
     inkscape:cx="34.916178"
     inkscape:cy="238.22825"
     inkscape:window-x="-8"
     inkscape:window-y="-8"
     inkscape:window-maximized="1"
     inkscape:current-layer="svg2" /><metadata
     id="metadata8"><rdf:RDF><cc:Work
         rdf:about=""><dc:format>image/svg+xml</dc:format><dc:type
           rdf:resource="http://purl.org/dc/dcmitype/StillImage" /><dc:title /></cc:Work></rdf:RDF></metadata><defs
     id="defs6"><clipPath
       id="clipPath18"
       clipPathUnits="userSpaceOnUse"><path
         id="path16"
         d="M 0,256 H 256 V 0 H 0 Z" /></clipPath><clipPath
       id="clipPath26"
       clipPathUnits="userSpaceOnUse"><path
         id="path24"
         d="M 4,252 H 252 V 4 H 4 Z" /></clipPath><clipPath
       id="clipPath42"
       clipPathUnits="userSpaceOnUse"><path
         id="path40"
         d="M 94.8573,161.143 H 161.143 V 94.8571 H 94.8573 Z" /></clipPath></defs><path
     id="path38"
     style="fill:#191919;fill-opacity:1;fill-rule:nonzero;stroke:none;stroke-width:1.33333325"
     d="m 170.6668,213.33334 c -23.564,0 -42.66667,-19.10267 -42.66667,-42.66667 0,-23.564 19.10267,-42.66666 42.66667,-42.66666 23.564,0 42.66667,19.10266 42.66667,42.66666 0,23.564 -19.10267,42.66667 -42.66667,42.66667 M 325.33346,85.333354 V 16.000014 H 16.000136 V 320 c 0,2.94534 2.388,5.33334 5.33333,5.33334 H 133.33347 c 0,-2.94534 2.388,-5.33334 5.33333,-5.33334 2.94533,0 5.33333,2.388 5.33333,5.33334 h 53.33334 c 0,-2.94534 2.388,-5.33334 5.33333,-5.33334 2.94533,0 5.33333,2.388 5.33333,5.33334 h 112 c 2.94533,0 5.33333,-2.388 5.33333,-5.33334 V 101.33334 H 314.6668 V 85.333354 Z"
     inkscape:connector-curvature="0" /><g
     id="g36"
     transform="matrix(1.3333333,0,0,-1.3333333,0,341.33333)"><g
       id="g38" /><g
       id="g50"><g
         clip-path="url(#clipPath42)"
         id="g48"
         style="opacity:0.5"><g
           transform="translate(128.0001,152.8571)"
           id="g46"><path
             inkscape:connector-curvature="0"
             d="m 0,0 c 13.728,0 24.857,-11.129 24.857,-24.857 0,-13.728 -11.129,-24.857 -24.857,-24.857 -13.728,0 -24.857,11.129 -24.857,24.857 C -24.857,-11.129 -13.728,0 0,0 m 0,8.286 c -18.304,0 -33.143,-14.839 -33.143,-33.143 C -33.143,-43.161 -18.304,-58 0,-58 18.304,-58 33.143,-43.161 33.143,-24.857 33.143,-6.553 18.304,8.286 0,8.286"
             style="fill:#efefef;fill-opacity:1;fill-rule:nonzero;stroke:none"
             id="path44" /></g></g></g></g><g
     id="g64"
     transform="matrix(1.3333333,0,0,-1.3333333,32.205333,26.666671)"><path
       inkscape:connector-curvature="0"
       d="m 0,0 h 207.692 c 2.294,0 4.154,-1.791 4.154,-4 v -48 c 0,-2.209 -1.86,-4 -4.154,-4 H 0 c -2.294,0 -4.154,1.791 -4.154,4 v 48 c 0,2.209 1.86,4 4.154,4"
       style="fill:#00007b;fill-opacity:1;fill-rule:nonzero;stroke:none"
       id="path66" /></g><g
     id="g68"
     transform="matrix(1.3333333,0,0,-1.3333333,302.66666,96.000003)"><path
       inkscape:connector-curvature="0"
       d="m 0,0 h -78 c -0.55,0 -1,0.45 -1,1 v 46 c 0,0.55 0.45,1 1,1 H 0 c 0.55,0 1,-0.45 1,-1 V 1 C 1,0.45 0.55,0 0,0"
       style="fill:#d9d9d9;fill-opacity:1;fill-rule:nonzero;stroke:none"
       id="path70" /></g><path
     inkscape:connector-curvature="0"
     d="M 303.99999,48.000004 H 197.33333 v -5.333333 h 106.66666 z"
     style="fill:#999999;fill-opacity:1;fill-rule:nonzero;stroke:none;stroke-width:1.33333325"
     id="path72" /><path
     inkscape:connector-curvature="0"
     d="M 303.99999,58.66667 H 197.33333 v -5.333333 h 106.66666 z"
     style="fill:#999999;fill-opacity:1;fill-rule:nonzero;stroke:none;stroke-width:1.33333325"
     id="path74" /><path
     inkscape:connector-curvature="0"
     d="M 303.99999,69.333337 H 197.33333 v -5.333333 h 106.66666 z"
     style="fill:#999999;fill-opacity:1;fill-rule:nonzero;stroke:none;stroke-width:1.33333325"
     id="path76" /><path
     inkscape:connector-curvature="0"
     d="M 303.99999,80.000003 H 197.33333 V 74.66667 h 106.66666 z"
     style="fill:#999999;fill-opacity:1;fill-rule:nonzero;stroke:none;stroke-width:1.33333325"
     id="path78" /><path
     inkscape:connector-curvature="0"
     d="M 303.99999,90.66667 H 197.33333 v -5.333334 h 106.66666 z"
     style="fill:#999999;fill-opacity:1;fill-rule:nonzero;stroke:none;stroke-width:1.33333325"
     id="path80" /><g
     id="g82"
     transform="matrix(1.3333333,0,0,-1.3333333,85.587198,46.708004)"><path
       inkscape:connector-curvature="0"
       d="M 0,0 -0.001,3.401 H -3.117 L -14.281,-7.415 -25.445,3.401 h -3.116 V 0 l 11.199,-10.4 -11.199,-10.851 v -3.681 h 2.207 l 12.073,11.577 12.073,-11.577 h 2.207 v 3.681 L -11.2,-10.4 Z"
       style="fill:#0000b8;fill-opacity:1;fill-rule:nonzero;stroke:none"
       id="path84" /></g><g
     id="g86"
     transform="matrix(1.3333333,0,0,-1.3333333,90.666664,37.333338)"><path
       inkscape:connector-curvature="0"
       d="M 0,0 H -3.63 -32.37 -36 V -3.63 -32.37 -36 H -32.37 -3.63 0 v 3.63 28.74 z m -3.63,-32.37 h -28.74 v 28.74 h 28.74 z"
       style="fill:#00003d;fill-opacity:1;fill-rule:nonzero;stroke:none"
       id="path88" /></g><g
     id="g90"
     transform="matrix(1.3333333,0,0,-1.3333333,66.861998,64.182937)"><path
       inkscape:connector-curvature="0"
       d="m 0,0 c 0.604,0 1.114,0.211 1.532,0.632 0.418,0.422 0.626,1.186 0.626,2.294 0,0.9 -0.172,1.606 -0.517,2.118 C 1.296,5.555 0.76,5.811 0.034,5.811 -1.4,5.811 -2.118,4.836 -2.118,2.885 -2.118,1.939 -1.935,1.221 -1.569,0.733 -1.204,0.244 -0.681,0 0,0 m -0.014,-1.138 c -1.234,0 -2.196,0.391 -2.883,1.173 -0.688,0.781 -1.032,1.747 -1.032,2.896 0,1.142 0.366,2.097 1.096,2.866 0.731,0.768 1.696,1.152 2.894,1.152 1.208,0 2.162,-0.384 2.863,-1.152 C 3.626,5.028 3.976,4.068 3.976,2.914 3.976,1.703 3.612,0.725 2.884,-0.02 2.155,-0.765 1.189,-1.138 -0.014,-1.138"
       style="fill:#ffffff;fill-opacity:1;fill-rule:nonzero;stroke:none"
       id="path92" /></g><g
     id="g94"
     transform="matrix(1.3333333,0,0,-1.3333333,76.633465,62.577204)"><path
       inkscape:connector-curvature="0"
       d="m 0,0 1.605,0.001 c 0.187,-0.778 0.905,-1.205 2.154,-1.205 0.57,0 1.008,0.099 1.315,0.299 0.306,0.199 0.46,0.446 0.46,0.741 0,0.215 -0.07,0.413 -0.209,0.595 C 5.186,0.613 4.888,0.756 4.431,0.859 L 2.728,1.25 C 2.145,1.384 1.714,1.537 1.436,1.707 1.157,1.878 0.934,2.118 0.767,2.428 0.599,2.739 0.516,3.07 0.516,3.423 c 0,0.701 0.296,1.263 0.887,1.687 0.592,0.423 1.349,0.635 2.271,0.635 0.765,0 1.45,-0.148 2.052,-0.443 0.602,-0.295 1.277,-1.37 1.442,-1.91 L 5.361,3.408 C 5.126,4.002 4.568,4.607 3.706,4.607 3.206,4.607 2.825,4.515 2.561,4.331 2.298,4.147 2.167,3.913 2.167,3.63 2.167,3.181 2.58,2.867 3.406,2.687 L 4.92,2.354 C 5.838,2.151 6.454,1.851 6.767,1.454 7.08,1.058 7.237,0.62 7.237,0.141 c 0,-0.77 -0.33,-1.377 -0.989,-1.819 -0.659,-0.443 -1.513,-0.664 -2.561,-0.664 -0.883,0 -1.656,0.163 -2.32,0.488 C 0.704,-1.528 0.217,-0.69 0,0"
       style="fill:#ffffff;fill-opacity:1;fill-rule:nonzero;stroke:none"
       id="path96" /></g><g
     id="g98"
     transform="matrix(1.3333333,0,0,-1.3333333,72.688398,80.697337)"><path
       inkscape:connector-curvature="0"
       d="M 0,0 H -2.199 L -4.513,3.554 -6.965,0 H -8.72 l 3.31,4.696 -2.843,4.32 h 2.192 l 1.931,-2.999 2.046,2.999 h 1.762 L -3.234,4.901 Z"
       style="fill:#ffffff;fill-opacity:1;fill-rule:nonzero;stroke:none"
       id="path100" /></g><g
     id="g102"
     transform="matrix(1.3333333,0,0,-1.3333333,54.486932,63.04867)"><path
       inkscape:connector-curvature="0"
       d="m 0,0 c -0.395,-0.475 -0.875,-0.713 -1.441,-0.713 h -0.798 -0.022 v 5.576 h 0.969 c 0.566,0 1.022,-0.266 1.367,-0.796 C 0.419,3.536 0.592,2.887 0.592,2.121 0.592,1.182 0.395,0.475 0,0 M 1.096,4.843 C 0.516,5.599 -0.252,5.978 -1.209,5.978 H -5.622 V 4.863 h 1.096 v -5.576 h -1.14 v -1.161 l 4.173,0.006 c 1.112,0 1.966,0.374 2.563,1.121 0.597,0.747 0.896,1.676 0.896,2.788 0,1.111 -0.29,2.045 -0.87,2.802"
       style="fill:#ffffff;fill-opacity:1;fill-rule:nonzero;stroke:none"
       id="path104" /></g><g
     id="g106"
     transform="matrix(1.3333333,0,0,-1.3333333,70.062132,50.025071)"><path
       inkscape:connector-curvature="0"
       d="m 0,0 c -0.235,-0.205 -0.556,-0.307 -0.961,-0.307 h -1.917 v 2.272 h 1.923 c 0.394,0 0.71,-0.106 0.949,-0.318 C 0.233,1.434 0.352,1.161 0.352,0.829 0.352,0.481 0.235,0.205 0,0 M -2.878,5.288 H -1.1 c 0.33,0 0.617,-0.086 0.862,-0.258 C 0.007,4.858 0.13,4.59 0.13,4.227 0.13,3.898 0.022,3.627 -0.193,3.415 -0.408,3.202 -0.7,3.096 -1.07,3.096 H -2.878 Z M 1.413,1.931 C 1.116,2.286 0.678,2.512 0.099,2.609 c 0.467,0.089 0.832,0.295 1.097,0.617 0.265,0.323 0.398,0.703 0.398,1.14 0,0.464 -0.131,0.867 -0.392,1.212 -0.261,0.343 -0.57,0.57 -0.928,0.678 -0.357,0.108 -0.807,0.162 -1.35,0.162 h -5.177 v -1.13 h 1.107 v -5.639 h -1.107 v -1.13 l 5.569,-0.015 c 0.864,0 1.504,0.208 1.919,0.623 0.416,0.416 0.624,0.929 0.624,1.54 0,0.487 -0.148,0.908 -0.446,1.264"
       style="fill:#ffffff;fill-opacity:1;fill-rule:nonzero;stroke:none"
       id="path108" /></g><path
     id="path46"
     style="opacity:1;vector-effect:none;fill:#433d39;fill-opacity:1;fill-rule:nonzero;stroke:none;stroke-width:1.33333325;stroke-linecap:butt;stroke-linejoin:miter;stroke-miterlimit:4;stroke-dasharray:none;stroke-dashoffset:0;stroke-opacity:1"
     d="m 170.66633,314.66634 v 0 c -8.836,0 -16,-7.164 -16,-16 v -48 c 0,-8.836 7.164,-16 16,-16 8.836,0 16,7.164 16,16 v 48 c 0,8.836 -7.164,16 -16,16"
     inkscape:connector-curvature="0" /><path
     id="path50"
     style="opacity:1;vector-effect:none;fill:#433d39;fill-opacity:1;fill-rule:nonzero;stroke:none;stroke-width:1.33333325;stroke-linecap:butt;stroke-linejoin:miter;stroke-miterlimit:4;stroke-dasharray:none;stroke-dashoffset:0;stroke-opacity:1"
     d="m 234.66633,183.99968 c 0,4.41733 -3.58267,8 -8,8 -4.41733,0 -8,-3.58267 -8,-8 0,-4.41733 3.58267,-8 8,-8 4.41733,0 8,3.58267 8,8"
     inkscape:connector-curvature="0" /><path
     id="path54"
     style="fill:#262626;fill-opacity:1;fill-rule:nonzero;stroke:none;stroke-width:1.33333325"
     d="m 170.66633,202.66635 c -17.67333,0 -32,-14.32667 -32,-32 0,-17.67333 14.32667,-32 32,-32 17.67333,0 32,14.32667 32,32 0,17.67333 -14.32667,32 -32,32 m 0,-74.66666 c -23.564,0 -42.66667,19.10266 -42.66667,42.66666 0,23.564 19.10267,42.66667 42.66667,42.66667 23.564,0 42.66667,-19.10267 42.66667,-42.66667 0,-23.564 -19.10267,-42.66666 -42.66667,-42.66666"
     inkscape:connector-curvature="0" /><path
     id="path58"
     style="opacity:1;vector-effect:none;fill:#433d39;fill-opacity:1;fill-rule:nonzero;stroke:none;stroke-width:1.33333325;stroke-linecap:butt;stroke-linejoin:miter;stroke-miterlimit:4;stroke-dasharray:none;stroke-dashoffset:0;stroke-opacity:1"
     d="m 170.66633,125.33302 c -25.03733,0 -45.33333,20.296 -45.33333,45.33333 0,25.036 20.296,45.33333 45.33333,45.33333 25.036,0 45.33333,-20.29733 45.33333,-45.33333 0,-25.03733 -20.29733,-45.33333 -45.33333,-45.33333 m 0,5.33333 c 22.056,0 40,17.944 40,40 0,22.056 -17.944,40 -40,40 -22.056,0 -40,-17.944 -40,-40 0,-22.056 17.944,-40 40,-40"
     inkscape:connector-curvature="0" /></svg>