<?xml version="1.0" encoding="UTF-8" standalone="no"?>
<svg
   xmlns:dc="http://purl.org/dc/elements/1.1/"
   xmlns:cc="http://creativecommons.org/ns#"
   xmlns:rdf="http://www.w3.org/1999/02/22-rdf-syntax-ns#"
   xmlns:svg="http://www.w3.org/2000/svg"
   xmlns="http://www.w3.org/2000/svg"
   xmlns:sodipodi="http://sodipodi.sourceforge.net/DTD/sodipodi-0.dtd"
   xmlns:inkscape="http://www.inkscape.org/namespaces/inkscape"
   viewBox="0 0 341.33334 341.33334"
   height="341.33334"
   width="341.33334"
   xml:space="preserve"
   id="svg2"
   version="1.1"
   sodipodi:docname="Entex - Adventure Vision.svg"
   inkscape:version="0.92.2 (5c3e80d, 2017-08-06)"><sodipodi:namedview
     pagecolor="#ffffff"
     bordercolor="#666666"
     borderopacity="1"
     objecttolerance="10"
     gridtolerance="10"
     guidetolerance="10"
     inkscape:pageopacity="0"
     inkscape:pageshadow="2"
     inkscape:window-width="1024"
     inkscape:window-height="705"
     id="namedview79"
     showgrid="false"
     inkscape:pagecheckerboard="true"
     inkscape:zoom="0.69140623"
     inkscape:cx="170.66667"
     inkscape:cy="170.66667"
     inkscape:window-x="-8"
     inkscape:window-y="-8"
     inkscape:window-maximized="1"
     inkscape:current-layer="svg2" /><metadata
     id="metadata8"><rdf:RDF><cc:Work
         rdf:about=""><dc:format>image/svg+xml</dc:format><dc:type
           rdf:resource="http://purl.org/dc/dcmitype/StillImage" /><dc:title></dc:title></cc:Work></rdf:RDF></metadata><defs
     id="defs6"><clipPath
       id="clipPath18"
       clipPathUnits="userSpaceOnUse"><path
         id="path16"
         d="M 0,256 H 256 V 0 H 0 Z" /></clipPath><clipPath
       id="clipPath26"
       clipPathUnits="userSpaceOnUse"><path
         id="path24"
         d="M 8.04071,252 H 247.959 V 4 H 8.04071 Z" /></clipPath><clipPath
       id="clipPath70"
       clipPathUnits="userSpaceOnUse"><path
         id="path68"
         d="M 0,256 H 256 V 0 H 0 Z" /></clipPath></defs><path
     id="path38"
     style="fill:#262626;fill-opacity:1;fill-rule:nonzero;stroke:none;stroke-width:1.33333325"
     d="M 74.666665,213.33333 47.999999,256 H 293.33333 l -26.66667,-42.66667 -96,-10.66667 z"
     inkscape:connector-curvature="0" /><path
     id="path42"
     style="fill:#191919;fill-opacity:1;fill-rule:nonzero;stroke:none;stroke-width:1.33333325"
     d="M 266.66666,213.33333 H 74.666665 L 69.333332,53.333334 H 271.99999 Z"
     inkscape:connector-curvature="0" /><path
     inkscape:connector-curvature="0"
     d="M 271.99999,58.66667 H 69.333332 V 42.666671 H 271.99999 Z"
     style="fill:#262626;fill-opacity:1;fill-rule:nonzero;stroke:none;stroke-width:1.33333325"
     id="path44" /><path
     inkscape:connector-curvature="0"
     d="M 277.33333,48.000004 H 63.999998 V 16.000005 H 277.33333 Z"
     style="fill:#191919;fill-opacity:1;fill-rule:nonzero;stroke:none;stroke-width:1.33333325"
     id="path46" /><path
     id="path50"
     style="fill:#100d14;fill-opacity:1;fill-rule:nonzero;stroke:none;stroke-width:1.33333325"
     d="M 314.66666,325.33333 H 26.666667 l 5.333333,-48 h 277.33333 z"
     inkscape:connector-curvature="0" /><path
     inkscape:connector-curvature="0"
     d="M 287.99999,250.66667 H 53.333332 v -5.33334 H 287.99999 Z"
     style="fill:#262626;fill-opacity:1;fill-rule:nonzero;stroke:none;stroke-width:1.33333325"
     id="path52" /><path
     inkscape:connector-curvature="0"
     d="M 287.99999,245.33333 H 53.333332 V 240 H 287.99999 Z"
     style="fill:#e77f22;fill-opacity:1;fill-rule:nonzero;stroke:none;stroke-width:1.33333325"
     id="path54" /><path
     id="path58"
     style="fill:#b80000;fill-opacity:1;fill-rule:nonzero;stroke:none;stroke-width:1.33333325"
     d="M 293.33333,256 H 48.000003 l 5.333333,-5.33333 H 288 Z"
     inkscape:connector-curvature="0" /><path
     id="path62"
     style="fill:#4c4c4c;fill-opacity:1;fill-rule:nonzero;stroke:none;stroke-width:1.33333325"
     d="M 309.33333,282.66666 H 32.000004 L 48.000003,255.99999 H 293.33333 Z"
     inkscape:connector-curvature="0" /><g
     clip-path="url(#clipPath70)"
     id="g66"
     transform="matrix(1.3333333,0,0,-1.3333333,0,341.33333)"><g
       transform="translate(52.4224,219.1553)"
       id="g72"><path
         id="path74"
         style="fill:#cccccc;fill-opacity:1;fill-rule:nonzero;stroke:none"
         d="m 0,0 2.798,-5.596 c 0.514,-1.028 0.8,-2.154 0.84,-3.302 l 3.854,-111.758 c 0.055,-1.627 -0.386,-3.233 -1.266,-4.603 l -34.648,-53.896 v -28 h -4 c -2.209,0 -4,1.791 -4,4 v 22.825 c 0,0.767 0.22,1.518 0.635,2.163 l 34.013,52.908 c 0.88,1.37 1.321,2.976 1.266,4.603 L -4.362,-8.898 c -0.04,1.148 -0.326,2.274 -0.84,3.302 L -8,0 c -0.278,0.556 -0.422,1.168 -0.422,1.789 v 19.056 c 0,2.209 1.791,4 4,4 h 4 V 1.789 C -0.422,1.168 -0.278,0.556 0,0"
         inkscape:connector-curvature="0" /></g><g
       transform="translate(203.4961,219.1553)"
       id="g76"><path
         id="path78"
         style="fill:#cccccc;fill-opacity:1;fill-rule:nonzero;stroke:none"
         d="m 0,0 -2.798,-5.596 c -0.514,-1.028 -0.8,-2.154 -0.84,-3.302 l -3.853,-111.758 c -0.057,-1.627 0.386,-3.233 1.265,-4.603 l 34.649,-53.896 v -28 h 4 c 2.209,0 4,1.791 4,4 v 22.825 c 0,0.767 -0.221,1.518 -0.636,2.163 l -34.013,52.908 c -0.879,1.37 -1.322,2.976 -1.265,4.603 L 4.362,-8.898 c 0.04,1.148 0.326,2.274 0.84,3.302 L 8,0 c 0.278,0.556 0.423,1.168 0.423,1.789 v 19.056 c 0,2.209 -1.791,4 -4,4 h -4 V 1.789 C 0.423,1.168 0.278,0.556 0,0"
         inkscape:connector-curvature="0" /></g><g
       transform="translate(180.5508,108)"
       id="g80"><path
         id="path82"
         style="fill:#262626;fill-opacity:1;fill-rule:nonzero;stroke:none"
         d="m 0,0 h -105.102 c -4.197,0 -7.68,3.243 -7.98,7.43 L -118.551,84 c 0,4.418 3.582,8 8,8 h 116 c 4.418,0 8,-3.582 8,-8 L 7.979,7.43 C 7.681,3.243 4.197,0 0,0"
         inkscape:connector-curvature="0" /></g><g
       transform="translate(176,112)"
       id="g84"><path
         id="path86"
         style="fill:#191919;fill-opacity:1;fill-rule:nonzero;stroke:none"
         d="m 0,0 h -96 c -4.4,0 -8,3.6 -8,8 v 60 c 0,4.4 3.6,8 8,8 H 0 c 4.4,0 8,-3.6 8,-8 V 8 C 8,3.6 4.4,0 0,0"
         inkscape:connector-curvature="0" /></g><g
       transform="translate(152,76)"
       id="g88"><path
         id="path90"
         style="fill:#191919;fill-opacity:1;fill-rule:nonzero;stroke:none"
         d="m 0,0 h -48 l 3.088,9.265 c 0.545,1.633 2.073,2.735 3.795,2.735 h 34.234 c 1.722,0 3.25,-1.102 3.795,-2.735 z"
         inkscape:connector-curvature="0" /></g><path
       id="path92"
       style="fill:#a3834a;fill-opacity:1;fill-rule:nonzero;stroke:none"
       d="m 118,76 h 2 v 4 h -2 z"
       inkscape:connector-curvature="0" /><path
       id="path94"
       style="fill:#a3834a;fill-opacity:1;fill-rule:nonzero;stroke:none"
       d="m 122,76 h 2 v 4 h -2 z"
       inkscape:connector-curvature="0" /><path
       id="path96"
       style="fill:#a3834a;fill-opacity:1;fill-rule:nonzero;stroke:none"
       d="m 126,76 h 2 v 4 h -2 z"
       inkscape:connector-curvature="0" /><path
       id="path98"
       style="fill:#a3834a;fill-opacity:1;fill-rule:nonzero;stroke:none"
       d="m 130,76 h 2 v 4 h -2 z"
       inkscape:connector-curvature="0" /><path
       id="path100"
       style="fill:#a3834a;fill-opacity:1;fill-rule:nonzero;stroke:none"
       d="m 134,76 h 2 v 4 h -2 z"
       inkscape:connector-curvature="0" /><g
       transform="translate(56,60)"
       id="g102"><path
         id="path104"
         style="fill:#cccccc;fill-opacity:1;fill-rule:nonzero;stroke:none"
         d="M 0,0 8,-4 16,0 8,4 Z"
         inkscape:connector-curvature="0" /></g><g
       transform="translate(56,48)"
       id="g106"><path
         id="path108"
         style="fill:#cccccc;fill-opacity:1;fill-rule:nonzero;stroke:none"
         d="M 0,0 8,-4 16,0 8,4 Z"
         inkscape:connector-curvature="0" /></g><g
       transform="translate(46,54)"
       id="g110"><path
         id="path112"
         style="fill:#cccccc;fill-opacity:1;fill-rule:nonzero;stroke:none"
         d="M 0,0 8,-4 16,0 8,4 Z"
         inkscape:connector-curvature="0" /></g><g
       transform="translate(66,54)"
       id="g114"><path
         id="path116"
         style="fill:#cccccc;fill-opacity:1;fill-rule:nonzero;stroke:none"
         d="M 0,0 8,-4 16,0 8,4 Z"
         inkscape:connector-curvature="0" /></g><g
       transform="translate(186,60)"
       id="g118"><path
         id="path120"
         style="fill:#cccccc;fill-opacity:1;fill-rule:nonzero;stroke:none"
         d="M 0,0 8,-4 16,0 8,4 Z"
         inkscape:connector-curvature="0" /></g><g
       transform="translate(186,48)"
       id="g122"><path
         id="path124"
         style="fill:#cccccc;fill-opacity:1;fill-rule:nonzero;stroke:none"
         d="M 0,0 8,-4 16,0 8,4 Z"
         inkscape:connector-curvature="0" /></g><g
       transform="translate(176,54)"
       id="g126"><path
         id="path128"
         style="fill:#cccccc;fill-opacity:1;fill-rule:nonzero;stroke:none"
         d="M 0,0 8,-4 16,0 8,4 Z"
         inkscape:connector-curvature="0" /></g><g
       transform="translate(196,54)"
       id="g130"><path
         id="path132"
         style="fill:#cccccc;fill-opacity:1;fill-rule:nonzero;stroke:none"
         d="M 0,0 8,-4 16,0 8,4 Z"
         inkscape:connector-curvature="0" /></g><g
       transform="translate(104,64)"
       id="g134"><path
         id="path136"
         style="fill:#262626;fill-opacity:1;fill-rule:nonzero;stroke:none"
         d="M 0,0 -8,-20 H 56 L 48,0 Z"
         inkscape:connector-curvature="0" /></g><g
       transform="translate(128,64)"
       id="g138"><path
         id="path140"
         style="fill:#191919;fill-opacity:1;fill-rule:nonzero;stroke:none"
         d="m 0,0 c -10.665,0 -22,-3.505 -22,-10 0,-6.495 11.335,-10 22,-10 10.665,0 22,3.505 22,10 C 22,-3.505 10.665,0 0,0 m 0,-2 c 11.046,0 20,-3.582 20,-8 0,-4.418 -8.954,-8 -20,-8 -11.046,0 -20,3.582 -20,8 0,4.418 8.954,8 20,8"
         inkscape:connector-curvature="0" /></g><g
       transform="translate(144,54)"
       id="g142"><path
         id="path144"
         style="fill:#191919;fill-opacity:1;fill-rule:nonzero;stroke:none"
         d="m 0,0 c 0,-3.313 -7.163,-6 -16,-6 -8.836,0 -16,2.687 -16,6 0,3.313 7.164,6 16,6 C -7.163,6 0,3.313 0,0"
         inkscape:connector-curvature="0" /></g><g
       transform="translate(122.231,74.4814)"
       id="g146"><path
         id="path148"
         style="fill:#808080;fill-opacity:1;fill-rule:nonzero;stroke:none"
         d="m 0,0 3.468,-20.811 c 0.161,-0.963 0.995,-1.67 1.973,-1.67 h 0.612 c 0.978,0 1.812,0.707 1.973,1.67 L 11.538,0.263 C 11.681,1.122 11.258,1.975 10.483,2.372 8.892,3.188 5.798,4.045 1.202,2.179 0.343,1.829 -0.152,0.915 0,0"
         inkscape:connector-curvature="0" /></g><g
       transform="translate(128,75.8574)"
       id="g150"><path
         id="path152"
         style="fill:#999999;fill-opacity:1;fill-rule:nonzero;stroke:none"
         d="m 0,0 c -0.692,0 -1.36,0.053 -2,0.143 v -21.831 c 0,-1.199 0.896,-2.169 2,-2.169 1.104,0 2,0.97 2,2.169 V 0.143 C 1.359,0.053 0.692,0 0,0"
         inkscape:connector-curvature="0" /></g><path
       id="path154"
       style="fill:#e77f22;fill-opacity:1;fill-rule:nonzero;stroke:none"
       d="M 204,224 H 52 v 16 h 152 z"
       inkscape:connector-curvature="0" /><path
       id="path156"
       style="fill:#b80000;fill-opacity:1;fill-rule:nonzero;stroke:none"
       d="M 204,229 H 52 v 6 h 152 z"
       inkscape:connector-curvature="0" /></g></svg>