<?xml version="1.0" encoding="UTF-8" standalone="no"?>
<svg
   xmlns:dc="http://purl.org/dc/elements/1.1/"
   xmlns:cc="http://creativecommons.org/ns#"
   xmlns:rdf="http://www.w3.org/1999/02/22-rdf-syntax-ns#"
   xmlns:svg="http://www.w3.org/2000/svg"
   xmlns="http://www.w3.org/2000/svg"
   xmlns:sodipodi="http://sodipodi.sourceforge.net/DTD/sodipodi-0.dtd"
   xmlns:inkscape="http://www.inkscape.org/namespaces/inkscape"
   viewBox="0 0 341.33334 341.33334"
   height="341.33334"
   width="341.33334"
   xml:space="preserve"
   id="svg2"
   version="1.1"
   sodipodi:docname="Epoch - Super Cassette Vision-content.svg"
   inkscape:version="0.92.2 (5c3e80d, 2017-08-06)"><sodipodi:namedview
     pagecolor="#ffffff"
     bordercolor="#666666"
     borderopacity="1"
     objecttolerance="10"
     gridtolerance="10"
     guidetolerance="10"
     inkscape:pageopacity="0"
     inkscape:pageshadow="2"
     inkscape:window-width="1024"
     inkscape:window-height="705"
     id="namedview30"
     showgrid="false"
     inkscape:pagecheckerboard="true"
     inkscape:zoom="0.69140623"
     inkscape:cx="170.66667"
     inkscape:cy="170.66667"
     inkscape:window-x="-8"
     inkscape:window-y="-8"
     inkscape:window-maximized="1"
     inkscape:current-layer="svg2" /><metadata
     id="metadata8"><rdf:RDF><cc:Work
         rdf:about=""><dc:format>image/svg+xml</dc:format><dc:type
           rdf:resource="http://purl.org/dc/dcmitype/StillImage" /><dc:title></dc:title></cc:Work></rdf:RDF></metadata><defs
     id="defs6"><clipPath
       id="clipPath18"
       clipPathUnits="userSpaceOnUse"><path
         id="path16"
         d="M 0,256 H 256 V 0 H 0 Z" /></clipPath><clipPath
       id="clipPath26"
       clipPathUnits="userSpaceOnUse"><path
         id="path24"
         d="M 4,244 H 252 V 8 H 4 Z" /></clipPath></defs><g
     id="g22"
     transform="matrix(1.3333333,0,0,-1.3333333,0,341.33333)" /><path
     id="path38"
     style="fill:#262626;fill-opacity:1;fill-rule:nonzero;stroke:none;stroke-width:1.33333325"
     d="M 325.33333,53.372404 V 29.333738 c 0,-1.473333 -1.19467,-2.666667 -2.66667,-2.666667 h -21.33333 c -1.472,0 -2.66667,1.193334 -2.66667,2.666667 v 2.666667 H 42.66667 v -2.666667 c 0,-1.473333 -1.194666,-2.666667 -2.666666,-2.666667 H 18.666671 c -1.472,0 -2.666667,1.193334 -2.666667,2.666667 v 24.038666 h 5.333334 v 5.294667 h -5.333334 v 5.371999 h 5.333334 v 5.294667 h -5.333334 v 5.372 h 5.333334 v 5.294666 h -5.333334 v 5.372 h 5.333334 v 5.294667 h -5.333334 v 5.372 h 5.333334 v 5.29467 h -5.333334 v 5.372 h 5.333334 v 5.29466 h -5.333334 v 186.33733 c 0,0.21867 0.02667,0.436 0.08,0.64667 l 4.748,18.996 c 0.297334,1.18666 1.364,2.02 2.588,2.02 H 317.91733 c 1.224,0 2.29067,-0.83334 2.588,-2.02 l 4.748,-18.996 c 0.052,-0.21067 0.08,-0.428 0.08,-0.64667 V 112.0004 H 320 v -5.29466 h 5.33333 v -5.372 H 320 v -5.29467 h 5.33333 v -5.372 H 320 v -5.294667 h 5.33333 v -5.372 H 320 v -5.294666 h 5.33333 v -5.372 H 320 V 64.03907 h 5.33333 V 58.667071 H 320 v -5.294667 z"
     inkscape:connector-curvature="0" /><path
     inkscape:connector-curvature="0"
     d="M 319.99999,58.66667 H 21.333333 V 53.333337 H 319.99999 Z"
     style="fill:#191919;fill-opacity:1;fill-rule:nonzero;stroke:none;stroke-width:1.33333325"
     id="path40" /><path
     inkscape:connector-curvature="0"
     d="M 319.99999,69.333337 H 21.333333 V 64.000004 H 319.99999 Z"
     style="fill:#191919;fill-opacity:1;fill-rule:nonzero;stroke:none;stroke-width:1.33333325"
     id="path42" /><path
     inkscape:connector-curvature="0"
     d="M 319.99999,80.000003 H 21.333333 V 74.66667 H 319.99999 Z"
     style="fill:#191919;fill-opacity:1;fill-rule:nonzero;stroke:none;stroke-width:1.33333325"
     id="path44" /><path
     inkscape:connector-curvature="0"
     d="M 319.99999,90.66667 H 21.333333 V 85.333336 H 319.99999 Z"
     style="fill:#191919;fill-opacity:1;fill-rule:nonzero;stroke:none;stroke-width:1.33333325"
     id="path46" /><path
     inkscape:connector-curvature="0"
     d="M 319.99999,101.33334 H 21.333333 V 96.000003 H 319.99999 Z"
     style="fill:#191919;fill-opacity:1;fill-rule:nonzero;stroke:none;stroke-width:1.33333325"
     id="path48" /><path
     inkscape:connector-curvature="0"
     d="M 319.99999,112 H 21.333333 v -5.33333 H 319.99999 Z"
     style="fill:#191919;fill-opacity:1;fill-rule:nonzero;stroke:none;stroke-width:1.33333325"
     id="path50" /><path
     id="path54"
     style="fill:#404040;fill-opacity:1;fill-rule:nonzero;stroke:none;stroke-width:1.33333325"
     d="M 293.33333,170.66667 H 48.000003 c -2.945333,0 -5.333333,-2.388 -5.333333,-5.33333 V 32.000007 H 298.66666 V 165.33334 c 0,2.94533 -2.388,5.33333 -5.33333,5.33333"
     inkscape:connector-curvature="0" /><path
     id="path58"
     style="fill:#ffff00;fill-opacity:1;fill-rule:nonzero;stroke:none;stroke-width:1.33333325"
     d="M 79.999998,32.000004 42.666666,64.000003 V 32.000004 Z"
     inkscape:connector-curvature="0" /></svg>