<?xml version="1.0" encoding="UTF-8" standalone="no"?>
<svg
   xmlns:dc="http://purl.org/dc/elements/1.1/"
   xmlns:cc="http://creativecommons.org/ns#"
   xmlns:rdf="http://www.w3.org/1999/02/22-rdf-syntax-ns#"
   xmlns:svg="http://www.w3.org/2000/svg"
   xmlns="http://www.w3.org/2000/svg"
   xmlns:sodipodi="http://sodipodi.sourceforge.net/DTD/sodipodi-0.dtd"
   xmlns:inkscape="http://www.inkscape.org/namespaces/inkscape"
   viewBox="0 0 341.33334 341.33334"
   height="341.33334"
   width="341.33334"
   xml:space="preserve"
   id="svg2"
   version="1.1"
   sodipodi:docname="Funtech - Super Acan-content.svg"
   inkscape:version="0.92.2 (5c3e80d, 2017-08-06)"><sodipodi:namedview
     pagecolor="#ffffff"
     bordercolor="#666666"
     borderopacity="1"
     objecttolerance="10"
     gridtolerance="10"
     guidetolerance="10"
     inkscape:pageopacity="0"
     inkscape:pageshadow="2"
     inkscape:window-width="1024"
     inkscape:window-height="705"
     id="namedview37"
     showgrid="false"
     inkscape:pagecheckerboard="true"
     inkscape:zoom="0.97779607"
     inkscape:cx="184.89259"
     inkscape:cy="253.85109"
     inkscape:window-x="-8"
     inkscape:window-y="-8"
     inkscape:window-maximized="1"
     inkscape:current-layer="svg2" /><metadata
     id="metadata8"><rdf:RDF><cc:Work
         rdf:about=""><dc:format>image/svg+xml</dc:format><dc:type
           rdf:resource="http://purl.org/dc/dcmitype/StillImage" /><dc:title /></cc:Work></rdf:RDF></metadata><defs
     id="defs6"><clipPath
       id="clipPath18"
       clipPathUnits="userSpaceOnUse"><path
         id="path16"
         d="M 0,256 H 256 V 0 H 0 Z" /></clipPath><clipPath
       id="clipPath26"
       clipPathUnits="userSpaceOnUse"><path
         id="path24"
         d="M 4,216 H 252 V 40 H 4 Z" /></clipPath></defs><g
     id="g36"
     transform="matrix(1.3333333,0,0,-1.3333333,165.33333,64.000004)"
     style="fill:#4d4d4d"><path
       inkscape:connector-curvature="0"
       d="m 0,0 c -64,0 -96,-8 -96,-8 v -4 -148 h 200 v 148 4 C 104,-8 64,0 0,0"
       style="fill:#4d4d4d;fill-opacity:1;fill-rule:nonzero;stroke:none"
       id="path38" /></g><g
     id="g40"
     transform="matrix(1.3333333,0,0,-1.3333333,58.666665,272)"
     style="fill:#666666"><path
       inkscape:connector-curvature="0"
       d="m 0,0 h -32 v 144 c 0,2.209 1.791,4 4,4 H 0 Z"
       style="fill:#666666;fill-opacity:1;fill-rule:nonzero;stroke:none"
       id="path42" /></g><g
     id="g44"
     transform="matrix(1.3333333,0,0,-1.3333333,282.66666,272)"
     style="fill:#666666"><path
       inkscape:connector-curvature="0"
       d="m 0,0 h 32 v 144 c 0,2.209 -1.791,4 -4,4 H 0 Z"
       style="fill:#666666;fill-opacity:1;fill-rule:nonzero;stroke:none"
       id="path46" /></g><path
     inkscape:connector-curvature="0"
     d="M 277.33333,197.33333 H 63.999998 V 192 H 277.33333 Z"
     style="fill:#1a1a1a;fill-opacity:1;fill-rule:nonzero;stroke:none;stroke-width:1.33333325"
     id="path48" /><path
     inkscape:connector-curvature="0"
     d="M 277.33333,208 H 63.999998 v -5.33333 H 277.33333 Z"
     style="fill:#1a1a1a;fill-opacity:1;fill-rule:nonzero;stroke:none;stroke-width:1.33333325"
     id="path50" /><path
     inkscape:connector-curvature="0"
     d="M 277.33333,218.66667 H 63.999998 v -5.33334 H 277.33333 Z"
     style="fill:#1a1a1a;fill-opacity:1;fill-rule:nonzero;stroke:none;stroke-width:1.33333325"
     id="path52" /><path
     inkscape:connector-curvature="0"
     d="M 277.33333,229.33333 H 63.999998 V 224 H 277.33333 Z"
     style="fill:#1a1a1a;fill-opacity:1;fill-rule:nonzero;stroke:none;stroke-width:1.33333325"
     id="path54" /><path
     inkscape:connector-curvature="0"
     d="M 277.33333,240 H 63.999998 v -5.33333 H 277.33333 Z"
     style="fill:#1a1a1a;fill-opacity:1;fill-rule:nonzero;stroke:none;stroke-width:1.33333325"
     id="path56" /><path
     inkscape:connector-curvature="0"
     d="M 277.33333,250.66667 H 63.999998 v -5.33334 H 277.33333 Z"
     style="fill:#1a1a1a;fill-opacity:1;fill-rule:nonzero;stroke:none;stroke-width:1.33333325"
     id="path58" /><path
     inkscape:connector-curvature="0"
     d="M 277.33333,261.33333 H 63.999998 V 256 H 277.33333 Z"
     style="fill:#1a1a1a;fill-opacity:1;fill-rule:nonzero;stroke:none;stroke-width:1.33333325"
     id="path60" /><path
     inkscape:connector-curvature="0"
     d="M 277.33333,272 H 63.999998 v -5.33333 H 277.33333 Z"
     style="fill:#1a1a1a;fill-opacity:1;fill-rule:nonzero;stroke:none;stroke-width:1.33333325"
     id="path62" /><path
     inkscape:connector-curvature="0"
     d="M 144,213.33333 H 90.666664 v -16 H 144 Z"
     style="fill:#000000;fill-opacity:1;fill-rule:nonzero;stroke:none;stroke-width:1.33333325"
     id="path64" /><path
     inkscape:connector-curvature="0"
     d="m 250.66666,213.33333 h -53.33333 v -16 h 53.33333 z"
     style="fill:#000000;fill-opacity:1;fill-rule:nonzero;stroke:none;stroke-width:1.33333325"
     id="path66" /><path
     inkscape:connector-curvature="0"
     d="M 277.33333,101.33334 H 63.999998 V 74.66667 H 277.33333 Z"
     style="fill:#666666;fill-opacity:1;fill-rule:nonzero;stroke:none;stroke-width:1.33333325"
     id="path68" /><g
     id="g70"
     transform="matrix(1.3333333,0,0,-1.3333333,287.99999,186.66667)"><path
       inkscape:connector-curvature="0"
       d="m 0,0 h -176 c -2.209,0 -4,1.791 -4,4 v 64 c 0,2.209 1.791,4 4,4 H 0 c 2.209,0 4,-1.791 4,-4 V 4 C 4,1.791 2.209,0 0,0"
       style="fill:#ffffff;fill-opacity:1;fill-rule:nonzero;stroke:none"
       id="path72" /></g></svg>