<?xml version="1.0" encoding="UTF-8" standalone="no"?>
<svg
   xmlns:dc="http://purl.org/dc/elements/1.1/"
   xmlns:cc="http://creativecommons.org/ns#"
   xmlns:rdf="http://www.w3.org/1999/02/22-rdf-syntax-ns#"
   xmlns:svg="http://www.w3.org/2000/svg"
   xmlns="http://www.w3.org/2000/svg"
   xmlns:sodipodi="http://sodipodi.sourceforge.net/DTD/sodipodi-0.dtd"
   xmlns:inkscape="http://www.inkscape.org/namespaces/inkscape"
   viewBox="0 0 341.33334 341.33334"
   height="341.33334"
   width="341.33334"
   xml:space="preserve"
   id="svg2"
   version="1.1"
   sodipodi:docname="Game Park - GP32-content.svg"
   inkscape:version="0.92.2 (5c3e80d, 2017-08-06)"><sodipodi:namedview
     pagecolor="#ffffff"
     bordercolor="#666666"
     borderopacity="1"
     objecttolerance="10"
     gridtolerance="10"
     guidetolerance="10"
     inkscape:pageopacity="0"
     inkscape:pageshadow="2"
     inkscape:window-width="1024"
     inkscape:window-height="705"
     id="namedview35"
     showgrid="false"
     inkscape:pagecheckerboard="true"
     inkscape:zoom="0.69140623"
     inkscape:cx="170.66667"
     inkscape:cy="170.66667"
     inkscape:window-x="-8"
     inkscape:window-y="-8"
     inkscape:window-maximized="1"
     inkscape:current-layer="svg2" /><metadata
     id="metadata8"><rdf:RDF><cc:Work
         rdf:about=""><dc:format>image/svg+xml</dc:format><dc:type
           rdf:resource="http://purl.org/dc/dcmitype/StillImage" /><dc:title></dc:title></cc:Work></rdf:RDF></metadata><defs
     id="defs6"><clipPath
       id="clipPath18"
       clipPathUnits="userSpaceOnUse"><path
         id="path16"
         d="M 0,256 H 256 V 0 H 0 Z" /></clipPath><clipPath
       id="clipPath26"
       clipPathUnits="userSpaceOnUse"><path
         id="path24"
         d="M 24,252 H 232 V 4 H 24 Z" /></clipPath></defs><g
     id="g36"
     transform="matrix(1.3333333,0,0,-1.3333333,42.666666,288)"><path
       inkscape:connector-curvature="0"
       d="m 0,0 28,-28 h 155.998 c 4.419,0 8.001,3.583 8,8.002 L 192,200 c 0,2.209 -1.791,4 -4,4 H 4 c -2.209,0 -4,-1.791 -4,-4 z"
       style="fill:#262626;fill-opacity:1;fill-rule:nonzero;stroke:none"
       id="path38" /></g><g
     id="g40"
     transform="matrix(1.3333333,0,0,-1.3333333,90.666664,170.66667)"><path
       inkscape:connector-curvature="0"
       d="m 0,0 h 120 c 6.627,0 12,-5.373 12,-12 v -64 c 0,-6.627 -5.373,-12 -12,-12 H 0 c -6.627,0 -12,5.373 -12,12 v 64 c 0,6.627 5.373,12 12,12"
       style="fill:#a3834a;fill-opacity:1;fill-rule:nonzero;stroke:none"
       id="path42" /></g><g
     id="g44"
     transform="matrix(1.3333333,0,0,-1.3333333,79.999998,133.26494)"><path
       inkscape:connector-curvature="0"
       d="M 0,0 C 0.028,13.255 10.797,23.977 24.052,23.949 37.306,23.92 48.028,13.152 48,-0.103 47.972,-13.357 37.203,-24.08 23.949,-24.051 10.713,-24.023 -0.001,-13.285 0,-0.049"
       style="fill:#191919;fill-opacity:1;fill-rule:nonzero;stroke:none"
       id="path46" /></g><g
     id="g48"
     transform="matrix(1.3333333,0,0,-1.3333333,82.666665,16.000005)"><path
       inkscape:connector-curvature="0"
       d="m 0,0 h 132 v -52 c 0,-4.418 -3.582,-8 -8,-8 H 8 c -4.418,0 -8,3.582 -8,8 z"
       style="fill:#e6e6e6;fill-opacity:1;fill-rule:nonzero;stroke:none"
       id="path50" /></g><g
     id="g52"
     transform="matrix(1.3333333,0,0,-1.3333333,95.999998,176)"><path
       inkscape:connector-curvature="0"
       d="m 0,0 h 112 c 6.627,0 12,-5.373 12,-12 v -56 c 0,-6.627 -5.373,-12 -12,-12 H 0 c -6.627,0 -12,5.373 -12,12 v 56 c 0,6.627 5.373,12 12,12"
       style="fill:#bf9a57;fill-opacity:1;fill-rule:nonzero;stroke:none"
       id="path54" /></g><path
     inkscape:connector-curvature="0"
     d="m 160,122.66667 h 95.99999 v 32 H 160 Z"
     style="fill:#191919;fill-opacity:1;fill-rule:nonzero;stroke:none;stroke-width:1.33333325"
     id="path56" /><g
     id="g58"
     transform="matrix(1.3333333,0,0,-1.3333333,98.666664,288)"><path
       inkscape:connector-curvature="0"
       d="m 0,0 v 39.365 c 3.913,0.852 8.032,1.614 12,2.096 V 0 h 2 v 41.671 c 2.08,0.203 4.103,0.329 6,0.329 2.007,0 4.018,-0.132 6,-0.358 V 0 h 2 v 41.378 c 4.324,-0.637 8.444,-1.687 12,-2.798 V 0 h 2 v 37.931 c 5.689,-1.918 9.515,-3.804 9.628,-3.86 0.158,-0.062 1.003,-0.397 2.372,-0.896 V 0 h 2 v 32.466 c 2.964,-1.027 7.196,-2.383 12,-3.589 V 0 h 2 v 28.393 c 3.83,-0.897 7.938,-1.662 12,-2.071 V 0 h 2 V 26.152 C 85.349,26.057 86.687,26 88,26 c 2.605,0 5.304,0.207 8,0.553 V 0 h 2 v 26.834 c 4.184,0.638 8.304,1.574 12,2.564 V 0 h 2 v 24 5.949 2.102 C 105.012,30.04 95.963,28 88,28 72.382,28 52.57,35.85 52.447,35.895 51.785,36.226 36.052,44 20,44 13.235,44 5.151,42.614 -2,40.993 V 40 38.922 0 Z"
       style="fill:#a3834a;fill-opacity:1;fill-rule:nonzero;stroke:none"
       id="path60" /></g><g
     id="g62"
     transform="matrix(1.3333333,0,0,-1.3333333,95.999998,212.10413)"><path
       inkscape:connector-curvature="0"
       d="m 0,0 c 7.176,1.647 15.325,3.078 22,3.078 15.569,0 31.395,-7.815 31.628,-7.929 0.825,-0.329 20.364,-8.071 36.372,-8.071 8.051,0 16.993,1.958 24,3.947 v 0.053 2.051 29.949 h -2 V -7.425 c -3.69,-1.005 -7.814,-1.96 -12,-2.62 v 41.123 h -2 v -41.409 c -2.709,-0.359 -5.412,-0.591 -8,-0.591 -1.309,0 -2.647,0.06 -4,0.16 v 41.84 h -2 v -41.663 c -4.048,0.426 -8.169,1.217 -12,2.13 V 31.078 H 70 V -7.959 c -4.898,1.252 -9.178,2.644 -12,3.63 V 31.078 H 56 V -3.613 c -0.974,0.358 -1.533,0.578 -1.553,0.586 C 54.116,-2.862 50.02,-0.837 44,1.147 V 31.078 H 42 V 1.78 C 38.429,2.869 34.324,3.879 30,4.487 V 31.078 H 28 V 4.74 c -1.976,0.215 -3.985,0.338 -6,0.338 -1.911,0 -3.929,-0.113 -6,-0.307 V 31.078 H 14 V 4.56 C 10.021,4.093 5.908,3.352 2,2.513 V 31.078 H 0 v -20 -9.007 z"
       style="fill:#a3834a;fill-opacity:1;fill-rule:nonzero;stroke:none"
       id="path64" /></g><g
     id="g66"
     transform="matrix(1.3333333,0,0,-1.3333333,74.666665,230.59893)"><path
       inkscape:connector-curvature="0"
       d="m 0,0 c 0.238,0.08 24.344,7.949 40,7.949 15.569,0 31.395,-7.815 31.628,-7.928 0.825,-0.33 20.364,-8.072 36.372,-8.072 15.003,0 33.107,6.8 36,7.925 v 2.004 c -0.199,-0.079 -20.382,-7.929 -36,-7.929 -15.618,0 -35.43,7.85 -35.553,7.895 C 71.785,2.175 56.052,9.949 40,9.949 24.802,9.949 2.949,2.968 0,2.002 Z"
       style="fill:#a3834a;fill-opacity:1;fill-rule:nonzero;stroke:none"
       id="path68" /></g></svg>