<?xml version="1.0" encoding="UTF-8" standalone="no"?>
<svg
   xmlns:dc="http://purl.org/dc/elements/1.1/"
   xmlns:cc="http://creativecommons.org/ns#"
   xmlns:rdf="http://www.w3.org/1999/02/22-rdf-syntax-ns#"
   xmlns:svg="http://www.w3.org/2000/svg"
   xmlns="http://www.w3.org/2000/svg"
   xmlns:sodipodi="http://sodipodi.sourceforge.net/DTD/sodipodi-0.dtd"
   xmlns:inkscape="http://www.inkscape.org/namespaces/inkscape"
   viewBox="0 0 341.33334 341.33334"
   height="256"
   width="256"
   xml:space="preserve"
   id="svg2"
   version="1.1"
   sodipodi:docname="Hartung - Game Master-content.svg"
   inkscape:version="0.92.2 (5c3e80d, 2017-08-06)"><sodipodi:namedview
     pagecolor="#ffffff"
     bordercolor="#666666"
     borderopacity="1"
     objecttolerance="10"
     gridtolerance="10"
     guidetolerance="10"
     inkscape:pageopacity="0"
     inkscape:pageshadow="2"
     inkscape:window-width="1024"
     inkscape:window-height="705"
     id="namedview45"
     showgrid="false"
     inkscape:pagecheckerboard="true"
     inkscape:zoom="0.48889805"
     inkscape:cx="255.99393"
     inkscape:cy="-48.197239"
     inkscape:window-x="-8"
     inkscape:window-y="-8"
     inkscape:window-maximized="1"
     inkscape:current-layer="svg2"
     inkscape:measure-start="0,0"
     inkscape:measure-end="0,0" /><metadata
     id="metadata8"><rdf:RDF><cc:Work
         rdf:about=""><dc:format>image/svg+xml</dc:format><dc:type
           rdf:resource="http://purl.org/dc/dcmitype/StillImage" /><dc:title /></cc:Work></rdf:RDF></metadata><defs
     id="defs6"><clipPath
       id="clipPath18"
       clipPathUnits="userSpaceOnUse"><path
         id="path16"
         d="M 0,256 H 256 V 0 H 0 Z" /></clipPath><clipPath
       id="clipPath26"
       clipPathUnits="userSpaceOnUse"><path
         id="path24"
         d="M 4,248 H 252 V 8 H 4 Z" /></clipPath></defs><g
     id="g36"
     transform="matrix(1.3333333,0,0,-1.3333333,314.66666,288)"><path
       inkscape:connector-curvature="0"
       d="M 0,0 V 8 H -208 V 0 h -6 c -1.104,0 -2,-0.896 -2,-2 v -18 c 0,-2.209 1.791,-4 4,-4 H 0 c 2.209,0 4,1.791 4,4 V -2 C 4,-0.896 3.104,0 2,0 Z"
       style="fill:#0e6654;fill-opacity:1;fill-rule:nonzero;stroke:none"
       id="path38" /></g><path
     inkscape:connector-curvature="0"
     d="M 42.666666,314.66666 H 53.333332 V 277.33333 H 42.666666 Z"
     style="fill:#bc8a31;fill-opacity:1;fill-rule:nonzero;stroke:none;stroke-width:1.33333325"
     id="path40" /><path
     inkscape:connector-curvature="0"
     d="M 58.666665,314.66666 H 69.333332 V 277.33333 H 58.666665 Z"
     style="fill:#bc8a31;fill-opacity:1;fill-rule:nonzero;stroke:none;stroke-width:1.33333325"
     id="path42" /><path
     inkscape:connector-curvature="0"
     d="M 74.666665,314.66666 H 85.333331 V 277.33333 H 74.666665 Z"
     style="fill:#bc8a31;fill-opacity:1;fill-rule:nonzero;stroke:none;stroke-width:1.33333325"
     id="path44" /><path
     inkscape:connector-curvature="0"
     d="M 90.666664,314.66666 H 101.33333 V 277.33333 H 90.666664 Z"
     style="fill:#bc8a31;fill-opacity:1;fill-rule:nonzero;stroke:none;stroke-width:1.33333325"
     id="path46" /><path
     inkscape:connector-curvature="0"
     d="m 106.66666,314.66666 h 10.66667 v -37.33333 h -10.66667 z"
     style="fill:#bc8a31;fill-opacity:1;fill-rule:nonzero;stroke:none;stroke-width:1.33333325"
     id="path48" /><path
     inkscape:connector-curvature="0"
     d="m 122.66666,314.66666 h 10.66667 v -37.33333 h -10.66667 z"
     style="fill:#bc8a31;fill-opacity:1;fill-rule:nonzero;stroke:none;stroke-width:1.33333325"
     id="path50" /><path
     inkscape:connector-curvature="0"
     d="m 138.66666,314.66666 h 10.66667 v -37.33333 h -10.66667 z"
     style="fill:#bc8a31;fill-opacity:1;fill-rule:nonzero;stroke:none;stroke-width:1.33333325"
     id="path52" /><path
     inkscape:connector-curvature="0"
     d="m 154.66666,314.66666 h 10.66667 v -37.33333 h -10.66667 z"
     style="fill:#bc8a31;fill-opacity:1;fill-rule:nonzero;stroke:none;stroke-width:1.33333325"
     id="path54" /><path
     inkscape:connector-curvature="0"
     d="m 170.66666,314.66666 h 10.66667 v -37.33333 h -10.66667 z"
     style="fill:#bc8a31;fill-opacity:1;fill-rule:nonzero;stroke:none;stroke-width:1.33333325"
     id="path56" /><path
     inkscape:connector-curvature="0"
     d="m 186.66666,314.66666 h 10.66667 v -37.33333 h -10.66667 z"
     style="fill:#bc8a31;fill-opacity:1;fill-rule:nonzero;stroke:none;stroke-width:1.33333325"
     id="path58" /><path
     inkscape:connector-curvature="0"
     d="m 202.66666,314.66666 h 10.66667 v -37.33333 h -10.66667 z"
     style="fill:#bc8a31;fill-opacity:1;fill-rule:nonzero;stroke:none;stroke-width:1.33333325"
     id="path60" /><path
     inkscape:connector-curvature="0"
     d="m 218.66666,314.66666 h 10.66667 v -37.33333 h -10.66667 z"
     style="fill:#bc8a31;fill-opacity:1;fill-rule:nonzero;stroke:none;stroke-width:1.33333325"
     id="path62" /><path
     inkscape:connector-curvature="0"
     d="m 234.66666,314.66666 h 10.66667 v -37.33333 h -10.66667 z"
     style="fill:#bc8a31;fill-opacity:1;fill-rule:nonzero;stroke:none;stroke-width:1.33333325"
     id="path64" /><path
     inkscape:connector-curvature="0"
     d="m 250.66666,314.66666 h 10.66667 v -37.33333 h -10.66667 z"
     style="fill:#bc8a31;fill-opacity:1;fill-rule:nonzero;stroke:none;stroke-width:1.33333325"
     id="path66" /><path
     inkscape:connector-curvature="0"
     d="m 266.66666,314.66666 h 10.66667 v -37.33333 h -10.66667 z"
     style="fill:#bc8a31;fill-opacity:1;fill-rule:nonzero;stroke:none;stroke-width:1.33333325"
     id="path68" /><path
     inkscape:connector-curvature="0"
     d="m 282.66666,309.33333 h 10.66667 v -32 h -10.66667 z"
     style="fill:#bc8a31;fill-opacity:1;fill-rule:nonzero;stroke:none;stroke-width:1.33333325"
     id="path70" /><path
     inkscape:connector-curvature="0"
     d="m 298.66666,309.33333 h 10.66667 v -32 h -10.66667 z"
     style="fill:#bc8a31;fill-opacity:1;fill-rule:nonzero;stroke:none;stroke-width:1.33333325"
     id="path72" /><g
     id="g74"
     transform="matrix(1.3333333,0,0,-1.3333333,325.33333,282.66666)"><path
       inkscape:connector-curvature="0"
       d="m 0,0 h -228 c -2.209,0 -4,1.791 -4,4 v 188 c 0,2.209 1.791,4 4,4 H -4 c 2.209,0 4,-1.791 4,-4 z"
       style="fill:#333333;fill-opacity:1;fill-rule:nonzero;stroke:none"
       id="path76" /></g><g
     id="g78"
     transform="matrix(1.3333333,0,0,-1.3333333,314.66666,282.66666)"><path
       inkscape:connector-curvature="0"
       d="m 0,0 h -208 v 160 c 0,11.046 8.954,20 20,20 h 168 c 11.046,0 20,-8.954 20,-20 z"
       style="fill:#262626;fill-opacity:1;fill-rule:nonzero;stroke:none"
       id="path80" /></g><path
     inkscape:connector-curvature="0"
     d="M 255.99999,53.333337 H 90.666664 V 48.000004 H 255.99999 Z"
     style="fill:#333333;fill-opacity:1;fill-rule:nonzero;stroke:none;stroke-width:1.33333325"
     id="path82" /><path
     inkscape:connector-curvature="0"
     d="M 255.99999,64.000004 H 90.666664 V 58.66667 H 255.99999 Z"
     style="fill:#333333;fill-opacity:1;fill-rule:nonzero;stroke:none;stroke-width:1.33333325"
     id="path84" /><g
     id="g86"
     transform="matrix(1.3333333,0,0,-1.3333333,287.99999,256)"><path
       inkscape:connector-curvature="0"
       d="m 0,0 h -168 c -4.418,0 -8,3.582 -8,8 v 120 c 0,4.418 3.582,8 8,8 H 0 c 4.418,0 8,-3.582 8,-8 V 8 C 8,3.582 4.418,0 0,0"
       style="fill:#ffffff;fill-opacity:1;fill-rule:nonzero;stroke:none"
       id="path88" /></g><rect
     ry="0.68180543"
     y="165.33333"
     x="175.99998"
     height="42.271938"
     width="38.181103"
     id="rect861"
     style="opacity:1;vector-effect:none;fill:#b3b3b3;fill-opacity:1;stroke:none;stroke-width:1.06666672;stroke-linecap:butt;stroke-linejoin:miter;stroke-miterlimit:4;stroke-dasharray:none;stroke-dashoffset:0;stroke-opacity:1" /><g
     id="g872"
     transform="translate(-43.670794,-5.1144098)"
     style="fill:#333333"><g
       transform="matrix(1.3333333,0,0,-1.3333333,161.29535,247.12598)"
       id="g102"
       style="fill:#333333"><path
         id="path104"
         style="fill:#333333;fill-opacity:1;fill-rule:nonzero;stroke:none"
         d="M 0,0 14.062,12 V 6.757 L 20.009,12 V 3.946 c 0,0 4.088,7.676 4.336,7.676 0.248,0 9.726,-0.054 9.726,-0.054 L 32.522,8.757 H 26.885 L 26.08,7.243 h 3.159 L 27.381,4.108 H 24.965 L 24.283,2.865 h 11.398 l 0.744,1.189 h -5.699 l 4.398,7.622 h 9.911 L 43.301,8.703 h -5.637 l -0.929,-1.46 h 5.823 L 38.469,0 H 15.735 L 15.858,3.892 11.336,0 11.15,3.946 6.628,0 Z"
         inkscape:connector-curvature="0" /></g><g
       transform="matrix(1.3333333,0,0,-1.3333333,221.34254,231.7025)"
       id="g106"
       style="fill:#333333"><path
         id="path108"
         style="fill:#333333;fill-opacity:1;fill-rule:nonzero;stroke:none"
         d="M 0,0 C 0,0 -0.044,0 -0.121,0.001 L -1.215,-2.205 Z"
         inkscape:connector-curvature="0" /></g><g
       transform="matrix(1.3333333,0,0,-1.3333333,233.64934,235.52238)"
       id="g110"
       style="fill:#333333"><path
         id="path112"
         style="fill:#333333;fill-opacity:1;fill-rule:nonzero;stroke:none"
         d="m 0,0 1.735,2.973 h -9.912 l -4.398,-7.622 h 5.699 l -0.743,-1.189 h -5.493 l -1.684,-2.865 h 9.964 l 4.089,7.244 H -6.566 L -5.637,0 Z"
         inkscape:connector-curvature="0" /></g></g><rect
     ry="0.68180543"
     y="165.33333"
     x="99.637779"
     height="42.271938"
     width="38.181103"
     id="rect857"
     style="opacity:1;vector-effect:none;fill:#000000;fill-opacity:1;stroke:none;stroke-width:1.06666672;stroke-linecap:butt;stroke-linejoin:miter;stroke-miterlimit:4;stroke-dasharray:none;stroke-dashoffset:0;stroke-opacity:1" /><rect
     ry="0.68180543"
     y="165.33333"
     x="252.3622"
     height="42.271938"
     width="38.181103"
     id="rect865"
     style="opacity:1;vector-effect:none;fill:#b3b3b3;fill-opacity:1;stroke:none;stroke-width:1.06666672;stroke-linecap:butt;stroke-linejoin:miter;stroke-miterlimit:4;stroke-dasharray:none;stroke-dashoffset:0;stroke-opacity:1" /><rect
     ry="0.68180543"
     y="123.0614"
     x="61.45668"
     height="42.271938"
     width="38.181103"
     id="rect867"
     style="opacity:1;vector-effect:none;fill:#b3b3b3;fill-opacity:1;stroke:none;stroke-width:1.06666672;stroke-linecap:butt;stroke-linejoin:miter;stroke-miterlimit:4;stroke-dasharray:none;stroke-dashoffset:0;stroke-opacity:1" /><rect
     ry="0.68180543"
     y="80.789459"
     x="99.637779"
     height="42.271938"
     width="38.181103"
     id="rect869"
     style="opacity:1;vector-effect:none;fill:#000000;fill-opacity:1;stroke:none;stroke-width:1.06666672;stroke-linecap:butt;stroke-linejoin:miter;stroke-miterlimit:4;stroke-dasharray:none;stroke-dashoffset:0;stroke-opacity:1" /><rect
     style="opacity:1;vector-effect:none;fill:#b3b3b3;fill-opacity:1;stroke:none;stroke-width:1.06666672;stroke-linecap:butt;stroke-linejoin:miter;stroke-miterlimit:4;stroke-dasharray:none;stroke-dashoffset:0;stroke-opacity:1"
     id="rect875"
     width="38.181103"
     height="42.271938"
     x="252.3622"
     y="80.789459"
     ry="0.68180543" /><rect
     style="opacity:1;vector-effect:none;fill:#ffcc00;fill-opacity:1;stroke:#000000;stroke-width:6.66666698;stroke-linecap:butt;stroke-linejoin:miter;stroke-miterlimit:4;stroke-dasharray:none;stroke-dashoffset:0;stroke-opacity:1"
     id="rect851"
     width="183.13293"
     height="92.72554"
     x="84.433525"
     y="97.152794"
     ry="31.466646" /><text
     xml:space="preserve"
     style="font-style:normal;font-weight:normal;font-size:33.42438126px;line-height:1.25;font-family:sans-serif;letter-spacing:0px;word-spacing:0px;fill:#d40000;fill-opacity:1;stroke:none;stroke-width:1.33333337"
     x="109.92645"
     y="155.95995"
     id="text862"><tspan
       sodipodi:role="line"
       id="tspan860"
       x="109.92645"
       y="155.95995"
       style="fill:#d40000;stroke-width:1.33333337">Libretro</tspan></text>
<rect
     style="opacity:1;vector-effect:none;fill:#b3b3b3;fill-opacity:1;stroke:none;stroke-width:1.06666672;stroke-linecap:butt;stroke-linejoin:miter;stroke-miterlimit:4;stroke-dasharray:none;stroke-dashoffset:0;stroke-opacity:1"
     id="rect855"
     width="38.181103"
     height="42.271938"
     x="61.45668"
     y="207.60527"
     ry="0.68180543" /><rect
     style="opacity:1;vector-effect:none;fill:#000000;fill-opacity:1;stroke:none;stroke-width:1.06666672;stroke-linecap:butt;stroke-linejoin:miter;stroke-miterlimit:4;stroke-dasharray:none;stroke-dashoffset:0;stroke-opacity:1"
     id="rect863"
     width="38.181103"
     height="42.271938"
     x="214.18109"
     y="207.60527"
     ry="0.68180543" /></svg>