<?xml version="1.0" encoding="UTF-8" standalone="no"?>
<svg
   xmlns:dc="http://purl.org/dc/elements/1.1/"
   xmlns:cc="http://creativecommons.org/ns#"
   xmlns:rdf="http://www.w3.org/1999/02/22-rdf-syntax-ns#"
   xmlns:svg="http://www.w3.org/2000/svg"
   xmlns="http://www.w3.org/2000/svg"
   xmlns:sodipodi="http://sodipodi.sourceforge.net/DTD/sodipodi-0.dtd"
   xmlns:inkscape="http://www.inkscape.org/namespaces/inkscape"
   viewBox="0 0 341.33334 341.33334"
   height="256"
   width="256"
   xml:space="preserve"
   id="svg2"
   version="1.1"
   sodipodi:docname="Hartung - Game Master-content.svg"
   inkscape:version="0.92.2 (5c3e80d, 2017-08-06)"><sodipodi:namedview
     pagecolor="#ffffff"
     bordercolor="#666666"
     borderopacity="1"
     objecttolerance="10"
     gridtolerance="10"
     guidetolerance="10"
     inkscape:pageopacity="0"
     inkscape:pageshadow="2"
     inkscape:window-width="1024"
     inkscape:window-height="705"
     id="namedview45"
     showgrid="false"
     inkscape:pagecheckerboard="true"
     inkscape:zoom="1.3828125"
     inkscape:cx="160.95282"
     inkscape:cy="54.18073"
     inkscape:window-x="-8"
     inkscape:window-y="-8"
     inkscape:window-maximized="1"
     inkscape:current-layer="svg2" /><metadata
     id="metadata8"><rdf:RDF><cc:Work
         rdf:about=""><dc:format>image/svg+xml</dc:format><dc:type
           rdf:resource="http://purl.org/dc/dcmitype/StillImage" /><dc:title /></cc:Work></rdf:RDF></metadata><defs
     id="defs6"><clipPath
       id="clipPath18"
       clipPathUnits="userSpaceOnUse"><path
         id="path16"
         d="M 0,256 H 256 V 0 H 0 Z" /></clipPath><clipPath
       id="clipPath26"
       clipPathUnits="userSpaceOnUse"><path
         id="path24"
         d="M 4,248 H 252 V 8 H 4 Z" /></clipPath></defs><g
     id="g36"
     transform="matrix(1.3333333,0,0,-1.3333333,314.66666,288)"><path
       inkscape:connector-curvature="0"
       d="M 0,0 V 8 H -208 V 0 h -6 c -1.104,0 -2,-0.896 -2,-2 v -18 c 0,-2.209 1.791,-4 4,-4 H 0 c 2.209,0 4,1.791 4,4 V -2 C 4,-0.896 3.104,0 2,0 Z"
       style="fill:#0e6654;fill-opacity:1;fill-rule:nonzero;stroke:none"
       id="path38" /></g><path
     inkscape:connector-curvature="0"
     d="M 42.666666,314.66666 H 53.333332 V 277.33333 H 42.666666 Z"
     style="fill:#bc8a31;fill-opacity:1;fill-rule:nonzero;stroke:none;stroke-width:1.33333325"
     id="path40" /><path
     inkscape:connector-curvature="0"
     d="M 58.666665,314.66666 H 69.333332 V 277.33333 H 58.666665 Z"
     style="fill:#bc8a31;fill-opacity:1;fill-rule:nonzero;stroke:none;stroke-width:1.33333325"
     id="path42" /><path
     inkscape:connector-curvature="0"
     d="M 74.666665,314.66666 H 85.333331 V 277.33333 H 74.666665 Z"
     style="fill:#bc8a31;fill-opacity:1;fill-rule:nonzero;stroke:none;stroke-width:1.33333325"
     id="path44" /><path
     inkscape:connector-curvature="0"
     d="M 90.666664,314.66666 H 101.33333 V 277.33333 H 90.666664 Z"
     style="fill:#bc8a31;fill-opacity:1;fill-rule:nonzero;stroke:none;stroke-width:1.33333325"
     id="path46" /><path
     inkscape:connector-curvature="0"
     d="m 106.66666,314.66666 h 10.66667 v -37.33333 h -10.66667 z"
     style="fill:#bc8a31;fill-opacity:1;fill-rule:nonzero;stroke:none;stroke-width:1.33333325"
     id="path48" /><path
     inkscape:connector-curvature="0"
     d="m 122.66666,314.66666 h 10.66667 v -37.33333 h -10.66667 z"
     style="fill:#bc8a31;fill-opacity:1;fill-rule:nonzero;stroke:none;stroke-width:1.33333325"
     id="path50" /><path
     inkscape:connector-curvature="0"
     d="m 138.66666,314.66666 h 10.66667 v -37.33333 h -10.66667 z"
     style="fill:#bc8a31;fill-opacity:1;fill-rule:nonzero;stroke:none;stroke-width:1.33333325"
     id="path52" /><path
     inkscape:connector-curvature="0"
     d="m 154.66666,314.66666 h 10.66667 v -37.33333 h -10.66667 z"
     style="fill:#bc8a31;fill-opacity:1;fill-rule:nonzero;stroke:none;stroke-width:1.33333325"
     id="path54" /><path
     inkscape:connector-curvature="0"
     d="m 170.66666,314.66666 h 10.66667 v -37.33333 h -10.66667 z"
     style="fill:#bc8a31;fill-opacity:1;fill-rule:nonzero;stroke:none;stroke-width:1.33333325"
     id="path56" /><path
     inkscape:connector-curvature="0"
     d="m 186.66666,314.66666 h 10.66667 v -37.33333 h -10.66667 z"
     style="fill:#bc8a31;fill-opacity:1;fill-rule:nonzero;stroke:none;stroke-width:1.33333325"
     id="path58" /><path
     inkscape:connector-curvature="0"
     d="m 202.66666,314.66666 h 10.66667 v -37.33333 h -10.66667 z"
     style="fill:#bc8a31;fill-opacity:1;fill-rule:nonzero;stroke:none;stroke-width:1.33333325"
     id="path60" /><path
     inkscape:connector-curvature="0"
     d="m 218.66666,314.66666 h 10.66667 v -37.33333 h -10.66667 z"
     style="fill:#bc8a31;fill-opacity:1;fill-rule:nonzero;stroke:none;stroke-width:1.33333325"
     id="path62" /><path
     inkscape:connector-curvature="0"
     d="m 234.66666,314.66666 h 10.66667 v -37.33333 h -10.66667 z"
     style="fill:#bc8a31;fill-opacity:1;fill-rule:nonzero;stroke:none;stroke-width:1.33333325"
     id="path64" /><path
     inkscape:connector-curvature="0"
     d="m 250.66666,314.66666 h 10.66667 v -37.33333 h -10.66667 z"
     style="fill:#bc8a31;fill-opacity:1;fill-rule:nonzero;stroke:none;stroke-width:1.33333325"
     id="path66" /><path
     inkscape:connector-curvature="0"
     d="m 266.66666,314.66666 h 10.66667 v -37.33333 h -10.66667 z"
     style="fill:#bc8a31;fill-opacity:1;fill-rule:nonzero;stroke:none;stroke-width:1.33333325"
     id="path68" /><path
     inkscape:connector-curvature="0"
     d="m 282.66666,309.33333 h 10.66667 v -32 h -10.66667 z"
     style="fill:#bc8a31;fill-opacity:1;fill-rule:nonzero;stroke:none;stroke-width:1.33333325"
     id="path70" /><path
     inkscape:connector-curvature="0"
     d="m 298.66666,309.33333 h 10.66667 v -32 h -10.66667 z"
     style="fill:#bc8a31;fill-opacity:1;fill-rule:nonzero;stroke:none;stroke-width:1.33333325"
     id="path72" /><g
     id="g74"
     transform="matrix(1.3333333,0,0,-1.3333333,325.33333,282.66666)"><path
       inkscape:connector-curvature="0"
       d="m 0,0 h -228 c -2.209,0 -4,1.791 -4,4 v 188 c 0,2.209 1.791,4 4,4 H -4 c 2.209,0 4,-1.791 4,-4 z"
       style="fill:#333333;fill-opacity:1;fill-rule:nonzero;stroke:none"
       id="path76" /></g><g
     id="g78"
     transform="matrix(1.3333333,0,0,-1.3333333,314.66666,282.66666)"><path
       inkscape:connector-curvature="0"
       d="m 0,0 h -208 v 160 c 0,11.046 8.954,20 20,20 h 168 c 11.046,0 20,-8.954 20,-20 z"
       style="fill:#262626;fill-opacity:1;fill-rule:nonzero;stroke:none"
       id="path80" /></g><path
     inkscape:connector-curvature="0"
     d="M 255.99999,53.333337 H 90.666664 V 48.000004 H 255.99999 Z"
     style="fill:#333333;fill-opacity:1;fill-rule:nonzero;stroke:none;stroke-width:1.33333325"
     id="path82" /><path
     inkscape:connector-curvature="0"
     d="M 255.99999,64.000004 H 90.666664 V 58.66667 H 255.99999 Z"
     style="fill:#333333;fill-opacity:1;fill-rule:nonzero;stroke:none;stroke-width:1.33333325"
     id="path84" /><g
     id="g86"
     transform="matrix(1.3333333,0,0,-1.3333333,287.99999,256)"><path
       inkscape:connector-curvature="0"
       d="m 0,0 h -168 c -4.418,0 -8,3.582 -8,8 v 120 c 0,4.418 3.582,8 8,8 H 0 c 4.418,0 8,-3.582 8,-8 V 8 C 8,3.582 4.418,0 0,0"
       style="fill:#ffffff;fill-opacity:1;fill-rule:nonzero;stroke:none"
       id="path88" /></g></svg>
