<?xml version="1.0" encoding="UTF-8" standalone="no"?>
<svg
   xmlns:dc="http://purl.org/dc/elements/1.1/"
   xmlns:cc="http://creativecommons.org/ns#"
   xmlns:rdf="http://www.w3.org/1999/02/22-rdf-syntax-ns#"
   xmlns:svg="http://www.w3.org/2000/svg"
   xmlns="http://www.w3.org/2000/svg"
   xmlns:sodipodi="http://sodipodi.sourceforge.net/DTD/sodipodi-0.dtd"
   xmlns:inkscape="http://www.inkscape.org/namespaces/inkscape"
   viewBox="0 0 341.33334 341.33334"
   height="256"
   width="256"
   xml:space="preserve"
   id="svg2"
   version="1.1"
   sodipodi:docname="image.svg"
   inkscape:version="0.92.3 (2405546, 2018-03-11)"><sodipodi:namedview
     pagecolor="#ffffff"
     bordercolor="#666666"
     borderopacity="1"
     objecttolerance="10"
     gridtolerance="10"
     guidetolerance="10"
     inkscape:pageopacity="0"
     inkscape:pageshadow="2"
     inkscape:window-width="1024"
     inkscape:window-height="705"
     id="namedview28"
     showgrid="false"
     inkscape:pagecheckerboard="true"
     inkscape:zoom="1.3828125"
     inkscape:cx="75.62139"
     inkscape:cy="161.11804"
     inkscape:window-x="-8"
     inkscape:window-y="-8"
     inkscape:window-maximized="1"
     inkscape:current-layer="svg2" /><metadata
     id="metadata8"><rdf:RDF><cc:Work
         rdf:about=""><dc:format>image/svg+xml</dc:format><dc:type
           rdf:resource="http://purl.org/dc/dcmitype/StillImage" /><dc:title /></cc:Work></rdf:RDF></metadata><defs
     id="defs6"><clipPath
       id="clipPath18"
       clipPathUnits="userSpaceOnUse"><path
         id="path16"
         d="M 0,256 H 256 V 0 H 0 Z" /></clipPath><clipPath
       id="clipPath26"
       clipPathUnits="userSpaceOnUse"><path
         id="path24"
         d="M 76,192 H 180 V 64 H 76 Z" /></clipPath><clipPath
       id="clipPath54"
       clipPathUnits="userSpaceOnUse"><path
         inkscape:connector-curvature="0"
         id="path52"
         d="M 0,256 H 256 V 0 H 0 Z" /></clipPath></defs><g
     id="g878"
     transform="translate(274.80227,8.6779624)"><path
       id="path40"
       style="fill:#e6e6e6;fill-opacity:1;fill-rule:nonzero;stroke:none;stroke-width:1.33333325"
       d="M -18.802272,231.32205 H -189.46892 V 92.655385 h 170.666648 z"
       inkscape:connector-curvature="0" /><path
       id="path42-8"
       style="fill:#9bc2dd;fill-opacity:1;fill-rule:nonzero;stroke:none;stroke-width:1.33333325"
       d="M -24.135602,199.32205 H -184.13559 V 97.988715 h 159.999988 z"
       inkscape:connector-curvature="0" /><path
       inkscape:connector-curvature="0"
       d="m -183.37386,225.98872 h 159.238658 v -42.66667 l -47.770662,-36.57199 -47.773326,36.57199 -23.88533,-18.28533 -39.80934,30.476 z"
       style="fill:#16a085;fill-opacity:1;fill-rule:nonzero;stroke:none;stroke-width:1.33333325"
       id="path46-9" /><g
       transform="matrix(1.3333333,0,0,-1.3333333,-274.80226,332.65537)"
       id="g50"
       clip-path="url(#clipPath54)"><g
         id="g56"
         transform="translate(96,148.5713)"><path
           inkscape:connector-curvature="0"
           d="m 0,0 c 0,-3.787 -3.07,-6.857 -6.857,-6.857 -3.787,0 -6.857,3.07 -6.857,6.857 0,3.787 3.07,6.857 6.857,6.857 C -3.07,6.857 0,3.787 0,0"
           style="fill:#eac500;fill-opacity:1;fill-rule:nonzero;stroke:none"
           id="path58" /></g><g
         id="g60"
         transform="translate(60,184)"><path
           inkscape:connector-curvature="0"
           d="m 0,0 v -24 l 6,6 v 12 h 12 l 6,6 z"
           style="fill:#cccccc;fill-opacity:1;fill-rule:nonzero;stroke:none"
           id="path62" /></g><g
         id="g64"
         transform="translate(196,184)"><path
           inkscape:connector-curvature="0"
           d="m 0,0 h -24 l 6,-6 h 12 v -12 l 6,-6 z"
           style="fill:#cccccc;fill-opacity:1;fill-rule:nonzero;stroke:none"
           id="path66" /></g><g
         id="g68"
         transform="translate(196,72)"><path
           inkscape:connector-curvature="0"
           d="M 0,0 V 24 L -6,18 V 6 h -12 l -6,-6 z"
           style="fill:#cccccc;fill-opacity:1;fill-rule:nonzero;stroke:none"
           id="path70" /></g><g
         id="g72"
         transform="translate(60,72)"><path
           inkscape:connector-curvature="0"
           d="M 0,0 H 24 L 18,6 H 6 v 12 l -6,6 z"
           style="fill:#cccccc;fill-opacity:1;fill-rule:nonzero;stroke:none"
           id="path74" /></g></g></g></svg>