<?xml version="1.0" encoding="UTF-8" standalone="no"?>
<svg
   xmlns:dc="http://purl.org/dc/elements/1.1/"
   xmlns:cc="http://creativecommons.org/ns#"
   xmlns:rdf="http://www.w3.org/1999/02/22-rdf-syntax-ns#"
   xmlns:svg="http://www.w3.org/2000/svg"
   xmlns="http://www.w3.org/2000/svg"
   xmlns:sodipodi="http://sodipodi.sourceforge.net/DTD/sodipodi-0.dtd"
   xmlns:inkscape="http://www.inkscape.org/namespaces/inkscape"
   viewBox="0 0 341.33334 341.33334"
   height="341.33334"
   width="341.33334"
   xml:space="preserve"
   id="svg2"
   version="1.1"
   sodipodi:docname="LeapFrog - Leapster Learning Game System.svg"
   inkscape:version="0.92.2 (5c3e80d, 2017-08-06)"><sodipodi:namedview
     pagecolor="#ffffff"
     bordercolor="#666666"
     borderopacity="1"
     objecttolerance="10"
     gridtolerance="10"
     guidetolerance="10"
     inkscape:pageopacity="0"
     inkscape:pageshadow="2"
     inkscape:window-width="1024"
     inkscape:window-height="705"
     id="namedview56"
     showgrid="false"
     inkscape:zoom="0.97779607"
     inkscape:cx="155.34228"
     inkscape:cy="243.15734"
     inkscape:window-x="-8"
     inkscape:window-y="-8"
     inkscape:window-maximized="1"
     inkscape:current-layer="svg2" /><metadata
     id="metadata8"><rdf:RDF><cc:Work
         rdf:about=""><dc:format>image/svg+xml</dc:format><dc:type
           rdf:resource="http://purl.org/dc/dcmitype/StillImage" /></cc:Work></rdf:RDF></metadata><defs
     id="defs6"><clipPath
       id="clipPath18"
       clipPathUnits="userSpaceOnUse"><path
         id="path16"
         d="M 0,256 H 256 V 0 H 0 Z" /></clipPath><clipPath
       id="clipPath26"
       clipPathUnits="userSpaceOnUse"><path
         id="path24"
         d="M 4,208 H 252 V 48 H 4 Z" /></clipPath></defs><g
     id="g20"
     transform="matrix(1.3333333,0,0,-1.3333333,0,341.33333)"><g
       id="g22" /><g
       id="g34"><g
         clip-path="url(#clipPath26)"
         id="g32"
         style="opacity:0.5"><g
           transform="translate(252,128)"
           id="g30"><path
             inkscape:connector-curvature="0"
             d="M 0,0 C 0,0.291 -0.007,0.58 -0.014,0.868 -0.018,0.992 -0.021,1.116 -0.022,1.241 L -0.026,1.558 C -0.035,2.271 -0.044,2.986 -0.069,3.694 -0.103,4.625 -0.157,5.518 -0.21,6.382 l -0.019,0.329 c -0.01,0.214 -0.022,0.429 -0.037,0.642 -0.065,0.929 -0.153,1.93 -0.275,3.144 l -0.01,0.098 c -0.01,0.111 -0.02,0.222 -0.032,0.332 -0.115,1.097 -0.253,2.217 -0.42,3.414 -0.002,0.015 -0.004,0.031 -0.007,0.046 C -6.328,52.406 -31.979,80 -62,80 c -2.333,0 -4.744,-0.181 -7.167,-0.539 -0.159,-0.023 -0.317,-0.051 -0.474,-0.084 C -69.993,79.303 -105.068,72 -124,72 c -18.934,0 -54.394,7.369 -54.75,7.443 -0.18,0.038 -0.363,0.07 -0.546,0.095 -2.226,0.307 -4.481,0.462 -6.704,0.462 -30.021,0 -55.671,-27.594 -60.991,-65.613 -0.002,-0.015 -0.004,-0.031 -0.006,-0.047 -0.167,-1.196 -0.305,-2.316 -0.421,-3.421 -0.011,-0.102 -0.021,-0.213 -0.031,-0.324 l -0.008,-0.085 c -0.124,-1.227 -0.212,-2.228 -0.277,-3.164 -0.015,-0.206 -0.027,-0.421 -0.038,-0.635 l -0.015,-0.279 c -0.056,-0.914 -0.111,-1.807 -0.144,-2.746 -0.025,-0.7 -0.034,-1.415 -0.043,-2.128 l -0.004,-0.31 c -0.001,-0.132 -0.004,-0.256 -0.008,-0.38 C -247.993,0.58 -248,0.291 -248,0 v -0.05 -0.048 c 0,-19.276 5.348,-37.876 15.059,-52.372 10.015,-14.95 23.913,-24.533 39.135,-26.983 0.426,-0.068 0.852,-0.103 1.274,-0.103 0.027,0 0.055,10e-4 0.082,10e-4 2.195,-0.296 4.358,-0.445 6.45,-0.445 2.223,0 4.478,0.155 6.704,0.462 0.183,0.025 0.366,0.057 0.546,0.095 0.356,0.074 35.816,7.443 54.75,7.443 18.951,0 54.007,-7.303 54.358,-7.377 0.158,-0.033 0.316,-0.061 0.475,-0.085 2.423,-0.356 4.834,-0.538 7.167,-0.538 2.092,0 4.256,0.149 6.45,0.445 0.028,0 0.055,-10e-4 0.082,-10e-4 0.422,0 0.848,0.035 1.275,0.103 15.22,2.45 29.119,12.033 39.134,26.983 C -5.348,-37.974 0,-19.374 0,-0.098 v 0.049 z"
             style="fill:#ffffff;fill-opacity:1;fill-rule:nonzero;stroke:none"
             id="path28" /></g></g></g></g><path
     id="path38"
     style="fill:#00dc00;fill-opacity:1;fill-rule:nonzero;stroke:none;stroke-width:1.33333325"
     d="m 253.33333,74.66667 c -2.70533,0 -5.372,0.216 -8,0.604 0,0 -48,10.062666 -74.66666,10.062666 -26.66667,0 -75.182669,-10.150666 -75.182669,-10.150666 -2.46,-0.338667 -4.956,-0.516 -7.484,-0.516 -39.763999,0 -71.999998,42.98 -71.999998,96 0,53.02 32.235999,96 71.999998,96 2.528,0 5.024,-0.17734 7.484,-0.516 0,0 48.515999,-10.15067 75.182669,-10.15067 26.66666,0 74.66666,10.06267 74.66666,10.06267 2.628,0.388 5.29467,0.604 8,0.604 39.764,0 72,-42.98 72,-96 0,-53.02 -32.236,-96 -72,-96"
     inkscape:connector-curvature="0" /><g
     id="g40"
     transform="matrix(1.3333333,0,0,-1.3333333,85.333331,149.46413)"><path
       inkscape:connector-curvature="0"
       d="M 0,0 C 0,21.177 -31.137,29.895 -38.464,31.653 -46.882,18.956 -52,2.279 -52,-16 -52,-52.813 -31.274,-83.153 -4.535,-87.457 -8.052,-83.855 -28,-62.943 -28,-52 c 0,12 4,16 16,28 C 0,-12 0,0 0,0"
       style="fill:#4b5da7;fill-opacity:1;fill-rule:nonzero;stroke:none"
       id="path42" /></g><g
     id="g44"
     transform="matrix(1.3333333,0,0,-1.3333333,255.99999,149.46413)"><path
       inkscape:connector-curvature="0"
       d="M 0,0 C 0,21.177 31.138,29.895 38.464,31.653 46.882,18.956 52,2.279 52,-16 52,-52.813 31.274,-83.153 4.535,-87.457 8.052,-83.855 28,-62.943 28,-52 28,-40 24,-36 12,-24 0,-12 0,0 0,0"
       style="fill:#4b5da7;fill-opacity:1;fill-rule:nonzero;stroke:none"
       id="path46" /></g><g
     id="g48"
     transform="matrix(1.3333333,0,0,-1.3333333,229.33333,106.66667)"
     style="fill:#00a100;fill-opacity:1"><path
       inkscape:connector-curvature="0"
       d="m 0,0 h -88 c -6.627,0 -12,-20.595 -12,-46 0,-25.405 5.373,-46 12,-46 H 0 c 6.627,0 12,20.595 12,46 C 12,-20.595 6.627,0 0,0"
       style="fill:#00a100;fill-opacity:1;fill-rule:nonzero;stroke:none"
       id="path50" /></g><g
     id="g52"
     transform="matrix(1.3333333,0,0,-1.3333333,221.33333,218.66667)"><path
       inkscape:connector-curvature="0"
       d="m 0,0 h -76 c -1.104,0 -2,0.896 -2,2 v 76 c 0,1.104 0.896,2 2,2 H 0 c 1.104,0 2,-0.896 2,-2 V 2 C 2,0.896 1.104,0 0,0"
       style="fill:#808080;fill-opacity:1;fill-rule:nonzero;stroke:none"
       id="path54" /></g><g
     id="g56"
     transform="matrix(1.3333333,0,0,-1.3333333,58.666665,101.33334)"><path
       inkscape:connector-curvature="0"
       d="m 0,0 c 0,-2.209 -1.791,-4 -4,-4 -2.209,0 -4,1.791 -4,4 0,2.209 1.791,4 4,4 2.209,0 4,-1.791 4,-4"
       style="fill:#b3b3b3;fill-opacity:1;fill-rule:nonzero;stroke:none"
       id="path58" /></g><g
     id="g60"
     transform="matrix(1.3333333,0,0,-1.3333333,74.666665,106.66667)"><path
       inkscape:connector-curvature="0"
       d="m 0,0 c 0,-2.209 -1.791,-4 -4,-4 -2.209,0 -4,1.791 -4,4 0,2.209 1.791,4 4,4 2.209,0 4,-1.791 4,-4"
       style="fill:#b3b3b3;fill-opacity:1;fill-rule:nonzero;stroke:none"
       id="path62" /></g><g
     id="g64"
     transform="matrix(1.3333333,0,0,-1.3333333,90.666664,117.33334)"><path
       inkscape:connector-curvature="0"
       d="m 0,0 c 0,-2.209 -1.791,-4 -4,-4 -2.209,0 -4,1.791 -4,4 0,2.209 1.791,4 4,4 2.209,0 4,-1.791 4,-4"
       style="fill:#b3b3b3;fill-opacity:1;fill-rule:nonzero;stroke:none"
       id="path66" /></g><g
     id="g68"
     transform="matrix(1.3333333,0,0,-1.3333333,69.333332,149.33333)"><path
       inkscape:connector-curvature="0"
       d="m 0,0 c 0,-6.627 -5.373,-12 -12,-12 -6.627,0 -12,5.373 -12,12 0,6.627 5.373,12 12,12 C -5.373,12 0,6.627 0,0"
       style="fill:#354f9f;fill-opacity:1;fill-rule:nonzero;stroke:none"
       id="path70" /></g><g
     id="g72"
     transform="matrix(1.3333333,0,0,-1.3333333,69.333332,144)"><path
       inkscape:connector-curvature="0"
       d="m 0,0 h -8 v 8 h -8 V 0 h -8 v -8 h 8 v -8 h 8 v 8 h 8 z"
       style="fill:#b3b3b3;fill-opacity:1;fill-rule:nonzero;stroke:none"
       id="path74" /></g><g
     id="g76"
     transform="matrix(1.3333333,0,0,-1.3333333,58.666665,149.33333)"><path
       inkscape:connector-curvature="0"
       d="m 0,0 c 0,-2.209 -1.791,-4 -4,-4 -2.209,0 -4,1.791 -4,4 0,2.209 1.791,4 4,4 2.209,0 4,-1.791 4,-4"
       style="fill:#a6a6a6;fill-opacity:1;fill-rule:nonzero;stroke:none"
       id="path78" /></g><g
     id="g80"
     transform="matrix(1.3333333,0,0,-1.3333333,293.33333,149.33333)"><path
       inkscape:connector-curvature="0"
       d="m 0,0 c 0,-6.627 -5.373,-12 -12,-12 -6.627,0 -12,5.373 -12,12 0,6.627 5.373,12 12,12 C -5.373,12 0,6.627 0,0"
       style="fill:#b3b3b3;fill-opacity:1;fill-rule:nonzero;stroke:none"
       id="path82" /></g><g
     id="g84"
     transform="matrix(1.3333333,0,0,-1.3333333,309.33333,130.66667)"><path
       inkscape:connector-curvature="0"
       d="m 0,0 c 0,-3.313 -2.687,-6 -6,-6 -3.313,0 -6,2.687 -6,6 0,3.313 2.687,6 6,6 3.313,0 6,-2.687 6,-6"
       style="fill:#b3b3b3;fill-opacity:1;fill-rule:nonzero;stroke:none"
       id="path86" /></g><g
     id="g88"
     transform="matrix(1.3333333,0,0,-1.3333333,266.66666,198.66667)"><path
       inkscape:connector-curvature="0"
       d="m 0,0 c -3.977,0 -7.498,-1.951 -9.681,-4.939 -0.34,-0.465 -0.234,-1.118 0.244,-1.437 0.44,-0.293 1.036,-0.192 1.346,0.236 1.816,2.506 4.76,4.14 8.091,4.14 3.331,0 6.275,-1.634 8.091,-4.14 0.31,-0.428 0.906,-0.529 1.346,-0.235 0.478,0.318 0.584,0.971 0.244,1.436 C 7.498,-1.951 3.977,0 0,0"
       style="fill:#00b800;fill-opacity:1;fill-rule:nonzero;stroke:none"
       id="path90" /></g><g
     id="g92"
     transform="matrix(1.3333333,0,0,-1.3333333,249.64586,204.20827)"><path
       inkscape:connector-curvature="0"
       d="m 0,0 c 0.439,-0.293 1.043,-0.199 1.349,0.232 2.534,3.581 6.697,5.924 11.417,5.924 4.719,0 8.882,-2.343 11.417,-5.924 0.305,-0.431 0.909,-0.525 1.348,-0.232 l 0.001,0.001 c 0.458,0.305 0.596,0.932 0.279,1.38 -2.9,4.092 -7.66,6.775 -13.045,6.775 C 7.38,8.156 2.62,5.473 -0.279,1.381 -0.597,0.933 -0.459,0.306 -0.001,0.001 Z"
       style="fill:#00b800;fill-opacity:1;fill-rule:nonzero;stroke:none"
       id="path94" /></g><g
     id="g96"
     transform="matrix(1.3333333,0,0,-1.3333333,258.52079,210.12493)"><path
       inkscape:connector-curvature="0"
       d="m 0,0 c 0.442,-0.295 1.023,-0.178 1.347,0.243 1.096,1.43 2.822,2.351 4.762,2.351 1.941,0 3.666,-0.921 4.763,-2.351 0.323,-0.421 0.904,-0.538 1.347,-0.243 l 0.006,0.004 C 12.699,0.32 12.815,0.977 12.47,1.431 11.008,3.351 8.703,4.594 6.109,4.594 3.516,4.594 1.211,3.351 -0.251,1.431 -0.597,0.977 -0.48,0.32 -0.006,0.004 Z"
       style="fill:#00b800;fill-opacity:1;fill-rule:nonzero;stroke:none"
       id="path98" /></g><g
     id="g100"
     transform="matrix(1.3333333,0,0,-1.3333333,266.66666,233.33333)"><path
       inkscape:connector-curvature="0"
       d="M 0,0 C 3.977,0 7.498,1.951 9.681,4.939 10.021,5.404 9.915,6.057 9.437,6.376 8.997,6.669 8.401,6.568 8.091,6.14 6.275,3.634 3.331,2 0,2 -3.331,2 -6.275,3.634 -8.091,6.14 -8.401,6.568 -8.997,6.669 -9.437,6.375 -9.915,6.057 -10.021,5.404 -9.681,4.939 -7.498,1.951 -3.977,0 0,0"
       style="fill:#00b800;fill-opacity:1;fill-rule:nonzero;stroke:none"
       id="path102" /></g><g
     id="g104"
     transform="matrix(1.3333333,0,0,-1.3333333,283.68746,227.7916)"><path
       inkscape:connector-curvature="0"
       d="m 0,0 c -0.439,0.293 -1.043,0.199 -1.349,-0.232 -2.534,-3.581 -6.697,-5.924 -11.417,-5.924 -4.719,0 -8.882,2.343 -11.417,5.924 -0.305,0.431 -0.909,0.525 -1.348,0.232 l -0.001,-0.001 c -0.458,-0.305 -0.596,-0.932 -0.279,-1.38 2.9,-4.092 7.66,-6.775 13.045,-6.775 5.386,0 10.146,2.683 13.045,6.775 0.318,0.448 0.18,1.075 -0.278,1.38 z"
       style="fill:#00b800;fill-opacity:1;fill-rule:nonzero;stroke:none"
       id="path106" /></g><g
     id="g108"
     transform="matrix(1.3333333,0,0,-1.3333333,274.81253,221.87493)"><path
       inkscape:connector-curvature="0"
       d="m 0,0 c -0.442,0.295 -1.023,0.178 -1.347,-0.243 -1.096,-1.43 -2.822,-2.351 -4.762,-2.351 -1.941,0 -3.666,0.921 -4.763,2.351 -0.323,0.421 -0.904,0.538 -1.347,0.243 l -0.006,-0.004 c -0.474,-0.316 -0.59,-0.973 -0.245,-1.427 1.462,-1.92 3.767,-3.163 6.361,-3.163 2.593,0 4.898,1.243 6.36,3.163 0.346,0.454 0.229,1.111 -0.245,1.427 z"
       style="fill:#00b800;fill-opacity:1;fill-rule:nonzero;stroke:none"
       id="path110" /></g></svg>