<?xml version="1.0" encoding="UTF-8" standalone="no"?>
<svg
   xmlns:dc="http://purl.org/dc/elements/1.1/"
   xmlns:cc="http://creativecommons.org/ns#"
   xmlns:rdf="http://www.w3.org/1999/02/22-rdf-syntax-ns#"
   xmlns:svg="http://www.w3.org/2000/svg"
   xmlns="http://www.w3.org/2000/svg"
   xmlns:sodipodi="http://sodipodi.sourceforge.net/DTD/sodipodi-0.dtd"
   xmlns:inkscape="http://www.inkscape.org/namespaces/inkscape"
   viewBox="0 0 341.33334 341.33334"
   height="341.33334"
   width="341.33334"
   xml:space="preserve"
   id="svg2"
   version="1.1"
   sodipodi:docname="Libretro - Pad.svg"
   inkscape:version="0.92.2 (5c3e80d, 2017-08-06)"><sodipodi:namedview
     pagecolor="#ffffff"
     bordercolor="#666666"
     borderopacity="1"
     objecttolerance="10"
     gridtolerance="10"
     guidetolerance="10"
     inkscape:pageopacity="0"
     inkscape:pageshadow="2"
     inkscape:window-width="1024"
     inkscape:window-height="705"
     id="namedview54"
     showgrid="false"
     inkscape:zoom="1.3828125"
     inkscape:cx="152.94052"
     inkscape:cy="221.16876"
     inkscape:window-x="-8"
     inkscape:window-y="-8"
     inkscape:window-maximized="1"
     inkscape:current-layer="svg2"
     inkscape:pagecheckerboard="true" /><metadata
     id="metadata8"><rdf:RDF><cc:Work
         rdf:about=""><dc:format>image/svg+xml</dc:format><dc:type
           rdf:resource="http://purl.org/dc/dcmitype/StillImage" /><dc:title></dc:title></cc:Work></rdf:RDF></metadata><defs
     id="defs6"><clipPath
       id="clipPath18"
       clipPathUnits="userSpaceOnUse"><path
         id="path16"
         d="M 0,256 H 256 V 0 H 0 Z" /></clipPath><clipPath
       id="clipPath26"
       clipPathUnits="userSpaceOnUse"><path
         id="path24"
         d="M 4,196 H 252 V 60 H 4 Z" /></clipPath></defs><g
     id="g36"
     transform="matrix(1.3333333,0,0,-1.3333333,207.99999,90.66667)"><path
       inkscape:connector-curvature="0"
       d="m 0,0 c -2.209,0 -4,-1.791 -4,-4 v -16 c 0,-2.209 1.791,-4 4,-4 h 24 v 20 c 0,2.209 -1.791,4 -4,4 z"
       style="fill:#333333;fill-opacity:1;fill-rule:nonzero;stroke:none"
       id="path38" /></g><g
     id="g40"
     transform="matrix(1.3333333,0,0,-1.3333333,302.96359,113.6244)"><path
       inkscape:connector-curvature="0"
       d="m 0,0 c -10.514,10.629 -23.094,17.218 -39.223,17.218 -2.209,0 -4,-1.791 -4,-4 v -20 H -2.885 C 0.646,-6.782 2.483,-2.51 0,0"
       style="fill:#333333;fill-opacity:1;fill-rule:nonzero;stroke:none"
       id="path42" /></g><g
     id="g44"
     transform="matrix(1.3333333,0,0,-1.3333333,90.666664,90.66667)"><path
       inkscape:connector-curvature="0"
       d="M 0,0 C -16.129,0 -28.709,-6.589 -39.223,-17.218 -41.706,-19.728 -39.869,-24 -36.338,-24 H 4 V -4 C 4,-1.791 2.209,0 0,0"
       style="fill:#333333;fill-opacity:1;fill-rule:nonzero;stroke:none"
       id="path46" /></g><g
     id="g48"
     transform="matrix(1.3333333,0,0,-1.3333333,133.33333,90.66667)"><path
       inkscape:connector-curvature="0"
       d="m 0,0 h -20 c -2.209,0 -4,-1.791 -4,-4 V -24 H 0 c 2.209,0 4,1.791 4,4 V -4 C 4,-1.791 2.209,0 0,0"
       style="fill:#333333;fill-opacity:1;fill-rule:nonzero;stroke:none"
       id="path50" /></g><g
     id="g52"
     transform="matrix(1.3333333,0,0,-1.3333333,247.99999,96.000003)"
     style="fill:#4d4d4d"><path
       inkscape:connector-curvature="0"
       d="m 0,0 h -116 c -32.033,0 -58,-25.967 -58,-58 v -18 c 0,-22.092 17.909,-40 40,-40 h 51.719 c 2.675,0 5.172,1.337 6.656,3.562 l 3.25,4.875 c 1.484,2.226 3.981,3.563 6.656,3.563 h 15.438 c 2.675,0 5.173,-1.337 6.656,-3.563 l 2.953,-4.429 c 1.669,-2.504 4.48,-4.008 7.488,-4.008 H 18 c 22.092,0 40,17.908 40,40 v 18 C 58,-25.967 32.032,0 0,0"
       style="fill:#4d4d4d;fill-opacity:1;fill-rule:nonzero;stroke:none"
       id="path54" /></g><g
     id="g56"
     transform="matrix(1.3333333,0,0,-1.3333333,109.33333,170.66667)"><path
       inkscape:connector-curvature="0"
       d="m 0,0 h -48 c -1.104,0 -2,0.896 -2,2 v 16 c 0,1.104 0.896,2 2,2 H 0 c 1.104,0 2,-0.896 2,-2 V 2 C 2,0.896 1.104,0 0,0"
       style="fill:#333333;fill-opacity:1;fill-rule:nonzero;stroke:none"
       id="path58" /></g><g
     id="g60"
     transform="matrix(1.3333333,0,0,-1.3333333,63.999998,189.33333)"><path
       inkscape:connector-curvature="0"
       d="m 0,0 v 48 c 0,1.104 0.896,2 2,2 h 16 c 1.104,0 2,-0.896 2,-2 V 0 c 0,-1.104 -0.896,-2 -2,-2 H 2 C 0.896,-2 0,-1.104 0,0"
       style="fill:#333333;fill-opacity:1;fill-rule:nonzero;stroke:none"
       id="path62" /></g><g
     id="g64"
     transform="matrix(1.3333333,0,0,-1.3333333,149.33333,218.66667)"><path
       inkscape:connector-curvature="0"
       d="m 0,0 c 0,-8.837 -7.164,-16 -16,-16 -8.836,0 -16,7.163 -16,16 0,8.837 7.164,16 16,16 C -7.164,16 0,8.837 0,0"
       style="fill:#262626;fill-opacity:1;fill-rule:nonzero;stroke:none"
       id="path66" /></g><g
     id="g68"
     transform="matrix(1.3333333,0,0,-1.3333333,234.66666,218.66667)"><path
       inkscape:connector-curvature="0"
       d="m 0,0 c 0,-8.837 -7.163,-16 -16,-16 -8.837,0 -16,7.163 -16,16 0,8.837 7.163,16 16,16 C -7.163,16 0,8.837 0,0"
       style="fill:#262626;fill-opacity:1;fill-rule:nonzero;stroke:none"
       id="path70" /></g><g
     id="g72"
     transform="matrix(1.3333333,0,0,-1.3333333,229.33333,157.33333)"><path
       inkscape:connector-curvature="0"
       d="m 0,0 c 0,-5.523 4.478,-10 10,-10 5.522,0 10,4.477 10,10 C 20,5.523 15.522,10 10,10 4.478,10 0,5.523 0,0"
       style="fill:#1abf9f;fill-opacity:1;fill-rule:nonzero;stroke:none"
       id="path74" /></g><g
     id="g76"
     transform="matrix(1.3333333,0,0,-1.3333333,254.66666,136)"><path
       inkscape:connector-curvature="0"
       d="m 0,0 c 0,-5.523 4.478,-10 10,-10 5.522,0 10,4.477 10,10 C 20,5.523 15.522,10 10,10 4.478,10 0,5.523 0,0"
       style="fill:#3096cf;fill-opacity:1;fill-rule:nonzero;stroke:none"
       id="path78" /></g><g
     id="g80"
     transform="matrix(1.3333333,0,0,-1.3333333,254.66666,178.66667)"
     style="fill:#ffd42a"><path
       inkscape:connector-curvature="0"
       d="m 0,0 c 0,-5.522 4.478,-10 10,-10 5.522,0 10,4.478 10,10 C 20,5.523 15.522,10 10,10 4.478,10 0,5.523 0,0"
       style="fill:#ffd42a;fill-opacity:1;fill-rule:nonzero;stroke:none"
       id="path82" /></g><g
     id="g84"
     transform="matrix(1.3333333,0,0,-1.3333333,279.99999,157.33333)"
     style="fill:#d40000"><path
       inkscape:connector-curvature="0"
       d="m 0,0 c 0,-5.523 4.478,-10 10,-10 5.522,0 10,4.477 10,10 C 20,5.523 15.522,10 10,10 4.478,10 0,5.523 0,0"
       style="fill:#d40000;fill-opacity:1;fill-rule:nonzero;stroke:none"
       id="path86" /></g><g
     id="g88"
     transform="matrix(1.3333333,0,0,-1.3333333,154.66666,176)"><path
       inkscape:connector-curvature="0"
       d="m 0,0 h -8 c -2.209,0 -4,1.791 -4,4 0,2.209 1.791,4 4,4 H 0 C 2.209,8 4,6.209 4,4 4,1.791 2.209,0 0,0"
       style="fill:#333333;fill-opacity:1;fill-rule:nonzero;stroke:none"
       id="path90" /></g><g
     id="g92"
     transform="matrix(1.3333333,0,0,-1.3333333,197.33333,176)"><path
       inkscape:connector-curvature="0"
       d="m 0,0 h -8 c -2.209,0 -4,1.791 -4,4 0,2.209 1.791,4 4,4 H 0 C 2.209,8 4,6.209 4,4 4,1.791 2.209,0 0,0"
       style="fill:#333333;fill-opacity:1;fill-rule:nonzero;stroke:none"
       id="path94" /></g><g
     id="g96"
     transform="matrix(1.3333333,0,0,-1.3333333,144,218.66667)"><path
       inkscape:connector-curvature="0"
       d="m 0,0 c 0,-6.627 -5.373,-12 -12,-12 -6.627,0 -12,5.373 -12,12 0,6.627 5.373,12 12,12 C -5.373,12 0,6.627 0,0"
       style="fill:#333333;fill-opacity:1;fill-rule:nonzero;stroke:none"
       id="path98" /></g><g
     id="g100"
     transform="matrix(1.3333333,0,0,-1.3333333,229.33333,218.66667)"><path
       inkscape:connector-curvature="0"
       d="m 0,0 c 0,-6.627 -5.373,-12 -12,-12 -6.627,0 -12,5.373 -12,12 0,6.627 5.373,12 12,12 C -5.373,12 0,6.627 0,0"
       style="fill:#333333;fill-opacity:1;fill-rule:nonzero;stroke:none"
       id="path102" /></g><g
     id="g104"
     transform="matrix(1.3333333,0,0,-1.3333333,85.333331,157.33333)"><path
       inkscape:connector-curvature="0"
       d="m 0,0 c 0,-3.313 -2.687,-6 -6,-6 -3.313,0 -6,2.687 -6,6 0,3.313 2.687,6 6,6 3.313,0 6,-2.687 6,-6"
       style="fill:#262626;fill-opacity:1;fill-rule:nonzero;stroke:none"
       id="path106" /></g></svg>