<?xml version="1.0" encoding="UTF-8" standalone="no"?>
<svg
   xmlns:dc="http://purl.org/dc/elements/1.1/"
   xmlns:cc="http://creativecommons.org/ns#"
   xmlns:rdf="http://www.w3.org/1999/02/22-rdf-syntax-ns#"
   xmlns:svg="http://www.w3.org/2000/svg"
   xmlns="http://www.w3.org/2000/svg"
   xmlns:sodipodi="http://sodipodi.sourceforge.net/DTD/sodipodi-0.dtd"
   xmlns:inkscape="http://www.inkscape.org/namespaces/inkscape"
   viewBox="0 0 341.33334 341.33334"
   height="341.33334"
   width="341.33334"
   xml:space="preserve"
   id="svg2"
   version="1.1"
   sodipodi:docname="Mattel - Intellevision-content.svg"
   inkscape:version="0.92.2 (5c3e80d, 2017-08-06)"><sodipodi:namedview
     pagecolor="#ffffff"
     bordercolor="#666666"
     borderopacity="1"
     objecttolerance="10"
     gridtolerance="10"
     guidetolerance="10"
     inkscape:pageopacity="0"
     inkscape:pageshadow="2"
     inkscape:window-width="1024"
     inkscape:window-height="705"
     id="namedview31"
     showgrid="false"
     inkscape:pagecheckerboard="true"
     inkscape:zoom="0.69140623"
     inkscape:cx="307.09722"
     inkscape:cy="334.53315"
     inkscape:window-x="-8"
     inkscape:window-y="-8"
     inkscape:window-maximized="1"
     inkscape:current-layer="svg2" /><metadata
     id="metadata8"><rdf:RDF><cc:Work
         rdf:about=""><dc:format>image/svg+xml</dc:format><dc:type
           rdf:resource="http://purl.org/dc/dcmitype/StillImage" /><dc:title /></cc:Work></rdf:RDF></metadata><defs
     id="defs6"><clipPath
       id="clipPath18"
       clipPathUnits="userSpaceOnUse"><path
         id="path16"
         d="M 0,256 H 256 V 0 H 0 Z" /></clipPath><clipPath
       id="clipPath26"
       clipPathUnits="userSpaceOnUse"><path
         id="path24"
         d="M 27.361,252 H 228.639 V 8 H 27.361 Z" /></clipPath><clipPath
       id="clipPath44"
       clipPathUnits="userSpaceOnUse"><path
         id="path42"
         d="M 0,256 H 256 V 0 H 0 Z" /></clipPath></defs><path
     inkscape:connector-curvature="0"
     d="M 287.99999,149.33333 H 53.333332 V 80.000003 H 287.99999 Z"
     style="fill:#000000;fill-opacity:1;fill-rule:nonzero;stroke:none;stroke-width:1.33333325"
     id="path36" /><path
     id="path48"
     style="fill:#404040;fill-opacity:1;fill-rule:nonzero;stroke:none;stroke-width:1.33333325"
     d="m 224.22919,101.33334 h 69.104 v -5.333333 h -69.33333 c -2.94534,0 -5.33334,-2.388 -5.33334,-5.333333 V 80.000007 h -95.99999 v 10.666667 c 0,2.945333 -2.388,5.333333 -5.33334,5.333333 H 47.999861 v 5.333333 h 69.103999 c 2.78533,0 5.27333,2.036 5.53867,4.80933 0.30266,3.18134 -2.19067,5.85734 -5.30934,5.85734 H 47.999861 v 5.33333 h 69.103999 c 2.78533,0 5.27333,2.036 5.53867,4.80933 0.30266,3.18134 -2.19067,5.85734 -5.30934,5.85734 H 47.999861 v 5.33333 h 69.333329 c 2.94534,0 5.33334,2.388 5.33334,5.33333 0,2.94534 -2.388,5.33334 -5.33334,5.33334 H 47.999861 V 320 H 293.33319 V 144.00001 h -69.33333 c -2.94534,0 -5.33334,-2.388 -5.33334,-5.33334 0,-2.94533 2.388,-5.33333 5.33334,-5.33333 h 69.33333 v -5.33333 h -69.104 c -2.78533,0 -5.27333,-2.036 -5.53733,-4.80934 -0.304,-3.18133 2.18933,-5.85733 5.308,-5.85733 h 69.33333 v -5.33333 h -69.33333 c -3.11867,0 -5.612,-2.676 -5.308,-5.85734 0.264,-2.77333 2.752,-4.80933 5.53733,-4.80933"
     inkscape:connector-curvature="0" /><path
     id="path52"
     style="fill:#4c4c4c;fill-opacity:1;fill-rule:nonzero;stroke:none;stroke-width:1.33333325"
     d="M 287.99999,16.000005 H 53.333329 L 47.999996,85.333337 H 293.33332 Z"
     inkscape:connector-curvature="0" /><path
     id="path56"
     style="fill:#000000;fill-opacity:1;fill-rule:nonzero;stroke:none;stroke-width:1.33333325"
     d="M 285.33333,160 H 56.000002 c -1.472,0 -2.666666,-1.19467 -2.666666,-2.66667 0,-1.472 1.194666,-2.66666 2.666666,-2.66666 H 285.33333 c 1.472,0 2.66667,1.19466 2.66667,2.66666 0,1.472 -1.19467,2.66667 -2.66667,2.66667"
     inkscape:connector-curvature="0" /><path
     id="path60"
     style="fill:#ffffff;fill-opacity:1;fill-rule:nonzero;stroke:none;stroke-width:1.33333325"
     d="m 273.56253,36.924538 c -0.21333,-2.778667 -2.53067,-4.924 -5.31733,-4.924 H 73.089202 c -2.786667,0 -5.104,2.145333 -5.318667,4.924 l -2.050666,26.666666 c -0.238667,3.097333 2.210666,5.742667 5.317333,5.742667 H 270.29586 c 3.10667,0 5.556,-2.645334 5.31734,-5.742667 z"
     inkscape:connector-curvature="0" /></svg>