<?xml version="1.0" encoding="UTF-8" standalone="no"?>
<svg
   xmlns:dc="http://purl.org/dc/elements/1.1/"
   xmlns:cc="http://creativecommons.org/ns#"
   xmlns:rdf="http://www.w3.org/1999/02/22-rdf-syntax-ns#"
   xmlns:svg="http://www.w3.org/2000/svg"
   xmlns="http://www.w3.org/2000/svg"
   xmlns:sodipodi="http://sodipodi.sourceforge.net/DTD/sodipodi-0.dtd"
   xmlns:inkscape="http://www.inkscape.org/namespaces/inkscape"
   viewBox="0 0 341.33334 341.33334"
   height="341.33334"
   width="341.33334"
   xml:space="preserve"
   id="svg2"
   version="1.1"
   sodipodi:docname="Mattel - Intellevision-content.svg"
   inkscape:version="0.92.2 (5c3e80d, 2017-08-06)"><sodipodi:namedview
     pagecolor="#ffffff"
     bordercolor="#666666"
     borderopacity="1"
     objecttolerance="10"
     gridtolerance="10"
     guidetolerance="10"
     inkscape:pageopacity="0"
     inkscape:pageshadow="2"
     inkscape:window-width="1024"
     inkscape:window-height="705"
     id="namedview31"
     showgrid="false"
     inkscape:pagecheckerboard="true"
     inkscape:zoom="0.69140623"
     inkscape:cx="170.66667"
     inkscape:cy="170.66667"
     inkscape:window-x="-8"
     inkscape:window-y="-8"
     inkscape:window-maximized="1"
     inkscape:current-layer="svg2" /><metadata
     id="metadata8"><rdf:RDF><cc:Work
         rdf:about=""><dc:format>image/svg+xml</dc:format><dc:type
           rdf:resource="http://purl.org/dc/dcmitype/StillImage" /><dc:title></dc:title></cc:Work></rdf:RDF></metadata><defs
     id="defs6"><clipPath
       id="clipPath18"
       clipPathUnits="userSpaceOnUse"><path
         id="path16"
         d="M 0,256 H 256 V 0 H 0 Z" /></clipPath><clipPath
       id="clipPath26"
       clipPathUnits="userSpaceOnUse"><path
         id="path24"
         d="M 27.361,252 H 228.639 V 8 H 27.361 Z" /></clipPath><clipPath
       id="clipPath44"
       clipPathUnits="userSpaceOnUse"><path
         id="path42"
         d="M 0,256 H 256 V 0 H 0 Z" /></clipPath></defs><path
     inkscape:connector-curvature="0"
     d="M 287.99999,149.33333 H 53.333332 V 80.000003 H 287.99999 Z"
     style="fill:#333333;fill-opacity:1;fill-rule:nonzero;stroke:none;stroke-width:1.33333325"
     id="path36" /><g
     clip-path="url(#clipPath44)"
     id="g40"
     transform="matrix(1.3333333,0,0,-1.3333333,0,341.33333)"><g
       transform="translate(168.1719,180)"
       id="g46"><path
         id="path48"
         style="fill:#404040;fill-opacity:1;fill-rule:nonzero;stroke:none"
         d="m 0,0 h 51.828 v 4 h -52 c -2.209,0 -4,1.791 -4,4 v 8 h -72 V 8 c 0,-2.209 -1.791,-4 -4,-4 h -52 V 0 h 51.828 c 2.089,0 3.955,-1.527 4.154,-3.607 C -75.963,-5.993 -77.833,-8 -80.172,-8 h -52 v -4 h 51.828 c 2.089,0 3.955,-1.527 4.154,-3.607 0.227,-2.386 -1.643,-4.393 -3.982,-4.393 h -52 v -4 h 52 c 2.209,0 4,-1.791 4,-4 0,-2.209 -1.791,-4 -4,-4 h -52 v -132 h 184 v 132 h -52 c -2.209,0 -4,1.791 -4,4 0,2.209 1.791,4 4,4 h 52 v 4 H 0 c -2.089,0 -3.955,1.527 -4.153,3.607 -0.228,2.386 1.642,4.393 3.981,4.393 h 52 v 4 h -52 c -2.339,0 -4.209,2.007 -3.981,4.393 C -3.955,-1.527 -2.089,0 0,0"
         inkscape:connector-curvature="0" /></g><g
       transform="translate(216,244)"
       id="g50"><path
         id="path52"
         style="fill:#4c4c4c;fill-opacity:1;fill-rule:nonzero;stroke:none"
         d="m 0,0 h -176 l -4,-52 H 4 Z"
         inkscape:connector-curvature="0" /></g><g
       transform="translate(214,136)"
       id="g54"><path
         id="path56"
         style="fill:#333333;fill-opacity:1;fill-rule:nonzero;stroke:none"
         d="m 0,0 h -172 c -1.104,0 -2,0.896 -2,2 0,1.104 0.896,2 2,2 H 0 C 1.104,4 2,3.104 2,2 2,0.896 1.104,0 0,0"
         inkscape:connector-curvature="0" /></g><g
       transform="translate(205.1719,228.3066)"
       id="g58"><path
         id="path60"
         style="fill:#ffffff;fill-opacity:1;fill-rule:nonzero;stroke:none"
         d="m 0,0 c -0.16,2.084 -1.898,3.693 -3.988,3.693 h -146.367 c -2.09,0 -3.828,-1.609 -3.989,-3.693 l -1.538,-20 c -0.179,-2.323 1.658,-4.307 3.988,-4.307 H -2.45 c 2.33,0 4.167,1.984 3.988,4.307 z"
         inkscape:connector-curvature="0" /></g></g></svg>