<?xml version="1.0" encoding="UTF-8" standalone="no"?>
<!-- Created with Inkscape (http://www.inkscape.org/) -->

<svg
   xmlns:dc="http://purl.org/dc/elements/1.1/"
   xmlns:cc="http://creativecommons.org/ns#"
   xmlns:rdf="http://www.w3.org/1999/02/22-rdf-syntax-ns#"
   xmlns:svg="http://www.w3.org/2000/svg"
   xmlns="http://www.w3.org/2000/svg"
   xmlns:sodipodi="http://sodipodi.sourceforge.net/DTD/sodipodi-0.dtd"
   xmlns:inkscape="http://www.inkscape.org/namespaces/inkscape"
   width="64"
   height="64"
   id="svg2"
   version="1.1"
   inkscape:version="0.92.3 (2405546, 2018-03-11)"
   inkscape:export-filename="/home/kivutar/Bureau/retroarch-assets/xmb/monochrome/png/music.png"
   inkscape:export-xdpi="90"
   inkscape:export-ydpi="90"
   sodipodi:docname="menu_audio.svg">
  <defs
     id="defs4" />
  <sodipodi:namedview
     id="base"
     pagecolor="#ffffff"
     bordercolor="#666666"
     borderopacity="1.0"
     inkscape:pageopacity="0.0"
     inkscape:pageshadow="2"
     inkscape:zoom="4.7656252"
     inkscape:cx="23.371995"
     inkscape:cy="41.595952"
     inkscape:document-units="px"
     inkscape:current-layer="layer1"
     showgrid="true"
     showguides="true"
     inkscape:guide-bbox="true"
     inkscape:window-width="1024"
     inkscape:window-height="705"
     inkscape:window-x="-8"
     inkscape:window-y="-8"
     inkscape:window-maximized="1">
    <inkscape:grid
       type="xygrid"
       id="grid3004"
       empspacing="4"
       visible="true"
       enabled="true"
       snapvisiblegridlinesonly="true" />
  </sodipodi:namedview>
  <metadata
     id="metadata7">
    <rdf:RDF>
      <cc:Work
         rdf:about="">
        <dc:format>image/svg+xml</dc:format>
        <dc:type
           rdf:resource="http://purl.org/dc/dcmitype/StillImage" />
        <dc:title />
      </cc:Work>
    </rdf:RDF>
  </metadata>
  <g
     inkscape:label="Calque 1"
     inkscape:groupmode="layer"
     id="layer1"
     transform="translate(0,-1180.3622)">
    <path
       style="color:#000000;font-style:normal;font-variant:normal;font-weight:normal;font-stretch:normal;font-size:medium;line-height:normal;font-family:sans-serif;text-indent:0;text-align:start;text-decoration:none;text-decoration-line:none;text-decoration-style:solid;text-decoration-color:#000000;letter-spacing:normal;word-spacing:normal;text-transform:none;writing-mode:lr-tb;direction:ltr;baseline-shift:baseline;text-anchor:start;white-space:normal;clip-rule:nonzero;display:inline;overflow:visible;visibility:visible;opacity:1;isolation:auto;mix-blend-mode:normal;color-interpolation:sRGB;color-interpolation-filters:linearRGB;solid-color:#000000;solid-opacity:1;fill:#999999;fill-opacity:1;fill-rule:nonzero;stroke:none;stroke-width:1;stroke-linecap:round;stroke-linejoin:round;stroke-miterlimit:4;stroke-dasharray:none;stroke-dashoffset:0;stroke-opacity:1;color-rendering:auto;image-rendering:auto;shape-rendering:auto;text-rendering:auto;enable-background:accumulate;paint-order:markers stroke fill"
       d="M 46.421875 11.070312 C 46.292854 11.062872 46.158489 11.069547 46.021484 11.089844 L 22.978516 14.503906 C 21.882478 14.666282 21 15.688875 21 16.796875 L 21 16.945312 L 21 21.796875 L 21 45.064453 A 4 4 0 0 0 20 44.931641 A 4 4 0 0 0 16 48.931641 A 4 4 0 0 0 20 52.931641 A 4 4 0 0 0 23.996094 48.996094 A 4 4 0 0 0 23.998047 48.988281 A 1.4999989 0.99926152 0 0 0 24 48.931641 A 4 4 0 0 0 24 48.917969 L 24 23.609375 C 24.270055 23.415644 24.577528 23.275888 24.910156 23.216797 L 35 21.722656 L 35 21.734375 L 44.03125 20.390625 C 44.386642 20.337967 44.713707 20.392043 45 20.515625 L 45 41.064453 A 4 4 0 0 0 44 40.931641 A 4 4 0 0 0 40 44.931641 A 4 4 0 0 0 44 48.931641 A 4 4 0 0 0 47.998047 44.988281 A 1.4999991 0.99926217 0 0 0 48 44.931641 A 4 4 0 0 0 48 44.917969 L 48 17.796875 L 48 12.796875 C 48 11.827375 47.325025 11.122395 46.421875 11.070312 z "
       transform="translate(0,1180.3622)"
       id="path3029" />
  </g>
</svg>
