<?xml version="1.0" encoding="UTF-8" standalone="no"?>
<svg
   xmlns:dc="http://purl.org/dc/elements/1.1/"
   xmlns:cc="http://creativecommons.org/ns#"
   xmlns:rdf="http://www.w3.org/1999/02/22-rdf-syntax-ns#"
   xmlns:svg="http://www.w3.org/2000/svg"
   xmlns="http://www.w3.org/2000/svg"
   xmlns:sodipodi="http://sodipodi.sourceforge.net/DTD/sodipodi-0.dtd"
   xmlns:inkscape="http://www.inkscape.org/namespaces/inkscape"
   viewBox="0 0 341.33334 341.33334"
   height="341.33334"
   width="341.33334"
   xml:space="preserve"
   id="svg2"
   version="1.1"
   sodipodi:docname="Microsoft - XBOX One.svg"
   inkscape:version="0.92.2 (5c3e80d, 2017-08-06)"><sodipodi:namedview
     pagecolor="#ffffff"
     bordercolor="#666666"
     borderopacity="1"
     objecttolerance="10"
     gridtolerance="10"
     guidetolerance="10"
     inkscape:pageopacity="0"
     inkscape:pageshadow="2"
     inkscape:window-width="1024"
     inkscape:window-height="705"
     id="namedview56"
     showgrid="false"
     inkscape:zoom="0.9777961"
     inkscape:cx="221.31189"
     inkscape:cy="258.41556"
     inkscape:window-x="-8"
     inkscape:window-y="-8"
     inkscape:window-maximized="1"
     inkscape:current-layer="svg2" /><metadata
     id="metadata8"><rdf:RDF><cc:Work
         rdf:about=""><dc:format>image/svg+xml</dc:format><dc:type
           rdf:resource="http://purl.org/dc/dcmitype/StillImage" /></cc:Work></rdf:RDF></metadata><defs
     id="defs6"><clipPath
       id="clipPath18"
       clipPathUnits="userSpaceOnUse"><path
         id="path16"
         d="M 0,256 H 256 V 0 H 0 Z" /></clipPath><clipPath
       id="clipPath26"
       clipPathUnits="userSpaceOnUse"><path
         id="path24"
         d="M 4,215.965 H 252 V 40.035 H 4 Z" /></clipPath></defs><g
     id="g20"
     transform="matrix(1.3333333,0,0,-1.3333333,0,341.33333)"><g
       id="g22" /><g
       id="g34"><g
         clip-path="url(#clipPath26)"
         id="g32"
         style="opacity:0.5"><g
           transform="translate(243.7607,129.9751)"
           id="g30"><path
             inkscape:connector-curvature="0"
             d="m 0,0 -0.021,0.083 -0.022,0.082 c -0.4,1.467 -9.782,35.684 -17.931,49.885 -1.864,4.447 -5.313,10.61 -11.506,16.438 -3.112,7.313 -10.268,12.688 -21.315,15.997 -8.468,2.537 -17.364,3.274 -21.914,3.487 -0.248,0.012 -0.498,0.018 -0.747,0.018 -2.891,0 -5.7,-0.777 -8.178,-2.255 l -3.808,-1.675 h -60.637 l -3.809,1.675 c -2.477,1.477 -5.287,2.255 -8.177,2.255 -0.249,0 -0.498,-0.006 -0.748,-0.018 -4.549,-0.213 -13.446,-0.95 -21.913,-3.487 -11.047,-3.309 -18.203,-8.684 -21.315,-15.997 -6.193,-5.828 -9.643,-11.991 -11.507,-16.438 -8.148,-14.201 -17.531,-48.418 -17.931,-49.885 L -231.501,0.083 -231.522,0 c -0.336,-1.345 -8.239,-33.194 -8.239,-53.94 0,-25.169 24.286,-36 32,-36 6.045,0 12.939,5.624 17.657,10.343 l 0.313,0.313 0.277,0.346 16,20 0.078,0.098 0.075,0.1 c 7.894,10.525 13.16,12.505 14.156,12.8 h 86.888 c 0.996,-0.295 6.262,-2.275 14.156,-12.8 l 0.075,-0.1 0.078,-0.098 16,-20 0.278,-0.346 0.312,-0.313 c 4.719,-4.719 11.612,-10.343 17.657,-10.343 7.714,0 32,10.831 32,36 C 8.239,-33.194 0.337,-1.345 0,0"
             style="fill:#ffffff;fill-opacity:1;fill-rule:nonzero;stroke:none"
             id="path28" /></g></g></g></g><g
     id="g36"
     transform="matrix(1.3333333,0,0,-1.3333333,277.33333,90.66667)"><path
       inkscape:connector-curvature="0"
       d="m 0,0 c 0,16.842 -28.364,19.501 -37.322,19.921 -1.704,0.08 -3.381,-0.389 -4.8,-1.336 L -48,16 h -64 l -5.878,2.585 c -1.419,0.947 -3.095,1.416 -4.799,1.336 C -131.636,19.501 -160,16.842 -160,0 Z"
       style="fill:#191919;fill-opacity:1;fill-rule:nonzero;stroke:none"
       id="path38" /></g><g
     id="g40"
     transform="matrix(1.3333333,0,0,-1.3333333,250.66666,72.000003)"><path
       inkscape:connector-curvature="0"
       d="M 0,0 C 0,0 -16,6 -26.171,-1.279 -27.478,-2.213 -29.297,-2 -30.902,-2 h -58.196 c -1.606,0 -3.424,-0.213 -4.731,0.721 C -104,6 -120,0 -120,0 c -28,-8 -32,-30 -32,-30 H 32 c 0,0 -4,22 -32,30"
       style="fill:#262626;fill-opacity:1;fill-rule:nonzero;stroke:none"
       id="path42" /></g><g
     id="g44"
     transform="matrix(1.3333333,0,0,-1.3333333,314.66666,170.66667)"
     style="fill:#414141;fill-opacity:1"><path
       inkscape:connector-curvature="0"
       d="m 0,0 c 0,0 -12,44 -20,52 0,0 -16,20 -40,20 h -2.343 c -1.061,0 -2.079,-0.421 -2.829,-1.171 L -85.657,50.343 C -87.157,48.843 -89.192,48 -91.313,48 h -33.374 c -2.121,0 -4.156,0.843 -5.656,2.343 l -20.486,20.486 c -0.75,0.75 -1.767,1.171 -2.828,1.171 L -156,72 c -24,0 -40,-20 -40,-20 -8,-8 -20,-52 -20,-52 0,0 -8,-32 -8,-52 0,-20 20,-28 24,-28 4,0 12,8 12,8 l 16,20 c 12,16 20,16 20,16 h 88 c 0,0 8,0 20,-16 l 16,-20 c 0,0 8,-8 12,-8 4,0 24,8 24,28 C 8,-32 0,0 0,0"
       style="fill:#414141;fill-opacity:1;fill-rule:nonzero;stroke:none"
       id="path46" /></g><g
     id="g48"
     transform="matrix(1.3333333,0,0,-1.3333333,141.33333,121.33334)"
     style="fill:#1a1a1a"><path
       inkscape:connector-curvature="0"
       d="M 0,0 C 0,2.761 2.239,5 5,5 7.761,5 10,2.761 10,0 10,-2.761 7.761,-5 5,-5 2.239,-5 0,-2.761 0,0"
       style="fill:#1a1a1a;fill-opacity:1;fill-rule:nonzero;stroke:none"
       id="path50" /></g><g
     id="g52"
     transform="matrix(1.3333333,0,0,-1.3333333,186.66666,121.33334)"
     style="fill:#1a1a1a"><path
       inkscape:connector-curvature="0"
       d="M 0,0 C 0,2.761 2.238,5 5,5 7.762,5 10,2.761 10,0 10,-2.761 7.762,-5 5,-5 2.238,-5 0,-2.761 0,0"
       style="fill:#1a1a1a;fill-opacity:1;fill-rule:nonzero;stroke:none"
       id="path54" /></g><g
     id="g56"
     transform="matrix(1.3333333,0,0,-1.3333333,239.99999,122.66667)"
     style="fill:#1a1a1a"><path
       inkscape:connector-curvature="0"
       d="m 0,0 c 0,-4.418 -3.582,-8 -8,-8 -4.418,0 -8,3.582 -8,8 0,4.418 3.582,8 8,8 4.418,0 8,-3.582 8,-8"
       style="fill:#1a1a1a;fill-opacity:1;fill-rule:nonzero;stroke:none"
       id="path58" /></g><g
     id="g60"
     transform="matrix(1.3333333,0,0,-1.3333333,261.33333,101.33334)"
     style="fill:#1a1a1a"><path
       inkscape:connector-curvature="0"
       d="m 0,0 c 0,-4.418 -3.582,-8 -8,-8 -4.418,0 -8,3.582 -8,8 0,4.418 3.582,8 8,8 4.418,0 8,-3.582 8,-8"
       style="fill:#1a1a1a;fill-opacity:1;fill-rule:nonzero;stroke:none"
       id="path62" /></g><g
     id="g64"
     transform="matrix(1.3333333,0,0,-1.3333333,233.33333,169.33333)"><path
       inkscape:connector-curvature="0"
       d="m 0,0 c 0,-9.389 -7.611,-17 -17,-17 -9.389,0 -17,7.611 -17,17 0,9.389 7.611,17 17,17 C -7.611,17 0,9.389 0,0"
       style="fill:#262626;fill-opacity:1;fill-rule:nonzero;stroke:none"
       id="path66" /></g><g
     id="g68"
     transform="matrix(1.3333333,0,0,-1.3333333,229.33333,169.33333)"><path
       inkscape:connector-curvature="0"
       d="m 0,0 c 0,-7.732 -6.268,-14 -14,-14 -7.732,0 -14,6.268 -14,14 0,7.732 6.268,14 14,14 C -6.268,14 0,7.732 0,0"
       style="fill:#000000;fill-opacity:1;fill-rule:nonzero;stroke:none"
       id="path70" /></g><g
     id="g72"
     transform="matrix(1.3333333,0,0,-1.3333333,261.33333,144)"
     style="fill:#1a1a1a"><path
       inkscape:connector-curvature="0"
       d="m 0,0 c 0,-4.418 -3.582,-8 -8,-8 -4.418,0 -8,3.582 -8,8 0,4.418 3.582,8 8,8 4.418,0 8,-3.582 8,-8"
       style="fill:#1a1a1a;fill-opacity:1;fill-rule:nonzero;stroke:none"
       id="path74" /></g><g
     id="g76"
     transform="matrix(1.3333333,0,0,-1.3333333,282.66666,122.66667)"
     style="fill:#1a1a1a"><path
       inkscape:connector-curvature="0"
       d="m 0,0 c 0,-4.418 -3.582,-8 -8,-8 -4.418,0 -8,3.582 -8,8 0,4.418 3.582,8 8,8 4.418,0 8,-3.582 8,-8"
       style="fill:#1a1a1a;fill-opacity:1;fill-rule:nonzero;stroke:none"
       id="path78" /></g><g
     id="g80"
     transform="matrix(1.3333333,0,0,-1.3333333,226.66666,169.33333)"><path
       inkscape:connector-curvature="0"
       d="m 0,0 c 0,-6.627 -5.373,-12 -12,-12 -6.627,0 -12,5.373 -12,12 0,6.627 5.373,12 12,12 C -5.373,12 0,6.627 0,0"
       style="fill:#333333;fill-opacity:1;fill-rule:nonzero;stroke:none"
       id="path82" /></g><g
     id="g84"
     transform="matrix(1.3333333,0,0,-1.3333333,221.33333,169.33333)"><path
       inkscape:connector-curvature="0"
       d="m 0,0 c 0,-4.418 -3.582,-8 -8,-8 -4.418,0 -8,3.582 -8,8 0,4.418 3.582,8 8,8 4.418,0 8,-3.582 8,-8"
       style="fill:#262626;fill-opacity:1;fill-rule:nonzero;stroke:none"
       id="path86" /></g><g
     id="g88"
     transform="matrix(1.3333333,0,0,-1.3333333,112,121.33334)"><path
       inkscape:connector-curvature="0"
       d="m 0,0 c 0,-9.389 -7.611,-17 -17,-17 -9.389,0 -17,7.611 -17,17 0,9.389 7.611,17 17,17 C -7.611,17 0,9.389 0,0"
       style="fill:#262626;fill-opacity:1;fill-rule:nonzero;stroke:none"
       id="path90" /></g><g
     id="g92"
     transform="matrix(1.3333333,0,0,-1.3333333,108,121.33334)"><path
       inkscape:connector-curvature="0"
       d="m 0,0 c 0,-7.732 -6.268,-14 -14,-14 -7.732,0 -14,6.268 -14,14 0,7.732 6.268,14 14,14 C -6.268,14 0,7.732 0,0"
       style="fill:#000000;fill-opacity:1;fill-rule:nonzero;stroke:none"
       id="path94" /></g><g
     id="g96"
     transform="matrix(1.3333333,0,0,-1.3333333,154.66666,173.33333)"><path
       inkscape:connector-curvature="0"
       d="m 0,0 c 0,-11.046 -8.954,-20 -20,-20 -11.046,0 -20,8.954 -20,20 0,11.046 8.954,20 20,20 C -8.954,20 0,11.046 0,0"
       style="fill:#262626;fill-opacity:1;fill-rule:nonzero;stroke:none"
       id="path98" /></g><g
     id="g100"
     transform="matrix(1.3333333,0,0,-1.3333333,105.33333,121.33334)"><path
       inkscape:connector-curvature="0"
       d="m 0,0 c 0,-6.627 -5.373,-12 -12,-12 -6.627,0 -12,5.373 -12,12 0,6.627 5.373,12 12,12 C -5.373,12 0,6.627 0,0"
       style="fill:#333333;fill-opacity:1;fill-rule:nonzero;stroke:none"
       id="path102" /></g><g
     id="g104"
     transform="matrix(1.3333333,0,0,-1.3333333,99.999998,121.33334)"><path
       inkscape:connector-curvature="0"
       d="m 0,0 c 0,-4.418 -3.582,-8 -8,-8 -4.418,0 -8,3.582 -8,8 0,4.418 3.582,8 8,8 4.418,0 8,-3.582 8,-8"
       style="fill:#262626;fill-opacity:1;fill-rule:nonzero;stroke:none"
       id="path106" /></g><g
     id="g108"
     transform="matrix(1.3333333,0,0,-1.3333333,150.66666,166.66667)"><path
       inkscape:connector-curvature="0"
       d="m 0,0 h -12 v 12 c 0,0.552 -0.448,1 -1,1 l -2.06,0.515 c -1.273,0.318 -2.607,0.318 -3.88,0 L -21,13 c -0.552,0 -1,-0.448 -1,-1 V 0 h -12 c -0.552,0 -1,-0.448 -1,-1 l -0.515,-2.06 c -0.318,-1.274 -0.318,-2.606 0,-3.88 L -35,-9 c 0,-0.553 0.448,-1 1,-1 h 12 v -12 c 0,-0.553 0.448,-1 1,-1 l 2.06,-0.515 c 1.273,-0.318 2.607,-0.318 3.88,0 L -13,-23 c 0.552,0 1,0.447 1,1 v 12 H 0 c 0.552,0 1,0.447 1,1 l 0.515,2.06 c 0.318,1.274 0.318,2.606 0,3.88 L 1,-1 C 1,-0.448 0.552,0 0,0"
       style="fill:#000000;fill-opacity:1;fill-rule:nonzero;stroke:none"
       id="path110" /></g><circle
     style="fill:#cccccc"
     id="path80"
     cx="170.66667"
     cy="89.491463"
     r="10.482759" /><text
     xml:space="preserve"
     style="font-style:normal;font-weight:normal;font-size:19.60959625px;line-height:1.25;font-family:sans-serif;letter-spacing:0px;word-spacing:0px;fill:#009900;fill-opacity:1;stroke:none;stroke-width:0.49023989"
     x="243.96417"
     y="150.62834"
     id="text81"><tspan
       sodipodi:role="line"
       id="tspan79"
       x="243.96417"
       y="150.62834"
       style="fill:#009900;fill-opacity:1;stroke-width:0.49023989">A</tspan></text>
<text
     xml:space="preserve"
     style="font-style:normal;font-weight:normal;font-size:19.60935974px;line-height:1.25;font-family:sans-serif;letter-spacing:0px;word-spacing:0px;fill:#d60000;fill-opacity:1;stroke:none;stroke-width:0.49023399"
     x="265.70901"
     y="129.79517"
     id="text890"><tspan
       sodipodi:role="line"
       id="tspan888"
       x="265.70901"
       y="129.79517"
       style="fill:#d60000;fill-opacity:1;stroke-width:0.49023399">B</tspan></text>
<text
     xml:space="preserve"
     style="font-style:normal;font-weight:normal;font-size:19.60935974px;line-height:1.25;font-family:sans-serif;letter-spacing:0px;word-spacing:0px;fill:#536dbd;fill-opacity:1;stroke:none;stroke-width:0.49023399"
     x="222.61176"
     y="129.79517"
     id="text894"><tspan
       sodipodi:role="line"
       id="tspan892"
       x="222.61176"
       y="129.79517"
       style="fill:#536dbd;fill-opacity:1;stroke-width:0.49023399">X</tspan></text>
<text
     xml:space="preserve"
     style="font-style:normal;font-weight:normal;font-size:19.60935974px;line-height:1.25;font-family:sans-serif;letter-spacing:0px;word-spacing:0px;fill:#e8c400;fill-opacity:1;stroke:none;stroke-width:0.49023399"
     x="244.63449"
     y="108.76134"
     id="text898"><tspan
       sodipodi:role="line"
       id="tspan896"
       x="244.63449"
       y="108.76134"
       style="fill:#e8c400;fill-opacity:1;stroke-width:0.49023399">Y</tspan></text>
</svg>