<?xml version="1.0" encoding="UTF-8" standalone="no"?>
<svg
   xmlns:dc="http://purl.org/dc/elements/1.1/"
   xmlns:cc="http://creativecommons.org/ns#"
   xmlns:rdf="http://www.w3.org/1999/02/22-rdf-syntax-ns#"
   xmlns:svg="http://www.w3.org/2000/svg"
   xmlns="http://www.w3.org/2000/svg"
   xmlns:sodipodi="http://sodipodi.sourceforge.net/DTD/sodipodi-0.dtd"
   xmlns:inkscape="http://www.inkscape.org/namespaces/inkscape"
   viewBox="0 0 341.33334 341.33334"
   height="256"
   width="256"
   xml:space="preserve"
   id="svg2"
   version="1.1"
   sodipodi:docname="Microsoft - XBOX.svg"
   inkscape:version="0.92.2 (5c3e80d, 2017-08-06)"><sodipodi:namedview
     pagecolor="#ffffff"
     bordercolor="#666666"
     borderopacity="1"
     objecttolerance="10"
     gridtolerance="10"
     guidetolerance="10"
     inkscape:pageopacity="0"
     inkscape:pageshadow="2"
     inkscape:window-width="1024"
     inkscape:window-height="705"
     id="namedview88"
     showgrid="false"
     inkscape:zoom="0.97779611"
     inkscape:cx="170.13985"
     inkscape:cy="141.84514"
     inkscape:window-x="-8"
     inkscape:window-y="-8"
     inkscape:window-maximized="1"
     inkscape:current-layer="svg2"
     inkscape:pagecheckerboard="true" /><metadata
     id="metadata8"><rdf:RDF><cc:Work
         rdf:about=""><dc:format>image/svg+xml</dc:format><dc:type
           rdf:resource="http://purl.org/dc/dcmitype/StillImage" /><dc:title /></cc:Work></rdf:RDF></metadata><defs
     id="defs6"><clipPath
       id="clipPath18"
       clipPathUnits="userSpaceOnUse"><path
         id="path16"
         d="M 0,256 H 256 V 0 H 0 Z" /></clipPath><clipPath
       id="clipPath26"
       clipPathUnits="userSpaceOnUse"><path
         id="path24"
         d="M 2.94083,220 H 253.059 V 32 H 2.94083 Z" /></clipPath></defs><g
     id="g36"
     transform="matrix(1.3333333,0,0,-1.3333333,223.99999,58.66667)"
     style="fill:#262626;fill-opacity:1"><path
       inkscape:connector-curvature="0"
       d="m 0,0 c 0,0 -24,-8 -40,-8 -16,0 -40,8 -40,8 -24,0 -48,-20 -48,-20 l 88,-60 88,60 C 48,-20 24,0 0,0"
       style="fill:#262626;fill-opacity:1;fill-rule:nonzero;stroke:none"
       id="path38" /></g><g
     id="g40"
     transform="matrix(1.3333333,0,0,-1.3333333,287.99999,85.333336)"
     style="fill:#2d2d2d;fill-opacity:1"><path
       inkscape:connector-curvature="0"
       d="m 0,0 -32,-108 c 0,0 12,-44 40,-44 22.531,0 21.752,41.442 20.588,57.63 -0.275,3.815 -0.889,7.588 -1.839,11.293 C 22.249,-65.539 6.795,-6.795 0,0"
       style="fill:#2d2d2d;fill-opacity:1;fill-rule:nonzero;stroke:none"
       id="path42" /></g><g
     id="g44"
     transform="matrix(1.3333333,0,0,-1.3333333,53.333332,85.333336)"
     style="fill:#2d2d2d;fill-opacity:1"><path
       inkscape:connector-curvature="0"
       d="m 0,0 32,-108 c 0,0 -12,-44 -40,-44 -22.531,0 -21.751,41.442 -20.588,57.63 0.275,3.815 0.888,7.588 1.839,11.293 C -22.249,-65.539 -6.795,-6.795 0,0"
       style="fill:#2d2d2d;fill-opacity:1;fill-rule:nonzero;stroke:none"
       id="path46" /></g><g
     id="g48"
     transform="matrix(1.3333333,0,0,-1.3333333,287.99999,85.333336)"
     style="fill:#393939;fill-opacity:1"><path
       inkscape:connector-curvature="0"
       d="M 0,0 -40,12 C -40,12 -54.952,-2.942 -73.053,-9.243 -67.541,-13.645 -64,-20.415 -64,-28 c 0,-13.233 -10.767,-24 -24,-24 -13.233,0 -24,10.767 -24,24 0,7.585 3.541,14.355 9.053,18.757 C -121.048,-2.942 -136,12 -136,12 L -176,0 c 0,0 -40,-88 32,-108 0,0 68,16 112,0 0,0 64,8 32,108"
       style="fill:#393939;fill-opacity:1;fill-rule:nonzero;stroke:none"
       id="path50" /></g><g
     id="g52"
     transform="matrix(1.3333333,0,0,-1.3333333,112,125.33334)"
     style="fill:#262626;fill-opacity:1"><path
       inkscape:connector-curvature="0"
       d="m 0,0 c 0,-12.15 -9.85,-22 -22,-22 -12.15,0 -22,9.85 -22,22 0,12.15 9.85,22 22,22 C -9.85,22 0,12.15 0,0"
       style="fill:#262626;fill-opacity:1;fill-rule:nonzero;stroke:none"
       id="path54" /></g><g
     id="g56"
     transform="matrix(1.3333333,0,0,-1.3333333,285.33333,128)"
     style="fill:#2d2d2d;fill-opacity:1"><path
       inkscape:connector-curvature="0"
       d="m 0,0 c 0,-11.046 -8.954,-20 -20,-20 -11.046,0 -20,8.954 -20,20 0,11.046 8.954,20 20,20 C -8.954,20 0,11.046 0,0"
       style="fill:#2d2d2d;fill-opacity:1;fill-rule:nonzero;stroke:none"
       id="path58" /></g><g
     id="g60"
     transform="matrix(1.3333333,0,0,-1.3333333,234.66666,138.66667)"><path
       inkscape:connector-curvature="0"
       d="m 0,0 v 0 c -4.4,0 -8,3.6 -8,8 0,4.4 3.6,8 8,8 C 4.4,16 8,12.4 8,8 8,3.6 4.4,0 0,0"
       style="fill:#3096cf;fill-opacity:1;fill-rule:nonzero;stroke:none"
       id="path62" /></g><g
     id="g64"
     transform="matrix(1.3333333,0,0,-1.3333333,282.66666,138.66667)"><path
       inkscape:connector-curvature="0"
       d="m 0,0 v 0 c -4.4,0 -8,3.6 -8,8 0,4.4 3.6,8 8,8 C 4.4,16 8,12.4 8,8 8,3.6 4.4,0 0,0"
       style="fill:#ff0000;fill-opacity:1;fill-rule:nonzero;stroke:none"
       id="path66" /></g><g
     id="g68"
     transform="matrix(1.3333333,0,0,-1.3333333,258.66666,114.66667)"><path
       inkscape:connector-curvature="0"
       d="m 0,0 v 0 c -4.4,0 -8,3.6 -8,8 0,4.4 3.6,8 8,8 C 4.4,16 8,12.4 8,8 8,3.6 4.4,0 0,0"
       style="fill:#eac500;fill-opacity:1;fill-rule:nonzero;stroke:none"
       id="path70" /></g><g
     id="g72"
     transform="matrix(1.3333333,0,0,-1.3333333,258.66666,160)"><path
       inkscape:connector-curvature="0"
       d="m 0,0 v 0 c -4.4,0 -8,3.6 -8,8 0,4.4 3.6,8 8,8 C 4.4,16 8,12.4 8,8 8,3.6 4.4,0 0,0"
       style="fill:#00b800;fill-opacity:1;fill-rule:nonzero;stroke:none"
       id="path74" /></g><g
     id="g76"
     transform="matrix(1.3333333,0,0,-1.3333333,285.33333,181.33333)"
     style="fill:#191919;fill-opacity:1"><path
       inkscape:connector-curvature="0"
       d="m 0,0 v 0 c -4.4,0 -8,3.6 -8,8 0,4.4 3.6,8 8,8 C 4.4,16 8,12.4 8,8 8,3.6 4.4,0 0,0"
       style="fill:#191919;fill-opacity:1;fill-rule:nonzero;stroke:none"
       id="path78" /></g><g
     id="g80"
     transform="matrix(1.3333333,0,0,-1.3333333,95.999998,229.33333)"
     style="fill:#191919;fill-opacity:1"><path
       inkscape:connector-curvature="0"
       d="M 0,0 C 0,0 56,16 112,0 112,0 96,24 56,24 16,24 0,0 0,0"
       style="fill:#191919;fill-opacity:1;fill-rule:nonzero;stroke:none"
       id="path82" /></g><g
     id="g84"
     transform="matrix(1.3333333,0,0,-1.3333333,271.99999,189.33333)"><path
       inkscape:connector-curvature="0"
       d="m 0,0 c 0,-4.418 -3.582,-8 -8,-8 -4.418,0 -8,3.582 -8,8 0,4.418 3.582,8 8,8 4.418,0 8,-3.582 8,-8"
       style="fill:#cccccc;fill-opacity:1;fill-rule:nonzero;stroke:none"
       id="path86" /></g><g
     id="g88"
     transform="matrix(1.3333333,0,0,-1.3333333,245.33333,181.33333)"
     style="fill:#262626;fill-opacity:1"><path
       inkscape:connector-curvature="0"
       d="m 0,0 c 0,-13.255 -10.745,-24 -24,-24 -13.255,0 -24,10.745 -24,24 0,13.255 10.745,24 24,24 C -10.745,24 0,13.255 0,0"
       style="fill:#262626;fill-opacity:1;fill-rule:nonzero;stroke:none"
       id="path90" /></g><g
     id="g92"
     transform="matrix(1.3333333,0,0,-1.3333333,213.33333,196)"
     style="fill:#333333;fill-opacity:1"><path
       inkscape:connector-curvature="0"
       d="m 0,0 c -8.271,0 -15,6.729 -15,15 0,8.271 6.729,15 15,15 C 8.271,30 15,23.271 15,15 15,6.729 8.271,0 0,0"
       style="fill:#333333;fill-opacity:1;fill-rule:nonzero;stroke:none"
       id="path94" /></g><g
     id="g96"
     transform="matrix(1.3333333,0,0,-1.3333333,213.33333,154.66667)"
     style="fill:#000000;fill-opacity:1"><path
       inkscape:connector-curvature="0"
       d="m 0,0 c -8.822,0 -16,-7.178 -16,-16 0,-8.822 7.178,-16 16,-16 8.822,0 16,7.178 16,16 C 16,-7.178 8.822,0 0,0 m 0,-2 c 7.732,0 14,-6.268 14,-14 0,-7.732 -6.268,-14 -14,-14 -7.732,0 -14,6.268 -14,14 0,7.732 6.268,14 14,14"
       style="fill:#000000;fill-opacity:1;fill-rule:nonzero;stroke:none"
       id="path98" /></g><g
     id="g100"
     transform="matrix(1.3333333,0,0,-1.3333333,226.66666,176)"
     style="fill:#262626;fill-opacity:1"><path
       inkscape:connector-curvature="0"
       d="m 0,0 c 0,-5.522 -4.478,-10 -10,-10 -5.522,0 -10,4.478 -10,10 0,5.523 4.478,10 10,10 C -4.478,10 0,5.523 0,0"
       style="fill:#262626;fill-opacity:1;fill-rule:nonzero;stroke:none"
       id="path102" /></g><g
     id="g104"
     transform="matrix(1.3333333,0,0,-1.3333333,203.99999,176)"
     style="fill:#333333;fill-opacity:1"><path
       inkscape:connector-curvature="0"
       d="m 0,0 c 0,-0.553 -0.447,-1 -1,-1 -0.553,0 -1,0.447 -1,1 0,0.553 0.447,1 1,1 0.553,0 1,-0.447 1,-1"
       style="fill:#333333;fill-opacity:1;fill-rule:nonzero;stroke:none"
       id="path106" /></g><g
     id="g108"
     transform="matrix(1.3333333,0,0,-1.3333333,225.33333,176)"
     style="fill:#333333;fill-opacity:1"><path
       inkscape:connector-curvature="0"
       d="m 0,0 c 0,-0.553 -0.447,-1 -1,-1 -0.553,0 -1,0.447 -1,1 0,0.553 0.447,1 1,1 0.553,0 1,-0.447 1,-1"
       style="fill:#333333;fill-opacity:1;fill-rule:nonzero;stroke:none"
       id="path110" /></g><g
     id="g112"
     transform="matrix(1.3333333,0,0,-1.3333333,214.66666,186.66667)"
     style="fill:#333333;fill-opacity:1"><path
       inkscape:connector-curvature="0"
       d="m 0,0 c 0,-0.553 -0.447,-1 -1,-1 -0.553,0 -1,0.447 -1,1 0,0.553 0.447,1 1,1 0.553,0 1,-0.447 1,-1"
       style="fill:#333333;fill-opacity:1;fill-rule:nonzero;stroke:none"
       id="path114" /></g><g
     id="g116"
     transform="matrix(1.3333333,0,0,-1.3333333,214.66666,165.33333)"
     style="fill:#333333;fill-opacity:1"><path
       inkscape:connector-curvature="0"
       d="m 0,0 c 0,-0.552 -0.447,-1 -1,-1 -0.553,0 -1,0.448 -1,1 0,0.552 0.447,1 1,1 0.553,0 1,-0.448 1,-1"
       style="fill:#333333;fill-opacity:1;fill-rule:nonzero;stroke:none"
       id="path118" /></g><g
     id="g120"
     transform="matrix(1.3333333,0,0,-1.3333333,104,125.33334)"
     style="fill:#333333;fill-opacity:1"><path
       inkscape:connector-curvature="0"
       d="m 0,0 c 0,-7.732 -6.268,-14 -14,-14 -7.732,0 -14,6.268 -14,14 0,7.732 6.268,14 14,14 C -6.268,14 0,7.732 0,0"
       style="fill:#333333;fill-opacity:1;fill-rule:nonzero;stroke:none"
       id="path122" /></g><g
     id="g124"
     transform="matrix(1.3333333,0,0,-1.3333333,85.333331,104)"
     style="fill:#000000;fill-opacity:1"><path
       inkscape:connector-curvature="0"
       d="m 0,0 c -8.822,0 -16,-7.178 -16,-16 0,-8.822 7.178,-16 16,-16 8.822,0 16,7.178 16,16 C 16,-7.178 8.822,0 0,0 m 0,-2 c 7.732,0 14,-6.268 14,-14 0,-7.732 -6.268,-14 -14,-14 -7.732,0 -14,6.268 -14,14 0,7.732 6.268,14 14,14"
       style="fill:#000000;fill-opacity:1;fill-rule:nonzero;stroke:none"
       id="path126" /></g><g
     id="g128"
     transform="matrix(1.3333333,0,0,-1.3333333,98.666664,125.33334)"
     style="fill:#262626;fill-opacity:1"><path
       inkscape:connector-curvature="0"
       d="m 0,0 c 0,-5.523 -4.477,-10 -10,-10 -5.523,0 -10,4.477 -10,10 0,5.523 4.477,10 10,10 C -4.477,10 0,5.523 0,0"
       style="fill:#262626;fill-opacity:1;fill-rule:nonzero;stroke:none"
       id="path130" /></g><g
     id="g132"
     transform="matrix(1.3333333,0,0,-1.3333333,75.999998,125.33334)"
     style="fill:#333333;fill-opacity:1"><path
       inkscape:connector-curvature="0"
       d="m 0,0 c 0,-0.552 -0.448,-1 -1,-1 -0.552,0 -1,0.448 -1,1 0,0.552 0.448,1 1,1 0.552,0 1,-0.448 1,-1"
       style="fill:#333333;fill-opacity:1;fill-rule:nonzero;stroke:none"
       id="path134" /></g><g
     id="g136"
     transform="matrix(1.3333333,0,0,-1.3333333,97.333331,125.33334)"
     style="fill:#333333;fill-opacity:1"><path
       inkscape:connector-curvature="0"
       d="m 0,0 c 0,-0.552 -0.448,-1 -1,-1 -0.552,0 -1,0.448 -1,1 0,0.552 0.448,1 1,1 0.552,0 1,-0.448 1,-1"
       style="fill:#333333;fill-opacity:1;fill-rule:nonzero;stroke:none"
       id="path138" /></g><g
     id="g140"
     transform="matrix(1.3333333,0,0,-1.3333333,86.666665,136)"
     style="fill:#333333;fill-opacity:1"><path
       inkscape:connector-curvature="0"
       d="m 0,0 c 0,-0.552 -0.448,-1 -1,-1 -0.552,0 -1,0.448 -1,1 0,0.552 0.448,1 1,1 0.552,0 1,-0.448 1,-1"
       style="fill:#333333;fill-opacity:1;fill-rule:nonzero;stroke:none"
       id="path142" /></g><g
     id="g144"
     transform="matrix(1.3333333,0,0,-1.3333333,86.666665,114.66667)"
     style="fill:#333333;fill-opacity:1"><path
       inkscape:connector-curvature="0"
       d="m 0,0 c 0,-0.552 -0.448,-1 -1,-1 -0.552,0 -1,0.448 -1,1 0,0.552 0.448,1 1,1 0.552,0 1,-0.448 1,-1"
       style="fill:#333333;fill-opacity:1;fill-rule:nonzero;stroke:none"
       id="path146" /></g><g
     id="g148"
     transform="matrix(1.3333333,0,0,-1.3333333,61.333332,160)"
     style="fill:#191919;fill-opacity:1"><path
       inkscape:connector-curvature="0"
       d="m 0,0 c 0,-3.313 -2.687,-6 -6,-6 -3.313,0 -6,2.687 -6,6 0,3.313 2.687,6 6,6 3.313,0 6,-2.687 6,-6"
       style="fill:#191919;fill-opacity:1;fill-rule:nonzero;stroke:none"
       id="path150" /></g><g
     id="g152"
     transform="matrix(1.3333333,0,0,-1.3333333,79.999998,178.66667)"
     style="fill:#191919;fill-opacity:1"><path
       inkscape:connector-curvature="0"
       d="m 0,0 c 0,-3.313 -2.687,-6 -6,-6 -3.313,0 -6,2.687 -6,6 0,3.313 2.687,6 6,6 3.313,0 6,-2.687 6,-6"
       style="fill:#191919;fill-opacity:1;fill-rule:nonzero;stroke:none"
       id="path154" /></g><g
     id="g156"
     transform="matrix(1.3333333,0,0,-1.3333333,125.33333,146.66667)"
     style="fill:#2d2d2d;fill-opacity:1"><path
       inkscape:connector-curvature="0"
       d="m 0,0 c -13.233,0 -24,-10.767 -24,-24 0,-13.233 10.767,-24 24,-24 13.233,0 24,10.767 24,24 C 24,-10.767 13.233,0 0,0"
       style="fill:#2d2d2d;fill-opacity:1;fill-rule:nonzero;stroke:none"
       id="path158" /></g><g
     id="g160"
     transform="matrix(1.3333333,0,0,-1.3333333,125.33333,149.33333)"><path
       inkscape:connector-curvature="0"
       d="m 0,0 c -12.131,0 -22,-9.869 -22,-22 0,-12.131 9.869,-22 22,-22 12.131,0 22,9.869 22,22 C 22,-9.869 12.131,0 0,0"
       style="fill:#191919;fill-opacity:1;fill-rule:nonzero;stroke:none"
       id="path162" /></g><g
     id="g164"
     transform="matrix(1.3333333,0,0,-1.3333333,197.33333,122.66667)"><path
       inkscape:connector-curvature="0"
       d="m 0,0 c 0,-11.046 -8.954,-20 -20,-20 -11.046,0 -20,8.954 -20,20 0,11.046 8.954,20 20,20 C -8.954,20 0,11.046 0,0"
       style="fill:#191919;fill-opacity:1;fill-rule:nonzero;stroke:none"
       id="path166" /></g><g
     id="g168"
     transform="matrix(1.3333333,0,0,-1.3333333,149.33333,178.66667)"
     style="fill:#333333;fill-opacity:1"><path
       inkscape:connector-curvature="0"
       d="m 0,0 c 0,-9.941 -8.059,-18 -18,-18 -9.941,0 -18,8.059 -18,18 0,9.941 8.059,18 18,18 C -8.059,18 0,9.941 0,0"
       style="fill:#333333;fill-opacity:1;fill-rule:nonzero;stroke:none"
       id="path170" /></g><g
     id="g172"
     transform="matrix(1.3333333,0,0,-1.3333333,144,170.66667)"
     style="fill:#262626;fill-opacity:1"><path
       inkscape:connector-curvature="0"
       d="m 0,0 h -8 v 8 c 0,2.209 -1.791,4 -4,4 h -4 c -2.209,0 -4,-1.791 -4,-4 V 0 h -7 c -2.761,0 -5,-2.238 -5,-5 v -3 c 0,-2.209 1.791,-4 4,-4 h 8 v -8 c 0,-2.209 1.791,-4 4,-4 h 4 c 2.209,0 4,1.791 4,4 v 8 h 8 c 2.209,0 4,1.791 4,4 v 4 C 4,-1.791 2.209,0 0,0"
       style="fill:#262626;fill-opacity:1;fill-rule:nonzero;stroke:none"
       id="path174" /></g><path
     id="path84"
     style="fill:#536dbd;fill-opacity:1;fill-rule:nonzero;stroke:none;stroke-width:1.33333325"
     d="m 245.33333,128.08595 c 0,5.89067 -4.776,10.66667 -10.66667,10.66667 -5.89066,0 -10.66666,-4.776 -10.66666,-10.66667 0,-5.89067 4.776,-10.66667 10.66666,-10.66667 5.89067,0 10.66667,4.776 10.66667,10.66667"
     inkscape:connector-curvature="0" /><path
     id="path88"
     style="fill:#f2c400;fill-opacity:1;fill-rule:nonzero;stroke:none;stroke-width:1.33333325"
     d="m 269.33333,104.08595 c 0,5.89067 -4.776,10.66667 -10.66667,10.66667 -5.89066,0 -10.66666,-4.776 -10.66666,-10.66667 0,-5.890657 4.776,-10.66666 10.66666,-10.66666 5.89067,0 10.66667,4.776003 10.66667,10.66666"
     inkscape:connector-curvature="0" /><path
     id="path92"
     style="fill:#009900;fill-opacity:1;fill-rule:nonzero;stroke:none;stroke-width:1.33333325"
     d="m 269.33333,149.26667 c 0,5.89067 -4.776,10.66667 -10.66667,10.66667 C 252.776,159.93334 248,155.15734 248,149.26667 248,143.376 252.776,138.6 258.66666,138.6 c 5.89067,0 10.66667,4.776 10.66667,10.66667"
     inkscape:connector-curvature="0" /><path
     id="path96"
     style="fill:#d60000;fill-opacity:1;fill-rule:nonzero;stroke:none;stroke-width:1.33333325"
     d="m 293.33333,128.08595 c 0,5.89067 -4.776,10.66667 -10.66667,10.66667 -5.89066,0 -10.66666,-4.776 -10.66666,-10.66667 0,-5.89067 4.776,-10.66667 10.66666,-10.66667 5.89067,0 10.66667,4.776 10.66667,10.66667"
     inkscape:connector-curvature="0" /><text
     xml:space="preserve"
     style="font-style:normal;font-weight:normal;font-size:19.60959625px;line-height:1.25;font-family:sans-serif;letter-spacing:0px;word-spacing:0px;fill:#00ec00;fill-opacity:1;stroke:none;stroke-width:0.49023989;"
     x="251.7843"
     y="155.60397"
     id="text81"><tspan
       sodipodi:role="line"
       id="tspan79"
       x="251.7843"
       y="155.60397"
       style="fill:#00ec00;fill-opacity:1;stroke-width:0.49023989;">A</tspan></text>
<text
     xml:space="preserve"
     style="font-style:normal;font-weight:normal;font-size:19.60935974px;line-height:1.25;font-family:sans-serif;letter-spacing:0px;word-spacing:0px;fill:#ff5151;fill-opacity:1;stroke:none;stroke-width:0.49023399"
     x="276.08502"
     y="135.21446"
     id="text890"><tspan
       sodipodi:role="line"
       id="tspan888"
       x="276.08502"
       y="135.21446"
       style="fill:#ff5151;fill-opacity:1;stroke-width:0.49023399">B</tspan></text>
<text
     xml:space="preserve"
     style="font-style:normal;font-weight:normal;font-size:19.60935974px;line-height:1.25;font-family:sans-serif;letter-spacing:0px;word-spacing:0px;fill:#99aae1;fill-opacity:1;stroke:none;stroke-width:0.49023399;"
     x="227.9451"
     y="135.21446"
     id="text894"><tspan
       sodipodi:role="line"
       id="tspan892"
       x="227.9451"
       y="135.21446"
       style="fill:#99aae1;fill-opacity:1;stroke-width:0.49023399;">X</tspan></text>
<text
     xml:space="preserve"
     style="font-style:normal;font-weight:normal;font-size:19.60935974px;line-height:1.25;font-family:sans-serif;letter-spacing:0px;word-spacing:0px;fill:#ffe965;fill-opacity:1;stroke:none;stroke-width:0.49023399;"
     x="252.63449"
     y="111.21445"
     id="text898"><tspan
       sodipodi:role="line"
       id="tspan896"
       x="252.63449"
       y="111.21445"
       style="fill:#ffe965;fill-opacity:1;stroke-width:0.49023399;">Y</tspan></text>
</svg>
