<?xml version="1.0" encoding="UTF-8" standalone="no"?>
<svg
   xmlns:dc="http://purl.org/dc/elements/1.1/"
   xmlns:cc="http://creativecommons.org/ns#"
   xmlns:rdf="http://www.w3.org/1999/02/22-rdf-syntax-ns#"
   xmlns:svg="http://www.w3.org/2000/svg"
   xmlns="http://www.w3.org/2000/svg"
   xmlns:sodipodi="http://sodipodi.sourceforge.net/DTD/sodipodi-0.dtd"
   xmlns:inkscape="http://www.inkscape.org/namespaces/inkscape"
   viewBox="0 0 341.33334 341.33334"
   height="341.33334"
   width="341.33334"
   xml:space="preserve"
   id="svg2"
   version="1.1"
   sodipodi:docname="Microsoft - MSX2-content.svg"
   inkscape:version="0.92.2 (5c3e80d, 2017-08-06)"><sodipodi:namedview
     pagecolor="#ffffff"
     bordercolor="#666666"
     borderopacity="1"
     objecttolerance="10"
     gridtolerance="10"
     guidetolerance="10"
     inkscape:pageopacity="0"
     inkscape:pageshadow="2"
     inkscape:window-width="1024"
     inkscape:window-height="705"
     id="namedview53"
     showgrid="false"
     inkscape:pagecheckerboard="true"
     inkscape:zoom="0.69140623"
     inkscape:cx="170.66667"
     inkscape:cy="170.66667"
     inkscape:window-x="-8"
     inkscape:window-y="-8"
     inkscape:window-maximized="1"
     inkscape:current-layer="svg2" /><metadata
     id="metadata8"><rdf:RDF><cc:Work
         rdf:about=""><dc:format>image/svg+xml</dc:format><dc:type
           rdf:resource="http://purl.org/dc/dcmitype/StillImage" /><dc:title></dc:title></cc:Work></rdf:RDF></metadata><defs
     id="defs6"><clipPath
       id="clipPath18"
       clipPathUnits="userSpaceOnUse"><path
         id="path16"
         d="M 0,256 H 256 V 0 H 0 Z" /></clipPath><clipPath
       id="clipPath26"
       clipPathUnits="userSpaceOnUse"><path
         id="path24"
         d="M 4,208 H 252 V 48 H 4 Z" /></clipPath></defs><g
     id="g22"
     transform="matrix(1.3333333,0,0,-1.3333333,0,341.33333)" /><path
     id="path38"
     style="fill:#191919;fill-opacity:1;fill-rule:nonzero;stroke:none;stroke-width:1.33333325"
     d="m 47.999999,228.8652 c -5.890667,0 -10.666666,-4.776 -10.666666,-10.66667 0,-5.89066 4.775999,-10.66666 10.666666,-10.66666 5.890667,0 10.666666,4.776 10.666666,10.66666 0,5.89067 -4.775999,10.66667 -10.666666,10.66667 m 0,-138.666663 c 2.945333,0 5.333333,2.388 5.333333,5.333333 0,2.945333 -2.388,5.33333 -5.333333,5.33333 -2.945333,0 -5.333333,-2.387997 -5.333333,-5.33333 0,-2.945333 2.388,-5.333333 5.333333,-5.333333 m 268.325331,-15.532 H 30.341333 c -4.974667,0 -9.008,4.045333 -9.008,9.036 V 266.66653 H 325.33333 V 83.702537 c 0,-4.990667 -4.032,-9.036 -9.008,-9.036"
     inkscape:connector-curvature="0" /><path
     id="path42"
     style="fill:#d9d9d9;fill-opacity:1;fill-rule:nonzero;stroke:none;stroke-width:1.33333325"
     d="M 307.99999,250.66667 H 65.333329 c -0.736,0 -1.333333,-0.59733 -1.333333,-1.33333 V 74.666674 H 309.33332 V 249.33334 c 0,0.736 -0.59733,1.33333 -1.33333,1.33333"
     inkscape:connector-curvature="0" /><path
     inkscape:connector-curvature="0"
     d="m 293.33333,240 h -32 v -16 h 32 z"
     style="fill:#ff0000;fill-opacity:1;fill-rule:nonzero;stroke:none;stroke-width:1.33333325"
     id="path44" /><path
     id="path48"
     style="fill:#d9d9d9;fill-opacity:1;fill-rule:nonzero;stroke:none;stroke-width:1.33333325"
     d="m 286.61613,231.79707 3.74667,-5.10533 -3.41734,-0.0253 -2.05066,2.79867 -2.10134,-2.77333 -8.25733,0.007 c -2.04933,0 -3.652,1.40267 -3.66667,3.184 -0.0707,1.94267 1.39467,3.4 2.78534,3.388 l 3.23733,0.0413 c 0.66267,0 0.62667,1.16933 0.0427,1.176 l -10.352,0.009 v -7.83067 h -2.58267 v 10.64 h 13.11467 c 1.04533,0.056 3.21733,-1.012 3.19733,-3.34933 0.0453,-2.01067 -1.75467,-3.29867 -3.03333,-3.30667 l -3.024,-0.0453 c -0.76134,0.0227 -0.78934,-1.172 -0.007,-1.17867 l 7.17867,-0.0107 1.72133,2.43066 -3.94933,5.47334 3.468,0.004 2.24266,-3.17734 2.35734,3.17734 3.4,0.009 z"
     inkscape:connector-curvature="0" /><path
     id="path52"
     style="fill:#ff0000;fill-opacity:1;fill-rule:nonzero;stroke:none;stroke-width:1.33333325"
     d="m 298.54933,234.23347 c -0.55333,-0.005 -0.58667,-1.14933 0.0413,-1.14933 l 3.06934,-0.0413 c 1.31866,0.0133 2.708,-1.41333 2.64133,-3.31333 -0.0147,-1.74133 -1.53333,-3.11333 -3.47733,-3.11333 l -5.424,-0.004 v 2.664 l 5.696,0.008 c 0.744,0.007 0.716,1.176 -0.005,1.15333 l -2.868,0.044 c -1.212,0.008 -2.91866,1.268 -2.876,3.23333 -10e-4,0.2 -10e-4,3.27467 -10e-4,3.27467 h 9.116 v -2.75067 z"
     inkscape:connector-curvature="0" /><path
     inkscape:connector-curvature="0"
     d="M 16,101.33334 H 42.666666 V 90.66667 H 16 Z"
     style="fill:#262626;fill-opacity:1;fill-rule:nonzero;stroke:none;stroke-width:1.33333325"
     id="path54" /><path
     inkscape:connector-curvature="0"
     d="M 16,117.33334 H 53.333332 V 106.66667 H 16 Z"
     style="fill:#262626;fill-opacity:1;fill-rule:nonzero;stroke:none;stroke-width:1.33333325"
     id="path56" /><path
     inkscape:connector-curvature="0"
     d="M 16,133.33334 H 53.333332 V 122.66667 H 16 Z"
     style="fill:#262626;fill-opacity:1;fill-rule:nonzero;stroke:none;stroke-width:1.33333325"
     id="path58" /><path
     id="path62"
     style="fill:#ff0000;fill-opacity:1;fill-rule:nonzero;stroke:none;stroke-width:1.33333325"
     d="m 75.227198,232.66453 c 0.406667,-0.964 -0.052,-1.95067 0.06533,-2.924 0.012,-0.1 -0.056,-0.27733 -0.132,-0.31067 -0.906666,-0.392 -0.785333,-1.36533 -1.097333,-2.08133 -0.232,-0.536 0.476,-1.50133 1.146667,-1.68667 1.124,-0.31066 1.314666,-0.61466 1.388,-1.84666 0.028,-0.47067 0.01867,-1.04267 0.522666,-1.32667 0.292,-0.164 0.156,-0.40267 0.188,-0.62133 0.07467,-0.52534 0.237334,-0.948 0.901334,-0.78667 0.341333,0.084 0.612,0.0107 0.486666,-0.456 -0.03067,-0.116 -0.113333,-0.244 0.052,-0.276 0.678667,-0.13333 0.678667,-1.284 1.568,-1.10133 0.194667,0.04 0.209334,-0.11067 0.233334,-0.27867 0.048,-0.34933 0.306666,-0.35467 0.526666,-0.22 0.733334,0.44667 1.426667,0.76533 2.305333,0.25467 0.184,-0.108 0.837334,0.2 1.065334,0.59733 0.406666,0.70533 0.646666,1.492 0.861333,2.28133 0.148,0.54534 -0.408,0.89334 -0.374667,1.42267 0.0093,0.13067 -0.226666,0.14533 -0.344,-0.001 -0.617333,-0.77334 -0.6,-0.02 -0.689333,0.328 -0.04267,0.16533 0.04133,0.376 -0.18,0.448 -0.268,0.0853 -0.346667,-0.13067 -0.452,-0.32134 -0.408,-0.744 -1.050667,-1.28133 -1.592,-1.90933 -0.116,-0.13467 -0.178666,-0.22 -0.330666,-0.092 -0.254667,0.21333 -0.52,0.54133 -0.478667,0.808 0.106667,0.688 -0.01867,1.09467 -0.668,1.44667 -0.313333,0.17066 -0.282667,0.98133 -0.08133,1.17066 0.341333,0.316 0.568,0.916 1.193333,0.85334 0.357333,-0.036 0.758666,-0.44667 1.064,-0.028 0.401333,0.55066 0.686666,1.19066 0.588,1.912 -0.04,0.28666 -0.213334,0.54666 -0.130667,0.86533 0.02133,0.084 -0.09467,0.20533 -0.148,0.30933 -0.550667,-0.552 -1.192,0.39067 -1.745333,-0.11333 -0.032,-0.33733 -0.278667,-0.712 -0.496,-0.37733 -0.441333,0.68 -0.772,0.15333 -1.272,-0.068 0.14,0.37733 0.226667,0.616 0.314667,0.85466 -0.008,0.0747 -0.01467,0.14934 -0.02267,0.224 -0.117333,0.0533 -0.202667,0.128 -0.174667,0.27867 -0.044,0.91333 -0.388,1.8 -0.422666,2.676 -0.04533,1.13067 -0.277334,2.22267 -0.346667,3.33867 -0.03467,0.54133 -0.04533,1.04533 -0.393333,1.51466 -0.269334,0.36534 -0.257334,0.85467 -0.306667,1.31334 -0.141333,1.29733 -0.572,2.54 -1.416,3.472 -0.349333,0.38666 -1.030667,0.54 -1.357333,1.092 -0.044,0.072 -0.174667,0.12133 -0.177334,0.184 -0.03867,1.00133 -0.744,1.04 -1.444,1.05733 -0.306666,0.008 -0.484,-0.10933 -0.448,0.43867 0.04667,0.708 -0.558666,0.14666 -0.645333,0.084 -0.308,-0.21867 -0.462667,-0.37734 -0.848,-0.0373 -0.42,0.37067 -0.858667,0.31734 -1.164,-0.336 -0.545333,-1.172 -1.148,-2.29866 -0.945333,-3.67866 0.044,-0.3 0.148,-0.388 0.368,-0.32934 0.274666,0.0747 0.476,0.16934 0.768,-0.0667 0.370666,-0.3 0.496,0.12 0.598666,0.39333 0.106667,0.284 0.148,0.60267 0.517334,0.66267 0.06,0.10933 0.048,0.348 0.257333,0.22533 0.158667,-0.0933 0.09733,-0.248 -0.01733,-0.36667 -0.08533,-0.62266 0.24,-0.50666 0.569333,-0.32266 0.381333,0.21466 0.769333,0.40266 1.133333,0.0253 0.356,-0.36933 0.410667,-0.76667 0.364,-1.348 -0.06933,-0.83867 -0.185333,-1.85867 0.721334,-2.468 0.09067,-0.0613 0.238666,-0.2 0.222666,-0.236 -0.333333,-0.74267 0.03067,-1.51467 -0.105333,-2.268 -0.144,-0.804 -0.145333,-1.60933 0.465333,-2.26533 0.04133,0.032 0.08133,0.0627 0.121334,0.0947 0.0013,-0.0293 0.01333,-0.0653 0.0013,-0.0867 -0.04267,-0.076 -0.09067,-0.0707 -0.132,0.009"
     inkscape:connector-curvature="0" /><path
     id="path66"
     style="fill:#191919;fill-opacity:1;fill-rule:nonzero;stroke:none;stroke-width:1.33333325"
     d="m 79.999998,239.94347 4.626667,-15.944 h 4.290666 l 2.229333,6.96 2.313334,-6.96 h 4.037333 l 3.785329,11.74667 9.236,-0.016 c 0.96934,-0.008 1.02934,-1.76267 -0.072,-1.76267 l -5.37866,-0.0627 c -2.30934,0.02 -4.74534,-2.168 -4.62667,-5.08133 0.0253,-2.672 2.68667,-4.776 6.092,-4.776 l 13.71867,-0.0107 3.492,4.16134 3.40666,-4.19867 5.67734,0.0373 -6.224,7.65867 6.72933,8.304 -5.648,-0.0147 -3.91733,-4.76533 -3.72534,4.76533 -5.76266,-0.004 6.56133,-8.212 -2.86,-3.64533 -11.92667,0.016 c -1.30133,0.0107 -1.25333,1.80267 0.0107,1.76933 l 5.02533,0.0667 c 2.12267,0.012 5.11467,1.944 5.04,4.96 0.032,3.50667 -3.576,5.10933 -5.312,5.02267 l -13.153329,0.016 -2.186667,-7.17334 -2.188,7.15734 h -4.150666 l -2.284,-7.12134 -2.006667,7.13334 z"
     inkscape:connector-curvature="0" /><path
     inkscape:connector-curvature="0"
     d="M 98.666664,213.33333 H 71.999998 v -26.66666 h 26.666666 z"
     style="fill:#29678f;fill-opacity:1;fill-rule:nonzero;stroke:none;stroke-width:1.33333325"
     id="path68" /><path
     id="path72"
     style="fill:#3096cf;fill-opacity:1;fill-rule:nonzero;stroke:none;stroke-width:1.33333325"
     d="m 92.045998,201.69267 c 0,0.472 -0.330667,0.856 -0.74,0.856 h -6.984 V 196.814 h 6.984 c 0.409333,0 0.74,0.38267 0.74,0.85467 z m 3.661333,-10.236 H 84.363332 v -4.78933 h -7.029334 v 21.33333 h 18.373333 c 1.634667,0 2.96,-1.53333 2.96,-3.424 v -9.69733 c 0,-1.89067 -1.325333,-3.42267 -2.96,-3.42267"
     inkscape:connector-curvature="0" /><path
     inkscape:connector-curvature="0"
     d="m 133.33333,192 h -32 v -5.33333 h 32 z"
     style="fill:#29678f;fill-opacity:1;fill-rule:nonzero;stroke:none;stroke-width:1.33333325"
     id="path74" /><path
     inkscape:connector-curvature="0"
     d="M 128,197.33333 H 101.33333 V 192 H 128 Z"
     style="fill:#3096cf;fill-opacity:1;fill-rule:nonzero;stroke:none;stroke-width:1.33333325"
     id="path76" /><path
     id="path80"
     style="fill:#ffffff;fill-opacity:1;fill-rule:nonzero;stroke:none;stroke-width:1.33333325"
     d="m 106.06653,190.74533 c 0.22,0 0.39333,-0.06 0.51733,-0.17867 0.124,-0.11866 0.18534,-0.28266 0.18534,-0.49333 0,-0.12267 -0.0227,-0.224 -0.068,-0.304 -0.0453,-0.0813 -0.10534,-0.144 -0.18,-0.192 -0.076,-0.0467 -0.16267,-0.08 -0.26,-0.1 -0.0987,-0.0187 -0.2,-0.028 -0.30534,-0.028 h -1.13866 v 1.296 z m -0.252,-1.716 c 0.284,0 0.48667,-0.0507 0.612,-0.15067 0.124,-0.0987 0.18533,-0.248 0.18533,-0.448 0,-0.13333 -0.02,-0.23866 -0.0627,-0.31466 -0.0413,-0.0773 -0.1,-0.13734 -0.17334,-0.17867 -0.0733,-0.0427 -0.15866,-0.0693 -0.25466,-0.0813 -0.096,-0.012 -0.19867,-0.0187 -0.30667,-0.0187 h -0.99733 v 1.192 z m -0.136,-1.612 c 0.08,0 0.16667,0.001 0.26,0.003 0.092,0.001 0.184,0.007 0.27467,0.016 0.0907,0.009 0.176,0.0213 0.25466,0.0387 0.0787,0.0187 0.14667,0.044 0.20267,0.08 0.12133,0.0733 0.22667,0.17467 0.312,0.304 0.0853,0.12934 0.128,0.288 0.128,0.47734 0,0.2 -0.048,0.372 -0.144,0.51733 -0.096,0.14533 -0.23333,0.252 -0.412,0.32267 v 0.0107 c 0.23067,0.048 0.408,0.15334 0.53067,0.31467 0.12266,0.16133 0.184,0.35733 0.184,0.588 0,0.136 -0.0253,0.26933 -0.0747,0.39867 -0.048,0.12933 -0.12133,0.244 -0.21733,0.344 -0.096,0.1 -0.21467,0.18 -0.35734,0.24133 -0.14133,0.0613 -0.30533,0.092 -0.49066,0.092 h -1.81067 v -3.748 z"
     inkscape:connector-curvature="0" /><path
     id="path84"
     style="fill:#ffffff;fill-opacity:1;fill-rule:nonzero;stroke:none;stroke-width:1.33333325"
     d="m 113.22453,187.41747 v 3.328 h 1.984 v 0.42 h -2.48267 v -3.748 z"
     inkscape:connector-curvature="0" /><path
     id="path88"
     style="fill:#ffffff;fill-opacity:1;fill-rule:nonzero;stroke:none;stroke-width:1.33333325"
     d="m 122.18946,190.88973 c -0.256,0.24 -0.62,0.36 -1.092,0.36 -0.48267,0 -0.86,-0.11467 -1.13067,-0.344 -0.272,-0.22933 -0.40666,-0.59467 -0.40666,-1.09467 v -2.39333 h 0.49866 v 2.39333 c 0,0.336 0.0893,0.59067 0.268,0.764 0.17734,0.17334 0.43467,0.26 0.77067,0.26 0.31867,0 0.56133,-0.0867 0.72667,-0.26 0.16666,-0.17333 0.24933,-0.428 0.24933,-0.764 v -2.39333 h 0.49867 v 2.39333 c 0,0.48 -0.12667,0.83867 -0.38267,1.07867"
     inkscape:connector-curvature="0" /><path
     id="path92"
     style="fill:#ffffff;fill-opacity:1;fill-rule:nonzero;stroke:none;stroke-width:1.33333325"
     d="m 130.33226,187.41747 v 0.42 h -2.08933 v 1.192 h 1.948 v 0.42 h -1.948 v 1.296 h 2.10533 v 0.42 h -2.604 v -3.748 z"
     inkscape:connector-curvature="0" /><path
     id="path96"
     style="fill:#ffffff;fill-opacity:1;fill-rule:nonzero;stroke:none;stroke-width:1.33333325"
     d="m 105.8108,192.85013 1.18133,3.14933 1.18534,-3.14933 h 0.68266 v 3.748 h -0.472 v -3.11867 h -0.0107 l -1.17067,3.11867 h -0.42533 l -1.17067,-3.11867 h -0.009 v 3.11867 h -0.47334 v -3.748 z"
     inkscape:connector-curvature="0" /><path
     id="path100"
     style="fill:#ffffff;fill-opacity:1;fill-rule:nonzero;stroke:none;stroke-width:1.33333325"
     d="m 115.06546,193.36187 c -0.16667,-0.12 -0.37867,-0.18133 -0.63733,-0.18133 -0.10534,0 -0.208,0.0107 -0.31067,0.032 -0.10133,0.0213 -0.19067,0.056 -0.26933,0.10533 -0.0787,0.048 -0.14267,0.11467 -0.18934,0.196 -0.048,0.0827 -0.0707,0.18533 -0.0707,0.30667 0,0.116 0.0333,0.20933 0.10266,0.28133 0.068,0.072 0.15867,0.13067 0.272,0.176 0.11334,0.0453 0.24267,0.0827 0.38667,0.11333 0.14267,0.0293 0.28933,0.0613 0.43733,0.096 0.14934,0.036 0.29467,0.0773 0.43867,0.124 0.144,0.0467 0.272,0.11067 0.38533,0.192 0.11467,0.08 0.20534,0.18134 0.27334,0.304 0.068,0.12267 0.10266,0.276 0.10266,0.46134 0,0.2 -0.0453,0.37066 -0.13466,0.512 -0.0893,0.14266 -0.20267,0.25733 -0.34267,0.34666 -0.14,0.0893 -0.29733,0.15334 -0.47067,0.19467 -0.17333,0.04 -0.34533,0.06 -0.51733,0.06 -0.20933,0 -0.408,-0.0267 -0.59467,-0.0787 -0.188,-0.052 -0.352,-0.132 -0.49333,-0.23866 -0.14267,-0.10667 -0.25467,-0.244 -0.336,-0.40934 -0.0827,-0.16666 -0.124,-0.36266 -0.124,-0.59066 h 0.472 c 0,0.15733 0.0307,0.29333 0.092,0.40666 0.0613,0.11334 0.14267,0.20667 0.24267,0.28134 0.0987,0.0733 0.21466,0.12666 0.348,0.16266 0.13333,0.0347 0.26933,0.052 0.40933,0.052 0.112,0 0.22533,-0.0107 0.33867,-0.032 0.11333,-0.02 0.216,-0.056 0.308,-0.10666 0.0907,-0.0507 0.164,-0.12 0.22,-0.208 0.056,-0.0867 0.084,-0.19867 0.084,-0.336 0,-0.12934 -0.0347,-0.23467 -0.10267,-0.31467 -0.068,-0.08 -0.15867,-0.14667 -0.27333,-0.19733 -0.11334,-0.0507 -0.24134,-0.0907 -0.38534,-0.12267 -0.144,-0.032 -0.28933,-0.064 -0.43866,-0.0973 -0.148,-0.0333 -0.29467,-0.072 -0.43734,-0.116 -0.144,-0.0427 -0.27333,-0.10134 -0.38666,-0.172 -0.11334,-0.072 -0.204,-0.16534 -0.272,-0.27867 -0.0693,-0.11333 -0.10267,-0.256 -0.10267,-0.428 0,-0.18933 0.0387,-0.352 0.11467,-0.49067 0.0773,-0.13866 0.18,-0.252 0.308,-0.34133 0.12666,-0.0893 0.272,-0.156 0.43466,-0.2 0.16267,-0.0427 0.33067,-0.0653 0.50134,-0.0653 0.19333,0 0.372,0.0227 0.536,0.068 0.164,0.0467 0.30933,0.11733 0.43333,0.216 0.124,0.0973 0.22133,0.22133 0.29333,0.36933 0.072,0.14933 0.112,0.32667 0.11867,0.53333 h -0.47333 c -0.028,-0.26933 -0.124,-0.464 -0.29067,-0.58533"
     inkscape:connector-curvature="0" /><path
     id="path104"
     style="fill:#ffffff;fill-opacity:1;fill-rule:nonzero;stroke:none;stroke-width:1.33333325"
     d="m 121.06066,192.85013 h 0.59867 l 0.93466,1.464 0.976,-1.464 h 0.556 l -1.23866,1.82133 1.31733,1.92667 h -0.608 l -1.008,-1.54933 -1.04,1.54933 h -0.556 l 1.30133,-1.92667 z"
     inkscape:connector-curvature="0" /></svg>