<?xml version="1.0" encoding="UTF-8" standalone="no"?>
<svg
   xmlns:dc="http://purl.org/dc/elements/1.1/"
   xmlns:cc="http://creativecommons.org/ns#"
   xmlns:rdf="http://www.w3.org/1999/02/22-rdf-syntax-ns#"
   xmlns:svg="http://www.w3.org/2000/svg"
   xmlns="http://www.w3.org/2000/svg"
   xmlns:sodipodi="http://sodipodi.sourceforge.net/DTD/sodipodi-0.dtd"
   xmlns:inkscape="http://www.inkscape.org/namespaces/inkscape"
   viewBox="0 0 341.33334 341.33334"
   height="341.33334"
   width="341.33334"
   xml:space="preserve"
   id="svg2"
   version="1.1"
   sodipodi:docname="Microsoft - XBOX-content.svg"
   inkscape:version="0.92.2 (5c3e80d, 2017-08-06)"><sodipodi:namedview
     pagecolor="#ffffff"
     bordercolor="#666666"
     borderopacity="1"
     objecttolerance="10"
     gridtolerance="10"
     guidetolerance="10"
     inkscape:pageopacity="0"
     inkscape:pageshadow="2"
     inkscape:window-width="1024"
     inkscape:window-height="705"
     id="namedview28"
     showgrid="false"
     inkscape:pagecheckerboard="true"
     inkscape:zoom="0.69140623"
     inkscape:cx="170.66667"
     inkscape:cy="170.66667"
     inkscape:window-x="-8"
     inkscape:window-y="-8"
     inkscape:window-maximized="1"
     inkscape:current-layer="svg2" /><metadata
     id="metadata8"><rdf:RDF><cc:Work
         rdf:about=""><dc:format>image/svg+xml</dc:format><dc:type
           rdf:resource="http://purl.org/dc/dcmitype/StillImage" /><dc:title></dc:title></cc:Work></rdf:RDF></metadata><defs
     id="defs6"><clipPath
       id="clipPath18"
       clipPathUnits="userSpaceOnUse"><path
         id="path16"
         d="M 0,256 H 256 V 0 H 0 Z" /></clipPath><clipPath
       id="clipPath26"
       clipPathUnits="userSpaceOnUse"><path
         id="path24"
         d="M 4,252 H 252 V 4 H 4 Z" /></clipPath></defs><g
     id="g36"
     transform="matrix(1.3333333,0,0,-1.3333333,170.66666,228.6732)"><path
       inkscape:connector-curvature="0"
       d="M 0,0 C -23.993,0 -43.505,19.518 -43.505,43.505 -43.505,67.493 -23.993,87.01 0,87.01 23.987,87.01 43.5,67.493 43.5,43.505 43.5,19.518 23.987,0 0,0 m 0,159.505 c -64.071,0 -116,-51.934 -116,-116 0,-64.066 51.929,-116 116,-116 64.051,0 116,51.934 116,116 0,64.066 -51.949,116 -116,116"
       style="fill:#bfbfbf;fill-opacity:1;fill-rule:nonzero;stroke:none"
       id="path38" /></g><g
     id="g40"
     transform="matrix(1.3333333,0,0,-1.3333333,170.66986,189.03387)"><path
       inkscape:connector-curvature="0"
       d="m 0,0 c -7.596,0 -13.786,6.176 -13.786,13.775 0,7.605 6.19,13.786 13.786,13.786 7.6,0 13.777,-6.181 13.777,-13.786 C 13.777,6.176 7.6,0 0,0 m 0.001,59.775 c -25.364,0 -46.003,-20.65 -46.003,-46 0,-25.348 20.639,-46 46.003,-46 25.337,0 45.997,20.652 45.997,46 0,25.35 -20.66,46 -45.997,46"
       style="fill:#e6e6e6;fill-opacity:1;fill-rule:nonzero;stroke:none"
       id="path42" /></g><g
     id="g44"
     transform="matrix(1.3333333,0,0,-1.3333333,312.07679,107.94334)"><path
       inkscape:connector-curvature="0"
       d="m 0,0 c -18.05,40.624 -58.748,68.958 -106.055,68.958 -47.323,0 -88.016,-28.335 -106.06,-68.961 l 3.734,1.31 c 4.568,1.602 46.242,15.651 102.328,15.651 56.075,0 97.755,-14.048 102.324,-15.65 z"
       style="fill:#404040;fill-opacity:1;fill-rule:nonzero;stroke:none"
       id="path46" /></g><g
     id="g48"
     transform="matrix(1.3333333,0,0,-1.3333333,170.66933,16.000005)"><path
       inkscape:connector-curvature="0"
       d="M 0,0 C -45.322,0 -84.563,-25.991 -103.651,-63.876 -99.447,-62.402 -56.928,-48 0,-48 56.91,-48 99.42,-62.393 103.647,-63.875 84.555,-25.99 45.309,0 0,0"
       style="fill:#191919;fill-opacity:1;fill-rule:nonzero;stroke:none"
       id="path50" /></g><g
     id="g52"
     transform="matrix(1.3333333,0,0,-1.3333333,170.66933,16.000005)"><path
       inkscape:connector-curvature="0"
       d="M 0,0 C 45.309,0 84.555,-25.99 103.647,-63.875 99.42,-62.393 56.91,-48 0,-48 -56.928,-48 -99.447,-62.402 -103.651,-63.876 -84.563,-25.991 -45.322,0 0,0"
       style="fill:#262626;fill-opacity:1;fill-rule:nonzero;stroke:none"
       id="path54" /></g></svg>