<?xml version="1.0" encoding="UTF-8" standalone="no"?>
<svg
   xmlns:dc="http://purl.org/dc/elements/1.1/"
   xmlns:cc="http://creativecommons.org/ns#"
   xmlns:rdf="http://www.w3.org/1999/02/22-rdf-syntax-ns#"
   xmlns:svg="http://www.w3.org/2000/svg"
   xmlns="http://www.w3.org/2000/svg"
   xmlns:sodipodi="http://sodipodi.sourceforge.net/DTD/sodipodi-0.dtd"
   xmlns:inkscape="http://www.inkscape.org/namespaces/inkscape"
   viewBox="0 0 341.33334 341.33334"
   height="341.33334"
   width="341.33334"
   xml:space="preserve"
   id="svg2"
   version="1.1"
   sodipodi:docname="Microsoft - XBOX One-content.svg"
   inkscape:version="0.92.2 (5c3e80d, 2017-08-06)"><sodipodi:namedview
     pagecolor="#ffffff"
     bordercolor="#666666"
     borderopacity="1"
     objecttolerance="10"
     gridtolerance="10"
     guidetolerance="10"
     inkscape:pageopacity="0"
     inkscape:pageshadow="2"
     inkscape:window-width="1024"
     inkscape:window-height="705"
     id="namedview24"
     showgrid="false"
     inkscape:pagecheckerboard="true"
     inkscape:zoom="0.69140623"
     inkscape:cx="170.66667"
     inkscape:cy="170.66667"
     inkscape:window-x="-8"
     inkscape:window-y="-8"
     inkscape:window-maximized="1"
     inkscape:current-layer="svg2" /><metadata
     id="metadata8"><rdf:RDF><cc:Work
         rdf:about=""><dc:format>image/svg+xml</dc:format><dc:type
           rdf:resource="http://purl.org/dc/dcmitype/StillImage" /><dc:title></dc:title></cc:Work></rdf:RDF></metadata><defs
     id="defs6"><clipPath
       id="clipPath18"
       clipPathUnits="userSpaceOnUse"><path
         id="path16"
         d="M 0,256 H 256 V 0 H 0 Z" /></clipPath><clipPath
       id="clipPath26"
       clipPathUnits="userSpaceOnUse"><path
         id="path24"
         d="M 4,252 H 252 V 4 H 4 Z" /></clipPath></defs><g
     id="g36"
     transform="matrix(1.3333333,0,0,-1.3333333,170.66666,112.66014)"><path
       inkscape:connector-curvature="0"
       d="M 0,0 C 23.992,0 43.505,-19.517 43.505,-43.505 43.505,-67.492 23.992,-87.01 0,-87.01 c -23.988,0 -43.5,19.518 -43.5,43.505 C -43.5,-19.517 -23.988,0 0,0 m 0,-159.505 c 64.07,0 116,51.935 116,116 0,64.066 -51.93,116 -116,116 -64.051,0 -116,-51.934 -116,-116 0,-64.065 51.949,-116 116,-116"
       style="fill:#cccccc;fill-opacity:1;fill-rule:nonzero;stroke:none"
       id="path38" /></g><g
     id="g40"
     transform="matrix(1.3333333,0,0,-1.3333333,170.66346,152.2988)"><path
       inkscape:connector-curvature="0"
       d="m 0,0 c 7.596,0 13.787,-6.176 13.787,-13.776 0,-7.604 -6.191,-13.785 -13.787,-13.785 -7.6,0 -13.777,6.181 -13.777,13.785 C -13.777,-6.176 -7.6,0 0,0 m -0.001,-59.776 c 25.364,0 46.003,20.651 46.003,46 0,25.349 -20.639,46 -46.003,46 -25.338,0 -45.997,-20.651 -45.997,-46 0,-25.349 20.659,-46 45.997,-46"
       style="fill:#e6e6e6;fill-opacity:1;fill-rule:nonzero;stroke:none"
       id="path42" /></g><g
     id="g44"
     transform="matrix(1.3333333,0,0,-1.3333333,170.664,16.000005)"><path
       inkscape:connector-curvature="0"
       d="M 0,0 C -43.746,0 -81.841,-24.229 -101.602,-60 H 101.605 C 81.85,-24.229 43.76,0 0,0"
       style="fill:#00b800;fill-opacity:1;fill-rule:nonzero;stroke:none"
       id="path46" /></g></svg>