<?xml version="1.0" encoding="UTF-8" standalone="no"?>
<svg
   xmlns:dc="http://purl.org/dc/elements/1.1/"
   xmlns:cc="http://creativecommons.org/ns#"
   xmlns:rdf="http://www.w3.org/1999/02/22-rdf-syntax-ns#"
   xmlns:svg="http://www.w3.org/2000/svg"
   xmlns="http://www.w3.org/2000/svg"
   xmlns:sodipodi="http://sodipodi.sourceforge.net/DTD/sodipodi-0.dtd"
   xmlns:inkscape="http://www.inkscape.org/namespaces/inkscape"
   viewBox="0 0 341.33334 341.33334"
   height="341.33334"
   width="341.33334"
   xml:space="preserve"
   id="svg2"
   version="1.1"
   sodipodi:docname="Mr. Boom.svg"
   inkscape:version="0.92.2 (5c3e80d, 2017-08-06)"><sodipodi:namedview
     pagecolor="#ffffff"
     bordercolor="#666666"
     borderopacity="1"
     objecttolerance="10"
     gridtolerance="10"
     guidetolerance="10"
     inkscape:pageopacity="0"
     inkscape:pageshadow="2"
     inkscape:window-width="1024"
     inkscape:window-height="705"
     id="namedview286"
     showgrid="false"
     inkscape:pagecheckerboard="true"
     inkscape:zoom="0.69140623"
     inkscape:cx="170.66667"
     inkscape:cy="170.66667"
     inkscape:window-x="-8"
     inkscape:window-y="-8"
     inkscape:window-maximized="1"
     inkscape:current-layer="svg2" /><metadata
     id="metadata8"><rdf:RDF><cc:Work
         rdf:about=""><dc:format>image/svg+xml</dc:format><dc:type
           rdf:resource="http://purl.org/dc/dcmitype/StillImage" /><dc:title></dc:title></cc:Work></rdf:RDF></metadata><defs
     id="defs6"><clipPath
       id="clipPath18"
       clipPathUnits="userSpaceOnUse"><path
         id="path16"
         d="M 0,256 H 256 V 0 H 0 Z" /></clipPath><clipPath
       id="clipPath26"
       clipPathUnits="userSpaceOnUse"><path
         id="path24"
         d="M 8,252 H 248 V 4 H 8 Z" /></clipPath></defs><path
     id="path38"
     style="fill:#333333;fill-opacity:1;fill-rule:nonzero;stroke:none;stroke-width:1.33333325"
     d="m 261.33333,298.66666 c 0,14.728 -40.592,26.66667 -90.66666,26.66667 -50.07334,0 -90.666669,-11.93867 -90.666669,-26.66667 0,-14.728 40.593329,-26.66667 90.666669,-26.66667 50.07466,0 90.66666,11.93867 90.66666,26.66667"
     inkscape:connector-curvature="0" /><path
     id="path42"
     style="fill:#4c4c4c;fill-opacity:1;fill-rule:nonzero;stroke:none;stroke-width:1.33333325"
     d="M 21.333333,16.000005 V 272 c 0,0 74.102665,16 149.333327,16 75.23067,0 149.33333,-16 149.33333,-16 V 16.000005 Z"
     inkscape:connector-curvature="0" /><path
     inkscape:connector-curvature="0"
     d="M 293.33333,229.33333 H 47.999999 V 48.000004 H 293.33333 Z"
     style="fill:#333333;fill-opacity:1;fill-rule:nonzero;stroke:none;stroke-width:1.33333325"
     id="path44" /><path
     inkscape:connector-curvature="0"
     d="M 287.99999,224 H 53.333332 V 53.333337 H 287.99999 Z"
     style="fill:#d4a600;fill-opacity:1;fill-rule:nonzero;stroke:none;stroke-width:1.33333325"
     id="path46" /><path
     inkscape:connector-curvature="0"
     d="M 95.999998,85.333336 H 74.666665 V 64.000004 h 21.333333 z"
     style="fill:#007b00;fill-opacity:1;fill-rule:nonzero;stroke:none;stroke-width:1.33333325"
     id="path48" /><path
     inkscape:connector-curvature="0"
     d="M 95.999998,80.000003 H 74.666665 V 64.000004 h 21.333333 z"
     style="fill:#00b800;fill-opacity:1;fill-rule:nonzero;stroke:none;stroke-width:1.33333325"
     id="path50" /><path
     inkscape:connector-curvature="0"
     d="M 90.666664,74.66667 H 79.999998 v -5.333333 h 10.666666 z"
     style="fill:#00ff00;fill-opacity:1;fill-rule:nonzero;stroke:none;stroke-width:1.33333325"
     id="path52" /><path
     inkscape:connector-curvature="0"
     d="M 138.66666,85.333336 H 117.33333 V 64.000004 h 21.33333 z"
     style="fill:#007b00;fill-opacity:1;fill-rule:nonzero;stroke:none;stroke-width:1.33333325"
     id="path54" /><path
     inkscape:connector-curvature="0"
     d="M 138.66666,80.000003 H 117.33333 V 64.000004 h 21.33333 z"
     style="fill:#00b800;fill-opacity:1;fill-rule:nonzero;stroke:none;stroke-width:1.33333325"
     id="path56" /><path
     inkscape:connector-curvature="0"
     d="m 133.33333,74.66667 h -10.66667 v -5.333333 h 10.66667 z"
     style="fill:#00ff00;fill-opacity:1;fill-rule:nonzero;stroke:none;stroke-width:1.33333325"
     id="path58" /><path
     inkscape:connector-curvature="0"
     d="M 181.33333,85.333336 H 160 V 64.000004 h 21.33333 z"
     style="fill:#007b00;fill-opacity:1;fill-rule:nonzero;stroke:none;stroke-width:1.33333325"
     id="path60" /><path
     inkscape:connector-curvature="0"
     d="M 181.33333,80.000003 H 160 V 64.000004 h 21.33333 z"
     style="fill:#00b800;fill-opacity:1;fill-rule:nonzero;stroke:none;stroke-width:1.33333325"
     id="path62" /><path
     inkscape:connector-curvature="0"
     d="M 176,74.66667 H 165.33333 V 69.333337 H 176 Z"
     style="fill:#00ff00;fill-opacity:1;fill-rule:nonzero;stroke:none;stroke-width:1.33333325"
     id="path64" /><path
     inkscape:connector-curvature="0"
     d="M 223.99999,85.333336 H 202.66666 V 64.000004 h 21.33333 z"
     style="fill:#007b00;fill-opacity:1;fill-rule:nonzero;stroke:none;stroke-width:1.33333325"
     id="path66" /><path
     inkscape:connector-curvature="0"
     d="M 223.99999,80.000003 H 202.66666 V 64.000004 h 21.33333 z"
     style="fill:#00b800;fill-opacity:1;fill-rule:nonzero;stroke:none;stroke-width:1.33333325"
     id="path68" /><path
     inkscape:connector-curvature="0"
     d="m 218.66666,74.66667 h -10.66667 v -5.333333 h 10.66667 z"
     style="fill:#00ff00;fill-opacity:1;fill-rule:nonzero;stroke:none;stroke-width:1.33333325"
     id="path70" /><path
     inkscape:connector-curvature="0"
     d="M 266.66666,85.333336 H 245.33333 V 64.000004 h 21.33333 z"
     style="fill:#007b00;fill-opacity:1;fill-rule:nonzero;stroke:none;stroke-width:1.33333325"
     id="path72" /><path
     inkscape:connector-curvature="0"
     d="M 266.66666,80.000003 H 245.33333 V 64.000004 h 21.33333 z"
     style="fill:#00b800;fill-opacity:1;fill-rule:nonzero;stroke:none;stroke-width:1.33333325"
     id="path74" /><path
     inkscape:connector-curvature="0"
     d="m 261.33333,74.66667 h -10.66667 v -5.333333 h 10.66667 z"
     style="fill:#00ff00;fill-opacity:1;fill-rule:nonzero;stroke:none;stroke-width:1.33333325"
     id="path76" /><path
     inkscape:connector-curvature="0"
     d="M 95.999998,128 H 74.666665 v -21.33333 h 21.333333 z"
     style="fill:#007b00;fill-opacity:1;fill-rule:nonzero;stroke:none;stroke-width:1.33333325"
     id="path78" /><path
     inkscape:connector-curvature="0"
     d="M 95.999998,122.66667 H 74.666665 v -16 h 21.333333 z"
     style="fill:#00b800;fill-opacity:1;fill-rule:nonzero;stroke:none;stroke-width:1.33333325"
     id="path80" /><path
     inkscape:connector-curvature="0"
     d="M 90.666664,117.33334 H 79.999998 V 112 h 10.666666 z"
     style="fill:#00ff00;fill-opacity:1;fill-rule:nonzero;stroke:none;stroke-width:1.33333325"
     id="path82" /><path
     inkscape:connector-curvature="0"
     d="m 138.66666,128 h -21.33333 v -21.33333 h 21.33333 z"
     style="fill:#007b00;fill-opacity:1;fill-rule:nonzero;stroke:none;stroke-width:1.33333325"
     id="path84" /><path
     inkscape:connector-curvature="0"
     d="m 138.66666,122.66667 h -21.33333 v -16 h 21.33333 z"
     style="fill:#00b800;fill-opacity:1;fill-rule:nonzero;stroke:none;stroke-width:1.33333325"
     id="path86" /><path
     inkscape:connector-curvature="0"
     d="M 133.33333,117.33334 H 122.66666 V 112 h 10.66667 z"
     style="fill:#00ff00;fill-opacity:1;fill-rule:nonzero;stroke:none;stroke-width:1.33333325"
     id="path88" /><path
     inkscape:connector-curvature="0"
     d="M 181.33333,128 H 160 v -21.33333 h 21.33333 z"
     style="fill:#007b00;fill-opacity:1;fill-rule:nonzero;stroke:none;stroke-width:1.33333325"
     id="path90" /><path
     inkscape:connector-curvature="0"
     d="M 181.33333,122.66667 H 160 v -16 h 21.33333 z"
     style="fill:#00b800;fill-opacity:1;fill-rule:nonzero;stroke:none;stroke-width:1.33333325"
     id="path92" /><path
     inkscape:connector-curvature="0"
     d="M 176,117.33334 H 165.33333 V 112 H 176 Z"
     style="fill:#00ff00;fill-opacity:1;fill-rule:nonzero;stroke:none;stroke-width:1.33333325"
     id="path94" /><path
     inkscape:connector-curvature="0"
     d="m 223.99999,128 h -21.33333 v -21.33333 h 21.33333 z"
     style="fill:#007b00;fill-opacity:1;fill-rule:nonzero;stroke:none;stroke-width:1.33333325"
     id="path96" /><path
     inkscape:connector-curvature="0"
     d="m 223.99999,122.66667 h -21.33333 v -16 h 21.33333 z"
     style="fill:#00b800;fill-opacity:1;fill-rule:nonzero;stroke:none;stroke-width:1.33333325"
     id="path98" /><path
     inkscape:connector-curvature="0"
     d="M 218.66666,117.33334 H 207.99999 V 112 h 10.66667 z"
     style="fill:#00ff00;fill-opacity:1;fill-rule:nonzero;stroke:none;stroke-width:1.33333325"
     id="path100" /><path
     inkscape:connector-curvature="0"
     d="m 266.66666,128 h -21.33333 v -21.33333 h 21.33333 z"
     style="fill:#007b00;fill-opacity:1;fill-rule:nonzero;stroke:none;stroke-width:1.33333325"
     id="path102" /><path
     inkscape:connector-curvature="0"
     d="m 266.66666,122.66667 h -21.33333 v -16 h 21.33333 z"
     style="fill:#00b800;fill-opacity:1;fill-rule:nonzero;stroke:none;stroke-width:1.33333325"
     id="path104" /><path
     inkscape:connector-curvature="0"
     d="M 261.33333,117.33334 H 250.66666 V 112 h 10.66667 z"
     style="fill:#00ff00;fill-opacity:1;fill-rule:nonzero;stroke:none;stroke-width:1.33333325"
     id="path106" /><path
     inkscape:connector-curvature="0"
     d="M 95.999998,170.66667 H 74.666665 v -21.33334 h 21.333333 z"
     style="fill:#007b00;fill-opacity:1;fill-rule:nonzero;stroke:none;stroke-width:1.33333325"
     id="path108" /><path
     inkscape:connector-curvature="0"
     d="M 95.999998,165.33333 H 74.666665 v -16 h 21.333333 z"
     style="fill:#00b800;fill-opacity:1;fill-rule:nonzero;stroke:none;stroke-width:1.33333325"
     id="path110" /><path
     inkscape:connector-curvature="0"
     d="M 90.666664,160 H 79.999998 v -5.33333 h 10.666666 z"
     style="fill:#00ff00;fill-opacity:1;fill-rule:nonzero;stroke:none;stroke-width:1.33333325"
     id="path112" /><path
     inkscape:connector-curvature="0"
     d="m 138.66666,170.66667 h -21.33333 v -21.33334 h 21.33333 z"
     style="fill:#007b00;fill-opacity:1;fill-rule:nonzero;stroke:none;stroke-width:1.33333325"
     id="path114" /><path
     inkscape:connector-curvature="0"
     d="m 138.66666,165.33333 h -21.33333 v -16 h 21.33333 z"
     style="fill:#00b800;fill-opacity:1;fill-rule:nonzero;stroke:none;stroke-width:1.33333325"
     id="path116" /><path
     inkscape:connector-curvature="0"
     d="m 133.33333,160 h -10.66667 v -5.33333 h 10.66667 z"
     style="fill:#00ff00;fill-opacity:1;fill-rule:nonzero;stroke:none;stroke-width:1.33333325"
     id="path118" /><path
     inkscape:connector-curvature="0"
     d="M 181.33333,170.66667 H 160 v -21.33334 h 21.33333 z"
     style="fill:#007b00;fill-opacity:1;fill-rule:nonzero;stroke:none;stroke-width:1.33333325"
     id="path120" /><path
     inkscape:connector-curvature="0"
     d="M 181.33333,165.33333 H 160 v -16 h 21.33333 z"
     style="fill:#00b800;fill-opacity:1;fill-rule:nonzero;stroke:none;stroke-width:1.33333325"
     id="path122" /><path
     inkscape:connector-curvature="0"
     d="m 176,160 h -10.66667 v -5.33333 H 176 Z"
     style="fill:#00ff00;fill-opacity:1;fill-rule:nonzero;stroke:none;stroke-width:1.33333325"
     id="path124" /><path
     inkscape:connector-curvature="0"
     d="m 223.99999,170.66667 h -21.33333 v -21.33334 h 21.33333 z"
     style="fill:#007b00;fill-opacity:1;fill-rule:nonzero;stroke:none;stroke-width:1.33333325"
     id="path126" /><path
     inkscape:connector-curvature="0"
     d="m 223.99999,165.33333 h -21.33333 v -16 h 21.33333 z"
     style="fill:#00b800;fill-opacity:1;fill-rule:nonzero;stroke:none;stroke-width:1.33333325"
     id="path128" /><path
     inkscape:connector-curvature="0"
     d="m 218.66666,160 h -10.66667 v -5.33333 h 10.66667 z"
     style="fill:#00ff00;fill-opacity:1;fill-rule:nonzero;stroke:none;stroke-width:1.33333325"
     id="path130" /><path
     inkscape:connector-curvature="0"
     d="m 266.66666,170.66667 h -21.33333 v -21.33334 h 21.33333 z"
     style="fill:#007b00;fill-opacity:1;fill-rule:nonzero;stroke:none;stroke-width:1.33333325"
     id="path132" /><path
     inkscape:connector-curvature="0"
     d="m 266.66666,165.33333 h -21.33333 v -16 h 21.33333 z"
     style="fill:#00b800;fill-opacity:1;fill-rule:nonzero;stroke:none;stroke-width:1.33333325"
     id="path134" /><path
     inkscape:connector-curvature="0"
     d="m 261.33333,160 h -10.66667 v -5.33333 h 10.66667 z"
     style="fill:#00ff00;fill-opacity:1;fill-rule:nonzero;stroke:none;stroke-width:1.33333325"
     id="path136" /><path
     inkscape:connector-curvature="0"
     d="M 95.999998,213.33333 H 74.666665 V 192 h 21.333333 z"
     style="fill:#007b00;fill-opacity:1;fill-rule:nonzero;stroke:none;stroke-width:1.33333325"
     id="path138" /><path
     inkscape:connector-curvature="0"
     d="M 95.999998,208 H 74.666665 v -16 h 21.333333 z"
     style="fill:#00b800;fill-opacity:1;fill-rule:nonzero;stroke:none;stroke-width:1.33333325"
     id="path140" /><path
     inkscape:connector-curvature="0"
     d="M 90.666664,202.66667 H 79.999998 v -5.33334 h 10.666666 z"
     style="fill:#00ff00;fill-opacity:1;fill-rule:nonzero;stroke:none;stroke-width:1.33333325"
     id="path142" /><path
     inkscape:connector-curvature="0"
     d="M 138.66666,213.33333 H 117.33333 V 192 h 21.33333 z"
     style="fill:#007b00;fill-opacity:1;fill-rule:nonzero;stroke:none;stroke-width:1.33333325"
     id="path144" /><path
     inkscape:connector-curvature="0"
     d="m 138.66666,208 h -21.33333 v -16 h 21.33333 z"
     style="fill:#00b800;fill-opacity:1;fill-rule:nonzero;stroke:none;stroke-width:1.33333325"
     id="path146" /><path
     inkscape:connector-curvature="0"
     d="m 133.33333,202.66667 h -10.66667 v -5.33334 h 10.66667 z"
     style="fill:#00ff00;fill-opacity:1;fill-rule:nonzero;stroke:none;stroke-width:1.33333325"
     id="path148" /><path
     inkscape:connector-curvature="0"
     d="M 181.33333,213.33333 H 160 V 192 h 21.33333 z"
     style="fill:#007b00;fill-opacity:1;fill-rule:nonzero;stroke:none;stroke-width:1.33333325"
     id="path150" /><path
     inkscape:connector-curvature="0"
     d="M 181.33333,208 H 160 v -16 h 21.33333 z"
     style="fill:#00b800;fill-opacity:1;fill-rule:nonzero;stroke:none;stroke-width:1.33333325"
     id="path152" /><path
     inkscape:connector-curvature="0"
     d="m 176,202.66667 h -10.66667 v -5.33334 H 176 Z"
     style="fill:#00ff00;fill-opacity:1;fill-rule:nonzero;stroke:none;stroke-width:1.33333325"
     id="path154" /><path
     inkscape:connector-curvature="0"
     d="M 223.99999,213.33333 H 202.66666 V 192 h 21.33333 z"
     style="fill:#007b00;fill-opacity:1;fill-rule:nonzero;stroke:none;stroke-width:1.33333325"
     id="path156" /><path
     inkscape:connector-curvature="0"
     d="m 223.99999,208 h -21.33333 v -16 h 21.33333 z"
     style="fill:#00b800;fill-opacity:1;fill-rule:nonzero;stroke:none;stroke-width:1.33333325"
     id="path158" /><path
     inkscape:connector-curvature="0"
     d="m 218.66666,202.66667 h -10.66667 v -5.33334 h 10.66667 z"
     style="fill:#00ff00;fill-opacity:1;fill-rule:nonzero;stroke:none;stroke-width:1.33333325"
     id="path160" /><path
     inkscape:connector-curvature="0"
     d="M 266.66666,213.33333 H 245.33333 V 192 h 21.33333 z"
     style="fill:#007b00;fill-opacity:1;fill-rule:nonzero;stroke:none;stroke-width:1.33333325"
     id="path162" /><path
     inkscape:connector-curvature="0"
     d="m 266.66666,208 h -21.33333 v -16 h 21.33333 z"
     style="fill:#00b800;fill-opacity:1;fill-rule:nonzero;stroke:none;stroke-width:1.33333325"
     id="path164" /><path
     inkscape:connector-curvature="0"
     d="m 261.33333,202.66667 h -10.66667 v -5.33334 h 10.66667 z"
     style="fill:#00ff00;fill-opacity:1;fill-rule:nonzero;stroke:none;stroke-width:1.33333325"
     id="path166" /><path
     id="path170"
     style="fill:#eac500;fill-opacity:1;fill-rule:nonzero;stroke:none;stroke-width:1.33333325"
     d="M 63.999998,85.333336 53.333332,74.66667 63.999998,64.000003 74.666664,74.66667 Z"
     inkscape:connector-curvature="0" /><path
     id="path174"
     style="fill:#eac500;fill-opacity:1;fill-rule:nonzero;stroke:none;stroke-width:1.33333325"
     d="M 106.66666,85.333336 95.999994,74.66667 106.66666,64.000003 117.33333,74.66667 Z"
     inkscape:connector-curvature="0" /><path
     id="path178"
     style="fill:#eac500;fill-opacity:1;fill-rule:nonzero;stroke:none;stroke-width:1.33333325"
     d="M 149.33333,85.333336 138.66666,74.66667 149.33333,64.000003 160,74.66667 Z"
     inkscape:connector-curvature="0" /><path
     id="path182"
     style="fill:#eac500;fill-opacity:1;fill-rule:nonzero;stroke:none;stroke-width:1.33333325"
     d="M 192,85.333336 181.33333,74.66667 192,64.000003 202.66667,74.66667 Z"
     inkscape:connector-curvature="0" /><path
     id="path186"
     style="fill:#eac500;fill-opacity:1;fill-rule:nonzero;stroke:none;stroke-width:1.33333325"
     d="M 234.66666,85.333336 223.99999,74.66667 234.66666,64.000003 245.33333,74.66667 Z"
     inkscape:connector-curvature="0" /><path
     id="path190"
     style="fill:#eac500;fill-opacity:1;fill-rule:nonzero;stroke:none;stroke-width:1.33333325"
     d="M 277.33333,85.333336 266.66666,74.66667 277.33333,64.000003 288,74.66667 Z"
     inkscape:connector-curvature="0" /><path
     id="path194"
     style="fill:#eac500;fill-opacity:1;fill-rule:nonzero;stroke:none;stroke-width:1.33333325"
     d="M 63.999998,64.000004 53.333332,53.333338 h 21.333332 z"
     inkscape:connector-curvature="0" /><path
     id="path198"
     style="fill:#eac500;fill-opacity:1;fill-rule:nonzero;stroke:none;stroke-width:1.33333325"
     d="M 63.999998,106.66667 53.333332,96.000004 63.999998,85.333337 74.666664,96.000004 Z"
     inkscape:connector-curvature="0" /><path
     id="path202"
     style="fill:#eac500;fill-opacity:1;fill-rule:nonzero;stroke:none;stroke-width:1.33333325"
     d="M 63.999998,128 53.333332,117.33333 63.999998,106.66667 74.666664,117.33333 Z"
     inkscape:connector-curvature="0" /><path
     id="path206"
     style="fill:#eac500;fill-opacity:1;fill-rule:nonzero;stroke:none;stroke-width:1.33333325"
     d="m 106.66666,128 -10.666666,-10.66667 10.666666,-10.66666 10.66667,10.66666 z"
     inkscape:connector-curvature="0" /><path
     id="path210"
     style="fill:#eac500;fill-opacity:1;fill-rule:nonzero;stroke:none;stroke-width:1.33333325"
     d="M 149.33333,128 138.66666,117.33333 149.33333,106.66667 160,117.33333 Z"
     inkscape:connector-curvature="0" /><path
     id="path214"
     style="fill:#eac500;fill-opacity:1;fill-rule:nonzero;stroke:none;stroke-width:1.33333325"
     d="M 192,128 181.33333,117.33333 192,106.66667 l 10.66667,10.66666 z"
     inkscape:connector-curvature="0" /><path
     id="path218"
     style="fill:#eac500;fill-opacity:1;fill-rule:nonzero;stroke:none;stroke-width:1.33333325"
     d="m 234.66666,128 -10.66667,-10.66667 10.66667,-10.66666 10.66667,10.66666 z"
     inkscape:connector-curvature="0" /><path
     id="path222"
     style="fill:#eac500;fill-opacity:1;fill-rule:nonzero;stroke:none;stroke-width:1.33333325"
     d="M 277.33333,128 266.66666,117.33333 277.33333,106.66667 288,117.33333 Z"
     inkscape:connector-curvature="0" /><path
     id="path226"
     style="fill:#eac500;fill-opacity:1;fill-rule:nonzero;stroke:none;stroke-width:1.33333325"
     d="M 63.999998,149.33333 53.333332,138.66666 63.999998,128 74.666664,138.66666 Z"
     inkscape:connector-curvature="0" /><path
     id="path230"
     style="fill:#eac500;fill-opacity:1;fill-rule:nonzero;stroke:none;stroke-width:1.33333325"
     d="M 63.999998,170.66667 53.333332,160 63.999998,149.33334 74.666664,160 Z"
     inkscape:connector-curvature="0" /><path
     id="path234"
     style="fill:#eac500;fill-opacity:1;fill-rule:nonzero;stroke:none;stroke-width:1.33333325"
     d="M 106.66666,170.66667 95.999994,160 106.66666,149.33334 117.33333,160 Z"
     inkscape:connector-curvature="0" /><path
     id="path238"
     style="fill:#eac500;fill-opacity:1;fill-rule:nonzero;stroke:none;stroke-width:1.33333325"
     d="M 149.33333,170.66667 138.66666,160 149.33333,149.33334 160,160 Z"
     inkscape:connector-curvature="0" /><path
     id="path242"
     style="fill:#eac500;fill-opacity:1;fill-rule:nonzero;stroke:none;stroke-width:1.33333325"
     d="M 192,170.66667 181.33333,160 192,149.33334 202.66667,160 Z"
     inkscape:connector-curvature="0" /><path
     id="path246"
     style="fill:#eac500;fill-opacity:1;fill-rule:nonzero;stroke:none;stroke-width:1.33333325"
     d="M 234.66666,170.66667 223.99999,160 234.66666,149.33334 245.33333,160 Z"
     inkscape:connector-curvature="0" /><path
     id="path250"
     style="fill:#eac500;fill-opacity:1;fill-rule:nonzero;stroke:none;stroke-width:1.33333325"
     d="M 277.33333,170.66667 266.66666,160 277.33333,149.33334 288,160 Z"
     inkscape:connector-curvature="0" /><path
     id="path254"
     style="fill:#eac500;fill-opacity:1;fill-rule:nonzero;stroke:none;stroke-width:1.33333325"
     d="M 63.999998,192 53.333332,181.33333 63.999998,170.66667 74.666664,181.33333 Z"
     inkscape:connector-curvature="0" /><path
     id="path258"
     style="fill:#eac500;fill-opacity:1;fill-rule:nonzero;stroke:none;stroke-width:1.33333325"
     d="M 63.999998,213.33333 53.333332,202.66666 63.999998,192 74.666664,202.66666 Z"
     inkscape:connector-curvature="0" /><path
     id="path262"
     style="fill:#eac500;fill-opacity:1;fill-rule:nonzero;stroke:none;stroke-width:1.33333325"
     d="M 106.66666,213.33333 95.999994,202.66666 106.66666,192 l 10.66667,10.66666 z"
     inkscape:connector-curvature="0" /><path
     id="path266"
     style="fill:#eac500;fill-opacity:1;fill-rule:nonzero;stroke:none;stroke-width:1.33333325"
     d="M 149.33333,213.33333 138.66666,202.66666 149.33333,192 160,202.66666 Z"
     inkscape:connector-curvature="0" /><path
     id="path270"
     style="fill:#eac500;fill-opacity:1;fill-rule:nonzero;stroke:none;stroke-width:1.33333325"
     d="M 192,213.33333 181.33333,202.66666 192,192 l 10.66667,10.66666 z"
     inkscape:connector-curvature="0" /><path
     id="path274"
     style="fill:#eac500;fill-opacity:1;fill-rule:nonzero;stroke:none;stroke-width:1.33333325"
     d="M 234.66666,213.33333 223.99999,202.66666 234.66666,192 l 10.66667,10.66666 z"
     inkscape:connector-curvature="0" /><path
     id="path278"
     style="fill:#eac500;fill-opacity:1;fill-rule:nonzero;stroke:none;stroke-width:1.33333325"
     d="M 277.33333,213.33333 266.66666,202.66666 277.33333,192 288,202.66666 Z"
     inkscape:connector-curvature="0" /><path
     id="path282"
     style="fill:#eac500;fill-opacity:1;fill-rule:nonzero;stroke:none;stroke-width:1.33333325"
     d="M 53.333332,224 63.999998,213.33333 74.666665,224 Z"
     inkscape:connector-curvature="0" /><path
     id="path286"
     style="fill:#eac500;fill-opacity:1;fill-rule:nonzero;stroke:none;stroke-width:1.33333325"
     d="M 85.333331,64.000004 74.666665,53.333338 h 21.333332 z"
     inkscape:connector-curvature="0" /><path
     id="path290"
     style="fill:#eac500;fill-opacity:1;fill-rule:nonzero;stroke:none;stroke-width:1.33333325"
     d="M 85.333331,106.66667 74.666665,96.000004 85.333331,85.333337 95.999997,96.000004 Z"
     inkscape:connector-curvature="0" /><path
     id="path294"
     style="fill:#eac500;fill-opacity:1;fill-rule:nonzero;stroke:none;stroke-width:1.33333325"
     d="M 85.333331,149.33333 74.666665,138.66666 85.333331,128 95.999997,138.66666 Z"
     inkscape:connector-curvature="0" /><path
     id="path298"
     style="fill:#eac500;fill-opacity:1;fill-rule:nonzero;stroke:none;stroke-width:1.33333325"
     d="M 85.333331,192 74.666665,181.33333 85.333331,170.66667 95.999997,181.33333 Z"
     inkscape:connector-curvature="0" /><path
     id="path302"
     style="fill:#eac500;fill-opacity:1;fill-rule:nonzero;stroke:none;stroke-width:1.33333325"
     d="M 74.666665,224 85.333331,213.33333 95.999998,224 Z"
     inkscape:connector-curvature="0" /><path
     id="path306"
     style="fill:#eac500;fill-opacity:1;fill-rule:nonzero;stroke:none;stroke-width:1.33333325"
     d="M 106.66666,64.000004 95.999994,53.333338 h 21.333336 z"
     inkscape:connector-curvature="0" /><path
     id="path310"
     style="fill:#eac500;fill-opacity:1;fill-rule:nonzero;stroke:none;stroke-width:1.33333325"
     d="M 106.66666,106.66667 95.999994,96.000004 106.66666,85.333337 117.33333,96.000004 Z"
     inkscape:connector-curvature="0" /><path
     id="path314"
     style="fill:#eac500;fill-opacity:1;fill-rule:nonzero;stroke:none;stroke-width:1.33333325"
     d="M 106.66666,149.33333 95.999994,138.66666 106.66666,128 l 10.66667,10.66666 z"
     inkscape:connector-curvature="0" /><path
     id="path318"
     style="fill:#eac500;fill-opacity:1;fill-rule:nonzero;stroke:none;stroke-width:1.33333325"
     d="m 106.66666,192 -10.666666,-10.66667 10.666666,-10.66666 10.66667,10.66666 z"
     inkscape:connector-curvature="0" /><path
     id="path322"
     style="fill:#eac500;fill-opacity:1;fill-rule:nonzero;stroke:none;stroke-width:1.33333325"
     d="M 95.999998,224 106.66666,213.33333 117.33333,224 Z"
     inkscape:connector-curvature="0" /><path
     id="path326"
     style="fill:#eac500;fill-opacity:1;fill-rule:nonzero;stroke:none;stroke-width:1.33333325"
     d="M 128,64.000004 117.33333,53.333338 h 21.33334 z"
     inkscape:connector-curvature="0" /><path
     id="path330"
     style="fill:#eac500;fill-opacity:1;fill-rule:nonzero;stroke:none;stroke-width:1.33333325"
     d="M 128,106.66667 117.33333,96.000004 128,85.333337 138.66667,96.000004 Z"
     inkscape:connector-curvature="0" /><path
     id="path334"
     style="fill:#eac500;fill-opacity:1;fill-rule:nonzero;stroke:none;stroke-width:1.33333325"
     d="M 128,149.33333 117.33333,138.66666 128,128 l 10.66667,10.66666 z"
     inkscape:connector-curvature="0" /><path
     id="path338"
     style="fill:#eac500;fill-opacity:1;fill-rule:nonzero;stroke:none;stroke-width:1.33333325"
     d="M 128,192 117.33333,181.33333 128,170.66667 l 10.66667,10.66666 z"
     inkscape:connector-curvature="0" /><path
     id="path342"
     style="fill:#eac500;fill-opacity:1;fill-rule:nonzero;stroke:none;stroke-width:1.33333325"
     d="M 117.33333,224 128,213.33333 138.66666,224 Z"
     inkscape:connector-curvature="0" /><path
     id="path346"
     style="fill:#eac500;fill-opacity:1;fill-rule:nonzero;stroke:none;stroke-width:1.33333325"
     d="M 149.33333,64.000004 138.66666,53.333338 H 160 Z"
     inkscape:connector-curvature="0" /><path
     id="path350"
     style="fill:#eac500;fill-opacity:1;fill-rule:nonzero;stroke:none;stroke-width:1.33333325"
     d="M 149.33333,106.66667 138.66666,96.000004 149.33333,85.333337 160,96.000004 Z"
     inkscape:connector-curvature="0" /><path
     id="path354"
     style="fill:#eac500;fill-opacity:1;fill-rule:nonzero;stroke:none;stroke-width:1.33333325"
     d="M 149.33333,149.33333 138.66666,138.66666 149.33333,128 160,138.66666 Z"
     inkscape:connector-curvature="0" /><path
     id="path358"
     style="fill:#eac500;fill-opacity:1;fill-rule:nonzero;stroke:none;stroke-width:1.33333325"
     d="M 149.33333,192 138.66666,181.33333 149.33333,170.66667 160,181.33333 Z"
     inkscape:connector-curvature="0" /><path
     id="path362"
     style="fill:#eac500;fill-opacity:1;fill-rule:nonzero;stroke:none;stroke-width:1.33333325"
     d="M 138.66666,224 149.33333,213.33333 159.99999,224 Z"
     inkscape:connector-curvature="0" /><path
     id="path366"
     style="fill:#eac500;fill-opacity:1;fill-rule:nonzero;stroke:none;stroke-width:1.33333325"
     d="M 170.66666,64.000004 159.99999,53.333338 h 21.33334 z"
     inkscape:connector-curvature="0" /><path
     id="path370"
     style="fill:#eac500;fill-opacity:1;fill-rule:nonzero;stroke:none;stroke-width:1.33333325"
     d="M 170.66666,106.66667 159.99999,96.000004 170.66666,85.333337 181.33333,96.000004 Z"
     inkscape:connector-curvature="0" /><path
     id="path374"
     style="fill:#eac500;fill-opacity:1;fill-rule:nonzero;stroke:none;stroke-width:1.33333325"
     d="M 170.66666,149.33333 159.99999,138.66666 170.66666,128 l 10.66667,10.66666 z"
     inkscape:connector-curvature="0" /><path
     id="path378"
     style="fill:#eac500;fill-opacity:1;fill-rule:nonzero;stroke:none;stroke-width:1.33333325"
     d="m 170.66666,192 -10.66667,-10.66667 10.66667,-10.66666 10.66667,10.66666 z"
     inkscape:connector-curvature="0" /><path
     id="path382"
     style="fill:#eac500;fill-opacity:1;fill-rule:nonzero;stroke:none;stroke-width:1.33333325"
     d="M 160,224 170.66667,213.33333 181.33333,224 Z"
     inkscape:connector-curvature="0" /><path
     id="path386"
     style="fill:#eac500;fill-opacity:1;fill-rule:nonzero;stroke:none;stroke-width:1.33333325"
     d="M 192,64.000004 181.33333,53.333338 h 21.33334 z"
     inkscape:connector-curvature="0" /><path
     id="path390"
     style="fill:#eac500;fill-opacity:1;fill-rule:nonzero;stroke:none;stroke-width:1.33333325"
     d="M 192,106.66667 181.33333,96.000004 192,85.333337 202.66667,96.000004 Z"
     inkscape:connector-curvature="0" /><path
     id="path394"
     style="fill:#eac500;fill-opacity:1;fill-rule:nonzero;stroke:none;stroke-width:1.33333325"
     d="M 192,149.33333 181.33333,138.66666 192,128 l 10.66667,10.66666 z"
     inkscape:connector-curvature="0" /><path
     id="path398"
     style="fill:#eac500;fill-opacity:1;fill-rule:nonzero;stroke:none;stroke-width:1.33333325"
     d="M 192,192 181.33333,181.33333 192,170.66667 l 10.66667,10.66666 z"
     inkscape:connector-curvature="0" /><path
     id="path402"
     style="fill:#eac500;fill-opacity:1;fill-rule:nonzero;stroke:none;stroke-width:1.33333325"
     d="M 181.33333,224 192,213.33333 202.66666,224 Z"
     inkscape:connector-curvature="0" /><path
     id="path406"
     style="fill:#eac500;fill-opacity:1;fill-rule:nonzero;stroke:none;stroke-width:1.33333325"
     d="M 213.33333,64.000004 202.66666,53.333338 H 224 Z"
     inkscape:connector-curvature="0" /><path
     id="path410"
     style="fill:#eac500;fill-opacity:1;fill-rule:nonzero;stroke:none;stroke-width:1.33333325"
     d="M 213.33333,106.66667 202.66666,96.000004 213.33333,85.333337 224,96.000004 Z"
     inkscape:connector-curvature="0" /><path
     id="path414"
     style="fill:#eac500;fill-opacity:1;fill-rule:nonzero;stroke:none;stroke-width:1.33333325"
     d="M 213.33333,149.33333 202.66666,138.66666 213.33333,128 224,138.66666 Z"
     inkscape:connector-curvature="0" /><path
     id="path418"
     style="fill:#eac500;fill-opacity:1;fill-rule:nonzero;stroke:none;stroke-width:1.33333325"
     d="M 213.33333,192 202.66666,181.33333 213.33333,170.66667 224,181.33333 Z"
     inkscape:connector-curvature="0" /><path
     id="path422"
     style="fill:#eac500;fill-opacity:1;fill-rule:nonzero;stroke:none;stroke-width:1.33333325"
     d="M 202.66666,224 213.33333,213.33333 223.99999,224 Z"
     inkscape:connector-curvature="0" /><path
     id="path426"
     style="fill:#eac500;fill-opacity:1;fill-rule:nonzero;stroke:none;stroke-width:1.33333325"
     d="M 234.66666,64.000004 223.99999,53.333338 h 21.33334 z"
     inkscape:connector-curvature="0" /><path
     id="path430"
     style="fill:#eac500;fill-opacity:1;fill-rule:nonzero;stroke:none;stroke-width:1.33333325"
     d="M 234.66666,106.66667 223.99999,96.000004 234.66666,85.333337 245.33333,96.000004 Z"
     inkscape:connector-curvature="0" /><path
     id="path434"
     style="fill:#eac500;fill-opacity:1;fill-rule:nonzero;stroke:none;stroke-width:1.33333325"
     d="M 234.66666,149.33333 223.99999,138.66666 234.66666,128 l 10.66667,10.66666 z"
     inkscape:connector-curvature="0" /><path
     id="path438"
     style="fill:#eac500;fill-opacity:1;fill-rule:nonzero;stroke:none;stroke-width:1.33333325"
     d="m 234.66666,192 -10.66667,-10.66667 10.66667,-10.66666 10.66667,10.66666 z"
     inkscape:connector-curvature="0" /><path
     id="path442"
     style="fill:#eac500;fill-opacity:1;fill-rule:nonzero;stroke:none;stroke-width:1.33333325"
     d="M 223.99999,224 234.66666,213.33333 245.33332,224 Z"
     inkscape:connector-curvature="0" /><path
     id="path446"
     style="fill:#eac500;fill-opacity:1;fill-rule:nonzero;stroke:none;stroke-width:1.33333325"
     d="M 255.99999,64.000004 245.33332,53.333338 h 21.33334 z"
     inkscape:connector-curvature="0" /><path
     id="path450"
     style="fill:#eac500;fill-opacity:1;fill-rule:nonzero;stroke:none;stroke-width:1.33333325"
     d="M 255.99999,106.66667 245.33332,96.000004 255.99999,85.333337 266.66666,96.000004 Z"
     inkscape:connector-curvature="0" /><path
     id="path454"
     style="fill:#eac500;fill-opacity:1;fill-rule:nonzero;stroke:none;stroke-width:1.33333325"
     d="M 255.99999,149.33333 245.33332,138.66666 255.99999,128 l 10.66667,10.66666 z"
     inkscape:connector-curvature="0" /><path
     id="path458"
     style="fill:#eac500;fill-opacity:1;fill-rule:nonzero;stroke:none;stroke-width:1.33333325"
     d="m 255.99999,192 -10.66667,-10.66667 10.66667,-10.66666 10.66667,10.66666 z"
     inkscape:connector-curvature="0" /><path
     id="path462"
     style="fill:#eac500;fill-opacity:1;fill-rule:nonzero;stroke:none;stroke-width:1.33333325"
     d="M 245.33333,224 256,213.33333 266.66666,224 Z"
     inkscape:connector-curvature="0" /><path
     id="path466"
     style="fill:#eac500;fill-opacity:1;fill-rule:nonzero;stroke:none;stroke-width:1.33333325"
     d="M 277.33333,64.000004 266.66666,53.333338 H 288 Z"
     inkscape:connector-curvature="0" /><path
     id="path470"
     style="fill:#eac500;fill-opacity:1;fill-rule:nonzero;stroke:none;stroke-width:1.33333325"
     d="M 277.33333,106.66667 266.66666,96.000004 277.33333,85.333337 288,96.000004 Z"
     inkscape:connector-curvature="0" /><path
     id="path474"
     style="fill:#eac500;fill-opacity:1;fill-rule:nonzero;stroke:none;stroke-width:1.33333325"
     d="M 277.33333,149.33333 266.66666,138.66666 277.33333,128 288,138.66666 Z"
     inkscape:connector-curvature="0" /><path
     id="path478"
     style="fill:#eac500;fill-opacity:1;fill-rule:nonzero;stroke:none;stroke-width:1.33333325"
     d="M 277.33333,192 266.66666,181.33333 277.33333,170.66667 288,181.33333 Z"
     inkscape:connector-curvature="0" /><path
     id="path482"
     style="fill:#eac500;fill-opacity:1;fill-rule:nonzero;stroke:none;stroke-width:1.33333325"
     d="M 266.66666,224 277.33333,213.33333 287.99999,224 Z"
     inkscape:connector-curvature="0" /><path
     id="path486"
     style="fill:#404040;fill-opacity:1;fill-rule:nonzero;stroke:none;stroke-width:1.33333325"
     d="M 245.33333,266.66667 H 90.666667 c -2.945333,0 -5.333333,-2.388 -5.333333,-5.33333 0,-2.94534 2.388,-5.33334 5.333333,-5.33334 H 245.33333 c 2.94533,0 5.33333,2.388 5.33333,5.33334 0,2.94533 -2.388,5.33333 -5.33333,5.33333"
     inkscape:connector-curvature="0" /><path
     id="path490"
     style="fill:#ffffff;fill-opacity:1;fill-rule:nonzero;stroke:none;stroke-width:1.33333325"
     d="M 197.33333,186.66667 H 192 V 160 h -42.66667 v 37.33334 H 192 V 192 h 5.33333 z"
     inkscape:connector-curvature="0" /><path
     id="path494"
     style="fill:#3096cf;fill-opacity:1;fill-rule:nonzero;stroke:none;stroke-width:1.33333325"
     d="m 149.33333,160 v 21.33333 h 5.33333 v 5.33334 h 32 v -5.33334 H 192 V 160 Z"
     inkscape:connector-curvature="0" /><path
     id="path498"
     style="fill:#ffffff;fill-opacity:1;fill-rule:nonzero;stroke:none;stroke-width:1.33333325"
     d="m 186.66666,112 v -5.33333 h -32 V 112 h -5.33333 v 10.66667 h -5.33334 v 26.66666 h 5.33334 v 5.33334 h 10.66666 v -5.33334 h -5.33333 v -26.66666 h 5.33333 v -5.33334 h 26.66667 10.66667 V 112 Z"
     inkscape:connector-curvature="0" /><path
     inkscape:connector-curvature="0"
     d="m 202.66666,149.33333 h -48 v -26.66666 h 48 z"
     style="fill:#ffcc99;fill-opacity:1;fill-rule:nonzero;stroke:none;stroke-width:1.33333325"
     id="path500" /><path
     inkscape:connector-curvature="0"
     d="m 133.33333,122.66667 h 5.33333 V 112 h -5.33333 z"
     style="fill:#191919;fill-opacity:1;fill-rule:nonzero;stroke:none;stroke-width:1.33333325"
     id="path502" /><path
     inkscape:connector-curvature="0"
     d="m 186.66666,101.33334 h -32 v 5.33333 h 32 z"
     style="fill:#191919;fill-opacity:1;fill-rule:nonzero;stroke:none;stroke-width:1.33333325"
     id="path504" /><path
     inkscape:connector-curvature="0"
     d="M 197.33333,106.66667 H 186.66666 V 112 h 10.66667 z"
     style="fill:#191919;fill-opacity:1;fill-rule:nonzero;stroke:none;stroke-width:1.33333325"
     id="path506" /><path
     inkscape:connector-curvature="0"
     d="m 202.66666,112 h -5.33333 v 5.33334 h 5.33333 z"
     style="fill:#191919;fill-opacity:1;fill-rule:nonzero;stroke:none;stroke-width:1.33333325"
     id="path508" /><path
     inkscape:connector-curvature="0"
     d="m 160,122.66667 h 37.33333 v -5.33333 H 160 Z"
     style="fill:#191919;fill-opacity:1;fill-rule:nonzero;stroke:none;stroke-width:1.33333325"
     id="path510" /><path
     id="path514"
     style="fill:#191919;fill-opacity:1;fill-rule:nonzero;stroke:none;stroke-width:1.33333325"
     d="m 144,122.66667 h 5.33333 V 112 h 5.33334 v -5.33333 h -16 V 112 H 144 Z"
     inkscape:connector-curvature="0" /><path
     id="path518"
     style="fill:#191919;fill-opacity:1;fill-rule:nonzero;stroke:none;stroke-width:1.33333325"
     d="m 144,154.66667 h 5.33333 v -5.33333 H 144 v -26.66667 h -5.33333 v 26.66667 h -5.33334 v 5.33333 h 5.33334 z"
     inkscape:connector-curvature="0" /><path
     inkscape:connector-curvature="0"
     d="m 149.33333,144 h 5.33333 v -16 h -5.33333 z"
     style="fill:#191919;fill-opacity:1;fill-rule:nonzero;stroke:none;stroke-width:1.33333325"
     id="path520" /><path
     inkscape:connector-curvature="0"
     d="m 160,122.66667 h -5.33334 V 128 H 160 Z"
     style="fill:#191919;fill-opacity:1;fill-rule:nonzero;stroke:none;stroke-width:1.33333325"
     id="path522" /><path
     inkscape:connector-curvature="0"
     d="M 154.66666,149.33333 H 160 V 144 h -5.33334 z"
     style="fill:#191919;fill-opacity:1;fill-rule:nonzero;stroke:none;stroke-width:1.33333325"
     id="path524" /><path
     inkscape:connector-curvature="0"
     d="m 170.66666,128 h -5.33333 v 16 h 5.33333 z"
     style="fill:#191919;fill-opacity:1;fill-rule:nonzero;stroke:none;stroke-width:1.33333325"
     id="path526" /><path
     inkscape:connector-curvature="0"
     d="m 192,128 h -5.33334 v 16 H 192 Z"
     style="fill:#191919;fill-opacity:1;fill-rule:nonzero;stroke:none;stroke-width:1.33333325"
     id="path528" /><path
     id="path532"
     style="fill:#191919;fill-opacity:1;fill-rule:nonzero;stroke:none;stroke-width:1.33333325"
     d="M 133.33333,165.33333 V 154.66666 H 128 V 160 h -5.33334 v 16 H 128 v -10.66667 z"
     inkscape:connector-curvature="0" /><path
     inkscape:connector-curvature="0"
     d="m 133.33333,170.66667 h 5.33333 v -5.33334 h -5.33333 z"
     style="fill:#191919;fill-opacity:1;fill-rule:nonzero;stroke:none;stroke-width:1.33333325"
     id="path534" /><path
     id="path538"
     style="fill:#191919;fill-opacity:1;fill-rule:nonzero;stroke:none;stroke-width:1.33333325"
     d="m 207.99999,160 v -42.66667 h -5.33333 v 5.33334 h -5.33334 V 128 h 5.33334 v 16 h -5.33334 v 5.33333 h -37.33333 v 5.33334 h -5.33333 -5.33334 V 160 v 5.33333 h 5.33334 V 160 h 5.33333 21.33333 v 16 h 2.66667 2.66667 v 5.33333 h 5.33333 V 176 h 5.33333 2.66667 2.66667 v -10.66667 h 5.33333 v 16 h -10.66667 -5.33333 v 5.33334 h 5.33333 V 192 h -5.33333 v 5.33333 H 181.33332 V 192 h -5.33333 v -5.33333 h -10.66667 v 10.66666 h -16 V 176 h 16 v -5.33333 h -16 v -5.33334 h -5.33333 v 5.33334 h -5.33333 V 176 h -10.66667 v 5.33333 h 10.66667 v 5.33334 h 5.33333 v 10.66666 h -5.33333 v 5.33334 h -5.33333 V 208 h 5.33333 v 5.33333 h 5.33333 5.33333 v 5.33334 h 48 v -5.33334 h 10.66667 V 208 h 5.33333 v -5.33333 h -5.33333 v -5.33334 -10.66666 h 5.33333 V 184 181.33333 160 Z"
     inkscape:connector-curvature="0" /><path
     inkscape:connector-curvature="0"
     d="m 202.66666,160 h -5.33333 v -5.33333 h 5.33333 z"
     style="fill:#ffffff;fill-opacity:1;fill-rule:nonzero;stroke:none;stroke-width:1.33333325"
     id="path540" /><path
     inkscape:connector-curvature="0"
     d="m 149.33333,202.66667 h 16 V 208 h -16 z"
     style="fill:#ed4792;fill-opacity:1;fill-rule:nonzero;stroke:none;stroke-width:1.33333325"
     id="path542" /><path
     inkscape:connector-curvature="0"
     d="m 197.33333,122.66667 h 5.33333 v -5.33333 h -5.33333 z"
     style="fill:#ffffff;fill-opacity:1;fill-rule:nonzero;stroke:none;stroke-width:1.33333325"
     id="path544" /><path
     id="path548"
     style="fill:#ed4792;fill-opacity:1;fill-rule:nonzero;stroke:none;stroke-width:1.33333325"
     d="m 133.33333,170.66667 v -5.33333 H 128 V 176 h 5.33333 5.33333 v -5.33333 z"
     inkscape:connector-curvature="0" /><path
     id="path552"
     style="fill:#ffffff;fill-opacity:1;fill-rule:nonzero;stroke:none;stroke-width:1.33333325"
     d="M 202.66666,165.33333 V 176 h -10.66667 v 5.33333 h 10.66667 5.33333 V 176 165.33333 Z"
     inkscape:connector-curvature="0" /><path
     inkscape:connector-curvature="0"
     d="m 149.33333,165.33333 h -16 v -10.66666 h 16 z"
     style="fill:#ffffff;fill-opacity:1;fill-rule:nonzero;stroke:none;stroke-width:1.33333325"
     id="path554" /><path
     inkscape:connector-curvature="0"
     d="m 144,170.66667 h -5.33334 V 160 H 144 Z"
     style="fill:#ffffff;fill-opacity:1;fill-rule:nonzero;stroke:none;stroke-width:1.33333325"
     id="path556" /><path
     inkscape:connector-curvature="0"
     d="m 144,122.66667 h -5.33334 V 112 H 144 Z"
     style="fill:#ed4792;fill-opacity:1;fill-rule:nonzero;stroke:none;stroke-width:1.33333325"
     id="path558" /><path
     inkscape:connector-curvature="0"
     d="m 181.33333,176 h -16 v -5.33333 h 16 z"
     style="fill:#ffcc99;fill-opacity:1;fill-rule:nonzero;stroke:none;stroke-width:1.33333325"
     id="path560" /><path
     inkscape:connector-curvature="0"
     d="M 197.33333,170.66667 H 186.66666 V 160 h 10.66667 z"
     style="fill:#ed4792;fill-opacity:1;fill-rule:nonzero;stroke:none;stroke-width:1.33333325"
     id="path562" /><path
     id="path566"
     style="fill:#191919;fill-opacity:1;fill-rule:nonzero;stroke:none;stroke-width:1.33333325"
     d="m 145.722,58.637337 v 0 c -0.62267,0 -1.25467,0.01067 -1.9,0.032 l -3.20667,0.106667 -1.408,2.882666 -4.22933,8.66 c -0.50667,0.181333 -1.06133,0.388 -1.64533,0.617333 v -1.602666 h -5.33334 -5.33333 -3.296 l -1.47333,2.948 -1.692,3.382666 c -1.216,-0.62 -2.61467,-0.997333 -4.20534,-0.997333 -3.16,0 -6.00666,1.573333 -8.19066,3.314667 -2.85067,-2.209334 -5.401335,-3.325334 -7.618669,-3.325334 -0.268,0 -0.529333,0.01467 -0.782666,0.044 -6.808,0.762667 -19.317333,17.836 -25.74,35.131997 -0.910666,2.452 0.01867,5.18134 2.26,6.63867 l 1.325333,0.86267 h 1.581334 10.498666 3.770667 l 1.257333,-3.55467 c 0.209333,-0.59067 0.425333,-1.18533 0.644,-1.77867 h 4.994667 3.083999 l 1.537336,-2.67066 c 0.49866,-0.86534 1.028,-1.76267 1.56933,-2.66267 h 4.476 10.66667 3.568 l 0.444,-1.07467 5.744,0.996 c 0.152,0.0267 3.77466,0.644 9.18666,0.644 9.08667,0 21.70134,-1.65733 33.048,-8.981331 2.608,2.757331 6.504,5.158671 11.836,5.333331 0.18934,0.007 0.38,0.009 0.57067,0.009 5.28533,0 10.26267,-2.392 13.848,-4.714671 2.50533,3.661331 6.50267,7.569331 12.22133,7.784001 0.22534,0.008 0.45334,0.0133 0.68,0.0133 3.452,0 7.076,-0.984 10.18667,-2.16666 v 1.75733 l 4.92,0.384 0.0973,0.008 -0.007,0.008 h 0.11467 l 5.128,0.4 3.056,0.23733 0.44133,-0.63733 h 2.24934 10.18933 L 242.55,112 h 8.116 5.33333 3.33733 l 1.46,-3.00133 c 0.19467,-0.4 4.77067,-9.876001 5.82134,-17.614667 0.34666,-2.553333 0.99333,-7.305333 -2.02,-10.754667 -1.91067,-2.186666 -4.76667,-3.297333 -8.48934,-3.297333 l -0.14666,0.0013 -1.24,0.0093 -1.108,0.553333 -2.00267,1.002667 c -2.52133,-2.064 -6.26933,-4.4 -10.32,-4.4 -0.92,0 -1.82533,0.12 -2.68933,0.354667 -1.68267,0.457333 -3.42667,1.164 -5.05467,1.936 -0.31867,-0.629334 -0.70267,-1.256 -1.16533,-1.866667 -2.80667,-3.709333 -7.42134,-5.589333 -13.716,-5.589333 -6.088,0 -11.072,0.962666 -14.83867,2.862666 -3.232,-3.748 -8.716,-8.003999 -17.04,-8.194666 -0.13066,-0.0027 -0.264,-0.004 -0.39333,-0.004 h -0.003 c -5.17466,0 -9.368,2.282666 -12.63333,5.469333 -4.08667,-5.156 -13.68133,-10.829333 -28.036,-10.829333"
     inkscape:connector-curvature="0" /><path
     id="path570"
     style="fill:#ffffff;fill-opacity:1;fill-rule:nonzero;stroke:none;stroke-width:1.33333325"
     d="m 216.03906,89.591203 c -2.156,2.829333 -4.956,4.24 -6.252,3.149333 -1.296,-1.089333 -0.6,-4.265333 1.55733,-7.093333 2.156,-2.830666 4.95467,-4.24 6.252,-3.150666 1.29734,1.089333 0.59867,4.265333 -1.55733,7.094666 m -29.06267,-2.326667 c -2.156,2.828 -4.956,4.238667 -6.252,3.149334 -1.29733,-1.089334 -0.6,-4.266667 1.55734,-7.094667 2.156,-2.829333 4.95466,-4.238666 6.252,-3.149333 1.296,1.089333 0.59866,4.265333 -1.55734,7.094666 M 158.77773,76.340537 c -0.556,2.169333 -10.41067,2.209333 -10.41067,2.209333 l 0.92134,-5.450667 c 5.67466,-1.185333 10.04666,1.072 9.48933,3.241334 m -1.58134,13.885333 c -0.96266,4.378666 -15.07866,2.469333 -15.07866,2.469333 l 2.11867,-6.321333 c 0,0 13.92133,-0.526667 12.95999,3.852 m 98.804,-7.558667 -5.33333,2.666667 c 0,0 -5.908,-6.626667 -10.66667,-5.333333 -4.76,1.292 -10.66666,5.333333 -10.66666,5.333333 0,0 3.01066,-10.666667 -10.66667,-10.666667 -13.67867,0 -16,5.333334 -16,5.333334 0,0 -4.56,-10.406667 -16,-10.666667 -11.44,-0.261333 -16,15.833333 -16,15.833333 l -5.55733,-5.166666 c 0,0 5.79866,-3.245334 5.55733,-5.333334 -0.24267,-2.088 -8.41733,-11.277333 -26.66666,-10.666666 l -5.21067,10.666666 c 0,0 -8.172,2.529334 -10.78933,5.333334 v -5.333334 h -5.33334 l -5.33333,10.666667 c 0,0 -1.484,-5.333333 -5.33333,-5.333333 -3.85067,0 -8,5.333333 -8,5.333333 0,0 -5.485337,-5.616 -8.000004,-5.333333 -2.516,0.281333 -14.127999,12.286666 -21.333332,31.688003 -0.04667,0.12533 0.03333,0.224 0.168,0.312 H 85.33373 c 0,0 6.062666,-17.141337 8.549333,-17.40267 2.488,-0.26 -2.936,12.06933 -2.936,12.06933 h 5.053333 c 0,0 8.278664,-14.374664 10.417334,-14.787997 2.13867,-0.413333 0.24933,9.454667 0.24933,9.454667 h 10.66667 c 0,0 8.96267,-21.690667 18.372,-20.48 l -7.70533,20.48 c 0,0 24.62399,4.27067 42.66666,-10.666667 0,0 2.708,7.325333 10.66667,7.586666 7.95733,0.261334 16,-7.466666 16,-7.466666 0,0 3.70266,10.285337 10.66666,10.546667 6.96267,0.26 16,-5.333334 16,-5.333334 v 5.333334 l 5.33334,0.41467 c 0,0 8.092,-11.709337 10.66666,-11.081337 2.57334,0.626667 -5.33333,10.666667 -5.33333,10.666667 h 10.92133 c 0,0 1.86134,-9.697334 7.14534,-8.346667 0,0 0.716,7.243997 -2.06667,13.679997 h 5.33333 c 0,0 4.38534,-9.019997 5.33334,-15.999997 0.60133,-4.434667 0.62133,-8.045333 -5.33334,-8"
     inkscape:connector-curvature="0" /></svg>