<?xml version="1.0" encoding="UTF-8" standalone="no"?>
<!-- Created with Inkscape (http://www.inkscape.org/) -->

<svg
   xmlns:dc="http://purl.org/dc/elements/1.1/"
   xmlns:cc="http://creativecommons.org/ns#"
   xmlns:rdf="http://www.w3.org/1999/02/22-rdf-syntax-ns#"
   xmlns:svg="http://www.w3.org/2000/svg"
   xmlns="http://www.w3.org/2000/svg"
   xmlns:sodipodi="http://sodipodi.sourceforge.net/DTD/sodipodi-0.dtd"
   xmlns:inkscape="http://www.inkscape.org/namespaces/inkscape"
   id="svg5468"
   version="1.1"
   inkscape:version="0.92.2 (5c3e80d, 2017-08-06)"
   width="64"
   height="64"
   xml:space="preserve"
   sodipodi:docname="NEC - PC-98.svg"
   inkscape:export-filename="/Users/margetts/Desktop/Icon Workshop/Monochrome July/NEC - PC-98.png"
   inkscape:export-xdpi="360"
   inkscape:export-ydpi="360"><metadata
     id="metadata5474"><rdf:RDF><cc:Work
         rdf:about=""><dc:format>image/svg+xml</dc:format><dc:type
           rdf:resource="http://purl.org/dc/dcmitype/StillImage" /><dc:title></dc:title></cc:Work></rdf:RDF></metadata><defs
     id="defs5472"><clipPath
       clipPathUnits="userSpaceOnUse"
       id="clipPath5482"><path
         d="M 0,64 64,64 64,0 0,0 0,64 z"
         id="path5484"
         inkscape:connector-curvature="0" /></clipPath></defs><sodipodi:namedview
     pagecolor="#ffffff"
     bordercolor="#666666"
     borderopacity="1"
     objecttolerance="10"
     gridtolerance="10"
     guidetolerance="10"
     inkscape:pageopacity="0"
     inkscape:pageshadow="2"
     inkscape:window-width="1024"
     inkscape:window-height="705"
     id="namedview5470"
     showgrid="false"
     inkscape:zoom="7.380427"
     inkscape:cx="31.237055"
     inkscape:cy="32.4787"
     inkscape:window-x="-8"
     inkscape:window-y="-8"
     inkscape:window-maximized="1"
     inkscape:current-layer="g5476"
     showguides="false"
     inkscape:pagecheckerboard="true"><sodipodi:guide
       position="18.969092,68.153238"
       orientation="0,1"
       id="guide819"
       inkscape:locked="false" /></sodipodi:namedview><g
     id="g5476"
     inkscape:groupmode="layer"
     inkscape:label="NEC - PC-98"
     transform="matrix(1.25,0,0,-1.25,0,64)"><rect
       style="fill:#ac9d93;fill-opacity:1;stroke:none;stroke-width:0.40000001;stroke-linecap:round;stroke-linejoin:round;stroke-miterlimit:4;stroke-dasharray:none"
       id="rect817"
       width="41.406818"
       height="21.245382"
       x="4.9861612"
       y="-35.445103"
       transform="scale(1,-1)"
       ry="1.7886159" /><g
       id="g5478"
       transform="scale(0.8,0.8)"
       style="fill:#e3dedb"><g
         id="g5480"
         clip-path="url(#clipPath5482)"
         style="fill:#e3dedb"><path
           d="m 58,38 -3,0 0,3 3,0 0,-3 z m 0,-4 -4,0 0,3 4,0 0,-3 z m 0,-3 0,-1 0,-4 -3,0 0,4 -1,0 0,3 4,0 0,-2 z m 0,-9 -4,0 0,3 4,0 0,-3 z m -5,12 -3,0 0,3 3,0 0,-3 z m 0,-4 -3,0 0,3 3,0 0,-3 z m 0,-4 -4,0 0,3 4,0 0,-3 z m 0,-4 -3,0 0,3 3,0 0,-3 z m -3,-4 -3,0 0,3 3,0 0,-3 z m -4,7 3,0 0,-3 -3,0 0,3 z m 0,-7 -4,0 0,3 4,0 0,-3 z m -1,4 -3,0 0,3 3,0 0,-3 z m -4,7 3,0 0,-3 -3,0 0,3 z m 0,-7 -3,0 0,3 3,0 0,-3 z m 0,-4 -4,0 0,3 4,0 0,-3 z m -5,0 -4,0 0,3 4,0 0,-3 z m -5,7 3,0 0,-3 -3,0 0,3 z m 0,-7 -2,0 0,3 2,0 0,-3 z m -3,7 2,0 0,-3 -2,0 0,3 z m 0,-7 -4,0 0,3 4,0 0,-3 z m -5,4 -3,0 0,3 3,0 0,-3 z m 0,-4 -4,0 0,3 4,0 0,-3 z m -5,0 -3,0 0,3 3,0 0,-3 z m -6,7 3,0 0,-3 -3,0 0,3 z m -1,-3 -4,0 0,3 4,0 0,-3 z m -4,7 5,0 0,-3 -5,0 0,3 z m 0,4 4,0 0,-3 -4,0 0,3 z m 0,4 4,0 0,-3 -4,0 0,3 z m 0,4 3,0 0,-3 -3,0 0,3 z m 4,0 3,0 0,-3 -3,0 0,3 z m 4,-7 -3,0 0,3 3,0 0,-3 z m 0,7 3,0 0,-3 -3,0 0,3 z m 4,-7 -3,0 0,3 3,0 0,-3 z m -3,-1 3,0 0,-3 -3,0 0,3 z m 1,-4 3,0 0,-3 -3,0 0,3 z m -1,-4 3,0 0,-3 -3,0 0,3 z m -4,8 3,0 0,-3 -3,0 0,3 z m 1,-4 3,0 0,-3 -3,0 0,3 z m 6,12 3,0 0,-3 -3,0 0,3 z m 4,-7 -3,0 0,3 3,0 0,-3 z m 0,7 3,0 0,-3 -3,0 0,3 z m 1,-4 3,0 0,-3 -3,0 0,3 z m 0,-4 3,0 0,-3 -3,0 0,3 z m 1,-4 2,0 0,-3 -2,0 0,3 z m -1,-4 3,0 0,-3 -3,0 0,3 z m -4,8 3,0 0,-3 -3,0 0,3 z m 1,-4 3,0 0,-3 -3,0 0,3 z m 6,12 3,0 0,-3 -3,0 0,3 z m 4,0 3,0 0,-3 -3,0 0,3 z m 2,-4 4,0 0,-3 -4,0 0,3 z m -5,0 4,0 0,-3 -4,0 0,3 z m 4,-11 -4,0 0,3 4,0 0,-3 z m -4,7 9,0 0,-3 -9,0 0,3 z m 9,-11 -2,0 0,3 2,0 0,-3 z m -4,7 4,0 0,-3 -4,0 0,3 z m 2,12 3,0 0,-3 -3,0 0,3 z m 3,-4 3,0 0,-3 -3,0 0,3 z m 2,-11 -2,0 0,3 2,0 0,-3 z m -2,7 3,0 0,-3 -3,0 0,3 z m 1,8 3,0 0,-3 -3,0 0,3 z m 4,0 3,0 0,-3 -3,0 0,3 z m 3,-4 3,0 0,-3 -3,0 0,3 z m 0,-4 3,0 0,-3 -3,0 0,3 z m -1,-4 3,0 0,-3 -3,0 0,3 z m -3,8 3,0 0,-3 -3,0 0,3 z m 3,-7 -3,0 0,3 3,0 0,-3 z m 2,11 3,0 0,-3 -3,0 0,3 z m 4,0 3,0 0,-3 -3,0 0,3 z m 7,6 -52,0 C 5.448,47 5,46.552 5,46 L 5,18 c 0,-0.553 0.448,-1 1,-1 l 52,0 c 0.55,0 1,0.45 1,1 l 0,28 c 0,0.55 -0.45,1 -1,1"
           style="fill:#e3dedb;fill-opacity:1;fill-rule:nonzero;stroke:none"
           id="path5486"
           inkscape:connector-curvature="0" /></g></g></g></svg>
