<?xml version="1.0" encoding="UTF-8" standalone="no"?>
<svg
   xmlns:dc="http://purl.org/dc/elements/1.1/"
   xmlns:cc="http://creativecommons.org/ns#"
   xmlns:rdf="http://www.w3.org/1999/02/22-rdf-syntax-ns#"
   xmlns:svg="http://www.w3.org/2000/svg"
   xmlns="http://www.w3.org/2000/svg"
   xmlns:sodipodi="http://sodipodi.sourceforge.net/DTD/sodipodi-0.dtd"
   xmlns:inkscape="http://www.inkscape.org/namespaces/inkscape"
   viewBox="0 0 341.33334 341.33334"
   height="341.33334"
   width="341.33334"
   xml:space="preserve"
   id="svg2"
   version="1.1"
   sodipodi:docname="NEC - PC Engine - TurboGrafx 16.svg"
   inkscape:version="0.92.2 (5c3e80d, 2017-08-06)"><sodipodi:namedview
     pagecolor="#ffffff"
     bordercolor="#666666"
     borderopacity="1"
     objecttolerance="10"
     gridtolerance="10"
     guidetolerance="10"
     inkscape:pageopacity="0"
     inkscape:pageshadow="2"
     inkscape:window-width="1024"
     inkscape:window-height="705"
     id="namedview100"
     showgrid="false"
     inkscape:zoom="1.3828125"
     inkscape:cx="194.35257"
     inkscape:cy="137.91745"
     inkscape:window-x="-8"
     inkscape:window-y="-8"
     inkscape:window-maximized="1"
     inkscape:current-layer="svg2" /><metadata
     id="metadata8"><rdf:RDF><cc:Work
         rdf:about=""><dc:format>image/svg+xml</dc:format><dc:type
           rdf:resource="http://purl.org/dc/dcmitype/StillImage" /></cc:Work></rdf:RDF></metadata><defs
     id="defs6"><clipPath
       id="clipPath18"
       clipPathUnits="userSpaceOnUse"><path
         id="path16"
         d="M 0,256 H 256 V 0 H 0 Z" /></clipPath><clipPath
       id="clipPath26"
       clipPathUnits="userSpaceOnUse"><path
         id="path24"
         d="M 4,188 H 252 V 68 H 4 Z" /></clipPath></defs><g
     id="g20"
     transform="matrix(1.3333333,0,0,-1.3333333,0,341.33333)"><g
       id="g22" /><g
       id="g34"><g
         clip-path="url(#clipPath26)"
         id="g32"
         style="opacity:0.5"><g
           transform="translate(239.6432,172.9085)"
           id="g30"><path
             inkscape:connector-curvature="0"
             d="m 0,0 -71.153,10.001 c -1.844,3.048 -5.194,5.09 -9.013,5.09 h -62.954 c -3.765,0 -7.074,-1.984 -8.934,-4.961 L -223.308,0.005 c -7.032,-0.999 -12.335,-7.109 -12.335,-14.212 v -76.346 c 0,-7.916 6.439,-14.356 14.354,-14.356 H -1.998 c 7.915,0 14.355,6.44 14.355,14.356 v 76.337 C 12.357,-7.102 7.044,-0.99 0,0"
             style="fill:#ffffff;fill-opacity:1;fill-rule:nonzero;stroke:none"
             id="path28" /></g></g></g></g><g
     id="g36"
     transform="matrix(1.3333333,0,0,-1.3333333,16,231.52627)"><path
       inkscape:connector-curvature="0"
       d="m 0,0 c 0,-3.51 2.845,-6.355 6.355,-6.355 h 219.29 c 3.51,0 6.355,2.845 6.355,6.355 v 76.338 c 0,3.168 -2.333,5.852 -5.47,6.293 l -77.918,10.952 c -0.293,0.041 -0.589,0.062 -0.884,0.062 H 83.371 c -0.299,0 -0.598,-0.021 -0.894,-0.064 L 5.461,82.638 C 2.328,82.193 0,79.511 0,76.346"
       style="fill:#cccccc;fill-opacity:1;fill-rule:nonzero;stroke:none"
       id="path38" /></g><g
     id="g40"
     transform="matrix(1.3333333,0,0,-1.3333333,303.99999,208.34387)"><path
       inkscape:connector-curvature="0"
       d="m 0,0 c 0,4.248 -1.682,8.1 -4.412,10.932 v 43.52 c 0,3.207 -2.594,5.806 -5.795,5.806 h -42.422 c -2.991,0 -5.415,-2.43 -5.415,-5.426 v -2.261 c 0,-24.316 -20.116,-44.122 -44.359,-42.988 -22.456,1.051 -40.34,19.625 -40.34,42.385 v 3.768 c 0,2.497 -2.021,4.522 -4.514,4.522 h -42.948 c -3.201,0 -5.795,-2.599 -5.795,-5.806 V 33.121 c 0,-1.989 2.134,-3.218 3.867,-2.249 3.867,2.164 8.383,3.303 13.183,3.048 12.812,-0.683 23,-11.446 23.043,-24.3 0.029,-8.645 -4.431,-16.244 -11.172,-20.606 -0.494,-2.129 -0.149,-4.725 4.477,-4.725 h 115.204 c 0.313,-0.019 0.628,-0.031 0.946,-0.031 h 30.74 c 0.318,0 0.633,0.012 0.946,0.031 0,0 4.005,0.487 5.038,1.154 C -4.019,-12.199 0,-6.571 0,0"
       style="fill:#191919;fill-opacity:1;fill-rule:nonzero;stroke:none"
       id="path42" /></g><g
     id="g44"
     transform="matrix(1.3333333,0,0,-1.3333333,212.63626,101.33334)"><path
       inkscape:connector-curvature="0"
       d="m 0,0 h -62.954 c -1.394,0 -2.523,-1.124 -2.523,-2.51 v -27.661 c 0,-18.683 15.222,-33.829 34,-33.829 18.778,0 34,15.146 34,33.829 V -2.51 C 2.523,-1.124 1.393,0 0,0"
       style="fill:#e6e6e6;fill-opacity:1;fill-rule:nonzero;stroke:none"
       id="path46" /></g><g
     id="g48"
     transform="matrix(1.3333333,0,0,-1.3333333,93.333331,196)"><path
       inkscape:connector-curvature="0"
       d="m 0,0 c 0,-12.15 -9.85,-22 -22,-22 -12.15,0 -22,9.85 -22,22 0,12.15 9.85,22 22,22 C -9.85,22 0,12.15 0,0"
       style="fill:#000000;fill-opacity:1;fill-rule:nonzero;stroke:none"
       id="path50" /></g><g
     id="g52"
     transform="matrix(1.3333333,0,0,-1.3333333,90.666664,196)"><path
       inkscape:connector-curvature="0"
       d="m 0,0 c 0,-11.046 -8.954,-20 -20,-20 -11.046,0 -20,8.954 -20,20 0,11.046 8.954,20 20,20 C -8.954,20 0,11.046 0,0"
       style="fill:#404040;fill-opacity:1;fill-rule:nonzero;stroke:none"
       id="path54" /></g><g
     id="g56"
     transform="matrix(1.3333333,0,0,-1.3333333,70.524798,170.14067)"><path
       inkscape:connector-curvature="0"
       d="M 0,0 C -1.566,0.394 -3.205,0.605 -4.894,0.605 -6.582,0.605 -8.221,0.394 -9.787,0 v -14.501 h -14.501 c -0.394,-1.566 -0.606,-3.205 -0.606,-4.894 0,-1.688 0.212,-3.327 0.606,-4.893 h 14.501 v -14.501 c 1.566,-0.394 3.205,-0.606 4.893,-0.606 1.689,0 3.328,0.212 4.894,0.606 v 14.501 h 14.501 c 0.394,1.566 0.605,3.205 0.605,4.893 0,1.689 -0.211,3.328 -0.605,4.894 H 0 Z"
       style="fill:#4c4c4c;fill-opacity:1;fill-rule:nonzero;stroke:none"
       id="path58" /></g><g
     id="g60"
     transform="matrix(1.3333333,0,0,-1.3333333,70.666665,196)"><path
       inkscape:connector-curvature="0"
       d="m 0,0 c 0,-2.761 -2.239,-5 -5,-5 -2.761,0 -5,2.239 -5,5 0,2.761 2.239,5 5,5 2.761,0 5,-2.239 5,-5"
       style="fill:#404040;fill-opacity:1;fill-rule:nonzero;stroke:none"
       id="path62" /></g><g
     id="g64"
     transform="matrix(1.3333333,0,0,-1.3333333,282.46159,189.33333)"><path
       inkscape:connector-curvature="0"
       d="m 0,0 h -27.692 c -7.817,0 -14.154,-6.268 -14.154,-14 0,-7.732 6.337,-14 14.154,-14 H 0 c 7.817,0 14.154,6.268 14.154,14 C 14.154,-6.268 7.817,0 0,0"
       style="fill:#b80000;fill-opacity:1;fill-rule:nonzero;stroke:none"
       id="path66" /></g><g
     id="g68"
     transform="matrix(1.3333333,0,0,-1.3333333,258.75839,208)"><path
       inkscape:connector-curvature="0"
       d="m 0,0 c 0,-5.561 -4.508,-10.069 -10.069,-10.069 -5.561,0 -10.069,4.508 -10.069,10.069 0,5.561 4.508,10.069 10.069,10.069 C -4.508,10.069 0,5.561 0,0"
       style="fill:#595959;fill-opacity:1;fill-rule:nonzero;stroke:none"
       id="path70" /></g><g
     id="g72"
     transform="matrix(1.3333333,0,0,-1.3333333,245.33333,194.66667)"><path
       inkscape:connector-curvature="0"
       d="m 0,0 c -5.523,0 -10,-4.477 -10,-10 0,-5.523 4.477,-10 10,-10 5.523,0 10,4.477 10,10 C 10,-4.477 5.523,0 0,0 m 0,-1.387 c 4.749,0 8.613,-3.864 8.613,-8.613 0,-4.749 -3.864,-8.613 -8.613,-8.613 -4.749,0 -8.613,3.864 -8.613,8.613 0,4.749 3.864,8.613 8.613,8.613"
       style="fill:#191919;fill-opacity:1;fill-rule:nonzero;stroke:none"
       id="path74" /></g><g
     id="g76"
     transform="matrix(1.3333333,0,0,-1.3333333,245.33333,193.33333)"><path
       inkscape:connector-curvature="0"
       d="m 0,0 c -6.065,0 -11,-4.935 -11,-11 0,-6.065 4.935,-11 11,-11 6.065,0 11,4.935 11,11 C 11,-4.935 6.065,0 0,0 m 0,-0.931 c 5.561,0 10.069,-4.508 10.069,-10.069 0,-5.561 -4.508,-10.069 -10.069,-10.069 -5.561,0 -10.069,4.508 -10.069,10.069 0,5.561 4.508,10.069 10.069,10.069"
       style="fill:#cccccc;fill-opacity:1;fill-rule:nonzero;stroke:none"
       id="path78" /></g><g
     id="g80"
     transform="matrix(1.3333333,0,0,-1.3333333,296.09173,208)"><path
       inkscape:connector-curvature="0"
       d="m 0,0 c 0,-5.561 -4.508,-10.069 -10.069,-10.069 -5.561,0 -10.069,4.508 -10.069,10.069 0,5.561 4.508,10.069 10.069,10.069 C -4.508,10.069 0,5.561 0,0"
       style="fill:#595959;fill-opacity:1;fill-rule:nonzero;stroke:none"
       id="path82" /></g><g
     id="g84"
     transform="matrix(1.3333333,0,0,-1.3333333,282.66666,194.66667)"><path
       inkscape:connector-curvature="0"
       d="m 0,0 c -5.523,0 -10,-4.477 -10,-10 0,-5.523 4.477,-10 10,-10 5.523,0 10,4.477 10,10 C 10,-4.477 5.523,0 0,0 m 0,-1.387 c 4.749,0 8.613,-3.864 8.613,-8.613 0,-4.749 -3.864,-8.613 -8.613,-8.613 -4.749,0 -8.613,3.864 -8.613,8.613 0,4.749 3.864,8.613 8.613,8.613"
       style="fill:#191919;fill-opacity:1;fill-rule:nonzero;stroke:none"
       id="path86" /></g><g
     id="g88"
     transform="matrix(1.3333333,0,0,-1.3333333,282.66666,193.33333)"><path
       inkscape:connector-curvature="0"
       d="m 0,0 c -6.065,0 -11,-4.935 -11,-11 0,-6.065 4.935,-11 11,-11 6.065,0 11,4.935 11,11 C 11,-4.935 6.065,0 0,0 m 0,-0.931 c 5.561,0 10.069,-4.508 10.069,-10.069 0,-5.561 -4.508,-10.069 -10.069,-10.069 -5.561,0 -10.069,4.508 -10.069,10.069 0,5.561 4.508,10.069 10.069,10.069"
       style="fill:#cccccc;fill-opacity:1;fill-rule:nonzero;stroke:none"
       id="path90" /></g><g
     id="g92"
     transform="matrix(1.3333333,0,0,-1.3333333,163.4584,208)"><path
       inkscape:connector-curvature="0"
       d="m 0,0 c 0,-1.524 -1.399,-2.759 -3.125,-2.759 h -10.938 c -1.725,0 -3.124,1.235 -3.124,2.759 0,1.524 1.399,2.759 3.124,2.759 H -3.125 C -1.399,2.759 0,1.524 0,0"
       style="fill:#404040;fill-opacity:1;fill-rule:nonzero;stroke:none"
       id="path94" /></g><g
     id="g96"
     transform="matrix(1.3333333,0,0,-1.3333333,159.29173,202.66667)"><path
       inkscape:connector-curvature="0"
       d="m 0,0 h -10.938 c -2.498,0 -4.531,-1.794 -4.531,-4 0,-2.206 2.033,-4 4.531,-4 H 0 c 2.499,0 4.531,1.794 4.531,4 0,2.206 -2.032,4 -4.531,4 M 0,-1.241 C 1.726,-1.241 3.125,-2.476 3.125,-4 3.125,-5.524 1.726,-6.759 0,-6.759 h -10.938 c -1.725,0 -3.125,1.235 -3.125,2.759 0,1.524 1.4,2.759 3.125,2.759 H 0"
       style="fill:#cccccc;fill-opacity:1;fill-rule:nonzero;stroke:none"
       id="path98" /></g><g
     id="g100"
     transform="matrix(1.3333333,0,0,-1.3333333,200.79159,208)"><path
       inkscape:connector-curvature="0"
       d="m 0,0 c 0,-1.524 -1.399,-2.759 -3.125,-2.759 h -10.938 c -1.725,0 -3.124,1.235 -3.124,2.759 0,1.524 1.399,2.759 3.124,2.759 H -3.125 C -1.399,2.759 0,1.524 0,0"
       style="fill:#404040;fill-opacity:1;fill-rule:nonzero;stroke:none"
       id="path102" /></g><g
     id="g104"
     transform="matrix(1.3333333,0,0,-1.3333333,196.62493,202.66667)"><path
       inkscape:connector-curvature="0"
       d="m 0,0 h -10.938 c -2.498,0 -4.531,-1.794 -4.531,-4 0,-2.206 2.033,-4 4.531,-4 H 0 c 2.499,0 4.531,1.794 4.531,4 0,2.206 -2.032,4 -4.531,4 M 0,-1.241 C 1.726,-1.241 3.125,-2.476 3.125,-4 3.125,-5.524 1.726,-6.759 0,-6.759 h -10.938 c -1.725,0 -3.125,1.235 -3.125,2.759 0,1.524 1.4,2.759 3.125,2.759 H 0"
       style="fill:#cccccc;fill-opacity:1;fill-rule:nonzero;stroke:none"
       id="path106" /></g><g
     id="g108"
     transform="matrix(1.3333333,0,0,-1.3333333,282.66666,165.33333)"><path
       inkscape:connector-curvature="0"
       d="m 0,0 v 0 c -2.2,0 -4,1.8 -4,4 v 8 c 0,2.2 1.8,4 4,4 2.2,0 4,-1.8 4,-4 V 4 C 4,1.8 2.2,0 0,0"
       style="fill:#0d0d0d;fill-opacity:1;fill-rule:nonzero;stroke:none"
       id="path110" /></g><g
     id="g112"
     transform="matrix(1.3333333,0,0,-1.3333333,282.66666,142.66667)"><path
       inkscape:connector-curvature="0"
       d="m 0,0 c -2.757,0 -5,-2.243 -5,-5 v -8 c 0,-2.757 2.243,-5 5,-5 2.757,0 5,2.243 5,5 v 8 C 5,-2.243 2.757,0 0,0 m 0,-1 c 2.2,0 4,-1.8 4,-4 v -8 c 0,-2.2 -1.8,-4 -4,-4 -2.2,0 -4,1.8 -4,4 v 8 c 0,2.2 1.8,4 4,4"
       style="fill:#cccccc;fill-opacity:1;fill-rule:nonzero;stroke:none"
       id="path114" /></g><g
     id="g116"
     transform="matrix(1.3333333,0,0,-1.3333333,287.99999,160)"><path
       inkscape:connector-curvature="0"
       d="m 0,0 c 0,-2.209 -1.791,-4 -4,-4 -2.209,0 -4,1.791 -4,4 0,2.209 1.791,4 4,4 2.209,0 4,-1.791 4,-4"
       style="fill:#404040;fill-opacity:1;fill-rule:nonzero;stroke:none"
       id="path118" /></g><g
     id="g120"
     transform="matrix(1.3333333,0,0,-1.3333333,245.33333,165.33333)"><path
       inkscape:connector-curvature="0"
       d="m 0,0 v 0 c -2.2,0 -4,1.8 -4,4 v 8 c 0,2.2 1.8,4 4,4 2.2,0 4,-1.8 4,-4 V 4 C 4,1.8 2.2,0 0,0"
       style="fill:#0d0d0d;fill-opacity:1;fill-rule:nonzero;stroke:none"
       id="path122" /></g><g
     id="g124"
     transform="matrix(1.3333333,0,0,-1.3333333,245.33333,142.66667)"><path
       inkscape:connector-curvature="0"
       d="m 0,0 c -2.757,0 -5,-2.243 -5,-5 v -8 c 0,-2.757 2.243,-5 5,-5 2.757,0 5,2.243 5,5 v 8 C 5,-2.243 2.757,0 0,0 m 0,-1 c 2.2,0 4,-1.8 4,-4 v -8 c 0,-2.2 -1.8,-4 -4,-4 -2.2,0 -4,1.8 -4,4 v 8 c 0,2.2 1.8,4 4,4"
       style="fill:#cccccc;fill-opacity:1;fill-rule:nonzero;stroke:none"
       id="path126" /></g><g
     id="g128"
     transform="matrix(1.3333333,0,0,-1.3333333,250.66666,160)"><path
       inkscape:connector-curvature="0"
       d="m 0,0 c 0,-2.209 -1.791,-4 -4,-4 -2.209,0 -4,1.791 -4,4 0,2.209 1.791,4 4,4 2.209,0 4,-1.791 4,-4"
       style="fill:#404040;fill-opacity:1;fill-rule:nonzero;stroke:none"
       id="path130" /></g><path
     inkscape:connector-curvature="0"
     d="m 258.66666,149.33333 h -5.33333 V 144 h 5.33333 z"
     style="fill:#b80000;fill-opacity:1;fill-rule:nonzero;stroke:none;stroke-width:1.33333325"
     id="path132" /><path
     inkscape:connector-curvature="0"
     d="m 261.33333,156.66667 h -4 v -4 h 4 z"
     style="fill:#b80000;fill-opacity:1;fill-rule:nonzero;stroke:none;stroke-width:1.33333325"
     id="path134" /><path
     inkscape:connector-curvature="0"
     d="m 266.66666,149.33333 h -5.33333 V 144 h 5.33333 z"
     style="fill:#b80000;fill-opacity:1;fill-rule:nonzero;stroke:none;stroke-width:1.33333325"
     id="path136" /><path
     inkscape:connector-curvature="0"
     d="m 274.66666,149.33333 h -5.33333 V 144 h 5.33333 z"
     style="fill:#b80000;fill-opacity:1;fill-rule:nonzero;stroke:none;stroke-width:1.33333325"
     id="path138" /><path
     inkscape:connector-curvature="0"
     d="m 270.66666,156.66667 h -4 v -4 h 4 z"
     style="fill:#b80000;fill-opacity:1;fill-rule:nonzero;stroke:none;stroke-width:1.33333325"
     id="path140" /><path
     inkscape:connector-curvature="0"
     d="m 265.33333,164 h -2.66667 v -2.66667 h 2.66667 z"
     style="fill:#b80000;fill-opacity:1;fill-rule:nonzero;stroke:none;stroke-width:1.33333325"
     id="path142" /><g
     id="g144"
     transform="matrix(1.3333333,0,0,-1.3333333,59.424399,138.71614)"><path
       inkscape:connector-curvature="0"
       d="M 0,0 C 0.193,-0.097 0.386,-0.194 0.513,-0.335 0.64,-0.477 0.797,-0.658 0.76,-0.85 L 0.269,-3.419 C 0.23,-3.62 0.061,-4.506 0.025,-4.667 L -0.538,-7.17 C -0.59,-7.401 -0.827,-7.545 -0.995,-7.671 -1.164,-7.797 -1.356,-7.861 -1.548,-7.925 L 2.557,-7.963 C 2.393,-7.898 2.229,-7.834 2.113,-7.707 1.997,-7.58 1.82,-7.434 1.862,-7.201 l 0.372,2.065 0.355,1.764 0.544,2.551 c 0.041,0.195 0.27,0.377 0.453,0.52 0.182,0.143 0.413,0.24 0.643,0.338 z"
       style="fill:#b80000;fill-opacity:1;fill-rule:nonzero;stroke:none"
       id="path146" /></g><g
     id="g148"
     transform="matrix(1.3333333,0,0,-1.3333333,56.317865,147.77373)"><path
       inkscape:connector-curvature="0"
       d="m 0,0 c -0.441,-0.333 -1.046,-0.626 -1.685,-0.626 h -1.232 l 1.329,6.598 0.03,10e-4 c 0.041,0.194 0.27,0.376 0.453,0.519 0.183,0.143 0.413,0.24 0.644,0.338 L -4.691,6.793 C -4.498,6.696 -4.305,6.599 -4.178,6.458 -4.051,6.316 -3.894,6.136 -3.931,5.943 L -4.422,3.374 C -4.46,3.173 -4.629,2.288 -4.666,2.126 l -0.563,-2.503 c -0.051,-0.231 -0.289,-0.375 -0.457,-0.501 -0.168,-0.126 -0.36,-0.19 -0.552,-0.254 H 0.486 L 0.958,1.373 C 0.699,0.853 0.441,0.333 0,0"
       style="fill:#b80000;fill-opacity:1;fill-rule:nonzero;stroke:none"
       id="path150" /></g><g
     id="g152"
     transform="matrix(1.3333333,0,0,-1.3333333,71.444532,147.4292)"><path
       inkscape:connector-curvature="0"
       d="m 0,0 c -0.283,-0.692 -0.803,-1.038 -1.559,-1.038 -0.206,0 -0.358,0.015 -0.457,0.046 -0.065,0.022 -0.118,0.05 -0.16,0.085 l 0.649,3.482 C -1.006,2.544 -0.639,2.478 -0.426,2.375 -0.038,2.187 0.174,1.822 0.211,1.28 0.24,0.838 0.17,0.411 0,0 M -0.525,6.108 C -0.089,6.108 0.21,5.999 0.372,5.783 0.534,5.566 0.627,5.285 0.65,4.939 0.666,4.709 0.648,4.477 0.598,4.243 0.522,3.882 0.376,3.6 0.161,3.396 -0.011,3.235 -0.202,3.13 -0.414,3.082 -0.608,3.038 -0.955,2.995 -1.456,2.952 L -0.89,5.99 c 0.068,0.078 0.189,0.118 0.365,0.118 M 1.428,2.258 C 1.208,2.435 0.841,2.612 0.33,2.789 0.867,2.92 1.292,3.083 1.604,3.279 2.184,3.64 2.453,4.122 2.413,4.725 2.371,5.348 2.096,5.798 1.587,6.077 1.079,6.355 0.38,6.494 -0.51,6.494 h -0.283 l -0.02,-0.091 0.02,0.105 h -3.213 c 0.193,-0.097 0.386,-0.194 0.513,-0.335 0.126,-0.142 0.284,-0.322 0.247,-0.515 0,0 -0.497,-2.593 -0.5,-2.605 l -0.019,-0.1 C -3.899,2.871 -4.058,2.845 -4.216,2.821 -4.074,2.765 -3.932,2.709 -3.832,2.611 l -0.712,-3.273 c -0.052,-0.231 -0.289,-0.375 -0.457,-0.501 -0.169,-0.126 -0.361,-0.19 -0.553,-0.254 h 3.283 l 0.002,0.01 h 0.966 c 1.261,0 2.145,0.245 2.65,0.736 C 1.852,-0.181 2.082,0.39 2.039,1.04 2.004,1.556 1.801,1.962 1.428,2.258"
       style="fill:#b80000;fill-opacity:1;fill-rule:nonzero;stroke:none"
       id="path154" /></g><g
     id="g156"
     transform="matrix(1.3333333,0,0,-1.3333333,179.65946,171.0032)"><path
       inkscape:connector-curvature="0"
       d="M 0,0 C 0,-0.321 -0.193,-0.529 -0.579,-0.623 -0.761,-0.668 -1.096,-0.69 -1.585,-0.69 h -0.642 c -0.409,0.122 -0.843,0.19 -1.314,0.205 v 1.358 0.374 c 0,0.087 0.077,0.158 0.172,0.158 h 1.594 c 0.562,0 0.93,-0.017 1.105,-0.05 C -0.223,1.26 0,1.047 0,0.715 Z M 0.425,1.986 C 0.009,2.164 -0.509,2.252 -1.129,2.252 h -4.796 -0.127 c -0.095,0 -0.171,-0.07 -0.171,-0.157 v -2.943 c -0.465,-0.121 -0.96,-0.27 -1.492,-0.449 -1.599,-0.538 -2.875,-0.793 -3.875,-0.889 v 3.059 1.105 c 0,0.152 -0.133,0.274 -0.298,0.274 h -2.086 -10e-4 c -0.164,0 -0.298,-0.122 -0.298,-0.274 v -3.977 c -0.071,0.023 -0.132,0.046 -0.183,0.067 -0.097,0.04 -0.205,-0.03 -0.216,-0.14 l -0.072,-0.699 c -0.006,-0.059 0.018,-0.115 0.063,-0.149 0.071,-0.054 0.201,-0.144 0.408,-0.232 v -0.007 c 0,-0.151 0.134,-0.274 0.298,-0.274 h 2.087 v 0 c 0.09,0 0.17,0.037 0.225,0.095 1.018,0.134 2.349,0.469 4.081,1.15 0.472,0.186 0.925,0.327 1.359,0.429 v -0.294 -1.222 c 0,-0.087 0.076,-0.158 0.171,-0.158 h 2.34 v 0 c 0.095,0 0.171,0.071 0.171,0.158 v 1.58 c 0,0.037 0.015,0.07 0.037,0.097 1.735,-0.229 2.967,-1.082 3.691,-1.755 0.055,-0.052 0.129,-0.08 0.205,-0.08 h 0.557 c 0.125,0 0.195,0.139 0.117,0.233 -0.574,0.694 -1.123,1.255 -1.692,1.684 0.406,0.036 0.756,0.117 1.051,0.244 0.553,0.233 0.83,0.604 0.83,1.114 v 1.031 c 0,0.504 -0.277,0.875 -0.83,1.113"
       style="fill:#cccccc;fill-opacity:1;fill-rule:nonzero;stroke:none"
       id="path158" /></g><g
     id="g160"
     transform="matrix(1.3333333,0,0,-1.3333333,162.9384,177.25693)"><path
       inkscape:connector-curvature="0"
       d="m 0,0 c -0.012,0.023 -0.035,0.044 -0.069,0.064 -0.073,0.04 -0.202,0.06 -0.387,0.06 h -1.332 c -0.041,0 -0.074,0.03 -0.074,0.068 v 0.001 c 0,0.038 0.033,0.068 0.074,0.068 h 1.716 c 0.041,0 0.075,0.031 0.075,0.068 v 0.134 c 0,0.038 -0.034,0.069 -0.075,0.069 h -1.731 c -0.112,0 -0.201,-0.015 -0.266,-0.044 -0.035,-0.015 -0.064,-0.043 -0.09,-0.084 -0.03,-0.047 -0.045,-0.117 -0.045,-0.209 0,-0.158 0.039,-0.258 0.117,-0.3 0.068,-0.036 0.18,-0.054 0.337,-0.054 h 1.377 c 0.041,0 0.074,-0.031 0.074,-0.069 v -0.015 c 0,-0.037 -0.033,-0.068 -0.074,-0.068 h -1.743 c -0.041,0 -0.074,-0.03 -0.074,-0.068 v -0.158 c 0,-0.038 0.033,-0.068 0.074,-0.068 h 1.746 c 0.108,0 0.191,0.009 0.249,0.029 0.058,0.02 0.101,0.053 0.13,0.099 0.027,0.042 0.04,0.108 0.04,0.196 0,0.052 -0.005,0.106 -0.014,0.161 C 0.025,-0.064 0.013,-0.024 0,0"
       style="fill:#cccccc;fill-opacity:1;fill-rule:nonzero;stroke:none"
       id="path162" /></g><g
     id="g164"
     transform="matrix(1.3333333,0,0,-1.3333333,166.2652,176.54827)"><path
       inkscape:connector-curvature="0"
       d="m 0,0 h -0.225 c -0.023,0 -0.044,-0.01 -0.059,-0.026 l -0.681,-0.789 c -0.029,-0.033 -0.083,-0.034 -0.113,-0.003 l -0.771,0.795 C -1.863,-0.008 -1.883,0 -1.904,0 h -0.269 c -0.065,0 -0.099,-0.071 -0.055,-0.114 l 0.976,-0.98 c 0.025,-0.025 0.026,-0.062 0.004,-0.089 l -0.253,-0.295 c -0.039,-0.045 -0.004,-0.111 0.058,-0.111 h 0.229 c 0.023,0 0.044,0.01 0.058,0.027 L 0.059,-0.11 C 0.096,-0.065 0.062,0 0,0"
       style="fill:#cccccc;fill-opacity:1;fill-rule:nonzero;stroke:none"
       id="path166" /></g><g
     id="g168"
     transform="matrix(1.3333333,0,0,-1.3333333,169.66386,177.25693)"><path
       inkscape:connector-curvature="0"
       d="m 0,0 c -0.012,0.023 -0.035,0.044 -0.069,0.064 -0.073,0.04 -0.202,0.06 -0.387,0.06 h -1.332 c -0.041,0 -0.074,0.03 -0.074,0.068 v 0.001 c 0,0.038 0.033,0.068 0.074,0.068 h 1.716 c 0.041,0 0.075,0.031 0.075,0.068 v 0.134 c 0,0.038 -0.034,0.069 -0.075,0.069 h -1.731 c -0.112,0 -0.201,-0.015 -0.266,-0.044 -0.035,-0.015 -0.064,-0.043 -0.09,-0.084 -0.03,-0.047 -0.045,-0.117 -0.045,-0.209 0,-0.158 0.039,-0.258 0.117,-0.3 0.068,-0.036 0.18,-0.054 0.337,-0.054 h 1.377 c 0.041,0 0.074,-0.031 0.074,-0.069 v -0.015 c 0,-0.037 -0.033,-0.068 -0.074,-0.068 h -1.743 c -0.041,0 -0.074,-0.03 -0.074,-0.068 v -0.158 c 0,-0.038 0.033,-0.068 0.074,-0.068 h 1.746 c 0.108,0 0.191,0.009 0.249,0.029 0.058,0.02 0.101,0.053 0.13,0.099 0.027,0.042 0.04,0.108 0.04,0.196 0,0.052 -0.005,0.106 -0.014,0.161 C 0.025,-0.064 0.013,-0.024 0,0"
       style="fill:#cccccc;fill-opacity:1;fill-rule:nonzero;stroke:none"
       id="path170" /></g><g
     id="g172"
     transform="matrix(1.3333333,0,0,-1.3333333,173.33213,176.54827)"><path
       inkscape:connector-curvature="0"
       d="m 0,0 h -1.782 c -0.041,0 -0.074,0.031 -0.074,0.068 v 0.328 c 0,0.038 -0.033,0.069 -0.074,0.069 h -0.218 c -0.041,0 -0.075,-0.031 -0.075,-0.069 V 0.068 C -2.223,0.031 -2.256,0 -2.297,0 h -0.1 c -0.041,0 -0.074,-0.031 -0.074,-0.068 v -0.141 c 0,-0.038 0.033,-0.068 0.074,-0.068 h 0.1 c 0.041,0 0.074,-0.031 0.074,-0.069 v -0.399 c 10e-4,-0.108 0.019,-0.192 0.054,-0.252 0.018,-0.033 0.05,-0.061 0.097,-0.086 0.06,-0.035 0.169,-0.053 0.328,-0.054 H 0 c 0.041,0 0.074,0.031 0.074,0.068 v 0.165 c 0,0.038 -0.033,0.069 -0.074,0.069 h -1.782 c -0.041,0 -0.074,0.03 -0.074,0.068 v 0.421 c 0,0.038 0.033,0.069 0.074,0.069 H 0 c 0.041,0 0.074,0.03 0.074,0.068 v 0.141 C 0.074,-0.031 0.041,0 0,0"
       style="fill:#cccccc;fill-opacity:1;fill-rule:nonzero;stroke:none"
       id="path174" /></g><g
     id="g176"
     transform="matrix(1.3333333,0,0,-1.3333333,176.49653,177.018)"><path
       inkscape:connector-curvature="0"
       d="m 0,0 c 0,-0.038 -0.033,-0.068 -0.074,-0.068 h -1.448 c -0.041,0 -0.074,0.03 -0.074,0.068 v 0.014 c 0,0.037 0.033,0.068 0.074,0.068 h 1.448 C -0.033,0.082 0,0.051 0,0.014 Z M 0.212,0.314 C 0.163,0.339 0.038,0.352 -0.163,0.352 H -1.596 C -1.718,0.352 -1.809,0.328 -1.867,0.281 -1.931,0.23 -1.963,0.152 -1.963,0.046 V -0.43 c 0,-0.115 0.028,-0.202 0.084,-0.26 0.06,-0.063 0.154,-0.095 0.283,-0.095 h 1.843 c 0.041,0 0.074,0.031 0.074,0.069 v 0.158 c 0,0.037 -0.033,0.068 -0.074,0.068 h -1.769 c -0.041,0 -0.074,0.031 -0.074,0.068 v 0.015 c 0,0.038 0.033,0.068 0.074,0.068 h 1.796 c 0.041,0 0.074,0.031 0.074,0.069 v 0.232 C 0.348,0.09 0.336,0.176 0.311,0.222 0.29,0.263 0.257,0.294 0.212,0.314"
       style="fill:#cccccc;fill-opacity:1;fill-rule:nonzero;stroke:none"
       id="path178" /></g><g
     id="g180"
     transform="matrix(1.3333333,0,0,-1.3333333,180.8128,176.54827)"><path
       inkscape:connector-curvature="0"
       d="M 0,0 H -2.446 C -2.487,0 -2.52,-0.031 -2.52,-0.068 v -1.001 c 0,-0.037 0.033,-0.068 0.074,-0.068 h 0.205 c 0.04,0 0.074,0.031 0.074,0.068 v 0.73 c 0,0.038 0.033,0.069 0.074,0.069 h 0.768 c 0.041,0 0.074,-0.031 0.074,-0.069 v -0.73 c 0,-0.037 0.034,-0.068 0.074,-0.068 h 0.205 c 0.041,0 0.074,0.031 0.074,0.068 v 0.73 c 0,0.038 0.033,0.069 0.074,0.069 h 0.75 C -0.033,-0.27 0,-0.301 0,-0.339 v -0.73 c 0,-0.037 0.033,-0.068 0.074,-0.068 h 0.205 c 0.041,0 0.074,0.031 0.074,0.068 v 0.799 c 0,0.081 -0.022,0.144 -0.067,0.189 C 0.239,-0.028 0.144,-0.001 0,0"
       style="fill:#cccccc;fill-opacity:1;fill-rule:nonzero;stroke:none"
       id="path182" /></g><g
     id="g184"
     transform="matrix(1.3333333,0,0,-1.3333333,106.66666,197.33333)"><path
       inkscape:connector-curvature="0"
       d="m 0,0 c 0,-7.57 -2.634,-14.521 -7.028,-20 h 1.253 C -1.53,-14.446 1,-7.514 1,0 c 0,18.196 -14.804,33 -33,33 -4.233,0 -8.278,-0.81 -12,-2.268 V 29.665 C -40.293,31.166 -36.245,32 -32,32 -14.327,32 0,17.673 0,0"
       style="fill:#4c4c4c;fill-opacity:1;fill-rule:nonzero;stroke:none"
       id="path186" /></g><g
     id="g188"
     transform="matrix(1.3333333,0,0,-1.3333333,63.999998,157.33333)"><path
       inkscape:connector-curvature="0"
       d="M 0,0 C -4.265,0 -8.323,-0.901 -12,-2.512 V -4.698 C -8.363,-2.97 -4.295,-2 0,-2 c 15.464,0 28,-12.536 28,-28 0,-7.837 -3.223,-14.918 -8.412,-20 h 2.749 C 27.098,-44.688 30,-37.678 30,-30 30,-13.458 16.542,0 0,0"
       style="fill:#4c4c4c;fill-opacity:1;fill-rule:nonzero;stroke:none"
       id="path190" /></g><g
     id="g192"
     transform="matrix(1.3333333,0,0,-1.3333333,245.79946,170.66667)"><path
       inkscape:connector-curvature="0"
       d="M 0,0 -4,-2.791 V -12 h 8 v 9.209 z"
       style="fill:#b80000;fill-opacity:1;fill-rule:nonzero;stroke:none"
       id="path194" /></g><g
     id="g196"
     transform="matrix(1.3333333,0,0,-1.3333333,282.66666,170.66667)"><path
       inkscape:connector-curvature="0"
       d="M 0,0 -4,-2.791 V -12 h 8 v 9.209 z"
       style="fill:#b80000;fill-opacity:1;fill-rule:nonzero;stroke:none"
       id="path198" /></g><path
     id="path128"
     style="fill:#333333;fill-opacity:1;fill-rule:nonzero;stroke:none;stroke-width:1.33333325"
     d="m 207.99957,137.27081 c 0,4.41867 -3.58133,8 -8,8 -4.41867,0 -8,-3.58133 -8,-8 0,-4.41867 3.58133,-8 8,-8 4.41867,0 8,3.58133 8,8"
     inkscape:connector-curvature="0" /><path
     inkscape:connector-curvature="0"
     d="m 158.47158,144.11348 h 1.61333 v -11.25466 h -1.61333 z m 3.10533,-5.62267 c 0,1.86 -0.016,3.72 0.009,5.58 0.007,0.488 -0.75733,1.05734 -1.548,1.024 -0.532,-0.0227 -1.068,-0.003 -1.60133,-0.004 -0.81067,-0.004 -1.51733,-0.46666 -1.51733,-1.00133 -0.001,-3.736 -0.001,-7.47333 0,-11.21066 0,-0.464 0.54266,-0.884 1.27466,-0.92 0.67334,-0.0333 1.356,-0.024 2.032,0.001 0.512,0.02 0.90667,0.21867 1.168,0.504 0.108,0.11733 0.17334,0.27067 0.17467,0.408 0.0107,1.87333 0.008,3.74533 0.008,5.61866"
     style="fill:#333333;fill-opacity:1;fill-rule:nonzero;stroke:none;stroke-width:1.33333325"
     id="path130-3" /><path
     id="path134-0"
     style="fill:#333333;fill-opacity:1;fill-rule:nonzero;stroke:none;stroke-width:1.33333325"
     d="m 169.14051,133.67175 h -1.492 v -3.18667 h -1.752 v 0.16667 c 0,4.44667 0.001,8.89333 -0.004,13.34 0,0.148 0.0547,0.18667 0.23333,0.18267 0.44534,-0.009 0.892,-0.003 1.33734,-0.004 0.068,0 0.13466,-0.004 0.21066,-0.008 v -6.844 h -0.73733 v -1.08134 c 0.064,-0.004 0.12,-0.009 0.17467,-0.009 0.616,-0.001 1.23066,0.001 1.84666,-0.003 0.144,-0.001 0.19467,0.028 0.19467,0.15067 0,2.91867 0.005,5.83867 0.008,8.75733 0,0.0387 -0.007,0.0787 -0.009,0.12667 -0.064,0.004 -0.11734,0.009 -0.172,0.009 -0.97334,10e-4 -1.948,-0.001 -2.92134,10e-4 -0.48,0.001 -0.88,-0.13734 -1.208,-0.41334 -0.24533,-0.204 -0.37333,-0.44533 -0.37333,-0.732 10e-4,-4.548 0,-9.09466 10e-4,-13.64266 0,-0.63067 0.67867,-1.192 1.464,-1.20534 0.584,-0.008 1.168,-0.008 1.752,0.001 0.75334,0.0107 1.444,0.54933 1.452,1.14933 0.0147,1.06 0.005,2.12 0.005,3.18 0,0.02 -0.007,0.0387 -0.0107,0.064"
     inkscape:connector-curvature="0" /><path
     id="path138-6"
     style="fill:#333333;fill-opacity:1;fill-rule:nonzero;stroke:none;stroke-width:1.33333325"
     d="m 186.67158,132.15362 h 1.47333 v 0.42133 c 0,1.39467 10e-4,2.78934 -0.003,4.184 0,0.104 0.0387,0.18934 0.128,0.27334 0.244,0.23066 0.47733,0.464 0.73066,0.712 0.16134,-0.15467 0.296,-0.30934 0.46667,-0.444 0.30533,-0.24 0.392,-0.50534 0.38667,-0.81867 -0.0227,-1.38667 -0.009,-2.772 -0.009,-4.15867 v -0.16666 h 1.45734 v 0.39466 c 0,1.35734 0,2.71467 0,4.072 0,0.256 -0.13867,0.488 -0.31334,0.70667 -0.33866,0.42267 -0.7,0.83733 -1.06266,1.252 -0.064,0.0733 -0.068,0.12 -0.003,0.196 0.4,0.46667 0.79467,0.93333 1.172,1.408 0.176,0.22133 0.22667,0.46533 0.22533,0.71867 -0.009,1.39066 -0.005,2.78133 -0.005,4.172 v 0.156 h -1.364 v -0.17334 c 0,-1.46 0.001,-2.92133 -0.005,-4.38133 0,-0.084 -0.0453,-0.17867 -0.11467,-0.25067 -0.248,-0.26133 -0.516,-0.516 -0.79333,-0.78933 -0.232,0.22667 -0.43867,0.44667 -0.67467,0.652 -0.188,0.16267 -0.25067,0.332 -0.24933,0.536 0.012,1.41467 0.007,2.83067 0.007,4.24533 v 0.16267 h -1.44933 v -0.16533 c 0,-1.37334 0.007,-2.748 -0.005,-4.12134 -0.003,-0.276 0.0627,-0.53733 0.26133,-0.77466 0.39467,-0.47334 0.80667,-0.94 1.22133,-1.40534 0.068,-0.076 0.0627,-0.12266 -0.004,-0.196 -0.42133,-0.46266 -0.84266,-0.92533 -1.244,-1.396 -0.18266,-0.21466 -0.23466,-0.45333 -0.23333,-0.704 0.009,-1.38133 0.004,-2.764 0.004,-4.14666 z"
     inkscape:connector-curvature="0" /><path
     id="path142-3"
     style="fill:#333333;fill-opacity:1;fill-rule:nonzero;stroke:none;stroke-width:1.33333325"
     d="m 152.32611,137.55255 c 0.50533,0 0.988,-0.008 1.47067,0.004 0.184,0.004 0.228,-0.048 0.22666,-0.212 -0.007,-1.31467 -0.004,-2.628 -0.004,-3.94267 0,-0.0613 -0.007,-0.12266 -0.0107,-0.184 h -1.68267 z m 3.392,7.53467 c -0.43067,0 -0.84933,0.004 -1.268,-0.005 -0.04,-0.001 -0.10133,-0.076 -0.11333,-0.124 -0.32,-1.25066 -0.63334,-2.50133 -0.94934,-3.752 -0.18933,-0.75466 -0.38,-1.508 -0.572,-2.27066 h -0.556 v 6.18 h -1.376 c -0.004,-0.0787 -0.009,-0.14667 -0.009,-0.21467 0,-4.24267 0,-8.48667 0,-12.73067 0,-0.22533 0,-0.22533 0.24533,-0.22533 0.91067,0 1.82267,0.003 2.73334,0 0.52133,-0.003 0.95333,0.176 1.30133,0.52533 0.19733,0.19867 0.29067,0.44 0.29067,0.708 0.001,1.41334 0.003,2.82667 0,4.23867 -0.001,0.304 -0.0813,0.59067 -0.26534,0.84933 -0.21066,0.29334 -0.484,0.50934 -0.908,0.57334 0.48267,2.08266 0.964,4.16 1.44667,6.248"
     inkscape:connector-curvature="0" /><path
     id="path146-6"
     style="fill:#333333;fill-opacity:1;fill-rule:nonzero;stroke:none;stroke-width:1.33333325"
     d="m 134.78544,136.01135 c 0.50533,0 0.988,-0.009 1.47067,0.005 0.184,0.005 0.228,-0.0587 0.22666,-0.256 -0.007,-1.57866 -0.004,-3.15866 -0.004,-4.73733 0,-0.0733 -0.007,-0.14667 -0.0107,-0.22267 h -1.68267 z m 3.392,9.056 c -0.43067,0 -0.84933,0.004 -1.268,-0.008 -0.04,0 -0.10133,-0.0907 -0.11333,-0.14933 -0.32,-1.50134 -0.63334,-3.00534 -0.94934,-4.508 -0.18933,-0.90667 -0.38,-1.812 -0.572,-2.72934 h -0.556 v 7.42667 h -1.376 c -0.004,-0.0933 -0.009,-0.17467 -0.009,-0.256 0,-5.1 0,-10.20133 0,-15.30133 0,-0.26934 0,-0.27067 0.24533,-0.27067 0.912,0 1.82267,0.003 2.73334,0 0.52133,-0.003 0.95333,0.21067 1.30133,0.632 0.19733,0.23867 0.29067,0.52933 0.29067,0.85067 0.001,1.69866 0.003,3.396 0,5.09333 -0.001,0.36533 -0.0813,0.71067 -0.26534,1.02133 -0.21066,0.35334 -0.484,0.612 -0.908,0.688 0.48267,2.504 0.964,5 1.44667,7.51067"
     inkscape:connector-curvature="0" /><path
     id="path150-5"
     style="fill:#333333;fill-opacity:1;fill-rule:nonzero;stroke:none;stroke-width:1.33333325"
     d="m 173.80838,133.33455 h -1.68 v 4.34133 c 0.49467,0 0.976,-0.0107 1.45733,0.004 0.2,0.007 0.23734,-0.0573 0.236,-0.224 -0.007,-1.308 -0.003,-2.616 -0.004,-3.924 0,-0.0627 -0.005,-0.124 -0.009,-0.19733 m -3.1,-1.25333 h 0.21333 c 0.924,0 1.848,0 2.77067,0 0.55867,0 1.02133,0.19733 1.344,0.61066 0.12,0.15467 0.21067,0.36667 0.21333,0.55334 0.0173,1.464 0.012,2.928 0.008,4.39333 -0.003,0.63867 -0.436,1.13733 -1.16133,1.348 0.48133,2.07733 0.96267,4.156 1.44667,6.24533 h -1.34667 c -0.0973,-0.376 -0.19467,-0.748 -0.288,-1.12133 -0.40667,-1.608 -0.81333,-3.216 -1.212,-4.82533 -0.0413,-0.16667 -0.104,-0.25467 -0.30667,-0.224 -0.0907,0.0147 -0.18533,0.003 -0.29466,0.003 v 6.18667 h -1.38667 z"
     inkscape:connector-curvature="0" /><path
     id="path154-9"
     style="fill:#333333;fill-opacity:1;fill-rule:nonzero;stroke:none;stroke-width:1.33333325"
     d="m 178.20904,133.42162 v 4.25333 c 0.504,0 0.99333,-0.007 1.48133,0.004 0.172,0.004 0.208,-0.0493 0.20667,-0.196 -0.005,-1.29066 -0.003,-2.58133 -0.004,-3.872 0,-0.06 -0.005,-0.12133 -0.009,-0.18933 z m 3.104,11.80667 h -1.38133 v -6.24934 h -1.792 v 6.24934 h -1.36534 c -0.003,-0.072 -0.009,-0.13334 -0.009,-0.19467 0,-3.90533 0,-7.81067 0,-11.716 0,-0.656 0.556,-1.18933 1.27467,-1.204 0.63466,-0.012 1.26933,-0.012 1.904,0 0.86533,0.016 1.36933,0.49867 1.36933,1.28933 0.001,2.81334 0,5.628 0,8.44134 0,1.05733 0,2.11333 0,3.17066 0,0.0667 0,0.13467 0,0.21334"
     inkscape:connector-curvature="0" /><path
     id="path158-1"
     style="fill:#333333;fill-opacity:1;fill-rule:nonzero;stroke:none;stroke-width:1.33333325"
     d="m 185.77291,132.12308 v 1.12267 h -2.13867 v 4.45333 h 1.75467 v 1.26267 h -1.756 v 6.26666 h -1.40667 c 0,-0.08 0,-0.14666 0,-0.21333 0,-3.90933 0,-7.81867 0,-11.728 0,-0.664 0.54134,-1.17067 1.264,-1.176 0.704,-0.005 1.40667,-10e-4 2.11067,-10e-4 0.0493,0 0.0973,0.008 0.172,0.0133"
     inkscape:connector-curvature="0" /><path
     id="path162-0"
     style="fill:#e6e6e6;fill-opacity:1;fill-rule:nonzero;stroke:none;stroke-width:1.3333333;font-variant-east_asian:normal;opacity:1;vector-effect:none;stroke-linecap:butt;stroke-linejoin:miter;stroke-miterlimit:4;stroke-dasharray:none;stroke-dashoffset:0;stroke-opacity:1"
     d="m 201.86077,137.71201 c -0.79067,0 -1.58133,0.004 -2.37333,-0.004 -0.168,-0.001 -0.22134,0.0573 -0.22,0.21733 0.005,0.51067 0.005,1.02134 0,1.532 -0.001,0.15867 0.052,0.224 0.22,0.224 1.58133,-0.005 3.164,-0.005 4.74533,0 0.16667,0 0.22267,-0.064 0.22,-0.22266 -0.004,-0.504 -0.007,-1.008 0.001,-1.512 0.003,-0.18 -0.056,-0.24134 -0.24133,-0.23867 -0.784,0.009 -1.568,0.004 -2.352,0.004 m 0.0213,-3.66133 c 0.88934,0 1.77867,-0.004 2.668,0.007 0.11734,0.001 0.244,0.0707 0.34934,0.13467 0.368,0.22533 0.39066,0.58 0.37333,0.96933 -0.0227,0.53867 -0.005,0.532 -0.54933,0.53734 -0.18134,0.001 -0.22267,-0.0653 -0.22134,-0.232 0.003,-0.608 -0.003,-0.608 -0.62133,-0.608 -1.456,0 -2.91333,0 -4.37067,0 -0.28933,0 -0.29066,0.001 -0.29066,0.29333 0,0.49733 0.008,0.99467 -0.004,1.492 -0.004,0.20133 0.0627,0.26533 0.264,0.264 1.696,-0.007 3.39066,-0.004 5.08666,-0.003 0.34267,0 0.70134,0.35867 0.70134,0.70267 0,0.69333 -0.005,1.388 0.003,2.08133 0.001,0.16 -0.0573,0.26667 -0.15466,0.38934 -0.26134,0.33066 -0.57867,0.428 -1,0.42133 -1.61067,-0.0253 -3.22134,-0.012 -4.83334,-0.005 -0.184,0 -0.30533,-0.0693 -0.444,-0.18134 -0.30933,-0.25066 -0.40133,-0.54933 -0.39466,-0.94666 0.024,-1.50534 0.012,-3.012 0.005,-4.51867 0,-0.17467 0.06,-0.292 0.16933,-0.42533 0.24134,-0.3 0.52667,-0.396 0.91067,-0.38134 0.78267,0.032 1.568,0.009 2.35333,0.009"
     inkscape:connector-curvature="0" /><path
     id="path166-4"
     style="fill:#e6e6e6;fill-opacity:1;fill-rule:nonzero;stroke:none;stroke-width:1.3333333;font-variant-east_asian:normal;opacity:1;vector-effect:none;stroke-linecap:butt;stroke-linejoin:miter;stroke-miterlimit:4;stroke-dasharray:none;stroke-dashoffset:0;stroke-opacity:1"
     d="m 196.32704,136.85922 c 0,0.85333 0.004,1.708 -0.004,2.56133 -0.001,0.19734 0.056,0.26934 0.26267,0.26534 0.572,-0.009 0.572,0 0.57066,0.564 0,0.27866 0,0.27866 -0.272,0.28 -0.66533,0 -1.32933,-0.005 -1.99466,0.003 -0.168,0.001 -0.23334,-0.0427 -0.23467,-0.22266 -0.001,-0.58534 -0.008,-0.58934 0.57467,-0.59467 0.17333,-0.001 0.24533,-0.0427 0.244,-0.236 -0.008,-1.448 -0.007,-2.89733 0,-4.34667 10e-4,-0.18 -0.044,-0.25733 -0.23334,-0.23733 -0.13866,0.0133 -0.28133,0.016 -0.41866,-0.005 -0.056,-0.008 -0.14,-0.088 -0.14534,-0.14134 -0.0707,-0.70933 -0.068,-0.70933 0.636,-0.70933 0.26,0 0.51867,0.009 0.77734,-0.004 0.184,-0.008 0.24266,0.0587 0.24133,0.24133 -0.008,0.86134 -0.004,1.72134 -0.004,2.58267"
     inkscape:connector-curvature="0" /><path
     id="path170-3"
     style="fill:#333333;fill-opacity:1;fill-rule:nonzero;stroke:none;stroke-width:1.33333325"
     d="m 142.43878,143.81428 h -0.628 -0.21733 -0.84667 v -0.20533 c 0,-0.384 0,-0.76934 0,-1.15334 0,-1.11333 0,-2.22666 0,-3.34133 0.001,-0.22 0.001,-0.22 0.248,-0.22 0.2,0 0.39867,0 0.59867,0 v 0 h 2.3 c 0,-0.44533 0,-0.892 0,-1.33733 h -2.584 v -0.0133 h -0.544 v -4.33466 h 0.544 0.292 2.29466 c 0.001,-0.348 0.001,-0.696 0.001,-1.044 0,-0.168 -0.0373,-0.22667 -0.236,-0.22534 -0.97334,0.0107 -1.94667,0.004 -2.92,0.005 -0.812,0.001 -1.40267,0.53733 -1.404,1.27866 -0.003,1.30934 -0.003,9.05867 0,10.592 0.001,0.78267 0.54933,1.28134 1.40266,1.28 0.98534,-0.001 1.97067,-0.005 2.95734,-0.008 0.0547,0 0.11066,0 0.184,0 0.004,-0.0787 0.012,-0.14666 0.012,-0.21333 0,-0.35333 0,-0.70667 0,-1.06 z"
     inkscape:connector-curvature="0" /><path
     id="path174-7"
     style="fill:#333333;fill-opacity:1;fill-rule:nonzero;stroke:none;stroke-width:1.33333325"
     d="m 149.28198,131.94468 h -0.23333 c -0.74134,0 -4.07067,0 -4.07067,0 v 1.26533 h 1.53733 v 12.06134 h 1.51067 v -12.06134 h 1.252 v -0.34666 h 0.004 z"
     inkscape:connector-curvature="0" /></svg>