<?xml version="1.0" encoding="UTF-8" standalone="no"?>
<svg
   xmlns:dc="http://purl.org/dc/elements/1.1/"
   xmlns:cc="http://creativecommons.org/ns#"
   xmlns:rdf="http://www.w3.org/1999/02/22-rdf-syntax-ns#"
   xmlns:svg="http://www.w3.org/2000/svg"
   xmlns="http://www.w3.org/2000/svg"
   xmlns:sodipodi="http://sodipodi.sourceforge.net/DTD/sodipodi-0.dtd"
   xmlns:inkscape="http://www.inkscape.org/namespaces/inkscape"
   viewBox="0 0 341.33334 341.33334"
   height="341.33334"
   width="341.33334"
   xml:space="preserve"
   id="svg2"
   version="1.1"
   sodipodi:docname="NEC - PC Engine CD - TurboGrafx CD.svg"
   inkscape:version="0.92.2 (5c3e80d, 2017-08-06)"><sodipodi:namedview
     pagecolor="#ffffff"
     bordercolor="#666666"
     borderopacity="1"
     objecttolerance="10"
     gridtolerance="10"
     guidetolerance="10"
     inkscape:pageopacity="0"
     inkscape:pageshadow="2"
     inkscape:window-width="1024"
     inkscape:window-height="705"
     id="namedview122"
     showgrid="false"
     inkscape:pagecheckerboard="true"
     inkscape:zoom="0.69140623"
     inkscape:cx="170.66667"
     inkscape:cy="170.66667"
     inkscape:window-x="-8"
     inkscape:window-y="-8"
     inkscape:window-maximized="1"
     inkscape:current-layer="svg2" /><metadata
     id="metadata8"><rdf:RDF><cc:Work
         rdf:about=""><dc:format>image/svg+xml</dc:format><dc:type
           rdf:resource="http://purl.org/dc/dcmitype/StillImage" /><dc:title></dc:title></cc:Work></rdf:RDF></metadata><defs
     id="defs6"><clipPath
       id="clipPath18"
       clipPathUnits="userSpaceOnUse"><path
         id="path16"
         d="M 0,256 H 256 V 0 H 0 Z" /></clipPath><clipPath
       id="clipPath26"
       clipPathUnits="userSpaceOnUse"><path
         id="path24"
         d="M 4,188 H 252 V 68 H 4 Z" /></clipPath></defs><g
     id="g22"
     transform="matrix(1.3333333,0,0,-1.3333333,0,341.33333)" /><path
     id="path38"
     style="fill:#333333;fill-opacity:1;fill-rule:nonzero;stroke:none;stroke-width:1.33333325"
     d="m 16,231.52627 c 0,4.68 3.793333,8.47333 8.473333,8.47333 H 316.85999 c 4.68,0 8.47334,-3.79333 8.47334,-8.47333 v -101.784 c 0,-4.224 -3.11067,-7.80266 -7.29334,-8.39066 L 214.14933,106.74894 c -0.39067,-0.0547 -0.78533,-0.0827 -1.17867,-0.0827 h -85.80933 c -0.39867,0 -0.79733,0.028 -1.192,0.0853 L 23.281333,121.34227 C 19.104,121.93561 16,125.51161 16,129.73161"
     inkscape:connector-curvature="0" /><path
     id="path42"
     style="fill:#191919;fill-opacity:1;fill-rule:nonzero;stroke:none;stroke-width:1.33333325"
     d="m 303.99999,208.34387 c 0,-5.664 -2.24267,-10.8 -5.88267,-14.576 v -58.02666 c 0,-4.276 -3.45866,-7.74134 -7.72666,-7.74134 h -56.56267 c -3.988,0 -7.22,3.24 -7.22,7.23467 v 3.01467 c 0,32.42133 -26.82133,58.82933 -59.14533,57.31733 -29.94133,-1.40134 -53.78667,-26.16667 -53.78667,-56.51333 v -5.024 c 0,-3.32934 -2.69466,-6.02934 -6.01866,-6.02934 h -57.264 c -4.268,0 -7.726667,3.46534 -7.726667,7.74134 v 28.44133 c 0,2.652 2.845333,4.29066 5.156,2.99866 5.156,-2.88533 11.177333,-4.404 17.577333,-4.064 17.082666,0.91067 30.666666,15.26134 30.723999,32.4 0.03867,11.52667 -5.908,21.65867 -14.895999,27.47467 -0.658667,2.83867 -0.198667,6.3 5.969333,6.3 H 240.80266 c 0.41733,0.0253 0.83733,0.0413 1.26133,0.0413 h 40.98667 c 0.424,0 0.844,-0.016 1.26133,-0.0413 0,0 5.34,-0.64933 6.71733,-1.53867 7.612,-3.144 12.97067,-10.648 12.97067,-19.40933"
     inkscape:connector-curvature="0" /><path
     id="path46"
     style="fill:#4c4c4c;fill-opacity:1;fill-rule:nonzero;stroke:none;stroke-width:1.33333325"
     d="M 212.63626,101.33334 H 128.6976 c -1.85867,0 -3.364,1.49867 -3.364,3.34667 v 36.88133 c 0,24.91067 20.296,45.10533 45.33333,45.10533 25.03733,0 45.33333,-20.19466 45.33333,-45.10533 v -36.88133 c 0,-1.848 -1.50667,-3.34667 -3.364,-3.34667"
     inkscape:connector-curvature="0" /><path
     id="path50"
     style="fill:#000000;fill-opacity:1;fill-rule:nonzero;stroke:none;stroke-width:1.33333325"
     d="m 93.333331,196 c 0,16.2 -13.133333,29.33333 -29.333333,29.33333 C 47.799999,225.33333 34.666666,212.2 34.666666,196 c 0,-16.2 13.133333,-29.33333 29.333332,-29.33333 16.2,0 29.333333,13.13333 29.333333,29.33333"
     inkscape:connector-curvature="0" /><path
     id="path54"
     style="fill:#404040;fill-opacity:1;fill-rule:nonzero;stroke:none;stroke-width:1.33333325"
     d="m 90.666664,196 c 0,14.728 -11.938666,26.66667 -26.666666,26.66667 -14.728,0 -26.666666,-11.93867 -26.666666,-26.66667 0,-14.728 11.938666,-26.66667 26.666666,-26.66667 14.728,0 26.666666,11.93867 26.666666,26.66667"
     inkscape:connector-curvature="0" /><path
     id="path58"
     style="fill:#4c4c4c;fill-opacity:1;fill-rule:nonzero;stroke:none;stroke-width:1.33333325"
     d="m 70.524798,170.14067 c -2.088,-0.52533 -4.273333,-0.80667 -6.525333,-0.80667 -2.250667,0 -4.436,0.28134 -6.524,0.80667 v 19.33467 H 38.140799 c -0.525334,2.088 -0.808,4.27333 -0.808,6.52533 0,2.25067 0.282666,4.436 0.808,6.524 h 19.334666 v 19.33467 c 2.088,0.52533 4.273333,0.808 6.524,0.808 2.252,0 4.437333,-0.28267 6.525333,-0.808 v -19.33467 h 19.334666 c 0.525334,-2.088 0.806667,-4.27333 0.806667,-6.524 0,-2.252 -0.281333,-4.43733 -0.806667,-6.52533 H 70.524798 Z"
     inkscape:connector-curvature="0" /><path
     id="path62"
     style="fill:#404040;fill-opacity:1;fill-rule:nonzero;stroke:none;stroke-width:1.33333325"
     d="m 70.666665,196 c 0,3.68133 -2.985333,6.66667 -6.666667,6.66667 -3.681333,0 -6.666666,-2.98534 -6.666666,-6.66667 0,-3.68133 2.985333,-6.66667 6.666666,-6.66667 3.681334,0 6.666667,2.98534 6.666667,6.66667"
     inkscape:connector-curvature="0" /><path
     id="path66"
     style="fill:#595959;fill-opacity:1;fill-rule:nonzero;stroke:none;stroke-width:1.33333325"
     d="m 258.75839,208 c 0,7.41467 -6.01067,13.42533 -13.42533,13.42533 -7.41467,0 -13.42534,-6.01066 -13.42534,-13.42533 0,-7.41467 6.01067,-13.42533 13.42534,-13.42533 7.41466,0 13.42533,6.01066 13.42533,13.42533"
     inkscape:connector-curvature="0" /><path
     id="path70"
     style="fill:#191919;fill-opacity:1;fill-rule:nonzero;stroke:none;stroke-width:1.33333325"
     d="M 245.33333,194.66667 C 237.96933,194.66667 232,200.636 232,208 c 0,7.364 5.96933,13.33334 13.33333,13.33334 7.364,0 13.33333,-5.96934 13.33333,-13.33334 0,-7.364 -5.96933,-13.33333 -13.33333,-13.33333 m 0,1.84933 c 6.332,0 11.484,5.152 11.484,11.484 0,6.332 -5.152,11.484 -11.484,11.484 -6.332,0 -11.484,-5.152 -11.484,-11.484 0,-6.332 5.152,-11.484 11.484,-11.484"
     inkscape:connector-curvature="0" /><path
     id="path74"
     style="fill:#333333;fill-opacity:1;fill-rule:nonzero;stroke:none;stroke-width:1.33333325"
     d="m 245.33333,193.33333 c -8.08667,0 -14.66667,6.58 -14.66667,14.66667 0,8.08666 6.58,14.66666 14.66667,14.66666 C 253.42,222.66666 260,216.08666 260,208 c 0,-8.08667 -6.58,-14.66667 -14.66667,-14.66667 m 0,1.24133 c 7.41467,0 13.42533,6.01067 13.42533,13.42534 0,7.41466 -6.01066,13.42533 -13.42533,13.42533 -7.41467,0 -13.42533,-6.01067 -13.42533,-13.42533 0,-7.41467 6.01066,-13.42534 13.42533,-13.42534"
     inkscape:connector-curvature="0" /><path
     id="path78"
     style="fill:#595959;fill-opacity:1;fill-rule:nonzero;stroke:none;stroke-width:1.33333325"
     d="m 296.09173,208 c 0,7.41467 -6.01067,13.42533 -13.42533,13.42533 -7.41467,0 -13.42534,-6.01066 -13.42534,-13.42533 0,-7.41467 6.01067,-13.42533 13.42534,-13.42533 7.41466,0 13.42533,6.01066 13.42533,13.42533"
     inkscape:connector-curvature="0" /><path
     id="path82"
     style="fill:#191919;fill-opacity:1;fill-rule:nonzero;stroke:none;stroke-width:1.33333325"
     d="m 282.66666,194.66667 c -7.364,0 -13.33333,5.96933 -13.33333,13.33333 0,7.364 5.96933,13.33334 13.33333,13.33334 7.364,0 13.33333,-5.96934 13.33333,-13.33334 0,-7.364 -5.96933,-13.33333 -13.33333,-13.33333 m 0,1.84933 c 6.332,0 11.484,5.152 11.484,11.484 0,6.332 -5.152,11.484 -11.484,11.484 -6.332,0 -11.484,-5.152 -11.484,-11.484 0,-6.332 5.152,-11.484 11.484,-11.484"
     inkscape:connector-curvature="0" /><path
     id="path86"
     style="fill:#333333;fill-opacity:1;fill-rule:nonzero;stroke:none;stroke-width:1.33333325"
     d="m 282.66666,193.33333 c -8.08667,0 -14.66667,6.58 -14.66667,14.66667 0,8.08666 6.58,14.66666 14.66667,14.66666 8.08667,0 14.66667,-6.58 14.66667,-14.66666 0,-8.08667 -6.58,-14.66667 -14.66667,-14.66667 m 0,1.24133 c 7.41467,0 13.42533,6.01067 13.42533,13.42534 0,7.41466 -6.01066,13.42533 -13.42533,13.42533 -7.41467,0 -13.42533,-6.01067 -13.42533,-13.42533 0,-7.41467 6.01066,-13.42534 13.42533,-13.42534"
     inkscape:connector-curvature="0" /><path
     id="path90"
     style="fill:#404040;fill-opacity:1;fill-rule:nonzero;stroke:none;stroke-width:1.33333325"
     d="m 163.4584,208 c 0,2.032 -1.86533,3.67867 -4.16667,3.67867 h -14.584 c -2.3,0 -4.16533,-1.64667 -4.16533,-3.67867 0,-2.032 1.86533,-3.67867 4.16533,-3.67867 h 14.584 c 2.30134,0 4.16667,1.64667 4.16667,3.67867"
     inkscape:connector-curvature="0" /><path
     id="path94"
     style="fill:#333333;fill-opacity:1;fill-rule:nonzero;stroke:none;stroke-width:1.33333325"
     d="m 159.29173,202.66667 h -14.584 c -3.33067,0 -6.04133,2.392 -6.04133,5.33333 0,2.94134 2.71066,5.33334 6.04133,5.33334 h 14.584 c 3.332,0 6.04133,-2.392 6.04133,-5.33334 0,-2.94133 -2.70933,-5.33333 -6.04133,-5.33333 m 0,1.65467 c 2.30133,0 4.16667,1.64666 4.16667,3.67866 0,2.032 -1.86534,3.67867 -4.16667,3.67867 h -14.584 c -2.3,0 -4.16667,-1.64667 -4.16667,-3.67867 0,-2.032 1.86667,-3.67866 4.16667,-3.67866 h 14.584"
     inkscape:connector-curvature="0" /><path
     id="path98"
     style="fill:#404040;fill-opacity:1;fill-rule:nonzero;stroke:none;stroke-width:1.33333325"
     d="m 200.79159,208 c 0,2.032 -1.86533,3.67867 -4.16667,3.67867 h -14.584 c -2.3,0 -4.16533,-1.64667 -4.16533,-3.67867 0,-2.032 1.86533,-3.67867 4.16533,-3.67867 h 14.584 c 2.30134,0 4.16667,1.64667 4.16667,3.67867"
     inkscape:connector-curvature="0" /><path
     id="path102"
     style="fill:#333333;fill-opacity:1;fill-rule:nonzero;stroke:none;stroke-width:1.33333325"
     d="m 196.62493,202.66667 h -14.584 c -3.33067,0 -6.04133,2.392 -6.04133,5.33333 0,2.94134 2.71066,5.33334 6.04133,5.33334 h 14.584 c 3.332,0 6.04133,-2.392 6.04133,-5.33334 0,-2.94133 -2.70933,-5.33333 -6.04133,-5.33333 m 0,1.65467 c 2.30133,0 4.16667,1.64666 4.16667,3.67866 0,2.032 -1.86534,3.67867 -4.16667,3.67867 h -14.584 c -2.3,0 -4.16667,-1.64667 -4.16667,-3.67867 0,-2.032 1.86667,-3.67866 4.16667,-3.67866 h 14.584"
     inkscape:connector-curvature="0" /><path
     id="path106"
     style="fill:#333333;fill-opacity:1;fill-rule:nonzero;stroke:none;stroke-width:1.33333325"
     d="m 282.66666,165.33333 v 0 c -2.93333,0 -5.33333,-2.4 -5.33333,-5.33333 v -10.66667 c 0,-2.93333 2.4,-5.33333 5.33333,-5.33333 2.93333,0 5.33333,2.4 5.33333,5.33333 V 160 c 0,2.93333 -2.4,5.33333 -5.33333,5.33333"
     inkscape:connector-curvature="0" /><path
     id="path110"
     style="fill:#333333;fill-opacity:1;fill-rule:nonzero;stroke:none;stroke-width:1.33333325"
     d="m 282.66666,142.66667 c -3.676,0 -6.66667,2.99067 -6.66667,6.66667 V 160 c 0,3.676 2.99067,6.66667 6.66667,6.66667 3.676,0 6.66667,-2.99067 6.66667,-6.66667 v -10.66666 c 0,-3.676 -2.99067,-6.66667 -6.66667,-6.66667 m 0,1.33333 c 2.93333,0 5.33333,2.4 5.33333,5.33334 V 160 c 0,2.93334 -2.4,5.33334 -5.33333,5.33334 -2.93333,0 -5.33333,-2.4 -5.33333,-5.33334 v -10.66666 c 0,-2.93334 2.4,-5.33334 5.33333,-5.33334"
     inkscape:connector-curvature="0" /><path
     id="path114"
     style="fill:#404040;fill-opacity:1;fill-rule:nonzero;stroke:none;stroke-width:1.33333325"
     d="m 287.99999,160 c 0,2.94533 -2.388,5.33333 -5.33333,5.33333 -2.94534,0 -5.33334,-2.388 -5.33334,-5.33333 0,-2.94533 2.388,-5.33333 5.33334,-5.33333 2.94533,0 5.33333,2.388 5.33333,5.33333"
     inkscape:connector-curvature="0" /><path
     id="path118"
     style="fill:#333333;fill-opacity:1;fill-rule:nonzero;stroke:none;stroke-width:1.33333325"
     d="m 245.33333,165.33333 v 0 C 242.4,165.33333 240,162.93333 240,160 V 149.33333 C 240,146.4 242.4,144 245.33333,144 c 2.93333,0 5.33333,2.4 5.33333,5.33333 V 160 c 0,2.93333 -2.4,5.33333 -5.33333,5.33333"
     inkscape:connector-curvature="0" /><path
     id="path122"
     style="fill:#333333;fill-opacity:1;fill-rule:nonzero;stroke:none;stroke-width:1.33333325"
     d="m 245.33333,142.66667 c -3.676,0 -6.66667,2.99067 -6.66667,6.66667 V 160 c 0,3.676 2.99067,6.66667 6.66667,6.66667 3.676,0 6.66667,-2.99067 6.66667,-6.66667 v -10.66666 c 0,-3.676 -2.99067,-6.66667 -6.66667,-6.66667 m 0,1.33333 c 2.93333,0 5.33333,2.4 5.33333,5.33334 V 160 c 0,2.93334 -2.4,5.33334 -5.33333,5.33334 C 242.4,165.33334 240,162.93334 240,160 V 149.33334 C 240,146.4 242.4,144 245.33333,144"
     inkscape:connector-curvature="0" /><path
     id="path126"
     style="fill:#404040;fill-opacity:1;fill-rule:nonzero;stroke:none;stroke-width:1.33333325"
     d="m 250.66666,160 c 0,2.94533 -2.388,5.33333 -5.33333,5.33333 -2.94534,0 -5.33334,-2.388 -5.33334,-5.33333 0,-2.94533 2.388,-5.33333 5.33334,-5.33333 2.94533,0 5.33333,2.388 5.33333,5.33333"
     inkscape:connector-curvature="0" /><path
     id="path130"
     style="fill:#e6e6e6;fill-opacity:1;fill-rule:nonzero;stroke:none;stroke-width:1.33333325"
     d="m 255.99999,149.33333 v 0 c -1.47333,0 -2.66667,-1.19333 -2.66667,-2.66667 0,-1.47333 1.19334,-2.66666 2.66667,-2.66666 1.47333,0 2.66667,1.19333 2.66667,2.66666 0,1.47334 -1.19334,2.66667 -2.66667,2.66667"
     inkscape:connector-curvature="0" /><path
     id="path134"
     style="fill:#e6e6e6;fill-opacity:1;fill-rule:nonzero;stroke:none;stroke-width:1.33333325"
     d="m 247.99999,186.66667 h -5.33333 c -4.4,0 -8,-3.6 -8,-8 v 0 c 0,-4.4 3.6,-8 8,-8 h 5.33333 c 4.4,0 8,3.6 8,8 v 0 c 0,4.4 -3.6,8 -8,8"
     inkscape:connector-curvature="0" /><path
     id="path138"
     style="fill:#e6e6e6;fill-opacity:1;fill-rule:nonzero;stroke:none;stroke-width:1.33333325"
     d="M 285.33333,186.66667 H 280 c -4.4,0 -8,-3.6 -8,-8 v 0 c 0,-4.4 3.6,-8 8,-8 h 5.33333 c 4.4,0 8,3.6 8,8 v 0 c 0,4.4 -3.6,8 -8,8"
     inkscape:connector-curvature="0" /><path
     id="path142"
     style="fill:#e6e6e6;fill-opacity:1;fill-rule:nonzero;stroke:none;stroke-width:1.33333325"
     d="m 259.33333,156.66667 v 0 c -1.104,0 -2,-0.896 -2,-2 0,-1.104 0.896,-2 2,-2 1.104,0 2,0.896 2,2 0,1.104 -0.896,2 -2,2"
     inkscape:connector-curvature="0" /><path
     id="path146"
     style="fill:#e6e6e6;fill-opacity:1;fill-rule:nonzero;stroke:none;stroke-width:1.33333325"
     d="m 263.99999,149.33333 v 0 c -1.47333,0 -2.66667,-1.19333 -2.66667,-2.66667 0,-1.47333 1.19334,-2.66666 2.66667,-2.66666 1.47333,0 2.66667,1.19333 2.66667,2.66666 0,1.47334 -1.19334,2.66667 -2.66667,2.66667"
     inkscape:connector-curvature="0" /><path
     id="path150"
     style="fill:#e6e6e6;fill-opacity:1;fill-rule:nonzero;stroke:none;stroke-width:1.33333325"
     d="m 271.99999,149.33333 v 0 c -1.47333,0 -2.66667,-1.19333 -2.66667,-2.66667 0,-1.47333 1.19334,-2.66666 2.66667,-2.66666 1.47333,0 2.66667,1.19333 2.66667,2.66666 0,1.47334 -1.19334,2.66667 -2.66667,2.66667"
     inkscape:connector-curvature="0" /><path
     id="path154"
     style="fill:#e6e6e6;fill-opacity:1;fill-rule:nonzero;stroke:none;stroke-width:1.33333325"
     d="m 268.66666,156.66667 v 0 c -1.104,0 -2,-0.896 -2,-2 0,-1.104 0.896,-2 2,-2 1.104,0 2,0.896 2,2 0,1.104 -0.896,2 -2,2"
     inkscape:connector-curvature="0" /><path
     id="path158"
     style="fill:#e6e6e6;fill-opacity:1;fill-rule:nonzero;stroke:none;stroke-width:1.33333325"
     d="m 263.99999,164 v 0 c -0.736,0 -1.33333,-0.59733 -1.33333,-1.33333 0,-0.736 0.59733,-1.33334 1.33333,-1.33334 0.736,0 1.33333,0.59734 1.33333,1.33334 0,0.736 -0.59733,1.33333 -1.33333,1.33333"
     inkscape:connector-curvature="0" /><path
     id="path162"
     style="fill:#333333;fill-opacity:1;fill-rule:nonzero;stroke:none;stroke-width:1.33333325"
     d="m 179.65946,171.0032 c 0,0.428 -0.25733,0.70533 -0.772,0.83067 -0.24267,0.06 -0.68933,0.0893 -1.34133,0.0893 h -0.856 c -0.54534,-0.16267 -1.124,-0.25333 -1.752,-0.27333 v -1.81067 -0.49867 c 0,-0.116 0.10266,-0.21066 0.22933,-0.21066 h 2.12533 c 0.74934,0 1.24,0.0227 1.47334,0.0667 0.596,0.12667 0.89333,0.41067 0.89333,0.85334 z m 0.56667,-2.648 c -0.55467,-0.23733 -1.24534,-0.35467 -2.072,-0.35467 h -6.39467 -0.16933 c -0.12667,0 -0.228,0.0933 -0.228,0.20934 v 3.924 c -0.62,0.16133 -1.28,0.36 -1.98934,0.59866 -2.132,0.71734 -3.83333,1.05734 -5.16666,1.18534 v -4.07867 -1.47333 c 0,-0.20267 -0.17734,-0.36534 -0.39734,-0.36534 h -2.78133 -0.001 c -0.21867,0 -0.39734,0.16267 -0.39734,0.36534 v 5.30266 c -0.0947,-0.0307 -0.176,-0.0613 -0.244,-0.0893 -0.12933,-0.0533 -0.27333,0.04 -0.288,0.18667 l -0.096,0.932 c -0.008,0.0787 0.024,0.15333 0.084,0.19866 0.0947,0.072 0.268,0.192 0.544,0.30934 v 0.009 c 0,0.20133 0.17867,0.36533 0.39734,0.36533 h 2.78266 v 0 c 0.12,0 0.22667,-0.0493 0.3,-0.12666 1.35734,-0.17867 3.132,-0.62534 5.44134,-1.53334 0.62933,-0.248 1.23333,-0.436 1.812,-0.572 v 0.392 1.62934 c 0,0.116 0.10133,0.21066 0.228,0.21066 h 3.12 v 0 c 0.12666,0 0.228,-0.0947 0.228,-0.21066 v -2.10667 c 0,-0.0493 0.02,-0.0933 0.0493,-0.12933 2.31333,0.30533 3.956,1.44266 4.92133,2.34 0.0733,0.0693 0.172,0.10666 0.27334,0.10666 h 0.74266 c 0.16667,0 0.26,-0.18533 0.156,-0.31066 -0.76533,-0.92534 -1.49733,-1.67334 -2.256,-2.24534 0.54134,-0.048 1.008,-0.156 1.40134,-0.32533 0.73733,-0.31067 1.10666,-0.80533 1.10666,-1.48533 v -1.37467 c 0,-0.672 -0.36933,-1.16667 -1.10666,-1.484"
     inkscape:connector-curvature="0" /><path
     id="path166"
     style="fill:#333333;fill-opacity:1;fill-rule:nonzero;stroke:none;stroke-width:1.33333325"
     d="m 162.9384,177.25693 c -0.016,-0.0307 -0.0467,-0.0587 -0.092,-0.0853 -0.0973,-0.0533 -0.26933,-0.08 -0.516,-0.08 h -1.776 c -0.0547,0 -0.0987,-0.04 -0.0987,-0.0907 v -0.001 c 0,-0.0507 0.044,-0.0907 0.0987,-0.0907 h 2.288 c 0.0547,0 0.1,-0.0413 0.1,-0.0907 v -0.17866 c 0,-0.0507 -0.0453,-0.092 -0.1,-0.092 h -2.308 c -0.14933,0 -0.268,0.02 -0.35467,0.0587 -0.0467,0.02 -0.0853,0.0573 -0.12,0.112 -0.04,0.0627 -0.06,0.156 -0.06,0.27867 0,0.21067 0.052,0.344 0.156,0.4 0.0907,0.048 0.24,0.072 0.44934,0.072 h 1.836 c 0.0547,0 0.0987,0.0413 0.0987,0.092 v 0.02 c 0,0.0493 -0.044,0.0907 -0.0987,0.0907 h -2.324 c -0.0547,0 -0.0987,0.04 -0.0987,0.0907 v 0.21067 c 0,0.0507 0.044,0.0907 0.0987,0.0907 h 2.328 c 0.144,0 0.25466,-0.012 0.332,-0.0387 0.0773,-0.0267 0.13466,-0.0707 0.17333,-0.132 0.036,-0.056 0.0533,-0.144 0.0533,-0.26133 0,-0.0693 -0.007,-0.14134 -0.0187,-0.21467 -0.0133,-0.0747 -0.0293,-0.128 -0.0467,-0.16"
     inkscape:connector-curvature="0" /><path
     id="path170"
     style="fill:#333333;fill-opacity:1;fill-rule:nonzero;stroke:none;stroke-width:1.33333325"
     d="m 166.2652,176.54827 h -0.3 c -0.0307,0 -0.0587,0.0133 -0.0787,0.0347 l -0.908,1.052 c -0.0387,0.044 -0.11066,0.0453 -0.15066,0.004 l -1.028,-1.06 c -0.0187,-0.02 -0.0453,-0.0307 -0.0733,-0.0307 h -0.35866 c -0.0867,0 -0.132,0.0947 -0.0733,0.152 l 1.30134,1.30667 c 0.0333,0.0333 0.0347,0.0827 0.005,0.11866 l -0.33733,0.39334 c -0.052,0.06 -0.005,0.148 0.0773,0.148 h 0.30533 c 0.0307,0 0.0587,-0.0133 0.0773,-0.036 l 1.62,-1.936 c 0.0493,-0.06 0.004,-0.14667 -0.0787,-0.14667"
     inkscape:connector-curvature="0" /><path
     id="path174"
     style="fill:#333333;fill-opacity:1;fill-rule:nonzero;stroke:none;stroke-width:1.33333325"
     d="m 169.66386,177.25693 c -0.016,-0.0307 -0.0467,-0.0587 -0.092,-0.0853 -0.0973,-0.0533 -0.26933,-0.08 -0.516,-0.08 h -1.776 c -0.0547,0 -0.0987,-0.04 -0.0987,-0.0907 v -0.001 c 0,-0.0507 0.044,-0.0907 0.0987,-0.0907 h 2.288 c 0.0547,0 0.1,-0.0413 0.1,-0.0907 v -0.17866 c 0,-0.0507 -0.0453,-0.092 -0.1,-0.092 h -2.308 c -0.14933,0 -0.268,0.02 -0.35467,0.0587 -0.0467,0.02 -0.0853,0.0573 -0.12,0.112 -0.04,0.0627 -0.06,0.156 -0.06,0.27867 0,0.21067 0.052,0.344 0.156,0.4 0.0907,0.048 0.24,0.072 0.44934,0.072 h 1.836 c 0.0547,0 0.0987,0.0413 0.0987,0.092 v 0.02 c 0,0.0493 -0.044,0.0907 -0.0987,0.0907 h -2.324 c -0.0547,0 -0.0987,0.04 -0.0987,0.0907 v 0.21067 c 0,0.0507 0.044,0.0907 0.0987,0.0907 h 2.328 c 0.144,0 0.25466,-0.012 0.332,-0.0387 0.0773,-0.0267 0.13466,-0.0707 0.17333,-0.132 0.036,-0.056 0.0533,-0.144 0.0533,-0.26133 0,-0.0693 -0.007,-0.14134 -0.0187,-0.21467 -0.0133,-0.0747 -0.0293,-0.128 -0.0467,-0.16"
     inkscape:connector-curvature="0" /><path
     id="path178"
     style="fill:#333333;fill-opacity:1;fill-rule:nonzero;stroke:none;stroke-width:1.33333325"
     d="m 173.33213,176.54827 h -2.376 c -0.0547,0 -0.0987,-0.0413 -0.0987,-0.0907 v -0.43733 c 0,-0.0507 -0.044,-0.092 -0.0987,-0.092 h -0.29067 c -0.0547,0 -0.1,0.0413 -0.1,0.092 v 0.43733 c 0,0.0493 -0.044,0.0907 -0.0987,0.0907 h -0.13333 c -0.0547,0 -0.0987,0.0413 -0.0987,0.0907 v 0.188 c 0,0.0507 0.044,0.0907 0.0987,0.0907 h 0.13333 c 0.0547,0 0.0987,0.0413 0.0987,0.092 v 0.532 c 10e-4,0.144 0.0253,0.256 0.072,0.336 0.024,0.044 0.0667,0.0813 0.12933,0.11467 0.08,0.0467 0.22534,0.0707 0.43734,0.072 h 2.32533 c 0.0547,0 0.0987,-0.0413 0.0987,-0.0907 v -0.22 c 0,-0.0507 -0.044,-0.092 -0.0987,-0.092 h -2.376 c -0.0547,0 -0.0987,-0.04 -0.0987,-0.0907 v -0.56134 c 0,-0.0507 0.044,-0.092 0.0987,-0.092 h 2.376 c 0.0547,0 0.0987,-0.04 0.0987,-0.0907 v -0.188 c 0,-0.0493 -0.044,-0.0907 -0.0987,-0.0907"
     inkscape:connector-curvature="0" /><path
     id="path182"
     style="fill:#333333;fill-opacity:1;fill-rule:nonzero;stroke:none;stroke-width:1.33333325"
     d="m 176.49653,177.018 c 0,0.0507 -0.044,0.0907 -0.0987,0.0907 h -1.93066 c -0.0547,0 -0.0987,-0.04 -0.0987,-0.0907 v -0.0187 c 0,-0.0493 0.044,-0.0907 0.0987,-0.0907 h 1.93066 c 0.0547,0 0.0987,0.0413 0.0987,0.0907 z m 0.28267,-0.41867 c -0.0653,-0.0333 -0.232,-0.0507 -0.5,-0.0507 h -1.91067 c -0.16267,0 -0.284,0.032 -0.36133,0.0947 -0.0853,0.068 -0.128,0.172 -0.128,0.31334 v 0.63466 c 0,0.15334 0.0373,0.26934 0.112,0.34667 0.08,0.084 0.20533,0.12667 0.37733,0.12667 h 2.45733 c 0.0547,0 0.0987,-0.0413 0.0987,-0.092 V 177.762 c 0,-0.0493 -0.044,-0.0907 -0.0987,-0.0907 h -2.35866 c -0.0547,0 -0.0987,-0.0413 -0.0987,-0.0907 v -0.02 c 0,-0.0507 0.044,-0.0907 0.0987,-0.0907 h 2.39466 c 0.0547,0 0.0987,-0.0413 0.0987,-0.092 v -0.30933 c 0,-0.17067 -0.016,-0.28534 -0.0493,-0.34667 -0.028,-0.0547 -0.072,-0.096 -0.132,-0.12267"
     inkscape:connector-curvature="0" /><path
     id="path186"
     style="fill:#333333;fill-opacity:1;fill-rule:nonzero;stroke:none;stroke-width:1.33333325"
     d="m 180.8128,176.54827 h -3.26133 c -0.0547,0 -0.0987,0.0413 -0.0987,0.0907 v 1.33466 c 0,0.0493 0.044,0.0907 0.0987,0.0907 h 0.27333 c 0.0533,0 0.0987,-0.0413 0.0987,-0.0907 v -0.97333 c 0,-0.0507 0.044,-0.092 0.0987,-0.092 h 1.024 c 0.0547,0 0.0987,0.0413 0.0987,0.092 v 0.97333 c 0,0.0493 0.0453,0.0907 0.0987,0.0907 h 0.27333 c 0.0547,0 0.0987,-0.0413 0.0987,-0.0907 v -0.97333 c 0,-0.0507 0.044,-0.092 0.0987,-0.092 h 1 c 0.0547,0 0.0987,0.0413 0.0987,0.092 v 0.97333 c 0,0.0493 0.044,0.0907 0.0987,0.0907 h 0.27333 c 0.0547,0 0.0987,-0.0413 0.0987,-0.0907 v -1.06533 c 0,-0.108 -0.0293,-0.192 -0.0893,-0.252 -0.0627,-0.0707 -0.18933,-0.10667 -0.38133,-0.108"
     inkscape:connector-curvature="0" /><path
     id="path190"
     style="fill:#e6e6e6;fill-opacity:1;fill-rule:nonzero;stroke:none;stroke-width:1.33333325"
     d="m 103.87866,170.66667 c -1.25733,-1.87333 -2.63867,-3.65867 -4.14,-5.33333 H 83.234661 c 2.497333,1.50533 4.794666,3.30533 6.866666,5.33333 z"
     inkscape:connector-curvature="0" /><path
     id="path194"
     style="fill:#e6e6e6;fill-opacity:1;fill-rule:nonzero;stroke:none;stroke-width:1.33333325"
     d="M 109.2444,181.33333 C 108.59507,179.504 107.84573,177.72133 106.98707,176 H 94.619067 c 1.172,1.68 2.196,3.468 3.085333,5.33333 z"
     inkscape:connector-curvature="0" /><path
     id="path198"
     style="fill:#e6e6e6;fill-opacity:1;fill-rule:nonzero;stroke:none;stroke-width:1.33333325"
     d="m 111.69733,192 c -0.204,-1.80933 -0.50667,-3.58933 -0.90533,-5.33333 H 99.75733 c 0.51733,1.72933 0.91333,3.51066 1.18133,5.33333 z"
     inkscape:connector-curvature="0" /><path
     id="path202"
     style="fill:#e6e6e6;fill-opacity:1;fill-rule:nonzero;stroke:none;stroke-width:1.33333325"
     d="m 111.6712,202.66667 c 0.196,-1.75467 0.32933,-3.528 0.32933,-5.33333 h -10.66666 c 0,1.812 -0.13867,3.59066 -0.388,5.33333 z"
     inkscape:connector-curvature="0" /><path
     id="path206"
     style="fill:#e6e6e6;fill-opacity:1;fill-rule:nonzero;stroke:none;stroke-width:1.33333325"
     d="m 109.2396,213.33333 c 0.616,-1.736 1.14667,-3.512 1.56133,-5.33333 H 99.774267 c -0.549333,1.844 -1.253333,3.62 -2.066667,5.33333 z"
     inkscape:connector-curvature="0" /><path
     id="path210"
     style="fill:#e6e6e6;fill-opacity:1;fill-rule:nonzero;stroke:none;stroke-width:1.33333325"
     d="m 94.629064,218.66667 c -0.257333,0.37067 -0.522667,0.736 -0.793333,1.096 -1.312,1.744 -0.03733,4.23733 2.145333,4.23733 h 6.446666 c 0.91067,0 1.772,-0.45466 2.25467,-1.22533 0.83066,-1.328 1.59733,-2.69867 2.29866,-4.108 z"
     inkscape:connector-curvature="0" /><path
     id="path214"
     style="fill:#e6e6e6;fill-opacity:1;fill-rule:nonzero;stroke:none;stroke-width:1.33333325"
     d="M 94.123331,160 C 85.880665,153.336 75.400665,149.33333 64.000665,149.33333 H 53.333999 c -2.946667,0 -5.333334,2.388 -5.333334,5.33334 h 0.0027 c 0,0.016 0,0.0333 0,0.0507 0.016,2.91867 2.386667,5.28267 5.306667,5.28267 z"
     inkscape:connector-curvature="0" /><path
     id="path218"
     style="fill:#e6e6e6;fill-opacity:1;fill-rule:nonzero;stroke:none;stroke-width:1.33333325"
     d="m 76.107331,136.87787 h -6.668 v 4.13467 h 1.453333 v -2.948 h 2.766667 c 0,0 -0.86,0.88133 -0.974667,1.00666 l 1.854667,1.94134 h 1.568 l -1.893333,-1.94134 z"
     inkscape:connector-curvature="0" /><path
     id="path222"
     style="fill:#e6e6e6;fill-opacity:1;fill-rule:nonzero;stroke:none;stroke-width:1.33333325"
     d="m 61.207332,138.0644 v -1.18667 h -6.017333 v 4.13467 h 6.017333 v -1.36533 h -4.565333 v -0.19867 h 4.565333 v -1.18667 h -4.565333 v -0.19733 z"
     inkscape:connector-curvature="0" /><path
     id="path226"
     style="fill:#e6e6e6;fill-opacity:1;fill-rule:nonzero;stroke:none;stroke-width:1.33333325"
     d="m 98.071864,136.752 v 2.768 h -3.112 v -2.768 h -1.453333 v 4.13467 h 6.018666 V 136.752 Z"
     inkscape:connector-curvature="0" /><path
     inkscape:connector-curvature="0"
     d="m 105.21333,139.52 h -3.112 v -1.58266 h 3.112 z m -4.564,1.36667 h 6.01733 V 136.752 h -6.01733 z"
     style="fill:#e6e6e6;fill-opacity:1;fill-rule:nonzero;stroke:none;stroke-width:1.33333325"
     id="path228" /><path
     inkscape:connector-curvature="0"
     d="m 81.551998,139.52 h -3.112 v -1.58266 h 3.112 z m -4.565333,1.36667 h 6.017333 V 136.752 h -6.017333 z"
     style="fill:#e6e6e6;fill-opacity:1;fill-rule:nonzero;stroke:none;stroke-width:1.33333325"
     id="path230" /><path
     id="path234"
     style="fill:#e6e6e6;fill-opacity:1;fill-rule:nonzero;stroke:none;stroke-width:1.33333325"
     d="m 68.332532,136.87787 h -6.017333 v 1.17733 h 2.281333 v 2.95734 h 1.453333 v -2.95734 h 2.282667 z"
     inkscape:connector-curvature="0" /><path
     id="path238"
     style="fill:#e6e6e6;fill-opacity:1;fill-rule:nonzero;stroke:none;stroke-width:1.33333325"
     d="m 56.637732,134.66667 h -8.637333 v 7.98667 h 1.442667 v -6.64667 h 4.481333 l -2.928,3.06133 3.4,3.58534 h 1.442666 l -3.386666,-3.572 z"
     inkscape:connector-curvature="0" /><path
     id="path242"
     style="fill:#e6e6e6;fill-opacity:1;fill-rule:nonzero;stroke:none;stroke-width:1.33333325"
     d="m 88.105598,141.18347 v -4.94133 l 3.001333,2.524 z m 0.736,-6.51733 h -2.189333 v 8 l 2.017333,-0.0533 3.986667,-3.79333 z"
     inkscape:connector-curvature="0" /></svg>