<?xml version="1.0" encoding="UTF-8" standalone="no"?>
<svg
   xmlns:dc="http://purl.org/dc/elements/1.1/"
   xmlns:cc="http://creativecommons.org/ns#"
   xmlns:rdf="http://www.w3.org/1999/02/22-rdf-syntax-ns#"
   xmlns:svg="http://www.w3.org/2000/svg"
   xmlns="http://www.w3.org/2000/svg"
   xmlns:sodipodi="http://sodipodi.sourceforge.net/DTD/sodipodi-0.dtd"
   xmlns:inkscape="http://www.inkscape.org/namespaces/inkscape"
   viewBox="0 0 341.33334 341.33334"
   height="341.33334"
   width="341.33334"
   xml:space="preserve"
   id="svg2"
   version="1.1"
   sodipodi:docname="NEC - PC-98-content.svg"
   inkscape:version="0.92.2 (5c3e80d, 2017-08-06)"><sodipodi:namedview
     pagecolor="#ffffff"
     bordercolor="#666666"
     borderopacity="1"
     objecttolerance="10"
     gridtolerance="10"
     guidetolerance="10"
     inkscape:pageopacity="0"
     inkscape:pageshadow="2"
     inkscape:window-width="1024"
     inkscape:window-height="705"
     id="namedview32"
     showgrid="false"
     inkscape:pagecheckerboard="true"
     inkscape:zoom="0.69140623"
     inkscape:cx="170.66667"
     inkscape:cy="170.66667"
     inkscape:window-x="-8"
     inkscape:window-y="-8"
     inkscape:window-maximized="1"
     inkscape:current-layer="svg2" /><metadata
     id="metadata8"><rdf:RDF><cc:Work
         rdf:about=""><dc:format>image/svg+xml</dc:format><dc:type
           rdf:resource="http://purl.org/dc/dcmitype/StillImage" /><dc:title></dc:title></cc:Work></rdf:RDF></metadata><defs
     id="defs6"><clipPath
       id="clipPath18"
       clipPathUnits="userSpaceOnUse"><path
         id="path16"
         d="M 0,256 H 256 V 0 H 0 Z" /></clipPath><clipPath
       id="clipPath26"
       clipPathUnits="userSpaceOnUse"><path
         id="path24"
         d="M 4,252 H 252 V 4 H 4 Z" /></clipPath></defs><g
     id="g36"
     transform="matrix(1.3333333,0,0,-1.3333333,170.66666,213.33333)"><path
       inkscape:connector-curvature="0"
       d="M 0,0 C -17.673,0 -32,14.327 -32,32 -32,49.673 -17.673,64 0,64 17.673,64 32,49.673 32,32 32,14.327 17.673,0 0,0 m 116,96 v 52 H -116 V -80 c 0,-2.209 1.791,-4 4,-4 h 84 c 0,2.209 1.791,4 4,4 2.209,0 4,-1.791 4,-4 h 40 c 0,2.209 1.791,4 4,4 2.209,0 4,-1.791 4,-4 h 84 c 2.209,0 4,1.791 4,4 V 84 h -8 v 12 z"
       style="fill:#191919;fill-opacity:1;fill-rule:nonzero;stroke:none"
       id="path38" /></g><g
     id="g40"
     transform="matrix(1.3333333,0,0,-1.3333333,293.33333,101.33334)"><path
       inkscape:connector-curvature="0"
       d="m 0,0 h -184 c -2.209,0 -4,1.791 -4,4 v 44 c 0,2.209 1.791,4 4,4 H 0 c 2.209,0 4,-1.791 4,-4 V 4 C 4,1.791 2.209,0 0,0"
       style="fill:#ffffff;fill-opacity:1;fill-rule:nonzero;stroke:none"
       id="path42" /></g><g
     id="g44"
     transform="matrix(1.3333333,0,0,-1.3333333,170.66666,314.66666)"><path
       inkscape:connector-curvature="0"
       d="m 0,0 v 0 c -6.627,0 -12,5.373 -12,12 v 36 c 0,6.627 5.373,12 12,12 6.627,0 12,-5.373 12,-12 V 12 C 12,5.373 6.627,0 0,0"
       style="fill:#333333;fill-opacity:1;fill-rule:nonzero;stroke:none"
       id="path46" /></g><g
     id="g48"
     transform="matrix(1.3333333,0,0,-1.3333333,234.66666,184)"><path
       inkscape:connector-curvature="0"
       d="m 0,0 c 0,-3.313 -2.687,-6 -6,-6 -3.313,0 -6,2.687 -6,6 0,3.313 2.687,6 6,6 3.313,0 6,-2.687 6,-6"
       style="fill:#333333;fill-opacity:1;fill-rule:nonzero;stroke:none"
       id="path50" /></g><g
     id="g52"
     transform="matrix(1.3333333,0,0,-1.3333333,170.66666,202.66667)"><path
       inkscape:connector-curvature="0"
       d="M 0,0 C -13.255,0 -24,10.745 -24,24 -24,37.255 -13.255,48 0,48 13.255,48 24,37.255 24,24 24,10.745 13.255,0 0,0 M 0,56 C -17.673,56 -32,41.673 -32,24 -32,6.327 -17.673,-8 0,-8 17.673,-8 32,6.327 32,24 32,41.673 17.673,56 0,56"
       style="fill:#262626;fill-opacity:1;fill-rule:nonzero;stroke:none"
       id="path54" /></g><g
     id="g56"
     transform="matrix(1.3333333,0,0,-1.3333333,170.66666,125.33334)"><path
       inkscape:connector-curvature="0"
       d="m 0,0 c -18.778,0 -34,-15.222 -34,-34 0,-18.777 15.222,-34 34,-34 18.777,0 34,15.223 34,34 C 34,-15.222 18.777,0 0,0 m 0,-4 c 16.542,0 30,-13.458 30,-30 0,-16.542 -13.458,-30 -30,-30 -16.542,0 -30,13.458 -30,30 0,16.542 13.458,30 30,30"
       style="fill:#333333;fill-opacity:1;fill-rule:nonzero;stroke:none"
       id="path58" /></g><g
     id="g60"
     transform="matrix(1.3333333,0,0,-1.3333333,306.66666,106.66667)"><path
       inkscape:connector-curvature="0"
       d="M 0,0 H 14 V 20 H 0 c -1.104,0 -2,-0.896 -2,-2 V 2 C -2,0.896 -1.104,0 0,0"
       style="fill:#808080;fill-opacity:1;fill-rule:nonzero;stroke:none"
       id="path62" /></g></svg>