<?xml version="1.0" encoding="UTF-8" standalone="no"?>
<svg
   xmlns:dc="http://purl.org/dc/elements/1.1/"
   xmlns:cc="http://creativecommons.org/ns#"
   xmlns:rdf="http://www.w3.org/1999/02/22-rdf-syntax-ns#"
   xmlns:svg="http://www.w3.org/2000/svg"
   xmlns="http://www.w3.org/2000/svg"
   xmlns:sodipodi="http://sodipodi.sourceforge.net/DTD/sodipodi-0.dtd"
   xmlns:inkscape="http://www.inkscape.org/namespaces/inkscape"
   viewBox="0 0 341.33334 341.33334"
   height="341.33334"
   width="341.33334"
   xml:space="preserve"
   id="svg2"
   version="1.1"
   sodipodi:docname="Nintendo - Super Nintendo Entertainment System.svg"
   inkscape:version="0.92.2 (5c3e80d, 2017-08-06)"><sodipodi:namedview
     pagecolor="#ffffff"
     bordercolor="#666666"
     borderopacity="1"
     objecttolerance="10"
     gridtolerance="10"
     guidetolerance="10"
     inkscape:pageopacity="0"
     inkscape:pageshadow="2"
     inkscape:window-width="1024"
     inkscape:window-height="705"
     id="namedview110"
     showgrid="false"
     inkscape:pagecheckerboard="true"
     inkscape:zoom="0.69140623"
     inkscape:cx="170.66667"
     inkscape:cy="170.66667"
     inkscape:window-x="-8"
     inkscape:window-y="-8"
     inkscape:window-maximized="1"
     inkscape:current-layer="svg2" /><metadata
     id="metadata8"><rdf:RDF><cc:Work
         rdf:about=""><dc:format>image/svg+xml</dc:format><dc:type
           rdf:resource="http://purl.org/dc/dcmitype/StillImage" /><dc:title></dc:title></cc:Work></rdf:RDF></metadata><defs
     id="defs6"><clipPath
       id="clipPath18"
       clipPathUnits="userSpaceOnUse"><path
         id="path16"
         d="M 0,256 H 256 V 0 H 0 Z" /></clipPath><clipPath
       id="clipPath26"
       clipPathUnits="userSpaceOnUse"><path
         id="path24"
         d="M 3.99983,186 H 252 V 72 H 3.99983 Z" /></clipPath></defs><g
     id="g36"
     transform="matrix(1.3333333,0,0,-1.3333333,298.66666,122.66667)"><path
       inkscape:connector-curvature="0"
       d="m 0,0 c 0,0 -8.273,11.954 -24.144,13.371 -15.871,1.416 -27.541,0 -27.541,0 0,0 -2.296,-0.405 -2.315,-2.024 L 0,0"
       style="fill:#999999;fill-opacity:1;fill-rule:nonzero;stroke:none"
       id="path38" /></g><g
     id="g40"
     transform="matrix(1.3333333,0,0,-1.3333333,42.666666,122.66667)"><path
       inkscape:connector-curvature="0"
       d="m 0,0 c 0,0 8.273,11.954 24.144,13.371 15.871,1.416 27.541,0 27.541,0 0,0 2.296,-0.405 2.315,-2.024 L 0,0"
       style="fill:#999999;fill-opacity:1;fill-rule:nonzero;stroke:none"
       id="path42" /></g><g
     id="g44"
     transform="matrix(1.3333333,0,0,-1.3333333,262.53173,106.66667)"><path
       inkscape:connector-curvature="0"
       d="m 0,0 h -137.299 c -25.608,0 -46.918,-20.632 -47.583,-46.721 -0.692,-27.094 20.654,-49.279 47.084,-49.279 9.969,0 19.213,3.158 26.825,8.543 2.695,1.907 5.924,2.874 9.206,2.874 H -36 c 3.279,0 6.498,-0.981 9.192,-2.886 7.697,-5.44 17.059,-8.603 27.152,-8.53 25.498,0.186 46.401,21.338 46.753,47.321 C 47.46,-21.858 26.235,0 0,0"
       style="fill:#a6a6a6;fill-opacity:1;fill-rule:nonzero;stroke:none"
       id="path46" /></g><g
     id="g48"
     transform="matrix(1.3333333,0,0,-1.3333333,319.99999,170.66667)"><path
       inkscape:connector-curvature="0"
       d="m 0,0 c 0,-24.301 -19.699,-44 -44,-44 -24.301,0 -44,19.699 -44,44 0,24.301 19.699,44 44,44 C -19.699,44 0,24.301 0,0"
       style="fill:#737373;fill-opacity:1;fill-rule:nonzero;stroke:none"
       id="path50" /></g><g
     id="g52"
     transform="matrix(1.3333333,0,0,-1.3333333,104,160)"><path
       inkscape:connector-curvature="0"
       d="m 0,0 h -10 v 10 c 0,1.105 -0.895,2 -2,2 h -12 c -1.105,0 -2,-0.895 -2,-2 V 0 h -10 c -1.105,0 -2,-0.895 -2,-2 v -12 c 0,-1.105 0.895,-2 2,-2 h 10 v -10 c 0,-1.105 0.895,-2 2,-2 h 12 c 1.105,0 2,0.895 2,2 v 10 H 0 c 1.105,0 2,0.895 2,2 V -2 C 2,-0.895 1.105,0 0,0"
       style="fill:#191919;fill-opacity:1;fill-rule:nonzero;stroke:none"
       id="path54" /></g><g
     id="g56"
     transform="matrix(1.3333333,0,0,-1.3333333,74.666665,170.66667)"><path
       inkscape:connector-curvature="0"
       d="M 0,0 C 0,2.209 1.791,4 4,4 6.209,4 8,2.209 8,0 8,-2.209 6.209,-4 4,-4 1.791,-4 0,-2.209 0,0"
       style="fill:#262626;fill-opacity:1;fill-rule:nonzero;stroke:none"
       id="path58" /></g><g
     id="g60"
     transform="matrix(1.3333333,0,0,-1.3333333,277.33333,149.33333)"><path
       inkscape:connector-curvature="0"
       d="m 0,0 c 0,6.617 -5.383,12 -12,12 -2.455,0 -4.739,-0.744 -6.643,-2.015 l -10e-4,0.002 -0.02,-0.015 C -18.717,9.937 -18.767,9.898 -18.82,9.862 L -41.795,-6.499 c -0.773,-0.428 -1.487,-0.945 -2.144,-1.527 L -44,-8.069 -43.995,-8.076 C -46.446,-10.275 -48,-13.456 -48,-17 c 0,-6.617 5.383,-12 12,-12 2.185,0 4.229,0.596 5.995,1.621 l 0.005,-0.007 0.102,0.071 c 0.575,0.342 1.123,0.723 1.631,1.153 l 22.769,16.091 c 0.235,0.152 0.46,0.315 0.683,0.483 l 0.004,0.002 v 10e-4 C -1.897,-7.394 0,-3.919 0,0"
       style="fill:#b3b3b3;fill-opacity:1;fill-rule:nonzero;stroke:none"
       id="path62" /></g><g
     id="g64"
     transform="matrix(1.3333333,0,0,-1.3333333,229.33346,161.33333)"><path
       inkscape:connector-curvature="0"
       d="m 0,0 c -4.418,0 -8,-3.582 -8,-8 0,-4.418 3.582,-8 8,-8 4.418,0 8,3.582 8,8 0,4.418 -3.582,8 -8,8"
       style="fill:#007b00;fill-opacity:1;fill-rule:nonzero;stroke:none"
       id="path66" /></g><g
     id="g68"
     transform="matrix(1.3333333,0,0,-1.3333333,229.33346,160)"><path
       inkscape:connector-curvature="0"
       d="m 0,0 c -4.963,0 -9,-4.037 -9,-9 0,-4.963 4.037,-9 9,-9 4.963,0 9,4.037 9,9 0,4.963 -4.037,9 -9,9 m 0,-1 c 4.418,0 8,-3.582 8,-8 0,-4.418 -3.582,-8 -8,-8 -4.418,0 -8,3.582 -8,8 0,4.418 3.582,8 8,8"
       style="fill:#003d00;fill-opacity:1;fill-rule:nonzero;stroke:none"
       id="path70" /></g><g
     id="g72"
     transform="matrix(1.3333333,0,0,-1.3333333,261.33346,138.66667)"><path
       inkscape:connector-curvature="0"
       d="m 0,0 c -4.418,0 -8,-3.582 -8,-8 0,-4.418 3.582,-8 8,-8 4.418,0 8,3.582 8,8 0,4.418 -3.582,8 -8,8"
       style="fill:#354f9f;fill-opacity:1;fill-rule:nonzero;stroke:none"
       id="path74" /></g><g
     id="g76"
     transform="matrix(1.3333333,0,0,-1.3333333,261.33346,137.33334)"><path
       inkscape:connector-curvature="0"
       d="m 0,0 c -4.963,0 -9,-4.037 -9,-9 0,-4.963 4.037,-9 9,-9 4.963,0 9,4.037 9,9 0,4.963 -4.037,9 -9,9 m 0,-1 c 4.418,0 8,-3.582 8,-8 0,-4.418 -3.582,-8 -8,-8 -4.418,0 -8,3.582 -8,8 0,4.418 3.582,8 8,8"
       style="fill:#263979;fill-opacity:1;fill-rule:nonzero;stroke:none"
       id="path78" /></g><g
     id="g80"
     transform="matrix(1.3333333,0,0,-1.3333333,309.33333,174.66667)"><path
       inkscape:connector-curvature="0"
       d="m 0,0 c 0,6.617 -5.383,12 -12,12 -2.455,0 -4.739,-0.744 -6.643,-2.015 l -10e-4,0.002 -0.02,-0.015 C -18.717,9.937 -18.767,9.898 -18.82,9.862 L -41.795,-6.499 c -0.773,-0.428 -1.487,-0.945 -2.144,-1.527 L -44,-8.069 -43.995,-8.076 C -46.446,-10.275 -48,-13.456 -48,-17 c 0,-6.617 5.383,-12 12,-12 2.185,0 4.229,0.596 5.995,1.621 l 0.005,-0.007 0.102,0.071 c 0.575,0.342 1.123,0.723 1.631,1.153 l 22.769,16.091 c 0.235,0.152 0.46,0.315 0.683,0.483 l 0.004,0.002 v 10e-4 C -1.897,-7.394 0,-3.919 0,0"
       style="fill:#b3b3b3;fill-opacity:1;fill-rule:nonzero;stroke:none"
       id="path82" /></g><g
     id="g84"
     transform="matrix(1.3333333,0,0,-1.3333333,261.33319,186.66667)"><path
       inkscape:connector-curvature="0"
       d="m 0,0 c -4.418,0 -8,-3.582 -8,-8 0,-4.418 3.582,-8 8,-8 4.418,0 8,3.582 8,8 0,4.418 -3.582,8 -8,8"
       style="fill:#eac500;fill-opacity:1;fill-rule:nonzero;stroke:none"
       id="path86" /></g><g
     id="g88"
     transform="matrix(1.3333333,0,0,-1.3333333,261.33319,185.33333)"><path
       inkscape:connector-curvature="0"
       d="m 0,0 c -4.963,0 -9,-4.037 -9,-9 0,-4.963 4.037,-9 9,-9 4.963,0 9,4.037 9,9 0,4.963 -4.037,9 -9,9 m 0,-1 c 4.418,0 8,-3.582 8,-8 0,-4.418 -3.582,-8 -8,-8 -4.418,0 -8,3.582 -8,8 0,4.418 3.582,8 8,8"
       style="fill:#d4a600;fill-opacity:1;fill-rule:nonzero;stroke:none"
       id="path90" /></g><g
     id="g92"
     transform="matrix(1.3333333,0,0,-1.3333333,293.33346,164)"><path
       inkscape:connector-curvature="0"
       d="m 0,0 c -4.418,0 -8,-3.582 -8,-8 0,-4.418 3.582,-8 8,-8 4.418,0 8,3.582 8,8 0,4.418 -3.582,8 -8,8"
       style="fill:#b80000;fill-opacity:1;fill-rule:nonzero;stroke:none"
       id="path94" /></g><g
     id="g96"
     transform="matrix(1.3333333,0,0,-1.3333333,293.33346,162.66667)"><path
       inkscape:connector-curvature="0"
       d="m 0,0 c -4.963,0 -9,-4.037 -9,-9 0,-4.963 4.037,-9 9,-9 4.963,0 9,4.037 9,9 0,4.963 -4.037,9 -9,9 m 0,-1 c 4.418,0 8,-3.582 8,-8 0,-4.418 -3.582,-8 -8,-8 -4.418,0 -8,3.582 -8,8 0,4.418 3.582,8 8,8"
       style="fill:#7b0000;fill-opacity:1;fill-rule:nonzero;stroke:none"
       id="path98" /></g><g
     id="g100"
     transform="matrix(1.3333333,0,0,-1.3333333,185.84986,182.68147)"><path
       inkscape:connector-curvature="0"
       d="m 0,0 c -0.567,0.643 -1.427,1.011 -2.36,1.011 -0.658,0 -1.283,-0.184 -1.806,-0.534 l -10.249,-6.833 c -1.3,-0.867 -1.546,-2.492 -0.549,-3.622 0.567,-0.642 1.427,-1.011 2.36,-1.011 0.658,0 1.283,0.185 1.806,0.534 l 10.249,6.833 C 0.751,-2.755 0.997,-1.13 0,0"
       style="fill:#191919;fill-opacity:1;fill-rule:nonzero;stroke:none"
       id="path102" /></g><g
     id="g104"
     transform="matrix(1.3333333,0,0,-1.3333333,182.70346,180)"><path
       inkscape:connector-curvature="0"
       d="M 0,0 C -0.857,0 -1.674,-0.243 -2.362,-0.702 L -12.61,-7.535 c -0.875,-0.584 -1.451,-1.481 -1.579,-2.461 -0.125,-0.96 0.171,-1.902 0.835,-2.654 0.757,-0.858 1.89,-1.35 3.11,-1.35 0.856,0 1.672,0.243 2.361,0.702 l 10.249,6.833 c 0.875,0.584 1.451,1.481 1.579,2.461 C 4.07,-3.044 3.773,-2.102 3.11,-1.349 2.353,-0.492 1.22,0 0,0 m 0,-1 c 0.933,0 1.793,-0.368 2.36,-1.011 0.997,-1.13 0.751,-2.755 -0.549,-3.622 L -8.438,-12.466 C -8.961,-12.815 -9.586,-13 -10.244,-13 c -0.933,0 -1.793,0.369 -2.36,1.011 -0.997,1.13 -0.751,2.755 0.549,3.622 l 10.249,6.833 C -1.283,-1.184 -0.658,-1 0,-1"
       style="fill:#999999;fill-opacity:1;fill-rule:nonzero;stroke:none"
       id="path106" /></g><g
     id="g108"
     transform="matrix(1.3333333,0,0,-1.3333333,150.95773,181.33333)"><path
       inkscape:connector-curvature="0"
       d="m 0,0 c -0.658,0 -1.283,-0.184 -1.806,-0.534 l -10.249,-6.833 c -0.63,-0.42 -1.034,-1.028 -1.137,-1.712 -0.104,-0.684 0.105,-1.362 0.588,-1.91 0.567,-0.642 1.427,-1.011 2.36,-1.011 0.658,0 1.283,0.185 1.806,0.534 l 10.249,6.833 c 0.629,0.42 1.033,1.028 1.137,1.712 0.104,0.684 -0.105,1.362 -0.588,1.91 C 1.793,-0.368 0.933,0 0,0"
       style="fill:#191919;fill-opacity:1;fill-rule:nonzero;stroke:none"
       id="path110" /></g><g
     id="g112"
     transform="matrix(1.3333333,0,0,-1.3333333,150.95773,180)"><path
       inkscape:connector-curvature="0"
       d="M 0,0 C -0.857,0 -1.674,-0.243 -2.362,-0.702 L -12.61,-7.535 c -0.866,-0.578 -1.425,-1.428 -1.571,-2.394 -0.149,-0.982 0.145,-1.948 0.827,-2.721 0.757,-0.858 1.89,-1.35 3.11,-1.35 0.856,0 1.672,0.243 2.361,0.702 L 2.365,-6.465 C 3.232,-5.887 3.79,-5.037 3.937,-4.071 4.086,-3.089 3.792,-2.123 3.11,-1.35 2.353,-0.492 1.219,0 0,0 M 0,-1 C 0.933,-1 1.793,-1.368 2.36,-2.011 2.843,-2.559 3.052,-3.237 2.948,-3.921 2.844,-4.605 2.44,-5.213 1.811,-5.633 L -8.438,-12.466 C -8.961,-12.815 -9.586,-13 -10.244,-13 c -0.933,0 -1.793,0.369 -2.36,1.011 -0.483,0.548 -0.692,1.226 -0.588,1.91 0.103,0.684 0.507,1.292 1.137,1.712 l 10.249,6.833 C -1.283,-1.184 -0.658,-1 0,-1"
       style="fill:#999999;fill-opacity:1;fill-rule:nonzero;stroke:none"
       id="path114" /></g><g
     id="g116"
     transform="matrix(1.3333333,0,0,-1.3333333,56.555999,169.8092)"><path
       inkscape:connector-curvature="0"
       d="M 0,0 6.332,3.256 C 6.888,3.542 7.583,3.185 7.583,2.613 v -6.512 c 0,-0.572 -0.695,-0.929 -1.251,-0.644 L 0,-1.287 C -0.556,-1.001 -0.556,-0.286 0,0"
       style="fill:#262626;fill-opacity:1;fill-rule:nonzero;stroke:none"
       id="path118" /></g><g
     id="g120"
     transform="matrix(1.3333333,0,0,-1.3333333,103.444,171.52413)"><path
       inkscape:connector-curvature="0"
       d="m 0,0 -6.332,-3.256 c -0.556,-0.286 -1.251,0.071 -1.251,0.643 v 6.512 c 0,0.572 0.695,0.929 1.251,0.644 L 0,1.287 C 0.556,1.001 0.556,0.286 0,0"
       style="fill:#262626;fill-opacity:1;fill-rule:nonzero;stroke:none"
       id="path122" /></g><g
     id="g124"
     transform="matrix(1.3333333,0,0,-1.3333333,80.857465,147.22267)"><path
       inkscape:connector-curvature="0"
       d="M 0,0 3.256,-6.332 C 3.542,-6.888 3.185,-7.583 2.613,-7.583 h -6.512 c -0.572,0 -0.929,0.695 -0.644,1.251 L -1.287,0 C -1.001,0.556 -0.286,0.556 0,0"
       style="fill:#262626;fill-opacity:1;fill-rule:nonzero;stroke:none"
       id="path126" /></g><g
     id="g128"
     transform="matrix(1.3333333,0,0,-1.3333333,79.142531,194.11067)"><path
       inkscape:connector-curvature="0"
       d="m 0,0 -3.256,6.332 c -0.286,0.556 0.071,1.251 0.643,1.251 h 6.512 c 0.572,0 0.929,-0.695 0.644,-1.251 L 1.287,0 C 1.001,-0.556 0.286,-0.556 0,0"
       style="fill:#262626;fill-opacity:1;fill-rule:nonzero;stroke:none"
       id="path130" /></g><g
     id="g132"
     transform="matrix(1.3333333,0,0,-1.3333333,79.999998,133.33334)"><path
       inkscape:connector-curvature="0"
       d="m 0,0 c -15.464,0 -28,-12.536 -28,-28 0,-15.464 12.536,-28 28,-28 15.464,0 28,12.536 28,28 C 28,-12.536 15.464,0 0,0 m 0,-2 c 14.336,0 26,-11.664 26,-26 0,-14.336 -11.664,-26 -26,-26 -14.336,0 -26,11.664 -26,26 0,14.336 11.664,26 26,26"
       style="fill:#999999;fill-opacity:1;fill-rule:nonzero;stroke:none"
       id="path134" /></g><path
     inkscape:connector-curvature="0"
     d="m 176,109.33334 h -10.66667 v -2.66667 H 176 Z"
     style="fill:#999999;fill-opacity:1;fill-rule:nonzero;stroke:none;stroke-width:1.33333325"
     id="path136" /><g
     id="g138"
     transform="matrix(1.3333333,0,0,-1.3333333,136.25386,134.31227)"><path
       inkscape:connector-curvature="0"
       d="m 0,0 c -0.26,-0.004 -0.481,-0.041 -0.658,-0.114 -0.18,-0.072 -0.268,-0.209 -0.268,-0.412 0,-0.155 0.075,-0.266 0.226,-0.332 0.154,-0.066 0.331,-0.1 0.534,-0.1 l 1.597,0.006 c 0.06,-0.004 0.119,-0.006 0.184,-0.006 0.063,0 0.128,-0.001 0.19,-0.005 0.188,-0.007 0.372,-0.029 0.552,-0.064 0.182,-0.035 0.34,-0.098 0.481,-0.191 0.127,-0.081 0.224,-0.178 0.286,-0.293 0.065,-0.114 0.104,-0.232 0.12,-0.355 0.005,-0.037 0.01,-0.072 0.013,-0.107 C 3.259,-2.008 3.262,-2.044 3.262,-2.081 3.249,-2.542 3.067,-2.855 2.71,-3.02 2.352,-3.184 1.868,-3.266 1.254,-3.266 h -3.21 v 0.708 h 3.02 c 0.265,-0.003 0.497,0.026 0.689,0.09 0.195,0.062 0.273,0.204 0.237,0.426 -0.026,0.173 -0.12,0.28 -0.278,0.32 -0.162,0.041 -0.352,0.063 -0.57,0.067 l -1.42,0.005 c -0.593,-0.003 -1.059,0.079 -1.402,0.246 -0.346,0.169 -0.515,0.472 -0.51,0.911 0.013,0.461 0.197,0.776 0.556,0.944 0.359,0.168 0.846,0.252 1.46,0.252 L 2.981,0.708 V 0 Z"
       style="fill:#808080;fill-opacity:1;fill-rule:nonzero;stroke:none"
       id="path140" /></g><g
     id="g142"
     transform="matrix(1.3333333,0,0,-1.3333333,144.43493,138.66667)"><path
       inkscape:connector-curvature="0"
       d="m 0,0 c -0.72,0.005 -1.282,0.108 -1.685,0.309 -0.402,0.202 -0.602,0.586 -0.602,1.154 v 2.511 h 1.445 V 1.583 c 0,-0.276 0.061,-0.461 0.186,-0.557 C -0.531,0.93 -0.274,0.882 0.115,0.882 L 1.279,0.875 V 3.974 H 2.723 V 0 Z"
       style="fill:#808080;fill-opacity:1;fill-rule:nonzero;stroke:none"
       id="path144" /></g><g
     id="g146"
     transform="matrix(1.3333333,0,0,-1.3333333,152.68013,134.31227)"><path
       inkscape:connector-curvature="0"
       d="M 0,0 H -1.393 V -1.174 H 0.07 c 0.293,0 0.544,0.04 0.756,0.12 0.213,0.079 0.319,0.233 0.319,0.462 0.01,0.254 -0.101,0.415 -0.337,0.484 C 0.57,-0.04 0.303,-0.005 0,-0.005 Z M 0.016,0.708 C 0.021,0.704 0.028,0.703 0.036,0.703 H 0.054 0.357 C 0.458,0.703 0.559,0.699 0.66,0.692 0.839,0.685 1.018,0.667 1.197,0.64 1.375,0.612 1.541,0.567 1.694,0.504 1.976,0.389 2.175,0.232 2.295,0.033 2.414,-0.166 2.476,-0.375 2.481,-0.592 2.486,-0.792 2.437,-0.984 2.333,-1.168 2.23,-1.352 2.059,-1.505 1.821,-1.627 1.619,-1.727 1.401,-1.793 1.165,-1.823 0.93,-1.855 0.689,-1.875 0.445,-1.882 H 0.254 0.062 l -1.455,0.005 v -1.389 h -1.202 v 3.974 z"
       style="fill:#808080;fill-opacity:1;fill-rule:nonzero;stroke:none"
       id="path148" /></g><g
     id="g150"
     transform="matrix(1.3333333,0,0,-1.3333333,159.0328,134.61867)"><path
       inkscape:connector-curvature="0"
       d="m 0,0 c -0.218,-0.16 -0.34,-0.388 -0.369,-0.684 l 3.337,0.006 V -1.37 h -3.345 c 0,-0.14 0.023,-0.275 0.068,-0.404 0.046,-0.13 0.137,-0.248 0.275,-0.354 0.125,-0.1 0.268,-0.162 0.437,-0.186 C 0.569,-2.338 0.741,-2.35 0.918,-2.35 H 0.954 0.99 l 1.978,0.006 V -3.036 H 0.933 c -0.325,0 -0.637,0.02 -0.938,0.061 -0.302,0.041 -0.585,0.134 -0.85,0.282 -0.32,0.181 -0.543,0.401 -0.671,0.661 -0.127,0.261 -0.197,0.527 -0.208,0.8 -0.005,0.059 -0.007,0.117 -0.002,0.172 0.002,0.055 0.005,0.11 0.01,0.166 0.06,0.627 0.304,1.089 0.738,1.384 0.434,0.295 1.087,0.442 1.952,0.442 L 2.968,0.938 V 0.246 H 0.99 C 0.548,0.242 0.218,0.16 0,0"
       style="fill:#808080;fill-opacity:1;fill-rule:nonzero;stroke:none"
       id="path152" /></g><g
     id="g154"
     transform="matrix(1.3333333,0,0,-1.3333333,167.80973,134.31227)"><path
       inkscape:connector-curvature="0"
       d="M 0,0 H -1.563 V -1.002 H 0 c 0.011,-0.003 0.022,-0.005 0.033,-0.005 h 0.033 c 0.269,0 0.516,0.026 0.739,0.08 0.222,0.053 0.329,0.195 0.324,0.423 0,0.236 -0.116,0.379 -0.349,0.427 C 0.547,-0.03 0.286,-0.005 0,-0.005 Z M 0.302,0.708 C 0.365,0.704 0.426,0.703 0.483,0.703 0.544,0.703 0.604,0.701 0.665,0.697 0.895,0.69 1.123,0.666 1.346,0.625 1.565,0.585 1.763,0.509 1.931,0.398 2.082,0.303 2.197,0.19 2.271,0.061 c 0.077,-0.129 0.124,-0.262 0.14,-0.399 0,-0.026 0.003,-0.051 0.006,-0.077 C 2.42,-0.441 2.42,-0.467 2.42,-0.493 2.425,-0.769 2.329,-1.008 2.128,-1.21 1.928,-1.411 1.618,-1.544 1.197,-1.611 L 2.708,-3.266 H 1.272 l -1.332,1.562 h -1.503 v -1.562 h -1.274 v 3.974 z"
       style="fill:#808080;fill-opacity:1;fill-rule:nonzero;stroke:none"
       id="path156" /></g><g
     id="g158"
     transform="matrix(1.3333333,0,0,-1.3333333,176.25626,134.0396)"><path
       inkscape:connector-curvature="0"
       d="M 0,0 C 0.354,0.332 1.132,0.498 2.33,0.498 L 4.196,0.504 V -0.188 H 2.225 C 1.713,-0.195 1.335,-0.271 1.095,-0.415 0.855,-0.559 0.72,-0.808 0.694,-1.162 l 3.502,0.005 V -1.843 H 0.694 V -3.47 H -0.53 v 1.827 C -0.53,-0.88 -0.354,-0.332 0,0"
       style="fill:#808080;fill-opacity:1;fill-rule:nonzero;stroke:none"
       id="path160" /></g><g
     id="g162"
     transform="matrix(1.3333333,0,0,-1.3333333,197.0012,133.33334)"><path
       inkscape:connector-curvature="0"
       d="M 0,0 C 0.619,-0.01 1.101,-0.115 1.454,-0.317 1.806,-0.518 1.984,-0.9 1.993,-1.463 V -3.974 H 0.717 v 2.383 c 0,0.372 -0.095,0.587 -0.285,0.645 -0.192,0.057 -0.479,0.081 -0.861,0.071 -0.06,-0.005 -0.122,-0.007 -0.187,-0.007 h -0.195 v -3.092 h -1.291 v 3.099 H -3.586 V -3.974 H -4.859 V 0 Z"
       style="fill:#808080;fill-opacity:1;fill-rule:nonzero;stroke:none"
       id="path164" /></g><path
     inkscape:connector-curvature="0"
     d="m 200.71733,133.368 h 1.94933 v 5.29867 h -1.94933 z"
     style="fill:#808080;fill-opacity:1;fill-rule:nonzero;stroke:none;stroke-width:1.33333325"
     id="path166" /><g
     id="g168"
     transform="matrix(1.3333333,0,0,-1.3333333,185.35226,137.60134)"><path
       inkscape:connector-curvature="0"
       d="M 0,0 H 1.679 V 0.822 H 0.097 C 0.085,0.817 0.072,0.815 0.06,0.815 H 0.022 C -0.16,0.81 -0.326,0.783 -0.48,0.735 -0.634,0.687 -0.716,0.576 -0.722,0.4 -0.735,0.204 -0.665,0.088 -0.515,0.053 -0.364,0.018 -0.191,-0.002 0,-0.007 Z M 0.967,3.175 C 1.262,3.17 1.544,3.143 1.821,3.095 2.094,3.048 2.339,2.938 2.558,2.768 2.743,2.627 2.872,2.461 2.948,2.271 3.02,2.079 3.057,1.883 3.057,1.682 v -2.481 h -3.606 c -0.521,0 -0.92,0.112 -1.196,0.335 -0.277,0.225 -0.402,0.535 -0.374,0.932 0.044,0.477 0.261,0.786 0.644,0.928 0.386,0.141 0.847,0.211 1.381,0.211 L 1.67,1.614 C 1.689,1.94 1.582,2.144 1.347,2.225 1.111,2.305 0.813,2.346 0.455,2.346 l -2.238,0.007 v 0.822 z"
       style="fill:#808080;fill-opacity:1;fill-rule:nonzero;stroke:none"
       id="path170" /></g><g
     id="g172"
     transform="matrix(1.3333333,0,0,-1.3333333,168.0348,123.60814)"><path
       inkscape:connector-curvature="0"
       d="M 0,0 H 1.811 V -0.779 H 2.79 V -1.352 H 1.811 L 1.813,-5.195 H -0.001 L 0,-1.352 h -0.984 v 0.572 h 0.986 z"
       style="fill:#808080;fill-opacity:1;fill-rule:nonzero;stroke:none"
       id="path174" /></g><path
     inkscape:connector-curvature="0"
     d="M 139.74666,125.40134 H 142.16 v 5.13333 h -2.41334 z"
     style="fill:#808080;fill-opacity:1;fill-rule:nonzero;stroke:none;stroke-width:1.33333325"
     id="path176" /><path
     inkscape:connector-curvature="0"
     d="M 139.74133,122.81334 H 142.16 v 1.57733 h -2.41867 z"
     style="fill:#808080;fill-opacity:1;fill-rule:nonzero;stroke:none;stroke-width:1.33333325"
     id="path178" /><g
     id="g180"
     transform="matrix(1.3333333,0,0,-1.3333333,184.1096,127.75147)"><path
       inkscape:connector-curvature="0"
       d="m 0,0 v 0 c 0,-0.011 -0.001,-0.583 -0.001,-0.813 0,-0.614 -0.377,-0.867 -0.741,-0.867 -0.362,0 -0.74,0.253 -0.74,0.867 v 0.829 c 0,0 10e-4,0.571 10e-4,0.803 0,0.611 0.379,0.863 0.739,0.863 0.362,0 0.741,-0.252 0.741,-0.863 0,-0.232 0,-0.664 0.001,-0.819 v 0.001 z m -0.727,2.158 c -1.461,0 -2.646,-0.968 -2.646,-2.161 0,-1.195 1.185,-2.162 2.646,-2.162 1.461,0 2.645,0.967 2.645,2.162 0,1.193 -1.184,2.161 -2.645,2.161"
       style="fill:#808080;fill-opacity:1;fill-rule:nonzero;stroke:none"
       id="path182" /></g><g
     id="g184"
     transform="matrix(1.3333333,0,0,-1.3333333,145.96666,127.0092)"><path
       inkscape:connector-curvature="0"
       d="m 0,0 c 0,0.597 0.428,0.748 0.709,0.748 0.288,0 0.71,-0.151 0.71,-0.748 0,-0.196 -0.001,-0.685 -0.001,-0.685 0,0 0.001,-0.481 0.001,-0.686 0,-0.594 -0.422,-0.75 -0.709,-0.75 -0.282,0 -0.71,0.156 -0.71,0.75 v 0.683 z m -1.774,3.158 v -5.79 h 1.791 c 0,0 10e-4,0.188 10e-4,0.222 0.692,-0.417 1.473,-0.416 2.083,-0.144 0.162,0.074 1.238,0.569 1.238,1.91 0,1.015 -0.998,2.126 -2.301,2.015 C 0.608,1.335 0.302,1.185 0.014,1.027 v 2.131 z"
       style="fill:#808080;fill-opacity:1;fill-rule:nonzero;stroke:none"
       id="path186" /></g><g
     id="g188"
     transform="matrix(1.3333333,0,0,-1.3333333,162.23413,125.97934)"><path
       inkscape:connector-curvature="0"
       d="m 0,0 c 0.141,0.237 0.4,0.351 0.636,0.351 v 0 H 0.637 0.636 C 0.873,0.351 1.133,0.237 1.274,0 1.388,-0.192 1.394,-0.417 1.391,-0.756 H -0.12 C -0.123,-0.417 -0.116,-0.192 0,0 m 1.386,-2.15 c 0,-0.705 -0.482,-0.861 -0.749,-0.861 -0.268,0 -0.757,0.156 -0.757,0.861 0,0.211 0.001,0.795 0.001,0.795 0,0 3.409,-0.001 3.409,0 0,1.195 -1.198,2.184 -2.67,2.184 -1.472,0 -2.665,-0.968 -2.665,-2.162 0,-1.194 1.193,-2.162 2.665,-2.162 1.221,0 2.253,0.671 2.568,1.579 L 1.385,-1.917 c 0,0 10e-4,-0.016 10e-4,-0.233"
       style="fill:#808080;fill-opacity:1;fill-rule:nonzero;stroke:none"
       id="path190" /></g><g
     id="g192"
     transform="matrix(1.3333333,0,0,-1.3333333,135.75026,129.77187)"><path
       inkscape:connector-curvature="0"
       d="M 0,0 V 5.245 H -1.813 V 0 -0.572 H 0 1.961 V 0 Z"
       style="fill:#808080;fill-opacity:1;fill-rule:nonzero;stroke:none"
       id="path194" /></g><g
     id="g196"
     transform="matrix(1.3333333,0,0,-1.3333333,176.8168,127.2804)"><path
       inkscape:connector-curvature="0"
       d="M 0,0 H 1.774 C 1.591,1.243 0.381,1.603 -0.242,1.587 -0.84,1.57 -1.338,1.323 -1.685,1.005 c -0.002,0.095 0,0.406 0,0.406 l -1.796,-0.002 -0.002,-3.85 h 1.798 c 0,0 -0.002,2.365 -0.002,2.528 0,0.336 0.367,0.71 0.86,0.71 C -0.335,0.797 0,0.423 0,0.087 Z"
       style="fill:#808080;fill-opacity:1;fill-rule:nonzero;stroke:none"
       id="path198" /></g><g
     id="g200"
     transform="matrix(1.3333333,0,0,-1.3333333,154.21466,125.4072)"><path
       inkscape:connector-curvature="0"
       d="m 0,0 v 0.683 c 0,0.594 0.428,0.75 0.71,0.75 0.287,0 0.709,-0.156 0.709,-0.75 0,-0.205 -0.001,-0.686 -0.001,-0.686 0,0 0.001,-0.488 0.001,-0.685 0,-0.596 -0.422,-0.748 -0.71,-0.748 C 0.428,-1.436 0,-1.284 0,-0.688 Z m 3.339,-0.043 c 0,1.34 -1.076,1.836 -1.238,1.909 -0.61,0.272 -1.391,0.273 -2.083,-0.144 0,0.035 -10e-4,0.222 -10e-4,0.222 h -1.791 v -5.79 h 1.788 v 2.131 c 0.007,-0.004 0.015,-0.008 0.023,-0.012 l 1.401,-2.119 h 1.774 l -1.265,1.912 c 0.83,0.313 1.392,1.129 1.392,1.891"
       style="fill:#808080;fill-opacity:1;fill-rule:nonzero;stroke:none"
       id="path202" /></g><g
     id="g204"
     transform="matrix(1.3333333,0,0,-1.3333333,121.33333,125.33334)"><path
       inkscape:connector-curvature="0"
       d="m 0,0 c 0,-1.105 -1.343,-2 -3,-2 -1.657,0 -3,0.895 -3,2 0,1.105 1.343,2 3,2 1.657,0 3,-0.895 3,-2"
       style="fill:#808080;fill-opacity:1;fill-rule:nonzero;stroke:none"
       id="path206" /></g><g
     id="g208"
     transform="matrix(1.3333333,0,0,-1.3333333,113.33333,130.66667)"><path
       inkscape:connector-curvature="0"
       d="m 0,0 c 0,-1.105 -1.343,-2 -3,-2 -1.657,0 -3,0.895 -3,2 0,1.105 1.343,2 3,2 1.657,0 3,-0.895 3,-2"
       style="fill:#808080;fill-opacity:1;fill-rule:nonzero;stroke:none"
       id="path210" /></g><g
     id="g212"
     transform="matrix(1.3333333,0,0,-1.3333333,129.33333,130.66667)"><path
       inkscape:connector-curvature="0"
       d="m 0,0 c 0,-1.105 -1.343,-2 -3,-2 -1.657,0 -3,0.895 -3,2 0,1.105 1.343,2 3,2 1.657,0 3,-0.895 3,-2"
       style="fill:#808080;fill-opacity:1;fill-rule:nonzero;stroke:none"
       id="path214" /></g><g
     id="g216"
     transform="matrix(1.3333333,0,0,-1.3333333,121.33333,136)"><path
       inkscape:connector-curvature="0"
       d="m 0,0 c 0,-1.105 -1.343,-2 -3,-2 -1.657,0 -3,0.895 -3,2 0,1.105 1.343,2 3,2 1.657,0 3,-0.895 3,-2"
       style="fill:#808080;fill-opacity:1;fill-rule:nonzero;stroke:none"
       id="path218" /></g></svg>