<?xml version="1.0" encoding="UTF-8" standalone="no"?>
<svg
   xmlns:dc="http://purl.org/dc/elements/1.1/"
   xmlns:cc="http://creativecommons.org/ns#"
   xmlns:rdf="http://www.w3.org/1999/02/22-rdf-syntax-ns#"
   xmlns:svg="http://www.w3.org/2000/svg"
   xmlns="http://www.w3.org/2000/svg"
   xmlns:sodipodi="http://sodipodi.sourceforge.net/DTD/sodipodi-0.dtd"
   xmlns:inkscape="http://www.inkscape.org/namespaces/inkscape"
   viewBox="0 0 341.33334 341.33334"
   height="341.33334"
   width="341.33334"
   xml:space="preserve"
   id="svg2"
   version="1.1"
   sodipodi:docname="Nintendo - Wii U-content.svg"
   inkscape:version="0.92.2 (5c3e80d, 2017-08-06)"><sodipodi:namedview
     pagecolor="#ffffff"
     bordercolor="#666666"
     borderopacity="1"
     objecttolerance="10"
     gridtolerance="10"
     guidetolerance="10"
     inkscape:pageopacity="0"
     inkscape:pageshadow="2"
     inkscape:window-width="1024"
     inkscape:window-height="705"
     id="namedview146"
     showgrid="false"
     inkscape:pagecheckerboard="true"
     inkscape:zoom="0.69140623"
     inkscape:cx="170.66667"
     inkscape:cy="170.66667"
     inkscape:window-x="-8"
     inkscape:window-y="-8"
     inkscape:window-maximized="1"
     inkscape:current-layer="svg2" /><metadata
     id="metadata8"><rdf:RDF><cc:Work
         rdf:about=""><dc:format>image/svg+xml</dc:format><dc:type
           rdf:resource="http://purl.org/dc/dcmitype/StillImage" /><dc:title></dc:title></cc:Work></rdf:RDF></metadata><defs
     id="defs6"><clipPath
       id="clipPath18"
       clipPathUnits="userSpaceOnUse"><path
         id="path16"
         d="M 0,256 H 256 V 0 H 0 Z" /></clipPath><clipPath
       id="clipPath26"
       clipPathUnits="userSpaceOnUse"><path
         id="path24"
         d="M 4,252 H 252 V 4 H 4 Z" /></clipPath></defs><g
     id="g36"
     transform="matrix(1.3333333,0,0,-1.3333333,170.66666,112.66014)"><path
       inkscape:connector-curvature="0"
       d="M 0,0 C 23.992,0 43.505,-19.517 43.505,-43.505 43.505,-67.492 23.992,-87.01 0,-87.01 c -23.988,0 -43.5,19.518 -43.5,43.505 C -43.5,-19.517 -23.988,0 0,0 m 0,-159.505 c 64.07,0 116,51.935 116,116 0,64.066 -51.93,116 -116,116 -64.051,0 -116,-51.934 -116,-116 0,-64.065 51.949,-116 116,-116"
       style="fill:#cccccc;fill-opacity:1;fill-rule:nonzero;stroke:none"
       id="path38" /></g><g
     id="g40"
     transform="matrix(1.3333333,0,0,-1.3333333,125.8476,22.606138)"><path
       inkscape:connector-curvature="0"
       d="M 0,0 C -0.46,-0.139 -0.919,-0.279 -1.377,-0.423 -0.919,-0.279 -0.46,-0.139 0,0"
       style="fill:#3096cf;fill-opacity:1;fill-rule:nonzero;stroke:none"
       id="path42" /></g><g
     id="g44"
     transform="matrix(1.3333333,0,0,-1.3333333,133.35093,20.544271)"><path
       inkscape:connector-curvature="0"
       d="M 0,0 C -0.477,-0.118 -0.954,-0.236 -1.428,-0.36 -0.954,-0.236 -0.477,-0.118 0,0"
       style="fill:#3096cf;fill-opacity:1;fill-rule:nonzero;stroke:none"
       id="path46" /></g><g
     id="g48"
     transform="matrix(1.3333333,0,0,-1.3333333,129.58066,21.529338)"><path
       inkscape:connector-curvature="0"
       d="M 0,0 C -0.469,-0.129 -0.937,-0.258 -1.403,-0.392 -0.937,-0.258 -0.469,-0.129 0,0"
       style="fill:#3096cf;fill-opacity:1;fill-rule:nonzero;stroke:none"
       id="path50" /></g><g
     id="g52"
     transform="matrix(1.3333333,0,0,-1.3333333,122.164,23.770138)"><path
       inkscape:connector-curvature="0"
       d="M 0,0 C -0.455,-0.15 -0.909,-0.301 -1.362,-0.457 -0.909,-0.302 -0.455,-0.15 0,0"
       style="fill:#3096cf;fill-opacity:1;fill-rule:nonzero;stroke:none"
       id="path54" /></g><g
     id="g56"
     transform="matrix(1.3333333,0,0,-1.3333333,137.15626,19.652938)"><path
       inkscape:connector-curvature="0"
       d="M 0,0 C -0.485,-0.107 -0.97,-0.213 -1.452,-0.326 -0.97,-0.213 -0.485,-0.107 0,0"
       style="fill:#3096cf;fill-opacity:1;fill-rule:nonzero;stroke:none"
       id="path58" /></g><g
     id="g60"
     transform="matrix(1.3333333,0,0,-1.3333333,114.91666,26.365205)"><path
       inkscape:connector-curvature="0"
       d="M 0,0 C -0.442,-0.171 -0.884,-0.344 -1.324,-0.521 -0.884,-0.344 -0.442,-0.171 0,0"
       style="fill:#3096cf;fill-opacity:1;fill-rule:nonzero;stroke:none"
       id="path62" /></g><g
     id="g64"
     transform="matrix(1.3333333,0,0,-1.3333333,118.51826,25.024805)"><path
       inkscape:connector-curvature="0"
       d="M 0,0 C -0.448,-0.16 -0.896,-0.322 -1.341,-0.488 -0.896,-0.322 -0.448,-0.16 0,0"
       style="fill:#3096cf;fill-opacity:1;fill-rule:nonzero;stroke:none"
       id="path66" /></g><g
     id="g68"
     transform="matrix(1.3333333,0,0,-1.3333333,152.77866,17.035871)"><path
       inkscape:connector-curvature="0"
       d="M 0,0 C -0.527,-0.061 -1.056,-0.119 -1.581,-0.187 -1.056,-0.119 -0.527,-0.061 0,0"
       style="fill:#3096cf;fill-opacity:1;fill-rule:nonzero;stroke:none"
       id="path70" /></g><g
     id="g72"
     transform="matrix(1.3333333,0,0,-1.3333333,156.78706,16.626938)"><path
       inkscape:connector-curvature="0"
       d="M 0,0 C -0.544,-0.048 -1.089,-0.094 -1.631,-0.149 -1.089,-0.094 -0.544,-0.048 0,0"
       style="fill:#3096cf;fill-opacity:1;fill-rule:nonzero;stroke:none"
       id="path74" /></g><g
     id="g76"
     transform="matrix(1.3333333,0,0,-1.3333333,160.8808,16.317071)"><path
       inkscape:connector-curvature="0"
       d="M 0,0 C -0.574,-0.036 -1.148,-0.068 -1.72,-0.113 -1.148,-0.068 -0.574,-0.036 0,0"
       style="fill:#3096cf;fill-opacity:1;fill-rule:nonzero;stroke:none"
       id="path78" /></g><g
     id="g80"
     transform="matrix(1.3333333,0,0,-1.3333333,165.17773,16.107471)"><path
       inkscape:connector-curvature="0"
       d="M 0,0 C -0.648,-0.022 -1.298,-0.043 -1.944,-0.076 -1.298,-0.043 -0.648,-0.022 0,0"
       style="fill:#3096cf;fill-opacity:1;fill-rule:nonzero;stroke:none"
       id="path82" /></g><g
     id="g84"
     transform="matrix(1.3333333,0,0,-1.3333333,144.88613,18.151738)"><path
       inkscape:connector-curvature="0"
       d="M 0,0 C -0.502,-0.084 -1.005,-0.167 -1.505,-0.257 -1.005,-0.167 -0.502,-0.084 0,0"
       style="fill:#3096cf;fill-opacity:1;fill-rule:nonzero;stroke:none"
       id="path86" /></g><g
     id="g88"
     transform="matrix(1.3333333,0,0,-1.3333333,140.99733,18.855471)"><path
       inkscape:connector-curvature="0"
       d="M 0,0 C -0.491,-0.096 -0.983,-0.189 -1.472,-0.291 -0.983,-0.189 -0.491,-0.096 0,0"
       style="fill:#3096cf;fill-opacity:1;fill-rule:nonzero;stroke:none"
       id="path90" /></g><g
     id="g92"
     transform="matrix(1.3333333,0,0,-1.3333333,148.80853,17.545605)"><path
       inkscape:connector-curvature="0"
       d="M 0,0 C -0.513,-0.072 -1.027,-0.143 -1.538,-0.222 -1.027,-0.143 -0.513,-0.072 0,0"
       style="fill:#3096cf;fill-opacity:1;fill-rule:nonzero;stroke:none"
       id="path94" /></g><g
     id="g96"
     transform="matrix(1.3333333,0,0,-1.3333333,111.3548,27.792938)"><path
       inkscape:connector-curvature="0"
       d="M 0,0 C -0.435,-0.181 -0.868,-0.364 -1.3,-0.55 -0.868,-0.364 -0.435,-0.181 0,0"
       style="fill:#3096cf;fill-opacity:1;fill-rule:nonzero;stroke:none"
       id="path98" /></g><g
     id="g100"
     transform="matrix(1.3333333,0,0,-1.3333333,84.582665,42.162137)"><path
       inkscape:connector-curvature="0"
       d="M 0,0 C -0.376,-0.252 -0.749,-0.511 -1.122,-0.768 -0.749,-0.511 -0.376,-0.252 0,0"
       style="fill:#3096cf;fill-opacity:1;fill-rule:nonzero;stroke:none"
       id="path102" /></g><g
     id="g104"
     transform="matrix(1.3333333,0,0,-1.3333333,170.5768,16.001338)"><path
       inkscape:connector-curvature="0"
       d="M 0,0 C -0.994,0 -1.985,-0.013 -2.973,-0.039 -1.985,-0.013 -0.994,0 0,0"
       style="fill:#3096cf;fill-opacity:1;fill-rule:nonzero;stroke:none"
       id="path106" /></g><g
     id="g108"
     transform="matrix(1.3333333,0,0,-1.3333333,75.406931,48.818404)"><path
       inkscape:connector-curvature="0"
       d="M 0,0 C -0.349,-0.273 -0.693,-0.552 -1.038,-0.83 -0.693,-0.552 -0.349,-0.273 0,0"
       style="fill:#3096cf;fill-opacity:1;fill-rule:nonzero;stroke:none"
       id="path110" /></g><g
     id="g112"
     transform="matrix(1.3333333,0,0,-1.3333333,107.8372,29.306671)"><path
       inkscape:connector-curvature="0"
       d="M 0,0 C -0.428,-0.19 -0.854,-0.383 -1.278,-0.579 -0.854,-0.383 -0.428,-0.19 0,0"
       style="fill:#3096cf;fill-opacity:1;fill-rule:nonzero;stroke:none"
       id="path114" /></g><g
     id="g116"
     transform="matrix(1.3333333,0,0,-1.3333333,78.406265,46.528671)"><path
       inkscape:connector-curvature="0"
       d="M 0,0 C -0.357,-0.266 -0.709,-0.538 -1.064,-0.808 -0.709,-0.538 -0.357,-0.266 0,0"
       style="fill:#3096cf;fill-opacity:1;fill-rule:nonzero;stroke:none"
       id="path118" /></g><g
     id="g120"
     transform="matrix(1.3333333,0,0,-1.3333333,170.66666,16.000005)"><path
       inkscape:connector-curvature="0"
       d="M 0,0 H -0.001 C 1.017,0 2.032,-0.014 3.044,-0.04 2.032,-0.014 1.018,0 0,0"
       style="fill:#3096cf;fill-opacity:1;fill-rule:nonzero;stroke:none"
       id="path122" /></g><g
     id="g124"
     transform="matrix(1.3333333,0,0,-1.3333333,66.752665,56.114537)"><path
       inkscape:connector-curvature="0"
       d="M 0,0 C -0.29,-0.263 -0.573,-0.532 -0.859,-0.798 -0.573,-0.532 -0.29,-0.263 0,0"
       style="fill:#3096cf;fill-opacity:1;fill-rule:nonzero;stroke:none"
       id="path126" /></g><g
     id="g128"
     transform="matrix(1.3333333,0,0,-1.3333333,69.577465,53.613337)"><path
       inkscape:connector-curvature="0"
       d="M 0,0 C -0.317,-0.274 -0.629,-0.555 -0.943,-0.833 -0.629,-0.555 -0.317,-0.274 0,0"
       style="fill:#3096cf;fill-opacity:1;fill-rule:nonzero;stroke:none"
       id="path130" /></g><g
     id="g132"
     transform="matrix(1.3333333,0,0,-1.3333333,81.464798,44.309871)"><path
       inkscape:connector-curvature="0"
       d="M 0,0 C -0.365,-0.258 -0.726,-0.522 -1.088,-0.785 -0.726,-0.522 -0.365,-0.258 0,0"
       style="fill:#3096cf;fill-opacity:1;fill-rule:nonzero;stroke:none"
       id="path134" /></g><g
     id="g136"
     transform="matrix(1.3333333,0,0,-1.3333333,87.747998,40.093738)"><path
       inkscape:connector-curvature="0"
       d="M 0,0 C -0.383,-0.244 -0.763,-0.493 -1.143,-0.741 -0.763,-0.493 -0.383,-0.244 0,0"
       style="fill:#3096cf;fill-opacity:1;fill-rule:nonzero;stroke:none"
       id="path138" /></g><g
     id="g140"
     transform="matrix(1.3333333,0,0,-1.3333333,104.36973,30.901738)"><path
       inkscape:connector-curvature="0"
       d="M 0,0 C -0.422,-0.201 -0.842,-0.404 -1.261,-0.61 -0.842,-0.404 -0.422,-0.2 0,0"
       style="fill:#3096cf;fill-opacity:1;fill-rule:nonzero;stroke:none"
       id="path142" /></g><g
     id="g144"
     transform="matrix(1.3333333,0,0,-1.3333333,97.572931,34.339204)"><path
       inkscape:connector-curvature="0"
       d="M 0,0 C -0.408,-0.219 -0.814,-0.443 -1.219,-0.667 -0.814,-0.443 -0.408,-0.219 0,0"
       style="fill:#3096cf;fill-opacity:1;fill-rule:nonzero;stroke:none"
       id="path146" /></g><g
     id="g148"
     transform="matrix(1.3333333,0,0,-1.3333333,100.94786,32.579471)"><path
       inkscape:connector-curvature="0"
       d="M 0,0 C -0.415,-0.21 -0.828,-0.424 -1.24,-0.639 -0.828,-0.424 -0.415,-0.21 0,0"
       style="fill:#3096cf;fill-opacity:1;fill-rule:nonzero;stroke:none"
       id="path150" /></g><g
     id="g152"
     transform="matrix(1.3333333,0,0,-1.3333333,94.251331,36.176404)"><path
       inkscape:connector-curvature="0"
       d="M 0,0 C -0.403,-0.229 -0.803,-0.463 -1.202,-0.697 -0.803,-0.463 -0.403,-0.229 0,0"
       style="fill:#3096cf;fill-opacity:1;fill-rule:nonzero;stroke:none"
       id="path154" /></g><g
     id="g156"
     transform="matrix(1.3333333,0,0,-1.3333333,90.975198,38.095738)"><path
       inkscape:connector-curvature="0"
       d="M 0,0 C -0.393,-0.236 -0.782,-0.477 -1.171,-0.718 -0.782,-0.478 -0.393,-0.236 0,0"
       style="fill:#3096cf;fill-opacity:1;fill-rule:nonzero;stroke:none"
       id="path158" /></g><g
     id="g160"
     transform="matrix(1.3333333,0,0,-1.3333333,72.462932,51.180404)"><path
       inkscape:connector-curvature="0"
       d="M 0,0 C -0.336,-0.276 -0.667,-0.56 -0.999,-0.839 -0.667,-0.56 -0.336,-0.276 0,0"
       style="fill:#3096cf;fill-opacity:1;fill-rule:nonzero;stroke:none"
       id="path162" /></g><g
     id="g164"
     transform="matrix(1.3333333,0,0,-1.3333333,63.101598,59.548804)"><path
       inkscape:connector-curvature="0"
       d="M 0,0 C 0.223,0.216 0.442,0.436 0.667,0.65 0.442,0.436 0.223,0.216 0,0"
       style="fill:#3096cf;fill-opacity:1;fill-rule:nonzero;stroke:none"
       id="path166" /></g><g
     id="g168"
     transform="matrix(1.3333333,0,0,-1.3333333,242.26693,33.545604)"><path
       inkscape:connector-curvature="0"
       d="M 0,0 C -0.505,0.265 -1.012,0.526 -1.521,0.783 -1.012,0.526 -0.505,0.265 0,0"
       style="fill:#3096cf;fill-opacity:1;fill-rule:nonzero;stroke:none"
       id="path170" /></g><g
     id="g172"
     transform="matrix(1.3333333,0,0,-1.3333333,248.96613,37.265604)"><path
       inkscape:connector-curvature="0"
       d="M 0,0 C -0.504,0.296 -1.008,0.591 -1.517,0.879 -1.008,0.591 -0.504,0.296 0,0"
       style="fill:#3096cf;fill-opacity:1;fill-rule:nonzero;stroke:none"
       id="path174" /></g><g
     id="g176"
     transform="matrix(1.3333333,0,0,-1.3333333,245.63799,35.363338)"><path
       inkscape:connector-curvature="0"
       d="M 0,0 C -0.503,0.279 -1.007,0.557 -1.515,0.829 -1.007,0.557 -0.503,0.279 0,0"
       style="fill:#3096cf;fill-opacity:1;fill-rule:nonzero;stroke:none"
       id="path178" /></g><g
     id="g180"
     transform="matrix(1.3333333,0,0,-1.3333333,228.32946,27.115205)"><path
       inkscape:connector-curvature="0"
       d="M 0,0 C -0.515,0.207 -1.031,0.41 -1.549,0.609 -1.031,0.41 -0.515,0.207 0,0"
       style="fill:#3096cf;fill-opacity:1;fill-rule:nonzero;stroke:none"
       id="path182" /></g><g
     id="g184"
     transform="matrix(1.3333333,0,0,-1.3333333,231.87893,28.593738)"><path
       inkscape:connector-curvature="0"
       d="M 0,0 C -0.512,0.22 -1.025,0.437 -1.54,0.651 -1.025,0.437 -0.512,0.22 0,0"
       style="fill:#3096cf;fill-opacity:1;fill-rule:nonzero;stroke:none"
       id="path186" /></g><g
     id="g188"
     transform="matrix(1.3333333,0,0,-1.3333333,235.38413,30.158804)"><path
       inkscape:connector-curvature="0"
       d="M 0,0 C -0.508,0.234 -1.018,0.465 -1.529,0.692 -1.018,0.465 -0.508,0.234 0,0"
       style="fill:#3096cf;fill-opacity:1;fill-rule:nonzero;stroke:none"
       id="path190" /></g><g
     id="g192"
     transform="matrix(1.3333333,0,0,-1.3333333,238.85026,31.811204)"><path
       inkscape:connector-curvature="0"
       d="M 0,0 C -0.507,0.249 -1.015,0.496 -1.525,0.738 -1.015,0.496 -0.507,0.249 0,0"
       style="fill:#3096cf;fill-opacity:1;fill-rule:nonzero;stroke:none"
       id="path194" /></g><g
     id="g196"
     transform="matrix(1.3333333,0,0,-1.3333333,268.00653,50.475871)"><path
       inkscape:connector-curvature="0"
       d="M 0,0 C -0.548,0.444 -1.097,0.886 -1.652,1.321 -1.097,0.886 -0.548,0.444 0,0"
       style="fill:#3096cf;fill-opacity:1;fill-rule:nonzero;stroke:none"
       id="path198" /></g><g
     id="g200"
     transform="matrix(1.3333333,0,0,-1.3333333,271.08599,53.037071)"><path
       inkscape:connector-curvature="0"
       d="M 0,0 C -0.58,0.495 -1.162,0.987 -1.751,1.471 -1.162,0.987 -0.58,0.495 0,0"
       style="fill:#3096cf;fill-opacity:1;fill-rule:nonzero;stroke:none"
       id="path202" /></g><g
     id="g204"
     transform="matrix(1.3333333,0,0,-1.3333333,274.19786,55.765604)"><path
       inkscape:connector-curvature="0"
       d="M 0,0 C -0.634,0.572 -1.273,1.138 -1.92,1.696 -1.273,1.138 -0.634,0.572 0,0"
       style="fill:#3096cf;fill-opacity:1;fill-rule:nonzero;stroke:none"
       id="path206" /></g><g
     id="g208"
     transform="matrix(1.3333333,0,0,-1.3333333,255.47653,41.316404)"><path
       inkscape:connector-curvature="0"
       d="M 0,0 C -0.505,0.332 -1.011,0.663 -1.522,0.987 -1.012,0.663 -0.505,0.332 0,0"
       style="fill:#3096cf;fill-opacity:1;fill-rule:nonzero;stroke:none"
       id="path210" /></g><g
     id="g212"
     transform="matrix(1.3333333,0,0,-1.3333333,258.66799,43.470004)"><path
       inkscape:connector-curvature="0"
       d="M 0,0 C -0.51,0.354 -1.021,0.706 -1.536,1.052 -1.021,0.706 -0.51,0.354 0,0"
       style="fill:#3096cf;fill-opacity:1;fill-rule:nonzero;stroke:none"
       id="path214" /></g><g
     id="g216"
     transform="matrix(1.3333333,0,0,-1.3333333,264.92706,48.042937)"><path
       inkscape:connector-curvature="0"
       d="M 0,0 C -0.53,0.408 -1.061,0.814 -1.598,1.213 -1.061,0.814 -0.53,0.408 0,0"
       style="fill:#3096cf;fill-opacity:1;fill-rule:nonzero;stroke:none"
       id="path218" /></g><g
     id="g220"
     transform="matrix(1.3333333,0,0,-1.3333333,261.81773,45.711604)"><path
       inkscape:connector-curvature="0"
       d="M 0,0 C -0.518,0.378 -1.036,0.756 -1.561,1.125 -1.036,0.756 -0.518,0.378 0,0"
       style="fill:#3096cf;fill-opacity:1;fill-rule:nonzero;stroke:none"
       id="path222" /></g><g
     id="g224"
     transform="matrix(1.3333333,0,0,-1.3333333,252.24613,39.250004)"><path
       inkscape:connector-curvature="0"
       d="M 0,0 C -0.504,0.313 -1.009,0.625 -1.518,0.932 -1.009,0.625 -0.504,0.313 0,0"
       style="fill:#3096cf;fill-opacity:1;fill-rule:nonzero;stroke:none"
       id="path226" /></g><g
     id="g228"
     transform="matrix(1.3333333,0,0,-1.3333333,186.74733,16.828805)"><path
       inkscape:connector-curvature="0"
       d="M 0,0 C -0.595,0.062 -1.192,0.111 -1.79,0.164 -1.192,0.111 -0.595,0.062 0,0"
       style="fill:#3096cf;fill-opacity:1;fill-rule:nonzero;stroke:none"
       id="path230" /></g><g
     id="g232"
     transform="matrix(1.3333333,0,0,-1.3333333,190.6992,17.289071)"><path
       inkscape:connector-curvature="0"
       d="M 0,0 C -0.579,0.075 -1.162,0.139 -1.743,0.206 -1.162,0.139 -0.579,0.075 0,0"
       style="fill:#3096cf;fill-opacity:1;fill-rule:nonzero;stroke:none"
       id="path234" /></g><g
     id="g236"
     transform="matrix(1.3333333,0,0,-1.3333333,194.61586,17.847071)"><path
       inkscape:connector-curvature="0"
       d="M 0,0 C -0.564,0.087 -1.132,0.166 -1.699,0.245 -1.132,0.166 -0.564,0.087 0,0"
       style="fill:#3096cf;fill-opacity:1;fill-rule:nonzero;stroke:none"
       id="path238" /></g><g
     id="g240"
     transform="matrix(1.3333333,0,0,-1.3333333,274.46613,56.003204)"><path
       inkscape:connector-curvature="0"
       d="m 0,0 c 2.122,-1.922 4.174,-3.922 6.148,-5.996 v -0.002 c 0,0 -1.603,-0.437 -4.468,-1.143 20.94,-21.114 32.47,-49.098 32.47,-78.857 0,-29.917 -11.649,-58.043 -32.801,-79.196 -21.154,-21.153 -49.281,-32.804 -79.199,-32.804 -61.756,0 -112,50.244 -112,112 0,30.72 12.435,58.587 32.531,78.842 -2.864,0.704 -4.483,1.145 -4.527,1.157 -19.828,-20.813 -32.004,-48.984 -32.004,-79.999 0,-64.065 51.949,-116 116,-116 64.071,0 116,51.935 116,116 C 38.15,-51.891 23.432,-21.225 0,0"
       style="fill:#3096cf;fill-opacity:1;fill-rule:nonzero;stroke:none"
       id="path242" /></g><g
     id="g244"
     transform="matrix(1.3333333,0,0,-1.3333333,198.5052,18.503205)"><path
       inkscape:connector-curvature="0"
       d="M 0,0 C -0.554,0.101 -1.11,0.192 -1.667,0.285 -1.11,0.192 -0.554,0.101 0,0"
       style="fill:#3096cf;fill-opacity:1;fill-rule:nonzero;stroke:none"
       id="path246" /></g><g
     id="g248"
     transform="matrix(1.3333333,0,0,-1.3333333,224.73439,25.721338)"><path
       inkscape:connector-curvature="0"
       d="M 0,0 C -0.517,0.193 -1.036,0.381 -1.557,0.566 -1.036,0.381 -0.517,0.193 0,0"
       style="fill:#3096cf;fill-opacity:1;fill-rule:nonzero;stroke:none"
       id="path250" /></g><g
     id="g252"
     transform="matrix(1.3333333,0,0,-1.3333333,178.75906,16.209605)"><path
       inkscape:connector-curvature="0"
       d="M 0,0 C -0.694,0.036 -1.394,0.059 -2.091,0.082 -1.394,0.059 -0.694,0.036 0,0"
       style="fill:#3096cf;fill-opacity:1;fill-rule:nonzero;stroke:none"
       id="path254" /></g><g
     id="g256"
     transform="matrix(1.3333333,0,0,-1.3333333,182.7656,16.468805)"><path
       inkscape:connector-curvature="0"
       d="M 0,0 C -0.624,0.048 -1.252,0.084 -1.879,0.123 -1.252,0.084 -0.624,0.048 0,0"
       style="fill:#3096cf;fill-opacity:1;fill-rule:nonzero;stroke:none"
       id="path258" /></g><g
     id="g260"
     transform="matrix(1.3333333,0,0,-1.3333333,213.71746,22.077471)"><path
       inkscape:connector-curvature="0"
       d="M 0,0 C -0.53,0.153 -1.063,0.3 -1.597,0.446 -1.063,0.3 -0.53,0.153 0,0"
       style="fill:#3096cf;fill-opacity:1;fill-rule:nonzero;stroke:none"
       id="path262" /></g><g
     id="g264"
     transform="matrix(1.3333333,0,0,-1.3333333,202.36066,19.255871)"><path
       inkscape:connector-curvature="0"
       d="M 0,0 C -0.547,0.114 -1.097,0.22 -1.646,0.326 -1.097,0.22 -0.547,0.114 0,0"
       style="fill:#3096cf;fill-opacity:1;fill-rule:nonzero;stroke:none"
       id="path266" /></g><g
     id="g268"
     transform="matrix(1.3333333,0,0,-1.3333333,221.10279,24.418005)"><path
       inkscape:connector-curvature="0"
       d="M 0,0 C -0.521,0.18 -1.046,0.354 -1.57,0.527 -1.046,0.354 -0.521,0.18 0,0"
       style="fill:#3096cf;fill-opacity:1;fill-rule:nonzero;stroke:none"
       id="path270" /></g><g
     id="g272"
     transform="matrix(1.3333333,0,0,-1.3333333,217.42973,23.202538)"><path
       inkscape:connector-curvature="0"
       d="M 0,0 C -0.525,0.167 -1.053,0.327 -1.58,0.486 -1.053,0.327 -0.525,0.167 0,0"
       style="fill:#3096cf;fill-opacity:1;fill-rule:nonzero;stroke:none"
       id="path274" /></g><g
     id="g276"
     transform="matrix(1.3333333,0,0,-1.3333333,206.18493,20.103471)"><path
       inkscape:connector-curvature="0"
       d="M 0,0 C -0.542,0.127 -1.087,0.247 -1.632,0.367 -1.087,0.247 -0.542,0.127 0,0"
       style="fill:#3096cf;fill-opacity:1;fill-rule:nonzero;stroke:none"
       id="path278" /></g><g
     id="g280"
     transform="matrix(1.3333333,0,0,-1.3333333,209.96999,21.044271)"><path
       inkscape:connector-curvature="0"
       d="M 0,0 C -0.537,0.141 -1.075,0.274 -1.615,0.407 -1.075,0.274 -0.537,0.141 0,0"
       style="fill:#3096cf;fill-opacity:1;fill-rule:nonzero;stroke:none"
       id="path282" /></g><g
     id="g284"
     transform="matrix(1.3333333,0,0,-1.3333333,170.664,80.000003)"><path
       inkscape:connector-curvature="0"
       d="m 0,0 c 40,0 84,12 84,12 v 0.002 C 62.872,34.179 33.052,48 0,48 -33.043,48 -62.865,34.178 -83.996,11.999 -83.819,11.951 -39.92,0 0,0"
       style="fill:#f2f2f2;fill-opacity:1;fill-rule:nonzero;stroke:none"
       id="path286" /></g><g
     id="g288"
     transform="matrix(1.3333333,0,0,-1.3333333,170.66346,152.2988)"><path
       inkscape:connector-curvature="0"
       d="m 0,0 c 7.596,0 13.787,-6.176 13.787,-13.776 0,-7.604 -6.191,-13.785 -13.787,-13.785 -7.6,0 -13.777,6.181 -13.777,13.785 C -13.777,-6.176 -7.6,0 0,0 m -0.001,-59.776 c 25.364,0 46.003,20.651 46.003,46 0,25.349 -20.639,46 -46.003,46 -25.338,0 -45.997,-20.651 -45.997,-46 0,-25.349 20.659,-46 45.997,-46"
       style="fill:#e6e6e6;fill-opacity:1;fill-rule:nonzero;stroke:none"
       id="path290" /></g></svg>