<?xml version="1.0" encoding="UTF-8" standalone="no"?>
<svg
   xmlns:dc="http://purl.org/dc/elements/1.1/"
   xmlns:cc="http://creativecommons.org/ns#"
   xmlns:rdf="http://www.w3.org/1999/02/22-rdf-syntax-ns#"
   xmlns:svg="http://www.w3.org/2000/svg"
   xmlns="http://www.w3.org/2000/svg"
   xmlns:sodipodi="http://sodipodi.sourceforge.net/DTD/sodipodi-0.dtd"
   xmlns:inkscape="http://www.inkscape.org/namespaces/inkscape"
   viewBox="0 0 341.33334 341.33334"
   height="341.33334"
   width="341.33334"
   xml:space="preserve"
   id="svg2"
   version="1.1"
   sodipodi:docname="Nintendo - Nintendo DSi.svg"
   inkscape:version="0.92.2 (5c3e80d, 2017-08-06)"><sodipodi:namedview
     pagecolor="#ffffff"
     bordercolor="#666666"
     borderopacity="1"
     objecttolerance="10"
     gridtolerance="10"
     guidetolerance="10"
     inkscape:pageopacity="0"
     inkscape:pageshadow="2"
     inkscape:window-width="1024"
     inkscape:window-height="705"
     id="namedview111"
     showgrid="false"
     inkscape:pagecheckerboard="true"
     inkscape:zoom="0.69140623"
     inkscape:cx="170.66667"
     inkscape:cy="170.66667"
     inkscape:window-x="-8"
     inkscape:window-y="-8"
     inkscape:window-maximized="1"
     inkscape:current-layer="svg2" /><metadata
     id="metadata8"><rdf:RDF><cc:Work
         rdf:about=""><dc:format>image/svg+xml</dc:format><dc:type
           rdf:resource="http://purl.org/dc/dcmitype/StillImage" /><dc:title></dc:title></cc:Work></rdf:RDF></metadata><defs
     id="defs6"><clipPath
       id="clipPath18"
       clipPathUnits="userSpaceOnUse"><path
         id="path16"
         d="M 0,256 H 256 V 0 H 0 Z" /></clipPath><clipPath
       id="clipPath26"
       clipPathUnits="userSpaceOnUse"><path
         id="path24"
         d="M 12,252 H 244 V 4 H 12 Z" /></clipPath></defs><g
     id="g36"
     transform="matrix(1.3333333,0,0,-1.3333333,295.49999,325.33333)"><path
       inkscape:connector-curvature="0"
       d="m 0,0 h -187.11 c -7.977,0 -14.445,6.8 -14.445,15.188 V 112 h 216 V 15.188 C 14.445,6.8 7.979,0 0,0"
       style="fill:#354f9f;fill-opacity:1;fill-rule:nonzero;stroke:none"
       id="path38" /></g><path
     inkscape:connector-curvature="0"
     d="M 61.333332,154.66667 H 279.99999 v 26.66666 H 61.333332 Z"
     style="fill:#4b5da7;fill-opacity:1;fill-rule:nonzero;stroke:none;stroke-width:1.33333325"
     id="path40" /><g
     id="g42"
     transform="matrix(1.3333333,0,0,-1.3333333,314.66666,160)"><path
       inkscape:connector-curvature="0"
       d="m 0,0 h -216 v 93.555 c 0,7.978 6.467,14.445 14.445,14.445 h 187.11 C -6.467,108 0,101.533 0,93.555 Z"
       style="fill:#354f9f;fill-opacity:1;fill-rule:nonzero;stroke:none"
       id="path44" /></g><g
     id="g46"
     transform="matrix(1.3333333,0,0,-1.3333333,250.66666,26.666671)"><path
       inkscape:connector-curvature="0"
       d="M 0,0 H -2.519 -117.482 -120 V -2.633 -93.367 -96 h 2.518 H -2.519 0 v 2.633 90.734 z"
       style="fill:#263979;fill-opacity:1;fill-rule:nonzero;stroke:none"
       id="path48" /></g><path
     inkscape:connector-curvature="0"
     d="M 245.33333,149.33333 H 95.999998 V 32.000004 H 245.33333 Z"
     style="fill:#191919;fill-opacity:1;fill-rule:nonzero;stroke:none;stroke-width:1.33333325"
     id="path50" /><g
     id="g52"
     transform="matrix(1.3333333,0,0,-1.3333333,247.44399,186.66667)"><path
       inkscape:connector-curvature="0"
       d="m 0,0 h -2.416 -110.334 -2.417 c -1.334,0 -2.416,-1.117 -2.416,-2.496 v -2.496 -86.016 -2.496 c 0,-1.379 1.082,-2.496 2.416,-2.496 H -112.75 -2.416 0 c 1.335,0 2.417,1.117 2.417,2.496 v 2.496 86.016 2.496 C 2.417,-1.117 1.335,0 0,0"
       style="fill:#4b5da7;fill-opacity:1;fill-rule:nonzero;stroke:none"
       id="path54" /></g><g
     id="g56"
     transform="matrix(1.3333333,0,0,-1.3333333,247.99999,189.33333)"><path
       inkscape:connector-curvature="0"
       d="M 0,0 H -2.435 -113.566 -116 V -2.523 -89.477 -92 h 2.434 H -2.435 0 v 2.523 86.954 z"
       style="fill:#263979;fill-opacity:1;fill-rule:nonzero;stroke:none"
       id="path58" /></g><path
     inkscape:connector-curvature="0"
     d="M 245.33333,309.33333 H 95.999998 V 192 H 245.33333 Z"
     style="fill:#191919;fill-opacity:1;fill-rule:nonzero;stroke:none;stroke-width:1.33333325"
     id="path60" /><g
     id="g62"
     transform="matrix(1.3333333,0,0,-1.3333333,63.999998,181.33333)"><path
       inkscape:connector-curvature="0"
       d="m 0,0 h -28 v 11.359 c 0,2.563 2.351,4.641 5.251,4.641 H 0 Z"
       style="fill:#4b5da7;fill-opacity:1;fill-rule:nonzero;stroke:none"
       id="path64" /></g><g
     id="g66"
     transform="matrix(1.3333333,0,0,-1.3333333,277.33333,181.33333)"><path
       inkscape:connector-curvature="0"
       d="M 0,0 H 28 V 11.359 C 28,13.922 25.649,16 22.749,16 H 0 Z"
       style="fill:#4b5da7;fill-opacity:1;fill-rule:nonzero;stroke:none"
       id="path68" /></g><g
     id="g70"
     transform="matrix(1.3333333,0,0,-1.3333333,58.666665,102.66667)"><path
       inkscape:connector-curvature="0"
       d="m 0,0 c 0,-0.552 -0.448,-1 -1,-1 -0.552,0 -1,0.448 -1,1 0,0.552 0.448,1 1,1 0.552,0 1,-0.448 1,-1"
       style="fill:#191919;fill-opacity:1;fill-rule:nonzero;stroke:none"
       id="path72" /></g><g
     id="g74"
     transform="matrix(1.3333333,0,0,-1.3333333,63.999998,102.66667)"><path
       inkscape:connector-curvature="0"
       d="m 0,0 c 0,-0.552 -0.448,-1 -1,-1 -0.552,0 -1,0.448 -1,1 0,0.552 0.448,1 1,1 0.552,0 1,-0.448 1,-1"
       style="fill:#191919;fill-opacity:1;fill-rule:nonzero;stroke:none"
       id="path76" /></g><g
     id="g78"
     transform="matrix(1.3333333,0,0,-1.3333333,61.333332,108)"><path
       inkscape:connector-curvature="0"
       d="m 0,0 c 0,-0.552 -0.448,-1 -1,-1 -0.552,0 -1,0.448 -1,1 0,0.552 0.448,1 1,1 0.552,0 1,-0.448 1,-1"
       style="fill:#191919;fill-opacity:1;fill-rule:nonzero;stroke:none"
       id="path80" /></g><g
     id="g82"
     transform="matrix(1.3333333,0,0,-1.3333333,55.999999,108)"><path
       inkscape:connector-curvature="0"
       d="m 0,0 c 0,-0.552 -0.448,-1 -1,-1 -0.552,0 -1,0.448 -1,1 0,0.552 0.448,1 1,1 0.552,0 1,-0.448 1,-1"
       style="fill:#191919;fill-opacity:1;fill-rule:nonzero;stroke:none"
       id="path84" /></g><g
     id="g86"
     transform="matrix(1.3333333,0,0,-1.3333333,61.333332,97.333336)"><path
       inkscape:connector-curvature="0"
       d="m 0,0 c 0,-0.552 -0.448,-1 -1,-1 -0.552,0 -1,0.448 -1,1 0,0.552 0.448,1 1,1 0.552,0 1,-0.448 1,-1"
       style="fill:#191919;fill-opacity:1;fill-rule:nonzero;stroke:none"
       id="path88" /></g><g
     id="g90"
     transform="matrix(1.3333333,0,0,-1.3333333,55.999999,97.333336)"><path
       inkscape:connector-curvature="0"
       d="m 0,0 c 0,-0.552 -0.448,-1 -1,-1 -0.552,0 -1,0.448 -1,1 0,0.552 0.448,1 1,1 0.552,0 1,-0.448 1,-1"
       style="fill:#191919;fill-opacity:1;fill-rule:nonzero;stroke:none"
       id="path92" /></g><g
     id="g94"
     transform="matrix(1.3333333,0,0,-1.3333333,53.333332,102.66667)"><path
       inkscape:connector-curvature="0"
       d="m 0,0 c 0,-0.552 -0.448,-1 -1,-1 -0.552,0 -1,0.448 -1,1 0,0.552 0.448,1 1,1 0.552,0 1,-0.448 1,-1"
       style="fill:#191919;fill-opacity:1;fill-rule:nonzero;stroke:none"
       id="path96" /></g><g
     id="g98"
     transform="matrix(1.3333333,0,0,-1.3333333,285.33333,102.66667)"><path
       inkscape:connector-curvature="0"
       d="m 0,0 c 0,-0.552 -0.447,-1 -1,-1 -0.553,0 -1,0.448 -1,1 0,0.552 0.447,1 1,1 0.553,0 1,-0.448 1,-1"
       style="fill:#191919;fill-opacity:1;fill-rule:nonzero;stroke:none"
       id="path100" /></g><g
     id="g102"
     transform="matrix(1.3333333,0,0,-1.3333333,290.66666,102.66667)"><path
       inkscape:connector-curvature="0"
       d="m 0,0 c 0,-0.552 -0.447,-1 -1,-1 -0.553,0 -1,0.448 -1,1 0,0.552 0.447,1 1,1 0.553,0 1,-0.448 1,-1"
       style="fill:#191919;fill-opacity:1;fill-rule:nonzero;stroke:none"
       id="path104" /></g><g
     id="g106"
     transform="matrix(1.3333333,0,0,-1.3333333,287.99999,108)"><path
       inkscape:connector-curvature="0"
       d="m 0,0 c 0,-0.552 -0.447,-1 -1,-1 -0.553,0 -1,0.448 -1,1 0,0.552 0.447,1 1,1 0.553,0 1,-0.448 1,-1"
       style="fill:#191919;fill-opacity:1;fill-rule:nonzero;stroke:none"
       id="path108" /></g><g
     id="g110"
     transform="matrix(1.3333333,0,0,-1.3333333,282.66666,108)"><path
       inkscape:connector-curvature="0"
       d="m 0,0 c 0,-0.552 -0.447,-1 -1,-1 -0.553,0 -1,0.448 -1,1 0,0.552 0.447,1 1,1 0.553,0 1,-0.448 1,-1"
       style="fill:#191919;fill-opacity:1;fill-rule:nonzero;stroke:none"
       id="path112" /></g><g
     id="g114"
     transform="matrix(1.3333333,0,0,-1.3333333,287.99999,97.333336)"><path
       inkscape:connector-curvature="0"
       d="m 0,0 c 0,-0.552 -0.447,-1 -1,-1 -0.553,0 -1,0.448 -1,1 0,0.552 0.447,1 1,1 0.553,0 1,-0.448 1,-1"
       style="fill:#191919;fill-opacity:1;fill-rule:nonzero;stroke:none"
       id="path116" /></g><g
     id="g118"
     transform="matrix(1.3333333,0,0,-1.3333333,282.66666,97.333336)"><path
       inkscape:connector-curvature="0"
       d="m 0,0 c 0,-0.552 -0.447,-1 -1,-1 -0.553,0 -1,0.448 -1,1 0,0.552 0.447,1 1,1 0.553,0 1,-0.448 1,-1"
       style="fill:#191919;fill-opacity:1;fill-rule:nonzero;stroke:none"
       id="path120" /></g><g
     id="g122"
     transform="matrix(1.3333333,0,0,-1.3333333,279.99999,102.66667)"><path
       inkscape:connector-curvature="0"
       d="m 0,0 c 0,-0.552 -0.447,-1 -1,-1 -0.553,0 -1,0.448 -1,1 0,0.552 0.447,1 1,1 0.553,0 1,-0.448 1,-1"
       style="fill:#191919;fill-opacity:1;fill-rule:nonzero;stroke:none"
       id="path124" /></g><path
     inkscape:connector-curvature="0"
     d="m 58.666665,32.000004 h -5.333333 v -5.333333 h 5.333333 z"
     style="fill:#263979;fill-opacity:1;fill-rule:nonzero;stroke:none;stroke-width:1.33333325"
     id="path126" /><path
     inkscape:connector-curvature="0"
     d="m 287.99999,32.000004 h -5.33333 v -5.333333 h 5.33333 z"
     style="fill:#263979;fill-opacity:1;fill-rule:nonzero;stroke:none;stroke-width:1.33333325"
     id="path128" /><path
     inkscape:connector-curvature="0"
     d="m 58.666665,154.66667 h -5.333333 v -5.33334 h 5.333333 z"
     style="fill:#263979;fill-opacity:1;fill-rule:nonzero;stroke:none;stroke-width:1.33333325"
     id="path130" /><path
     inkscape:connector-curvature="0"
     d="m 287.99999,154.66667 h -5.33333 v -5.33334 h 5.33333 z"
     style="fill:#263979;fill-opacity:1;fill-rule:nonzero;stroke:none;stroke-width:1.33333325"
     id="path132" /><g
     id="g134"
     transform="matrix(1.3333333,0,0,-1.3333333,186.66666,170.66667)"><path
       inkscape:connector-curvature="0"
       d="m 0,0 c 0,-1.104 -0.896,-2 -2,-2 -1.104,0 -2,0.896 -2,2 0,1.104 0.896,2 2,2 1.104,0 2,-0.896 2,-2"
       style="fill:#191919;fill-opacity:1;fill-rule:nonzero;stroke:none"
       id="path136" /></g><g
     id="g138"
     transform="matrix(1.3333333,0,0,-1.3333333,176,170.66667)"><path
       inkscape:connector-curvature="0"
       d="m 0,0 c 0,-2.209 -1.791,-4 -4,-4 -2.209,0 -4,1.791 -4,4 0,2.209 1.791,4 4,4 2.209,0 4,-1.791 4,-4"
       style="fill:#191919;fill-opacity:1;fill-rule:nonzero;stroke:none"
       id="path140" /></g><g
     id="g142"
     transform="matrix(1.3333333,0,0,-1.3333333,79.999998,298.66666)"><path
       inkscape:connector-curvature="0"
       d="m 0,0 c 0,-2.209 -1.791,-4 -4,-4 -2.209,0 -4,1.791 -4,4 0,2.209 1.791,4 4,4 2.209,0 4,-1.791 4,-4"
       style="fill:#263979;fill-opacity:1;fill-rule:nonzero;stroke:none"
       id="path144" /></g><g
     id="g146"
     transform="matrix(1.3333333,0,0,-1.3333333,62.077465,208)"><path
       inkscape:connector-curvature="0"
       d="m 0,0 h -9.116 c -0.719,0 -1.302,-0.583 -1.302,-1.303 V -8.14 h -6.838 c -0.719,0 -1.302,-0.583 -1.302,-1.301 v -9.118 c 0,-0.718 0.583,-1.301 1.302,-1.301 h 6.838 v -6.837 c 0,-0.72 0.583,-1.303 1.302,-1.303 H 0 c 0.719,0 1.302,0.583 1.302,1.303 v 6.837 H 8.14 c 0.719,0 1.302,0.583 1.302,1.301 v 9.118 c 0,0.718 -0.583,1.301 -1.302,1.301 H 1.302 v 6.837 C 1.302,-0.583 0.719,0 0,0 m 0,-1.303 v -8.138 h 8.14 v -9.118 H 0 v -8.138 h -9.116 v 8.138 h -8.14 v 9.118 h 8.14 v 8.138 H 0"
       style="fill:#263979;fill-opacity:1;fill-rule:nonzero;stroke:none"
       id="path148" /></g><g
     id="g150"
     transform="matrix(1.3333333,0,0,-1.3333333,47.407599,228)"><path
       inkscape:connector-curvature="0"
       d="m 0,0 h -3.111 c -0.245,0 -0.445,0.449 -0.445,1 0,0.551 0.2,1 0.445,1 H 0 C 0.245,2 0.444,1.551 0.444,1 0.444,0.449 0.245,0 0,0"
       style="fill:#b3b3b3;fill-opacity:1;fill-rule:nonzero;stroke:none"
       id="path152" /></g><g
     id="g154"
     transform="matrix(1.3333333,0,0,-1.3333333,68.740932,228)"><path
       inkscape:connector-curvature="0"
       d="m 0,0 h -3.111 c -0.245,0 -0.445,0.449 -0.445,1 0,0.551 0.2,1 0.445,1 H 0 C 0.245,2 0.444,1.551 0.444,1 0.444,0.449 0.245,0 0,0"
       style="fill:#b3b3b3;fill-opacity:1;fill-rule:nonzero;stroke:none"
       id="path156" /></g><g
     id="g158"
     transform="matrix(1.3333333,0,0,-1.3333333,54.666665,218.07427)"><path
       inkscape:connector-curvature="0"
       d="m 0,0 v 3.111 c 0,0.245 0.449,0.445 1,0.445 0.551,0 1,-0.2 1,-0.445 V 0 C 2,-0.245 1.551,-0.444 1,-0.444 0.449,-0.444 0,-0.245 0,0"
       style="fill:#b3b3b3;fill-opacity:1;fill-rule:nonzero;stroke:none"
       id="path160" /></g><g
     id="g162"
     transform="matrix(1.3333333,0,0,-1.3333333,54.666665,239.4076)"><path
       inkscape:connector-curvature="0"
       d="m 0,0 v 3.111 c 0,0.245 0.449,0.445 1,0.445 0.551,0 1,-0.2 1,-0.445 V 0 C 2,-0.245 1.551,-0.444 1,-0.444 0.449,-0.444 0,-0.245 0,0"
       style="fill:#b3b3b3;fill-opacity:1;fill-rule:nonzero;stroke:none"
       id="path164" /></g><g
     id="g166"
     transform="matrix(1.3333333,0,0,-1.3333333,271.99999,288)"><path
       inkscape:connector-curvature="0"
       d="m 0,0 c 0,-2.209 -1.791,-4 -4,-4 -2.209,0 -4,1.791 -4,4 0,2.209 1.791,4 4,4 2.209,0 4,-1.791 4,-4"
       style="fill:#263979;fill-opacity:1;fill-rule:nonzero;stroke:none"
       id="path168" /></g><g
     id="g170"
     transform="matrix(1.3333333,0,0,-1.3333333,271.99999,304)"><path
       inkscape:connector-curvature="0"
       d="m 0,0 c 0,-2.209 -1.791,-4 -4,-4 -2.209,0 -4,1.791 -4,4 0,2.209 1.791,4 4,4 2.209,0 4,-1.791 4,-4"
       style="fill:#263979;fill-opacity:1;fill-rule:nonzero;stroke:none"
       id="path172" /></g><g
     id="g174"
     transform="matrix(1.3333333,0,0,-1.3333333,282.66666,232)"><path
       inkscape:connector-curvature="0"
       d="m 0,0 c -3.309,0 -6,-2.691 -6,-6 0,-3.309 2.691,-6 6,-6 3.309,0 6,2.691 6,6 0,3.309 -2.691,6 -6,6"
       style="fill:#263979;fill-opacity:1;fill-rule:nonzero;stroke:none"
       id="path176" /></g><g
     id="g178"
     transform="matrix(1.3333333,0,0,-1.3333333,289.33333,240)"><path
       inkscape:connector-curvature="0"
       d="m 0,0 c 0,-2.762 -2.238,-5 -5,-5 -2.762,0 -5,2.238 -5,5 0,2.762 2.238,5 5,5 2.762,0 5,-2.238 5,-5"
       style="fill:#354f9f;fill-opacity:1;fill-rule:nonzero;stroke:none"
       id="path180" /></g><g
     id="g182"
     transform="matrix(1.3333333,0,0,-1.3333333,282.66666,205.33333)"><path
       inkscape:connector-curvature="0"
       d="m 0,0 c -3.309,0 -6,-2.691 -6,-6 0,-3.309 2.691,-6 6,-6 3.309,0 6,2.691 6,6 0,3.309 -2.691,6 -6,6"
       style="fill:#263979;fill-opacity:1;fill-rule:nonzero;stroke:none"
       id="path184" /></g><g
     id="g186"
     transform="matrix(1.3333333,0,0,-1.3333333,289.33333,213.33333)"><path
       inkscape:connector-curvature="0"
       d="m 0,0 c 0,-2.762 -2.238,-5 -5,-5 -2.762,0 -5,2.238 -5,5 0,2.762 2.238,5 5,5 2.762,0 5,-2.238 5,-5"
       style="fill:#354f9f;fill-opacity:1;fill-rule:nonzero;stroke:none"
       id="path188" /></g><g
     id="g190"
     transform="matrix(1.3333333,0,0,-1.3333333,269.33333,218.66667)"><path
       inkscape:connector-curvature="0"
       d="m 0,0 c -3.309,0 -6,-2.691 -6,-6 0,-3.309 2.691,-6 6,-6 3.309,0 6,2.691 6,6 0,3.309 -2.691,6 -6,6"
       style="fill:#263979;fill-opacity:1;fill-rule:nonzero;stroke:none"
       id="path192" /></g><g
     id="g194"
     transform="matrix(1.3333333,0,0,-1.3333333,275.99999,226.66667)"><path
       inkscape:connector-curvature="0"
       d="m 0,0 c 0,-2.762 -2.238,-5 -5,-5 -2.762,0 -5,2.238 -5,5 0,2.762 2.238,5 5,5 2.762,0 5,-2.238 5,-5"
       style="fill:#354f9f;fill-opacity:1;fill-rule:nonzero;stroke:none"
       id="path196" /></g><g
     id="g198"
     transform="matrix(1.3333333,0,0,-1.3333333,295.99999,218.66667)"><path
       inkscape:connector-curvature="0"
       d="m 0,0 c -3.309,0 -6,-2.691 -6,-6 0,-3.309 2.691,-6 6,-6 3.309,0 6,2.691 6,6 0,3.309 -2.691,6 -6,6"
       style="fill:#263979;fill-opacity:1;fill-rule:nonzero;stroke:none"
       id="path200" /></g><g
     id="g202"
     transform="matrix(1.3333333,0,0,-1.3333333,302.66666,226.66667)"><path
       inkscape:connector-curvature="0"
       d="m 0,0 c 0,-2.762 -2.238,-5 -5,-5 -2.762,0 -5,2.238 -5,5 0,2.762 2.238,5 5,5 2.762,0 5,-2.238 5,-5"
       style="fill:#354f9f;fill-opacity:1;fill-rule:nonzero;stroke:none"
       id="path204" /></g><g
     id="g206"
     transform="matrix(1.3333333,0,0,-1.3333333,55.999999,176)"><path
       inkscape:connector-curvature="0"
       d="M 0,0 V 0 C -1.1,0 -2,0.9 -2,2 V 6 C -2,7.1 -1.1,8 0,8 1.1,8 2,7.1 2,6 V 2 C 2,0.9 1.1,0 0,0"
       style="fill:#3b96cc;fill-opacity:1;fill-rule:nonzero;stroke:none"
       id="path208" /></g><g
     id="g210"
     transform="matrix(1.3333333,0,0,-1.3333333,45.333332,176)"><path
       inkscape:connector-curvature="0"
       d="M 0,0 V 0 C -1.1,0 -2,0.9 -2,2 V 6 C -2,7.1 -1.1,8 0,8 1.1,8 2,7.1 2,6 V 2 C 2,0.9 1.1,0 0,0"
       style="fill:#b3b3b3;fill-opacity:1;fill-rule:nonzero;stroke:none"
       id="path212" /></g><g
     id="g214"
     transform="matrix(1.3333333,0,0,-1.3333333,34.666666,176)"><path
       inkscape:connector-curvature="0"
       d="M 0,0 V 0 C -1.1,0 -2,0.9 -2,2 V 6 C -2,7.1 -1.1,8 0,8 1.1,8 2,7.1 2,6 V 2 C 2,0.9 1.1,0 0,0"
       style="fill:#b3b3b3;fill-opacity:1;fill-rule:nonzero;stroke:none"
       id="path216" /></g><path
     inkscape:connector-curvature="0"
     d="M 63.999998,181.33333 H 61.333332 V 160 h 2.666666 z"
     style="fill:#263979;fill-opacity:1;fill-rule:nonzero;stroke:none;stroke-width:1.33333325"
     id="path218" /><path
     inkscape:connector-curvature="0"
     d="m 279.99999,181.33333 h -2.66666 V 160 h 2.66666 z"
     style="fill:#263979;fill-opacity:1;fill-rule:nonzero;stroke:none;stroke-width:1.33333325"
     id="path220" /></svg>