<?xml version="1.0" encoding="UTF-8" standalone="no"?>
<svg
   xmlns:dc="http://purl.org/dc/elements/1.1/"
   xmlns:cc="http://creativecommons.org/ns#"
   xmlns:rdf="http://www.w3.org/1999/02/22-rdf-syntax-ns#"
   xmlns:svg="http://www.w3.org/2000/svg"
   xmlns="http://www.w3.org/2000/svg"
   xmlns:sodipodi="http://sodipodi.sourceforge.net/DTD/sodipodi-0.dtd"
   xmlns:inkscape="http://www.inkscape.org/namespaces/inkscape"
   viewBox="0 0 341.33334 341.33334"
   height="341.33334"
   width="341.33334"
   xml:space="preserve"
   id="svg2"
   version="1.1"
   sodipodi:docname="Nintendo - Game Boy Advance AGB-001 B.svg"
   inkscape:version="0.92.2 (5c3e80d, 2017-08-06)"><sodipodi:namedview
     pagecolor="#ffffff"
     bordercolor="#666666"
     borderopacity="1"
     objecttolerance="10"
     gridtolerance="10"
     guidetolerance="10"
     inkscape:pageopacity="0"
     inkscape:pageshadow="2"
     inkscape:window-width="1024"
     inkscape:window-height="705"
     id="namedview69"
     showgrid="false"
     inkscape:pagecheckerboard="true"
     inkscape:zoom="1.3828125"
     inkscape:cx="188.98395"
     inkscape:cy="93.688345"
     inkscape:window-x="-8"
     inkscape:window-y="-8"
     inkscape:window-maximized="1"
     inkscape:current-layer="svg2" /><metadata
     id="metadata8"><rdf:RDF><cc:Work
         rdf:about=""><dc:format>image/svg+xml</dc:format><dc:type
           rdf:resource="http://purl.org/dc/dcmitype/StillImage" /><dc:title /></cc:Work></rdf:RDF></metadata><defs
     id="defs6"><clipPath
       id="clipPath18"
       clipPathUnits="userSpaceOnUse"><path
         id="path16"
         d="M 0,256 H 256 V 0 H 0 Z" /></clipPath><clipPath
       id="clipPath26"
       clipPathUnits="userSpaceOnUse"><path
         id="path24"
         d="M 4.72142,196 H 251.279 V 56 H 4.72142 Z" /></clipPath></defs><g
     id="g22"
     transform="matrix(1.3333333,0,0,-1.3333333,0,341.33333)" /><path
     id="path38"
     style="fill:#999999;fill-opacity:1;fill-rule:nonzero;stroke:none;stroke-width:1.33333325"
     d="m 31.999999,213.33333 -13.333333,-16 2.618667,-70.716 c 0.02667,-0.71733 0.616,-1.284 1.333333,-1.284 h 9.381333 z"
     inkscape:connector-curvature="0" /><path
     id="path42"
     style="fill:#999999;fill-opacity:1;fill-rule:nonzero;stroke:none;stroke-width:1.33333325"
     d="m 309.33333,213.33333 13.33333,-16 -2.61866,-70.716 c -0.0267,-0.71733 -0.616,-1.284 -1.33334,-1.284 h -9.38133 z"
     inkscape:connector-curvature="0" /><path
     id="path46"
     style="fill:#999999;fill-opacity:1;fill-rule:nonzero;stroke:none;stroke-width:1.33333325"
     d="m 95.999998,96.000003 c 0,0 -42.666666,0 -58.666665,5.333337 -13.050667,4.35066 -15.456,15.79733 -15.9,19.86933 -0.08533,0.78533 0.538667,1.464 1.328,1.464 h 73.238665 z"
     inkscape:connector-curvature="0" /><path
     id="path50"
     style="fill:#999999;fill-opacity:1;fill-rule:nonzero;stroke:none;stroke-width:1.33333325"
     d="m 245.33333,96.000003 c 0,0 42.66667,0 58.66667,5.333337 13.05066,4.35066 15.45733,15.79733 15.89999,19.86933 0.0853,0.78533 -0.53866,1.464 -1.32666,1.464 h -73.24 z"
     inkscape:connector-curvature="0" /><path
     id="path54"
     style="fill:#514fa1;fill-opacity:1;fill-rule:nonzero;stroke:none;stroke-width:1.33333325"
     d="M 319.99999,154.66667 C 317.78132,136.92 316.48532,125.632 315.72932,118.5 c -0.70133,-6.59866 -5.75333,-11.87066 -12.308,-12.908 -14.208,-2.24533 -36.26933,-7.587995 -46.99066,-11.851995 -5.13867,-2.045333 -10.60667,-3.073333 -16.13733,-3.073333 H 170.66666 101.04 c -5.530671,0 -10.998671,1.028 -16.137337,3.073333 -10.721334,4.264 -32.782666,9.606665 -46.990666,11.851995 -6.554666,1.03734 -11.608,6.30934 -12.308,12.908 -0.756,7.132 -2.052,18.42 -4.270666,36.16667 -5.333333,42.66667 -10.666667,69.33333 15.999999,80 L 85.562663,249.136 c 3.569333,1.06933 7.214666,1.832 10.913333,2.28133 12.097334,1.468 41.586664,4.58267 74.190664,4.58267 32.604,0 62.09333,-3.11467 74.19067,-4.58267 3.69866,-0.44933 7.34266,-1.212 10.91199,-2.28133 l 48.23067,-14.46933 c 26.66667,-10.66667 21.33333,-37.33333 16,-80"
     inkscape:connector-curvature="0" /><path
     id="path58"
     style="fill:#191919;fill-opacity:1;fill-rule:nonzero;stroke:none;stroke-width:1.33333325"
     d="m 250.66666,218.66667 c 0,0 -2.66667,-85.33333 -2.66667,-96 0,-10.66666 -8,-10.66666 -8,-10.66666 l -16.97466,-1.30534 c -34.85467,-2.68133 -69.86267,-2.68133 -104.71733,0 l -16.97467,1.30534 c 0,0 -7.999999,0 -7.999999,10.66666 0,10.66667 -2.666667,96 -2.666667,96 0,0 -5.333333,21.33333 79.999996,21.33333 85.33333,0 80,-21.33333 80,-21.33333"
     inkscape:connector-curvature="0" /><path
     inkscape:connector-curvature="0"
     d="M 239.99999,208 H 101.33333 v -85.33333 h 138.66666 z"
     style="fill:#808080;fill-opacity:1;fill-rule:nonzero;stroke:none;stroke-width:1.33333325"
     id="path60" /><path
     id="path64"
     style="fill:#999999;fill-opacity:1;fill-rule:nonzero;stroke:none;stroke-width:1.33333325"
     d="m 282.66666,165.33333 c 0,5.89067 -4.776,10.66667 -10.66667,10.66667 -5.89066,0 -10.66666,-4.776 -10.66666,-10.66667 0,-5.89067 4.776,-10.66667 10.66666,-10.66667 5.89067,0 10.66667,4.776 10.66667,10.66667"
     inkscape:connector-curvature="0" /><path
     id="path68"
     style="fill:#999999;fill-opacity:1;fill-rule:nonzero;stroke:none;stroke-width:1.33333325"
     d="m 309.33333,154.66667 c 0,5.89067 -4.776,10.66667 -10.66667,10.66667 C 292.776,165.33334 288,160.55734 288,154.66667 288,148.776 292.776,144 298.66666,144 c 5.89067,0 10.66667,4.776 10.66667,10.66667"
     inkscape:connector-curvature="0" /><path
     id="path72"
     style="fill:#302667;fill-opacity:1;fill-rule:nonzero;stroke:none;stroke-width:1.33333325;font-variant-east_asian:normal;opacity:1;vector-effect:none;stroke-linecap:butt;stroke-linejoin:miter;stroke-miterlimit:4;stroke-dasharray:none;stroke-dashoffset:0;stroke-opacity:1"
     d="m 293.33333,192 -32,10.66667 V 200 l 32,-10.66667 z"
     inkscape:connector-curvature="0" /><path
     id="path76"
     style="fill:#302667;fill-opacity:1;fill-rule:nonzero;stroke:none;stroke-width:1.33333325;font-variant-east_asian:normal;opacity:1;vector-effect:none;stroke-linecap:butt;stroke-linejoin:miter;stroke-miterlimit:4;stroke-dasharray:none;stroke-dashoffset:0;stroke-opacity:1"
     d="m 293.33333,197.33333 -32,10.66667 v -2.66667 l 32,-10.66667 z"
     inkscape:connector-curvature="0" /><path
     id="path80"
     style="fill:#302667;fill-opacity:1;fill-rule:nonzero;stroke:none;stroke-width:1.33333325;font-variant-east_asian:normal;opacity:1;vector-effect:none;stroke-linecap:butt;stroke-linejoin:miter;stroke-miterlimit:4;stroke-dasharray:none;stroke-dashoffset:0;stroke-opacity:1"
     d="m 293.33333,202.66667 -32,10.66667 v -2.66667 l 32,-10.66667 z"
     inkscape:connector-curvature="0" /><path
     id="path84"
     style="fill:#302667;fill-opacity:1;fill-rule:nonzero;stroke:none;stroke-width:1.33333325;font-variant-east_asian:normal;opacity:1;vector-effect:none;stroke-linecap:butt;stroke-linejoin:miter;stroke-miterlimit:4;stroke-dasharray:none;stroke-dashoffset:0;stroke-opacity:1"
     d="m 293.33333,208 -32,10.66667 V 216 l 32,-10.66667 z"
     inkscape:connector-curvature="0" /><path
     id="path88"
     style="fill:#302667;fill-opacity:1;fill-rule:nonzero;stroke:none;stroke-width:1.33333325;font-variant-east_asian:normal;opacity:1;vector-effect:none;stroke-linecap:butt;stroke-linejoin:miter;stroke-miterlimit:4;stroke-dasharray:none;stroke-dashoffset:0;stroke-opacity:1"
     d="m 293.33333,213.33333 -32,10.66667 v -2.66667 l 32,-10.66667 z"
     inkscape:connector-curvature="0" /><path
     id="path92"
     style="fill:#302667;fill-opacity:1;fill-rule:nonzero;stroke:none;stroke-width:1.33333325"
     d="m 79.999998,208 -27.543999,-4.59067 c -2.570667,-0.42933 -4.456,-2.65466 -4.456,-5.26133 0,-3.21867 2.889333,-5.66667 6.065333,-5.13733 l 25.934666,4.32266 z"
     inkscape:connector-curvature="0" /><path
     id="path96"
     style="fill:#999999;fill-opacity:1;fill-rule:nonzero;stroke:none;stroke-width:1.33333325"
     d="m 85.333331,202.66667 c 0,2.94533 -2.388,5.33333 -5.333333,5.33333 -2.945333,0 -5.333333,-2.388 -5.333333,-5.33333 0,-2.94533 2.388,-5.33333 5.333333,-5.33333 2.945333,0 5.333333,2.388 5.333333,5.33333"
     inkscape:connector-curvature="0" /><path
     id="path100"
     style="fill:#302667;fill-opacity:1;fill-rule:nonzero;stroke:none;stroke-width:1.33333325;font-variant-east_asian:normal;opacity:1;vector-effect:none;stroke-linecap:butt;stroke-linejoin:miter;stroke-miterlimit:4;stroke-dasharray:none;stroke-dashoffset:0;stroke-opacity:1"
     d="m 79.999998,224 -27.543999,-4.59067 c -2.570667,-0.42933 -4.456,-2.65466 -4.456,-5.26133 0,-3.21867 2.889333,-5.66667 6.065333,-5.13733 l 25.934666,4.32266 z"
     inkscape:connector-curvature="0" /><path
     id="path104"
     style="fill:#999999;fill-opacity:1;fill-rule:nonzero;stroke:none;stroke-width:1.33333325"
     d="m 85.333331,218.66667 c 0,2.94533 -2.388,5.33333 -5.333333,5.33333 -2.945333,0 -5.333333,-2.388 -5.333333,-5.33333 0,-2.94533 2.388,-5.33333 5.333333,-5.33333 2.945333,0 5.333333,2.388 5.333333,5.33333"
     inkscape:connector-curvature="0" /><path
     id="path108"
     style="fill:#191919;fill-opacity:1;fill-rule:nonzero;stroke:none;stroke-width:1.33333325"
     d="M 95.999998,112 Z"
     inkscape:connector-curvature="0" /><path
     id="path112"
     style="fill:#00ff00;fill-opacity:1;fill-rule:nonzero;stroke:none;stroke-width:1.33333325"
     d="m 271.99999,120 c 0,1.472 -1.19467,2.66667 -2.66667,2.66667 -1.472,0 -2.66666,-1.19467 -2.66666,-2.66667 0,-1.472 1.19466,-2.66667 2.66666,-2.66667 1.472,0 2.66667,1.19467 2.66667,2.66667"
     inkscape:connector-curvature="0" /><path
     id="path116"
     style="fill:#999999;fill-opacity:1;fill-rule:nonzero;stroke:none;stroke-width:1.33333325"
     d="M 71.999998,152 H 61.333332 v -10.66667 c 0,-1.472 -1.194667,-2.66666 -2.666667,-2.66666 H 47.999999 c -1.472,0 -2.666667,1.19466 -2.666667,2.66666 V 152 H 34.666666 c -1.472,0 -2.666667,1.19467 -2.666667,2.66667 v 10.66666 c 0,1.472 1.194667,2.66667 2.666667,2.66667 h 10.666666 v 10.66667 c 0,1.472 1.194667,2.66666 2.666667,2.66666 h 10.666666 c 1.472,0 2.666667,-1.19466 2.666667,-2.66666 V 168 h 10.666666 c 1.472,0 2.666667,-1.19467 2.666667,-2.66667 v -10.66666 c 0,-1.472 -1.194667,-2.66667 -2.666667,-2.66667"
     inkscape:connector-curvature="0" /><path
     id="path120"
     style="fill:#828282;fill-opacity:1;fill-rule:nonzero;stroke:none;stroke-width:1.33333325"
     d="m 58.666665,160 c 0,2.94533 -2.388,5.33333 -5.333333,5.33333 -2.945333,0 -5.333333,-2.388 -5.333333,-5.33333 0,-2.94533 2.388,-5.33333 5.333333,-5.33333 2.945333,0 5.333333,2.388 5.333333,5.33333"
     inkscape:connector-curvature="0" /><path
     id="path124"
     style="fill:#828282;fill-opacity:1;fill-rule:nonzero;stroke:none;stroke-width:1.33333325"
     d="m 50.157599,149.33333 h 6.352 c 0.990666,0 1.636,-1.04267 1.192,-1.92933 l -3.176,-6.352 c -0.490667,-0.98267 -1.893333,-0.98267 -2.385333,0 l -3.176,6.352 c -0.442667,0.88666 0.201333,1.92933 1.193333,1.92933"
     inkscape:connector-curvature="0" /><path
     id="path128"
     style="fill:#828282;fill-opacity:1;fill-rule:nonzero;stroke:none;stroke-width:1.33333325"
     d="m 56.509065,170.66667 h -6.352 c -0.990666,0 -1.636,1.04267 -1.192,1.92933 l 3.176,6.352 c 0.490667,0.98267 1.893333,0.98267 2.385333,0 l 3.176,-6.352 c 0.442667,-0.88666 -0.201333,-1.92933 -1.193333,-1.92933"
     inkscape:connector-curvature="0" /><path
     id="path132"
     style="fill:#828282;fill-opacity:1;fill-rule:nonzero;stroke:none;stroke-width:1.33333325"
     d="m 63.999998,156.82427 v 6.352 c 0,0.99067 1.042667,1.636 1.929333,1.192 l 6.352,-3.176 c 0.982667,-0.49067 0.982667,-1.89333 0,-2.38533 l -6.352,-3.176 c -0.886666,-0.44267 -1.929333,0.20133 -1.929333,1.19333"
     inkscape:connector-curvature="0" /><path
     id="path136"
     style="fill:#828282;fill-opacity:1;fill-rule:nonzero;stroke:none;stroke-width:1.33333325"
     d="m 34.385466,161.19267 6.352,3.176 c 0.886666,0.44267 1.929333,-0.20133 1.929333,-1.19333 v -6.35067 c 0,-0.992 -1.042667,-1.636 -1.929333,-1.19333"
     inkscape:connector-curvature="0" /></svg>