<?xml version="1.0" encoding="UTF-8" standalone="no"?>
<svg
   xmlns:dc="http://purl.org/dc/elements/1.1/"
   xmlns:cc="http://creativecommons.org/ns#"
   xmlns:rdf="http://www.w3.org/1999/02/22-rdf-syntax-ns#"
   xmlns:svg="http://www.w3.org/2000/svg"
   xmlns="http://www.w3.org/2000/svg"
   xmlns:sodipodi="http://sodipodi.sourceforge.net/DTD/sodipodi-0.dtd"
   xmlns:inkscape="http://www.inkscape.org/namespaces/inkscape"
   viewBox="0 0 341.33334 341.33334"
   height="341.33334"
   width="341.33334"
   xml:space="preserve"
   id="svg2"
   version="1.1"
   sodipodi:docname="Nintendo - Sufami Turbo-content.svg"
   inkscape:version="0.92.2 (5c3e80d, 2017-08-06)"><sodipodi:namedview
     pagecolor="#ffffff"
     bordercolor="#666666"
     borderopacity="1"
     objecttolerance="10"
     gridtolerance="10"
     guidetolerance="10"
     inkscape:pageopacity="0"
     inkscape:pageshadow="2"
     inkscape:window-width="1024"
     inkscape:window-height="705"
     id="namedview28"
     showgrid="false"
     inkscape:pagecheckerboard="true"
     inkscape:zoom="0.69140623"
     inkscape:cx="170.66667"
     inkscape:cy="170.66667"
     inkscape:window-x="-8"
     inkscape:window-y="-8"
     inkscape:window-maximized="1"
     inkscape:current-layer="svg2" /><metadata
     id="metadata8"><rdf:RDF><cc:Work
         rdf:about=""><dc:format>image/svg+xml</dc:format><dc:type
           rdf:resource="http://purl.org/dc/dcmitype/StillImage" /><dc:title></dc:title></cc:Work></rdf:RDF></metadata><defs
     id="defs6"><clipPath
       id="clipPath18"
       clipPathUnits="userSpaceOnUse"><path
         id="path16"
         d="M 0,256 H 256 V 0 H 0 Z" /></clipPath><clipPath
       id="clipPath26"
       clipPathUnits="userSpaceOnUse"><path
         id="path24"
         d="M 12,252 H 248 V 4 H 12 Z" /></clipPath></defs><g
     id="g36"
     transform="matrix(1.3333333,0,0,-1.3333333,317.33333,325.33333)"><path
       inkscape:connector-curvature="0"
       d="m 0,0 h -216 c -1.104,0 -2,0.896 -2,2 v 214 c 0,8.836 7.164,16 16,16 h 188 c 8.837,0 16,-7.164 16,-16 V 2 C 2,0.896 1.104,0 0,0"
       style="fill:#bfbfbf;fill-opacity:1;fill-rule:nonzero;stroke:none"
       id="path38" /></g><g
     id="g40"
     transform="matrix(1.3333333,0,0,-1.3333333,277.33333,229.33333)"><path
       inkscape:connector-curvature="0"
       d="m 0,0 h -160 c -2.209,0 -4,1.791 -4,4 v 120 c 0,4.418 3.582,8 8,8 H -4 c 4.418,0 8,-3.582 8,-8 V 4 C 4,1.791 2.209,0 0,0"
       style="fill:#b3b3b3;fill-opacity:1;fill-rule:nonzero;stroke:none"
       id="path42" /></g><g
     id="g44"
     transform="matrix(1.3333333,0,0,-1.3333333,127.07026,277.33333)"><path
       inkscape:connector-curvature="0"
       d="m 0,0 h 65.395 c 0.989,0 1.377,-1.283 0.554,-1.832 L 33.252,-23.63 c -0.336,-0.224 -0.773,-0.224 -1.109,0 L -0.555,-1.832 C -1.378,-1.283 -0.989,0 0,0"
       style="fill:#b3b3b3;fill-opacity:1;fill-rule:nonzero;stroke:none"
       id="path46" /></g><g
     id="g48"
     transform="matrix(1.3333333,0,0,-1.3333333,270.66666,224)"><path
       inkscape:connector-curvature="0"
       d="m 0,0 h -151 c -2.209,0 -4,1.791 -4,4 v 96 c 0,2.209 1.791,4 4,4 H 2 c 1.657,0 3,-1.343 3,-3 V 5 C 5,2.238 2.762,0 0,0"
       style="fill:#ffffff;fill-opacity:1;fill-rule:nonzero;stroke:none"
       id="path50" /></g><g
     id="g52"
     transform="matrix(1.3333333,0,0,-1.3333333,268.35026,113.68427)"><path
       inkscape:connector-curvature="0"
       d="m 0,0 c 0,-6.744 -5.467,-12.21 -12.21,-12.21 -6.744,0 -12.211,5.466 -12.211,12.21 0,6.744 5.467,12.21 12.211,12.21 C -5.467,12.21 0,6.744 0,0"
       style="fill:#404040;fill-opacity:1;fill-rule:nonzero;stroke:none"
       id="path54" /></g></svg>