<?xml version="1.0" encoding="UTF-8" standalone="no"?>
<svg
   xmlns:dc="http://purl.org/dc/elements/1.1/"
   xmlns:cc="http://creativecommons.org/ns#"
   xmlns:rdf="http://www.w3.org/1999/02/22-rdf-syntax-ns#"
   xmlns:svg="http://www.w3.org/2000/svg"
   xmlns="http://www.w3.org/2000/svg"
   xmlns:sodipodi="http://sodipodi.sourceforge.net/DTD/sodipodi-0.dtd"
   xmlns:inkscape="http://www.inkscape.org/namespaces/inkscape"
   viewBox="0 0 341.33334 341.33334"
   height="341.33334"
   width="341.33334"
   xml:space="preserve"
   id="svg2"
   version="1.1"
   sodipodi:docname="Nintendo - New Nintendo 3DS.svg"
   inkscape:version="0.92.2 (5c3e80d, 2017-08-06)"><sodipodi:namedview
     pagecolor="#ffffff"
     bordercolor="#666666"
     borderopacity="1"
     objecttolerance="10"
     gridtolerance="10"
     guidetolerance="10"
     inkscape:pageopacity="0"
     inkscape:pageshadow="2"
     inkscape:window-width="1024"
     inkscape:window-height="705"
     id="namedview96"
     showgrid="false"
     inkscape:pagecheckerboard="true"
     inkscape:zoom="0.69140623"
     inkscape:cx="170.66667"
     inkscape:cy="170.66667"
     inkscape:window-x="-8"
     inkscape:window-y="-8"
     inkscape:window-maximized="1"
     inkscape:current-layer="svg2" /><metadata
     id="metadata8"><rdf:RDF><cc:Work
         rdf:about=""><dc:format>image/svg+xml</dc:format><dc:type
           rdf:resource="http://purl.org/dc/dcmitype/StillImage" /><dc:title></dc:title></cc:Work></rdf:RDF></metadata><defs
     id="defs6"><clipPath
       id="clipPath18"
       clipPathUnits="userSpaceOnUse"><path
         id="path16"
         d="M 0,256 H 256 V 0 H 0 Z" /></clipPath><clipPath
       id="clipPath26"
       clipPathUnits="userSpaceOnUse"><path
         id="path24"
         d="M 12,252 H 244 V 4 H 12 Z" /></clipPath></defs><g
     id="g22"
     transform="matrix(1.3333333,0,0,-1.3333333,0,341.33333)" /><path
     id="path38"
     style="fill:#666666;fill-opacity:1;fill-rule:nonzero;stroke:none;stroke-width:1.33333325"
     d="M 287.99999,16.000005 H 53.333329 c -14.727999,0 -26.666666,11.938666 -26.666666,26.666666 V 157.33333 c 0,1.472 1.194667,2.66667 2.666667,2.66667 h 8 v 10.66667 H 303.99999 V 160 h 8 c 1.472,0 2.66667,-1.19467 2.66667,-2.66667 V 42.666671 c 0,-14.728 -11.93867,-26.666666 -26.66667,-26.666666"
     inkscape:connector-curvature="0" /><path
     id="path42"
     style="fill:#666666;fill-opacity:1;fill-rule:nonzero;stroke:none;stroke-width:1.33333325"
     d="M 287.99999,325.33333 H 53.333329 c -14.727999,0 -26.666666,-11.93867 -26.666666,-26.66667 V 170.66667 H 314.66666 v 127.99999 c 0,14.728 -11.93867,26.66667 -26.66667,26.66667"
     inkscape:connector-curvature="0" /><path
     id="path46"
     style="fill:#4c4c4c;fill-opacity:1;fill-rule:nonzero;stroke:none;stroke-width:1.33333325"
     d="M 303.99999,181.33333 H 37.33333 c -5.890667,0 -10.666666,-4.776 -10.666666,-10.66667 C 26.666664,164.776 31.442663,160 37.33333,160 h 266.66666 c 5.89067,0 10.66667,4.776 10.66667,10.66666 0,5.89067 -4.776,10.66667 -10.66667,10.66667"
     inkscape:connector-curvature="0" /><path
     id="path50"
     style="fill:#595959;fill-opacity:1;fill-rule:nonzero;stroke:none;stroke-width:1.33333325"
     d="m 49.333332,37.333338 h -2.666667 c -0.736,0 -1.333333,-0.597333 -1.333333,-1.333333 v -2.666667 c 0,-0.736 0.597333,-1.333333 1.333333,-1.333333 h 2.666667 c 0.736,0 1.333333,0.597333 1.333333,1.333333 v 2.666667 c 0,0.736 -0.597333,1.333333 -1.333333,1.333333"
     inkscape:connector-curvature="0" /><path
     id="path54"
     style="fill:#595959;fill-opacity:1;fill-rule:nonzero;stroke:none;stroke-width:1.33333325"
     d="m 294.66666,37.333338 h -2.66667 c -0.73733,0 -1.33333,-0.597333 -1.33333,-1.333333 v -2.666667 c 0,-0.736 0.596,-1.333333 1.33333,-1.333333 h 2.66667 c 0.73733,0 1.33333,0.597333 1.33333,1.333333 v 2.666667 c 0,0.736 -0.596,1.333333 -1.33333,1.333333"
     inkscape:connector-curvature="0" /><path
     id="path58"
     style="fill:#595959;fill-opacity:1;fill-rule:nonzero;stroke:none;stroke-width:1.33333325"
     d="m 49.333332,154.66667 h -2.666667 c -0.736,0 -1.333333,-0.59733 -1.333333,-1.33333 v -2.66667 c 0,-0.736 0.597333,-1.33333 1.333333,-1.33333 h 2.666667 c 0.736,0 1.333333,0.59733 1.333333,1.33333 v 2.66667 c 0,0.736 -0.597333,1.33333 -1.333333,1.33333"
     inkscape:connector-curvature="0" /><path
     id="path62"
     style="fill:#595959;fill-opacity:1;fill-rule:nonzero;stroke:none;stroke-width:1.33333325"
     d="m 294.66666,154.66667 h -2.66667 c -0.73733,0 -1.33333,-0.59733 -1.33333,-1.33333 v -2.66667 c 0,-0.736 0.596,-1.33333 1.33333,-1.33333 h 2.66667 c 0.73733,0 1.33333,0.59733 1.33333,1.33333 v 2.66667 c 0,0.736 -0.596,1.33333 -1.33333,1.33333"
     inkscape:connector-curvature="0" /><path
     id="path66"
     style="fill:#191919;fill-opacity:1;fill-rule:nonzero;stroke:none;stroke-width:1.33333325"
     d="m 176,24.000005 c 0,2.945333 -2.388,5.333333 -5.33333,5.333333 -2.94534,0 -5.33334,-2.388 -5.33334,-5.333333 0,-2.945333 2.388,-5.333333 5.33334,-5.333333 2.94533,0 5.33333,2.388 5.33333,5.333333"
     inkscape:connector-curvature="0" /><path
     id="path70"
     style="fill:#4f4f4f;fill-opacity:1;fill-rule:nonzero;stroke:none;stroke-width:1.33333325"
     d="m 168,24.000005 c 0,-1.472 1.19467,-2.666667 2.66667,-2.666667 1.472,0 2.66666,1.194667 2.66666,2.666667 0,1.472 -1.19466,2.666667 -2.66666,2.666667 -1.472,0 -2.66667,-1.194667 -2.66667,-2.666667"
     inkscape:connector-curvature="0" /><path
     id="path74"
     style="fill:#191919;fill-opacity:1;fill-rule:nonzero;stroke:none;stroke-width:1.33333325"
     d="m 172,24.000005 c 0,0.736 -0.59733,1.333333 -1.33333,1.333333 -0.736,0 -1.33334,-0.597333 -1.33334,-1.333333 0,-0.736 0.59734,-1.333333 1.33334,-1.333333 0.736,0 1.33333,0.597333 1.33333,1.333333"
     inkscape:connector-curvature="0" /><path
     id="path78"
     style="fill:#191919;fill-opacity:1;fill-rule:nonzero;stroke:none;stroke-width:1.33333325"
     d="m 177.33333,24.000005 c 0,1.472 1.19467,2.666667 2.66667,2.666667 1.472,0 2.66666,-1.194667 2.66666,-2.666667 0,-1.472 -1.19466,-2.666667 -2.66666,-2.666667 -1.472,0 -2.66667,1.194667 -2.66667,2.666667"
     inkscape:connector-curvature="0" /><path
     id="path82"
     style="fill:#595959;fill-opacity:1;fill-rule:nonzero;stroke:none;stroke-width:1.33333325"
     d="m 106.66666,25.333338 c 0,2.209333 -1.79067,4 -4,4 -2.20933,0 -4,-1.790667 -4,-4 0,-2.209333 1.79067,-4 4,-4 2.20933,0 4,1.790667 4,4"
     inkscape:connector-curvature="0" /><path
     id="path86"
     style="fill:#595959;fill-opacity:1;fill-rule:nonzero;stroke:none;stroke-width:1.33333325"
     d="m 242.66666,25.333338 c 0,2.209333 -1.79067,4 -4,4 -2.20933,0 -4,-1.790667 -4,-4 0,-2.209333 1.79067,-4 4,-4 2.20933,0 4,1.790667 4,4"
     inkscape:connector-curvature="0" /><path
     id="path90"
     style="fill:#404040;fill-opacity:1;fill-rule:nonzero;stroke:none;stroke-width:1.33333325"
     d="M 266.66666,160 H 74.666665 c -2.945333,0 -5.333333,-2.388 -5.333333,-5.33333 V 37.333336 c 0,-2.945333 2.388,-5.333333 5.333333,-5.333333 H 266.66666 c 2.94533,0 5.33333,2.388 5.33333,5.333333 V 154.66667 c 0,2.94533 -2.388,5.33333 -5.33333,5.33333"
     inkscape:connector-curvature="0" /><path
     inkscape:connector-curvature="0"
     d="M 266.66666,154.66667 H 74.666665 V 37.333338 H 266.66666 Z"
     style="fill:#808080;fill-opacity:1;fill-rule:nonzero;stroke:none;stroke-width:1.33333325"
     id="path92" /><path
     id="path96"
     style="fill:#191919;fill-opacity:1;fill-rule:nonzero;stroke:none;stroke-width:1.33333325"
     d="m 49.333332,92.000003 c 0,-0.736 -0.597333,-1.333333 -1.333333,-1.333333 -0.736,0 -1.333334,0.597333 -1.333334,1.333333 0,0.736 0.597334,1.333333 1.333334,1.333333 0.736,0 1.333333,-0.597333 1.333333,-1.333333 m 0,-13.333333 c 0,-0.736 -0.597333,-1.333333 -1.333333,-1.333333 -0.736,0 -1.333334,0.597333 -1.333334,1.333333 0,0.736 0.597334,1.333333 1.333334,1.333333 0.736,0 1.333333,-0.597333 1.333333,-1.333333 m 5.333333,5.333333 c -0.736,0 -1.333333,0.597334 -1.333333,1.333334 0,0.735999 0.597333,1.333333 1.333333,1.333333 0.736,0 1.333333,-0.597334 1.333333,-1.333333 0,-0.736 -0.597333,-1.333334 -1.333333,-1.333334 m -13.333333,0 c -0.736,0 -1.333333,0.597334 -1.333333,1.333334 0,0.735999 0.597333,1.333333 1.333333,1.333333 0.736,0 1.333333,-0.597334 1.333333,-1.333333 0,-0.736 -0.597333,-1.333334 -1.333333,-1.333334 m 8,1.333334 c 0,0.735999 -0.597333,1.333333 -1.333333,1.333333 -0.736,0 -1.333334,-0.597334 -1.333334,-1.333333 0,-0.736 0.597334,-1.333334 1.333334,-1.333334 0.736,0 1.333333,0.597334 1.333333,1.333334"
     inkscape:connector-curvature="0" /><path
     id="path100"
     style="fill:#191919;fill-opacity:1;fill-rule:nonzero;stroke:none;stroke-width:1.33333325"
     d="m 294.66666,92.000003 c 0,-0.736 -0.596,-1.333333 -1.33333,-1.333333 -0.73734,0 -1.33334,0.597333 -1.33334,1.333333 0,0.736 0.596,1.333333 1.33334,1.333333 0.73733,0 1.33333,-0.597333 1.33333,-1.333333 m 0,-13.333333 c 0,-0.736 -0.596,-1.333333 -1.33333,-1.333333 -0.73734,0 -1.33334,0.597333 -1.33334,1.333333 0,0.736 0.596,1.333333 1.33334,1.333333 0.73733,0 1.33333,-0.597333 1.33333,-1.333333 m 5.33333,5.333333 c -0.73733,0 -1.33333,0.597334 -1.33333,1.333334 0,0.735999 0.596,1.333333 1.33333,1.333333 0.73734,0 1.33334,-0.597334 1.33334,-1.333333 0,-0.736 -0.596,-1.333334 -1.33334,-1.333334 m -13.33333,0 c -0.73733,0 -1.33333,0.597334 -1.33333,1.333334 0,0.735999 0.596,1.333333 1.33333,1.333333 0.73733,0 1.33333,-0.597334 1.33333,-1.333333 0,-0.736 -0.596,-1.333334 -1.33333,-1.333334 m 8,1.333334 c 0,0.735999 -0.596,1.333333 -1.33333,1.333333 -0.73734,0 -1.33334,-0.597334 -1.33334,-1.333333 0,-0.736 0.596,-1.333334 1.33334,-1.333334 0.73733,0 1.33333,0.597334 1.33333,1.333334"
     inkscape:connector-curvature="0" /><path
     inkscape:connector-curvature="0"
     d="m 31.999999,138.66667 h -5.333333 v -32 h 5.333333 z"
     style="fill:#404040;fill-opacity:1;fill-rule:nonzero;stroke:none;stroke-width:1.33333325"
     id="path102" /><path
     inkscape:connector-curvature="0"
     d="M 31.999999,122.66667 H 26.666666 V 112 h 5.333333 z"
     style="fill:#808080;fill-opacity:1;fill-rule:nonzero;stroke:none;stroke-width:1.33333325"
     id="path104" /><path
     inkscape:connector-curvature="0"
     d="m 314.66666,138.66667 h -5.33333 v -32 h 5.33333 z"
     style="fill:#404040;fill-opacity:1;fill-rule:nonzero;stroke:none;stroke-width:1.33333325"
     id="path106" /><path
     inkscape:connector-curvature="0"
     d="m 314.66666,117.33334 h -5.33333 v -10.66667 h 5.33333 z"
     style="fill:#999999;fill-opacity:1;fill-rule:nonzero;stroke:none;stroke-width:1.33333325"
     id="path108" /><path
     inkscape:connector-curvature="0"
     d="M 55.999999,181.33333 H 53.333332 V 160 h 2.666667 z"
     style="fill:#404040;fill-opacity:1;fill-rule:nonzero;stroke:none;stroke-width:1.33333325"
     id="path110" /><path
     inkscape:connector-curvature="0"
     d="m 287.99999,181.33333 h -2.66666 V 160 h 2.66666 z"
     style="fill:#404040;fill-opacity:1;fill-rule:nonzero;stroke:none;stroke-width:1.33333325"
     id="path112" /><path
     id="path116"
     style="fill:#404040;fill-opacity:1;fill-rule:nonzero;stroke:none;stroke-width:1.33333325"
     d="m 269.33333,176 c -4.41733,0 -8,2.388 -8,5.33333 h 16 c 0,-2.94533 -3.58267,-5.33333 -8,-5.33333"
     inkscape:connector-curvature="0" /><path
     id="path120"
     style="fill:#595959;fill-opacity:1;fill-rule:nonzero;stroke:none;stroke-width:1.33333325"
     d="m 301.33333,170.66667 c 0,-0.736 -0.596,-1.33333 -1.33333,-1.33333 -0.73734,0 -1.33334,0.59733 -1.33334,1.33333 0,0.736 0.596,1.33333 1.33334,1.33333 0.73733,0 1.33333,-0.59733 1.33333,-1.33333"
     inkscape:connector-curvature="0" /><path
     id="path124"
     style="fill:#4c4c4c;fill-opacity:1;fill-rule:nonzero;stroke:none;stroke-width:1.33333325"
     d="m 77.333331,212 c 0,11.04533 -8.954666,20 -20,20 -11.045333,0 -19.999999,-8.95467 -19.999999,-20 0,-11.04533 8.954666,-20 19.999999,-20 11.045334,0 20,8.95467 20,20"
     inkscape:connector-curvature="0" /><path
     id="path128"
     style="fill:#b3b3b3;fill-opacity:1;fill-rule:nonzero;stroke:none;stroke-width:1.33333325"
     d="m 70.666665,212 c 0,7.36267 -5.969333,13.33333 -13.333333,13.33333 -7.364,0 -13.333333,-5.97066 -13.333333,-13.33333 0,-7.36267 5.969333,-13.33333 13.333333,-13.33333 7.364,0 13.333333,5.97066 13.333333,13.33333"
     inkscape:connector-curvature="0" /><path
     id="path132"
     style="fill:#999999;fill-opacity:1;fill-rule:nonzero;stroke:none;stroke-width:1.33333325"
     d="m 67.333332,212 c 0,5.524 -4.477333,10 -10,10 -5.522666,0 -10,-4.476 -10,-10 0,-5.524 4.477334,-10 10,-10 5.522667,0 10,4.476 10,10"
     inkscape:connector-curvature="0" /><path
     inkscape:connector-curvature="0"
     d="m 255.99999,325.33333 h 2.66667 V 320 h -2.66667 z"
     style="fill:#3096cf;fill-opacity:1;fill-rule:nonzero;stroke:none;stroke-width:1.33333325"
     id="path134" /><path
     id="path138"
     style="fill:#4c4c4c;fill-opacity:1;fill-rule:nonzero;stroke:none;stroke-width:1.33333325"
     d="m 72.627598,252 h -10.588 v -10.588 c 0,-0.65067 -0.526666,-1.176 -1.177333,-1.176 h -7.058667 c -0.649333,0 -1.175999,0.52533 -1.175999,1.176 V 252 h -10.588 c -0.650667,0 -1.177334,0.528 -1.177334,1.17733 v 7.05867 c 0,0.64933 0.526667,1.176 1.177334,1.176 h 10.588 V 272 c 0,0.64933 0.526666,1.17733 1.175999,1.17733 h 7.058667 c 0.650667,0 1.177333,-0.528 1.177333,-1.17733 v -10.588 h 10.588 c 0.649333,0 1.176,-0.52667 1.176,-1.176 v -7.05867 c 0,-0.64933 -0.526667,-1.17733 -1.176,-1.17733"
     inkscape:connector-curvature="0" /><path
     id="path142"
     style="fill:#595959;fill-opacity:1;fill-rule:nonzero;stroke:none;stroke-width:1.33333325"
     d="M 245.33333,325.33333 H 96 c -5.890666,0 -10.666666,-4.776 -10.666666,-10.66667 V 181.33333 H 256 v 133.33333 c 0,5.89067 -4.776,10.66667 -10.66667,10.66667"
     inkscape:connector-curvature="0" /><path
     inkscape:connector-curvature="0"
     d="m 56.157332,242.588 h 2.353333 v 7.05867 h -2.353333 z"
     style="fill:#999999;fill-opacity:1;fill-rule:nonzero;stroke:none;stroke-width:1.33333325"
     id="path144" /><path
     inkscape:connector-curvature="0"
     d="m 56.157332,263.764 h 2.353333 v 7.05867 h -2.353333 z"
     style="fill:#999999;fill-opacity:1;fill-rule:nonzero;stroke:none;stroke-width:1.33333325"
     id="path146" /><path
     inkscape:connector-curvature="0"
     d="m 71.450665,257.88267 h -7.058667 v -2.35334 h 7.058667 z"
     style="fill:#999999;fill-opacity:1;fill-rule:nonzero;stroke:none;stroke-width:1.33333325"
     id="path148" /><path
     inkscape:connector-curvature="0"
     d="m 50.274665,257.88267 h -7.058666 v -2.35334 h 7.058666 z"
     style="fill:#999999;fill-opacity:1;fill-rule:nonzero;stroke:none;stroke-width:1.33333325"
     id="path150" /><path
     inkscape:connector-curvature="0"
     d="M 250.66666,189.33333 H 90.666664 V 306.66666 H 250.66666 Z"
     style="fill:#808080;fill-opacity:1;fill-rule:nonzero;stroke:none;stroke-width:1.33333325"
     id="path152" /><path
     id="path156"
     style="fill:#666666;fill-opacity:1;fill-rule:nonzero;stroke:none;stroke-width:1.33333325"
     d="m 176,322.66666 h -10.66667 c -2.94533,0 -5.33333,-2.388 -5.33333,-5.33333 0,-2.94534 2.388,-5.33334 5.33333,-5.33334 H 176 c 2.94533,0 5.33333,2.388 5.33333,5.33334 0,2.94533 -2.388,5.33333 -5.33333,5.33333"
     inkscape:connector-curvature="0" /><path
     inkscape:connector-curvature="0"
     d="m 237.33333,325.33333 h 2.66666 V 320 h -2.66666 z"
     style="fill:#4c4c4c;fill-opacity:1;fill-rule:nonzero;stroke:none;stroke-width:1.33333325"
     id="path158" /><path
     inkscape:connector-curvature="0"
     d="m 267.99999,325.33333 h 2.66667 V 320 h -2.66667 z"
     style="fill:#4c4c4c;fill-opacity:1;fill-rule:nonzero;stroke:none;stroke-width:1.33333325"
     id="path160" /><path
     inkscape:connector-curvature="0"
     d="m 279.99999,325.33333 h 2.66667 V 320 h -2.66667 z"
     style="fill:#ffff00;fill-opacity:1;fill-rule:nonzero;stroke:none;stroke-width:1.33333325"
     id="path162" /><path
     id="path166"
     style="fill:#4c4c4c;fill-opacity:1;fill-rule:nonzero;stroke:none;stroke-width:1.33333325"
     d="m 261.33333,293.33333 c 0,2.94533 2.388,5.33333 5.33333,5.33333 2.94534,0 5.33334,-2.388 5.33334,-5.33333 C 272,290.388 269.612,288 266.66666,288 c -2.94533,0 -5.33333,2.388 -5.33333,5.33333"
     inkscape:connector-curvature="0" /><path
     id="path170"
     style="fill:#4c4c4c;fill-opacity:1;fill-rule:nonzero;stroke:none;stroke-width:1.33333325"
     d="m 261.33333,272 c 0,2.94533 2.388,5.33333 5.33333,5.33333 2.94534,0 5.33334,-2.388 5.33334,-5.33333 0,-2.94533 -2.388,-5.33333 -5.33334,-5.33333 -2.94533,0 -5.33333,2.388 -5.33333,5.33333"
     inkscape:connector-curvature="0" /><path
     id="path174"
     style="fill:#999999;fill-opacity:1;fill-rule:nonzero;stroke:none;stroke-width:1.33333325"
     d="m 274.66666,196 c 0,3.68267 -2.984,6.66667 -6.66667,6.66667 -3.68266,0 -6.66666,-2.984 -6.66666,-6.66667 0,-3.68267 2.984,-6.66667 6.66666,-6.66667 3.68267,0 6.66667,2.984 6.66667,6.66667"
     inkscape:connector-curvature="0" /><path
     id="path178"
     style="fill:#4c4c4c;fill-opacity:1;fill-rule:nonzero;stroke:none;stroke-width:1.33333325"
     d="m 277.33333,226.66667 c 0,4.41733 -3.58267,8 -8,8 -4.41733,0 -8,-3.58267 -8,-8 0,-4.41733 3.58267,-8 8,-8 4.41733,0 8,3.58267 8,8"
     inkscape:connector-curvature="0" /><path
     id="path182"
     style="fill:#4c4c4c;fill-opacity:1;fill-rule:nonzero;stroke:none;stroke-width:1.33333325"
     d="m 293.33333,210.66667 c 0,4.41733 -3.58267,8 -8,8 -4.41733,0 -8,-3.58267 -8,-8 0,-4.41733 3.58267,-8 8,-8 4.41733,0 8,3.58267 8,8"
     inkscape:connector-curvature="0" /><path
     id="path186"
     style="fill:#4c4c4c;fill-opacity:1;fill-rule:nonzero;stroke:none;stroke-width:1.33333325"
     d="m 293.33333,242.66667 c 0,4.41733 -3.58267,8 -8,8 -4.41733,0 -8,-3.58267 -8,-8 0,-4.41733 3.58267,-8 8,-8 4.41733,0 8,3.58267 8,8"
     inkscape:connector-curvature="0" /><path
     id="path190"
     style="fill:#4c4c4c;fill-opacity:1;fill-rule:nonzero;stroke:none;stroke-width:1.33333325"
     d="m 309.33333,226.66667 c 0,4.41733 -3.58267,8 -8,8 -4.41733,0 -8,-3.58267 -8,-8 0,-4.41733 3.58267,-8 8,-8 4.41733,0 8,3.58267 8,8"
     inkscape:connector-curvature="0" /></svg>