<?xml version="1.0" encoding="UTF-8" standalone="no"?>
<svg
   xmlns:dc="http://purl.org/dc/elements/1.1/"
   xmlns:cc="http://creativecommons.org/ns#"
   xmlns:rdf="http://www.w3.org/1999/02/22-rdf-syntax-ns#"
   xmlns:svg="http://www.w3.org/2000/svg"
   xmlns="http://www.w3.org/2000/svg"
   xmlns:sodipodi="http://sodipodi.sourceforge.net/DTD/sodipodi-0.dtd"
   xmlns:inkscape="http://www.inkscape.org/namespaces/inkscape"
   viewBox="0 0 341.33334 341.33334"
   height="341.33334"
   width="341.33334"
   xml:space="preserve"
   id="svg2"
   version="1.1"
   sodipodi:docname="Nintendo - Nintendo 64DD.svg"
   inkscape:version="0.92.2 (5c3e80d, 2017-08-06)"><sodipodi:namedview
     pagecolor="#ffffff"
     bordercolor="#666666"
     borderopacity="1"
     objecttolerance="10"
     gridtolerance="10"
     guidetolerance="10"
     inkscape:pageopacity="0"
     inkscape:pageshadow="2"
     inkscape:window-width="1024"
     inkscape:window-height="705"
     id="namedview88"
     showgrid="false"
     inkscape:pagecheckerboard="true"
     inkscape:zoom="0.69140623"
     inkscape:cx="170.66667"
     inkscape:cy="170.66667"
     inkscape:window-x="-8"
     inkscape:window-y="-8"
     inkscape:window-maximized="1"
     inkscape:current-layer="svg2" /><metadata
     id="metadata8"><rdf:RDF><cc:Work
         rdf:about=""><dc:format>image/svg+xml</dc:format><dc:type
           rdf:resource="http://purl.org/dc/dcmitype/StillImage" /><dc:title></dc:title></cc:Work></rdf:RDF></metadata><defs
     id="defs6"><clipPath
       id="clipPath18"
       clipPathUnits="userSpaceOnUse"><path
         id="path16"
         d="M 0,256 H 256 V 0 H 0 Z" /></clipPath><clipPath
       id="clipPath26"
       clipPathUnits="userSpaceOnUse"><path
         id="path24"
         d="M 4.00337,248 H 251.997 V 8 H 4.00337 Z" /></clipPath></defs><g
     id="g22"
     transform="matrix(1.3333333,0,0,-1.3333333,0,341.33333)" /><path
     id="path38"
     style="fill:#b3b3b3;fill-opacity:1;fill-rule:nonzero;stroke:none;stroke-width:1.33333325"
     d="m 24.986933,106.56587 60.346665,58.66667 c 0,0 -16.458666,85.33333 -38.402666,85.33333 -32.915999,0 -38.4026653,-96 -21.943999,-144"
     inkscape:connector-curvature="0" /><path
     id="path42"
     style="fill:#b3b3b3;fill-opacity:1;fill-rule:nonzero;stroke:none;stroke-width:1.33333325"
     d="m 316.34639,106.56587 -60.34667,58.66667 c 0,0 16.45867,85.33333 38.40267,85.33333 32.916,0 38.40267,-96 21.944,-144"
     inkscape:connector-curvature="0" /><path
     id="path46"
     style="fill:#808080;fill-opacity:1;fill-rule:nonzero;stroke:none;stroke-width:1.33333325"
     d="m 290.09399,66.56587 c -0.56933,0 -1.14533,-0.156 -1.67067,-0.488 -9.17866,-5.790667 -20.76133,-9.049333 -28.68133,-10.994666 -45.75466,-11.236 -132.28,-11.236 -178.091995,-0.01333 h -0.0093 c -2.122667,0.610667 -20.973333,6.084 -28.726666,11.005333 -1.533333,0.961334 -3.522667,0.454667 -4.446667,-1.149333 -0.926666,-1.605333 -0.436,-3.693333 1.094667,-4.665333 8.932,-5.672 29.575999,-11.518667 30.451999,-11.764 46.643992,-11.456 134.655992,-11.46 181.207992,-0.03067 8.33867,2.050667 20.57867,5.502667 30.54267,11.790667 1.53066,0.966666 2.024,3.053333 1.10666,4.662666 -0.608,1.058667 -1.68266,1.646667 -2.77733,1.646667"
     inkscape:connector-curvature="0" /><path
     id="path50"
     style="fill:#999999;fill-opacity:1;fill-rule:nonzero;stroke:none;stroke-width:1.33333325"
     d="m 80.794531,61.414137 c 46.415999,-10.774666 133.329329,-10.774666 179.743999,0 30.636,7.113333 56.79466,14.349333 56.79466,45.553333 v 0.47867 c 0,31.204 -26.06533,60.39333 -56.79466,67.09999 l -24.68667,5.38667 c -32.592,0 -21.728,140.06666 -65.18533,140.06666 -43.456,0 -32.592,-140.06666 -65.18533,-140.06666 L 80.794531,174.54613 C 50.065198,167.84213 23.999866,138.6528 23.999866,107.4488 v -0.48 c 0,-31.203997 26.158666,-38.439997 56.794665,-45.55333 z"
     inkscape:connector-curvature="0" /><path
     id="path54"
     style="fill:#b3b3b3;fill-opacity:1;fill-rule:nonzero;stroke:none;stroke-width:1.33333325"
     d="m 80.794531,50.744404 c 46.415999,-10.770666 133.329329,-10.770666 179.743999,0 30.636,7.109333 56.79466,25.110666 56.79466,56.302666 v 0.48133 c 0,31.192 -26.06533,49.6 -56.79466,56.304 l -24.68667,5.384 c -32.592,0 -21.728,150.784 -65.18533,150.784 -43.456,0 -32.592,-150.784 -65.18533,-150.784 l -24.686669,-5.384 c -30.729333,-6.704 -56.794665,-25.112 -56.794665,-56.304 v -0.48133 c 0,-31.192 26.158666,-49.193333 56.794665,-56.302666"
     inkscape:connector-curvature="0" /><path
     id="path58"
     style="fill:#a6a6a6;fill-opacity:1;fill-rule:nonzero;stroke:none;stroke-width:1.33333325"
     d="m 112,109.23254 c 0,19.14533 -15.521333,34.66667 -34.666666,34.66667 -19.145333,0 -34.666666,-15.52134 -34.666666,-34.66667 0,-19.145333 15.521333,-34.666666 34.666666,-34.666666 C 96.478667,74.565874 112,90.087207 112,109.23254"
     inkscape:connector-curvature="0" /><path
     id="path62"
     style="fill:#4c4c4c;fill-opacity:1;fill-rule:nonzero;stroke:none;stroke-width:1.33333325"
     d="M 98.449198,100.29147 H 86.274532 V 88.116804 c 0,-1.593334 -1.292,-2.884 -2.884,-2.884 H 71.275865 c -1.593333,0 -2.884,1.290666 -2.884,2.884 V 100.29147 H 56.217199 c -1.592,0 -2.884,1.29067 -2.884,2.884 v 12.11467 c 0,1.592 1.292,2.884 2.884,2.884 h 12.174666 v 12.17466 c 0,1.592 1.290667,2.884 2.884,2.884 h 12.114667 c 1.592,0 2.884,-1.292 2.884,-2.884 v -12.17466 h 12.174666 c 1.593332,0 2.884002,-1.292 2.884002,-2.884 v -12.11467 c 0,-1.59333 -1.29067,-2.884 -2.884002,-2.884"
     inkscape:connector-curvature="0" /><path
     id="path66"
     style="fill:#595959;fill-opacity:1;fill-rule:nonzero;stroke:none;stroke-width:1.33333325"
     d="m 71.999998,109.23254 c 0,-2.94533 2.388,-5.33333 5.333333,-5.33333 2.945333,0 5.333333,2.388 5.333333,5.33333 0,2.94533 -2.388,5.33333 -5.333333,5.33333 -2.945333,0 -5.333333,-2.388 -5.333333,-5.33333"
     inkscape:connector-curvature="0" /><path
     id="path70"
     style="fill:#595959;fill-opacity:1;fill-rule:nonzero;stroke:none;stroke-width:1.33333325"
     d="m 56.416932,108.37494 6.332,-4.34133 c 0.556,-0.38134 1.250666,0.0947 1.250666,0.85733 v 8.68267 c 0,0.76266 -0.694666,1.23866 -1.250666,0.85866 l -6.332,-4.34133 c -0.556,-0.38133 -0.556,-1.33467 0,-1.716"
     inkscape:connector-curvature="0" /><path
     id="path74"
     style="fill:#595959;fill-opacity:1;fill-rule:nonzero;stroke:none;stroke-width:1.33333325"
     d="m 98.249731,110.09 -6.332,4.34133 c -0.556,0.38134 -1.250666,-0.0947 -1.250666,-0.85733 v -8.68267 c 0,-0.76266 0.694666,-1.23866 1.250666,-0.85866 l 6.332,4.34133 c 0.556,0.38133 0.556,1.33467 0,1.716"
     inkscape:connector-curvature="0" /><path
     id="path78"
     style="fill:#595959;fill-opacity:1;fill-rule:nonzero;stroke:none;stroke-width:1.33333325"
     d="m 78.190798,88.316136 4.341333,6.332 c 0.381334,0.556 -0.09467,1.250666 -0.857333,1.250666 h -8.682667 c -0.762666,0 -1.238666,-0.694666 -0.858666,-1.250666 l 4.341333,-6.332 c 0.381333,-0.556 1.334667,-0.556 1.716,0"
     inkscape:connector-curvature="0" /><path
     id="path82"
     style="fill:#595959;fill-opacity:1;fill-rule:nonzero;stroke:none;stroke-width:1.33333325"
     d="m 76.475865,130.1488 -4.341333,-6.332 c -0.381334,-0.556 0.09467,-1.25067 0.857333,-1.25067 h 8.682667 c 0.762666,0 1.238666,0.69467 0.858666,1.25067 l -4.341333,6.332 c -0.381333,0.556 -1.334667,0.556 -1.716,0"
     inkscape:connector-curvature="0" /><path
     id="path86"
     style="fill:#a6a6a6;fill-opacity:1;fill-rule:nonzero;stroke:none;stroke-width:1.33333325"
     d="m 184,117.23254 c 0,7.364 -5.96933,13.33333 -13.33333,13.33333 -7.364,0 -13.33334,-5.96933 -13.33334,-13.33333 0,-7.364 5.96934,-13.33333 13.33334,-13.33333 7.364,0 13.33333,5.96933 13.33333,13.33333"
     inkscape:connector-curvature="0" /><path
     id="path90"
     style="fill:#666666;fill-opacity:1;fill-rule:nonzero;stroke:none;stroke-width:1.33333325"
     d="m 202.66666,183.8992 c 0,17.67333 -14.32667,32 -32,32 -17.67333,0 -32,-14.32667 -32,-32 0,-17.67333 14.32667,-32 32,-32 17.67333,0 32,14.32667 32,32"
     inkscape:connector-curvature="0" /><path
     id="path94"
     style="fill:#4c4c4c;fill-opacity:1;fill-rule:nonzero;stroke:none;stroke-width:1.33333325"
     d="m 187.6372,200.86973 -16.97067,7.02933 -16.97066,-7.02933 -7.02934,-16.97067 7.02934,-16.97066 16.97066,-7.02934 16.97067,7.02934 7.02933,16.97066 z"
     inkscape:connector-curvature="0" /><path
     id="path98"
     style="fill:#b3b3b3;fill-opacity:1;fill-rule:nonzero;stroke:none;stroke-width:1.33333325"
     d="m 186.66666,183.8992 c 0,8.836 -7.164,16 -16,16 -8.836,0 -16,-7.164 -16,-16 0,-8.836 7.164,-16 16,-16 8.836,0 16,7.164 16,16"
     inkscape:connector-curvature="0" /><path
     id="path102"
     style="fill:#ff0000;fill-opacity:1;fill-rule:nonzero;stroke:none;stroke-width:1.33333325"
     d="m 181.33333,117.23254 c 0,5.89067 -4.776,10.66667 -10.66667,10.66667 -5.89066,0 -10.66666,-4.776 -10.66666,-10.66667 0,-5.89067 4.776,-10.66667 10.66666,-10.66667 5.89067,0 10.66667,4.776 10.66667,10.66667"
     inkscape:connector-curvature="0" /><path
     id="path106"
     style="fill:#a6a6a6;fill-opacity:1;fill-rule:nonzero;stroke:none;stroke-width:1.33333325"
     d="m 234.66666,122.5456 c 0,0 9,11.62267 10.66667,10.62667 1.66666,-0.996 5.33333,-5.31334 5.33333,-5.31334 l -10.66667,-10.62666 z"
     inkscape:connector-curvature="0" /><path
     id="path110"
     style="fill:#007e00;fill-opacity:1;fill-rule:nonzero;stroke:none;stroke-width:1.33333325"
     d="m 246.10826,114.56587 c 0,7.364 -5.96933,13.33333 -13.33333,13.33333 -7.364,0 -13.33334,-5.96933 -13.33334,-13.33333 0,-7.364 5.96934,-13.33333 13.33334,-13.33333 7.364,0 13.33333,5.96933 13.33333,13.33333"
     inkscape:connector-curvature="0" /><path
     id="path114"
     style="fill:#a6a6a6;fill-opacity:1;fill-rule:nonzero;stroke:none;stroke-width:1.33333325"
     d="m 298.66666,98.565869 c 0,13.254671 -10.74533,24.000001 -24,24.000001 -13.25467,0 -24,-10.74533 -24,-24.000001 0,-13.254666 10.74533,-23.999999 24,-23.999999 13.25467,0 24,10.745333 24,23.999999"
     inkscape:connector-curvature="0" /><path
     id="path118"
     style="fill:#eac500;fill-opacity:1;fill-rule:nonzero;stroke:none;stroke-width:1.33333325"
     d="m 274.66666,127.8992 c -5.89067,0 -10.66667,-4.776 -10.66667,-10.66667 0,-5.89066 4.776,-10.66666 10.66667,-10.66666 5.89067,0 10.66667,4.776 10.66667,10.66666 0,5.89067 -4.776,10.66667 -10.66667,10.66667"
     inkscape:connector-curvature="0" /><path
     id="path122"
     style="fill:#eac500;fill-opacity:1;fill-rule:nonzero;stroke:none;stroke-width:1.33333325"
     d="m 274.66666,90.56587 c -5.89067,0 -10.66667,-4.776 -10.66667,-10.666666 0,-5.890667 4.776,-10.666667 10.66667,-10.666667 5.89067,0 10.66667,4.776 10.66667,10.666667 0,5.890666 -4.776,10.666666 -10.66667,10.666666"
     inkscape:connector-curvature="0" /><path
     id="path126"
     style="fill:#eac500;fill-opacity:1;fill-rule:nonzero;stroke:none;stroke-width:1.33333325"
     d="m 255.99999,107.8992 c -5.89067,0 -10.66667,-4.776 -10.66667,-10.666666 0,-5.890667 4.776,-10.666667 10.66667,-10.666667 5.89067,0 10.66667,4.776 10.66667,10.666667 0,5.890666 -4.776,10.666666 -10.66667,10.666666"
     inkscape:connector-curvature="0" /><path
     id="path130"
     style="fill:#eac500;fill-opacity:1;fill-rule:nonzero;stroke:none;stroke-width:1.33333325"
     d="m 293.33333,107.8992 c -5.89067,0 -10.66667,-4.776 -10.66667,-10.666666 0,-5.890667 4.776,-10.666667 10.66667,-10.666667 5.89067,0 10.66667,4.776 10.66667,10.666667 0,5.890666 -4.776,10.666666 -10.66667,10.666666"
     inkscape:connector-curvature="0" /><path
     id="path134"
     style="fill:#999999;fill-opacity:1;fill-rule:nonzero;stroke:none;stroke-width:1.33333325"
     d="M 122.66666,91.899203 111.99999,33.232538 106.66666,45.804537 Z"
     inkscape:connector-curvature="0" /><path
     id="path138"
     style="fill:#999999;fill-opacity:1;fill-rule:nonzero;stroke:none;stroke-width:1.33333325"
     d="m 218.66666,91.899203 10.66667,-58.666665 5.33333,12.571999 z"
     inkscape:connector-curvature="0" /><path
     id="path142"
     style="fill:#b3b3b3;fill-opacity:1;fill-rule:nonzero;stroke:none;stroke-width:1.33333325"
     d="m 117.35973,29.037071 c 26.65333,-10.272 79.96,-10.272 106.61333,0 2.74133,1.057333 5.33067,2.290667 5.33067,5.136 L 218.64239,90.666403 H 122.6904 L 112.02906,34.173071 c -0.528,-2.8 2.58934,-4.078667 5.33067,-5.136"
     inkscape:connector-curvature="0" /><path
     id="path146"
     style="fill:#999999;fill-opacity:1;fill-rule:nonzero;stroke:none;stroke-width:1.33333325"
     d="m 170.66666,171.8992 c -6.61733,0 -12,5.38267 -12,12 0,6.61733 5.38267,12 12,12 6.61733,0 12,-5.38267 12,-12 0,-6.61733 -5.38267,-12 -12,-12"
     inkscape:connector-curvature="0" /><path
     id="path150"
     style="fill:#b3b3b3;fill-opacity:1;fill-rule:nonzero;stroke:none;stroke-width:1.33333325"
     d="m 170.66666,173.23253 c -5.88133,0 -10.66667,4.78533 -10.66667,10.66667 0,5.88133 4.78534,10.66666 10.66667,10.66666 5.88133,0 10.66667,-4.78533 10.66667,-10.66666 0,-5.88134 -4.78534,-10.66667 -10.66667,-10.66667"
     inkscape:connector-curvature="0" /><path
     id="path154"
     style="fill:#999999;fill-opacity:1;fill-rule:nonzero;stroke:none;stroke-width:1.33333325"
     d="m 170.66666,174.56587 c -5.14667,0 -9.33333,4.18667 -9.33333,9.33333 0,5.14667 4.18666,9.33334 9.33333,9.33334 5.14667,0 9.33333,-4.18667 9.33333,-9.33334 0,-5.14666 -4.18666,-9.33333 -9.33333,-9.33333"
     inkscape:connector-curvature="0" /><path
     id="path158"
     style="fill:#b3b3b3;fill-opacity:1;fill-rule:nonzero;stroke:none;stroke-width:1.33333325"
     d="m 170.66666,175.8992 c -4.41067,0 -8,3.58933 -8,8 0,4.41067 3.58933,8 8,8 4.41067,0 8,-3.58933 8,-8 0,-4.41067 -3.58933,-8 -8,-8"
     inkscape:connector-curvature="0" /><path
     id="path162"
     style="fill:#999999;fill-opacity:1;fill-rule:nonzero;stroke:none;stroke-width:1.33333325"
     d="m 170.66666,177.23253 c -3.676,0 -6.66667,2.99067 -6.66667,6.66667 0,3.676 2.99067,6.66666 6.66667,6.66666 3.676,0 6.66667,-2.99066 6.66667,-6.66666 0,-3.676 -2.99067,-6.66667 -6.66667,-6.66667"
     inkscape:connector-curvature="0" /><path
     id="path166"
     style="fill:#b3b3b3;fill-opacity:1;fill-rule:nonzero;stroke:none;stroke-width:1.33333325"
     d="m 176,183.8992 c 0,2.94533 -2.388,5.33333 -5.33333,5.33333 -2.94534,0 -5.33334,-2.388 -5.33334,-5.33333 0,-2.94533 2.388,-5.33333 5.33334,-5.33333 2.94533,0 5.33333,2.388 5.33333,5.33333"
     inkscape:connector-curvature="0" /><path
     id="path170"
     style="fill:#808080;fill-opacity:1;fill-rule:nonzero;stroke:none;stroke-width:1.33333325"
     d="m 172,183.8992 c 0,0.736 -0.59733,1.33333 -1.33333,1.33333 -0.736,0 -1.33334,-0.59733 -1.33334,-1.33333 0,-0.736 0.59734,-1.33333 1.33334,-1.33333 0.736,0 1.33333,0.59733 1.33333,1.33333"
     inkscape:connector-curvature="0" /><path
     id="path174"
     style="fill:#0000b8;fill-opacity:1;fill-rule:nonzero;stroke:none;stroke-width:1.33333325"
     d="m 266.66666,138.56587 c 0,7.364 -5.96933,13.33333 -13.33333,13.33333 -7.364,0 -13.33334,-5.96933 -13.33334,-13.33333 0,-7.364 5.96934,-13.33333 13.33334,-13.33333 7.364,0 13.33333,5.96933 13.33333,13.33333"
     inkscape:connector-curvature="0" /></svg>