<?xml version="1.0" encoding="UTF-8" standalone="no"?>
<svg
   xmlns:dc="http://purl.org/dc/elements/1.1/"
   xmlns:cc="http://creativecommons.org/ns#"
   xmlns:rdf="http://www.w3.org/1999/02/22-rdf-syntax-ns#"
   xmlns:svg="http://www.w3.org/2000/svg"
   xmlns="http://www.w3.org/2000/svg"
   xmlns:sodipodi="http://sodipodi.sourceforge.net/DTD/sodipodi-0.dtd"
   xmlns:inkscape="http://www.inkscape.org/namespaces/inkscape"
   viewBox="0 0 341.33334 341.33334"
   height="256"
   width="256"
   xml:space="preserve"
   id="svg2"
   version="1.1"
   sodipodi:docname="Nintendo - Nintendo DSi.svg"
   inkscape:version="0.92.2 (5c3e80d, 2017-08-06)"
   inkscape:export-filename="D:\Documents\Github\Retrosystem-retroarch-theme\png\Nintendo - Nintendo DSi.png"
   inkscape:export-xdpi="72"
   inkscape:export-ydpi="72"><sodipodi:namedview
     pagecolor="#ffffff"
     bordercolor="#666666"
     borderopacity="1"
     objecttolerance="10"
     gridtolerance="10"
     guidetolerance="10"
     inkscape:pageopacity="0"
     inkscape:pageshadow="2"
     inkscape:window-width="1024"
     inkscape:window-height="705"
     id="namedview111"
     showgrid="false"
     inkscape:pagecheckerboard="true"
     inkscape:zoom="0.9777961"
     inkscape:cx="141.95301"
     inkscape:cy="200.26526"
     inkscape:window-x="-8"
     inkscape:window-y="-8"
     inkscape:window-maximized="1"
     inkscape:current-layer="svg2" /><metadata
     id="metadata8"><rdf:RDF><cc:Work
         rdf:about=""><dc:format>image/svg+xml</dc:format><dc:type
           rdf:resource="http://purl.org/dc/dcmitype/StillImage" /><dc:title /></cc:Work></rdf:RDF></metadata><defs
     id="defs6"><clipPath
       id="clipPath18"
       clipPathUnits="userSpaceOnUse"><path
         id="path16"
         d="M 0,256 H 256 V 0 H 0 Z" /></clipPath><clipPath
       id="clipPath26"
       clipPathUnits="userSpaceOnUse"><path
         id="path24"
         d="M 12,252 H 244 V 4 H 12 Z" /></clipPath></defs><g
     transform="translate(4.4999999e-6,2.6666675)"
     id="g1130"><path
       inkscape:connector-curvature="0"
       d="m 319.99999,26.666671 c 0,-5.890667 -4.776,-10.666666 -10.66667,-10.666666 H 31.999997 c -5.890666,0 -10.666666,4.775999 -10.666666,10.666666 V 160 h 5.333333 v 5.33333 H 314.66666 V 160 h 5.33333 z"
       style="fill:#3096cf;fill-opacity:1;fill-rule:nonzero;stroke:none;stroke-width:1.33333325"
       id="path38-5" /><path
       inkscape:connector-curvature="0"
       d="M 309.33333,320 H 32.000004 c -5.890667,0 -10.666667,-4.776 -10.666667,-10.66667 V 176 H 320 V 309.33333 C 320,315.224 315.224,320 309.33333,320"
       style="fill:#2c8bbf;fill-opacity:1;fill-rule:nonzero;stroke:none;stroke-width:1.33333325"
       id="path42" /><path
       id="path44-7"
       style="fill:#29678f;fill-opacity:1;fill-rule:nonzero;stroke:none;stroke-width:1.33333325"
       d="M 250.66666,309.33333 H 90.666664 V 186.66667 H 250.66666 Z"
       inkscape:connector-curvature="0" /><path
       id="path46"
       style="fill:#191919;fill-opacity:1;fill-rule:nonzero;stroke:none;stroke-width:1.33333325"
       d="M 245.33333,304 H 95.999998 V 192 H 245.33333 Z"
       inkscape:connector-curvature="0" /><path
       id="path48-3"
       style="fill:#7f8c8d;fill-opacity:1;fill-rule:nonzero;stroke:none;stroke-width:1.33333325"
       d="M 242.66666,301.33333 H 98.666664 V 194.66667 H 242.66666 Z"
       inkscape:connector-curvature="0" /><path
       inkscape:connector-curvature="0"
       d="m 23.999999,26.666671 c 0,-4.412 3.588,-8 8,-8 H 309.33333 c 4.412,0 7.99999,3.588 7.99999,8 V 160 h 2.66667 V 26.666671 c 0,-5.890667 -4.776,-10.666666 -10.66666,-10.666666 H 31.999999 c -5.890667,0 -10.666667,4.775999 -10.666667,10.666666 V 160 h 2.666667 z"
       style="fill:#29678f;fill-opacity:1;fill-rule:nonzero;stroke:none;stroke-width:1.33333325"
       id="path52" /><path
       inkscape:connector-curvature="0"
       d="M 314.66666,160 H 26.666667 c -2.945333,0 -5.333333,2.388 -5.333333,5.33333 V 176 c 0,2.94533 2.388,5.33333 5.333333,5.33333 H 314.66666 c 2.94533,0 5.33333,-2.388 5.33333,-5.33333 v -10.66667 c 0,-2.94533 -2.388,-5.33333 -5.33333,-5.33333"
       style="fill:#29678f;fill-opacity:1;fill-rule:nonzero;stroke:none;stroke-width:1.33333325"
       id="path56" /><path
       id="path58-7"
       style="fill:#2c3e50;fill-opacity:1;fill-rule:nonzero;stroke:none;stroke-width:1.33333325"
       d="M 23.999999,48.000004 H 21.333333 V 26.666671 h 2.666666 z"
       inkscape:connector-curvature="0" /><path
       id="path60-9"
       style="fill:#2c3e50;fill-opacity:1;fill-rule:nonzero;stroke:none;stroke-width:1.33333325"
       d="m 319.99999,48.000004 h -2.66666 V 26.666671 h 2.66666 z"
       inkscape:connector-curvature="0" /><path
       id="path62"
       style="fill:#191919;fill-opacity:1;fill-rule:nonzero;stroke:none;stroke-width:1.33333325"
       d="M 245.33333,146.66667 H 95.999998 V 34.666671 H 245.33333 Z"
       inkscape:connector-curvature="0" /><path
       id="path64-7"
       style="fill:#7f8c8d;fill-opacity:1;fill-rule:nonzero;stroke:none;stroke-width:1.33333325"
       d="M 242.66666,144 H 98.666664 V 37.333338 H 242.66666 Z"
       inkscape:connector-curvature="0" /><path
       inkscape:connector-curvature="0"
       d="M 245.33333,29.333338 H 96 c -2.941333,0 -5.333333,2.392 -5.333333,5.333333 V 146.66667 C 90.666667,149.608 93.058667,152 96,152 h 149.33333 c 2.94133,0 5.33333,-2.392 5.33333,-5.33333 V 34.666671 c 0,-2.941333 -2.392,-5.333333 -5.33333,-5.333333 m 0,2.666667 c 1.472,0 2.66667,1.194666 2.66667,2.666666 V 146.66667 c 0,1.472 -1.19467,2.66666 -2.66667,2.66666 H 96 c -1.472,0 -2.666666,-1.19466 -2.666666,-2.66666 V 34.666671 c 0,-1.472 1.194666,-2.666666 2.666666,-2.666666 h 149.33333"
       style="fill:#29678f;fill-opacity:1;fill-rule:nonzero;stroke:none;stroke-width:1.33333325"
       id="path68-8" /><path
       inkscape:connector-curvature="0"
       d="m 61.333332,128 h -5.333333 c -1.472,0 -2.666667,-1.19467 -2.666667,-2.66667 0,-1.472 1.194667,-2.66666 2.666667,-2.66666 h 5.333333 c 1.472,0 2.666667,1.19466 2.666667,2.66666 0,1.472 -1.194667,2.66667 -2.666667,2.66667"
       style="fill:#191919;fill-opacity:1;fill-rule:nonzero;stroke:none;stroke-width:1.33333325"
       id="path72-0" /><path
       inkscape:connector-curvature="0"
       d="M 285.33333,128 H 280 c -1.472,0 -2.66667,-1.19467 -2.66667,-2.66667 0,-1.472 1.19467,-2.66666 2.66667,-2.66666 h 5.33333 c 1.472,0 2.66667,1.19466 2.66667,2.66666 0,1.472 -1.19467,2.66667 -2.66667,2.66667"
       style="fill:#191919;fill-opacity:1;fill-rule:nonzero;stroke:none;stroke-width:1.33333325"
       id="path76-1" /><path
       id="path78"
       style="fill:#29678f;fill-opacity:1;fill-rule:nonzero;stroke:none;stroke-width:1.33333325"
       d="M 63.999998,181.33333 H 61.333332 V 160 h 2.666666 z"
       inkscape:connector-curvature="0" /><path
       id="path80-2"
       style="fill:#29678f;fill-opacity:1;fill-rule:nonzero;stroke:none;stroke-width:1.33333325"
       d="m 279.99999,181.33333 h -2.66666 V 160 h 2.66666 z"
       inkscape:connector-curvature="0" /><path
       inkscape:connector-curvature="0"
       d="m 172,176 h -2.66667 c -2.20933,0 -4,-1.79067 -4,-4 v -2.66667 c 0,-2.20933 1.79067,-4 4,-4 H 172 c 2.20933,0 4,1.79067 4,4 V 172 c 0,2.20933 -1.79067,4 -4,4"
       style="fill:#191919;fill-opacity:1;fill-rule:nonzero;stroke:none;stroke-width:1.33333325"
       id="path84-1" /><path
       inkscape:connector-curvature="0"
       d="m 173.33333,170.66667 c 0,1.472 -1.19467,2.66667 -2.66667,2.66667 -1.472,0 -2.66666,-1.19467 -2.66666,-2.66667 0,-1.472 1.19466,-2.66667 2.66666,-2.66667 1.472,0 2.66667,1.19467 2.66667,2.66667"
       style="fill:#333333;fill-opacity:1;fill-rule:nonzero;stroke:none;stroke-width:1.33333325"
       id="path88-2" /><path
       inkscape:connector-curvature="0"
       d="m 172,170.66667 c 0,0.736 -0.59733,1.33333 -1.33333,1.33333 -0.736,0 -1.33334,-0.59733 -1.33334,-1.33333 0,-0.736 0.59734,-1.33333 1.33334,-1.33333 0.736,0 1.33333,0.59733 1.33333,1.33333"
       style="fill:#191919;fill-opacity:1;fill-rule:nonzero;stroke:none;stroke-width:1.33333325"
       id="path92-4" /><path
       inkscape:connector-curvature="0"
       d="m 193.33333,170.66667 c 0,0.736 -0.596,1.33333 -1.33333,1.33333 -0.73734,0 -1.33334,-0.59733 -1.33334,-1.33333 0,-0.736 0.596,-1.33333 1.33334,-1.33333 0.73733,0 1.33333,0.59733 1.33333,1.33333"
       style="fill:#191919;fill-opacity:1;fill-rule:nonzero;stroke:none;stroke-width:1.33333325"
       id="path96-5" /><path
       id="path98"
       style="fill:#2c3e50;fill-opacity:1;fill-rule:nonzero;stroke:none;stroke-width:1.33333325"
       d="m 50.666665,176 h -2.666666 v -10.66667 h 2.666666 z"
       inkscape:connector-curvature="0" /><path
       id="path100-3"
       style="fill:#2c3e50;fill-opacity:1;fill-rule:nonzero;stroke:none;stroke-width:1.33333325"
       d="m 42.666666,176 h -2.666667 v -10.66667 h 2.666667 z"
       inkscape:connector-curvature="0" /><path
       id="path102"
       style="fill:#2c3e50;fill-opacity:1;fill-rule:nonzero;stroke:none;stroke-width:1.33333325"
       d="m 34.666666,176 h -2.666667 v -10.66667 h 2.666667 z"
       inkscape:connector-curvature="0" /><path
       inkscape:connector-curvature="0"
       d="m 75.999998,226.66667 h -12 v -12 c 0,-0.73733 -0.597333,-1.33333 -1.333333,-1.33333 h -8 c -0.736,0 -1.333333,0.596 -1.333333,1.33333 v 12 h -12 c -0.736,0 -1.333333,0.596 -1.333333,1.33333 v 8 c 0,0.73734 0.597333,1.33334 1.333333,1.33334 h 12 v 12 c 0,0.73733 0.597333,1.33333 1.333333,1.33333 h 8 c 0.736,0 1.333333,-0.596 1.333333,-1.33333 v -12 h 12 c 0.736,0 1.333333,-0.596 1.333333,-1.33334 v -8 c 0,-0.73733 -0.597333,-1.33333 -1.333333,-1.33333"
       style="fill:#29678f;fill-opacity:1;fill-rule:nonzero;stroke:none;stroke-width:1.33333325"
       id="path106" /><path
       id="path108-5"
       style="fill:#cccccc;fill-opacity:1;fill-rule:nonzero;stroke:none;stroke-width:1.33333325"
       d="m 57.333332,216 h 2.666667 v 8 h -2.666667 z"
       inkscape:connector-curvature="0" /><path
       id="path110"
       style="fill:#cccccc;fill-opacity:1;fill-rule:nonzero;stroke:none;stroke-width:1.33333325"
       d="m 57.333332,240 h 2.666667 v 8 h -2.666667 z"
       inkscape:connector-curvature="0" /><path
       id="path112-4"
       style="fill:#cccccc;fill-opacity:1;fill-rule:nonzero;stroke:none;stroke-width:1.33333325"
       d="m 74.666665,233.33333 h -8 v -2.66666 h 8 z"
       inkscape:connector-curvature="0" /><path
       id="path114"
       style="fill:#cccccc;fill-opacity:1;fill-rule:nonzero;stroke:none;stroke-width:1.33333325"
       d="m 50.666665,233.33333 h -7.999999 v -2.66666 h 7.999999 z"
       inkscape:connector-curvature="0" /><path
       inkscape:connector-curvature="0"
       d="m 293.07546,210.4088 c 0,4.276 -3.46667,7.74267 -7.74267,7.74267 -4.276,0 -7.74133,-3.46667 -7.74133,-7.74267 0,-4.276 3.46533,-7.74267 7.74133,-7.74267 4.276,0 7.74267,3.46667 7.74267,7.74267"
       style="fill:#29678f;fill-opacity:1;fill-rule:nonzero;stroke:none;stroke-width:1.33333325"
       id="path118" /><path
       inkscape:connector-curvature="0"
       d="m 293.07546,242.92453 c 0,4.276 -3.46667,7.74267 -7.74267,7.74267 -4.276,0 -7.74133,-3.46667 -7.74133,-7.74267 0,-4.276 3.46533,-7.74267 7.74133,-7.74267 4.276,0 7.74267,3.46667 7.74267,7.74267"
       style="fill:#29678f;fill-opacity:1;fill-rule:nonzero;stroke:none;stroke-width:1.33333325"
       id="path122" /><path
       inkscape:connector-curvature="0"
       d="m 301.59119,235.18227 c -4.276,0 -7.74267,-3.46667 -7.74267,-7.74133 0,-4.276 3.46667,-7.74134 7.74267,-7.74134 4.276,0 7.74267,3.46534 7.74267,7.74134 0,4.27466 -3.46667,7.74133 -7.74267,7.74133"
       style="fill:#29678f;fill-opacity:1;fill-rule:nonzero;stroke:none;stroke-width:1.33333325"
       id="path126-0" /><path
       inkscape:connector-curvature="0"
       d="m 269.07546,235.18227 c -4.276,0 -7.74267,-3.46667 -7.74267,-7.74133 0,-4.276 3.46667,-7.74134 7.74267,-7.74134 4.276,0 7.74267,3.46534 7.74267,7.74134 0,4.27466 -3.46667,7.74133 -7.74267,7.74133"
       style="fill:#29678f;fill-opacity:1;fill-rule:nonzero;stroke:none;stroke-width:1.33333325"
       id="path130-3" /><path
       inkscape:connector-curvature="0"
       d="m 269.33333,285.33333 c 0,2.94533 -2.388,5.33333 -5.33333,5.33333 -2.94534,0 -5.33334,-2.388 -5.33334,-5.33333 0,-2.94533 2.388,-5.33333 5.33334,-5.33333 2.94533,0 5.33333,2.388 5.33333,5.33333"
       style="fill:#29678f;fill-opacity:1;fill-rule:nonzero;stroke:none;stroke-width:1.33333325"
       id="path134" /><path
       inkscape:connector-curvature="0"
       d="m 269.33333,301.33333 c 0,2.94533 -2.388,5.33333 -5.33333,5.33333 -2.94534,0 -5.33334,-2.388 -5.33334,-5.33333 0,-2.94533 2.388,-5.33333 5.33334,-5.33333 2.94533,0 5.33333,2.388 5.33333,5.33333"
       style="fill:#29678f;fill-opacity:1;fill-rule:nonzero;stroke:none;stroke-width:1.33333325"
       id="path138" /><path
       inkscape:connector-curvature="0"
       d="m 82.666665,301.33333 c 0,2.94533 -2.388,5.33333 -5.333333,5.33333 -2.945333,0 -5.333333,-2.388 -5.333333,-5.33333 0,-2.94533 2.388,-5.33333 5.333333,-5.33333 2.945333,0 5.333333,2.388 5.333333,5.33333"
       style="fill:#cccccc;fill-opacity:1;fill-rule:nonzero;stroke:none;stroke-width:1.33333325"
       id="path142" /></g></svg>