<?xml version="1.0" encoding="UTF-8" standalone="no"?>
<svg
   xmlns:dc="http://purl.org/dc/elements/1.1/"
   xmlns:cc="http://creativecommons.org/ns#"
   xmlns:rdf="http://www.w3.org/1999/02/22-rdf-syntax-ns#"
   xmlns:svg="http://www.w3.org/2000/svg"
   xmlns="http://www.w3.org/2000/svg"
   xmlns:sodipodi="http://sodipodi.sourceforge.net/DTD/sodipodi-0.dtd"
   xmlns:inkscape="http://www.inkscape.org/namespaces/inkscape"
   viewBox="0 0 341.33334 341.33334"
   height="341.33334"
   width="341.33334"
   xml:space="preserve"
   id="svg2"
   version="1.1"
   sodipodi:docname="Nintendo - Nintendo 64DD-content.svg"
   inkscape:version="0.92.2 (5c3e80d, 2017-08-06)"><sodipodi:namedview
     pagecolor="#ffffff"
     bordercolor="#666666"
     borderopacity="1"
     objecttolerance="10"
     gridtolerance="10"
     guidetolerance="10"
     inkscape:pageopacity="0"
     inkscape:pageshadow="2"
     inkscape:window-width="1024"
     inkscape:window-height="705"
     id="namedview52"
     showgrid="false"
     inkscape:pagecheckerboard="true"
     inkscape:zoom="0.69140623"
     inkscape:cx="170.66667"
     inkscape:cy="170.66667"
     inkscape:window-x="-8"
     inkscape:window-y="-8"
     inkscape:window-maximized="1"
     inkscape:current-layer="svg2" /><metadata
     id="metadata8"><rdf:RDF><cc:Work
         rdf:about=""><dc:format>image/svg+xml</dc:format><dc:type
           rdf:resource="http://purl.org/dc/dcmitype/StillImage" /><dc:title></dc:title></cc:Work></rdf:RDF></metadata><defs
     id="defs6"><clipPath
       id="clipPath18"
       clipPathUnits="userSpaceOnUse"><path
         id="path16"
         d="M 0,256 H 256 V 0 H 0 Z" /></clipPath><clipPath
       id="clipPath26"
       clipPathUnits="userSpaceOnUse"><path
         id="path24"
         d="M 8,252 H 248 V 4 H 8 Z" /></clipPath></defs><g
     id="g36"
     transform="matrix(1.3333333,0,0,-1.3333333,303.99999,16.000005)"><path
       inkscape:connector-curvature="0"
       d="m 0,0 -4,-4 h -68 l -4,4 h -124 c -6.6,0 -12,-5.4 -12,-12 v -208 c 0,-6.6 5.4,-12 12,-12 H 0 c 6.6,0 12,5.4 12,12 V -12 C 12,-5.4 6.6,0 0,0"
       style="fill:#999999;fill-opacity:1;fill-rule:nonzero;stroke:none"
       id="path38" /></g><g
     id="g40"
     transform="matrix(1.3333333,0,0,-1.3333333,207.99999,21.333338)"><path
       inkscape:connector-curvature="0"
       d="m 0,0 -4,4 h -56 v -44 c 0,-17.673 14.327,-32 32,-32 17.673,0 32,14.327 32,32 V 0 Z"
       style="fill:#b3b3b3;fill-opacity:1;fill-rule:nonzero;stroke:none"
       id="path42" /></g><g
     id="g44"
     transform="matrix(1.3333333,0,0,-1.3333333,170.66666,16.000005)"><path
       inkscape:connector-curvature="0"
       d="m 0,0 h -32 v -44 c 0,-17.673 14.327,-32 32,-32 z"
       style="fill:#808080;fill-opacity:1;fill-rule:nonzero;stroke:none"
       id="path46" /></g><g
     id="g48"
     transform="matrix(1.3333333,0,0,-1.3333333,144,16.000005)"><path
       inkscape:connector-curvature="0"
       d="m 0,0 v -40 c 0,-11.046 8.954,-20 20,-20 11.046,0 20,8.954 20,20 V 0 Z"
       style="fill:#999999;fill-opacity:1;fill-rule:nonzero;stroke:none"
       id="path50" /></g><g
     id="g52"
     transform="matrix(1.3333333,0,0,-1.3333333,154.66666,48.000004)"><path
       inkscape:connector-curvature="0"
       d="M 0,0 H 24 L 12,8 Z"
       style="fill:#808080;fill-opacity:1;fill-rule:nonzero;stroke:none"
       id="path54" /></g><g
     id="g56"
     transform="matrix(1.3333333,0,0,-1.3333333,170.66666,234.66667)"><path
       inkscape:connector-curvature="0"
       d="m 0,0 v -60 h 32 v 28 C 32,-14.327 17.673,0 0,0"
       style="fill:#b3b3b3;fill-opacity:1;fill-rule:nonzero;stroke:none"
       id="path58" /></g><g
     id="g60"
     transform="matrix(1.3333333,0,0,-1.3333333,170.66666,234.66667)"><path
       inkscape:connector-curvature="0"
       d="M 0,0 C -17.673,0 -32,-14.327 -32,-32 V -60 H 0 Z"
       style="fill:#808080;fill-opacity:1;fill-rule:nonzero;stroke:none"
       id="path62" /></g><g
     id="g64"
     transform="matrix(1.3333333,0,0,-1.3333333,170.66666,256)"><path
       inkscape:connector-curvature="0"
       d="m 0,0 c -11.046,0 -20,-8.954 -20,-20 v -24 -8 h 40 v 8 24 C 20,-8.954 11.046,0 0,0"
       style="fill:#999999;fill-opacity:1;fill-rule:nonzero;stroke:none"
       id="path66" /></g><g
     id="g68"
     transform="matrix(1.3333333,0,0,-1.3333333,157.33333,301.33333)"><path
       inkscape:connector-curvature="0"
       d="m 0,0 c 0,-1.105 -0.895,-2 -2,-2 -1.105,0 -2,0.895 -2,2 0,1.105 0.895,2 2,2 1.105,0 2,-0.895 2,-2"
       style="fill:#808080;fill-opacity:1;fill-rule:nonzero;stroke:none"
       id="path70" /></g><g
     id="g72"
     transform="matrix(1.3333333,0,0,-1.3333333,168,301.33333)"><path
       inkscape:connector-curvature="0"
       d="m 0,0 c 0,-1.105 -0.895,-2 -2,-2 -1.105,0 -2,0.895 -2,2 0,1.105 0.895,2 2,2 1.105,0 2,-0.895 2,-2"
       style="fill:#808080;fill-opacity:1;fill-rule:nonzero;stroke:none"
       id="path74" /></g><g
     id="g76"
     transform="matrix(1.3333333,0,0,-1.3333333,178.66666,301.33333)"><path
       inkscape:connector-curvature="0"
       d="m 0,0 c 0,-1.105 -0.895,-2 -2,-2 -1.105,0 -2,0.895 -2,2 0,1.105 0.895,2 2,2 1.105,0 2,-0.895 2,-2"
       style="fill:#808080;fill-opacity:1;fill-rule:nonzero;stroke:none"
       id="path78" /></g><g
     id="g80"
     transform="matrix(1.3333333,0,0,-1.3333333,189.33333,301.33333)"><path
       inkscape:connector-curvature="0"
       d="m 0,0 c 0,-1.105 -0.895,-2 -2,-2 -1.105,0 -2,0.895 -2,2 0,1.105 0.895,2 2,2 1.105,0 2,-0.895 2,-2"
       style="fill:#808080;fill-opacity:1;fill-rule:nonzero;stroke:none"
       id="path82" /></g><g
     id="g84"
     transform="matrix(1.3333333,0,0,-1.3333333,168.66666,122.67974)"><path
       inkscape:connector-curvature="0"
       d="m 0,0 c -9.762,0 -19.611,-0.7 -29.274,-2.08 l -27.597,-4.153 -0.06,-0.009 -0.059,-0.013 c -5.511,-1.174 -9.51,-6.11 -9.51,-11.735 v -52 c 0,-6.617 5.383,-12 12,-12 h 112 c 6.617,0 12,5.383 12,12 v 52 c 0,6.569 -5.306,11.922 -11.857,11.999 l -29.359,4.05 C 18.944,-0.653 9.428,0 0,0"
       style="fill:#808080;fill-opacity:1;fill-rule:nonzero;stroke:none"
       id="path86" /></g><g
     id="g88"
     transform="matrix(1.3333333,0,0,-1.3333333,245.33333,133.33334)"><path
       inkscape:connector-curvature="0"
       d="M 0,0 -29.489,4.067 C -48.404,6.676 -67.59,6.63 -86.491,3.93 l -27.583,-4.151 C -118.587,-1.183 -122,-5.211 -122,-10 v -52 c 0,-5.5 4.5,-10 10,-10 H 0 c 5.5,0 10,4.5 10,10 v 52 C 10,-4.5 5.5,0 0,0"
       style="fill:#ffffff;fill-opacity:1;fill-rule:nonzero;stroke:none"
       id="path90" /></g><path
     inkscape:connector-curvature="0"
     d="M 69.333332,314.66666 H 47.999999 V 16.000005 h 21.333333 z"
     style="fill:#b3b3b3;fill-opacity:1;fill-rule:nonzero;stroke:none;stroke-width:1.33333325"
     id="path92" /><path
     inkscape:connector-curvature="0"
     d="m 271.99999,314.66666 h 21.33334 V 21.333338 h -21.33334 z"
     style="fill:#808080;fill-opacity:1;fill-rule:nonzero;stroke:none;stroke-width:1.33333325"
     id="path94" /><g
     id="g96"
     transform="matrix(1.3333333,0,0,-1.3333333,144,314.66666)"><path
       inkscape:connector-curvature="0"
       d="m 0,0 h -72 l 16,4 h 44 z"
       style="fill:#666666;fill-opacity:1;fill-rule:nonzero;stroke:none"
       id="path98" /></g><g
     id="g100"
     transform="matrix(1.3333333,0,0,-1.3333333,293.33333,314.66666)"><path
       inkscape:connector-curvature="0"
       d="m 0,0 h -72 l 12,4 h 44 z"
       style="fill:#666666;fill-opacity:1;fill-rule:nonzero;stroke:none"
       id="path102" /></g></svg>