<?xml version="1.0" encoding="UTF-8" standalone="no"?>
<svg
   xmlns:dc="http://purl.org/dc/elements/1.1/"
   xmlns:cc="http://creativecommons.org/ns#"
   xmlns:rdf="http://www.w3.org/1999/02/22-rdf-syntax-ns#"
   xmlns:svg="http://www.w3.org/2000/svg"
   xmlns="http://www.w3.org/2000/svg"
   xmlns:sodipodi="http://sodipodi.sourceforge.net/DTD/sodipodi-0.dtd"
   xmlns:inkscape="http://www.inkscape.org/namespaces/inkscape"
   viewBox="0 0 341.33334 341.33334"
   height="341.33334"
   width="341.33334"
   xml:space="preserve"
   id="svg2"
   version="1.1"
   sodipodi:docname="Nintendo - Nintendo DS Decrypted.svg"
   inkscape:version="0.92.2 (5c3e80d, 2017-08-06)"><sodipodi:namedview
     pagecolor="#ffffff"
     bordercolor="#666666"
     borderopacity="1"
     objecttolerance="10"
     gridtolerance="10"
     guidetolerance="10"
     inkscape:pageopacity="0"
     inkscape:pageshadow="2"
     inkscape:window-width="1024"
     inkscape:window-height="705"
     id="namedview115"
     showgrid="false"
     inkscape:pagecheckerboard="true"
     inkscape:zoom="0.48889803"
     inkscape:cx="311.71435"
     inkscape:cy="296.28983"
     inkscape:window-x="-8"
     inkscape:window-y="-8"
     inkscape:window-maximized="1"
     inkscape:current-layer="svg2" /><metadata
     id="metadata8"><rdf:RDF><cc:Work
         rdf:about=""><dc:format>image/svg+xml</dc:format><dc:type
           rdf:resource="http://purl.org/dc/dcmitype/StillImage" /><dc:title /></cc:Work></rdf:RDF></metadata><defs
     id="defs6"><clipPath
       id="clipPath18"
       clipPathUnits="userSpaceOnUse"><path
         id="path16"
         d="M 0,256 H 256 V 0 H 0 Z" /></clipPath><clipPath
       id="clipPath26"
       clipPathUnits="userSpaceOnUse"><path
         id="path24"
         d="M 12,252 H 244 V 4 H 12 Z" /></clipPath><clipPath
       id="clipPath44"
       clipPathUnits="userSpaceOnUse"><path
         id="path42"
         d="M 0,256 H 256 V 0 H 0 Z" /></clipPath></defs><path
     inkscape:connector-curvature="0"
     d="M 61.333332,154.66667 H 279.99999 v 26.66666 H 61.333332 Z"
     style="fill:#d9d9d9;fill-opacity:1;fill-rule:nonzero;stroke:none;stroke-width:1.33333325"
     id="path36" /><path
     id="path48"
     style="fill:#e6e6e6;fill-opacity:1;fill-rule:nonzero;stroke:none;stroke-width:1.33333325"
     d="M 295.50053,325.33333 H 46.020536 c -10.637333,0 -19.259999,-8.74267 -19.259999,-19.528 v -124.472 H 314.76053 v 124.472 c 0,10.78533 -8.62267,19.528 -19.26,19.528"
     inkscape:connector-curvature="0" /><path
     id="path52"
     style="fill:#e6e6e6;fill-opacity:1;fill-rule:nonzero;stroke:none;stroke-width:1.33333325"
     d="M 314.66666,160 H 26.666667 V 35.260003 c 0,-10.637333 8.622667,-19.259999 19.26,-19.259999 H 295.40666 c 10.63733,0 19.26,8.622666 19.26,19.259999 z"
     inkscape:connector-curvature="0" /><path
     id="path56"
     style="fill:#d9d9d9;fill-opacity:1;fill-rule:nonzero;stroke:none;stroke-width:1.33333325"
     d="M 250.66666,26.666671 H 247.30933 94.023997 90.666664 v 3.510667 120.978662 3.51067 h 3.357333 153.285333 3.35733 V 151.156 30.177338 Z"
     inkscape:connector-curvature="0" /><path
     inkscape:connector-curvature="0"
     d="M 245.33333,149.33333 H 95.999998 V 32.000004 H 245.33333 Z"
     style="fill:#7f8c8d;fill-opacity:1;fill-rule:nonzero;stroke:none;stroke-width:1.33333325;font-variant-east_asian:normal;opacity:1;vector-effect:none;stroke-linecap:butt;stroke-linejoin:miter;stroke-miterlimit:4;stroke-dasharray:none;stroke-dashoffset:0;stroke-opacity:1"
     id="path58" /><path
     id="path62"
     style="fill:#d9d9d9;fill-opacity:1;fill-rule:nonzero;stroke:none;stroke-width:1.33333325"
     d="M 247.44439,186.66667 H 244.22172 97.11106 93.888394 c -1.778667,0 -3.221333,1.48933 -3.221333,3.328 v 3.328 114.688 3.328 c 0,1.83866 1.442666,3.328 3.221333,3.328 h 3.222666 147.11066 3.22267 c 1.78,0 3.22267,-1.48934 3.22267,-3.328 v -3.328 -114.688 -3.328 c 0,-1.83867 -1.44267,-3.328 -3.22267,-3.328"
     inkscape:connector-curvature="0" /><path
     id="path66"
     style="fill:#e6e6e6;fill-opacity:1;fill-rule:nonzero;stroke:none;stroke-width:1.33333325"
     d="m 247.99999,189.33333 h -3.24533 -148.176 -3.245333 v 3.364 115.93866 3.364 h 3.245333 148.176 3.24533 v -3.364 -115.93866 z"
     inkscape:connector-curvature="0" /><path
     inkscape:connector-curvature="0"
     d="M 245.33333,309.33333 H 95.999998 V 192 H 245.33333 Z"
     style="fill:#7f8c8d;fill-opacity:1;fill-rule:nonzero;stroke:none;stroke-width:1.33333325;font-variant-east_asian:normal;opacity:1;vector-effect:none;stroke-linecap:butt;stroke-linejoin:miter;stroke-miterlimit:4;stroke-dasharray:none;stroke-dashoffset:0;stroke-opacity:1"
     id="path68" /><path
     id="path72"
     style="fill:#cccccc;fill-opacity:1;fill-rule:nonzero;stroke:none;stroke-width:1.33333325"
     d="M 63.999998,181.33333 H 26.666666 V 166.188 c 0,-3.41734 3.134666,-6.188 7.001333,-6.188 h 30.331999 z"
     inkscape:connector-curvature="0" /><path
     id="path76"
     style="fill:#cccccc;fill-opacity:1;fill-rule:nonzero;stroke:none;stroke-width:1.33333325"
     d="m 277.33333,181.33333 h 37.33333 V 166.188 c 0,-3.41734 -3.13466,-6.188 -7.00133,-6.188 h -30.332 z"
     inkscape:connector-curvature="0" /><path
     id="path80"
     style="fill:#191919;fill-opacity:1;fill-rule:nonzero;stroke:none;stroke-width:1.33333325"
     d="m 58.666665,102.66667 c 0,0.736 -0.597333,1.33333 -1.333333,1.33333 -0.736,0 -1.333334,-0.59733 -1.333334,-1.33333 0,-0.736 0.597334,-1.33333 1.333334,-1.33333 0.736,0 1.333333,0.59733 1.333333,1.33333"
     inkscape:connector-curvature="0" /><path
     id="path84"
     style="fill:#191919;fill-opacity:1;fill-rule:nonzero;stroke:none;stroke-width:1.33333325"
     d="m 63.999998,102.66667 c 0,0.736 -0.597333,1.33333 -1.333333,1.33333 -0.736,0 -1.333334,-0.59733 -1.333334,-1.33333 0,-0.736 0.597334,-1.33333 1.333334,-1.33333 0.736,0 1.333333,0.59733 1.333333,1.33333"
     inkscape:connector-curvature="0" /><path
     id="path88"
     style="fill:#191919;fill-opacity:1;fill-rule:nonzero;stroke:none;stroke-width:1.33333325"
     d="m 61.333332,108 c 0,0.736 -0.597333,1.33333 -1.333333,1.33333 -0.736,0 -1.333334,-0.59733 -1.333334,-1.33333 0,-0.736 0.597334,-1.33333 1.333334,-1.33333 0.736,0 1.333333,0.59733 1.333333,1.33333"
     inkscape:connector-curvature="0" /><path
     id="path92"
     style="fill:#191919;fill-opacity:1;fill-rule:nonzero;stroke:none;stroke-width:1.33333325"
     d="m 55.999999,108 c 0,0.736 -0.597333,1.33333 -1.333333,1.33333 -0.736,0 -1.333334,-0.59733 -1.333334,-1.33333 0,-0.736 0.597334,-1.33333 1.333334,-1.33333 0.736,0 1.333333,0.59733 1.333333,1.33333"
     inkscape:connector-curvature="0" /><path
     id="path96"
     style="fill:#191919;fill-opacity:1;fill-rule:nonzero;stroke:none;stroke-width:1.33333325"
     d="m 61.333332,97.333336 c 0,0.736 -0.597333,1.333333 -1.333333,1.333333 -0.736,0 -1.333334,-0.597333 -1.333334,-1.333333 0,-0.736 0.597334,-1.333333 1.333334,-1.333333 0.736,0 1.333333,0.597333 1.333333,1.333333"
     inkscape:connector-curvature="0" /><path
     id="path100"
     style="fill:#191919;fill-opacity:1;fill-rule:nonzero;stroke:none;stroke-width:1.33333325"
     d="m 55.999999,97.333336 c 0,0.736 -0.597333,1.333333 -1.333333,1.333333 -0.736,0 -1.333334,-0.597333 -1.333334,-1.333333 0,-0.736 0.597334,-1.333333 1.333334,-1.333333 0.736,0 1.333333,0.597333 1.333333,1.333333"
     inkscape:connector-curvature="0" /><path
     id="path104"
     style="fill:#191919;fill-opacity:1;fill-rule:nonzero;stroke:none;stroke-width:1.33333325"
     d="m 53.333332,102.66667 c 0,0.736 -0.597333,1.33333 -1.333333,1.33333 -0.736,0 -1.333334,-0.59733 -1.333334,-1.33333 0,-0.736 0.597334,-1.33333 1.333334,-1.33333 0.736,0 1.333333,0.59733 1.333333,1.33333"
     inkscape:connector-curvature="0" /><path
     id="path108"
     style="fill:#191919;fill-opacity:1;fill-rule:nonzero;stroke:none;stroke-width:1.33333325"
     d="m 285.33333,102.66667 c 0,0.736 -0.59733,1.33333 -1.33333,1.33333 -0.736,0 -1.33334,-0.59733 -1.33334,-1.33333 0,-0.736 0.59734,-1.33333 1.33334,-1.33333 0.736,0 1.33333,0.59733 1.33333,1.33333"
     inkscape:connector-curvature="0" /><path
     id="path112"
     style="fill:#191919;fill-opacity:1;fill-rule:nonzero;stroke:none;stroke-width:1.33333325"
     d="m 290.66666,102.66667 c 0,0.736 -0.59733,1.33333 -1.33333,1.33333 -0.736,0 -1.33334,-0.59733 -1.33334,-1.33333 0,-0.736 0.59734,-1.33333 1.33334,-1.33333 0.736,0 1.33333,0.59733 1.33333,1.33333"
     inkscape:connector-curvature="0" /><path
     id="path116"
     style="fill:#191919;fill-opacity:1;fill-rule:nonzero;stroke:none;stroke-width:1.33333325"
     d="m 287.99999,108 c 0,0.736 -0.59733,1.33333 -1.33333,1.33333 -0.736,0 -1.33334,-0.59733 -1.33334,-1.33333 0,-0.736 0.59734,-1.33333 1.33334,-1.33333 0.736,0 1.33333,0.59733 1.33333,1.33333"
     inkscape:connector-curvature="0" /><path
     id="path120"
     style="fill:#191919;fill-opacity:1;fill-rule:nonzero;stroke:none;stroke-width:1.33333325"
     d="m 282.66666,108 c 0,0.736 -0.59733,1.33333 -1.33333,1.33333 -0.736,0 -1.33334,-0.59733 -1.33334,-1.33333 0,-0.736 0.59734,-1.33333 1.33334,-1.33333 0.736,0 1.33333,0.59733 1.33333,1.33333"
     inkscape:connector-curvature="0" /><path
     id="path124"
     style="fill:#191919;fill-opacity:1;fill-rule:nonzero;stroke:none;stroke-width:1.33333325"
     d="m 287.99999,97.333336 c 0,0.736 -0.59733,1.333333 -1.33333,1.333333 -0.736,0 -1.33334,-0.597333 -1.33334,-1.333333 0,-0.736 0.59734,-1.333333 1.33334,-1.333333 0.736,0 1.33333,0.597333 1.33333,1.333333"
     inkscape:connector-curvature="0" /><path
     id="path128"
     style="fill:#191919;fill-opacity:1;fill-rule:nonzero;stroke:none;stroke-width:1.33333325"
     d="m 282.66666,97.333336 c 0,0.736 -0.59733,1.333333 -1.33333,1.333333 -0.736,0 -1.33334,-0.597333 -1.33334,-1.333333 0,-0.736 0.59734,-1.333333 1.33334,-1.333333 0.736,0 1.33333,0.597333 1.33333,1.333333"
     inkscape:connector-curvature="0" /><path
     id="path132"
     style="fill:#191919;fill-opacity:1;fill-rule:nonzero;stroke:none;stroke-width:1.33333325"
     d="m 279.99999,102.66667 c 0,0.736 -0.59733,1.33333 -1.33333,1.33333 -0.736,0 -1.33334,-0.59733 -1.33334,-1.33333 0,-0.736 0.59734,-1.33333 1.33334,-1.33333 0.736,0 1.33333,0.59733 1.33333,1.33333"
     inkscape:connector-curvature="0" /><path
     inkscape:connector-curvature="0"
     d="m 58.666665,32.000004 h -5.333333 v -5.333333 h 5.333333 z"
     style="fill:#d9d9d9;fill-opacity:1;fill-rule:nonzero;stroke:none;stroke-width:1.33333325"
     id="path134" /><path
     inkscape:connector-curvature="0"
     d="m 287.99999,32.000004 h -5.33333 v -5.333333 h 5.33333 z"
     style="fill:#d9d9d9;fill-opacity:1;fill-rule:nonzero;stroke:none;stroke-width:1.33333325"
     id="path136" /><path
     inkscape:connector-curvature="0"
     d="m 58.666665,154.66667 h -5.333333 v -5.33334 h 5.333333 z"
     style="fill:#d9d9d9;fill-opacity:1;fill-rule:nonzero;stroke:none;stroke-width:1.33333325"
     id="path138" /><path
     inkscape:connector-curvature="0"
     d="m 287.99999,154.66667 h -5.33333 v -5.33334 h 5.33333 z"
     style="fill:#d9d9d9;fill-opacity:1;fill-rule:nonzero;stroke:none;stroke-width:1.33333325"
     id="path140" /><path
     id="path144"
     style="fill:#191919;fill-opacity:1;fill-rule:nonzero;stroke:none;stroke-width:1.33333325"
     d="m 186.66666,170.66667 c 0,1.47333 -1.19333,2.66667 -2.66667,2.66667 -1.47333,0 -2.66666,-1.19334 -2.66666,-2.66667 0,-1.47333 1.19333,-2.66667 2.66666,-2.66667 1.47334,0 2.66667,1.19334 2.66667,2.66667"
     inkscape:connector-curvature="0" /><path
     id="path148"
     style="fill:#191919;fill-opacity:1;fill-rule:nonzero;stroke:none;stroke-width:1.33333325"
     d="M 176,170.66667 C 176,173.612 173.612,176 170.66667,176 c -2.94534,0 -5.33334,-2.388 -5.33334,-5.33333 0,-2.94533 2.388,-5.33333 5.33334,-5.33333 2.94533,0 5.33333,2.388 5.33333,5.33333"
     inkscape:connector-curvature="0" /><path
     id="path152"
     style="fill:#d9d9d9;fill-opacity:1;fill-rule:nonzero;stroke:none;stroke-width:1.33333325"
     d="m 79.999998,298.66666 c 0,2.94533 -2.388,5.33333 -5.333333,5.33333 -2.945333,0 -5.333333,-2.388 -5.333333,-5.33333 0,-2.94533 2.388,-5.33333 5.333333,-5.33333 2.945333,0 5.333333,2.388 5.333333,5.33333"
     inkscape:connector-curvature="0" /><path
     id="path156"
     style="fill:#d9d9d9;fill-opacity:1;fill-rule:nonzero;stroke:none;stroke-width:1.33333325"
     d="M 62.077465,208 H 49.922799 c -0.96,0 -1.737334,0.77733 -1.737334,1.736 v 9.11733 h -9.115999 c -0.958667,0 -1.736,0.77734 -1.736,1.736 V 232.744 c 0,0.95867 0.777333,1.736 1.736,1.736 h 9.115999 v 9.11733 c 0,0.95867 0.777334,1.736 1.737334,1.736 h 12.154666 c 0.958667,0 1.736,-0.77733 1.736,-1.736 V 234.48 h 9.117333 c 0.958667,0 1.736,-0.77733 1.736,-1.736 v -12.15467 c 0,-0.95866 -0.777333,-1.736 -1.736,-1.736 H 63.813465 V 209.736 c 0,-0.95867 -0.777333,-1.736 -1.736,-1.736 m 0,1.736 v 10.85333 H 72.930798 V 232.744 H 62.077465 v 10.85333 H 49.922799 V 232.744 H 39.069466 V 220.58933 H 49.922799 V 209.736 h 12.154666"
     inkscape:connector-curvature="0" /><path
     id="path160"
     style="fill:#b3b3b3;fill-opacity:1;fill-rule:nonzero;stroke:none;stroke-width:1.33333325"
     d="m 47.407465,228 h -4.148 c -0.326667,0 -0.593333,-0.59867 -0.593333,-1.33333 0,-0.73467 0.266666,-1.33334 0.593333,-1.33334 h 4.148 c 0.326667,0 0.592,0.59867 0.592,1.33334 0,0.73466 -0.265333,1.33333 -0.592,1.33333"
     inkscape:connector-curvature="0" /><path
     id="path164"
     style="fill:#b3b3b3;fill-opacity:1;fill-rule:nonzero;stroke:none;stroke-width:1.33333325"
     d="m 68.740798,228 h -4.148 c -0.326667,0 -0.593333,-0.59867 -0.593333,-1.33333 0,-0.73467 0.266666,-1.33334 0.593333,-1.33334 h 4.148 c 0.326667,0 0.592,0.59867 0.592,1.33334 0,0.73466 -0.265333,1.33333 -0.592,1.33333"
     inkscape:connector-curvature="0" /><path
     id="path168"
     style="fill:#b3b3b3;fill-opacity:1;fill-rule:nonzero;stroke:none;stroke-width:1.33333325"
     d="m 54.666665,218.07413 v -4.148 c 0,-0.32667 0.598667,-0.59333 1.333333,-0.59333 0.734667,0 1.333334,0.26666 1.333334,0.59333 v 4.148 c 0,0.32667 -0.598667,0.592 -1.333334,0.592 -0.734666,0 -1.333333,-0.26533 -1.333333,-0.592"
     inkscape:connector-curvature="0" /><path
     id="path172"
     style="fill:#b3b3b3;fill-opacity:1;fill-rule:nonzero;stroke:none;stroke-width:1.33333325"
     d="m 54.666665,239.40747 v -4.148 c 0,-0.32667 0.598667,-0.59333 1.333333,-0.59333 0.734667,0 1.333334,0.26666 1.333334,0.59333 v 4.148 c 0,0.32667 -0.598667,0.592 -1.333334,0.592 -0.734666,0 -1.333333,-0.26533 -1.333333,-0.592"
     inkscape:connector-curvature="0" /><path
     id="path176"
     style="fill:#d9d9d9;fill-opacity:1;fill-rule:nonzero;stroke:none;stroke-width:1.33333325"
     d="m 271.99999,288 c 0,2.94533 -2.388,5.33333 -5.33333,5.33333 -2.94534,0 -5.33334,-2.388 -5.33334,-5.33333 0,-2.94533 2.388,-5.33333 5.33334,-5.33333 2.94533,0 5.33333,2.388 5.33333,5.33333"
     inkscape:connector-curvature="0" /><path
     id="path180"
     style="fill:#d9d9d9;fill-opacity:1;fill-rule:nonzero;stroke:none;stroke-width:1.33333325"
     d="m 271.99999,304 c 0,2.94533 -2.388,5.33333 -5.33333,5.33333 -2.94534,0 -5.33334,-2.388 -5.33334,-5.33333 0,-2.94533 2.388,-5.33333 5.33334,-5.33333 2.94533,0 5.33333,2.388 5.33333,5.33333"
     inkscape:connector-curvature="0" /><path
     id="path184"
     style="fill:#d9d9d9;fill-opacity:1;fill-rule:nonzero;stroke:none;stroke-width:1.33333325"
     d="m 282.66666,232 c -4.41067,0 -8,3.58933 -8,8 0,4.41067 3.58933,8 8,8 4.41067,0 8,-3.58933 8,-8 0,-4.41067 -3.58933,-8 -8,-8"
     inkscape:connector-curvature="0" /><path
     id="path188"
     style="fill:#e6e6e6;fill-opacity:1;fill-rule:nonzero;stroke:none;stroke-width:1.33333325"
     d="m 289.33333,240 c 0,3.68133 -2.98533,6.66667 -6.66667,6.66667 C 278.98533,246.66667 276,243.68133 276,240 c 0,-3.68133 2.98533,-6.66667 6.66666,-6.66667 3.68134,0 6.66667,2.98534 6.66667,6.66667"
     inkscape:connector-curvature="0" /><path
     id="path192"
     style="fill:#d9d9d9;fill-opacity:1;fill-rule:nonzero;stroke:none;stroke-width:1.33333325"
     d="m 282.66666,205.33333 c -4.41067,0 -8,3.58933 -8,8 0,4.41067 3.58933,8 8,8 4.41067,0 8,-3.58933 8,-8 0,-4.41067 -3.58933,-8 -8,-8"
     inkscape:connector-curvature="0" /><path
     id="path196"
     style="fill:#e6e6e6;fill-opacity:1;fill-rule:nonzero;stroke:none;stroke-width:1.33333325"
     d="M 289.33333,213.33333 C 289.33333,217.01466 286.348,220 282.66666,220 278.98533,220 276,217.01466 276,213.33333 c 0,-3.68133 2.98533,-6.66667 6.66666,-6.66667 3.68134,0 6.66667,2.98534 6.66667,6.66667"
     inkscape:connector-curvature="0" /><path
     id="path200"
     style="fill:#d9d9d9;fill-opacity:1;fill-rule:nonzero;stroke:none;stroke-width:1.33333325"
     d="m 269.33333,218.66667 c -4.41067,0 -8,3.58933 -8,8 0,4.41067 3.58933,8 8,8 4.41067,0 8,-3.58933 8,-8 0,-4.41067 -3.58933,-8 -8,-8"
     inkscape:connector-curvature="0" /><path
     id="path204"
     style="fill:#e6e6e6;fill-opacity:1;fill-rule:nonzero;stroke:none;stroke-width:1.33333325"
     d="m 275.99999,226.66667 c 0,3.68133 -2.98533,6.66667 -6.66667,6.66667 -3.68133,0 -6.66666,-2.98534 -6.66666,-6.66667 0,-3.68133 2.98533,-6.66667 6.66666,-6.66667 3.68134,0 6.66667,2.98534 6.66667,6.66667"
     inkscape:connector-curvature="0" /><path
     id="path208"
     style="fill:#d9d9d9;fill-opacity:1;fill-rule:nonzero;stroke:none;stroke-width:1.33333325"
     d="m 295.99999,218.66667 c -4.41067,0 -8,3.58933 -8,8 0,4.41067 3.58933,8 8,8 4.41067,0 8,-3.58933 8,-8 0,-4.41067 -3.58933,-8 -8,-8"
     inkscape:connector-curvature="0" /><path
     id="path212"
     style="fill:#e6e6e6;fill-opacity:1;fill-rule:nonzero;stroke:none;stroke-width:1.33333325"
     d="m 302.66666,226.66667 c 0,3.68133 -2.98533,6.66667 -6.66667,6.66667 -3.68133,0 -6.66666,-2.98534 -6.66666,-6.66667 0,-3.68133 2.98533,-6.66667 6.66666,-6.66667 3.68134,0 6.66667,2.98534 6.66667,6.66667"
     inkscape:connector-curvature="0" /><path
     id="path216"
     style="fill:#d9d9d9;fill-opacity:1;fill-rule:nonzero;stroke:none;stroke-width:1.33333325"
     d="m 189.87453,82.136536 h -34.804 v -7.952 c 0,-7.113333 5.8,-12.899999 12.92933,-12.899999 7.12934,0 12.93067,5.786666 12.93067,12.899999 v 2.297333 h 7.96933 v -2.297333 c 0,-11.516 -9.35733,-20.850666 -20.9,-20.850666 -11.54266,0 -20.9,9.334666 -20.9,20.850666 v 7.952 h -0.97466 c -1.17334,0 -2.12534,0.949333 -2.12534,2.12 V 109.8792 c 0,1.172 0.952,2.12134 2.12534,2.12134 h 43.74933 c 1.17333,0 2.12533,-0.94934 2.12533,-2.12134 V 84.256536 c 0,-1.170667 -0.952,-2.12 -2.12533,-2.12"
     inkscape:connector-curvature="0" /><path
     id="path220"
     style="fill:#3b96cc;fill-opacity:1;fill-rule:nonzero;stroke:none;stroke-width:1.33333325"
     d="m 55.999999,176 v 0 c -1.466667,0 -2.666667,-1.2 -2.666667,-2.66667 V 168 c 0,-1.46667 1.2,-2.66667 2.666667,-2.66667 v 0 c 1.466667,0 2.666667,1.2 2.666667,2.66667 v 5.33333 c 0,1.46667 -1.2,2.66667 -2.666667,2.66667"
     inkscape:connector-curvature="0" /><path
     id="path224"
     style="fill:#b3b3b3;fill-opacity:1;fill-rule:nonzero;stroke:none;stroke-width:1.33333325"
     d="m 45.333332,176 v 0 c -1.466667,0 -2.666667,-1.2 -2.666667,-2.66667 V 168 c 0,-1.46667 1.2,-2.66667 2.666667,-2.66667 v 0 c 1.466667,0 2.666667,1.2 2.666667,2.66667 v 5.33333 c 0,1.46667 -1.2,2.66667 -2.666667,2.66667"
     inkscape:connector-curvature="0" /><path
     id="path228"
     style="fill:#b3b3b3;fill-opacity:1;fill-rule:nonzero;stroke:none;stroke-width:1.33333325"
     d="m 34.666666,176 v 0 c -1.466667,0 -2.666667,-1.2 -2.666667,-2.66667 V 168 c 0,-1.46667 1.2,-2.66667 2.666667,-2.66667 v 0 c 1.466667,0 2.666667,1.2 2.666667,2.66667 v 5.33333 c 0,1.46667 -1.2,2.66667 -2.666667,2.66667"
     inkscape:connector-curvature="0" /></svg>