<?xml version="1.0" encoding="UTF-8" standalone="no"?>
<svg
   xmlns:dc="http://purl.org/dc/elements/1.1/"
   xmlns:cc="http://creativecommons.org/ns#"
   xmlns:rdf="http://www.w3.org/1999/02/22-rdf-syntax-ns#"
   xmlns:svg="http://www.w3.org/2000/svg"
   xmlns="http://www.w3.org/2000/svg"
   xmlns:sodipodi="http://sodipodi.sourceforge.net/DTD/sodipodi-0.dtd"
   xmlns:inkscape="http://www.inkscape.org/namespaces/inkscape"
   viewBox="0 0 341.33334 341.33334"
   height="341.33334"
   width="341.33334"
   xml:space="preserve"
   id="svg2"
   version="1.1"
   sodipodi:docname="off.svg"
   inkscape:version="0.92.2 (5c3e80d, 2017-08-06)"><sodipodi:namedview
     pagecolor="#ffffff"
     bordercolor="#666666"
     borderopacity="1"
     objecttolerance="10"
     gridtolerance="10"
     guidetolerance="10"
     inkscape:pageopacity="0"
     inkscape:pageshadow="2"
     inkscape:window-width="1024"
     inkscape:window-height="705"
     id="namedview34"
     showgrid="false"
     inkscape:zoom="1.9555921"
     inkscape:cx="144.73864"
     inkscape:cy="138.93418"
     inkscape:window-x="-8"
     inkscape:window-y="-8"
     inkscape:window-maximized="1"
     inkscape:current-layer="svg2" /><metadata
     id="metadata8"><rdf:RDF><cc:Work
         rdf:about=""><dc:format>image/svg+xml</dc:format><dc:type
           rdf:resource="http://purl.org/dc/dcmitype/StillImage" /></cc:Work></rdf:RDF></metadata><defs
     id="defs6"><clipPath
       id="clipPath18"
       clipPathUnits="userSpaceOnUse"><path
         id="path16"
         d="M 0,256 H 256 V 0 H 0 Z" /></clipPath><clipPath
       id="clipPath26"
       clipPathUnits="userSpaceOnUse"><path
         id="path24"
         d="M 40,172 H 216 V 84 H 40 Z" /></clipPath></defs><g
     id="g36"
     transform="matrix(1.3333333,0,0,-1.3333333,229.33333,122.66667)"
     style="fill:none;stroke:#ffffff;stroke-width:11.25000028;stroke-miterlimit:4;stroke-dasharray:none"><path
       inkscape:connector-curvature="0"
       d="m 0,0 h -88 c -19.85,0 -36,-16.148 -36,-36 0,-19.851 16.15,-36 36,-36 H 0 c 19.849,0 36,16.149 36,36 C 36,-16.148 19.849,0 0,0"
       style="fill:none;fill-opacity:1;fill-rule:nonzero;stroke:#ffffff;stroke-width:11.25000028;stroke-miterlimit:4;stroke-dasharray:none"
       id="path38" /></g><g
     id="g40"
     transform="matrix(1.3333333,0,0,-1.3333333,229.33346,208.00013)"
     style="fill:#b3b3b3"><path
       inkscape:connector-curvature="0"
       d="m 0,0 h -88 c -15.44,0 -28,12.563 -28,28 0,15.438 12.56,28 28,28 H 0 C 15.439,56 28,43.438 28,28 28,12.563 15.439,0 0,0"
       style="fill:#b3b3b3;fill-opacity:1;fill-rule:nonzero;stroke:none"
       id="path42" /></g><g
     id="g44"
     transform="matrix(1.3333333,0,0,-1.3333333,178.63333,186.72547)"
     style="fill:#ffffff"><path
       inkscape:connector-curvature="0"
       d="m 0,0 c -4.412,0 -8,3.59 -8,8 v 7.816 c 0,4.41 3.588,8 8,8 4.412,0 8,-3.59 8,-8 V 8 C 8,3.59 4.412,0 0,0 M 11.981,16 C 11.88,22.531 6.554,27.816 0,27.816 -6.554,27.816 -11.88,22.531 -11.982,16 H -12 V 8 C -12,1.383 -6.617,-4 0,-4 6.617,-4 12,1.383 12,8 v 8 z"
       style="fill:#ffffff;fill-opacity:1;fill-rule:nonzero;stroke:none"
       id="path46" /></g><g
     id="g48"
     transform="matrix(1.3333333,0,0,-1.3333333,218.63333,149.51493)"
     style="fill:#ffffff"><path
       inkscape:connector-curvature="0"
       d="m 0,0 h -12 c -1.105,0 -2,-0.894 -2,-2 v -28 c 0,-1.105 0.895,-2 2,-2 1.105,0 2,0.895 2,2 v 14.184 h 6 c 1.106,0 2,0.895 2,2 0,1.106 -0.894,2 -2,2 h -6 V -4 H 0 c 1.105,0 2,0.895 2,2 0,1.106 -0.895,2 -2,2"
       style="fill:#ffffff;fill-opacity:1;fill-rule:nonzero;stroke:none"
       id="path50" /></g><g
     id="g52"
     transform="matrix(1.3333333,0,0,-1.3333333,245.35999,149.5148)"
     style="fill:#ffffff"><path
       inkscape:connector-curvature="0"
       d="m 0,0 h -12 c -1.105,0 -2,-0.895 -2,-2 v -28 c 0,-1.106 0.895,-2 2,-2 1.105,0 2,0.894 2,2 v 14.184 h 6 c 1.105,0 2,0.895 2,2 0,1.105 -0.895,2 -2,2 h -6 V -4 H 0 c 1.105,0 2,0.895 2,2 0,1.105 -0.895,2 -2,2"
       style="fill:#ffffff;fill-opacity:1;fill-rule:nonzero;stroke:none"
       id="path54" /></g><g
     id="g56"
     transform="matrix(1.3333333,0,0,-1.3333333,93.306798,170.84827)"
     style="fill:#ffffff"><path
       inkscape:connector-curvature="0"
       d="M 0,0 C 0,11.046 8.954,20 20,20 31.046,20 40,11.046 40,0 40,-11.046 31.046,-20 20,-20 8.954,-20 0,-11.046 0,0"
       style="fill:#ffffff;fill-opacity:1;fill-rule:nonzero;stroke:none"
       id="path58" /></g></svg>