<?xml version="1.0" encoding="UTF-8" standalone="no"?>
<svg
   xmlns:dc="http://purl.org/dc/elements/1.1/"
   xmlns:cc="http://creativecommons.org/ns#"
   xmlns:rdf="http://www.w3.org/1999/02/22-rdf-syntax-ns#"
   xmlns:svg="http://www.w3.org/2000/svg"
   xmlns="http://www.w3.org/2000/svg"
   xmlns:sodipodi="http://sodipodi.sourceforge.net/DTD/sodipodi-0.dtd"
   xmlns:inkscape="http://www.inkscape.org/namespaces/inkscape"
   viewBox="0 0 341.33334 341.33334"
   height="341.33334"
   width="341.33334"
   xml:space="preserve"
   id="svg2"
   version="1.1"
   sodipodi:docname="on.svg"
   inkscape:version="0.92.2 (5c3e80d, 2017-08-06)"><sodipodi:namedview
     pagecolor="#ffffff"
     bordercolor="#666666"
     borderopacity="1"
     objecttolerance="10"
     gridtolerance="10"
     guidetolerance="10"
     inkscape:pageopacity="0"
     inkscape:pageshadow="2"
     inkscape:window-width="1024"
     inkscape:window-height="705"
     id="namedview32"
     showgrid="false"
     inkscape:zoom="1.9555921"
     inkscape:cx="153.7479"
     inkscape:cy="162.22029"
     inkscape:window-x="-8"
     inkscape:window-y="-8"
     inkscape:window-maximized="1"
     inkscape:current-layer="svg2" /><metadata
     id="metadata8"><rdf:RDF><cc:Work
         rdf:about=""><dc:format>image/svg+xml</dc:format><dc:type
           rdf:resource="http://purl.org/dc/dcmitype/StillImage" /></cc:Work></rdf:RDF></metadata><defs
     id="defs6"><clipPath
       id="clipPath18"
       clipPathUnits="userSpaceOnUse"><path
         id="path16"
         d="M 0,256 H 256 V 0 H 0 Z" /></clipPath><clipPath
       id="clipPath26"
       clipPathUnits="userSpaceOnUse"><path
         id="path24"
         d="M 40,172 H 216 V 84 H 40 Z" /></clipPath></defs><g
     id="g22"
     transform="matrix(1.3333333,0,0,-1.3333333,0,341.33333)" /><g
     id="g34"
     transform="matrix(1.3333333,0,0,-1.3333333,0,341.33333)"><g
       style="opacity:0.5"
       id="g32"
       clip-path="url(#clipPath26)"><g
         id="g30"
         transform="translate(172,172)"><path
           id="path28"
           style="fill:#ffffff;fill-opacity:1;fill-rule:nonzero;stroke:none"
           d="m 0,0 h -88 c -24.262,0 -44,-19.738 -44,-44 0,-24.262 19.738,-44 44,-44 H 0 c 24.262,0 44,19.738 44,44 C 44,-19.738 24.262,0 0,0"
           inkscape:connector-curvature="0" /></g></g></g><path
     id="path42"
     style="fill:#b3b3b3;fill-opacity:1;fill-rule:nonzero;stroke:none;stroke-width:1.33333325"
     d="M 229.33346,208.00013 H 112.00013 c -20.586667,0 -37.333333,-16.75067 -37.333333,-37.33333 0,-20.584 16.746666,-37.33333 37.333333,-37.33333 h 117.33333 c 20.58533,0 37.33333,16.74933 37.33333,37.33333 0,20.58266 -16.748,37.33333 -37.33333,37.33333"
     inkscape:connector-curvature="0" /><path
     id="path46"
     style="fill:#ffffff;fill-opacity:1;fill-rule:nonzero;stroke:none;stroke-width:1.33333325"
     d="m 194.66666,170.84827 c 0,-14.728 11.93867,-26.66667 26.66667,-26.66667 14.728,0 26.66666,11.93867 26.66666,26.66667 0,14.728 -11.93866,26.66667 -26.66666,26.66667 -14.728,0 -26.66667,-11.93867 -26.66667,-26.66667"
     inkscape:connector-curvature="0" /><path
     id="path58"
     style="fill:#ffffff;fill-opacity:1;fill-rule:nonzero;stroke:none;stroke-width:1.33333325"
     d="m 165.33333,192.1816 c -0.844,0 -1.65867,-0.40133 -2.16933,-1.11467 l -21.83067,-30.56266 v 29.01066 c 0,1.47334 -1.19333,2.66667 -2.66667,2.66667 -1.47333,0 -2.66666,-1.19333 -2.66666,-2.66667 V 152.1816 c 0,-1.16133 0.75066,-2.188 1.852,-2.54133 1.104,-0.33867 2.312,0.0467 2.984,0.98933 l 21.83066,30.56267 V 152.1816 c 0,-1.47333 1.19334,-2.66667 2.66667,-2.66667 1.47333,0 2.66667,1.19334 2.66667,2.66667 v 37.33333 c 0,1.16134 -0.75067,2.188 -1.852,2.54134 -0.268,0.084 -0.544,0.12533 -0.81467,0.12533"
     inkscape:connector-curvature="0" /><path
     id="path62"
     style="fill:#ffffff;fill-opacity:1;fill-rule:nonzero;stroke:none;stroke-width:1.33333325"
     d="m 109.33333,186.84813 c -5.88267,0 -10.666666,-4.78667 -10.666666,-10.66667 V 165.5148 c 0,-5.88 4.783996,-10.66667 10.666666,-10.66667 5.88267,0 10.66667,4.78667 10.66667,10.66667 v 10.66666 c 0,5.88 -4.784,10.66667 -10.66667,10.66667 m 0,-37.33333 c -8.82267,0 -16,7.17733 -16,16 v 10.66666 c 0,8.82267 7.17733,16 16,16 8.82267,0 16,-7.17733 16,-16 V 165.5148 c 0,-8.82267 -7.17733,-16 -16,-16"
     inkscape:connector-curvature="0" /><g
     id="g36"
     transform="matrix(1.3333333,0,0,-1.3333333,229.33334,122.66667)"
     style="fill:none;stroke:#ffffff;stroke-width:11.25;stroke-miterlimit:4;stroke-dasharray:none"><path
       inkscape:connector-curvature="0"
       d="m 0,0 h -88 c -19.85,0 -36,-16.148 -36,-36 0,-19.851 16.15,-36 36,-36 H 0 c 19.849,0 36,16.149 36,36 C 36,-16.148 19.849,0 0,0"
       style="fill:none;fill-opacity:1;fill-rule:nonzero;stroke:#ffffff;stroke-width:11.25;stroke-miterlimit:4;stroke-dasharray:none"
       id="path38-1" /></g></svg>