<?xml version="1.0" encoding="UTF-8" standalone="no"?>
<svg
   xmlns:dc="http://purl.org/dc/elements/1.1/"
   xmlns:cc="http://creativecommons.org/ns#"
   xmlns:rdf="http://www.w3.org/1999/02/22-rdf-syntax-ns#"
   xmlns:svg="http://www.w3.org/2000/svg"
   xmlns="http://www.w3.org/2000/svg"
   xmlns:sodipodi="http://sodipodi.sourceforge.net/DTD/sodipodi-0.dtd"
   xmlns:inkscape="http://www.inkscape.org/namespaces/inkscape"
   viewBox="0 0 341.33334 341.33334"
   height="341.33334"
   width="341.33334"
   xml:space="preserve"
   id="svg2"
   version="1.1"
   sodipodi:docname="RCA - Studio II-content.svg"
   inkscape:version="0.92.2 (5c3e80d, 2017-08-06)"><sodipodi:namedview
     pagecolor="#ffffff"
     bordercolor="#666666"
     borderopacity="1"
     objecttolerance="10"
     gridtolerance="10"
     guidetolerance="10"
     inkscape:pageopacity="0"
     inkscape:pageshadow="2"
     inkscape:window-width="1024"
     inkscape:window-height="705"
     id="namedview76"
     showgrid="false"
     inkscape:pagecheckerboard="true"
     inkscape:zoom="0.69140623"
     inkscape:cx="170.66667"
     inkscape:cy="170.66667"
     inkscape:window-x="-8"
     inkscape:window-y="-8"
     inkscape:window-maximized="1"
     inkscape:current-layer="svg2" /><metadata
     id="metadata8"><rdf:RDF><cc:Work
         rdf:about=""><dc:format>image/svg+xml</dc:format><dc:type
           rdf:resource="http://purl.org/dc/dcmitype/StillImage" /><dc:title></dc:title></cc:Work></rdf:RDF></metadata><defs
     id="defs6"><clipPath
       id="clipPath18"
       clipPathUnits="userSpaceOnUse"><path
         id="path16"
         d="M 0,256 H 256 V 0 H 0 Z" /></clipPath><clipPath
       id="clipPath26"
       clipPathUnits="userSpaceOnUse"><path
         id="path24"
         d="M 3.4726,224 H 252.527 V 32 H 3.4726 Z" /></clipPath><clipPath
       id="clipPath84"
       clipPathUnits="userSpaceOnUse"><path
         id="path82"
         d="M 0,256 H 256 V 0 H 0 Z" /></clipPath></defs><path
     id="path38"
     style="fill:#bf9a57;fill-opacity:1;fill-rule:nonzero;stroke:none;stroke-width:1.33333325"
     d="M 322.66666,85.333336 H 18.666668 l -0.222667,2.666667 H 322.88933 Z"
     inkscape:connector-curvature="0" /><path
     id="path42"
     style="fill:#bf9a57;fill-opacity:1;fill-rule:nonzero;stroke:none;stroke-width:1.33333325"
     d="M 322.11066,78.66667 H 19.221334 l -0.221333,2.666667 H 322.33333 Z"
     inkscape:connector-curvature="0" /><path
     id="path46"
     style="fill:#bf9a57;fill-opacity:1;fill-rule:nonzero;stroke:none;stroke-width:1.33333325"
     d="M 323.22266,92.000003 H 18.112001 L 17.889334,94.66667 H 323.44399 Z"
     inkscape:connector-curvature="0" /><path
     id="path50"
     style="fill:#bf9a57;fill-opacity:1;fill-rule:nonzero;stroke:none;stroke-width:1.33333325"
     d="M 321.55599,72.000003 H 19.778664 L 19.555998,74.66667 H 321.77732 Z"
     inkscape:connector-curvature="0" /><path
     id="path54"
     style="fill:#bf9a57;fill-opacity:1;fill-rule:nonzero;stroke:none;stroke-width:1.33333325"
     d="M 320.99999,65.333337 H 20.333331 l -0.222667,2.666667 H 321.22266 Z"
     inkscape:connector-curvature="0" /><path
     id="path58"
     style="fill:#bf9a57;fill-opacity:1;fill-rule:nonzero;stroke:none;stroke-width:1.33333325"
     d="M 323.77733,98.666669 H 17.554671 l -0.221333,2.666671 H 324 Z"
     inkscape:connector-curvature="0" /><path
     inkscape:connector-curvature="0"
     d="m 16,121.33334 h 309.33333 v -2.66667 H 16 Z"
     style="fill:#bf9a57;fill-opacity:1;fill-rule:nonzero;stroke:none;stroke-width:1.33333325"
     id="path60" /><path
     id="path64"
     style="fill:#bf9a57;fill-opacity:1;fill-rule:nonzero;stroke:none;stroke-width:1.33333325"
     d="M 324.88933,112 H 16.445338 l -0.222667,2.66667 H 325.11066 Z"
     inkscape:connector-curvature="0" /><path
     id="path68"
     style="fill:#bf9a57;fill-opacity:1;fill-rule:nonzero;stroke:none;stroke-width:1.33333325"
     d="M 324.33333,105.33334 H 17.000004 l -0.222666,2.66667 H 324.556 Z"
     inkscape:connector-curvature="0" /><path
     inkscape:connector-curvature="0"
     d="M 287.99999,288 H 53.333332 V 250.66667 H 287.99999 Z"
     style="fill:#b3b3b3;fill-opacity:1;fill-rule:nonzero;stroke:none;stroke-width:1.33333325"
     id="path70" /><path
     id="path74"
     style="fill:#d9af63;fill-opacity:1;fill-rule:nonzero;stroke:none;stroke-width:1.33333325"
     d="M 314.66666,53.333337 H 26.666667 L 21.333334,122.66667 V 256 H 319.99999 V 122.66667 Z"
     inkscape:connector-curvature="0" /><path
     inkscape:connector-curvature="0"
     d="M 319.99999,256 H 21.333333 V 186.66667 H 319.99999 Z"
     style="fill:#bf9a57;fill-opacity:1;fill-rule:nonzero;stroke:none;stroke-width:1.33333325"
     id="path76" /><g
     clip-path="url(#clipPath84)"
     id="g80"
     transform="matrix(1.3333333,0,0,-1.3333333,0,341.33333)"><g
       transform="translate(224,120)"
       id="g86"><path
         id="path88"
         style="fill:#e77f22;fill-opacity:1;fill-rule:nonzero;stroke:none"
         d="m 0,0 h -192 c -2.209,0 -4,1.791 -4,4 v 80 c 0,2.209 1.791,4 4,4 H 0 c 2.209,0 4,-1.791 4,-4 V 4 C 4,1.791 2.209,0 0,0"
         inkscape:connector-curvature="0" /></g><path
       id="path90"
       style="fill:#a3834a;fill-opacity:1;fill-rule:nonzero;stroke:none"
       d="M 32,68 H 20 v 20 h 12 z"
       inkscape:connector-curvature="0" /><path
       id="path92"
       style="fill:#a3834a;fill-opacity:1;fill-rule:nonzero;stroke:none"
       d="m 236,68 h -12 v 20 h 12 z"
       inkscape:connector-curvature="0" /><g
       transform="translate(38,84)"
       id="g94"><path
         id="path96"
         style="fill:#a3834a;fill-opacity:1;fill-rule:nonzero;stroke:none"
         d="m 0,0 c -3.313,0 -6,-2.687 -6,-6 0,-3.313 2.687,-6 6,-6 3.313,0 6,2.687 6,6 0,3.313 -2.687,6 -6,6"
         inkscape:connector-curvature="0" /></g><g
       transform="translate(38,82)"
       id="g98"><path
         id="path100"
         style="fill:#262626;fill-opacity:1;fill-rule:nonzero;stroke:none"
         d="m 0,0 c 2.206,0 4,-1.794 4,-4 0,-2.206 -1.794,-4 -4,-4 -2.206,0 -4,1.794 -4,4 0,2.206 1.794,4 4,4"
         inkscape:connector-curvature="0" /></g><g
       transform="translate(218,84)"
       id="g102"><path
         id="path104"
         style="fill:#a3834a;fill-opacity:1;fill-rule:nonzero;stroke:none"
         d="m 0,0 c -3.313,0 -6,-2.687 -6,-6 0,-3.313 2.687,-6 6,-6 3.313,0 6,2.687 6,6 0,3.313 -2.687,6 -6,6"
         inkscape:connector-curvature="0" /></g><g
       transform="translate(218,82)"
       id="g106"><path
         id="path108"
         style="fill:#262626;fill-opacity:1;fill-rule:nonzero;stroke:none"
         d="m 0,0 c 2.206,0 4,-1.794 4,-4 0,-2.206 -1.794,-4 -4,-4 -2.206,0 -4,1.794 -4,4 0,2.206 1.794,4 4,4"
         inkscape:connector-curvature="0" /></g><path
       id="path110"
       style="fill:#999999;fill-opacity:1;fill-rule:nonzero;stroke:none"
       d="m 48,40 h -4 v 24 h 4 z"
       inkscape:connector-curvature="0" /><path
       id="path112"
       style="fill:#999999;fill-opacity:1;fill-rule:nonzero;stroke:none"
       d="m 56,40 h -4 v 24 h 4 z"
       inkscape:connector-curvature="0" /><path
       id="path114"
       style="fill:#999999;fill-opacity:1;fill-rule:nonzero;stroke:none"
       d="m 64,40 h -4 v 24 h 4 z"
       inkscape:connector-curvature="0" /><path
       id="path116"
       style="fill:#999999;fill-opacity:1;fill-rule:nonzero;stroke:none"
       d="m 72,40 h -4 v 24 h 4 z"
       inkscape:connector-curvature="0" /><path
       id="path118"
       style="fill:#999999;fill-opacity:1;fill-rule:nonzero;stroke:none"
       d="m 80,40 h -4 v 24 h 4 z"
       inkscape:connector-curvature="0" /><path
       id="path120"
       style="fill:#999999;fill-opacity:1;fill-rule:nonzero;stroke:none"
       d="m 88,40 h -4 v 24 h 4 z"
       inkscape:connector-curvature="0" /><path
       id="path122"
       style="fill:#999999;fill-opacity:1;fill-rule:nonzero;stroke:none"
       d="m 96,40 h -4 v 24 h 4 z"
       inkscape:connector-curvature="0" /><path
       id="path124"
       style="fill:#999999;fill-opacity:1;fill-rule:nonzero;stroke:none"
       d="m 104,40 h -4 v 24 h 4 z"
       inkscape:connector-curvature="0" /><path
       id="path126"
       style="fill:#999999;fill-opacity:1;fill-rule:nonzero;stroke:none"
       d="m 112,40 h -4 v 24 h 4 z"
       inkscape:connector-curvature="0" /><path
       id="path128"
       style="fill:#999999;fill-opacity:1;fill-rule:nonzero;stroke:none"
       d="m 120,40 h -4 v 24 h 4 z"
       inkscape:connector-curvature="0" /><path
       id="path130"
       style="fill:#999999;fill-opacity:1;fill-rule:nonzero;stroke:none"
       d="m 128,40 h -4 v 24 h 4 z"
       inkscape:connector-curvature="0" /><path
       id="path132"
       style="fill:#999999;fill-opacity:1;fill-rule:nonzero;stroke:none"
       d="m 136,40 h -4 v 24 h 4 z"
       inkscape:connector-curvature="0" /><path
       id="path134"
       style="fill:#999999;fill-opacity:1;fill-rule:nonzero;stroke:none"
       d="m 144,40 h -4 v 24 h 4 z"
       inkscape:connector-curvature="0" /><path
       id="path136"
       style="fill:#999999;fill-opacity:1;fill-rule:nonzero;stroke:none"
       d="m 152,40 h -4 v 24 h 4 z"
       inkscape:connector-curvature="0" /><path
       id="path138"
       style="fill:#999999;fill-opacity:1;fill-rule:nonzero;stroke:none"
       d="m 160,40 h -4 v 24 h 4 z"
       inkscape:connector-curvature="0" /><path
       id="path140"
       style="fill:#999999;fill-opacity:1;fill-rule:nonzero;stroke:none"
       d="m 168,40 h -4 v 24 h 4 z"
       inkscape:connector-curvature="0" /><path
       id="path142"
       style="fill:#999999;fill-opacity:1;fill-rule:nonzero;stroke:none"
       d="m 176,40 h -4 v 24 h 4 z"
       inkscape:connector-curvature="0" /><path
       id="path144"
       style="fill:#999999;fill-opacity:1;fill-rule:nonzero;stroke:none"
       d="m 184,40 h -4 v 24 h 4 z"
       inkscape:connector-curvature="0" /><path
       id="path146"
       style="fill:#999999;fill-opacity:1;fill-rule:nonzero;stroke:none"
       d="m 192,40 h -4 v 24 h 4 z"
       inkscape:connector-curvature="0" /><path
       id="path148"
       style="fill:#999999;fill-opacity:1;fill-rule:nonzero;stroke:none"
       d="m 200,40 h -4 v 24 h 4 z"
       inkscape:connector-curvature="0" /><path
       id="path150"
       style="fill:#999999;fill-opacity:1;fill-rule:nonzero;stroke:none"
       d="m 208,40 h -4 v 24 h 4 z"
       inkscape:connector-curvature="0" /></g></svg>