<?xml version="1.0" encoding="UTF-8" standalone="no"?>
<svg
   xmlns:dc="http://purl.org/dc/elements/1.1/"
   xmlns:cc="http://creativecommons.org/ns#"
   xmlns:rdf="http://www.w3.org/1999/02/22-rdf-syntax-ns#"
   xmlns:svg="http://www.w3.org/2000/svg"
   xmlns="http://www.w3.org/2000/svg"
   xmlns:sodipodi="http://sodipodi.sourceforge.net/DTD/sodipodi-0.dtd"
   xmlns:inkscape="http://www.inkscape.org/namespaces/inkscape"
   viewBox="0 0 341.33334 341.33334"
   height="256"
   width="256"
   xml:space="preserve"
   id="svg2"
   version="1.1"
   sodipodi:docname="RCA - Studio II-content.svg"
   inkscape:version="0.92.2 (5c3e80d, 2017-08-06)"
   inkscape:export-filename="D:\Documents\Github\Retrosystem-retroarch-theme\png\RCA - Studio II-content.png"
   inkscape:export-xdpi="72"
   inkscape:export-ydpi="72"><sodipodi:namedview
     pagecolor="#ffffff"
     bordercolor="#666666"
     borderopacity="1"
     objecttolerance="10"
     gridtolerance="10"
     guidetolerance="10"
     inkscape:pageopacity="0"
     inkscape:pageshadow="2"
     inkscape:window-width="1024"
     inkscape:window-height="705"
     id="namedview76"
     showgrid="false"
     inkscape:pagecheckerboard="true"
     inkscape:zoom="1.9555921"
     inkscape:cx="106.09102"
     inkscape:cy="110.37834"
     inkscape:window-x="-8"
     inkscape:window-y="-8"
     inkscape:window-maximized="1"
     inkscape:current-layer="svg2" /><metadata
     id="metadata8"><rdf:RDF><cc:Work
         rdf:about=""><dc:format>image/svg+xml</dc:format><dc:type
           rdf:resource="http://purl.org/dc/dcmitype/StillImage" /><dc:title /></cc:Work></rdf:RDF></metadata><defs
     id="defs6"><clipPath
       id="clipPath18"
       clipPathUnits="userSpaceOnUse"><path
         id="path16"
         d="M 0,256 H 256 V 0 H 0 Z" /></clipPath><clipPath
       id="clipPath26"
       clipPathUnits="userSpaceOnUse"><path
         id="path24"
         d="M 3.4726,224 H 252.527 V 32 H 3.4726 Z" /></clipPath><clipPath
       id="clipPath84"
       clipPathUnits="userSpaceOnUse"><path
         id="path82"
         d="M 0,256 H 256 V 0 H 0 Z" /></clipPath></defs><path
     id="path38"
     style="fill:#bf9a57;fill-opacity:1;fill-rule:nonzero;stroke:none;stroke-width:1.33333325"
     d="M 322.66666,85.333336 H 18.666668 l -0.222667,2.666667 H 322.88933 Z"
     inkscape:connector-curvature="0" /><path
     id="path42"
     style="fill:#bf9a57;fill-opacity:1;fill-rule:nonzero;stroke:none;stroke-width:1.33333325"
     d="M 322.11066,78.66667 H 19.221334 l -0.221333,2.666667 H 322.33333 Z"
     inkscape:connector-curvature="0" /><path
     id="path46"
     style="fill:#bf9a57;fill-opacity:1;fill-rule:nonzero;stroke:none;stroke-width:1.33333325"
     d="M 323.22266,92.000003 H 18.112001 L 17.889334,94.66667 H 323.44399 Z"
     inkscape:connector-curvature="0" /><path
     id="path50"
     style="fill:#bf9a57;fill-opacity:1;fill-rule:nonzero;stroke:none;stroke-width:1.33333325"
     d="M 321.55599,72.000003 H 19.778664 L 19.555998,74.66667 H 321.77732 Z"
     inkscape:connector-curvature="0" /><path
     id="path54"
     style="fill:#bf9a57;fill-opacity:1;fill-rule:nonzero;stroke:none;stroke-width:1.33333325"
     d="M 320.99999,65.333337 H 20.333331 l -0.222667,2.666667 H 321.22266 Z"
     inkscape:connector-curvature="0" /><path
     id="path58"
     style="fill:#bf9a57;fill-opacity:1;fill-rule:nonzero;stroke:none;stroke-width:1.33333325"
     d="M 323.77733,98.666669 H 17.554671 l -0.221333,2.666671 H 324 Z"
     inkscape:connector-curvature="0" /><path
     inkscape:connector-curvature="0"
     d="m 16,121.33334 h 309.33333 v -2.66667 H 16 Z"
     style="fill:#bf9a57;fill-opacity:1;fill-rule:nonzero;stroke:none;stroke-width:1.33333325"
     id="path60" /><path
     id="path64"
     style="fill:#bf9a57;fill-opacity:1;fill-rule:nonzero;stroke:none;stroke-width:1.33333325"
     d="M 324.88933,112 H 16.445338 l -0.222667,2.66667 H 325.11066 Z"
     inkscape:connector-curvature="0" /><path
     id="path68"
     style="fill:#bf9a57;fill-opacity:1;fill-rule:nonzero;stroke:none;stroke-width:1.33333325"
     d="M 324.33333,105.33334 H 17.000004 l -0.222666,2.66667 H 324.556 Z"
     inkscape:connector-curvature="0" /><path
     inkscape:connector-curvature="0"
     d="M 287.99999,288 H 53.333332 V 250.66667 H 287.99999 Z"
     style="fill:#999999;fill-opacity:1;fill-rule:nonzero;stroke:#999999;stroke-width:1.33333325;stroke-opacity:1"
     id="path70" /><path
     id="path74"
     style="fill:#d9af63;fill-opacity:1;fill-rule:nonzero;stroke:none;stroke-width:1.33333325"
     d="M 314.66666,53.333337 H 26.666667 L 21.333334,122.66667 V 256 H 319.99999 V 122.66667 Z"
     inkscape:connector-curvature="0" /><path
     inkscape:connector-curvature="0"
     d="M 319.99999,256 H 21.333333 V 186.66667 H 319.99999 Z"
     style="fill:#bf9a57;fill-opacity:1;fill-rule:nonzero;stroke:none;stroke-width:1.33333325"
     id="path76" /><path
     id="path88"
     style="fill:#e77f22;fill-opacity:1;fill-rule:nonzero;stroke:none;stroke-width:1.33333325"
     d="M 298.66666,181.33333 H 42.666666 c -2.945333,0 -5.333333,-2.388 -5.333333,-5.33333 V 69.333333 C 37.333333,66.388 39.721333,64 42.666666,64 H 298.66666 c 2.94533,0 5.33333,2.388 5.33333,5.333333 V 176 c 0,2.94533 -2.388,5.33333 -5.33333,5.33333"
     inkscape:connector-curvature="0" /><path
     inkscape:connector-curvature="0"
     d="m 42.666666,250.66667 h -16 V 224 h 16 z"
     style="fill:#a3834a;fill-opacity:1;fill-rule:nonzero;stroke:none;stroke-width:1.33333325"
     id="path90" /><path
     inkscape:connector-curvature="0"
     d="m 314.66666,250.66667 h -16 V 224 h 16 z"
     style="fill:#a3834a;fill-opacity:1;fill-rule:nonzero;stroke:none;stroke-width:1.33333325"
     id="path92" /><path
     id="path96"
     style="fill:#a3834a;fill-opacity:1;fill-rule:nonzero;stroke:none;stroke-width:1.33333325"
     d="m 50.666665,229.33333 c -4.417333,0 -8,3.58267 -8,8 0,4.41733 3.582667,8 8,8 4.417333,0 8,-3.58267 8,-8 0,-4.41733 -3.582667,-8 -8,-8"
     inkscape:connector-curvature="0" /><path
     id="path100"
     style="fill:#262626;fill-opacity:1;fill-rule:nonzero;stroke:none;stroke-width:1.33333325"
     d="m 50.666665,232 c 2.941333,0 5.333333,2.392 5.333333,5.33333 0,2.94134 -2.392,5.33334 -5.333333,5.33334 -2.941333,0 -5.333333,-2.392 -5.333333,-5.33334 0,-2.94133 2.392,-5.33333 5.333333,-5.33333"
     inkscape:connector-curvature="0" /><path
     id="path104"
     style="fill:#a3834a;fill-opacity:1;fill-rule:nonzero;stroke:none;stroke-width:1.33333325"
     d="m 290.66666,229.33333 c -4.41733,0 -8,3.58267 -8,8 0,4.41733 3.58267,8 8,8 4.41733,0 8,-3.58267 8,-8 0,-4.41733 -3.58267,-8 -8,-8"
     inkscape:connector-curvature="0" /><path
     id="path108"
     style="fill:#262626;fill-opacity:1;fill-rule:nonzero;stroke:none;stroke-width:1.33333325"
     d="m 290.66666,232 c 2.94133,0 5.33333,2.392 5.33333,5.33333 0,2.94134 -2.392,5.33334 -5.33333,5.33334 -2.94133,0 -5.33333,-2.392 -5.33333,-5.33334 0,-2.94133 2.392,-5.33333 5.33333,-5.33333"
     inkscape:connector-curvature="0" /><path
     inkscape:connector-curvature="0"
     d="m 58.667004,288.4923 h 10.66667 v -32.21979 h -10.66667 z"
     style="fill:#cccccc;fill-opacity:1;fill-rule:nonzero;stroke:none;stroke-width:1.23865879"
     id="path42-8" /><path
     inkscape:connector-curvature="0"
     d="M 74.667004,288.4923 H 85.333673 V 256.27251 H 74.667004 Z"
     style="fill:#cccccc;fill-opacity:1;fill-rule:nonzero;stroke:none;stroke-width:1.23865879"
     id="path44" /><path
     inkscape:connector-curvature="0"
     d="M 90.667006,288.4923 H 101.33367 V 256.27251 H 90.667006 Z"
     style="fill:#cccccc;fill-opacity:1;fill-rule:nonzero;stroke:none;stroke-width:1.23865879"
     id="path46-3" /><path
     inkscape:connector-curvature="0"
     d="m 106.667,288.4923 h 10.66667 V 256.27251 H 106.667 Z"
     style="fill:#cccccc;fill-opacity:1;fill-rule:nonzero;stroke:none;stroke-width:1.23865879"
     id="path48" /><path
     inkscape:connector-curvature="0"
     d="m 122.667,288.4923 h 10.66667 V 256.27251 H 122.667 Z"
     style="fill:#cccccc;fill-opacity:1;fill-rule:nonzero;stroke:none;stroke-width:1.23865879"
     id="path50-5" /><path
     inkscape:connector-curvature="0"
     d="m 138.667,288.4923 h 10.66667 V 256.27251 H 138.667 Z"
     style="fill:#cccccc;fill-opacity:1;fill-rule:nonzero;stroke:none;stroke-width:1.23865879"
     id="path52" /><path
     inkscape:connector-curvature="0"
     d="m 154.667,288.4923 h 10.66667 V 256.27251 H 154.667 Z"
     style="fill:#cccccc;fill-opacity:1;fill-rule:nonzero;stroke:none;stroke-width:1.23865879"
     id="path54-8" /><path
     inkscape:connector-curvature="0"
     d="m 170.667,288.4923 h 10.66667 V 256.27251 H 170.667 Z"
     style="fill:#cccccc;fill-opacity:1;fill-rule:nonzero;stroke:none;stroke-width:1.23865879"
     id="path56" /><path
     inkscape:connector-curvature="0"
     d="m 186.667,288.4923 h 10.66667 V 256.27251 H 186.667 Z"
     style="fill:#cccccc;fill-opacity:1;fill-rule:nonzero;stroke:none;stroke-width:1.23865879"
     id="path58-6" /><path
     inkscape:connector-curvature="0"
     d="m 202.667,288.4923 h 10.66667 V 256.27251 H 202.667 Z"
     style="fill:#cccccc;fill-opacity:1;fill-rule:nonzero;stroke:none;stroke-width:1.23865879"
     id="path60-4" /><path
     inkscape:connector-curvature="0"
     d="m 218.667,288.4923 h 10.66667 V 256.27251 H 218.667 Z"
     style="fill:#cccccc;fill-opacity:1;fill-rule:nonzero;stroke:none;stroke-width:1.23865879"
     id="path62" /><path
     inkscape:connector-curvature="0"
     d="m 234.667,288.4923 h 10.66667 V 256.27251 H 234.667 Z"
     style="fill:#cccccc;fill-opacity:1;fill-rule:nonzero;stroke:none;stroke-width:1.23865879"
     id="path64-1" /><path
     inkscape:connector-curvature="0"
     d="m 250.667,288.4923 h 10.66667 V 256.27251 H 250.667 Z"
     style="fill:#cccccc;fill-opacity:1;fill-rule:nonzero;stroke:none;stroke-width:1.23865879"
     id="path66" /><path
     inkscape:connector-curvature="0"
     d="m 266.667,288.4923 h 10.66667 V 256.27251 H 266.667 Z"
     style="fill:#cccccc;fill-opacity:1;fill-rule:nonzero;stroke:none;stroke-width:1.23865879"
     id="path68-2" /></svg>
