<?xml version="1.0" encoding="UTF-8" standalone="no"?>
<svg
   xmlns:dc="http://purl.org/dc/elements/1.1/"
   xmlns:cc="http://creativecommons.org/ns#"
   xmlns:rdf="http://www.w3.org/1999/02/22-rdf-syntax-ns#"
   xmlns:svg="http://www.w3.org/2000/svg"
   xmlns="http://www.w3.org/2000/svg"
   xmlns:sodipodi="http://sodipodi.sourceforge.net/DTD/sodipodi-0.dtd"
   xmlns:inkscape="http://www.inkscape.org/namespaces/inkscape"
   viewBox="0 0 341.33334 341.33334"
   height="341.33334"
   width="341.33334"
   xml:space="preserve"
   id="svg2"
   version="1.1"
   sodipodi:docname="reload.svg"
   inkscape:version="0.92.2 (5c3e80d, 2017-08-06)"><sodipodi:namedview
     pagecolor="#ffffff"
     bordercolor="#666666"
     borderopacity="1"
     objecttolerance="10"
     gridtolerance="10"
     guidetolerance="10"
     inkscape:pageopacity="0"
     inkscape:pageshadow="2"
     inkscape:window-width="1024"
     inkscape:window-height="705"
     id="namedview22"
     showgrid="false"
     inkscape:pagecheckerboard="true"
     inkscape:zoom="0.69140623"
     inkscape:cx="170.66667"
     inkscape:cy="170.66667"
     inkscape:window-x="-8"
     inkscape:window-y="-8"
     inkscape:window-maximized="1"
     inkscape:current-layer="svg2" /><metadata
     id="metadata8"><rdf:RDF><cc:Work
         rdf:about=""><dc:format>image/svg+xml</dc:format><dc:type
           rdf:resource="http://purl.org/dc/dcmitype/StillImage" /><dc:title></dc:title></cc:Work></rdf:RDF></metadata><defs
     id="defs6"><clipPath
       id="clipPath18"
       clipPathUnits="userSpaceOnUse"><path
         id="path16"
         d="M 0,256 H 256 V 0 H 0 Z" /></clipPath><clipPath
       id="clipPath26"
       clipPathUnits="userSpaceOnUse"><path
         id="path24"
         d="m 88,174 h 80 V 82 H 88 Z" /></clipPath></defs><g
     id="g36"
     transform="matrix(1.3333333,0,0,-1.3333333,198.69146,132.32654)"><path
       inkscape:connector-curvature="0"
       d="m 0,0 -18.607,9.071 c -1.108,0.54 -2.412,-0.245 -2.412,-1.453 V 4.026 c 0,-0.88 -0.719,-1.575 -1.62,-1.619 -16.912,-0.822 -30.38,-14.453 -30.38,-31.162 0,-8.015 3.102,-15.325 8.198,-20.849 0.627,-0.68 1.726,-0.677 2.389,-0.03 l 3.286,3.203 c 0.618,0.603 0.686,1.583 0.109,2.223 -3.723,4.123 -5.982,9.532 -5.982,15.453 0,12.322 9.773,22.419 22.164,23.334 0.984,0.072 1.836,-0.66 1.836,-1.623 v -3.481 c 0,-1.208 1.304,-1.994 2.412,-1.453 L 0,-2.907 C 1.228,-2.308 1.228,-0.599 0,0"
       style="fill:#16a085;fill-opacity:1;fill-rule:nonzero;stroke:none"
       id="path38" /></g><g
     id="g40"
     transform="matrix(1.3333333,0,0,-1.3333333,199.21773,142.82773)"><path
       inkscape:connector-curvature="0"
       d="m 0,0 -3.286,-3.204 c -0.618,-0.603 -0.686,-1.582 -0.108,-2.222 3.722,-4.123 5.981,-9.533 5.981,-15.453 0,-12.323 -9.773,-22.419 -22.164,-23.334 -0.984,-0.073 -1.836,0.66 -1.836,1.622 v 3.481 c 0,1.208 -1.304,1.994 -2.412,1.454 l -18.607,-9.071 c -1.228,-0.599 -1.228,-2.308 0,-2.907 l 18.607,-9.072 c 1.108,-0.54 2.412,0.246 2.412,1.454 v 3.592 c 0,0.879 0.719,1.574 1.62,1.618 16.912,0.823 30.38,14.454 30.38,31.163 0,8.015 -3.102,15.324 -8.198,20.848 C 1.762,0.649 0.663,0.647 0,0"
       style="fill:#0e6654;fill-opacity:1;fill-rule:nonzero;stroke:none"
       id="path42" /></g></svg>