<?xml version="1.0" encoding="UTF-8" standalone="no"?>
<svg
   xmlns:dc="http://purl.org/dc/elements/1.1/"
   xmlns:cc="http://creativecommons.org/ns#"
   xmlns:rdf="http://www.w3.org/1999/02/22-rdf-syntax-ns#"
   xmlns:svg="http://www.w3.org/2000/svg"
   xmlns="http://www.w3.org/2000/svg"
   xmlns:sodipodi="http://sodipodi.sourceforge.net/DTD/sodipodi-0.dtd"
   xmlns:inkscape="http://www.inkscape.org/namespaces/inkscape"
   viewBox="0 0 341.33334 341.33334"
   height="341.33334"
   width="341.33334"
   xml:space="preserve"
   id="svg2"
   version="1.1"
   sodipodi:docname="Sega - PICO-content.svg"
   inkscape:version="0.92.2 (5c3e80d, 2017-08-06)"><sodipodi:namedview
     pagecolor="#ffffff"
     bordercolor="#666666"
     borderopacity="1"
     objecttolerance="10"
     gridtolerance="10"
     guidetolerance="10"
     inkscape:pageopacity="0"
     inkscape:pageshadow="2"
     inkscape:window-width="1024"
     inkscape:window-height="705"
     id="namedview35"
     showgrid="false"
     inkscape:pagecheckerboard="true"
     inkscape:zoom="0.69140623"
     inkscape:cx="170.66667"
     inkscape:cy="170.66667"
     inkscape:window-x="-8"
     inkscape:window-y="-8"
     inkscape:window-maximized="1"
     inkscape:current-layer="svg2" /><metadata
     id="metadata8"><rdf:RDF><cc:Work
         rdf:about=""><dc:format>image/svg+xml</dc:format><dc:type
           rdf:resource="http://purl.org/dc/dcmitype/StillImage" /><dc:title></dc:title></cc:Work></rdf:RDF></metadata><defs
     id="defs6"><clipPath
       id="clipPath18"
       clipPathUnits="userSpaceOnUse"><path
         id="path16"
         d="M 0,256 H 256 V 0 H 0 Z" /></clipPath><clipPath
       id="clipPath26"
       clipPathUnits="userSpaceOnUse"><path
         id="path24"
         d="M 28,252 H 228 V 4 H 28 Z" /></clipPath></defs><g
     id="g22"
     transform="matrix(1.3333333,0,0,-1.3333333,0,341.33333)" /><path
     id="path38"
     style="fill:#ffff00;fill-opacity:1;fill-rule:nonzero;stroke:none;stroke-width:1.33333325"
     d="M 277.33333,282.66666 H 64.000002 c -8.8,0 -16,-7.2 -16,-16 V 21.333333 C 48.000002,18.4 50.400002,16 53.333336,16 H 256 c 20.53333,0 37.33333,16.8 37.33333,37.333332 V 266.66666 c 0,8.8 -7.2,16 -16,16"
     inkscape:connector-curvature="0" /><path
     id="path42"
     style="fill:#eac500;fill-opacity:1;fill-rule:nonzero;stroke:none;stroke-width:1.33333325"
     d="M 266.66666,234.66667 H 47.999999 V 26.666675 H 245.33333 c 20.53333,0 37.33333,16.8 37.33333,37.333333 V 218.66667 c 0,8.8 -7.2,16 -16,16"
     inkscape:connector-curvature="0" /><path
     id="path46"
     style="fill:#16a085;fill-opacity:1;fill-rule:nonzero;stroke:none;stroke-width:1.33333325"
     d="M 255.99999,229.33333 H 63.999995 V 32.000002 H 234.66666 c 20.53333,0 37.33333,16.799999 37.33333,37.333332 V 213.33333 c 0,8.8 -7.2,16 -16,16"
     inkscape:connector-curvature="0" /><path
     inkscape:connector-curvature="0"
     d="M 245.33333,325.33333 H 95.999998 V 282.66666 H 245.33333 Z"
     style="fill:#eac500;fill-opacity:1;fill-rule:nonzero;stroke:none;stroke-width:1.33333325"
     id="path48" /><path
     id="path52"
     style="fill:#ffff00;fill-opacity:1;fill-rule:nonzero;stroke:none;stroke-width:1.33333325"
     d="m 234.66666,320 h -128 c -2.94533,0 -5.33333,-2.388 -5.33333,-5.33333 v -21.33334 c 0,-2.94533 2.388,-5.33333 5.33333,-5.33333 h 128 c 2.94533,0 5.33333,2.388 5.33333,5.33333 v 21.33334 c 0,2.94533 -2.388,5.33333 -5.33333,5.33333"
     inkscape:connector-curvature="0" /><path
     id="path56"
     style="fill:#eac500;fill-opacity:1;fill-rule:nonzero;stroke:none;stroke-width:1.33333325"
     d="M 250.66666,245.33333 H 90.666664 c -5.881333,0 -10.666666,4.78533 -10.666666,10.66667 v 5.33333 c 0,5.88133 4.785333,10.66667 10.666666,10.66667 H 250.66666 c 5.88133,0 10.66667,-4.78534 10.66667,-10.66667 V 256 c 0,-5.88134 -4.78534,-10.66667 -10.66667,-10.66667 m 0,5.33333 c 2.94533,0 5.33333,2.388 5.33333,5.33334 v 5.33333 c 0,2.94533 -2.388,5.33333 -5.33333,5.33333 H 90.666664 c -2.945333,0 -5.333333,-2.388 -5.333333,-5.33333 V 256 c 0,-2.94534 2.388,-5.33334 5.333333,-5.33334 H 250.66666"
     inkscape:connector-curvature="0" /><path
     id="path60"
     style="fill:#ffff00;fill-opacity:1;fill-rule:nonzero;stroke:none;stroke-width:1.33333325"
     d="m 71.999998,58.66667 h -16 c -1.473333,0 -2.666666,-1.193333 -2.666666,-2.666667 V 45.333337 c 0,-1.473333 1.193333,-2.666667 2.666666,-2.666667 h 16 c 1.473333,0 2.666667,1.193334 2.666667,2.666667 v 10.666666 c 0,1.473334 -1.193334,2.666667 -2.666667,2.666667"
     inkscape:connector-curvature="0" /><path
     id="path64"
     style="fill:#ffff00;fill-opacity:1;fill-rule:nonzero;stroke:none;stroke-width:1.33333325"
     d="m 71.999998,138.66667 h -16 c -1.473333,0 -2.666666,-1.19333 -2.666666,-2.66667 v -10.66666 c 0,-1.47334 1.193333,-2.66667 2.666666,-2.66667 h 16 c 1.473333,0 2.666667,1.19333 2.666667,2.66667 V 136 c 0,1.47334 -1.193334,2.66667 -2.666667,2.66667"
     inkscape:connector-curvature="0" /><path
     id="path68"
     style="fill:#ffff00;fill-opacity:1;fill-rule:nonzero;stroke:none;stroke-width:1.33333325"
     d="m 71.999998,218.66667 h -16 c -1.473333,0 -2.666666,-1.19333 -2.666666,-2.66667 v -10.66666 c 0,-1.47334 1.193333,-2.66667 2.666666,-2.66667 h 16 c 1.473333,0 2.666667,1.19333 2.666667,2.66667 V 216 c 0,1.47334 -1.193334,2.66667 -2.666667,2.66667"
     inkscape:connector-curvature="0" /></svg>