<?xml version="1.0" encoding="UTF-8" standalone="no"?>
<svg
   xmlns:dc="http://purl.org/dc/elements/1.1/"
   xmlns:cc="http://creativecommons.org/ns#"
   xmlns:rdf="http://www.w3.org/1999/02/22-rdf-syntax-ns#"
   xmlns:svg="http://www.w3.org/2000/svg"
   xmlns="http://www.w3.org/2000/svg"
   xmlns:sodipodi="http://sodipodi.sourceforge.net/DTD/sodipodi-0.dtd"
   xmlns:inkscape="http://www.inkscape.org/namespaces/inkscape"
   viewBox="0 0 341.33334 341.33334"
   height="341.33334"
   width="341.33334"
   xml:space="preserve"
   id="svg2"
   version="1.1"
   sodipodi:docname="Sega - Saturn (U).svg"
   inkscape:version="0.92.2 (5c3e80d, 2017-08-06)"><sodipodi:namedview
     pagecolor="#ffffff"
     bordercolor="#666666"
     borderopacity="1"
     objecttolerance="10"
     gridtolerance="10"
     guidetolerance="10"
     inkscape:pageopacity="0"
     inkscape:pageshadow="2"
     inkscape:window-width="1024"
     inkscape:window-height="705"
     id="namedview65"
     showgrid="false"
     inkscape:pagecheckerboard="true"
     inkscape:zoom="0.69140623"
     inkscape:cx="170.66667"
     inkscape:cy="170.66667"
     inkscape:window-x="-8"
     inkscape:window-y="-8"
     inkscape:window-maximized="1"
     inkscape:current-layer="svg2" /><metadata
     id="metadata8"><rdf:RDF><cc:Work
         rdf:about=""><dc:format>image/svg+xml</dc:format><dc:type
           rdf:resource="http://purl.org/dc/dcmitype/StillImage" /><dc:title></dc:title></cc:Work></rdf:RDF></metadata><defs
     id="defs6"><clipPath
       id="clipPath18"
       clipPathUnits="userSpaceOnUse"><path
         id="path16"
         d="M 0,256 H 256 V 0 H 0 Z" /></clipPath><clipPath
       id="clipPath26"
       clipPathUnits="userSpaceOnUse"><path
         id="path24"
         d="M 4,212 H 252 V 48 H 4 Z" /></clipPath></defs><g
     id="g22"
     transform="matrix(1.3333333,0,0,-1.3333333,0,341.33333)" /><path
     id="path38"
     style="fill:#595959;fill-opacity:1;fill-rule:nonzero;stroke:none;stroke-width:1.33333325"
     d="m 251.06079,69.333337 c -30.81733,0 -56.276,35.333333 -80.39466,35.333333 -24.11734,0 -49.576,-35.333333 -80.393336,-35.333333 -40.647999,0 -55.606665,104.447993 -55.606665,143.999993 0,39.552 14.069333,48 28.807999,48 C 84.912794,261.33333 134.93413,208 170.66613,208 c 35.73333,0 85.75466,53.33333 107.19333,53.33333 14.73866,0 28.80666,-8.448 28.80666,-48 0,-39.552 -14.95866,-143.999993 -55.60533,-143.999993"
     inkscape:connector-curvature="0" /><path
     id="path42"
     style="fill:#333333;fill-opacity:1;fill-rule:nonzero;stroke:none;stroke-width:1.33333325"
     d="m 250.66666,74.66667 c -30.66667,0 -56,16 -80,16 -24,0 -49.33333,-16 -79.999996,-16 -40.447999,0 -74.666665,104.448 -74.666665,144 0,39.552 33.333333,48 47.999999,48 21.333333,0 71.109332,-53.33334 106.666662,-53.33334 35.55733,0 85.33333,53.33334 106.66667,53.33334 14.66666,0 47.99999,-8.448 47.99999,-48 0,-39.552 -34.21866,-144 -74.66666,-144"
     inkscape:connector-curvature="0" /><path
     id="path46"
     style="fill:#262626;fill-opacity:1;fill-rule:nonzero;stroke:none;stroke-width:1.33333325"
     d="m 169.58,90.66667 c -84.767998,0 -117.227997,21.256 -129.599997,36.37733 -3.249333,7.012 -6.241333,14.34134 -8.932,21.736 -3.462666,21.708 -6.645333,87.376 80.601327,91.22 19.556,-13.33333 40.88934,-26.66667 58.668,-26.66667 17.69334,0 38.908,13.20667 58.38667,26.476 l 0.28,-10e-4 c 0,0 106.36,9.088 77.736,-97.94133 0,0 -0.052,-0.46267 -0.25467,-1.296 -1.00133,-2.51733 -2.03867,-5.012 -3.10667,-7.48133 -8.312,-14.63233 -36.85466,-42.423 -133.77866,-42.423"
     inkscape:connector-curvature="0" /><path
     id="path50"
     style="fill:#262626;fill-opacity:1;fill-rule:nonzero;stroke:none;stroke-width:1.33333325"
     d="m 79.999998,136 c -19.114666,0 -34.666666,15.552 -34.666666,34.66667 0,19.11466 15.552,34.66666 34.666666,34.66666 19.114666,0 34.666662,-15.552 34.666662,-34.66666 C 114.66666,151.552 99.114664,136 79.999998,136"
     inkscape:connector-curvature="0" /><path
     id="path54"
     style="fill:#3e4447;fill-opacity:1;fill-rule:nonzero;stroke:none;stroke-width:1.33333325"
     d="m 109.33333,170.66667 c 0,16.2 -13.133333,29.33333 -29.333333,29.33333 -16.199999,0 -29.333332,-13.13333 -29.333332,-29.33333 0,-16.2 13.133333,-29.33333 29.333332,-29.33333 16.2,0 29.333333,13.13333 29.333333,29.33333"
     inkscape:connector-curvature="0" /><path
     id="path58"
     style="fill:#404040;fill-opacity:1;fill-rule:nonzero;stroke:none;stroke-width:1.33333325"
     d="m 234.66666,128 c 5.888,0 10.66667,4.77867 10.66667,10.66667 0,5.888 -4.77867,10.66666 -10.66667,10.66666 -5.888,0 -10.66667,-4.77866 -10.66667,-10.66666 0,-5.888 4.77867,-10.66667 10.66667,-10.66667"
     inkscape:connector-curvature="0" /><path
     id="path62"
     style="fill:#464c4f;fill-opacity:1;fill-rule:nonzero;stroke:none;stroke-width:1.33333325"
     d="m 106.66666,173.33333 c 0,2.94933 -2.384,5.33333 -5.33333,5.33333 H 87.999994 V 192 c 0,2.94933 -2.384,5.33333 -5.333333,5.33333 h -5.333334 c -2.949333,0 -5.333333,-2.384 -5.333333,-5.33333 V 178.66666 H 58.666661 c -2.949333,0 -5.333333,-2.384 -5.333333,-5.33333 V 168 c 0,-2.94934 2.384,-5.33334 5.333333,-5.33334 h 13.333333 v -13.33333 c 0,-2.94933 2.384,-5.33333 5.333333,-5.33333 h 5.333334 c 2.949333,0 5.333333,2.384 5.333333,5.33333 v 13.33333 h 13.333336 c 2.94933,0 5.33333,2.384 5.33333,5.33334 z"
     inkscape:connector-curvature="0" /><path
     id="path66"
     style="fill:#404040;fill-opacity:1;fill-rule:nonzero;stroke:none;stroke-width:1.33333325"
     d="m 170.66666,197.33333 c -5.888,0 -10.66667,-1.19467 -10.66667,-2.66667 0,-1.472 4.77867,-2.66666 10.66667,-2.66666 5.888,0 10.66667,1.19466 10.66667,2.66666 0,1.472 -4.77867,2.66667 -10.66667,2.66667"
     inkscape:connector-curvature="0" /><path
     id="path70"
     style="fill:#404040;fill-opacity:1;fill-rule:nonzero;stroke:none;stroke-width:1.33333325"
     d="M 197.33333,154.66667 C 197.33333,148.77867 202.112,144 208,144 c 5.888,0 10.66666,4.77867 10.66666,10.66667 0,5.888 -4.77866,10.66667 -10.66666,10.66667 -5.888,0 -10.66667,-4.77867 -10.66667,-10.66667"
     inkscape:connector-curvature="0" /><path
     id="path74"
     style="fill:#404040;fill-opacity:1;fill-rule:nonzero;stroke:none;stroke-width:1.33333325"
     d="m 218.66666,207.33333 c -8.83733,0 -16,-6.864 -16,-15.33333 0,-8.46934 7.16267,-15.33334 16,-15.33334 8.83733,0 16,6.864 16,15.33334 0,8.46933 -7.16267,15.33333 -16,15.33333"
     inkscape:connector-curvature="0" /><path
     id="path78"
     style="fill:#404040;fill-opacity:1;fill-rule:nonzero;stroke:none;stroke-width:1.33333325"
     d="m 250.66666,186.66667 c -8.83733,0 -16,-7.16267 -16,-16 0,-8.83733 7.16267,-16 16,-16 8.83733,0 16,7.16267 16,16 0,8.83733 -7.16267,16 -16,16"
     inkscape:connector-curvature="0" /><path
     id="path82"
     style="fill:#404040;fill-opacity:1;fill-rule:nonzero;stroke:none;stroke-width:1.33333325"
     d="m 261.33333,133.33334 c -5.888,0 -10.66667,-4.77867 -10.66667,-10.66667 0,-5.888 4.77867,-10.66666 10.66667,-10.66666 5.888,0 10.66667,4.77866 10.66667,10.66666 0,5.888 -4.77867,10.66667 -10.66667,10.66667"
     inkscape:connector-curvature="0" /><path
     id="path86"
     style="fill:#404040;fill-opacity:1;fill-rule:nonzero;stroke:none;stroke-width:1.33333325"
     d="m 282.66666,165.33333 c -8.83733,0 -16,-7.16267 -16,-16 0,-8.83733 7.16267,-16 16,-16 8.83733,0 16,7.16267 16,16 0,8.83733 -7.16267,16 -16,16"
     inkscape:connector-curvature="0" /><path
     id="path90"
     style="fill:#3e4447;fill-opacity:1;fill-rule:nonzero;stroke:none;stroke-width:1.33333325"
     d="m 85.333331,170.66667 c 0,2.94533 -2.388,5.33333 -5.333333,5.33333 -2.945333,0 -5.333333,-2.388 -5.333333,-5.33333 0,-2.94533 2.388,-5.33333 5.333333,-5.33333 2.945333,0 5.333333,2.388 5.333333,5.33333"
     inkscape:connector-curvature="0" /><path
     id="path94"
     style="fill:#808080;fill-opacity:1;fill-rule:nonzero;stroke:none;stroke-width:1.33333325"
     d="m 166.5696,122.66667 h -1.31067 l -1.63866,-3.67867 v 3.67867 h -1.312 v -5.14933 h 1.96666 z m 0,-7.172 c 0,0.45733 -0.144,0.848 -0.432,1.17067 -0.28667,0.32266 -0.58,0.484 -0.87867,0.484 h -3.27733 v 5.51733 h -1.312 v -6.988 h 4.26133 c 0.21867,0 0.328,-0.0613 0.328,-0.184 0,-0.12267 -0.10933,-0.184 -0.328,-0.184 h -4.26133 v -1.472 h 4.58933 c 0.29867,0 0.592,0.164 0.87867,0.49067 0.288,0.32666 0.432,0.716 0.432,1.16533 m 1.63867,0 c 0,0.964 -0.22,1.69333 -0.66134,2.188 -0.44,0.49467 -0.81333,0.828 -1.12,0.99867 l 1.78134,3.98533 h -1.31067 l -2.29467,-5.14933 h 0.656 c 0.38534,0 0.75467,-0.19867 1.108,-0.59467 0.35334,-0.396 0.53067,-0.872 0.53067,-1.428 0,-0.548 -0.17733,-1.02267 -0.53067,-1.42267 -0.35333,-0.4 -0.72266,-0.60133 -1.108,-0.60133 H 160.6696 V 112 h 4.58933 c 0.74934,0 1.42934,0.34267 2.03734,1.02934 0.608,0.68666 0.912,1.508 0.912,2.46533"
     inkscape:connector-curvature="0" /><path
     id="path98"
     style="fill:#808080;fill-opacity:1;fill-rule:nonzero;stroke:none;stroke-width:1.33333325"
     d="m 168.86386,115.3104 c 0,-2.20667 0.98267,-3.31067 2.94933,-3.31067 h 3.93334 v 1.472 h -3.93334 c -1.092,0 -1.63866,0.612 -1.63866,1.83867 v 4.04533 c 0,1.22667 0.54666,1.84 1.63866,1.84 h 3.93334 v 1.47067 h -3.93334 c -1.96666,0 -2.94933,-1.10267 -2.94933,-3.31067 z"
     inkscape:connector-curvature="0" /><path
     id="path102"
     style="fill:#808080;fill-opacity:1;fill-rule:nonzero;stroke:none;stroke-width:1.33333325"
     d="m 170.50253,117.14947 v -1.83867 c 0,-0.98133 0.43733,-1.472 1.31067,-1.472 h 3.93333 v 1.472 h -3.60533 c -0.21867,0 -0.328,0.12267 -0.328,0.368 h 2.95066 v 1.47067 z"
     inkscape:connector-curvature="0" /><path
     id="path106"
     style="fill:#808080;fill-opacity:1;fill-rule:nonzero;stroke:none;stroke-width:1.33333325"
     d="m 170.50253,117.5172 h 4.26133 v 1.47067 h -2.95066 c 0,0.24533 0.10933,0.368 0.328,0.368 h 3.60533 v 1.472 h -3.93333 c -0.87334,0 -1.31067,-0.49067 -1.31067,-1.472 z"
     inkscape:connector-curvature="0" /><path
     id="path110"
     style="fill:#808080;fill-opacity:1;fill-rule:nonzero;stroke:none;stroke-width:1.33333325"
     d="m 180.33506,113.83907 h 3.60533 v 1.47067 h -2.29466 v 7.35733 h -1.31067 z m -0.328,0 v 8.828 h -1.31067 v -7.35733 h -2.29466 v -1.47067 z m 3.93333,-0.368 h -7.53866 v -1.47067 h 7.53866 z"
     inkscape:connector-curvature="0" /><path
     id="path114"
     style="fill:#808080;fill-opacity:1;fill-rule:nonzero;stroke:none;stroke-width:1.33333325"
     d="m 190.49533,122.66667 h -1.31067 L 187.546,118.988 v 3.67867 h -1.312 v -5.14933 h 1.96666 z m 0,-7.172 c 0,0.45733 -0.144,0.848 -0.432,1.17067 -0.28667,0.32266 -0.58,0.484 -0.87867,0.484 h -3.27733 v 5.51733 h -1.312 v -6.988 h 4.26133 c 0.21867,0 0.328,-0.0613 0.328,-0.184 0,-0.12267 -0.10933,-0.184 -0.328,-0.184 h -4.26133 v -1.472 h 4.58933 c 0.29867,0 0.592,0.164 0.87867,0.49067 0.288,0.32666 0.432,0.716 0.432,1.16533 m 1.63867,0 c 0,0.964 -0.22,1.69333 -0.66134,2.188 -0.44,0.49467 -0.81333,0.828 -1.12,0.99867 l 1.78134,3.98533 h -1.31067 l -2.29467,-5.14933 h 0.656 c 0.38534,0 0.75467,-0.19867 1.108,-0.59467 0.35334,-0.396 0.53067,-0.872 0.53067,-1.428 0,-0.548 -0.17733,-1.02267 -0.53067,-1.42267 -0.35333,-0.4 -0.72266,-0.60133 -1.108,-0.60133 h -4.58933 V 112 h 4.58933 c 0.74934,0 1.42934,0.34267 2.03734,1.02934 0.608,0.68666 0.912,1.508 0.912,2.46533"
     inkscape:connector-curvature="0" /><path
     id="path118"
     style="fill:#808080;fill-opacity:1;fill-rule:nonzero;stroke:none;stroke-width:1.33333325"
     d="m 197.05026,115.67814 c 0,-0.24533 -0.10933,-0.368 -0.328,-0.368 h -0.65467 c -0.21866,0 -0.328,0.12267 -0.328,0.368 v 3.31067 c 0,0.24533 0.10934,0.368 0.328,0.368 h 0.65467 c 0.21867,0 0.328,-0.12267 0.328,-0.368 z m 1.31067,-0.368 v 4.04667 c 0,0.98 -0.436,1.47066 -1.31067,1.47066 h -1.31067 c -0.87466,0 -1.31066,-0.49066 -1.31066,-1.47066 v -4.04667 c 0,-0.98 0.436,-1.47067 1.31066,-1.47067 h 1.31067 c 0.87467,0 1.31067,0.49067 1.31067,1.47067 m 0.328,0 c 0,-1.22533 -0.54667,-1.83867 -1.63867,-1.83867 h -1.31067 c -1.09333,0 -1.63866,0.61334 -1.63866,1.83867 v 4.04667 c 0,1.22533 0.54533,1.83866 1.63866,1.83866 h 1.31067 c 1.092,0 1.63867,-0.61333 1.63867,-1.83866 z m 1.31066,0 v 4.04667 c 0,2.20666 -0.98266,3.30933 -2.94933,3.30933 h -1.31067 c -1.96666,0 -2.95066,-1.10267 -2.95066,-3.30933 v -4.04667 c 0,-2.20667 0.984,-3.31067 2.95066,-3.31067 h 1.31067 c 1.96667,0 2.94933,1.104 2.94933,3.31067"
     inkscape:connector-curvature="0" /><path
     id="path122"
     style="fill:#808080;fill-opacity:1;fill-rule:nonzero;stroke:none;stroke-width:1.33333325"
     d="m 142.764,120.19334 c -0.0107,-0.032 -0.0173,-0.068 -0.0267,-0.10133 h 0.0267 z m 1.84667,-0.83733 c -0.21867,0 -0.328,-0.12267 -0.328,-0.368 v -6.988 h -2.94934 v 7.356 c 0,2.20666 0.98267,3.31066 2.94934,3.31066 h 3.93333 v -3.31066 z"
     inkscape:connector-curvature="0" /><path
     inkscape:connector-curvature="0"
     d="M 148.87066,122.66667 H 151.82 V 112 h -2.94934 z"
     style="fill:#808080;fill-opacity:1;fill-rule:nonzero;stroke:none;stroke-width:1.33333325"
     id="path124" /><path
     id="path128"
     style="fill:#808080;fill-opacity:1;fill-rule:nonzero;stroke:none;stroke-width:1.33333325"
     d="m 156.73706,115.67814 h -1.31067 v -0.368 h 1.31067 c 0.21867,0 0.328,0.0613 0.328,0.184 0,0.12267 -0.10933,0.184 -0.328,0.184 m 0,3.67867 h -1.31067 v -0.368 h 1.31067 c 0.21867,0 0.328,0.0613 0.328,0.184 0,0.12266 -0.10933,0.184 -0.328,0.184 m 3.27733,-3.86267 c 0,-0.956 -0.304,-1.77733 -0.912,-2.464 -0.608,-0.68667 -1.288,-1.03067 -2.03733,-1.03067 h -4.58933 v 10.66667 h 4.58933 c 0.74933,0 1.42933,-0.34267 2.03733,-1.02933 0.608,-0.68667 0.912,-1.508 0.912,-2.464 0,-0.69467 -0.14933,-1.304 -0.448,-1.82667 0.29867,-0.524 0.448,-1.14133 0.448,-1.852"
     inkscape:connector-curvature="0" /></svg>