<?xml version="1.0" encoding="UTF-8" standalone="no"?>
<svg
   xmlns:dc="http://purl.org/dc/elements/1.1/"
   xmlns:cc="http://creativecommons.org/ns#"
   xmlns:rdf="http://www.w3.org/1999/02/22-rdf-syntax-ns#"
   xmlns:svg="http://www.w3.org/2000/svg"
   xmlns="http://www.w3.org/2000/svg"
   xmlns:sodipodi="http://sodipodi.sourceforge.net/DTD/sodipodi-0.dtd"
   xmlns:inkscape="http://www.inkscape.org/namespaces/inkscape"
   viewBox="0 0 341.33334 341.33334"
   height="256"
   width="256"
   xml:space="preserve"
   id="svg2"
   version="1.1"
   sodipodi:docname="Sega - Saturn (J).svg"
   inkscape:version="0.92.2 (5c3e80d, 2017-08-06)"><sodipodi:namedview
     pagecolor="#ffffff"
     bordercolor="#666666"
     borderopacity="1"
     objecttolerance="10"
     gridtolerance="10"
     guidetolerance="10"
     inkscape:pageopacity="0"
     inkscape:pageshadow="2"
     inkscape:window-width="1024"
     inkscape:window-height="705"
     id="namedview65"
     showgrid="false"
     inkscape:pagecheckerboard="true"
     inkscape:zoom="1.3828125"
     inkscape:cx="211.62414"
     inkscape:cy="149.28285"
     inkscape:window-x="-8"
     inkscape:window-y="-8"
     inkscape:window-maximized="1"
     inkscape:current-layer="svg2" /><metadata
     id="metadata8"><rdf:RDF><cc:Work
         rdf:about=""><dc:format>image/svg+xml</dc:format><dc:type
           rdf:resource="http://purl.org/dc/dcmitype/StillImage" /><dc:title /></cc:Work></rdf:RDF></metadata><defs
     id="defs6"><clipPath
       id="clipPath18"
       clipPathUnits="userSpaceOnUse"><path
         id="path16"
         d="M 0,256 H 256 V 0 H 0 Z" /></clipPath><clipPath
       id="clipPath26"
       clipPathUnits="userSpaceOnUse"><path
         id="path24"
         d="M 4,212 H 252 V 48 H 4 Z" /></clipPath><filter
       inkscape:collect="always"
       style="color-interpolation-filters:sRGB"
       id="filter878"
       x="-0.0029172414"
       width="1.0058345"
       y="-0.0047"
       height="1.0094"><feGaussianBlur
         inkscape:collect="always"
         stdDeviation="0.282"
         id="feGaussianBlur880" /></filter></defs><g
     id="g36"
     transform="matrix(1.3333333,0,0,-1.3333333,251.06079,69.333337)"><path
       inkscape:connector-curvature="0"
       d="m 0,0 c -23.113,0 -42.207,-26.5 -60.296,-26.5 -18.088,0 -37.182,26.5 -60.295,26.5 -30.486,0 -41.705,-78.336 -41.705,-108 0,-29.664 10.552,-36 21.606,-36 16.079,0 53.595,40 80.394,40 26.8,0 64.316,-40 80.395,-40 11.054,0 21.605,6.336 21.605,36 C 41.704,-78.336 30.485,0 0,0"
       style="fill:#a12868;fill-opacity:1;fill-rule:nonzero;stroke:none"
       id="path38" /></g><g
     id="g40"
     transform="matrix(1.3333333,0,0,-1.3333333,250.66666,74.66667)"
     style="filter:url(#filter878)"><path
       inkscape:connector-curvature="0"
       d="m 0,0 c -23,0 -42,-12 -60,-12 -18,0 -37,12 -60,12 -30.336,0 -56,-78.336 -56,-108 0,-29.664 25,-36 36,-36 16,0 53.332,40 80,40 26.668,0 64,-40 80,-40 11,0 36,6.336 36,36 C 56,-78.336 30.336,0 0,0"
       style="fill:#cccccc;fill-opacity:1;fill-rule:nonzero;stroke:none"
       id="path42" /></g><g
     id="g44"
     transform="matrix(1.3333333,0,0,-1.3333333,169.58,90.66667)"><path
       inkscape:connector-curvature="0"
       d="m 0,0 c -63.576,0 -87.921,-15.942 -97.2,-27.283 -2.437,-5.259 -4.681,-10.756 -6.699,-16.302 -2.597,-16.281 -4.984,-65.532 60.451,-68.415 14.667,10 30.667,20 44.001,20 13.27,0 29.181,-9.905 43.79,-19.857 l 0.21,0.001 c 0,0 79.77,-6.816 58.302,73.456 0,0 -0.039,0.347 -0.191,0.972 -0.751,1.888 -1.529,3.759 -2.33,5.611 C 94.1,-20.843 72.693,0 0,0"
       style="fill:#d9d9d9;fill-opacity:1;fill-rule:nonzero;stroke:none"
       id="path46" /></g><g
     id="g48"
     transform="matrix(1.3333333,0,0,-1.3333333,79.999998,136)"><path
       inkscape:connector-curvature="0"
       d="m 0,0 c -14.336,0 -26,-11.664 -26,-26 0,-14.336 11.664,-26 26,-26 14.336,0 26,11.664 26,26 C 26,-11.664 14.336,0 0,0"
       style="fill:#cccccc;fill-opacity:1;fill-rule:nonzero;stroke:none"
       id="path50" /></g><g
     id="g52"
     transform="matrix(1.3333333,0,0,-1.3333333,109.33333,170.66667)"
     style="fill:#333333"><path
       inkscape:connector-curvature="0"
       d="m 0,0 c 0,-12.15 -9.85,-22 -22,-22 -12.15,0 -22,9.85 -22,22 0,12.15 9.85,22 22,22 C -9.85,22 0,12.15 0,0"
       style="fill:#333333;fill-opacity:1;fill-rule:nonzero;stroke:none"
       id="path54" /></g><g
     id="g56"
     transform="matrix(1.3333333,0,0,-1.3333333,234.66666,128)"><path
       inkscape:connector-curvature="0"
       d="m 0,0 c 4.416,0 8,-3.584 8,-8 0,-4.416 -3.584,-8 -8,-8 -4.416,0 -8,3.584 -8,8 0,4.416 3.584,8 8,8"
       style="fill:#8d9397;fill-opacity:1;fill-rule:nonzero;stroke:none"
       id="path58" /></g><g
     id="g60"
     transform="matrix(1.3333333,0,0,-1.3333333,106.66666,173.33333)"
     style="fill:#4d4d4d"><path
       inkscape:connector-curvature="0"
       d="m 0,0 c 0,-2.212 -1.788,-4 -4,-4 h -10 v -10 c 0,-2.212 -1.788,-4 -4,-4 h -4 c -2.212,0 -4,1.788 -4,4 v 10 h -10 c -2.212,0 -4,1.788 -4,4 v 4 c 0,2.212 1.788,4 4,4 h 10 v 10 c 0,2.212 1.788,4 4,4 h 4 c 2.212,0 4,-1.788 4,-4 V 8 H -4 C -1.788,8 0,6.212 0,4 Z"
       style="fill:#4d4d4d;fill-opacity:1;fill-rule:nonzero;stroke:none"
       id="path62" /></g><g
     id="g64"
     transform="matrix(1.3333333,0,0,-1.3333333,170.66666,197.33333)"><path
       inkscape:connector-curvature="0"
       d="M 0,0 C -4.416,0 -8,0.896 -8,2 -8,3.104 -4.416,4 0,4 4.416,4 8,3.104 8,2 8,0.896 4.416,0 0,0"
       style="fill:#a12868;fill-opacity:1;fill-rule:nonzero;stroke:none"
       id="path66" /></g><g
     id="g68"
     transform="matrix(1.3333333,0,0,-1.3333333,197.33333,154.66667)"><path
       inkscape:connector-curvature="0"
       d="M 0,0 C 0,4.416 3.584,8 8,8 12.416,8 16,4.416 16,0 16,-4.416 12.416,-8 8,-8 3.584,-8 0,-4.416 0,0"
       style="fill:#8d9397;fill-opacity:1;fill-rule:nonzero;stroke:none"
       id="path70" /></g><g
     id="g72"
     transform="matrix(1.3333333,0,0,-1.3333333,218.66666,207.33333)"><path
       inkscape:connector-curvature="0"
       d="M 0,0 C -6.628,0 -12,5.148 -12,11.5 -12,17.852 -6.628,23 0,23 6.628,23 12,17.852 12,11.5 12,5.148 6.628,0 0,0"
       style="fill:#16a085;fill-opacity:1;fill-rule:nonzero;stroke:none"
       id="path74" /></g><g
     id="g76"
     transform="matrix(1.3333333,0,0,-1.3333333,250.66666,186.66667)"><path
       inkscape:connector-curvature="0"
       d="m 0,0 c -6.628,0 -12,5.372 -12,12 0,6.628 5.372,12 12,12 C 6.628,24 12,18.628 12,12 12,5.372 6.628,0 0,0"
       style="fill:#ffff00;fill-opacity:1;fill-rule:nonzero;stroke:none"
       id="path78" /></g><g
     id="g80"
     transform="matrix(1.3333333,0,0,-1.3333333,261.33333,133.33334)"><path
       inkscape:connector-curvature="0"
       d="m 0,0 c -4.416,0 -8,3.584 -8,8 0,4.416 3.584,8 8,8 C 4.416,16 8,12.416 8,8 8,3.584 4.416,0 0,0"
       style="fill:#8d9397;fill-opacity:1;fill-rule:nonzero;stroke:none"
       id="path82" /></g><g
     id="g84"
     transform="matrix(1.3333333,0,0,-1.3333333,282.66666,165.33333)"><path
       inkscape:connector-curvature="0"
       d="m 0,0 c -6.628,0 -12,5.372 -12,12 0,6.628 5.372,12 12,12 C 6.628,24 12,18.628 12,12 12,5.372 6.628,0 0,0"
       style="fill:#354f9f;fill-opacity:1;fill-rule:nonzero;stroke:none"
       id="path86" /></g><g
     id="g88"
     transform="matrix(1.3333333,0,0,-1.3333333,85.333331,170.66667)"><path
       inkscape:connector-curvature="0"
       d="m 0,0 c 0,-2.209 -1.791,-4 -4,-4 -2.209,0 -4,1.791 -4,4 0,2.209 1.791,4 4,4 2.209,0 4,-1.791 4,-4"
       style="fill:#3e4447;fill-opacity:1;fill-rule:nonzero;stroke:none"
       id="path90" /></g><g
     id="g92"
     transform="matrix(1.3333333,0,0,-1.3333333,166.5696,122.66667)"><path
       inkscape:connector-curvature="0"
       d="M 0,0 H -0.983 L -2.212,2.759 V 0 h -0.984 v 3.862 h 1.475 z M 0,5.379 C 0,5.036 -0.108,4.743 -0.324,4.501 -0.539,4.259 -0.759,4.138 -0.983,4.138 H -3.441 V 0 h -0.984 v 5.241 h 3.196 c 0.164,0 0.246,0.046 0.246,0.138 0,0.092 -0.082,0.138 -0.246,0.138 h -3.196 v 1.104 h 3.442 c 0.224,0 0.444,-0.123 0.659,-0.368 C -0.108,6.008 0,5.716 0,5.379 m 1.229,0 C 1.229,4.656 1.064,4.109 0.733,3.738 0.403,3.367 0.123,3.117 -0.107,2.989 L 1.229,0 H 0.246 l -1.721,3.862 h 0.492 c 0.289,0 0.566,0.149 0.831,0.446 0.265,0.297 0.398,0.654 0.398,1.071 0,0.411 -0.133,0.767 -0.398,1.067 -0.265,0.3 -0.542,0.451 -0.831,0.451 H -4.425 V 8 h 3.442 C -0.421,8 0.089,7.743 0.545,7.228 1.001,6.713 1.229,6.097 1.229,5.379"
       style="fill:#464c4f;fill-opacity:1;fill-rule:nonzero;stroke:none"
       id="path94" /></g><g
     id="g96"
     transform="matrix(1.3333333,0,0,-1.3333333,168.86386,115.3104)"><path
       inkscape:connector-curvature="0"
       d="m 0,0 c 0,1.655 0.737,2.483 2.212,2.483 h 2.95 V 1.379 H 2.212 C 1.393,1.379 0.983,0.92 0.983,0 v -3.034 c 0,-0.92 0.41,-1.38 1.229,-1.38 h 2.95 V -5.517 H 2.212 C 0.737,-5.517 0,-4.69 0,-3.034 Z"
       style="fill:#464c4f;fill-opacity:1;fill-rule:nonzero;stroke:none"
       id="path98" /></g><g
     id="g100"
     transform="matrix(1.3333333,0,0,-1.3333333,170.50253,117.14947)"><path
       inkscape:connector-curvature="0"
       d="m 0,0 v 1.379 c 0,0.736 0.328,1.104 0.983,1.104 h 2.95 V 1.379 H 1.229 C 1.065,1.379 0.983,1.287 0.983,1.103 H 3.196 V 0 Z"
       style="fill:#464c4f;fill-opacity:1;fill-rule:nonzero;stroke:none"
       id="path102" /></g><g
     id="g104"
     transform="matrix(1.3333333,0,0,-1.3333333,170.50253,117.5172)"><path
       inkscape:connector-curvature="0"
       d="M 0,0 H 3.196 V -1.103 H 0.983 c 0,-0.184 0.082,-0.276 0.246,-0.276 H 3.933 V -2.483 H 0.983 C 0.328,-2.483 0,-2.115 0,-1.379 Z"
       style="fill:#464c4f;fill-opacity:1;fill-rule:nonzero;stroke:none"
       id="path106" /></g><g
     id="g108"
     transform="matrix(1.3333333,0,0,-1.3333333,180.33506,113.83907)"><path
       inkscape:connector-curvature="0"
       d="M 0,0 H 2.704 V -1.103 H 0.983 V -6.621 H 0 Z m -0.246,0 v -6.621 h -0.983 v 5.518 H -2.95 V 0 Z m 2.95,0.276 H -2.95 v 1.103 h 5.654 z"
       style="fill:#464c4f;fill-opacity:1;fill-rule:nonzero;stroke:none"
       id="path110" /></g><g
     id="g112"
     transform="matrix(1.3333333,0,0,-1.3333333,190.49533,122.66667)"><path
       inkscape:connector-curvature="0"
       d="M 0,0 H -0.983 L -2.212,2.759 V 0 h -0.984 v 3.862 h 1.475 z M 0,5.379 C 0,5.036 -0.108,4.743 -0.324,4.501 -0.539,4.259 -0.759,4.138 -0.983,4.138 H -3.441 V 0 h -0.984 v 5.241 h 3.196 c 0.164,0 0.246,0.046 0.246,0.138 0,0.092 -0.082,0.138 -0.246,0.138 h -3.196 v 1.104 h 3.442 c 0.224,0 0.444,-0.123 0.659,-0.368 C -0.108,6.008 0,5.716 0,5.379 m 1.229,0 C 1.229,4.656 1.064,4.109 0.733,3.738 0.403,3.367 0.123,3.117 -0.107,2.989 L 1.229,0 H 0.246 l -1.721,3.862 h 0.492 c 0.289,0 0.566,0.149 0.831,0.446 0.265,0.297 0.398,0.654 0.398,1.071 0,0.411 -0.133,0.767 -0.398,1.067 -0.265,0.3 -0.542,0.451 -0.831,0.451 H -4.425 V 8 h 3.442 C -0.421,8 0.089,7.743 0.545,7.228 1.001,6.713 1.229,6.097 1.229,5.379"
       style="fill:#464c4f;fill-opacity:1;fill-rule:nonzero;stroke:none"
       id="path114" /></g><g
     id="g116"
     transform="matrix(1.3333333,0,0,-1.3333333,197.05026,115.67814)"><path
       inkscape:connector-curvature="0"
       d="M 0,0 C 0,0.184 -0.082,0.276 -0.246,0.276 H -0.737 C -0.901,0.276 -0.983,0.184 -0.983,0 v -2.483 c 0,-0.184 0.082,-0.276 0.246,-0.276 h 0.491 C -0.082,-2.759 0,-2.667 0,-2.483 Z M 0.983,0.276 V -2.759 C 0.983,-3.494 0.656,-3.862 0,-3.862 h -0.983 c -0.656,0 -0.983,0.368 -0.983,1.103 v 3.035 c 0,0.735 0.327,1.103 0.983,1.103 H 0 c 0.656,0 0.983,-0.368 0.983,-1.103 m 0.246,0 C 1.229,1.195 0.819,1.655 0,1.655 h -0.983 c -0.82,0 -1.229,-0.46 -1.229,-1.379 v -3.035 c 0,-0.919 0.409,-1.379 1.229,-1.379 H 0 c 0.819,0 1.229,0.46 1.229,1.379 z m 0.983,0 V -2.759 C 2.212,-4.414 1.475,-5.241 0,-5.241 h -0.983 c -1.475,0 -2.213,0.827 -2.213,2.482 v 3.035 c 0,1.655 0.738,2.483 2.213,2.483 H 0 c 1.475,0 2.212,-0.828 2.212,-2.483"
       style="fill:#464c4f;fill-opacity:1;fill-rule:nonzero;stroke:none"
       id="path118" /></g><g
     id="g120"
     transform="matrix(1.3333333,0,0,-1.3333333,142.764,120.19334)"><path
       inkscape:connector-curvature="0"
       d="M 0,0 C -0.008,0.024 -0.013,0.051 -0.02,0.076 H 0 Z M 1.385,0.628 C 1.221,0.628 1.139,0.72 1.139,0.904 V 6.145 H -1.073 V 0.628 c 0,-1.655 0.737,-2.483 2.212,-2.483 h 2.95 v 2.483 z"
       style="fill:#464c4f;fill-opacity:1;fill-rule:nonzero;stroke:none"
       id="path122" /></g><path
     inkscape:connector-curvature="0"
     d="M 148.87066,122.66667 H 151.82 V 112 h -2.94934 z"
     style="fill:#464c4f;fill-opacity:1;fill-rule:nonzero;stroke:none;stroke-width:1.33333325"
     id="path124" /><g
     id="g126"
     transform="matrix(1.3333333,0,0,-1.3333333,156.73706,115.67814)"><path
       inkscape:connector-curvature="0"
       d="M 0,0 H -0.983 V 0.276 H 0 C 0.164,0.276 0.246,0.23 0.246,0.138 0.246,0.046 0.164,0 0,0 m 0,-2.759 h -0.983 v 0.276 H 0 c 0.164,0 0.246,-0.046 0.246,-0.138 C 0.246,-2.713 0.164,-2.759 0,-2.759 M 2.458,0.138 C 2.458,0.855 2.23,1.471 1.774,1.986 1.318,2.501 0.808,2.759 0.246,2.759 h -3.442 v -8 h 3.442 c 0.562,0 1.072,0.257 1.528,0.772 0.456,0.515 0.684,1.131 0.684,1.848 0,0.521 -0.112,0.978 -0.336,1.37 0.224,0.393 0.336,0.856 0.336,1.389"
       style="fill:#464c4f;fill-opacity:1;fill-rule:nonzero;stroke:none"
       id="path128" /></g></svg>
