<?xml version="1.0" encoding="UTF-8" standalone="no"?>
<svg
   xmlns:dc="http://purl.org/dc/elements/1.1/"
   xmlns:cc="http://creativecommons.org/ns#"
   xmlns:rdf="http://www.w3.org/1999/02/22-rdf-syntax-ns#"
   xmlns:svg="http://www.w3.org/2000/svg"
   xmlns="http://www.w3.org/2000/svg"
   viewBox="0 0 341.33334 341.33334"
   height="341.33334"
   width="341.33334"
   xml:space="preserve"
   id="svg2"
   version="1.1"><metadata
     id="metadata8"><rdf:RDF><cc:Work
         rdf:about=""><dc:format>image/svg+xml</dc:format><dc:type
           rdf:resource="http://purl.org/dc/dcmitype/StillImage" /></cc:Work></rdf:RDF></metadata><defs
     id="defs6"><clipPath
       id="clipPath18"
       clipPathUnits="userSpaceOnUse"><path
         id="path16"
         d="M 0,256 H 256 V 0 H 0 Z" /></clipPath><clipPath
       id="clipPath26"
       clipPathUnits="userSpaceOnUse"><path
         id="path24"
         d="M 42.3249,212 H 213.479 V 44 H 42.3249 Z" /></clipPath></defs><g
     transform="matrix(1.3333333,0,0,-1.3333333,0,341.33333)"
     id="g10"><g
       id="g12"><g
         clip-path="url(#clipPath18)"
         id="g14"><g
           id="g20"><g
             id="g22" /><g
             id="g34"><g
               style="opacity:0.5"
               id="g32"
               clip-path="url(#clipPath26)"><g
                 id="g30"
                 transform="translate(172.0091,79.2158)"><path
                   id="path28"
                   style="fill:#ffffff;fill-opacity:1;fill-rule:nonzero;stroke:none"
                   d="M 0,0 C -0.063,0 -0.126,0.001 -0.19,0.004 -2.761,0.107 -4.768,2.344 -4.664,4.991 -4.562,7.576 -2.521,9.6 -0.017,9.6 0.046,9.6 0.109,9.599 0.173,9.597 2.744,9.493 4.751,7.253 4.647,4.603 4.545,2.022 2.504,0 0,0 m -68.009,60.01 c -7.058,0 -12.8,5.74 -12.8,12.795 0,7.061 5.742,12.805 12.8,12.805 7.058,0 12.8,-5.744 12.8,-12.805 0,-7.055 -5.742,-12.795 -12.8,-12.795 M 33.654,1.759 c 0.049,0.558 0.085,1.117 0.107,1.676 0.022,0.557 0.03,1.115 0.025,1.673 l 1.62,0.764 6.064,2.863 -1.759,6.471 c -1.345,4.947 -3.4,11.241 -7.381,16.048 l -3.795,4.581 -5.48,-2.315 -3.045,-1.286 c -1.281,0.951 -2.627,1.811 -4.025,2.57 l -0.062,1.329 -0.272,5.894 -5.711,1.481 c -2.752,0.713 -5.569,1.132 -8.372,1.245 -0.526,0.021 -1.05,0.031 -1.572,0.031 -2.288,0 -4.604,-0.203 -6.886,-0.605 l -5.818,-1.025 -0.732,-5.863 -0.164,-1.31 c -1.446,-0.644 -2.849,-1.389 -4.195,-2.231 l -0.317,0.165 c 4.76,6.449 7.676,14.386 9.731,20.844 l 2.047,6.437 -6.002,3.097 -5.598,2.889 c 0.209,1.86 0.314,3.731 0.314,5.602 0,1.873 -0.105,3.744 -0.314,5.602 l 5.598,2.889 6.002,3.098 -2.047,6.436 c -2.376,7.469 -5.899,16.918 -12.1,23.751 l -3.958,4.362 -5.341,-2.484 -7.703,-3.584 c -3.408,2.597 -7.14,4.756 -11.076,6.409 l -0.436,5.031 -0.511,5.891 -5.781,1.241 c -4.201,0.901 -8.48,1.358 -12.718,1.358 -4.246,0 -8.53,-0.459 -12.735,-1.365 l -5.778,-1.245 -0.508,-5.889 -0.433,-5.03 c -3.933,-1.653 -7.661,-3.81 -11.067,-6.405 l -7.702,3.586 -5.339,2.487 -3.96,-4.36 c -6.184,-6.808 -9.715,-16.268 -12.1,-23.749 l -2.053,-6.439 6.006,-3.1 5.604,-2.892 c -0.21,-1.864 -0.315,-3.734 -0.315,-5.599 0,-1.863 0.105,-3.733 0.315,-5.598 l -5.604,-2.893 -6.006,-3.099 2.053,-6.44 c 2.385,-7.481 5.916,-16.941 12.1,-23.749 l 3.959,-4.358 5.338,2.484 7.702,3.584 c 3.406,-2.596 7.135,-4.753 11.069,-6.406 l 0.433,-5.031 0.508,-5.898 5.789,-1.238 c 4.21,-0.901 8.491,-1.358 12.724,-1.358 4.251,0 8.534,0.46 12.729,1.366 l 5.771,1.247 0.51,5.882 0.436,5.032 c 3.936,1.652 7.666,3.811 11.075,6.408 l 4.681,-2.18 c -2.782,-3.922 -4.631,-8.438 -5.978,-12.188 l -2.265,-6.308 5.813,-3.335 1.568,-0.9 C -33.718,7.25 -33.754,6.692 -33.776,6.133 -33.798,5.578 -33.806,5.02 -33.8,4.463 l -1.624,-0.767 -6.068,-2.864 1.765,-6.474 c 1.35,-4.955 3.41,-11.257 7.382,-16.047 l 3.795,-4.576 5.477,2.313 3.044,1.287 c 1.28,-0.95 2.624,-1.809 4.02,-2.568 l 0.061,-1.327 0.27,-5.901 5.718,-1.479 c 2.757,-0.713 5.574,-1.132 8.374,-1.244 0.526,-0.021 1.05,-0.032 1.572,-0.032 2.29,0 4.607,0.204 6.884,0.607 l 5.811,1.027 0.734,5.855 0.165,1.312 c 1.448,0.644 2.853,1.391 4.201,2.233 l 2.935,-1.528 5.282,-2.75 4.15,4.271 c 4.348,4.475 6.891,10.587 8.62,15.412 l 2.26,6.305 -5.809,3.333 z" /></g></g></g></g><g
           transform="translate(104,131.226)"
           id="g36"><path
             id="path38"
             style="fill:#808080;fill-opacity:1;fill-rule:nonzero;stroke:none"
             d="M 0,0 C -11.487,0 -20.8,9.318 -20.8,20.795 -20.8,32.287 -11.487,41.6 0,41.6 11.487,41.6 20.8,32.287 20.8,20.795 20.8,9.318 11.487,0 0,0 m 42.385,20.774 c 0,3.453 -0.421,6.807 -1.206,10.015 L 52,36.374 c -2.283,7.176 -5.455,15.35 -10.4,20.8 L 29.25,51.428 C 24.419,56.04 18.507,59.524 11.918,61.448 L 11.04,71.594 c -3.562,0.764 -7.249,1.18 -11.04,1.18 -3.791,0 -7.478,-0.416 -11.05,-1.186 l -0.874,-10.145 c -6.578,-1.924 -12.495,-5.408 -17.326,-10.02 l -12.35,5.751 c -4.95,-5.45 -8.112,-13.624 -10.4,-20.8 l 10.821,-5.585 c -0.775,-3.208 -1.201,-6.562 -1.201,-10.015 0,-3.453 0.426,-6.802 1.201,-10.015 L -52,5.174 c 2.288,-7.176 5.45,-15.35 10.4,-20.8 l 12.35,5.746 c 4.831,-4.612 10.748,-8.096 17.326,-10.02 l 0.874,-10.146 c 3.572,-0.764 7.259,-1.18 11.05,-1.18 3.791,0 7.478,0.416 11.04,1.186 l 0.878,10.145 c 6.589,1.924 12.501,5.408 17.332,10.02 l 12.35,-5.751 c 4.945,5.45 8.117,13.624 10.4,20.8 l -10.821,5.585 c 0.785,3.213 1.206,6.562 1.206,10.015" /></g><g
           transform="translate(171.4983,71.226)"
           id="g40"><path
             id="path42"
             style="fill:#666666;fill-opacity:1;fill-rule:nonzero;stroke:none"
             d="M 0,0 C -6.986,0.281 -12.424,6.238 -12.147,13.295 -11.869,20.361 -5.981,25.86 1.005,25.58 7.99,25.299 13.429,19.345 13.152,12.279 12.874,5.222 6.986,-0.281 0,0 m 26.278,11.739 c 0.083,2.123 -0.092,4.196 -0.492,6.188 l 6.716,3.17 c -1.215,4.468 -2.947,9.572 -5.823,13.043 L 19.03,30.909 C 16.204,33.863 12.692,36.15 8.732,37.494 L 8.443,43.753 C 6.295,44.31 4.063,44.656 1.758,44.749 -0.548,44.841 -2.8,44.676 -4.991,44.29 l -0.776,-6.217 c -4.047,-1.023 -7.73,-3.02 -10.779,-5.739 l -7.372,3.838 c -3.142,-3.23 -5.262,-8.179 -6.827,-12.536 l 6.446,-3.698 c -0.548,-1.954 -0.889,-4.006 -0.972,-6.129 -0.084,-2.123 0.095,-4.193 0.488,-6.188 l -6.715,-3.17 c 1.218,-4.468 2.943,-9.572 5.822,-13.044 l 7.649,3.232 c 2.827,-2.954 6.341,-5.241 10.295,-6.585 l 0.286,-6.259 c 2.154,-0.558 4.386,-0.903 6.692,-0.996 2.305,-0.093 4.557,0.073 6.742,0.459 l 0.78,6.217 c 4.053,1.022 7.732,3.02 10.782,5.739 l 7.371,-3.838 c 3.139,3.23 5.266,8.179 6.827,12.536 L 25.302,5.61 c 0.555,1.957 0.892,4.006 0.976,6.129" /></g></g></g></g></svg>