<?xml version="1.0" encoding="UTF-8" standalone="no"?>
<svg
   xmlns:dc="http://purl.org/dc/elements/1.1/"
   xmlns:cc="http://creativecommons.org/ns#"
   xmlns:rdf="http://www.w3.org/1999/02/22-rdf-syntax-ns#"
   xmlns:svg="http://www.w3.org/2000/svg"
   xmlns="http://www.w3.org/2000/svg"
   xmlns:sodipodi="http://sodipodi.sourceforge.net/DTD/sodipodi-0.dtd"
   xmlns:inkscape="http://www.inkscape.org/namespaces/inkscape"
   viewBox="0 0 341.33334 341.33334"
   height="341.33334"
   width="341.33334"
   xml:space="preserve"
   id="svg2"
   version="1.1"
   sodipodi:docname="Sinclair - ZX Spectrum-content.svg"
   inkscape:version="0.92.2 (5c3e80d, 2017-08-06)"><sodipodi:namedview
     pagecolor="#ffffff"
     bordercolor="#666666"
     borderopacity="1"
     objecttolerance="10"
     gridtolerance="10"
     guidetolerance="10"
     inkscape:pageopacity="0"
     inkscape:pageshadow="2"
     inkscape:window-width="1024"
     inkscape:window-height="705"
     id="namedview58"
     showgrid="false"
     inkscape:pagecheckerboard="true"
     inkscape:zoom="0.69140623"
     inkscape:cx="170.66667"
     inkscape:cy="170.66667"
     inkscape:window-x="-8"
     inkscape:window-y="-8"
     inkscape:window-maximized="1"
     inkscape:current-layer="svg2" /><metadata
     id="metadata8"><rdf:RDF><cc:Work
         rdf:about=""><dc:format>image/svg+xml</dc:format><dc:type
           rdf:resource="http://purl.org/dc/dcmitype/StillImage" /><dc:title></dc:title></cc:Work></rdf:RDF></metadata><defs
     id="defs6"><clipPath
       id="clipPath18"
       clipPathUnits="userSpaceOnUse"><path
         id="path16"
         d="M 0,256 H 256 V 0 H 0 Z" /></clipPath><clipPath
       id="clipPath26"
       clipPathUnits="userSpaceOnUse"><path
         id="path24"
         d="M 4,208 H 252 V 48 H 4 Z" /></clipPath></defs><g
     id="g36"
     transform="matrix(1.3333333,0,0,-1.3333333,231.99999,170.66667)"><path
       inkscape:connector-curvature="0"
       d="m 0,0 c -7.728,0 -14,6.268 -14,14 0,7.733 6.272,14 14,14 C 7.728,28 14,21.733 14,14 14,6.268 7.728,0 0,0 m -92,0 c -7.728,0 -14,6.267 -14,14 0,7.733 6.272,14 14,14 7.728,0 14,-6.267 14,-14 C -78,6.267 -84.272,0 -92,0 M 61.407,72 H -153.407 C -158.15,72 -162,68.205 -162,63.529 V -63.529 c 0,-4.676 3.85,-8.471 8.593,-8.471 H -127.63 35.63 61.407 C 66.15,-72 70,-68.205 70,-63.529 V 63.529 C 70,68.205 66.15,72 61.407,72"
       style="fill:#333333;fill-opacity:1;fill-rule:nonzero;stroke:none"
       id="path38" /></g><g
     id="g40"
     transform="matrix(1.3333333,0,0,-1.3333333,231.99999,170.66667)"><path
       inkscape:connector-curvature="0"
       d="m 0,0 c -7.728,0 -14,6.267 -14,14 0,7.733 6.272,14 14,14 C 7.728,28 14,21.733 14,14 14,6.267 7.728,0 0,0 m -92,0 c -7.728,0 -14,6.267 -14,14 0,7.733 6.272,14 14,14 7.728,0 14,-6.267 14,-14 C -78,6.267 -84.272,0 -92,0 M 49.333,60 H -141.333 C -146.117,60 -150,56.058 -150,51.2 v -70.4 c 0,-4.858 3.883,-8.8 8.667,-8.8 H 49.333 c 4.784,0 8.667,3.942 8.667,8.8 v 70.4 c 0,4.858 -3.883,8.8 -8.667,8.8"
       style="fill:#d9d9d9;fill-opacity:1;fill-rule:nonzero;stroke:none"
       id="path42" /></g><g
     id="g44"
     transform="matrix(1.3333333,0,0,-1.3333333,266.37039,240)"><path
       inkscape:connector-curvature="0"
       d="m 0,0 c 0,0 0,4 -4.235,4 h -135.098 c -4.223,0 -4.223,-4 -4.223,-4 l -4.222,-20 h 152 z"
       style="fill:#404040;fill-opacity:1;fill-rule:nonzero;stroke:none"
       id="path46" /></g><g
     id="g48"
     transform="matrix(1.3333333,0,0,-1.3333333,95.999998,261.33333)"><path
       inkscape:connector-curvature="0"
       d="M 0,0 C -2.212,0 -4,1.788 -4,4 -4,6.212 -2.212,8 0,8 2.212,8 4,6.212 4,4 4,1.788 2.212,0 0,0"
       style="fill:#0d0d0d;fill-opacity:1;fill-rule:nonzero;stroke:none"
       id="path50" /></g><g
     id="g52"
     transform="matrix(1.3333333,0,0,-1.3333333,122.66666,256)"><path
       inkscape:connector-curvature="0"
       d="M 0,0 C -2.212,0 -4,1.788 -4,4 -4,6.212 -2.212,8 0,8 2.212,8 4,6.212 4,4 4,1.788 2.212,0 0,0"
       style="fill:#0d0d0d;fill-opacity:1;fill-rule:nonzero;stroke:none"
       id="path54" /></g><g
     id="g56"
     transform="matrix(1.3333333,0,0,-1.3333333,170.66666,250.66667)"><path
       inkscape:connector-curvature="0"
       d="M 0,0 C -2.212,0 -4,1.788 -4,4 -4,6.212 -2.212,8 0,8 2.212,8 4,6.212 4,4 4,1.788 2.212,0 0,0"
       style="fill:#0d0d0d;fill-opacity:1;fill-rule:nonzero;stroke:none"
       id="path58" /></g><g
     id="g60"
     transform="matrix(1.3333333,0,0,-1.3333333,218.66666,256)"><path
       inkscape:connector-curvature="0"
       d="M 0,0 C -2.212,0 -4,1.788 -4,4 -4,6.212 -2.212,8 0,8 2.212,8 4,6.212 4,4 4,1.788 2.212,0 0,0"
       style="fill:#0d0d0d;fill-opacity:1;fill-rule:nonzero;stroke:none"
       id="path62" /></g><g
     id="g64"
     transform="matrix(1.3333333,0,0,-1.3333333,245.33333,261.33333)"><path
       inkscape:connector-curvature="0"
       d="M 0,0 C -2.212,0 -4,1.788 -4,4 -4,6.212 -2.212,8 0,8 2.212,8 4,6.212 4,4 4,1.788 2.212,0 0,0"
       style="fill:#0d0d0d;fill-opacity:1;fill-rule:nonzero;stroke:none"
       id="path66" /></g><g
     id="g68"
     transform="matrix(1.3333333,0,0,-1.3333333,24.046533,261.33293)"><path
       inkscape:connector-curvature="0"
       d="M 0,0 C -1.104,-0.019 -2.015,0.861 -2.035,1.965 -2.054,3.069 -1.174,3.98 -0.07,3.999 1.034,4.019 1.946,3.138 1.965,2.035 1.984,0.931 1.104,0.019 0,0"
       style="fill:#191919;fill-opacity:1;fill-rule:nonzero;stroke:none"
       id="path70" /></g><g
     id="g72"
     transform="matrix(1.3333333,0,0,-1.3333333,23.999999,85.333336)"><path
       inkscape:connector-curvature="0"
       d="M 0,0 C -1.104,0 -2,0.896 -2,2 -2,3.104 -1.104,4 0,4 1.104,4 2,3.104 2,2 2,0.896 1.104,0 0,0"
       style="fill:#191919;fill-opacity:1;fill-rule:nonzero;stroke:none"
       id="path74" /></g><g
     id="g76"
     transform="matrix(1.3333333,0,0,-1.3333333,317.33333,261.33333)"><path
       inkscape:connector-curvature="0"
       d="M 0,0 C -1.104,0 -2,0.896 -2,2 -2,3.104 -1.104,4 0,4 1.104,4 2,3.104 2,2 2,0.896 1.104,0 0,0"
       style="fill:#191919;fill-opacity:1;fill-rule:nonzero;stroke:none"
       id="path78" /></g><g
     id="g80"
     transform="matrix(1.3333333,0,0,-1.3333333,317.33333,85.333336)"><path
       inkscape:connector-curvature="0"
       d="M 0,0 C -1.104,0 -2,0.896 -2,2 -2,3.104 -1.104,4 0,4 1.104,4 2,3.104 2,2 2,0.896 1.104,0 0,0"
       style="fill:#191919;fill-opacity:1;fill-rule:nonzero;stroke:none"
       id="path82" /></g><g
     id="g84"
     transform="matrix(1.3333333,0,0,-1.3333333,109.33333,133.33334)"><path
       inkscape:connector-curvature="0"
       d="m 0,0 c -7.728,0 -14,-6.267 -14,-14 0,-7.733 6.272,-14 14,-14 7.728,0 14,6.267 14,14 C 14,-6.267 7.728,0 0,0 m 0,-4 c 5.514,0 10,-4.486 10,-10 0,-5.514 -4.486,-10 -10,-10 -5.514,0 -10,4.486 -10,10 0,5.514 4.486,10 10,10"
       style="fill:#0d0d0d;fill-opacity:1;fill-rule:nonzero;stroke:none"
       id="path86" /></g><g
     id="g88"
     transform="matrix(1.3333333,0,0,-1.3333333,231.99999,133.33334)"><path
       inkscape:connector-curvature="0"
       d="m 0,0 c -7.728,0 -14,-6.267 -14,-14 0,-7.733 6.272,-14 14,-14 7.728,0 14,6.267 14,14 C 14,-6.267 7.728,0 0,0 m 0,-4 c 5.514,0 10,-4.486 10,-10 0,-5.514 -4.486,-10 -10,-10 -5.514,0 -10,4.486 -10,10 0,5.514 4.486,10 10,10"
       style="fill:#0d0d0d;fill-opacity:1;fill-rule:nonzero;stroke:none"
       id="path90" /></g><g
     id="g92"
     transform="matrix(1.3333333,0,0,-1.3333333,208.00013,165.33333)"><path
       inkscape:connector-curvature="0"
       d="M 0,0 C 0,-2.212 -2.086,-4 -4.667,-4 H -51.333 C -53.914,-4 -56,-2.212 -56,0 v 16 c 0,2.212 2.086,4 4.667,4 H -4.667 C -2.086,20 0,18.212 0,16 Z"
       style="fill:#808080;fill-opacity:1;fill-rule:nonzero;stroke:none"
       id="path94" /></g><g
     id="g96"
     transform="matrix(1.3333333,0,0,-1.3333333,133.33333,144.00013)"><path
       inkscape:connector-curvature="0"
       d="m 0,0 v -16 c 0,-2.212 2.486,-4 5.561,-4 H 8.298 C 10.65,-16.346 12,-12.291 12,-8 12,-3.709 10.65,0.346 8.298,4 H 5.561 C 2.486,4 0,2.212 0,0"
       style="fill:#0d0d0d;fill-opacity:1;fill-rule:nonzero;stroke:none"
       id="path98" /></g><g
     id="g100"
     transform="matrix(1.3333333,0,0,-1.3333333,303.99999,112)"><path
       inkscape:connector-curvature="0"
       d="m 0,0 -32,-72 h 4 L 0,-8 h 4 v 8 z"
       style="fill:#ff0000;fill-opacity:1;fill-rule:nonzero;stroke:none"
       id="path102" /></g><g
     id="g104"
     transform="matrix(1.3333333,0,0,-1.3333333,303.99999,122.66667)"><path
       inkscape:connector-curvature="0"
       d="m 0,0 -28,-64 h 4 L 0,-8 h 4 v 8 z"
       style="fill:#ffff00;fill-opacity:1;fill-rule:nonzero;stroke:none"
       id="path106" /></g><g
     id="g108"
     transform="matrix(1.3333333,0,0,-1.3333333,303.99999,133.33334)"><path
       inkscape:connector-curvature="0"
       d="m 0,0 -24,-56 h 4 L 0,-8 h 4 v 8 z"
       style="fill:#00ff00;fill-opacity:1;fill-rule:nonzero;stroke:none"
       id="path110" /></g><g
     id="g112"
     transform="matrix(1.3333333,0,0,-1.3333333,303.99999,144)"><path
       inkscape:connector-curvature="0"
       d="m 0,0 -20,-48 h 4 L 0,-8 h 4 v 8 z"
       style="fill:#2c8bbf;fill-opacity:1;fill-rule:nonzero;stroke:none"
       id="path114" /></g></svg>