<?xml version="1.0" encoding="UTF-8" standalone="no"?>
<svg
   xmlns:dc="http://purl.org/dc/elements/1.1/"
   xmlns:cc="http://creativecommons.org/ns#"
   xmlns:rdf="http://www.w3.org/1999/02/22-rdf-syntax-ns#"
   xmlns:svg="http://www.w3.org/2000/svg"
   xmlns="http://www.w3.org/2000/svg"
   xmlns:sodipodi="http://sodipodi.sourceforge.net/DTD/sodipodi-0.dtd"
   xmlns:inkscape="http://www.inkscape.org/namespaces/inkscape"
   viewBox="0 0 341.33334 341.33334"
   height="341.33334"
   width="341.33334"
   xml:space="preserve"
   id="svg2"
   version="1.1"
   sodipodi:docname="Sinclair - ZX 81-content.svg"
   inkscape:version="0.92.2 (5c3e80d, 2017-08-06)"><sodipodi:namedview
     pagecolor="#ffffff"
     bordercolor="#666666"
     borderopacity="1"
     objecttolerance="10"
     gridtolerance="10"
     guidetolerance="10"
     inkscape:pageopacity="0"
     inkscape:pageshadow="2"
     inkscape:window-width="1024"
     inkscape:window-height="705"
     id="namedview52"
     showgrid="false"
     inkscape:pagecheckerboard="true"
     inkscape:zoom="0.34570313"
     inkscape:cx="476.38334"
     inkscape:cy="-40.602588"
     inkscape:window-x="-8"
     inkscape:window-y="-8"
     inkscape:window-maximized="1"
     inkscape:current-layer="svg2"
     inkscape:snap-object-midpoints="true" /><metadata
     id="metadata8"><rdf:RDF><cc:Work
         rdf:about=""><dc:format>image/svg+xml</dc:format><dc:type
           rdf:resource="http://purl.org/dc/dcmitype/StillImage" /><dc:title /></cc:Work></rdf:RDF></metadata><defs
     id="defs6"><clipPath
       id="clipPath18"
       clipPathUnits="userSpaceOnUse"><path
         id="path16"
         d="M 0,256 H 256 V 0 H 0 Z" /></clipPath><clipPath
       id="clipPath26"
       clipPathUnits="userSpaceOnUse"><path
         id="path24"
         d="M 4,208 H 252 V 48 H 4 Z" /></clipPath></defs><path
     style="fill:none;fill-opacity:1;stroke:#f2f2f2;stroke-width:6.97064734;stroke-linecap:round;stroke-miterlimit:4;stroke-dasharray:none;stroke-opacity:1"
     d="M 127.26923,152 A 17.935902,17.935902 0 0 1 109.33333,169.9359 17.935902,17.935902 0 0 1 91.397427,152 17.935902,17.935902 0 0 1 109.33333,134.0641 17.935902,17.935902 0 0 1 127.26923,152 Z"
     id="path2833"
     inkscape:connector-curvature="0" /><g
     id="g1389"
     transform="translate(122.66666,2.6866832e-6)"><rect
       style="fill:#f9f9f9;fill-opacity:1;stroke:#f9f9f9;stroke-width:1;stroke-miterlimit:4;stroke-dasharray:none;stroke-opacity:1"
       id="rect1365"
       width="4.8096719"
       height="2.9725404"
       x="95.599869"
       y="151.04645"
       ry="0" /><rect
       ry="0"
       y="151.04645"
       x="117.81067"
       height="2.9725404"
       width="4.8096719"
       id="rect1367"
       style="fill:#f9f9f9;fill-opacity:1;stroke:#f9f9f9;stroke-width:1;stroke-miterlimit:4;stroke-dasharray:none;stroke-opacity:1" /><rect
       ry="0"
       y="16.210491"
       x="172.36874"
       height="2.9725406"
       width="4.8096719"
       id="rect1369"
       style="fill:#f9f9f9;fill-opacity:1;stroke:#f9f9f9;stroke-width:1;stroke-miterlimit:4;stroke-dasharray:none;stroke-opacity:1"
       transform="rotate(48.548166)" /><rect
       style="fill:#f9f9f9;fill-opacity:1;stroke:#f9f9f9;stroke-width:1;stroke-miterlimit:4;stroke-dasharray:none;stroke-opacity:1"
       id="rect1371"
       width="4.8096719"
       height="2.9725406"
       x="195.93159"
       y="19.208542"
       ry="0"
       transform="rotate(48.548166)" /><rect
       transform="rotate(-53.045221)"
       style="fill:#f9f9f9;fill-opacity:1;stroke:#f9f9f9;stroke-width:1;stroke-miterlimit:4;stroke-dasharray:none;stroke-opacity:1"
       id="rect1373"
       width="4.8096719"
       height="2.9725406"
       x="-70.603027"
       y="179.00327"
       ry="0" /><rect
       transform="rotate(-53.045221)"
       ry="0"
       y="175.80682"
       x="-46.796963"
       height="2.9725406"
       width="4.8096719"
       id="rect1375"
       style="fill:#f9f9f9;fill-opacity:1;stroke:#f9f9f9;stroke-width:1;stroke-miterlimit:4;stroke-dasharray:none;stroke-opacity:1" /><path
       style="fill:none;fill-opacity:1;stroke:#f2f2f2;stroke-width:6.97064734;stroke-linecap:round;stroke-miterlimit:4;stroke-dasharray:none;stroke-opacity:1"
       d="M 127.26923,152 A 17.935902,17.935902 0 0 1 109.33333,169.9359 17.935902,17.935902 0 0 1 91.397427,152 17.935902,17.935902 0 0 1 109.33333,134.0641 17.935902,17.935902 0 0 1 127.26923,152 Z"
       id="path1377"
       inkscape:connector-curvature="0" /><circle
       r="13.719664"
       cy="152"
       cx="109.33333"
       id="circle1379"
       style="fill:none;fill-opacity:1;stroke:#f9f9f9;stroke-width:1.67400002;stroke-linecap:round;stroke-miterlimit:4;stroke-dasharray:none;stroke-opacity:1" /></g><g
     id="g22"
     transform="matrix(1.3333333,0,0,-1.3333333,0,341.33333)" /><path
     style="fill:#333333;fill-opacity:1;fill-rule:nonzero;stroke:none;stroke-width:1.33333325"
     d="M 27.457031 74.666016 C 21.133032 74.666016 16 79.726266 16 85.960938 L 16 255.37109 C 16 261.60576 21.133032 266.66602 27.457031 266.66602 L 61.826172 266.66602 L 279.50586 266.66602 L 313.87695 266.66602 C 320.20095 266.66602 325.33398 261.60576 325.33398 255.37109 L 325.33398 85.960938 C 325.33398 79.72627 320.20095 74.666016 313.87695 74.666016 L 27.457031 74.666016 z M 109.33398 133.33398 C 119.63798 133.33398 128 141.68934 128 152 C 128 162.31067 119.63798 170.66602 109.33398 170.66602 C 99.029997 170.66602 90.666016 162.31067 90.666016 152 C 90.666016 141.68934 99.029997 133.33398 109.33398 133.33398 z M 232 133.33398 C 242.304 133.33398 250.66602 141.68934 250.66602 152 C 250.66602 162.30934 242.304 170.66602 232 170.66602 C 221.696 170.66602 213.33398 162.30934 213.33398 152 C 213.33398 141.68934 221.696 133.33398 232 133.33398 z M 139.55664 138.66602 L 201.77734 138.66602 C 205.21868 138.66602 208 141.05066 208 144 L 208 165.33398 C 208 168.28331 205.21868 170.66602 201.77734 170.66602 L 139.55664 170.66602 C 136.11531 170.66602 133.33398 168.28331 133.33398 165.33398 L 133.33398 144 C 133.33398 141.05066 136.11531 138.66602 139.55664 138.66602 z M 120.62109 245.55273 L 124.71289 245.55273 C 126.41263 245.55273 127.7793 246.92135 127.7793 248.62109 L 127.7793 252.71289 C 127.7793 254.41263 126.41263 255.7793 124.71289 255.7793 L 120.62109 255.7793 C 118.92135 255.7793 117.55273 254.41263 117.55273 252.71289 L 117.55273 248.62109 C 117.55273 246.92135 118.92135 245.55273 120.62109 245.55273 z M 216.62109 245.55273 L 220.71289 245.55273 C 222.41263 245.55273 223.7793 246.92135 223.7793 248.62109 L 223.7793 252.71289 C 223.7793 254.41263 222.41263 255.7793 220.71289 255.7793 L 216.62109 255.7793 C 214.92135 255.7793 213.55273 254.41263 213.55273 252.71289 L 213.55273 248.62109 C 213.55273 246.92135 214.92135 245.55273 216.62109 245.55273 z M 96 250.66602 C 98.949333 250.66602 101.33398 253.05066 101.33398 256 C 101.33398 258.94933 98.949333 261.33398 96 261.33398 C 93.050667 261.33398 90.666016 258.94933 90.666016 256 C 90.666016 253.05066 93.050667 250.66602 96 250.66602 z M 245.33398 250.66602 C 248.28331 250.66602 250.66602 253.05066 250.66602 256 C 250.66602 258.94933 248.28331 261.33398 245.33398 261.33398 C 242.38465 261.33398 240 258.94933 240 256 C 240 253.05066 242.38465 250.66602 245.33398 250.66602 z "
     id="path38" /><path
     style="fill:#cccccc;fill-opacity:1;fill-rule:nonzero;stroke:none;stroke-width:1.33333325"
     d="M 43.556641 90.666016 C 37.177974 90.666016 32 95.923055 32 102.40039 L 32 196.26758 C 32 202.74491 37.177974 208 43.556641 208 L 297.77734 208 C 304.15601 208 309.33398 202.74491 309.33398 196.26758 L 309.33398 102.40039 C 309.33398 95.923055 304.15601 90.666016 297.77734 90.666016 L 43.556641 90.666016 z M 109.33398 133.33398 C 119.63798 133.33398 128 141.68934 128 152 C 128 162.31067 119.63798 170.66602 109.33398 170.66602 C 99.029989 170.66602 90.666016 162.31067 90.666016 152 C 90.666016 141.68934 99.029989 133.33398 109.33398 133.33398 z M 232 133.33398 C 242.304 133.33398 250.66602 141.68934 250.66602 152 C 250.66602 162.31067 242.304 170.66602 232 170.66602 C 221.696 170.66602 213.33398 162.31067 213.33398 152 C 213.33398 141.68934 221.696 133.33398 232 133.33398 z M 139.55664 138.66602 L 201.77734 138.66602 C 201.99243 138.66602 202.20465 138.67517 202.41406 138.69336 C 202.83288 138.72973 203.239 138.80247 203.62891 138.90625 C 203.89368 138.97673 204.14825 139.06525 204.39648 139.16406 C 204.44909 139.18498 204.50094 139.20639 204.55273 139.22852 C 204.79659 139.33279 205.03354 139.44638 205.25781 139.57617 C 205.44678 139.68554 205.62741 139.8056 205.80078 139.93164 C 205.8537 139.97011 205.90371 140.01083 205.95508 140.05078 C 206.0764 140.14511 206.1924 140.24351 206.30469 140.3457 C 206.35706 140.39335 206.40867 140.44095 206.45898 140.49023 C 206.56426 140.59338 206.66389 140.7006 206.75977 140.81055 C 206.80138 140.85826 206.845 140.9042 206.88477 140.95312 C 207.01622 141.11488 207.13973 141.28089 207.25 141.45508 C 207.36094 141.63032 207.45703 141.81355 207.54492 142 C 207.56823 142.04941 207.58776 142.10026 207.60938 142.15039 C 207.66757 142.28546 207.7201 142.42251 207.76562 142.5625 C 207.78854 142.6329 207.80852 142.70385 207.82812 142.77539 C 207.86713 142.91789 207.89842 143.06231 207.92383 143.20898 C 207.9328 143.26067 207.9459 143.31112 207.95312 143.36328 C 207.98202 143.57212 208 143.78441 208 144 L 208 160.05859 L 208 165.33398 C 208 167.54598 206.43524 169.4393 204.20117 170.24805 C 203.82883 170.38284 203.4386 170.48765 203.0332 170.55859 C 202.6278 170.62951 202.20751 170.66602 201.77734 170.66602 L 139.55664 170.66602 C 139.34156 170.66602 139.12933 170.65684 138.91992 170.63867 C 138.71051 170.62049 138.50348 170.59407 138.30078 170.55859 C 137.89538 170.48765 137.50516 170.38284 137.13281 170.24805 C 136.76103 170.11346 136.40675 169.94702 136.07617 169.75586 C 136.07617 169.75586 136.07422 169.75586 136.07422 169.75586 C 135.57814 169.46881 135.13387 169.12112 134.75391 168.72656 C 134.62682 168.59459 134.50655 168.45862 134.39453 168.31641 C 134.17143 168.03316 133.97939 167.73068 133.82227 167.41211 C 133.82227 167.41211 133.82227 167.41016 133.82227 167.41016 C 133.7439 167.25113 133.67367 167.08836 133.61328 166.92188 C 133.61328 166.92188 133.61328 166.91992 133.61328 166.91992 C 133.59938 166.88154 133.59104 166.84148 133.57812 166.80273 C 133.48726 166.53011 133.41832 166.24965 133.37891 165.96094 C 133.37515 165.93332 133.3685 165.90665 133.36523 165.87891 C 133.34402 165.69943 133.33398 165.51832 133.33398 165.33398 L 133.33398 160.05859 L 133.33398 144 C 133.33398 143.81567 133.34402 143.6326 133.36523 143.45312 C 133.40766 143.09418 133.49223 142.74628 133.61328 142.41211 C 133.85539 141.74371 134.247 141.13219 134.75391 140.60547 C 134.95754 140.39388 135.18301 140.19987 135.42188 140.01758 C 135.43753 140.00572 135.45295 139.99415 135.46875 139.98242 C 135.71056 139.80157 135.96953 139.63764 136.24219 139.49023 C 136.24509 139.48867 136.2471 139.48594 136.25 139.48438 C 136.25558 139.48137 136.26198 139.47955 136.26758 139.47656 C 136.46209 139.37253 136.66293 139.27686 136.87109 139.19141 C 136.88217 139.18687 136.89318 139.18222 136.9043 139.17773 C 137.11926 139.09083 137.3407 139.01492 137.56836 138.94922 C 137.64926 138.92587 137.73014 138.90336 137.8125 138.88281 C 138.16997 138.79364 138.53883 138.72645 138.91992 138.69336 C 139.12933 138.67517 139.34156 138.66602 139.55664 138.66602 z "
     id="path42" /><path
     style="opacity:1;vector-effect:none;fill:#ffffff;fill-opacity:1;stroke:#ffffff;stroke-width:1.65482724;stroke-linecap:round;stroke-linejoin:round;stroke-miterlimit:4;stroke-dasharray:none;stroke-dashoffset:0;stroke-opacity:1"
     d="M 102.7207 130.77148 C 93.657135 132.41675 86.941035 142.7883 86.9375 152 C 86.945 161.20857 93.660213 171.5838 102.7207 173.22852 L 238.36328 173.22852 C 247.39879 172.27343 254.38423 161.08584 254.39453 152 C 254.39153 142.9086 247.40432 131.72716 238.36328 130.77148 L 102.7207 130.77148 z M 109.33398 134.06445 C 119.23943 134.06464 127.26934 142.09455 127.26953 152 C 127.26934 161.90545 119.23943 169.93536 109.33398 169.93555 C 99.427774 169.93643 91.396678 161.90621 91.396484 152 C 91.396678 142.09379 99.427774 134.06357 109.33398 134.06445 z M 232 135.27539 C 241.23668 135.27555 248.72445 142.76332 248.72461 152 C 248.72445 161.23668 241.23668 168.72445 232 168.72461 C 222.76332 168.72445 215.27555 161.23668 215.27539 152 C 215.27555 142.76332 222.76332 135.27555 232 135.27539 z M 139.55664 138.66602 L 201.77734 138.66602 C 205.21868 138.66602 208 141.05066 208 144 L 208 160.05859 L 133.33398 160.05859 L 133.33398 144 C 133.33398 141.05066 136.1153 138.66602 139.55664 138.66602 z "
     id="rect1145" /><path
     style="fill:#4d4d4d;fill-opacity:1;fill-rule:nonzero;stroke:none;stroke-width:1.33333325"
     d="M 80.59375 234.66602 C 74.963084 234.66602 74.962891 240 74.962891 240 L 69.333984 266.66602 L 272 266.66602 L 266.37109 240 C 266.37109 240 266.37128 234.66602 260.72461 234.66602 L 80.59375 234.66602 z M 120.62109 245.55273 L 124.71289 245.55273 C 126.41263 245.55273 127.7793 246.92135 127.7793 248.62109 L 127.7793 252.71289 C 127.7793 254.41263 126.41263 255.7793 124.71289 255.7793 L 120.62109 255.7793 C 118.92135 255.7793 117.55273 254.41263 117.55273 252.71289 L 117.55273 248.62109 C 117.55273 246.92135 118.92135 245.55273 120.62109 245.55273 z M 216.62109 245.55273 L 220.71289 245.55273 C 222.41263 245.55273 223.7793 246.92135 223.7793 248.62109 L 223.7793 252.71289 C 223.7793 254.41263 222.41263 255.7793 220.71289 255.7793 L 216.62109 255.7793 C 214.92135 255.7793 213.55273 254.41263 213.55273 252.71289 L 213.55273 248.62109 C 213.55273 246.92135 214.92135 245.55273 216.62109 245.55273 z M 96 250.66602 C 98.949333 250.66602 101.33398 253.05066 101.33398 256 C 101.33398 258.94933 98.949333 261.33398 96 261.33398 C 93.050667 261.33398 90.666016 258.94933 90.666016 256 C 90.666016 253.05066 93.050667 250.66602 96 250.66602 z M 245.33398 250.66602 C 248.28331 250.66602 250.66602 253.05066 250.66602 256 C 250.66602 258.94933 248.28331 261.33398 245.33398 261.33398 C 242.38465 261.33398 240 258.94933 240 256 C 240 253.05066 242.38465 250.66602 245.33398 250.66602 z "
     id="path46" /><path
     id="path58"
     style="fill:#3c3c3c;fill-opacity:1;fill-rule:nonzero;stroke:none;stroke-width:1.33333325"
     d="m 170.66666,250.66667 c -2.94933,0 -5.33333,-2.384 -5.33333,-5.33333 0,-2.94934 2.384,-5.33334 5.33333,-5.33334 2.94933,0 5.33333,2.384 5.33333,5.33334 0,2.94933 -2.384,5.33333 -5.33333,5.33333"
     inkscape:connector-curvature="0" /><path
     id="path70"
     style="fill:#000000;fill-opacity:1;fill-rule:nonzero;stroke:none;stroke-width:1.33333325"
     d="m 24.046533,261.33293 c -1.472,0.0253 -2.686667,-1.148 -2.713333,-2.62 -0.02533,-1.472 1.148,-2.68667 2.62,-2.712 1.472,-0.0267 2.688,1.148 2.713333,2.61867 0.02533,1.472 -1.148,2.688 -2.62,2.71333"
     inkscape:connector-curvature="0" /><path
     id="path74"
     style="fill:#000000;fill-opacity:1;fill-rule:nonzero;stroke:none;stroke-width:1.33333325"
     d="m 23.999999,85.333336 c -1.472,0 -2.666667,-1.194667 -2.666667,-2.666667 0,-1.472 1.194667,-2.666666 2.666667,-2.666666 1.472,0 2.666667,1.194666 2.666667,2.666666 0,1.472 -1.194667,2.666667 -2.666667,2.666667"
     inkscape:connector-curvature="0" /><path
     id="path78"
     style="fill:#000000;fill-opacity:1;fill-rule:nonzero;stroke:none;stroke-width:1.33333325"
     d="m 317.33333,261.33333 c -1.472,0 -2.66667,-1.19467 -2.66667,-2.66667 0,-1.472 1.19467,-2.66666 2.66667,-2.66666 1.472,0 2.66667,1.19466 2.66667,2.66666 0,1.472 -1.19467,2.66667 -2.66667,2.66667"
     inkscape:connector-curvature="0" /><path
     id="path82"
     style="fill:#000000;fill-opacity:1;fill-rule:nonzero;stroke:none;stroke-width:1.33333325"
     d="m 317.33333,85.333336 c -1.472,0 -2.66667,-1.194667 -2.66667,-2.666667 0,-1.472 1.19467,-2.666666 2.66667,-2.666666 1.472,0 2.66667,1.194666 2.66667,2.666666 0,1.472 -1.19467,2.666667 -2.66667,2.666667"
     inkscape:connector-curvature="0" /><path
     id="path98"
     style="fill:#b80000;fill-opacity:1;fill-rule:nonzero;stroke:none;stroke-width:1.33333325"
     d="M 309.33333,106.66667 H 32.000004 V 96.000004 c 0,-2.945334 2.388,-5.333334 5.333333,-5.333334 H 304 c 2.94533,0 5.33333,2.388 5.33333,5.333334 z"
     inkscape:connector-curvature="0" /><rect
     style="opacity:1;vector-effect:none;fill:#800000;fill-opacity:1;stroke:none;stroke-width:3.93285441;stroke-linecap:butt;stroke-linejoin:miter;stroke-miterlimit:4;stroke-dasharray:none;stroke-dashoffset:0;stroke-opacity:1"
     id="rect869"
     width="26.305086"
     height="33.988701"
     x="257.80789"
     y="90.666664" /><text
     xml:space="preserve"
     style="font-style:normal;font-weight:normal;font-size:32px;line-height:1.25;font-family:sans-serif;letter-spacing:0px;word-spacing:0px;fill:#d9d9d9;fill-opacity:1;stroke:none"
     x="260.02295"
     y="119.29382"
     id="text873"><tspan
       sodipodi:role="line"
       id="tspan871"
       x="260.02295"
       y="119.29382">A</tspan></text>
<g
     id="g865"
     transform="translate(8.8585825,69.977403)"><path
       id="path100"
       style="fill:#000000;fill-opacity:1;fill-rule:nonzero;stroke:none;stroke-width:1.33333325"
       d="m 105.80808,42.440756 h 1.77734 v 10.66666 h -1.77734 z"
       inkscape:connector-curvature="0" /><path
       id="path102-9"
       style="fill:#000000;fill-opacity:1;fill-rule:nonzero;stroke:none;stroke-width:1.33333325"
       d="m 109.36408,45.488756 h 1.77734 v 7.61866 h -1.77734 z m 0,-3.048 h 1.77734 v 1.524 h -1.77734 z"
       inkscape:connector-curvature="0" /><path
       id="path104"
       style="fill:#000000;fill-opacity:1;fill-rule:nonzero;stroke:none;stroke-width:1.33333325"
       d="m 127.14142,47.012746 h -12.444 v 4.572 h 12.444 z m -14.22267,6.09467 v -10.66666 h 1.77867 v 3.048 h 14.22133 v 7.61866 z"
       inkscape:connector-curvature="0" /><path
       inkscape:connector-curvature="0"
       d="m 130.69675,53.107416 v -7.61866 h 16 v 1.52399 h -14.22267 v 6.09467 z"
       style="fill:#000000;fill-opacity:1;fill-rule:nonzero;stroke:none;stroke-width:1.33333325"
       id="path108" /><path
       id="path110-3"
       style="fill:#000000;fill-opacity:1;fill-rule:nonzero;stroke:none;stroke-width:1.33333325"
       d="m 162.69608,47.012746 h -12.444 v 1.524 h 12.444 z m 1.77867,4.57067 v 1.524 h -16 v -7.61866 h 16 v 4.57066 h -14.22267 v 1.524 z"
       inkscape:connector-curvature="0" /><path
       inkscape:connector-curvature="0"
       d="m 182.25168,51.583546 v 1.524 h -16 v -10.66666 h 1.77733 v 3.048 h 14.22267 v 1.52266 h -14.22267 v 4.572 z"
       style="fill:#000000;fill-opacity:1;fill-rule:nonzero;stroke:none;stroke-width:1.33333325"
       id="path114-6" /><path
       inkscape:connector-curvature="0"
       d="m 184.02955,53.107416 v -7.61866 h 16 v 1.52399 h -14.22267 v 6.09467 z"
       style="fill:#000000;fill-opacity:1;fill-rule:nonzero;stroke:none;stroke-width:1.33333325"
       id="path118" /><path
       id="path120"
       style="fill:#000000;fill-opacity:1;fill-rule:nonzero;stroke:none;stroke-width:1.33333325"
       d="m 216.03074,47.012746 h -12.44532 v 4.572 h 12.44532 z m -14.22399,-1.52399 h 16.00132 v 7.61866 h -16.00132 z"
       inkscape:connector-curvature="0" /></g><path
     style="fill:#0d0d0d;fill-opacity:1;fill-rule:nonzero;stroke:none;stroke-width:1.33333325"
     d="M 140.74805 138.66602 C 136.64805 138.66602 133.33398 141.05067 133.33398 144 L 133.33398 160.05859 L 148.77539 160.05859 C 149.12986 158.29692 149.33398 156.49957 149.33398 154.66602 C 149.33398 148.94468 147.53248 143.53802 144.39648 138.66602 L 140.74805 138.66602 z "
     id="path102" /><rect
     style="fill:#f9f9f9;fill-opacity:1;stroke:#f9f9f9;stroke-width:1;stroke-miterlimit:4;stroke-dasharray:none;stroke-opacity:1"
     id="rect3609"
     width="4.8096719"
     height="2.9725404"
     x="95.599869"
     y="151.04645"
     ry="0" /><rect
     ry="0"
     y="151.04645"
     x="117.81067"
     height="2.9725404"
     width="4.8096719"
     id="rect3611"
     style="fill:#f9f9f9;fill-opacity:1;stroke:#f9f9f9;stroke-width:1;stroke-miterlimit:4;stroke-dasharray:none;stroke-opacity:1" /><rect
     ry="0"
     y="16.210491"
     x="172.36874"
     height="2.9725406"
     width="4.8096719"
     id="rect3613"
     style="fill:#f9f9f9;fill-opacity:1;stroke:#f9f9f9;stroke-width:1;stroke-miterlimit:4;stroke-dasharray:none;stroke-opacity:1"
     transform="rotate(48.548166)" /><rect
     style="fill:#f9f9f9;fill-opacity:1;stroke:#f9f9f9;stroke-width:1;stroke-miterlimit:4;stroke-dasharray:none;stroke-opacity:1"
     id="rect3615"
     width="4.8096719"
     height="2.9725406"
     x="195.93159"
     y="19.208542"
     ry="0"
     transform="rotate(48.548166)" /><rect
     transform="rotate(-53.045221)"
     style="fill:#f9f9f9;fill-opacity:1;stroke:#f9f9f9;stroke-width:1;stroke-miterlimit:4;stroke-dasharray:none;stroke-opacity:1"
     id="rect3617"
     width="4.8096719"
     height="2.9725406"
     x="-70.603027"
     y="179.00327"
     ry="0" /><rect
     transform="rotate(-53.045221)"
     ry="0"
     y="175.80682"
     x="-46.796963"
     height="2.9725406"
     width="4.8096719"
     id="rect3619"
     style="fill:#f9f9f9;fill-opacity:1;stroke:#f9f9f9;stroke-width:1;stroke-miterlimit:4;stroke-dasharray:none;stroke-opacity:1" /><circle
     r="13.719664"
     cy="152"
     cx="109.33333"
     id="circle1135"
     style="fill:none;fill-opacity:1;stroke:#f9f9f9;stroke-width:1.67400002;stroke-linecap:round;stroke-miterlimit:4;stroke-dasharray:none;stroke-opacity:1" /><path
     style="fill:none;stroke:#000000;stroke-width:1px;stroke-linecap:butt;stroke-linejoin:miter;stroke-opacity:1"
     d="M 133.82632,168.29034 V 161.1491"
     id="path1393"
     inkscape:connector-curvature="0" /><path
     style="fill:none;stroke:#000000;stroke-width:1px;stroke-linecap:butt;stroke-linejoin:miter;stroke-opacity:1"
     d="M 207.50702,168.29034 V 161.1491"
     id="path1409"
     inkscape:connector-curvature="0" /><path
     inkscape:connector-curvature="0"
     id="path1397"
     d="M 170.66667,168.29034 V 161.1491"
     style="fill:none;stroke:#000000;stroke-width:1px;stroke-linecap:butt;stroke-linejoin:miter;stroke-opacity:1" /><path
     inkscape:connector-curvature="0"
     id="path1399"
     d="M 141.19439,167.00401 V 161.1491"
     style="fill:none;stroke:#000000;stroke-width:0.90546817px;stroke-linecap:butt;stroke-linejoin:miter;stroke-opacity:1" /><path
     style="fill:none;stroke:#000000;stroke-width:0.90546817px;stroke-linecap:butt;stroke-linejoin:miter;stroke-opacity:1"
     d="M 155.93054,167.00401 V 161.1491"
     id="path1401"
     inkscape:connector-curvature="0" /><path
     inkscape:connector-curvature="0"
     id="path1403"
     d="M 163.29859,167.00401 V 161.1491"
     style="fill:none;stroke:#000000;stroke-width:0.90546817px;stroke-linecap:butt;stroke-linejoin:miter;stroke-opacity:1" /><path
     style="fill:none;stroke:#000000;stroke-width:0.90546817px;stroke-linecap:butt;stroke-linejoin:miter;stroke-opacity:1"
     d="M 148.56247,167.00401 V 161.1491"
     id="path1405"
     inkscape:connector-curvature="0" /><path
     style="fill:none;stroke:#000000;stroke-width:0.90546817px;stroke-linecap:butt;stroke-linejoin:miter;stroke-opacity:1"
     d="M 178.03474,167.00401 V 161.1491"
     id="path1411"
     inkscape:connector-curvature="0" /><path
     inkscape:connector-curvature="0"
     id="path1413"
     d="M 192.77089,167.00401 V 161.1491"
     style="fill:none;stroke:#000000;stroke-width:0.90546817px;stroke-linecap:butt;stroke-linejoin:miter;stroke-opacity:1" /><path
     style="fill:none;stroke:#000000;stroke-width:0.90546817px;stroke-linecap:butt;stroke-linejoin:miter;stroke-opacity:1"
     d="M 200.13894,167.00401 V 161.1491"
     id="path1415"
     inkscape:connector-curvature="0" /><path
     inkscape:connector-curvature="0"
     id="path1417"
     d="M 185.40282,167.00401 V 161.1491"
     style="fill:none;stroke:#000000;stroke-width:0.90546817px;stroke-linecap:butt;stroke-linejoin:miter;stroke-opacity:1" /><text
     xml:space="preserve"
     style="font-style:normal;font-weight:normal;font-size:5.44743443px;line-height:1.25;font-family:sans-serif;letter-spacing:0px;word-spacing:0px;fill:#000000;fill-opacity:1;stroke:none;stroke-width:0.13618587"
     x="205.77278"
     y="173.25089"
     id="text1421"><tspan
       sodipodi:role="line"
       id="tspan1419"
       x="205.77278"
       y="173.25089"
       style="stroke-width:0.13618587">0</tspan></text>
<text
     id="text1425"
     y="173.25089"
     x="167.1317"
     style="font-style:normal;font-weight:normal;font-size:5.44743443px;line-height:1.25;font-family:sans-serif;letter-spacing:0px;word-spacing:0px;fill:#000000;fill-opacity:1;stroke:none;stroke-width:0.13618587"
     xml:space="preserve"><tspan
       style="stroke-width:0.13618587"
       y="173.25089"
       x="167.1317"
       id="tspan1423"
       sodipodi:role="line">50</tspan></text>
<text
     xml:space="preserve"
     style="font-style:normal;font-weight:normal;font-size:5.44743443px;line-height:1.25;font-family:sans-serif;letter-spacing:0px;word-spacing:0px;fill:#000000;fill-opacity:1;stroke:none;stroke-width:0.13618587"
     x="128.43607"
     y="173.25089"
     id="text1429"><tspan
       sodipodi:role="line"
       id="tspan1427"
       x="128.43607"
       y="173.25089"
       style="stroke-width:0.13618587">100</tspan></text>
<path
     style="fill:#ffffff;fill-opacity:0.31372549;fill-rule:nonzero;stroke:#ffffff;stroke-width:1.8;stroke-miterlimit:4;stroke-dasharray:none"
     d="m 139.55664,138.63672 c -3.44134,0 -6.22266,2.38464 -6.22266,5.33398 v 16.05859 H 208 V 143.9707 c 0,-2.94934 -2.78132,-5.33398 -6.22266,-5.33398 z"
     id="path833"
     inkscape:connector-curvature="0" /></svg>