<?xml version="1.0" encoding="UTF-8" standalone="no"?>
<svg
   xmlns:dc="http://purl.org/dc/elements/1.1/"
   xmlns:cc="http://creativecommons.org/ns#"
   xmlns:rdf="http://www.w3.org/1999/02/22-rdf-syntax-ns#"
   xmlns:svg="http://www.w3.org/2000/svg"
   xmlns="http://www.w3.org/2000/svg"
   xmlns:sodipodi="http://sodipodi.sourceforge.net/DTD/sodipodi-0.dtd"
   xmlns:inkscape="http://www.inkscape.org/namespaces/inkscape"
   viewBox="0 0 341.33334 341.33334"
   height="341.33334"
   width="341.33334"
   xml:space="preserve"
   id="svg2"
   version="1.1"
   sodipodi:docname="Sinclair - ZX Spectrum-content.svg"
   inkscape:version="0.92.2 (5c3e80d, 2017-08-06)"><sodipodi:namedview
     pagecolor="#ffffff"
     bordercolor="#666666"
     borderopacity="1"
     objecttolerance="10"
     gridtolerance="10"
     guidetolerance="10"
     inkscape:pageopacity="0"
     inkscape:pageshadow="2"
     inkscape:window-width="1024"
     inkscape:window-height="705"
     id="namedview58"
     showgrid="false"
     inkscape:pagecheckerboard="true"
     inkscape:zoom="0.97779607"
     inkscape:cx="289.25479"
     inkscape:cy="170.73874"
     inkscape:window-x="-8"
     inkscape:window-y="-8"
     inkscape:window-maximized="1"
     inkscape:current-layer="svg2" /><metadata
     id="metadata8"><rdf:RDF><cc:Work
         rdf:about=""><dc:format>image/svg+xml</dc:format><dc:type
           rdf:resource="http://purl.org/dc/dcmitype/StillImage" /><dc:title /></cc:Work></rdf:RDF></metadata><defs
     id="defs6"><clipPath
       id="clipPath18"
       clipPathUnits="userSpaceOnUse"><path
         id="path16"
         d="M 0,256 H 256 V 0 H 0 Z" /></clipPath><clipPath
       id="clipPath26"
       clipPathUnits="userSpaceOnUse"><path
         id="path24"
         d="M 4,208 H 252 V 48 H 4 Z" /></clipPath></defs><g
     id="g36"
     transform="matrix(1.3333333,0,0,-1.3333333,231.99999,170.66667)"><path
       inkscape:connector-curvature="0"
       d="m 0,0 c -7.728,0 -14,6.268 -14,14 0,7.733 6.272,14 14,14 C 7.728,28 14,21.733 14,14 14,6.268 7.728,0 0,0 m -92,0 c -7.728,0 -14,6.267 -14,14 0,7.733 6.272,14 14,14 7.728,0 14,-6.267 14,-14 C -78,6.267 -84.272,0 -92,0 M 61.407,72 H -153.407 C -158.15,72 -162,68.205 -162,63.529 V -63.529 c 0,-4.676 3.85,-8.471 8.593,-8.471 H -127.63 35.63 61.407 C 66.15,-72 70,-68.205 70,-63.529 V 63.529 C 70,68.205 66.15,72 61.407,72"
       style="fill:#333333;fill-opacity:1;fill-rule:nonzero;stroke:none"
       id="path38" /></g><g
     id="g40"
     transform="matrix(1.3333333,0,0,-1.3333333,231.99999,170.66667)"><path
       inkscape:connector-curvature="0"
       d="m 0,0 c -7.728,0 -14,6.267 -14,14 0,7.733 6.272,14 14,14 C 7.728,28 14,21.733 14,14 14,6.267 7.728,0 0,0 m -92,0 c -7.728,0 -14,6.267 -14,14 0,7.733 6.272,14 14,14 7.728,0 14,-6.267 14,-14 C -78,6.267 -84.272,0 -92,0 M 49.333,60 H -141.333 C -146.117,60 -150,56.058 -150,51.2 v -70.4 c 0,-4.858 3.883,-8.8 8.667,-8.8 H 49.333 c 4.784,0 8.667,3.942 8.667,8.8 v 70.4 c 0,4.858 -3.883,8.8 -8.667,8.8"
       style="fill:#d9d9d9;fill-opacity:1;fill-rule:nonzero;stroke:none"
       id="path42" /></g><g
     id="g44"
     transform="matrix(1.3333333,0,0,-1.3333333,266.37039,240)"><path
       inkscape:connector-curvature="0"
       d="m 0,0 c 0,0 0,4 -4.235,4 h -135.098 c -4.223,0 -4.223,-4 -4.223,-4 l -4.222,-20 h 152 z"
       style="fill:#404040;fill-opacity:1;fill-rule:nonzero;stroke:none"
       id="path46" /></g><g
     id="g48"
     transform="matrix(1.3333333,0,0,-1.3333333,95.999998,261.33333)"><path
       inkscape:connector-curvature="0"
       d="M 0,0 C -2.212,0 -4,1.788 -4,4 -4,6.212 -2.212,8 0,8 2.212,8 4,6.212 4,4 4,1.788 2.212,0 0,0"
       style="fill:#0d0d0d;fill-opacity:1;fill-rule:nonzero;stroke:none"
       id="path50" /></g><g
     id="g52"
     transform="matrix(1.3333333,0,0,-1.3333333,122.66666,256)"><path
       inkscape:connector-curvature="0"
       d="M 0,0 C -2.212,0 -4,1.788 -4,4 -4,6.212 -2.212,8 0,8 2.212,8 4,6.212 4,4 4,1.788 2.212,0 0,0"
       style="fill:#0d0d0d;fill-opacity:1;fill-rule:nonzero;stroke:none"
       id="path54" /></g><g
     id="g56"
     transform="matrix(1.3333333,0,0,-1.3333333,170.66666,250.66667)"><path
       inkscape:connector-curvature="0"
       d="M 0,0 C -2.212,0 -4,1.788 -4,4 -4,6.212 -2.212,8 0,8 2.212,8 4,6.212 4,4 4,1.788 2.212,0 0,0"
       style="fill:#0d0d0d;fill-opacity:1;fill-rule:nonzero;stroke:none"
       id="path58" /></g><g
     id="g60"
     transform="matrix(1.3333333,0,0,-1.3333333,218.66666,256)"><path
       inkscape:connector-curvature="0"
       d="M 0,0 C -2.212,0 -4,1.788 -4,4 -4,6.212 -2.212,8 0,8 2.212,8 4,6.212 4,4 4,1.788 2.212,0 0,0"
       style="fill:#0d0d0d;fill-opacity:1;fill-rule:nonzero;stroke:none"
       id="path62" /></g><g
     id="g64"
     transform="matrix(1.3333333,0,0,-1.3333333,245.33333,261.33333)"><path
       inkscape:connector-curvature="0"
       d="M 0,0 C -2.212,0 -4,1.788 -4,4 -4,6.212 -2.212,8 0,8 2.212,8 4,6.212 4,4 4,1.788 2.212,0 0,0"
       style="fill:#0d0d0d;fill-opacity:1;fill-rule:nonzero;stroke:none"
       id="path66" /></g><g
     id="g68"
     transform="matrix(1.3333333,0,0,-1.3333333,24.046533,261.33293)"><path
       inkscape:connector-curvature="0"
       d="M 0,0 C -1.104,-0.019 -2.015,0.861 -2.035,1.965 -2.054,3.069 -1.174,3.98 -0.07,3.999 1.034,4.019 1.946,3.138 1.965,2.035 1.984,0.931 1.104,0.019 0,0"
       style="fill:#191919;fill-opacity:1;fill-rule:nonzero;stroke:none"
       id="path70" /></g><g
     id="g72"
     transform="matrix(1.3333333,0,0,-1.3333333,23.999999,85.333336)"><path
       inkscape:connector-curvature="0"
       d="M 0,0 C -1.104,0 -2,0.896 -2,2 -2,3.104 -1.104,4 0,4 1.104,4 2,3.104 2,2 2,0.896 1.104,0 0,0"
       style="fill:#191919;fill-opacity:1;fill-rule:nonzero;stroke:none"
       id="path74" /></g><g
     id="g76"
     transform="matrix(1.3333333,0,0,-1.3333333,317.33333,261.33333)"><path
       inkscape:connector-curvature="0"
       d="M 0,0 C -1.104,0 -2,0.896 -2,2 -2,3.104 -1.104,4 0,4 1.104,4 2,3.104 2,2 2,0.896 1.104,0 0,0"
       style="fill:#191919;fill-opacity:1;fill-rule:nonzero;stroke:none"
       id="path78" /></g><g
     id="g80"
     transform="matrix(1.3333333,0,0,-1.3333333,317.33333,85.333336)"><path
       inkscape:connector-curvature="0"
       d="M 0,0 C -1.104,0 -2,0.896 -2,2 -2,3.104 -1.104,4 0,4 1.104,4 2,3.104 2,2 2,0.896 1.104,0 0,0"
       style="fill:#191919;fill-opacity:1;fill-rule:nonzero;stroke:none"
       id="path82" /></g><g
     id="g84"
     transform="matrix(1.3333333,0,0,-1.3333333,109.33333,133.33334)"><path
       inkscape:connector-curvature="0"
       d="m 0,0 c -7.728,0 -14,-6.267 -14,-14 0,-7.733 6.272,-14 14,-14 7.728,0 14,6.267 14,14 C 14,-6.267 7.728,0 0,0 m 0,-4 c 5.514,0 10,-4.486 10,-10 0,-5.514 -4.486,-10 -10,-10 -5.514,0 -10,4.486 -10,10 0,5.514 4.486,10 10,10"
       style="fill:#0d0d0d;fill-opacity:1;fill-rule:nonzero;stroke:none"
       id="path86" /></g><g
     id="g88"
     transform="matrix(1.3333333,0,0,-1.3333333,231.99999,133.33334)"><path
       inkscape:connector-curvature="0"
       d="m 0,0 c -7.728,0 -14,-6.267 -14,-14 0,-7.733 6.272,-14 14,-14 7.728,0 14,6.267 14,14 C 14,-6.267 7.728,0 0,0 m 0,-4 c 5.514,0 10,-4.486 10,-10 0,-5.514 -4.486,-10 -10,-10 -5.514,0 -10,4.486 -10,10 0,5.514 4.486,10 10,10"
       style="fill:#0d0d0d;fill-opacity:1;fill-rule:nonzero;stroke:none"
       id="path90" /></g><g
     id="g92"
     transform="matrix(1.3333333,0,0,-1.3333333,208.00013,165.33333)"><path
       inkscape:connector-curvature="0"
       d="M 0,0 C 0,-2.212 -2.086,-4 -4.667,-4 H -51.333 C -53.914,-4 -56,-2.212 -56,0 v 16 c 0,2.212 2.086,4 4.667,4 H -4.667 C -2.086,20 0,18.212 0,16 Z"
       style="fill:#808080;fill-opacity:1;fill-rule:nonzero;stroke:none"
       id="path94" /></g><g
     id="g96"
     transform="matrix(1.3333333,0,0,-1.3333333,133.33333,144.00013)"><path
       inkscape:connector-curvature="0"
       d="m 0,0 v -16 c 0,-2.212 2.486,-4 5.561,-4 H 8.298 C 10.65,-16.346 12,-12.291 12,-8 12,-3.709 10.65,0.346 8.298,4 H 5.561 C 2.486,4 0,2.212 0,0"
       style="fill:#0d0d0d;fill-opacity:1;fill-rule:nonzero;stroke:none"
       id="path98" /></g><g
     id="g100"
     transform="matrix(1.3333333,0,0,-1.3333333,303.99999,112)"><path
       inkscape:connector-curvature="0"
       d="m 0,0 -32,-72 h 4 L 0,-8 h 4 v 8 z"
       style="fill:#ff0000;fill-opacity:1;fill-rule:nonzero;stroke:none"
       id="path102" /></g><g
     id="g104"
     transform="matrix(1.3333333,0,0,-1.3333333,303.99999,122.66667)"><path
       inkscape:connector-curvature="0"
       d="m 0,0 -28,-64 h 4 L 0,-8 h 4 v 8 z"
       style="fill:#ffff00;fill-opacity:1;fill-rule:nonzero;stroke:none"
       id="path106" /></g><g
     id="g108"
     transform="matrix(1.3333333,0,0,-1.3333333,303.99999,133.33334)"><path
       inkscape:connector-curvature="0"
       d="m 0,0 -24,-56 h 4 L 0,-8 h 4 v 8 z"
       style="fill:#00ff00;fill-opacity:1;fill-rule:nonzero;stroke:none"
       id="path110" /></g><g
     id="g112"
     transform="matrix(1.3333333,0,0,-1.3333333,303.99999,144)"><path
       inkscape:connector-curvature="0"
       d="m 0,0 -20,-48 h 4 L 0,-8 h 4 v 8 z"
       style="fill:#2c8bbf;fill-opacity:1;fill-rule:nonzero;stroke:none"
       id="path114" /></g><path
     inkscape:connector-curvature="0"
     d="m 42.667,96.00028 h 1.77734 v 10.66666 H 42.667 Z"
     style="fill:#000000;fill-opacity:1;fill-rule:nonzero;stroke:none;stroke-width:1.33333325"
     id="path100" /><path
     inkscape:connector-curvature="0"
     d="m 46.223,99.048284 h 1.77734 v 7.618656 H 46.223 Z m 0,-3.048004 h 1.77734 v 1.524004 H 46.223 Z"
     style="fill:#000000;fill-opacity:1;fill-rule:nonzero;stroke:none;stroke-width:1.33333325"
     id="path102-9" /><path
     inkscape:connector-curvature="0"
     d="m 64.00034,100.57227 h -12.444 v 4.572 h 12.444 z m -14.22267,6.09467 V 96.00028 h 1.77867 v 3.048004 h 14.22133 v 7.618656 z"
     style="fill:#000000;fill-opacity:1;fill-rule:nonzero;stroke:none;stroke-width:1.33333325"
     id="path104" /><path
     id="path108"
     style="fill:#000000;fill-opacity:1;fill-rule:nonzero;stroke:none;stroke-width:1.33333325"
     d="m 67.55567,106.66694 v -7.618656 h 16 v 1.523986 H 69.333 v 6.09467 z"
     inkscape:connector-curvature="0" /><path
     inkscape:connector-curvature="0"
     d="M 99.554999,100.57227 H 87.111 v 1.524 h 12.443999 z m 1.778671,4.57067 v 1.524 h -16 v -7.618656 h 16 v 4.570656 H 87.111 v 1.524 z"
     style="fill:#000000;fill-opacity:1;fill-rule:nonzero;stroke:none;stroke-width:1.33333325"
     id="path110-3" /><path
     id="path114-6"
     style="fill:#000000;fill-opacity:1;fill-rule:nonzero;stroke:none;stroke-width:1.33333325"
     d="m 119.1106,105.14307 v 1.524 h -16 V 96.00041 h 1.77733 v 3.048004 h 14.22267 v 1.522656 h -14.22267 v 4.572 z"
     inkscape:connector-curvature="0" /><path
     id="path118"
     style="fill:#000000;fill-opacity:1;fill-rule:nonzero;stroke:none;stroke-width:1.33333325"
     d="m 120.88847,106.66694 v -7.618656 h 16 v 1.523986 H 122.6658 v 6.09467 z"
     inkscape:connector-curvature="0" /><path
     inkscape:connector-curvature="0"
     d="m 152.88966,100.57227 h -12.44532 v 4.572 h 12.44532 z m -14.22399,-1.523986 h 16.00132 v 7.618656 h -16.00132 z"
     style="fill:#000000;fill-opacity:1;fill-rule:nonzero;stroke:none;stroke-width:1.33333325"
     id="path120" /><path
     id="path128"
     style="fill:#000000;fill-opacity:1;fill-rule:nonzero;stroke:none;stroke-width:1.33333325"
     d="m 99.585269,115.91841 c 0.504001,0 0.902671,-0.10267 1.194671,-0.30933 0.29466,-0.20667 0.44,-0.57734 0.44,-1.11467 0,-0.57733 -0.204,-0.97067 -0.61467,-1.18133 -0.22,-0.11067 -0.51333,-0.16534 -0.878671,-0.16534 h -2.62266 v 2.77067 z m -3.58533,-3.71333 h 3.704 c 0.610661,0 1.113331,0.0893 1.509331,0.27066 0.752,0.34534 1.12667,0.984 1.12667,1.91334 0,0.48666 -0.1,0.884 -0.30134,1.192 -0.20266,0.30933 -0.484,0.55733 -0.84533,0.74533 0.31733,0.12933 0.556,0.29733 0.71867,0.508 0.16,0.20933 0.24933,0.54933 0.268,1.02 l 0.0387,1.088 c 0.0107,0.308 0.0373,0.53867 0.0773,0.68933 0.0667,0.25734 0.18533,0.42267 0.356,0.49734 v 0.18133 h -1.35467 c -0.036,-0.0693 -0.0653,-0.16 -0.088,-0.27067 -0.0213,-0.11066 -0.04,-0.324 -0.056,-0.64 l -0.0667,-1.352 c -0.0253,-0.52933 -0.21733,-0.884 -0.576,-1.064 -0.204,-0.1 -0.526661,-0.14933 -0.965331,-0.14933 h -2.44133 v 3.476 h -1.104 z"
     inkscape:connector-curvature="0" /><path
     id="path132"
     style="fill:#000000;fill-opacity:1;fill-rule:nonzero;stroke:none;stroke-width:1.33333325"
     d="m 107.96674,116.88374 c -0.0413,-0.43067 -0.13467,-0.77333 -0.28,-1.032 -0.272,-0.47867 -0.724,-0.71733 -1.36,-0.71733 -0.45333,0 -0.836,0.164 -1.144,0.49333 -0.308,0.33067 -0.47067,0.748 -0.48933,1.256 z m -0.35733,-2.32 c 0.392,0.19733 0.69333,0.452 0.89866,0.764 0.19867,0.29733 0.33067,0.64533 0.396,1.04267 0.06,0.272 0.0893,0.70533 0.0893,1.30266 h -4.32267 c 0.0187,0.6 0.16,1.08267 0.424,1.44667 0.264,0.364 0.67333,0.54533 1.228,0.54533 0.51733,0 0.92933,-0.172 1.23733,-0.516 0.17334,-0.19866 0.296,-0.42933 0.368,-0.692 h 0.98134 c -0.0267,0.216 -0.112,0.45734 -0.25734,0.72534 -0.14666,0.26666 -0.30933,0.484 -0.48933,0.65333 -0.3,0.29467 -0.67333,0.49333 -1.11867,0.596 -0.23733,0.06 -0.508,0.0893 -0.808,0.0893 -0.73466,0 -1.35866,-0.268 -1.86933,-0.804 -0.51067,-0.53466 -0.76667,-1.28533 -0.76667,-2.24933 0,-0.948 0.25734,-1.71867 0.772,-2.31067 0.51467,-0.592 1.18667,-0.88933 2.01734,-0.88933 0.42,0 0.82533,0.0987 1.22,0.296"
     inkscape:connector-curvature="0" /><path
     id="path136"
     style="fill:#000000;fill-opacity:1;fill-rule:nonzero;stroke:none;stroke-width:1.33333325"
     d="m 110.45674,112.75107 h 1.01067 v 1.64933 h 0.948 v 0.81067 h -0.948 v 3.85867 c 0,0.20533 0.0693,0.344 0.20933,0.41333 0.0787,0.04 0.20667,0.06 0.38933,0.06 0.048,0 0.1,-0.001 0.15467,-0.003 0.056,-0.003 0.12133,-0.009 0.19467,-0.0187 v 0.78933 c -0.11467,0.032 -0.23467,0.056 -0.35734,0.072 -0.124,0.0133 -0.25866,0.0213 -0.40266,0.0213 -0.46534,0 -0.78267,-0.11866 -0.94934,-0.356 -0.16533,-0.23733 -0.24933,-0.54533 -0.24933,-0.924 v -3.91333 h -0.804 V 114.4 h 0.804 z"
     inkscape:connector-curvature="0" /><path
     id="path140"
     style="fill:#000000;fill-opacity:1;fill-rule:nonzero;stroke:none;stroke-width:1.33333325"
     d="m 113.44207,114.40041 h 0.948 v 1.02133 c 0.0773,-0.2 0.26933,-0.44133 0.572,-0.72533 0.30267,-0.28533 0.652,-0.428 1.048,-0.428 0.0187,0 0.0493,10e-4 0.0947,0.005 0.044,0.004 0.12,0.0107 0.228,0.0213 v 1.04933 c -0.06,-0.012 -0.11467,-0.0187 -0.164,-0.0227 -0.0507,-0.003 -0.104,-0.005 -0.164,-0.005 -0.50267,0 -0.88934,0.16133 -1.16,0.48267 -0.26934,0.32133 -0.404,0.69333 -0.404,1.112 v 3.4 h -0.99867 z"
     inkscape:connector-curvature="0" /><path
     id="path144"
     style="fill:#000000;fill-opacity:1;fill-rule:nonzero;stroke:none;stroke-width:1.33333325"
     d="m 120.8826,118.91841 c 0.244,-0.49733 0.36533,-1.052 0.36533,-1.66133 0,-0.552 -0.088,-1 -0.26266,-1.34534 -0.27867,-0.544 -0.75734,-0.816 -1.43734,-0.816 -0.604,0 -1.04266,0.232 -1.31733,0.69467 -0.27333,0.46267 -0.412,1.02133 -0.412,1.676 0,0.628 0.13867,1.15067 0.412,1.57067 0.27467,0.41866 0.70933,0.628 1.30667,0.628 0.65466,0 1.10266,-0.24934 1.34533,-0.74667 m 0.62,-3.928 c 0.52533,0.508 0.788,1.25333 0.788,2.23867 0,0.952 -0.23067,1.73866 -0.69333,2.35866 -0.46267,0.62267 -1.18134,0.93334 -2.15334,0.93334 -0.812,0 -1.45733,-0.27467 -1.93466,-0.824 -0.47734,-0.55067 -0.71734,-1.28934 -0.71734,-2.21467 0,-0.992 0.252,-1.78267 0.756,-2.37067 0.504,-0.588 1.17867,-0.88266 2.028,-0.88266 0.76,0 1.40267,0.25466 1.92667,0.76133"
     inkscape:connector-curvature="0" /><path
     id="path148"
     style="fill:#000000;fill-opacity:1;fill-rule:nonzero;stroke:none;stroke-width:1.33333325"
     d="m 124.37074,117.69481 c 0.0253,0.46 0.12933,0.83333 0.31467,1.12133 0.35333,0.536 0.97466,0.80534 1.86533,0.80534 0.39867,0 0.76267,-0.06 1.09067,-0.17734 0.63466,-0.228 0.952,-0.636 0.952,-1.22533 0,-0.44133 -0.13467,-0.756 -0.404,-0.94267 -0.272,-0.184 -0.69867,-0.344 -1.27867,-0.48133 l -1.06933,-0.248 c -0.69867,-0.16133 -1.19334,-0.34 -1.484,-0.53467 -0.50134,-0.33866 -0.752,-0.844 -0.752,-1.51733 0,-0.72933 0.24533,-1.32667 0.73866,-1.79467 0.49334,-0.46533 1.192,-0.7 2.09467,-0.7 0.832,0 1.53733,0.20534 2.12,0.61467 0.58133,0.41067 0.872,1.06667 0.872,1.968 h -1.03867 c -0.052,-0.43467 -0.16533,-0.76667 -0.34,-0.99867 -0.32133,-0.42266 -0.86933,-0.63466 -1.644,-0.63466 -0.624,0 -1.072,0.136 -1.34533,0.408 -0.27333,0.272 -0.40933,0.58933 -0.40933,0.94933 0,0.39733 0.16133,0.688 0.484,0.872 0.212,0.11867 0.69066,0.26533 1.43466,0.44133 l 1.108,0.25867 c 0.53467,0.12667 0.94534,0.29733 1.236,0.51333 0.50134,0.38 0.75334,0.92934 0.75334,1.65067 0,0.89733 -0.32,1.53867 -0.96134,1.92533 -0.64,0.38667 -1.384,0.58 -2.23066,0.58 -0.98934,0 -1.76267,-0.25733 -2.32134,-0.77333 -0.56,-0.51067 -0.83333,-1.204 -0.82266,-2.08 z"
     inkscape:connector-curvature="0" /><path
     id="path152"
     style="fill:#000000;fill-opacity:1;fill-rule:nonzero;stroke:none;stroke-width:1.33333325"
     d="m 134.76794,119.06067 c 0.31067,-0.388 0.46533,-0.968 0.46533,-1.74133 0,-0.47067 -0.0693,-0.876 -0.20533,-1.21334 -0.26133,-0.652 -0.736,-0.97733 -1.42667,-0.97733 -0.69333,0 -1.168,0.344 -1.424,1.03333 -0.13733,0.36667 -0.20666,0.83467 -0.20666,1.4 0,0.45734 0.0693,0.84534 0.20666,1.16534 0.25867,0.61066 0.73467,0.916 1.424,0.916 0.468,0 0.85734,-0.19467 1.16667,-0.58267 m -3.756,-4.63333 h 0.976 v 0.784 c 0.2,-0.268 0.41867,-0.476 0.656,-0.62267 0.33733,-0.22133 0.73467,-0.332 1.18933,-0.332 0.676,0 1.248,0.25733 1.71867,0.76933 0.472,0.51334 0.70667,1.24667 0.70667,2.2 0,1.288 -0.33867,2.20667 -1.01867,2.76 -0.43067,0.348 -0.932,0.524 -1.50267,0.524 -0.45066,0 -0.82666,-0.0987 -1.132,-0.29333 -0.17733,-0.11067 -0.37733,-0.3 -0.596,-0.568 v 3.01867 h -0.99733 z"
     inkscape:connector-curvature="0" /><path
     id="path156"
     style="fill:#000000;fill-opacity:1;fill-rule:nonzero;stroke:none;stroke-width:1.33333325"
     d="m 141.44167,116.88374 c -0.0413,-0.43067 -0.13467,-0.77333 -0.28,-1.032 -0.272,-0.47867 -0.724,-0.71733 -1.36,-0.71733 -0.45333,0 -0.836,0.164 -1.144,0.49333 -0.308,0.33067 -0.47067,0.748 -0.48933,1.256 z m -0.35733,-2.32 c 0.392,0.19733 0.69333,0.452 0.89866,0.764 0.19867,0.29733 0.33067,0.64533 0.396,1.04267 0.06,0.272 0.0893,0.70533 0.0893,1.30266 h -4.32267 c 0.0187,0.6 0.16,1.08267 0.424,1.44667 0.264,0.364 0.67333,0.54533 1.228,0.54533 0.51733,0 0.92933,-0.172 1.23733,-0.516 0.17334,-0.19866 0.296,-0.42933 0.368,-0.692 h 0.98134 c -0.0267,0.216 -0.112,0.45734 -0.25734,0.72534 -0.14666,0.26666 -0.30933,0.484 -0.48933,0.65333 -0.3,0.29467 -0.67333,0.49333 -1.11867,0.596 -0.23733,0.06 -0.508,0.0893 -0.808,0.0893 -0.73466,0 -1.35866,-0.268 -1.86933,-0.804 -0.51067,-0.53466 -0.76667,-1.28533 -0.76667,-2.24933 0,-0.948 0.25734,-1.71867 0.772,-2.31067 0.51467,-0.592 1.18667,-0.88933 2.01734,-0.88933 0.42,0 0.82533,0.0987 1.22,0.296"
     inkscape:connector-curvature="0" /><path
     id="path160"
     style="fill:#000000;fill-opacity:1;fill-rule:nonzero;stroke:none;stroke-width:1.33333325"
     d="m 147.65859,114.71561 c 0.41867,0.32267 0.67067,0.88133 0.75733,1.67067 h -0.972 c -0.0587,-0.36267 -0.19333,-0.66534 -0.40533,-0.90667 -0.20933,-0.24133 -0.548,-0.36133 -1.01467,-0.36133 -0.636,0 -1.09066,0.30933 -1.364,0.92666 -0.17866,0.4 -0.26666,0.89334 -0.26666,1.48134 0,0.592 0.12666,1.09066 0.37733,1.49333 0.252,0.404 0.64667,0.60667 1.18667,0.60667 0.41466,0 0.74266,-0.12534 0.98533,-0.376 0.24133,-0.252 0.40933,-0.59467 0.50133,-1.03067 h 0.972 c -0.112,0.78267 -0.38933,1.356 -0.832,1.71867 -0.44533,0.36266 -1.012,0.54266 -1.704,0.54266 -0.776,0 -1.396,-0.28266 -1.85733,-0.84666 -0.464,-0.56534 -0.69467,-1.26934 -0.69467,-2.116 0,-1.03734 0.25334,-1.84534 0.76,-2.42267 0.50667,-0.57733 1.152,-0.86533 1.936,-0.86533 0.66934,0 1.21467,0.16133 1.63467,0.48533"
     inkscape:connector-curvature="0" /><path
     id="path164"
     style="fill:#000000;fill-opacity:1;fill-rule:nonzero;stroke:none;stroke-width:1.33333325"
     d="m 149.61393,112.75107 h 1.01067 v 1.64933 h 0.948 v 0.81067 h -0.948 v 3.85867 c 0,0.20533 0.0693,0.344 0.20933,0.41333 0.0787,0.04 0.20667,0.06 0.38933,0.06 0.048,0 0.1,-0.001 0.15467,-0.003 0.056,-0.003 0.12133,-0.009 0.19467,-0.0187 v 0.78933 c -0.11467,0.032 -0.23467,0.056 -0.35734,0.072 -0.124,0.0133 -0.25866,0.0213 -0.40266,0.0213 -0.46534,0 -0.78267,-0.11866 -0.94934,-0.356 -0.16533,-0.23733 -0.24933,-0.54533 -0.24933,-0.924 v -3.91333 h -0.804 V 114.4 h 0.804 z"
     inkscape:connector-curvature="0" /><path
     id="path168"
     style="fill:#000000;fill-opacity:1;fill-rule:nonzero;stroke:none;stroke-width:1.33333325"
     d="m 152.59806,114.40041 h 0.948 v 1.02133 c 0.0773,-0.2 0.26933,-0.44133 0.572,-0.72533 0.30267,-0.28533 0.652,-0.428 1.048,-0.428 0.0187,0 0.0493,10e-4 0.0947,0.005 0.044,0.004 0.12,0.0107 0.228,0.0213 v 1.04933 c -0.06,-0.012 -0.11467,-0.0187 -0.164,-0.0227 -0.0507,-0.003 -0.104,-0.005 -0.164,-0.005 -0.50267,0 -0.88934,0.16133 -1.16,0.48267 -0.26934,0.32133 -0.404,0.69333 -0.404,1.112 v 3.4 h -0.99867 z"
     inkscape:connector-curvature="0" /><path
     id="path172"
     style="fill:#000000;fill-opacity:1;fill-rule:nonzero;stroke:none;stroke-width:1.33333325"
     d="m 157.35273,114.40041 v 3.924 c 0,0.30133 0.0467,0.548 0.14133,0.74 0.172,0.352 0.49467,0.52933 0.96667,0.52933 0.67733,0 1.13733,-0.30933 1.38267,-0.92666 0.13333,-0.332 0.2,-0.78667 0.2,-1.364 v -2.90267 h 0.99866 v 5.91067 h -0.94266 l 0.0107,-0.87334 c -0.128,0.22534 -0.28533,0.41467 -0.47466,0.56934 -0.372,0.30933 -0.82667,0.46266 -1.36,0.46266 -0.832,0 -1.39734,-0.28133 -1.69867,-0.84266 -0.16267,-0.30267 -0.24533,-0.70534 -0.24533,-1.20934 v -4.01733 z"
     inkscape:connector-curvature="0" /><path
     id="path176"
     style="fill:#000000;fill-opacity:1;fill-rule:nonzero;stroke:none;stroke-width:1.33333325"
     d="m 162.67299,114.40041 h 0.98667 v 0.84 c 0.23733,-0.292 0.452,-0.50267 0.644,-0.63467 0.32933,-0.22533 0.70266,-0.33733 1.12,-0.33733 0.47333,0 0.85466,0.116 1.144,0.348 0.16266,0.132 0.30933,0.32667 0.44266,0.584 0.22267,-0.316 0.48267,-0.55067 0.78267,-0.704 0.29867,-0.152 0.636,-0.228 1.01067,-0.228 0.79866,0 1.34133,0.28667 1.63066,0.86133 0.15467,0.308 0.23334,0.724 0.23334,1.24667 v 3.93467 h -1.03867 v -4.10534 c 0,-0.39466 -0.0987,-0.66533 -0.296,-0.812 -0.19867,-0.14666 -0.44,-0.22 -0.72533,-0.22 -0.39067,0 -0.72934,0.12934 -1.012,0.39067 -0.28267,0.26267 -0.424,0.69733 -0.424,1.308 v 3.43867 h -1.01467 v -3.85734 c 0,-0.40133 -0.0493,-0.69333 -0.144,-0.87733 -0.152,-0.276 -0.43467,-0.41467 -0.84933,-0.41467 -0.37734,0 -0.72,0.14534 -1.02934,0.436 -0.30933,0.29067 -0.46266,0.816 -0.46266,1.57867 v 3.13467 h -0.99867 z"
     inkscape:connector-curvature="0" /><path
     id="path222"
     style="fill:#000000;fill-opacity:1;fill-rule:nonzero;stroke:none;stroke-width:1.33333325"
     d="m 60.940661,191.87801 c -0.161333,0.31733 -0.382667,0.58133 -0.658667,0.788 -0.277333,0.20933 -0.604,0.36533 -0.98,0.46667 -0.374666,0.104 -0.774666,0.15733 -1.198666,0.15733 -0.832,0 -1.517334,-0.22267 -2.054667,-0.668 -0.537333,-0.44533 -0.808,-1.06667 -0.808,-1.86667 0,-0.8 0.274667,-1.404 0.82,-1.81066 0.548,-0.408 1.244,-0.612 2.092,-0.612 0.409333,0 0.798667,0.052 1.173333,0.156 0.376,0.104 0.698667,0.26 0.968,0.46666 0.268,0.208 0.485334,0.46 0.646667,0.756 0.162667,0.296 0.245333,0.644 0.245333,1.044 0,0.42934 -0.08267,0.804 -0.245333,1.12267 m -0.182667,8.33333 c -0.693333,0.54 -1.577333,0.812 -2.654666,0.812 -0.521334,0 -0.998667,-0.0787 -1.430667,-0.23333 -0.433333,-0.156 -0.806667,-0.37067 -1.125333,-0.64667 -0.318667,-0.272 -0.564,-0.59466 -0.734667,-0.96533 -0.172,-0.37067 -0.257333,-0.77733 -0.257333,-1.22267 0,-0.428 0.096,-0.824 0.282666,-1.188 0.188,-0.364 0.444,-0.67866 0.770667,-0.94533 0.326667,-0.26667 0.705333,-0.47733 1.137333,-0.63333 0.432,-0.156 0.893334,-0.23334 1.381334,-0.23334 0.505333,0 0.984,0.0707 1.432,0.212 0.449333,0.14 0.84,0.34267 1.174666,0.61067 0.334667,0.26533 0.594667,0.58667 0.782667,0.95467 0.188,0.37066 0.282667,0.78666 0.282667,1.244 0,0.95066 -0.346667,1.69333 -1.041334,2.23466 m 2.213334,-11.24533 c -0.276,-0.496 -0.650667,-0.91333 -1.125334,-1.25467 -0.470666,-0.34133 -1.014666,-0.6 -1.626666,-0.77733 -0.610667,-0.17867 -1.252,-0.26667 -1.921334,-0.26667 -0.945333,0 -1.752,0.11467 -2.42,0.344 -0.669333,0.22934 -1.210666,0.532 -1.626666,0.91067 -0.416,0.37733 -0.722667,0.808 -0.918667,1.28933 -0.194666,0.48134 -0.294666,0.97334 -0.294666,1.47734 0,0.71066 0.217333,1.35866 0.649333,1.944 0.432,0.58666 1.016,1.02533 1.750666,1.32266 -1.044,0.296 -1.819999,0.78134 -2.325333,1.456 -0.506666,0.67467 -0.758666,1.50134 -0.758666,2.47734 0,0.77066 0.150666,1.452 0.453333,2.04533 0.301333,0.592 0.709333,1.092 1.222667,1.49867 0.513333,0.40933 1.121333,0.71733 1.823999,0.92266 0.7,0.208 1.450667,0.312 2.249334,0.312 0.832,0 1.606666,-0.096 2.324,-0.28933 0.718666,-0.192 1.341333,-0.48933 1.870666,-0.888 0.532,-0.4 0.948,-0.90133 1.249334,-1.50133 0.302666,-0.59867 0.452,-1.29867 0.452,-2.1 0,-0.93334 -0.26,-1.744 -0.782667,-2.432 -0.521333,-0.68934 -1.272,-1.19067 -2.250667,-1.50134 0.733334,-0.26666 1.32,-0.7 1.762667,-1.3 0.44,-0.60133 0.658667,-1.256 0.658667,-1.96666 0,-0.652 -0.137334,-1.22534 -0.416,-1.72267"
     inkscape:connector-curvature="0" /><path
     id="path226"
     style="fill:#000000;fill-opacity:1;fill-rule:nonzero;stroke:none;stroke-width:1.33333325"
     d="M 47.167328,202.42267 V 191.13334 H 42.666 v -1.512 c 0.586666,0 1.158666,-0.04 1.712,-0.12134 0.556,-0.0813 1.057328,-0.23333 1.505328,-0.456 0.448,-0.22266 0.828,-0.52533 1.136,-0.91066 0.31067,-0.38534 0.52267,-0.87467 0.63734,-1.46667 h 1.59066 v 15.756 z"
     inkscape:connector-curvature="0" /></svg>