<?xml version="1.0" encoding="UTF-8" standalone="no"?>
<svg
   xmlns:dc="http://purl.org/dc/elements/1.1/"
   xmlns:cc="http://creativecommons.org/ns#"
   xmlns:rdf="http://www.w3.org/1999/02/22-rdf-syntax-ns#"
   xmlns:svg="http://www.w3.org/2000/svg"
   xmlns="http://www.w3.org/2000/svg"
   xmlns:sodipodi="http://sodipodi.sourceforge.net/DTD/sodipodi-0.dtd"
   xmlns:inkscape="http://www.inkscape.org/namespaces/inkscape"
   viewBox="0 0 341.33334 341.33334"
   height="341.33334"
   width="341.33334"
   xml:space="preserve"
   id="svg2"
   version="1.1"
   sodipodi:docname="Sinclair - ZX Spectrum +3-content.svg"
   inkscape:version="0.92.2 (5c3e80d, 2017-08-06)"><sodipodi:namedview
     pagecolor="#ffffff"
     bordercolor="#666666"
     borderopacity="1"
     objecttolerance="10"
     gridtolerance="10"
     guidetolerance="10"
     inkscape:pageopacity="0"
     inkscape:pageshadow="2"
     inkscape:window-width="1024"
     inkscape:window-height="705"
     id="namedview55"
     showgrid="false"
     inkscape:pagecheckerboard="true"
     inkscape:zoom="0.97779607"
     inkscape:cx="98.859471"
     inkscape:cy="239.89704"
     inkscape:window-x="-8"
     inkscape:window-y="-8"
     inkscape:window-maximized="1"
     inkscape:current-layer="svg2" /><metadata
     id="metadata8"><rdf:RDF><cc:Work
         rdf:about=""><dc:format>image/svg+xml</dc:format><dc:type
           rdf:resource="http://purl.org/dc/dcmitype/StillImage" /><dc:title></dc:title></cc:Work></rdf:RDF></metadata><defs
     id="defs6"><clipPath
       id="clipPath18"
       clipPathUnits="userSpaceOnUse"><path
         id="path16"
         d="M 0,256 H 256 V 0 H 0 Z" /></clipPath><clipPath
       id="clipPath26"
       clipPathUnits="userSpaceOnUse"><path
         id="path24"
         d="M 4,208 H 252 V 48 H 4 Z" /></clipPath></defs><g
     id="g22"
     transform="matrix(1.3333333,0,0,-1.3333333,0,341.33333)" /><path
     id="path38"
     style="fill:#333333;fill-opacity:1;fill-rule:nonzero;stroke:none;stroke-width:1.33333325"
     d="m 231.99999,170.66667 c -10.304,0 -18.66667,-8.35733 -18.66667,-18.66667 0,-10.31066 8.36267,-18.66666 18.66667,-18.66666 10.304,0 18.66667,8.356 18.66667,18.66666 0,10.30934 -8.36267,18.66667 -18.66667,18.66667 m -122.66666,0 c -10.304003,0 -18.66667,-8.356 -18.66667,-18.66667 0,-10.31066 8.362667,-18.66666 18.66667,-18.66666 10.304,0 18.66666,8.356 18.66666,18.66666 0,10.31067 -8.36266,18.66667 -18.66666,18.66667 M 313.87599,74.666672 H 27.457328 c -6.323999,0 -11.457333,5.06 -11.457333,11.294667 V 255.372 c 0,6.23467 5.133334,11.29467 11.457333,11.29467 h 34.369333 217.679999 34.36933 c 6.324,0 11.45733,-5.06 11.45733,-11.29467 V 85.961339 c 0,-6.234667 -5.13333,-11.294667 -11.45733,-11.294667"
     inkscape:connector-curvature="0" /><path
     id="path42"
     style="fill:#d9d9d9;fill-opacity:1;fill-rule:nonzero;stroke:none;stroke-width:1.33333325"
     d="m 231.99999,170.66667 c -10.304,0 -18.66667,-8.356 -18.66667,-18.66667 0,-10.31066 8.36267,-18.66666 18.66667,-18.66666 10.304,0 18.66667,8.356 18.66667,18.66666 0,10.31067 -8.36267,18.66667 -18.66667,18.66667 m -122.66666,0 c -10.304003,0 -18.66667,-8.356 -18.66667,-18.66667 0,-10.31066 8.362667,-18.66666 18.66667,-18.66666 10.304,0 18.66666,8.356 18.66666,18.66666 0,10.31067 -8.36266,18.66667 -18.66666,18.66667 M 297.77732,90.666672 H 43.555995 c -6.378667,0 -11.556,5.256 -11.556,11.733338 v 93.86666 c 0,6.47733 5.177333,11.73333 11.556,11.73333 H 297.77732 c 6.37867,0 11.556,-5.256 11.556,-11.73333 v -93.86666 c 0,-6.477338 -5.17733,-11.733338 -11.556,-11.733338"
     inkscape:connector-curvature="0" /><path
     id="path46"
     style="fill:#404040;fill-opacity:1;fill-rule:nonzero;stroke:none;stroke-width:1.33333325"
     d="m 266.37039,240 c 0,0 0,-5.33333 -5.64667,-5.33333 H 80.593061 c -5.630666,0 -5.630666,5.33333 -5.630666,5.33333 l -5.629333,26.66667 H 271.99972 Z"
     inkscape:connector-curvature="0" /><path
     id="path50"
     style="fill:#0d0d0d;fill-opacity:1;fill-rule:nonzero;stroke:none;stroke-width:1.33333325"
     d="m 95.999998,261.33333 c -2.949333,0 -5.333333,-2.384 -5.333333,-5.33333 0,-2.94934 2.384,-5.33334 5.333333,-5.33334 2.949333,0 5.333332,2.384 5.333332,5.33334 0,2.94933 -2.383999,5.33333 -5.333332,5.33333"
     inkscape:connector-curvature="0" /><path
     id="path54"
     style="fill:#0d0d0d;fill-opacity:1;fill-rule:nonzero;stroke:none;stroke-width:1.33333325"
     d="m 122.66666,256 c -2.94933,0 -5.33333,-2.384 -5.33333,-5.33333 0,-2.94934 2.384,-5.33334 5.33333,-5.33334 2.94933,0 5.33333,2.384 5.33333,5.33334 0,2.94933 -2.384,5.33333 -5.33333,5.33333"
     inkscape:connector-curvature="0" /><path
     id="path58"
     style="fill:#0d0d0d;fill-opacity:1;fill-rule:nonzero;stroke:none;stroke-width:1.33333325"
     d="m 170.66666,250.66667 c -2.94933,0 -5.33333,-2.384 -5.33333,-5.33333 0,-2.94934 2.384,-5.33334 5.33333,-5.33334 2.94933,0 5.33333,2.384 5.33333,5.33334 0,2.94933 -2.384,5.33333 -5.33333,5.33333"
     inkscape:connector-curvature="0" /><path
     id="path62"
     style="fill:#0d0d0d;fill-opacity:1;fill-rule:nonzero;stroke:none;stroke-width:1.33333325"
     d="m 218.66666,256 c -2.94933,0 -5.33333,-2.384 -5.33333,-5.33333 0,-2.94934 2.384,-5.33334 5.33333,-5.33334 2.94933,0 5.33333,2.384 5.33333,5.33334 0,2.94933 -2.384,5.33333 -5.33333,5.33333"
     inkscape:connector-curvature="0" /><path
     id="path66"
     style="fill:#0d0d0d;fill-opacity:1;fill-rule:nonzero;stroke:none;stroke-width:1.33333325"
     d="M 245.33333,261.33333 C 242.384,261.33333 240,258.94933 240,256 c 0,-2.94934 2.384,-5.33334 5.33333,-5.33334 2.94933,0 5.33333,2.384 5.33333,5.33334 0,2.94933 -2.384,5.33333 -5.33333,5.33333"
     inkscape:connector-curvature="0" /><path
     id="path70"
     style="fill:#191919;fill-opacity:1;fill-rule:nonzero;stroke:none;stroke-width:1.33333325"
     d="m 24.046533,261.33293 c -1.472,0.0253 -2.686667,-1.148 -2.713333,-2.62 -0.02533,-1.472 1.148,-2.68667 2.62,-2.712 1.472,-0.0267 2.688,1.148 2.713333,2.61867 0.02533,1.472 -1.148,2.688 -2.62,2.71333"
     inkscape:connector-curvature="0" /><path
     id="path74"
     style="fill:#191919;fill-opacity:1;fill-rule:nonzero;stroke:none;stroke-width:1.33333325"
     d="m 23.999999,85.333336 c -1.472,0 -2.666667,-1.194667 -2.666667,-2.666667 0,-1.472 1.194667,-2.666666 2.666667,-2.666666 1.472,0 2.666667,1.194666 2.666667,2.666666 0,1.472 -1.194667,2.666667 -2.666667,2.666667"
     inkscape:connector-curvature="0" /><path
     id="path78"
     style="fill:#191919;fill-opacity:1;fill-rule:nonzero;stroke:none;stroke-width:1.33333325"
     d="m 317.33333,261.33333 c -1.472,0 -2.66667,-1.19467 -2.66667,-2.66667 0,-1.472 1.19467,-2.66666 2.66667,-2.66666 1.472,0 2.66667,1.19466 2.66667,2.66666 0,1.472 -1.19467,2.66667 -2.66667,2.66667"
     inkscape:connector-curvature="0" /><path
     id="path82"
     style="fill:#191919;fill-opacity:1;fill-rule:nonzero;stroke:none;stroke-width:1.33333325"
     d="m 317.33333,85.333336 c -1.472,0 -2.66667,-1.194667 -2.66667,-2.666667 0,-1.472 1.19467,-2.666666 2.66667,-2.666666 1.472,0 2.66667,1.194666 2.66667,2.666666 0,1.472 -1.19467,2.666667 -2.66667,2.666667"
     inkscape:connector-curvature="0" /><path
     id="path86"
     style="fill:#0d0d0d;fill-opacity:1;fill-rule:nonzero;stroke:none;stroke-width:1.33333325"
     d="m 109.33333,133.33334 c -10.304,0 -18.666666,8.356 -18.666666,18.66667 0,10.31066 8.362666,18.66666 18.666666,18.66666 10.304,0 18.66667,-8.356 18.66667,-18.66666 0,-10.31067 -8.36267,-18.66667 -18.66667,-18.66667 m 0,5.33333 c 7.352,0 13.33333,5.98134 13.33333,13.33334 0,7.352 -5.98133,13.33333 -13.33333,13.33333 -7.352,0 -13.333333,-5.98133 -13.333333,-13.33333 0,-7.352 5.981333,-13.33334 13.333333,-13.33334"
     inkscape:connector-curvature="0" /><path
     id="path90"
     style="fill:#0d0d0d;fill-opacity:1;fill-rule:nonzero;stroke:none;stroke-width:1.33333325"
     d="m 231.99999,133.33334 c -10.304,0 -18.66667,8.356 -18.66667,18.66667 0,10.31066 8.36267,18.66666 18.66667,18.66666 10.304,0 18.66667,-8.356 18.66667,-18.66666 0,-10.31067 -8.36267,-18.66667 -18.66667,-18.66667 m 0,5.33333 c 7.352,0 13.33333,5.98134 13.33333,13.33334 0,7.352 -5.98133,13.33333 -13.33333,13.33333 -7.352,0 -13.33333,-5.98133 -13.33333,-13.33333 0,-7.352 5.98133,-13.33334 13.33333,-13.33334"
     inkscape:connector-curvature="0" /><path
     id="path94"
     style="fill:#808080;fill-opacity:1;fill-rule:nonzero;stroke:none;stroke-width:1.33333325"
     d="m 208.00013,165.33333 c 0,2.94933 -2.78133,5.33333 -6.22267,5.33333 h -62.22133 c -3.44133,0 -6.22266,-2.384 -6.22266,-5.33333 V 144 c 0,-2.94934 2.78133,-5.33334 6.22266,-5.33334 h 62.22133 c 3.44134,0 6.22267,2.384 6.22267,5.33334 z"
     inkscape:connector-curvature="0" /><path
     id="path98"
     style="fill:#0d0d0d;fill-opacity:1;fill-rule:nonzero;stroke:none;stroke-width:1.33333325"
     d="m 133.33333,144.00013 v 21.33333 c 0,2.94934 3.31467,5.33334 7.41467,5.33334 h 3.64933 c 3.136,-4.872 4.936,-10.27867 4.936,-16 0,-5.72134 -1.8,-11.128 -4.936,-16 H 140.748 c -4.1,0 -7.41467,2.384 -7.41467,5.33333"
     inkscape:connector-curvature="0" /><path
     id="path102"
     style="fill:#ff0000;fill-opacity:1;fill-rule:nonzero;stroke:none;stroke-width:1.33333325"
     d="M 309.33333,96.000003 H 32.000004 c 0,-2.945333 2.388,-5.333333 5.333333,-5.333333 H 304 c 2.94533,0 5.33333,2.388 5.33333,5.333333"
     inkscape:connector-curvature="0" /><path
     inkscape:connector-curvature="0"
     d="M 309.33333,101.33334 H 31.999999 V 96.000003 H 309.33333 Z"
     style="fill:#ffff00;fill-opacity:1;fill-rule:nonzero;stroke:none;stroke-width:1.33333325"
     id="path104" /><path
     inkscape:connector-curvature="0"
     d="M 309.33333,106.66667 H 31.999999 v -5.33333 H 309.33333 Z"
     style="fill:#00ff00;fill-opacity:1;fill-rule:nonzero;stroke:none;stroke-width:1.33333325"
     id="path106" /><path
     inkscape:connector-curvature="0"
     d="M 309.33333,112 H 31.999999 v -5.33333 H 309.33333 Z"
     style="fill:#2c8bbf;fill-opacity:1;fill-rule:nonzero;stroke:none;stroke-width:1.33333325"
     id="path108" /><g
     id="g1181"
     transform="translate(8.0003325)"><path
       id="path100"
       style="fill:#000000;fill-opacity:1;fill-rule:nonzero;stroke:none;stroke-width:1.33333325"
       d="m 106.66633,175.99981 h 1.77734 v 10.66666 h -1.77734 z"
       inkscape:connector-curvature="0" /><path
       id="path102-9"
       style="fill:#000000;fill-opacity:1;fill-rule:nonzero;stroke:none;stroke-width:1.33333325"
       d="m 110.22233,179.04782 h 1.77734 v 7.61865 h -1.77734 z m 0,-3.04801 h 1.77734 v 1.52401 h -1.77734 z"
       inkscape:connector-curvature="0" /><path
       id="path104-0"
       style="fill:#000000;fill-opacity:1;fill-rule:nonzero;stroke:none;stroke-width:1.33333325"
       d="m 127.99967,180.5718 h -12.444 v 4.572 h 12.444 z m -14.22267,6.09467 v -10.66666 h 1.77867 v 3.04801 H 129.777 v 7.61865 z"
       inkscape:connector-curvature="0" /><path
       inkscape:connector-curvature="0"
       d="m 131.555,186.66647 v -7.61865 h 16 v 1.52398 h -14.22267 v 6.09467 z"
       style="fill:#000000;fill-opacity:1;fill-rule:nonzero;stroke:none;stroke-width:1.33333325"
       id="path108-3" /><path
       id="path110-3"
       style="fill:#000000;fill-opacity:1;fill-rule:nonzero;stroke:none;stroke-width:1.33333325"
       d="m 163.55433,180.5718 h -12.444 v 1.524 h 12.444 z m 1.77867,4.57067 v 1.524 h -16 v -7.61865 h 16 v 4.57065 h -14.22267 v 1.524 z"
       inkscape:connector-curvature="0" /><path
       inkscape:connector-curvature="0"
       d="m 183.10993,185.1426 v 1.524 h -16 v -10.66666 h 1.77733 v 3.04801 h 14.22267 v 1.52265 h -14.22267 v 4.572 z"
       style="fill:#000000;fill-opacity:1;fill-rule:nonzero;stroke:none;stroke-width:1.33333325"
       id="path114-6" /><path
       inkscape:connector-curvature="0"
       d="m 184.8878,186.66647 v -7.61865 h 16 v 1.52398 h -14.22267 v 6.09467 z"
       style="fill:#000000;fill-opacity:1;fill-rule:nonzero;stroke:none;stroke-width:1.33333325"
       id="path118" /><path
       id="path120"
       style="fill:#000000;fill-opacity:1;fill-rule:nonzero;stroke:none;stroke-width:1.33333325"
       d="m 216.88899,180.5718 h -12.44532 v 4.572 h 12.44532 z M 202.665,179.04782 h 16.00132 v 7.61865 H 202.665 Z"
       inkscape:connector-curvature="0" /></g><g
     id="g1171"
     transform="translate(-26.666458)"><path
       inkscape:connector-curvature="0"
       d="m 163.5846,195.91794 c 0.504,0 0.90267,-0.10267 1.19467,-0.30933 0.29466,-0.20667 0.44,-0.57734 0.44,-1.11467 0,-0.57733 -0.204,-0.97067 -0.61467,-1.18133 -0.22,-0.11067 -0.51333,-0.16534 -0.87867,-0.16534 h -2.62266 v 2.77067 z m -3.58533,-3.71333 h 3.704 c 0.61066,0 1.11333,0.0893 1.50933,0.27066 0.752,0.34534 1.12667,0.984 1.12667,1.91334 0,0.48666 -0.1,0.884 -0.30134,1.192 -0.20266,0.30933 -0.484,0.55733 -0.84533,0.74533 0.31733,0.12933 0.556,0.29733 0.71867,0.508 0.16,0.20933 0.24933,0.54933 0.268,1.02 l 0.0387,1.088 c 0.0107,0.308 0.0373,0.53867 0.0773,0.68933 0.0667,0.25734 0.18533,0.42267 0.356,0.49734 v 0.18133 h -1.35467 c -0.036,-0.0693 -0.0653,-0.16 -0.088,-0.27067 -0.0213,-0.11066 -0.04,-0.324 -0.056,-0.64 l -0.0667,-1.352 c -0.0253,-0.52933 -0.21733,-0.884 -0.576,-1.064 -0.204,-0.1 -0.52666,-0.14933 -0.96533,-0.14933 h -2.44133 v 3.476 h -1.104 z"
       style="fill:#000000;fill-opacity:1;fill-rule:nonzero;stroke:none;stroke-width:1.33333325"
       id="path128" /><path
       inkscape:connector-curvature="0"
       d="m 171.96607,196.88327 c -0.0413,-0.43067 -0.13467,-0.77333 -0.28,-1.032 -0.272,-0.47867 -0.724,-0.71733 -1.36,-0.71733 -0.45333,0 -0.836,0.164 -1.144,0.49333 -0.308,0.33067 -0.47067,0.748 -0.48933,1.256 z m -0.35733,-2.32 c 0.392,0.19733 0.69333,0.452 0.89866,0.764 0.19867,0.29733 0.33067,0.64533 0.396,1.04267 0.06,0.272 0.0893,0.70533 0.0893,1.30266 h -4.32267 c 0.0187,0.6 0.16,1.08267 0.424,1.44667 0.264,0.364 0.67333,0.54533 1.228,0.54533 0.51733,0 0.92933,-0.172 1.23733,-0.516 0.17334,-0.19866 0.296,-0.42933 0.368,-0.692 h 0.98134 c -0.0267,0.216 -0.112,0.45734 -0.25734,0.72534 -0.14666,0.26666 -0.30933,0.484 -0.48933,0.65333 -0.3,0.29467 -0.67333,0.49333 -1.11867,0.596 -0.23733,0.06 -0.508,0.0893 -0.808,0.0893 -0.73466,0 -1.35866,-0.268 -1.86933,-0.804 -0.51067,-0.53466 -0.76667,-1.28533 -0.76667,-2.24933 0,-0.948 0.25734,-1.71867 0.772,-2.31067 0.51467,-0.592 1.18667,-0.88933 2.01734,-0.88933 0.42,0 0.82533,0.0987 1.22,0.296"
       style="fill:#000000;fill-opacity:1;fill-rule:nonzero;stroke:none;stroke-width:1.33333325"
       id="path132" /><path
       inkscape:connector-curvature="0"
       d="m 174.45607,192.7506 h 1.01067 v 1.64933 h 0.948 v 0.81067 h -0.948 v 3.85867 c 0,0.20533 0.0693,0.344 0.20933,0.41333 0.0787,0.04 0.20667,0.06 0.38933,0.06 0.048,0 0.1,-0.001 0.15467,-0.003 0.056,-0.003 0.12133,-0.009 0.19467,-0.0187 v 0.78933 c -0.11467,0.032 -0.23467,0.056 -0.35734,0.072 -0.124,0.0133 -0.25866,0.0213 -0.40266,0.0213 -0.46534,0 -0.78267,-0.11866 -0.94934,-0.356 -0.16533,-0.23733 -0.24933,-0.54533 -0.24933,-0.924 v -3.91333 h -0.804 v -0.81067 h 0.804 z"
       style="fill:#000000;fill-opacity:1;fill-rule:nonzero;stroke:none;stroke-width:1.33333325"
       id="path136" /><path
       inkscape:connector-curvature="0"
       d="m 177.4414,194.39994 h 0.948 v 1.02133 c 0.0773,-0.2 0.26933,-0.44133 0.572,-0.72533 0.30267,-0.28533 0.652,-0.428 1.048,-0.428 0.0187,0 0.0493,10e-4 0.0947,0.005 0.044,0.004 0.12,0.0107 0.228,0.0213 v 1.04933 c -0.06,-0.012 -0.11467,-0.0187 -0.164,-0.0227 -0.0507,-0.003 -0.104,-0.005 -0.164,-0.005 -0.50267,0 -0.88934,0.16133 -1.16,0.48267 -0.26934,0.32133 -0.404,0.69333 -0.404,1.112 v 3.4 h -0.99867 z"
       style="fill:#000000;fill-opacity:1;fill-rule:nonzero;stroke:none;stroke-width:1.33333325"
       id="path140" /><path
       inkscape:connector-curvature="0"
       d="m 184.88193,198.91794 c 0.244,-0.49733 0.36533,-1.052 0.36533,-1.66133 0,-0.552 -0.088,-1 -0.26266,-1.34534 -0.27867,-0.544 -0.75734,-0.816 -1.43734,-0.816 -0.604,0 -1.04266,0.232 -1.31733,0.69467 -0.27333,0.46267 -0.412,1.02133 -0.412,1.676 0,0.628 0.13867,1.15067 0.412,1.57067 0.27467,0.41866 0.70933,0.628 1.30667,0.628 0.65466,0 1.10266,-0.24934 1.34533,-0.74667 m 0.62,-3.928 c 0.52533,0.508 0.788,1.25333 0.788,2.23867 0,0.952 -0.23067,1.73866 -0.69333,2.35866 -0.46267,0.62267 -1.18134,0.93334 -2.15334,0.93334 -0.812,0 -1.45733,-0.27467 -1.93466,-0.824 -0.47734,-0.55067 -0.71734,-1.28934 -0.71734,-2.21467 0,-0.992 0.252,-1.78267 0.756,-2.37067 0.504,-0.588 1.17867,-0.88266 2.028,-0.88266 0.76,0 1.40267,0.25466 1.92667,0.76133"
       style="fill:#000000;fill-opacity:1;fill-rule:nonzero;stroke:none;stroke-width:1.33333325"
       id="path144" /><path
       inkscape:connector-curvature="0"
       d="m 188.37007,197.69434 c 0.0253,0.46 0.12933,0.83333 0.31467,1.12133 0.35333,0.536 0.97466,0.80534 1.86533,0.80534 0.39867,0 0.76267,-0.06 1.09067,-0.17734 0.63466,-0.228 0.952,-0.636 0.952,-1.22533 0,-0.44133 -0.13467,-0.756 -0.404,-0.94267 -0.272,-0.184 -0.69867,-0.344 -1.27867,-0.48133 l -1.06933,-0.248 c -0.69867,-0.16133 -1.19334,-0.34 -1.484,-0.53467 -0.50134,-0.33866 -0.752,-0.844 -0.752,-1.51733 0,-0.72933 0.24533,-1.32667 0.73866,-1.79467 0.49334,-0.46533 1.192,-0.7 2.09467,-0.7 0.832,0 1.53733,0.20534 2.12,0.61467 0.58133,0.41067 0.872,1.06667 0.872,1.968 h -1.03867 c -0.052,-0.43467 -0.16533,-0.76667 -0.34,-0.99867 -0.32133,-0.42266 -0.86933,-0.63466 -1.644,-0.63466 -0.624,0 -1.072,0.136 -1.34533,0.408 -0.27333,0.272 -0.40933,0.58933 -0.40933,0.94933 0,0.39733 0.16133,0.688 0.484,0.872 0.212,0.11867 0.69066,0.26533 1.43466,0.44133 l 1.108,0.25867 c 0.53467,0.12667 0.94534,0.29733 1.236,0.51333 0.50134,0.38 0.75334,0.92934 0.75334,1.65067 0,0.89733 -0.32,1.53867 -0.96134,1.92533 -0.64,0.38667 -1.384,0.58 -2.23066,0.58 -0.98934,0 -1.76267,-0.25733 -2.32134,-0.77333 -0.56,-0.51067 -0.83333,-1.204 -0.82266,-2.08 z"
       style="fill:#000000;fill-opacity:1;fill-rule:nonzero;stroke:none;stroke-width:1.33333325"
       id="path148" /><path
       inkscape:connector-curvature="0"
       d="m 198.76727,199.0602 c 0.31067,-0.388 0.46533,-0.968 0.46533,-1.74133 0,-0.47067 -0.0693,-0.876 -0.20533,-1.21334 -0.26133,-0.652 -0.736,-0.97733 -1.42667,-0.97733 -0.69333,0 -1.168,0.344 -1.424,1.03333 -0.13733,0.36667 -0.20666,0.83467 -0.20666,1.4 0,0.45734 0.0693,0.84534 0.20666,1.16534 0.25867,0.61066 0.73467,0.916 1.424,0.916 0.468,0 0.85734,-0.19467 1.16667,-0.58267 m -3.756,-4.63333 h 0.976 v 0.784 c 0.2,-0.268 0.41867,-0.476 0.656,-0.62267 0.33733,-0.22133 0.73467,-0.332 1.18933,-0.332 0.676,0 1.248,0.25733 1.71867,0.76933 0.472,0.51334 0.70667,1.24667 0.70667,2.2 0,1.288 -0.33867,2.20667 -1.01867,2.76 -0.43067,0.348 -0.932,0.524 -1.50267,0.524 -0.45066,0 -0.82666,-0.0987 -1.132,-0.29333 -0.17733,-0.11067 -0.37733,-0.3 -0.596,-0.568 v 3.01867 h -0.99733 z"
       style="fill:#000000;fill-opacity:1;fill-rule:nonzero;stroke:none;stroke-width:1.33333325"
       id="path152" /><path
       inkscape:connector-curvature="0"
       d="m 205.441,196.88327 c -0.0413,-0.43067 -0.13467,-0.77333 -0.28,-1.032 -0.272,-0.47867 -0.724,-0.71733 -1.36,-0.71733 -0.45333,0 -0.836,0.164 -1.144,0.49333 -0.308,0.33067 -0.47067,0.748 -0.48933,1.256 z m -0.35733,-2.32 c 0.392,0.19733 0.69333,0.452 0.89866,0.764 0.19867,0.29733 0.33067,0.64533 0.396,1.04267 0.06,0.272 0.0893,0.70533 0.0893,1.30266 h -4.32267 c 0.0187,0.6 0.16,1.08267 0.424,1.44667 0.264,0.364 0.67333,0.54533 1.228,0.54533 0.51733,0 0.92933,-0.172 1.23733,-0.516 0.17334,-0.19866 0.296,-0.42933 0.368,-0.692 h 0.98134 c -0.0267,0.216 -0.112,0.45734 -0.25734,0.72534 -0.14666,0.26666 -0.30933,0.484 -0.48933,0.65333 -0.3,0.29467 -0.67333,0.49333 -1.11867,0.596 -0.23733,0.06 -0.508,0.0893 -0.808,0.0893 -0.73466,0 -1.35866,-0.268 -1.86933,-0.804 -0.51067,-0.53466 -0.76667,-1.28533 -0.76667,-2.24933 0,-0.948 0.25734,-1.71867 0.772,-2.31067 0.51467,-0.592 1.18667,-0.88933 2.01734,-0.88933 0.42,0 0.82533,0.0987 1.22,0.296"
       style="fill:#000000;fill-opacity:1;fill-rule:nonzero;stroke:none;stroke-width:1.33333325"
       id="path156" /><path
       inkscape:connector-curvature="0"
       d="m 211.65792,194.71514 c 0.41867,0.32267 0.67067,0.88133 0.75733,1.67067 h -0.972 c -0.0587,-0.36267 -0.19333,-0.66534 -0.40533,-0.90667 -0.20933,-0.24133 -0.548,-0.36133 -1.01467,-0.36133 -0.636,0 -1.09066,0.30933 -1.364,0.92666 -0.17866,0.4 -0.26666,0.89334 -0.26666,1.48134 0,0.592 0.12666,1.09066 0.37733,1.49333 0.252,0.404 0.64667,0.60667 1.18667,0.60667 0.41466,0 0.74266,-0.12534 0.98533,-0.376 0.24133,-0.252 0.40933,-0.59467 0.50133,-1.03067 h 0.972 c -0.112,0.78267 -0.38933,1.356 -0.832,1.71867 -0.44533,0.36266 -1.012,0.54266 -1.704,0.54266 -0.776,0 -1.396,-0.28266 -1.85733,-0.84666 -0.464,-0.56534 -0.69467,-1.26934 -0.69467,-2.116 0,-1.03734 0.25334,-1.84534 0.76,-2.42267 0.50667,-0.57733 1.152,-0.86533 1.936,-0.86533 0.66934,0 1.21467,0.16133 1.63467,0.48533"
       style="fill:#000000;fill-opacity:1;fill-rule:nonzero;stroke:none;stroke-width:1.33333325"
       id="path160" /><path
       inkscape:connector-curvature="0"
       d="m 213.61326,192.7506 h 1.01067 v 1.64933 h 0.948 v 0.81067 h -0.948 v 3.85867 c 0,0.20533 0.0693,0.344 0.20933,0.41333 0.0787,0.04 0.20667,0.06 0.38933,0.06 0.048,0 0.1,-0.001 0.15467,-0.003 0.056,-0.003 0.12133,-0.009 0.19467,-0.0187 v 0.78933 c -0.11467,0.032 -0.23467,0.056 -0.35734,0.072 -0.124,0.0133 -0.25866,0.0213 -0.40266,0.0213 -0.46534,0 -0.78267,-0.11866 -0.94934,-0.356 -0.16533,-0.23733 -0.24933,-0.54533 -0.24933,-0.924 v -3.91333 h -0.804 v -0.81067 h 0.804 z"
       style="fill:#000000;fill-opacity:1;fill-rule:nonzero;stroke:none;stroke-width:1.33333325"
       id="path164" /><path
       inkscape:connector-curvature="0"
       d="m 216.59739,194.39994 h 0.948 v 1.02133 c 0.0773,-0.2 0.26933,-0.44133 0.572,-0.72533 0.30267,-0.28533 0.652,-0.428 1.048,-0.428 0.0187,0 0.0493,10e-4 0.0947,0.005 0.044,0.004 0.12,0.0107 0.228,0.0213 v 1.04933 c -0.06,-0.012 -0.11467,-0.0187 -0.164,-0.0227 -0.0507,-0.003 -0.104,-0.005 -0.164,-0.005 -0.50267,0 -0.88934,0.16133 -1.16,0.48267 -0.26934,0.32133 -0.404,0.69333 -0.404,1.112 v 3.4 h -0.99867 z"
       style="fill:#000000;fill-opacity:1;fill-rule:nonzero;stroke:none;stroke-width:1.33333325"
       id="path168" /><path
       inkscape:connector-curvature="0"
       d="m 221.35206,194.39994 v 3.924 c 0,0.30133 0.0467,0.548 0.14133,0.74 0.172,0.352 0.49467,0.52933 0.96667,0.52933 0.67733,0 1.13733,-0.30933 1.38267,-0.92666 0.13333,-0.332 0.2,-0.78667 0.2,-1.364 v -2.90267 h 0.99866 v 5.91067 h -0.94266 l 0.0107,-0.87334 c -0.128,0.22534 -0.28533,0.41467 -0.47466,0.56934 -0.372,0.30933 -0.82667,0.46266 -1.36,0.46266 -0.832,0 -1.39734,-0.28133 -1.69867,-0.84266 -0.16267,-0.30267 -0.24533,-0.70534 -0.24533,-1.20934 v -4.01733 z"
       style="fill:#000000;fill-opacity:1;fill-rule:nonzero;stroke:none;stroke-width:1.33333325"
       id="path172" /><path
       inkscape:connector-curvature="0"
       d="m 226.67232,194.39994 h 0.98667 v 0.84 c 0.23733,-0.292 0.452,-0.50267 0.644,-0.63467 0.32933,-0.22533 0.70266,-0.33733 1.12,-0.33733 0.47333,0 0.85466,0.116 1.144,0.348 0.16266,0.132 0.30933,0.32667 0.44266,0.584 0.22267,-0.316 0.48267,-0.55067 0.78267,-0.704 0.29867,-0.152 0.636,-0.228 1.01067,-0.228 0.79866,0 1.34133,0.28667 1.63066,0.86133 0.15467,0.308 0.23334,0.724 0.23334,1.24667 v 3.93467 h -1.03867 v -4.10534 c 0,-0.39466 -0.0987,-0.66533 -0.296,-0.812 -0.19867,-0.14666 -0.44,-0.22 -0.72533,-0.22 -0.39067,0 -0.72934,0.12934 -1.012,0.39067 -0.28267,0.26267 -0.424,0.69733 -0.424,1.308 v 3.43867 h -1.01467 v -3.85734 c 0,-0.40133 -0.0493,-0.69333 -0.144,-0.87733 -0.152,-0.276 -0.43467,-0.41467 -0.84933,-0.41467 -0.37734,0 -0.72,0.14534 -1.02934,0.436 -0.30933,0.29067 -0.46266,0.816 -0.46266,1.57867 v 3.13467 h -0.99867 z"
       style="fill:#000000;fill-opacity:1;fill-rule:nonzero;stroke:none;stroke-width:1.33333325"
       id="path176" /></g></svg>