<?xml version="1.0" encoding="UTF-8" standalone="no"?>
<svg
   xmlns:dc="http://purl.org/dc/elements/1.1/"
   xmlns:cc="http://creativecommons.org/ns#"
   xmlns:rdf="http://www.w3.org/1999/02/22-rdf-syntax-ns#"
   xmlns:svg="http://www.w3.org/2000/svg"
   xmlns="http://www.w3.org/2000/svg"
   xmlns:sodipodi="http://sodipodi.sourceforge.net/DTD/sodipodi-0.dtd"
   xmlns:inkscape="http://www.inkscape.org/namespaces/inkscape"
   viewBox="0 0 341.33334 341.33334"
   height="341.33334"
   width="341.33334"
   xml:space="preserve"
   id="svg2"
   version="1.1"
   sodipodi:docname="Sony - PlayStation 3-content.svg"
   inkscape:version="0.92.2 (5c3e80d, 2017-08-06)"><sodipodi:namedview
     pagecolor="#ffffff"
     bordercolor="#666666"
     borderopacity="1"
     objecttolerance="10"
     gridtolerance="10"
     guidetolerance="10"
     inkscape:pageopacity="0"
     inkscape:pageshadow="2"
     inkscape:window-width="1024"
     inkscape:window-height="705"
     id="namedview24"
     showgrid="false"
     inkscape:pagecheckerboard="true"
     inkscape:zoom="0.69140623"
     inkscape:cx="-96.180795"
     inkscape:cy="170.66667"
     inkscape:window-x="-8"
     inkscape:window-y="-8"
     inkscape:window-maximized="1"
     inkscape:current-layer="svg2" /><metadata
     id="metadata8"><rdf:RDF><cc:Work
         rdf:about=""><dc:format>image/svg+xml</dc:format><dc:type
           rdf:resource="http://purl.org/dc/dcmitype/StillImage" /><dc:title /></cc:Work></rdf:RDF></metadata><defs
     id="defs6"><clipPath
       id="clipPath18"
       clipPathUnits="userSpaceOnUse"><path
         id="path16"
         d="M 0,256 H 256 V 0 H 0 Z" /></clipPath><clipPath
       id="clipPath26"
       clipPathUnits="userSpaceOnUse"><path
         id="path24"
         d="M 4,252 H 252 V 4 H 4 Z" /></clipPath></defs><g
     id="g22"
     transform="matrix(1.3333333,0,0,-1.3333333,0,341.33333)" /><path
     id="path38"
     style="fill:#cccccc;fill-opacity:1;fill-rule:nonzero;stroke:none;stroke-width:1.33333325"
     d="m 170.66666,228.6732 c -31.99067,0 -58.00667,-26.024 -58.00667,-58.00667 0,-31.98399 26.016,-58.00666 58.00667,-58.00666 31.98267,0 58,26.02267 58,58.00666 0,31.98267 -26.01733,58.00667 -58,58.00667 m 0,-212.673328 c -85.427998,0 -154.666663,69.245332 -154.666663,154.666658 0,85.42134 69.238665,154.66667 154.666663,154.66667 85.40133,0 154.66666,-69.24533 154.66666,-154.66667 0,-85.421326 -69.26533,-154.666658 -154.66666,-154.666658"
     inkscape:connector-curvature="0" /><path
     id="path42"
     style="fill:#e6e6e6;fill-opacity:0.49019608;fill-rule:nonzero;stroke:none;stroke-width:1.33333325"
     d="m 170.66986,189.03387 c -10.128,0 -18.38133,-8.23467 -18.38133,-18.36667 0,-10.14 8.25333,-18.38133 18.38133,-18.38133 10.13333,0 18.36933,8.24133 18.36933,18.38133 0,10.132 -8.236,18.36667 -18.36933,18.36667 m 0.001,-79.7 c -33.81866,0 -61.33733,27.53333 -61.33733,61.33333 0,33.79734 27.51867,61.33334 61.33733,61.33334 33.78267,0 61.32934,-27.536 61.32934,-61.33334 0,-33.8 -27.54667,-61.33333 -61.32934,-61.33333"
     inkscape:connector-curvature="0" /><path
     id="path46"
     style="fill:#333333;fill-opacity:1;fill-rule:nonzero;stroke:none;stroke-width:1.33333325"
     d="m 170.66933,261.33333 c -53.33333,0 -111.999997,16 -111.999997,16 v 0.003 c 28.170666,29.56933 67.930667,47.99733 111.999997,47.99733 44.05867,0 83.82,-18.42933 111.99466,-48.00133 -0.236,-0.064 -58.76799,-15.99867 -111.99466,-15.99867"
     inkscape:connector-curvature="0" /></svg>