<?xml version="1.0" encoding="UTF-8" standalone="no"?>
<svg
   xmlns:dc="http://purl.org/dc/elements/1.1/"
   xmlns:cc="http://creativecommons.org/ns#"
   xmlns:rdf="http://www.w3.org/1999/02/22-rdf-syntax-ns#"
   xmlns:svg="http://www.w3.org/2000/svg"
   xmlns="http://www.w3.org/2000/svg"
   xmlns:sodipodi="http://sodipodi.sourceforge.net/DTD/sodipodi-0.dtd"
   xmlns:inkscape="http://www.inkscape.org/namespaces/inkscape"
   viewBox="0 0 341.33334 341.33334"
   height="341.33334"
   width="341.33334"
   xml:space="preserve"
   id="svg2"
   version="1.1"
   sodipodi:docname="Tiger - Game.com-content.svg"
   inkscape:version="0.92.2 (5c3e80d, 2017-08-06)"><sodipodi:namedview
     pagecolor="#ffffff"
     bordercolor="#666666"
     borderopacity="1"
     objecttolerance="10"
     gridtolerance="10"
     guidetolerance="10"
     inkscape:pageopacity="0"
     inkscape:pageshadow="2"
     inkscape:window-width="1024"
     inkscape:window-height="705"
     id="namedview28"
     showgrid="false"
     inkscape:pagecheckerboard="true"
     inkscape:zoom="0.69140623"
     inkscape:cx="170.66667"
     inkscape:cy="170.66667"
     inkscape:window-x="-8"
     inkscape:window-y="-8"
     inkscape:window-maximized="1"
     inkscape:current-layer="svg2" /><metadata
     id="metadata8"><rdf:RDF><cc:Work
         rdf:about=""><dc:format>image/svg+xml</dc:format><dc:type
           rdf:resource="http://purl.org/dc/dcmitype/StillImage" /><dc:title></dc:title></cc:Work></rdf:RDF></metadata><defs
     id="defs6"><clipPath
       id="clipPath18"
       clipPathUnits="userSpaceOnUse"><path
         id="path16"
         d="M 0,256 H 256 V 0 H 0 Z" /></clipPath><clipPath
       id="clipPath26"
       clipPathUnits="userSpaceOnUse"><path
         id="path24"
         d="M 4,252 H 252 V 4 H 4 Z" /></clipPath></defs><g
     id="g22"
     transform="matrix(1.3333333,0,0,-1.3333333,0,341.33333)" /><path
     id="path38"
     style="fill:#262626;fill-opacity:1;fill-rule:nonzero;stroke:none;stroke-width:1.33333325"
     d="m 170.66666,16.000005 c -59.656,0 -131.155997,7.896 -149.954663,10.101333 -2.686667,0.314667 -4.712,2.590667 -4.712,5.297333 v 11.268 260.074659 c 0,0.828 0.193334,1.644 0.562667,2.38533 l 8.630666,17.25867 c 0.902667,1.80667 2.749334,2.948 4.769334,2.948 H 311.37066 c 2.02,0 3.86666,-1.14133 4.76933,-2.948 l 8.63067,-17.25867 c 0.36933,-0.74133 0.56266,-1.55733 0.56266,-2.38533 v -260.074659 -11.268 c 0,-2.706666 -2.02533,-4.982666 -4.712,-5.297333 C 301.82266,23.896005 230.32133,16.000005 170.66666,16.000005"
     inkscape:connector-curvature="0" /><path
     id="path42"
     style="fill:#191919;fill-opacity:1;fill-rule:nonzero;stroke:none;stroke-width:1.33333325"
     d="M 303.99999,208 H 37.33333 c -2.945333,0 -5.333333,-2.388 -5.333333,-5.33333 V 64.000004 c 0,-2.945334 2.388,-5.333334 5.333333,-5.333334 h 266.66666 c 2.94533,0 5.33333,2.388 5.33333,5.333334 V 202.66667 c 0,2.94533 -2.388,5.33333 -5.33333,5.33333"
     inkscape:connector-curvature="0" /><path
     id="path46"
     style="fill:#191919;fill-opacity:1;fill-rule:nonzero;stroke:none;stroke-width:1.33333325"
     d="m 138.66666,266.66667 h 64 l -32,32 z"
     inkscape:connector-curvature="0" /><path
     id="path50"
     style="fill:#1abf9f;fill-opacity:1;fill-rule:nonzero;stroke:none;stroke-width:1.33333325"
     d="M 277.33333,202.66667 H 42.666669 c -2.945333,0 -5.333333,-2.388 -5.333333,-5.33333 v -128 c 0,-2.945333 2.388,-5.333333 5.333333,-5.333333 H 277.33333 Z"
     inkscape:connector-curvature="0" /><path
     id="path54"
     style="fill:#cccccc;fill-opacity:1;fill-rule:nonzero;stroke:none;stroke-width:1.33333325"
     d="M 298.66666,202.66667 H 271.99999 V 64.000007 h 26.66667 c 2.94533,0 5.33333,2.388 5.33333,5.333333 v 128 c 0,2.94533 -2.388,5.33333 -5.33333,5.33333"
     inkscape:connector-curvature="0" /></svg>