<?xml version="1.0" encoding="UTF-8" standalone="no"?>
<svg
   xmlns:dc="http://purl.org/dc/elements/1.1/"
   xmlns:cc="http://creativecommons.org/ns#"
   xmlns:rdf="http://www.w3.org/1999/02/22-rdf-syntax-ns#"
   xmlns:svg="http://www.w3.org/2000/svg"
   xmlns="http://www.w3.org/2000/svg"
   xmlns:sodipodi="http://sodipodi.sourceforge.net/DTD/sodipodi-0.dtd"
   xmlns:inkscape="http://www.inkscape.org/namespaces/inkscape"
   viewBox="0 0 341.33334 341.33334"
   height="341.33334"
   width="341.33334"
   xml:space="preserve"
   id="svg2"
   version="1.1"
   sodipodi:docname="undo.svg"
   inkscape:version="0.92.2 (5c3e80d, 2017-08-06)"><sodipodi:namedview
     pagecolor="#ffffff"
     bordercolor="#666666"
     borderopacity="1"
     objecttolerance="10"
     gridtolerance="10"
     guidetolerance="10"
     inkscape:pageopacity="0"
     inkscape:pageshadow="2"
     inkscape:window-width="1024"
     inkscape:window-height="705"
     id="namedview20"
     showgrid="false"
     inkscape:pagecheckerboard="true"
     inkscape:zoom="0.69140623"
     inkscape:cx="170.66667"
     inkscape:cy="170.66667"
     inkscape:window-x="-8"
     inkscape:window-y="-8"
     inkscape:window-maximized="1"
     inkscape:current-layer="svg2" /><metadata
     id="metadata8"><rdf:RDF><cc:Work
         rdf:about=""><dc:format>image/svg+xml</dc:format><dc:type
           rdf:resource="http://purl.org/dc/dcmitype/StillImage" /><dc:title></dc:title></cc:Work></rdf:RDF></metadata><defs
     id="defs6"><clipPath
       id="clipPath18"
       clipPathUnits="userSpaceOnUse"><path
         id="path16"
         d="M 0,256 H 256 V 0 H 0 Z" /></clipPath><clipPath
       id="clipPath26"
       clipPathUnits="userSpaceOnUse"><path
         id="path24"
         d="M 86.9977,172.244 H 169.002 V 83.7563 H 86.9977 Z" /></clipPath></defs><g
     id="g22"
     transform="matrix(1.3333333,0,0,-1.3333333,0,341.33333)" /><path
     id="path38"
     style="fill:#16a085;fill-opacity:1;fill-rule:nonzero;stroke:none;stroke-width:1.33333325"
     d="m 211.02106,158.2336 c -6.61733,-15.984 -21.85467,-26.44933 -39.05733,-26.956 -0.72,-0.02 -1.29734,-0.59467 -1.29734,-1.31467 v -5.14133 c 0,-1.6 -1.72666,-2.64 -3.19466,-1.92533 l -24.64133,12.01466 c -1.604,0.78134 -1.604,3.068 0,3.84934 l 24.64133,12.01333 c 1.468,0.716 3.19466,-0.324 3.19466,-1.924 v -4.61067 -0.69866 c 0,-0.744 0.61467,-1.36 1.35867,-1.32934 12.744,0.524 23.992,8.33334 28.90533,20.20134 5.09334,12.28933 2.304,26.30533 -7.1,35.71466 -9.40266,9.408 -23.42533,12.192 -35.716,7.09867 -12.28933,-5.088 -20.22799,-16.972 -20.22799,-30.27333 v -4.13734 c 0,-0.732 -0.59334,-1.324 -1.32534,-1.324 h -8.27466 c -0.73067,0 -1.324,0.592 -1.324,1.324 v 4.13734 c 0,17.73466 10.588,33.58 26.97199,40.36533 5.44134,2.256 11.13467,3.34933 16.772,3.34933 11.348,0 22.468,-4.43733 30.848,-12.81733 12.53867,-12.53867 16.256,-31.23333 9.46667,-47.616"
     inkscape:connector-curvature="0" /></svg>