<?xml version="1.0" encoding="UTF-8" standalone="no"?>
<svg
   xmlns:dc="http://purl.org/dc/elements/1.1/"
   xmlns:cc="http://creativecommons.org/ns#"
   xmlns:rdf="http://www.w3.org/1999/02/22-rdf-syntax-ns#"
   xmlns:svg="http://www.w3.org/2000/svg"
   xmlns="http://www.w3.org/2000/svg"
   xmlns:sodipodi="http://sodipodi.sourceforge.net/DTD/sodipodi-0.dtd"
   xmlns:inkscape="http://www.inkscape.org/namespaces/inkscape"
   viewBox="0 0 341.33334 341.33334"
   height="256"
   width="256"
   xml:space="preserve"
   id="svg2"
   version="1.1"
   sodipodi:docname="Uzebox-content.svg"
   inkscape:version="0.92.2 (5c3e80d, 2017-08-06)"><sodipodi:namedview
     pagecolor="#ffffff"
     bordercolor="#666666"
     borderopacity="1"
     objecttolerance="10"
     gridtolerance="10"
     guidetolerance="10"
     inkscape:pageopacity="0"
     inkscape:pageshadow="2"
     inkscape:window-width="1024"
     inkscape:window-height="705"
     id="namedview38"
     showgrid="false"
     inkscape:pagecheckerboard="true"
     inkscape:zoom="0.69140623"
     inkscape:cx="170.66667"
     inkscape:cy="170.66667"
     inkscape:window-x="-8"
     inkscape:window-y="-8"
     inkscape:window-maximized="1"
     inkscape:current-layer="svg2" /><metadata
     id="metadata8"><rdf:RDF><cc:Work
         rdf:about=""><dc:format>image/svg+xml</dc:format><dc:type
           rdf:resource="http://purl.org/dc/dcmitype/StillImage" /><dc:title></dc:title></cc:Work></rdf:RDF></metadata><defs
     id="defs6"><clipPath
       id="clipPath18"
       clipPathUnits="userSpaceOnUse"><path
         id="path16"
         d="M 0,256 H 256 V 0 H 0 Z" /></clipPath><clipPath
       id="clipPath26"
       clipPathUnits="userSpaceOnUse"><path
         id="path24"
         d="M 32,252 H 224 V 4 H 32 Z" /></clipPath></defs><g
     id="g36"
     transform="matrix(1.3333333,0,0,-1.3333333,287.99999,106.66667)"><path
       inkscape:connector-curvature="0"
       d="m 0,0 v 38.343 c 0,1.061 -0.421,2.078 -1.172,2.829 L -26.828,66.828 C -27.579,67.579 -28.596,68 -29.657,68 H -172 c -2.209,0 -4,-1.791 -4,-4 V 16 c 0,-2.209 1.791,-4 4,-4 h 4 v -52 h -4 c -2.209,0 -4,-1.791 -4,-4 v -116 c 0,-2.209 1.791,-4 4,-4 h 58.343 c 1.061,0 2.078,0.421 2.829,1.172 l 1.656,1.656 c 0.75,0.751 1.768,1.172 2.829,1.172 h 36.686 c 1.061,0 2.078,-0.421 2.829,-1.172 l 1.656,-1.656 c 0.751,-0.751 1.768,-1.172 2.829,-1.172 H -4 c 2.209,0 4,1.791 4,4 v 140 c 0,2.209 -1.791,4 -4,4 v 12 c 2.209,0 4,1.791 4,4"
       style="fill:#191919;fill-opacity:1;fill-rule:nonzero;stroke:none"
       id="path38" /></g><g
     id="g40"
     transform="matrix(1.3333333,0,0,-1.3333333,63.999998,122.66667)"><path
       inkscape:connector-curvature="0"
       d="m 0,0 h -4 c -2.209,0 -4,1.791 -4,4 v 16 c 0,2.209 1.791,4 4,4 h 4 z"
       style="fill:#999999;fill-opacity:1;fill-rule:nonzero;stroke:none"
       id="path42" /></g><g
     id="g44"
     transform="matrix(1.3333333,0,0,-1.3333333,250.66666,304)"><path
       inkscape:connector-curvature="0"
       d="m 0,0 h -120 c -6.627,0 -12,5.373 -12,12 v 164 c 0,6.627 5.373,12 12,12 H 0 c 6.627,0 12,-5.373 12,-12 V 12 C 12,5.373 6.627,0 0,0"
       style="fill:#262626;fill-opacity:1;fill-rule:nonzero;stroke:none"
       id="path46" /></g><g
     id="g48"
     transform="matrix(1.3333333,0,0,-1.3333333,250.66666,58.66667)"><path
       inkscape:connector-curvature="0"
       d="m 0,0 c 4.411,0 8,-3.589 8,-8 v -164 c 0,-4.411 -3.589,-8 -8,-8 h -120 c -4.411,0 -8,3.589 -8,8 V -8 c 0,4.411 3.589,8 8,8 H 0"
       style="fill:#b80000;fill-opacity:1;fill-rule:nonzero;stroke:none"
       id="path50" /></g><g
     id="g52"
     transform="matrix(1.3333333,0,0,-1.3333333,242.66666,314.66666)"><path
       inkscape:connector-curvature="0"
       d="m 0,0 h -108 c -1.105,0 -2,0.895 -2,2 v 0 c 0,1.105 0.895,2 2,2 H 0 C 1.105,4 2,3.105 2,2 V 2 C 2,0.895 1.105,0 0,0"
       style="fill:#333333;fill-opacity:1;fill-rule:nonzero;stroke:none"
       id="path54" /></g><path
     inkscape:connector-curvature="0"
     d="M 261.33333,193.33333 H 79.999998 V 188 H 261.33333 Z"
     style="fill:#3d0000;fill-opacity:1;fill-rule:nonzero;stroke:none;stroke-width:1.33333325"
     id="path56" /><path
     inkscape:connector-curvature="0"
     d="M 261.33333,204 H 79.999998 v -5.33333 H 261.33333 Z"
     style="fill:#3d0000;fill-opacity:1;fill-rule:nonzero;stroke:none;stroke-width:1.33333325"
     id="path58" /><path
     inkscape:connector-curvature="0"
     d="M 261.33333,214.66667 H 79.999998 v -5.33334 H 261.33333 Z"
     style="fill:#3d0000;fill-opacity:1;fill-rule:nonzero;stroke:none;stroke-width:1.33333325"
     id="path60" /><path
     inkscape:connector-curvature="0"
     d="M 261.33333,225.33333 H 79.999998 V 220 H 261.33333 Z"
     style="fill:#3d0000;fill-opacity:1;fill-rule:nonzero;stroke:none;stroke-width:1.33333325"
     id="path62" /><path
     inkscape:connector-curvature="0"
     d="M 261.33333,236 H 79.999998 v -5.33333 H 261.33333 Z"
     style="fill:#3d0000;fill-opacity:1;fill-rule:nonzero;stroke:none;stroke-width:1.33333325"
     id="path64" /><path
     inkscape:connector-curvature="0"
     d="M 261.33333,246.66667 H 79.999998 v -5.33334 H 261.33333 Z"
     style="fill:#3d0000;fill-opacity:1;fill-rule:nonzero;stroke:none;stroke-width:1.33333325"
     id="path66" /><path
     inkscape:connector-curvature="0"
     d="M 261.33333,257.33333 H 79.999998 V 252 H 261.33333 Z"
     style="fill:#3d0000;fill-opacity:1;fill-rule:nonzero;stroke:none;stroke-width:1.33333325"
     id="path68" /><path
     inkscape:connector-curvature="0"
     d="M 261.33333,268 H 79.999998 v -5.33333 H 261.33333 Z"
     style="fill:#3d0000;fill-opacity:1;fill-rule:nonzero;stroke:none;stroke-width:1.33333325"
     id="path70" /><path
     inkscape:connector-curvature="0"
     d="M 261.33333,278.66666 H 79.999998 v -5.33333 H 261.33333 Z"
     style="fill:#3d0000;fill-opacity:1;fill-rule:nonzero;stroke:none;stroke-width:1.33333325"
     id="path72" /><path
     inkscape:connector-curvature="0"
     d="M 261.33333,289.33333 H 79.999998 V 284 H 261.33333 Z"
     style="fill:#3d0000;fill-opacity:1;fill-rule:nonzero;stroke:none;stroke-width:1.33333325"
     id="path74" /></svg>
