<?xml version="1.0" encoding="UTF-8" standalone="no"?>
<svg
   xmlns:dc="http://purl.org/dc/elements/1.1/"
   xmlns:cc="http://creativecommons.org/ns#"
   xmlns:rdf="http://www.w3.org/1999/02/22-rdf-syntax-ns#"
   xmlns:svg="http://www.w3.org/2000/svg"
   xmlns="http://www.w3.org/2000/svg"
   xmlns:sodipodi="http://sodipodi.sourceforge.net/DTD/sodipodi-0.dtd"
   xmlns:inkscape="http://www.inkscape.org/namespaces/inkscape"
   viewBox="0 0 341.33334 341.33334"
   height="341.33334"
   width="341.33334"
   xml:space="preserve"
   id="svg2"
   version="1.1"
   sodipodi:docname="VTech - V.Smile P.svg"
   inkscape:version="0.92.2 (5c3e80d, 2017-08-06)"><sodipodi:namedview
     pagecolor="#ffffff"
     bordercolor="#666666"
     borderopacity="1"
     objecttolerance="10"
     gridtolerance="10"
     guidetolerance="10"
     inkscape:pageopacity="0"
     inkscape:pageshadow="2"
     inkscape:window-width="1024"
     inkscape:window-height="705"
     id="namedview43"
     showgrid="false"
     inkscape:pagecheckerboard="true"
     inkscape:zoom="0.69140623"
     inkscape:cx="170.66667"
     inkscape:cy="170.66667"
     inkscape:window-x="-8"
     inkscape:window-y="-8"
     inkscape:window-maximized="1"
     inkscape:current-layer="svg2" /><metadata
     id="metadata8"><rdf:RDF><cc:Work
         rdf:about=""><dc:format>image/svg+xml</dc:format><dc:type
           rdf:resource="http://purl.org/dc/dcmitype/StillImage" /><dc:title></dc:title></cc:Work></rdf:RDF></metadata><defs
     id="defs6"><clipPath
       id="clipPath18"
       clipPathUnits="userSpaceOnUse"><path
         id="path16"
         d="M 0,256 H 256 V 0 H 0 Z" /></clipPath><clipPath
       id="clipPath26"
       clipPathUnits="userSpaceOnUse"><path
         id="path24"
         d="M 4,236 H 252 V 20 H 4 Z" /></clipPath></defs><g
     id="g22"
     transform="matrix(1.3333333,0,0,-1.3333333,0,341.33333)" /><path
     id="path38"
     style="fill:#4d0099;fill-opacity:1;fill-rule:nonzero;stroke:none;stroke-width:1.33333325"
     d="m 16.348933,256 c -0.325333,2.58933 -0.433333,5.24667 -0.272,7.96 1.268,21.34 18.634666,38.69467 39.987999,39.96267 11.009333,0.65333 21.177333,-2.872 29.077333,-9.13334 5.590666,-4.43066 12.550666,-6.77866 19.687995,-6.77866 h 0.83067 c 5.7,0 11.25867,1.58133 16.208,4.408 12.528,7.16 29.76667,11.58133 48.79733,11.58133 19.032,0 36.26933,-4.42133 48.79867,-11.58133 4.948,-2.82667 10.50666,-4.408 16.20666,-4.408 h 0.832 c 7.13734,0 14.096,2.348 19.688,6.77866 7.9,6.26134 18.068,9.78667 29.076,9.13334 21.35334,-1.268 38.72,-18.62267 39.98934,-39.96267 0.16,-2.71333 0.0533,-5.37067 -0.272,-7.96 z"
     inkscape:connector-curvature="0" /><path
     id="path42"
     style="fill:#ed4792;fill-opacity:1;fill-rule:nonzero;stroke:none;stroke-width:1.33333325"
     d="m 325.33333,165.41213 c 0,-11.444 -4.516,-21.82933 -11.86,-29.48667 -2.592,-2.704 -4.14,-6.23733 -4.14,-9.984 v -6.56133 c 0,-3.60933 1.488,-7.02133 3.99867,-9.61467 8.19466,-8.46266 12.916,-20.302661 11.85333,-33.233328 C 323.412,54.938799 305.24266,38.5308 283.58666,37.477467 c -12.11333,-0.589334 -23.10266,0.394666 -31.01733,7.326666 -2.37733,2.081333 -5.36,3.348 -8.52133,3.348 h -7.07733 c -5.944,0 -11.83067,-1.286667 -17.17734,-3.882667 C 207.24,38.172133 189.864,37.492133 170.66667,37.492133 c -19.19867,0 -36.572,0.68 -49.12667,6.777333 -5.34666,2.596 -11.23333,3.882667 -17.17733,3.882667 h -7.077334 c -3.161334,0 -6.144,-1.266667 -8.521333,-3.348 -7.916,-6.932 -18.904,-7.916 -31.017333,-7.326666 -21.654666,1.053333 -39.825332,17.461332 -41.598666,39.054665 -1.062666,12.932 3.66,24.771998 11.854667,33.234668 2.510666,2.592 3.997333,6.00266 3.997333,9.61066 v 6.576 c 0,3.74 -1.545333,7.26667 -4.136,9.96667 -7.345333,7.65867 -11.864,18.04533 -11.864,29.492 0,11.444 4.516,21.83067 11.86,29.48667 2.592,2.704 4.14,6.23733 4.14,9.984 v 6.56266 c 0,3.616 -1.5,7.02934 -4.014667,9.63067 -7.971999,8.24267 -12.651999,19.684 -11.907999,32.21733 1.268,21.34 18.634666,38.69467 39.987999,39.96267 11.009333,0.65333 21.177333,-2.872 29.075999,-9.13334 5.592,-4.432 12.552,-6.77866 19.689334,-6.77866 h 0.83067 c 5.7,0 11.25866,1.58133 16.20666,4.408 12.528,7.16 29.768,11.58133 48.79867,11.58133 19.03066,0 36.26933,-4.42133 48.79866,-11.58133 4.948,-2.82667 10.50667,-4.408 16.20667,-4.408 h 0.832 c 7.136,0 14.096,2.34666 19.688,6.77866 7.89866,6.26134 18.06666,9.78667 29.076,9.13334 21.35333,-1.268 38.72,-18.62267 39.988,-39.96267 0.744,-12.53333 -3.936,-23.976 -11.90934,-32.21866 -2.51466,-2.60134 -4.01333,-6.012 -4.01333,-9.62667 v -6.57733 c 0,-3.74 1.54533,-7.26667 4.136,-9.96534 7.34533,-7.66 11.864,-18.04666 11.864,-29.49333"
     inkscape:connector-curvature="0" /><path
     id="path46"
     style="fill:#b62971;fill-opacity:1;fill-rule:nonzero;stroke:none;stroke-width:1.33333325"
     d="M 63.999998,181.49093 H 277.33333 c 5.89066,0 10.66666,-4.77467 10.66666,-10.66667 V 37.916267 c -1.452,-0.213333 -2.92266,-0.366667 -4.41333,-0.438667 -12.11333,-0.589333 -23.10267,0.394667 -31.01733,7.330667 -2.37734,2.084 -5.36,3.349333 -8.52134,3.349333 h -7.07733 c -5.944,0 -11.83067,-1.285333 -17.17733,-3.884 -12.55334,-6.1 -29.92934,-6.782666 -49.12667,-6.782666 -19.19866,0 -36.57333,0.682666 -49.12666,6.782666 -5.34667,2.598667 -11.23334,3.884 -17.17734,3.884 h -7.077329 c -3.161334,0 -6.144,-1.265333 -8.521334,-3.349333 -7.915999,-6.936 -18.903999,-7.92 -31.017332,-7.330667 -1.490667,0.072 -2.961333,0.225334 -4.413333,0.438667 V 170.82426 c 0,5.892 4.775999,10.66667 10.666666,10.66667"
     inkscape:connector-curvature="0" /><path
     id="path50"
     style="fill:#a12868;fill-opacity:1;fill-rule:nonzero;stroke:none;stroke-width:1.33333325"
     d="M 229.33333,277.99613 V 250.6668 H 112 v 27.32933 c 3.45067,0.712 6.77867,1.992 9.868,3.756 12.528,7.16 29.768,11.58133 48.79866,11.58133 19.03067,0 36.26934,-4.42133 48.79867,-11.58133 3.08933,-1.764 6.416,-3.044 9.868,-3.756"
     inkscape:connector-curvature="0" /><path
     id="path54"
     style="fill:#b62971;fill-opacity:1;fill-rule:nonzero;stroke:none;stroke-width:1.33333325"
     d="m 170.66666,197.33333 c 8.836,0 16,-7.164 16,-16 h -32 c 0,8.836 7.164,16 16,16"
     inkscape:connector-curvature="0" /><path
     id="path58"
     style="fill:#b62971;fill-opacity:1;fill-rule:nonzero;stroke:none;stroke-width:1.33333325"
     d="m 170.66666,234.66667 c -8.836,0 -16,7.164 -16,16 h 32 c 0,-8.836 -7.164,-16 -16,-16"
     inkscape:connector-curvature="0" /><path
     id="path62"
     style="fill:#a12868;fill-opacity:1;fill-rule:nonzero;stroke:none;stroke-width:1.33333325"
     d="m 170.66666,165.33333 c -8.836,0 -16,7.164 -16,16 h 32 c 0,-8.836 -7.164,-16 -16,-16"
     inkscape:connector-curvature="0" /><path
     id="path66"
     style="fill:#a12868;fill-opacity:1;fill-rule:nonzero;stroke:none;stroke-width:1.33333325"
     d="m 95.999998,160 c 0,-41.23733 33.429332,-74.666665 74.666662,-74.666665 41.23734,0 74.66667,33.429335 74.66667,74.666665 0,7.416 -1.096,14.572 -3.10934,21.33333 h 5.53067 c 1.884,-6.79733 2.912,-13.94533 2.912,-21.33333 0,-44.112 -35.888,-79.999998 -80,-79.999998 -44.112,0 -79.999995,35.887998 -79.999995,79.999998 0,7.388 1.028,14.536 2.910666,21.33333 h 5.532 C 97.095998,174.572 95.999998,167.416 95.999998,160"
     inkscape:connector-curvature="0" /><path
     id="path70"
     style="fill:#a12868;fill-opacity:1;fill-rule:nonzero;stroke:none;stroke-width:1.33333325"
     d="m 82.548131,181.33333 c -1.650667,-6.844 -2.548,-13.98267 -2.548,-21.33333 0,-50.07333 40.593329,-90.666667 90.666669,-90.666667 50.07466,0 90.66666,40.593337 90.66666,90.666667 0,7.35066 -0.89733,14.48933 -2.548,21.33333 h 5.46133 c 1.56534,-6.86533 2.42,-14 2.42,-21.33333 0,-52.93467 -43.06533,-96 -95.99999,-96 -52.93467,0 -96.000002,43.06533 -96.000002,96 0,7.33333 0.853333,14.468 2.418666,21.33333 z"
     inkscape:connector-curvature="0" /><path
     id="path74"
     style="fill:#a12868;fill-opacity:1;fill-rule:nonzero;stroke:none;stroke-width:1.33333325"
     d="m 112,160 c 0,-32.40133 26.26533,-58.66667 58.66667,-58.66667 32.40133,0 58.66666,26.26534 58.66666,58.66667 0,7.52933 -1.43333,14.71867 -4.01867,21.33333 h 5.68267 C 233.364,174.656 234.66666,167.47867 234.66666,160 c 0,-35.28933 -28.71066,-63.999998 -63.99999,-63.999998 -35.28934,0 -64,28.710668 -64,63.999998 0,7.47867 1.30133,14.656 3.66933,21.33333 h 5.68267 C 113.43333,174.71867 112,167.52933 112,160"
     inkscape:connector-curvature="0" /><path
     id="path78"
     style="fill:#a12868;fill-opacity:1;fill-rule:nonzero;stroke:none;stroke-width:1.33333325"
     d="m 128,160 c 0,-23.564 19.10267,-42.66667 42.66667,-42.66667 23.564,0 42.66666,19.10267 42.66666,42.66667 0,7.77467 -2.08933,15.056 -5.72267,21.33333 h 6.03734 c 3.20533,-6.43066 5.01866,-13.67333 5.01866,-21.33333 0,-26.468 -21.532,-48 -47.99999,-48 -26.468,0 -48,21.532 -48,48 0,7.66 1.81333,14.90267 5.01866,21.33333 h 6.03734 C 130.08933,175.056 128,167.77467 128,160"
     inkscape:connector-curvature="0" /><path
     inkscape:connector-curvature="0"
     d="M 223.99999,274.66666 H 117.33333 V 272 h 106.66666 z"
     style="fill:#b62971;fill-opacity:1;fill-rule:nonzero;stroke:none;stroke-width:1.33333325"
     id="path80" /><path
     id="path84"
     style="fill:#4d0099;fill-opacity:1;fill-rule:nonzero;stroke:none;stroke-width:1.33333325"
     d="m 79.999998,248 c 0,10.30933 -8.357333,18.66667 -18.666666,18.66667 -10.309333,0 -18.666666,-8.35734 -18.666666,-18.66667 0,-10.30933 8.357333,-18.66667 18.666666,-18.66667 10.309333,0 18.666666,8.35734 18.666666,18.66667"
     inkscape:connector-curvature="0" /></svg>