<?xml version="1.0" encoding="UTF-8" standalone="no"?>
<svg
   xmlns:dc="http://purl.org/dc/elements/1.1/"
   xmlns:cc="http://creativecommons.org/ns#"
   xmlns:rdf="http://www.w3.org/1999/02/22-rdf-syntax-ns#"
   xmlns:svg="http://www.w3.org/2000/svg"
   xmlns="http://www.w3.org/2000/svg"
   xmlns:sodipodi="http://sodipodi.sourceforge.net/DTD/sodipodi-0.dtd"
   xmlns:inkscape="http://www.inkscape.org/namespaces/inkscape"
   viewBox="0 0 341.33334 341.33334"
   height="256"
   width="256"
   xml:space="preserve"
   id="svg2"
   version="1.1"
   sodipodi:docname="VTech - V.Smile-content.svg"
   inkscape:version="0.92.2 (5c3e80d, 2017-08-06)"><sodipodi:namedview
     pagecolor="#ffffff"
     bordercolor="#666666"
     borderopacity="1"
     objecttolerance="10"
     gridtolerance="10"
     guidetolerance="10"
     inkscape:pageopacity="0"
     inkscape:pageshadow="2"
     inkscape:window-width="1024"
     inkscape:window-height="705"
     id="namedview30"
     showgrid="false"
     inkscape:pagecheckerboard="true"
     inkscape:zoom="0.69140623"
     inkscape:cx="170.66667"
     inkscape:cy="170.66667"
     inkscape:window-x="-8"
     inkscape:window-y="-8"
     inkscape:window-maximized="1"
     inkscape:current-layer="svg2" /><metadata
     id="metadata8"><rdf:RDF><cc:Work
         rdf:about=""><dc:format>image/svg+xml</dc:format><dc:type
           rdf:resource="http://purl.org/dc/dcmitype/StillImage" /><dc:title></dc:title></cc:Work></rdf:RDF></metadata><defs
     id="defs6"><clipPath
       id="clipPath18"
       clipPathUnits="userSpaceOnUse"><path
         id="path16"
         d="M 0,256 H 256 V 0 H 0 Z" /></clipPath><clipPath
       id="clipPath26"
       clipPathUnits="userSpaceOnUse"><path
         id="path24"
         d="M 8,248 H 248 V 8 H 8 Z" /></clipPath></defs><g
     id="g36"
     transform="matrix(1.3333333,0,0,-1.3333333,266.66666,21.333338)"><path
       inkscape:connector-curvature="0"
       d="m 0,0 c -28,0 -16,-8 -36,-8 -20,0 -16,8 -36,8 -20,0 -16,-8 -36,-8 -20,0 -8,8 -36,8 -23.081,0 -35.29,-21.745 -38.867,-29.384 -0.748,-1.596 -1.133,-3.329 -1.133,-5.092 V -192 H 40 v 157.524 c 0,1.763 -0.386,3.496 -1.133,5.092 C 35.29,-21.745 23.081,0 0,0"
       style="fill:#4b5da7;fill-opacity:1;fill-rule:nonzero;stroke:none"
       id="path38" /></g><g
     id="g40"
     transform="matrix(1.3333333,0,0,-1.3333333,303.99999,64.000004)"><path
       inkscape:connector-curvature="0"
       d="m 0,0 h -200 c -2.209,0 -4,-1.791 -4,-4 v -92 c 0,-11.046 8.954,-20 20,-20 h 168 c 11.046,0 20,8.954 20,20 V -4 C 4,-1.791 2.209,0 0,0"
       style="fill:#354f9f;fill-opacity:1;fill-rule:nonzero;stroke:none"
       id="path42" /></g><g
     id="g44"
     transform="matrix(1.3333333,0,0,-1.3333333,303.99999,69.333337)"><path
       inkscape:connector-curvature="0"
       d="m 0,0 v -92 c 0,-8.822 -7.178,-16 -16,-16 h -168 c -8.822,0 -16,7.178 -16,16 V 0 H 0"
       style="fill:#ffffff;fill-opacity:1;fill-rule:nonzero;stroke:none"
       id="path46" /></g><g
     id="g48"
     transform="matrix(1.3333333,0,0,-1.3333333,298.66666,320)"><path
       inkscape:connector-curvature="0"
       d="m 0,0 h -192 v 60 c 0,4.418 3.582,8 8,8 H -8 c 4.418,0 8,-3.582 8,-8 z"
       style="fill:#354f9f;fill-opacity:1;fill-rule:nonzero;stroke:none"
       id="path50" /></g><g
     id="g52"
     transform="matrix(1.3333333,0,0,-1.3333333,293.33333,277.33333)"><path
       inkscape:connector-curvature="0"
       d="m 0,0 h -184 v 28 c 0,2.209 1.791,4 4,4 H -4 c 2.209,0 4,-1.791 4,-4 z"
       style="fill:#4b5da7;fill-opacity:1;fill-rule:nonzero;stroke:none"
       id="path54" /></g><g
     id="g56"
     transform="matrix(1.3333333,0,0,-1.3333333,69.333332,266.66667)"><path
       inkscape:connector-curvature="0"
       d="M 0,0 V 4 H -4 V 0 h -4 l 6,-4 6,4 z"
       style="fill:#354f9f;fill-opacity:1;fill-rule:nonzero;stroke:none"
       id="path58" /></g></svg>
